<svg xmlns="http://www.w3.org/2000/svg" xmlns:xlink="http://www.w3.org/1999/xlink" width="20" height="20" viewBox="0 0 20 20">
  <defs>
    <clipPath id="clip-path">
      <rect id="Rectangle_788" data-name="Rectangle 788" width="20" height="20" fill="none"/>
    </clipPath>
  </defs>
  <g id="Chinesisch-flage" transform="translate(-768 -787)">
    <g id="Group_1884" data-name="Group 1884" transform="translate(768 787)">
      <g id="Group_1884-2" data-name="Group 1884" clip-path="url(#clip-path)">
        <path id="Path_655" data-name="Path 655" d="M10,0A10,10,0,1,1,0,10,10,10,0,0,1,10,0" fill="#ee1c25"/>
        <path id="Path_656" data-name="Path 656" d="M6.252,2.9,8.441,9.639,2.71,5.475H9.794L4.063,9.639Z" fill="#ff0"/>
        <path id="Path_657" data-name="Path 657" d="M12.945,1.76l-.207,2.352L11.523,2.087l2.173.924-2.3.53Z" fill="#ff0"/>
        <path id="Path_658" data-name="Path 658" d="M15.833,4.521l-1.1,2.087-.334-2.337,1.644,1.695-2.326-.4Z" fill="#ff0"/>
        <path id="Path_659" data-name="Path 659" d="M16.108,8.683l-1.859,1.456L14.9,7.868l.81,2.218L13.748,8.768Z" fill="#ff0"/>
        <path id="Path_660" data-name="Path 660" d="M12.9,10.43l-.11,2.359-1.3-1.973,2.209.833-2.277.625Z" fill="#ff0"/>
      </g>
    </g>
    <g id="Group_1764" data-name="Group 1764" transform="translate(718 748.096)">
      <g id="Ellipse_24" data-name="Ellipse 24" transform="translate(50 38.904)" fill="none" stroke="#ecedee" stroke-width="1">
        <circle cx="10" cy="10" r="10" stroke="none"/>
        <circle cx="10" cy="10" r="9.5" fill="none"/>
      </g>
    </g>
  </g>
</svg>
