<svg width="1921" height="841" viewBox="0 0 1921 841" fill="none" xmlns="http://www.w3.org/2000/svg">
<mask id="mask0_932_386" style="mask-type:alpha" maskUnits="userSpaceOnUse" x="0" y="0" width="1921" height="841">
<rect x="0.808594" y="0.976685" width="1920" height="840" fill="#D9D9D9"/>
</mask>
<g mask="url(#mask0_932_386)">
<circle opacity="0.6" cx="960.809" cy="380.977" r="633" stroke="#3A3A3A" stroke-linecap="round" stroke-dasharray="8 6"/>
<circle opacity="0.3" cx="960.652" cy="380.82" r="791.156" stroke="#3A3A3A" stroke-linecap="round" stroke-dasharray="8 6"/>
<rect x="169.809" y="603.977" width="100" height="100" rx="50" fill="#161616"/>
<path d="M245.976 667.308C241.454 669.8 236.285 671.185 230.747 671.092C214.318 670.723 201.397 657.525 201.674 641.465C201.766 636.019 203.427 630.943 206.196 626.697C197.428 631.589 191.429 640.726 191.244 651.341C190.875 667.308 203.889 680.599 220.225 680.968C231.116 681.153 240.623 675.707 245.976 667.308Z" fill="#6A6A6A"/>
<path d="M221.979 625.405C217.548 625.405 213.395 626.513 209.703 628.543C207.396 632.328 206.104 636.666 205.919 641.096C205.642 655.033 216.995 666.57 231.116 666.847C235.362 666.847 240.161 665.832 243.853 663.801C246.068 660.017 247.361 655.586 247.361 650.879C247.545 636.85 236.1 625.405 221.979 625.405Z" fill="#6A6A6A"/>
<rect x="132.309" y="481.477" width="19.8103" height="19.8103" rx="9.90516" stroke="url(#paint0_linear_932_386)"/>
<rect x="1403.81" y="680.977" width="124.148" height="124.148" rx="62.074" fill="#161616"/>
<path d="M1457.05 757.117L1457.13 728.871H1467.05C1474.74 728.871 1479.33 733.776 1479.17 743.23C1479.02 752.268 1474.23 757.117 1467.01 757.117H1457.05ZM1466.41 750.635C1468.67 750.461 1471.51 749.51 1471.51 743.102C1471.51 736.695 1468.18 735.335 1466.35 735.288C1466.13 735.288 1464.94 735.288 1464.71 735.335V750.635H1466.41Z" fill="#6A6A6A"/>
<path d="M1479.23 758.587C1475.05 762.218 1469.6 764.042 1464.08 763.659C1458.55 763.276 1453.41 760.716 1449.77 756.543C1446.13 752.369 1444.3 746.922 1444.67 741.397C1445.04 735.873 1447.59 730.722 1451.76 727.076C1455.93 723.43 1461.37 721.586 1466.9 721.949C1472.42 722.313 1477.58 724.853 1481.23 729.014C1484.89 733.175 1486.74 738.615 1486.39 744.141C1486.03 749.667 1483.5 754.826 1479.35 758.488H1489.5C1493.26 752.733 1494.79 745.803 1493.8 739C1492.82 732.196 1489.38 725.987 1484.14 721.538C1478.9 717.089 1472.21 714.708 1465.34 714.841C1458.46 714.973 1451.87 717.611 1446.81 722.259C1441.74 726.907 1438.55 733.244 1437.82 740.081C1437.1 746.918 1438.9 753.783 1442.88 759.388C1446.86 764.993 1452.75 768.951 1459.45 770.519C1466.14 772.087 1473.18 771.157 1479.23 767.903V758.587Z" fill="#6A6A6A"/>
<path d="M1489.53 764.81C1489.53 765.574 1489.3 766.321 1488.88 766.956C1488.45 767.59 1487.85 768.085 1487.15 768.377C1486.44 768.669 1485.66 768.746 1484.91 768.596C1484.17 768.447 1483.48 768.079 1482.94 767.538C1482.4 766.998 1482.03 766.31 1481.88 765.561C1481.73 764.811 1481.81 764.035 1482.1 763.33C1482.4 762.625 1482.89 762.022 1483.53 761.598C1484.16 761.175 1484.91 760.949 1485.67 760.95C1486.18 760.95 1486.68 761.05 1487.15 761.244C1487.62 761.438 1488.04 761.722 1488.4 762.081C1488.76 762.439 1489.04 762.865 1489.24 763.333C1489.43 763.802 1489.53 764.304 1489.53 764.81Z" fill="#6A6A6A"/>
<rect x="1657.81" y="521.977" width="124.148" height="124.148" rx="62.074" fill="#161616"/>
<path d="M1719.89 614.147V602.475C1732.24 602.475 1741.83 590.224 1737.09 577.221C1735.35 572.443 1731.49 568.587 1726.68 566.846C1713.67 562.136 1701.42 571.692 1701.42 584.046H1689.79C1689.79 564.355 1708.83 548.997 1729.48 555.447C1738.49 558.28 1745.69 565.447 1748.49 574.457C1754.94 595.104 1739.58 614.147 1719.89 614.147Z" fill="#6A6A6A"/>
<path fill-rule="evenodd" clip-rule="evenodd" d="M1719.92 602.544H1708.28V590.906H1719.92V602.544Z" fill="#6A6A6A"/>
<path fill-rule="evenodd" clip-rule="evenodd" d="M1708.28 611.451H1699.38V602.544H1708.28V611.451Z" fill="#6A6A6A"/>
<path fill-rule="evenodd" clip-rule="evenodd" d="M1699.37 602.544H1691.9V595.07H1699.37V602.544Z" fill="#6A6A6A"/>
<rect x="1540.81" y="380.977" width="105.338" height="105.338" rx="52.6689" fill="#161616"/>
<g clip-path="url(#clip0_932_386)">
<path d="M1599.66 441.768L1599.82 441.18C1600.01 440.482 1599.94 439.838 1599.62 439.363C1599.31 438.926 1598.81 438.669 1598.2 438.639L1586.67 438.487C1586.63 438.487 1586.6 438.477 1586.56 438.459C1586.53 438.441 1586.5 438.416 1586.48 438.385C1586.46 438.354 1586.45 438.318 1586.45 438.281C1586.44 438.243 1586.45 438.205 1586.46 438.17C1586.48 438.112 1586.52 438.061 1586.56 438.023C1586.61 437.985 1586.67 437.963 1586.73 437.958L1598.38 437.8C1599.75 437.735 1601.25 436.573 1601.78 435.154L1602.44 433.356C1602.46 433.305 1602.47 433.252 1602.47 433.197C1602.47 433.169 1602.46 433.14 1602.46 433.112C1602.1 431.439 1601.22 429.934 1599.95 428.827C1598.69 427.72 1597.11 427.071 1595.46 426.979C1593.81 426.887 1592.18 427.356 1590.81 428.317C1589.44 429.277 1588.41 430.675 1587.87 432.298C1587.31 431.862 1586.63 431.619 1585.92 431.601C1585.22 431.583 1584.52 431.791 1583.94 432.197C1583.35 432.603 1582.9 433.188 1582.65 433.87C1582.4 434.552 1582.35 435.298 1582.53 436.006C1581.84 436.025 1581.17 436.194 1580.55 436.503C1579.93 436.812 1579.38 437.254 1578.94 437.799C1578.5 438.344 1578.17 438.98 1577.99 439.665C1577.8 440.35 1577.76 441.069 1577.86 441.772C1577.87 441.828 1577.89 441.879 1577.93 441.916C1577.98 441.953 1578.03 441.973 1578.08 441.974H1599.39C1599.45 441.974 1599.51 441.954 1599.56 441.917C1599.6 441.88 1599.64 441.828 1599.66 441.768Z" fill="#6A6A6A"/>
<path d="M1603.5 433.492C1603.4 433.492 1603.29 433.495 1603.18 433.501C1603.16 433.502 1603.15 433.506 1603.13 433.512C1603.1 433.522 1603.08 433.539 1603.06 433.561C1603.04 433.583 1603.02 433.61 1603.02 433.639L1602.56 435.264C1602.36 435.962 1602.43 436.606 1602.76 437.081C1602.93 437.306 1603.14 437.488 1603.39 437.614C1603.63 437.739 1603.9 437.804 1604.17 437.805L1606.63 437.963C1606.67 437.964 1606.7 437.974 1606.73 437.991C1606.76 438.008 1606.79 438.032 1606.81 438.061C1606.83 438.093 1606.84 438.129 1606.85 438.166C1606.85 438.204 1606.85 438.242 1606.83 438.278C1606.81 438.337 1606.78 438.388 1606.73 438.426C1606.68 438.464 1606.63 438.486 1606.57 438.49L1604.01 438.649C1602.62 438.715 1601.13 439.876 1600.6 441.293L1600.42 441.793C1600.41 441.814 1600.41 441.837 1600.41 441.859C1600.41 441.881 1600.42 441.903 1600.43 441.921C1600.44 441.94 1600.46 441.956 1600.48 441.967C1600.5 441.978 1600.52 441.985 1600.54 441.986H1609.34C1609.4 441.988 1609.45 441.97 1609.49 441.936C1609.53 441.903 1609.56 441.855 1609.58 441.801C1609.84 440.829 1609.88 439.807 1609.7 438.815C1609.52 437.824 1609.12 436.889 1608.53 436.085C1607.94 435.28 1607.18 434.627 1606.31 434.178C1605.44 433.728 1604.48 433.493 1603.5 433.492H1603.5Z" fill="#6A6A6A"/>
</g>
<rect x="1650.81" y="153.977" width="150.483" height="150.483" rx="75.2413" fill="#161616"/>
<path d="M1739.11 222.01C1738.63 221.931 1738.17 222.252 1738.06 222.741L1735.81 230.304L1733.34 221.991H1730.78L1734.48 232.245C1734.76 232.772 1734.64 233.433 1734.19 233.821C1733.82 234.117 1733.47 234.117 1732.69 234.111H1732.51V235.977H1733.13C1734.19 235.977 1734.98 235.933 1735.42 235.548C1735.95 235.084 1736.35 234.477 1736.56 233.796L1740.67 222.016H1739.11V222.01H1739.11ZM1742.81 222.961C1742.09 223.566 1741.68 224.478 1741.7 225.432C1741.67 226.124 1741.94 226.794 1742.44 227.26C1742.91 227.733 1743.87 228.155 1745.3 228.521C1745.66 228.629 1746.02 228.711 1746.39 228.766C1746.91 228.88 1748.45 229.214 1748.45 230.26C1748.44 230.729 1748.18 231.156 1747.77 231.369C1747.32 231.608 1746.81 231.727 1746.3 231.716C1745.65 231.74 1745.01 231.57 1744.45 231.224C1744.04 230.929 1743.77 230.472 1743.7 229.964H1741.45C1741.43 230.904 1741.84 231.801 1742.55 232.397C1743.28 233.027 1744.4 233.323 1745.95 233.323C1747.5 233.323 1748.78 233.027 1749.57 232.434C1750.39 231.808 1750.85 230.807 1750.81 229.762C1750.84 229.079 1750.59 228.413 1750.11 227.934C1749.24 227.33 1748.27 226.913 1747.24 226.711L1746.45 226.541C1744.75 226.176 1743.98 225.716 1743.98 225.047C1743.96 224.625 1744.16 224.224 1744.5 223.989C1744.95 223.752 1745.45 223.643 1745.95 223.674C1746.52 223.644 1747.08 223.803 1747.55 224.127H1747.58L1747.7 224.234C1747.78 224.315 1747.87 224.401 1747.94 224.493C1748.13 224.866 1748.51 225.106 1748.92 225.123H1750.37C1750.28 224.26 1749.86 223.466 1749.21 222.905C1748.23 222.244 1747.07 221.922 1745.9 221.984C1744.8 221.936 1743.72 222.259 1742.81 222.905M1722.34 222.905C1721.62 223.512 1721.21 224.425 1721.23 225.381C1721.18 226.104 1721.46 226.81 1721.99 227.291C1722.45 227.764 1723.42 228.186 1724.85 228.552C1725.21 228.661 1725.58 228.743 1725.95 228.798C1726.47 228.911 1728.01 229.245 1728.01 230.298C1728.01 230.769 1727.75 231.199 1727.34 231.413C1726.88 231.653 1726.37 231.772 1725.86 231.76C1725.2 231.789 1724.54 231.618 1723.98 231.268C1723.57 230.972 1723.3 230.516 1723.23 230.008H1720.97C1720.95 230.953 1721.36 231.855 1722.07 232.453C1722.81 233.083 1723.93 233.38 1725.49 233.38C1727.05 233.38 1728.33 233.077 1729.12 232.491C1729.95 231.862 1730.41 230.855 1730.36 229.806C1730.39 229.121 1730.14 228.453 1729.66 227.972C1728.79 227.365 1727.81 226.946 1726.78 226.743L1725.98 226.573C1724.27 226.201 1723.51 225.741 1723.51 225.073C1723.5 224.649 1723.7 224.247 1724.04 224.014C1724.49 223.776 1725 223.667 1725.5 223.699C1726.07 223.671 1726.63 223.832 1727.1 224.159H1727.13L1727.25 224.266C1727.33 224.347 1727.42 224.433 1727.49 224.524C1727.69 224.899 1728.06 225.14 1728.47 225.155H1729.94C1729.83 224.306 1729.42 223.53 1728.78 222.98C1727.79 222.316 1726.63 221.991 1725.45 222.054C1724.35 222.008 1723.27 222.334 1722.36 222.98M1717.54 222.35C1716.76 222.527 1716.02 222.85 1715.36 223.302C1714.65 223.674 1714.12 224.314 1713.87 225.085C1713.48 225.974 1713.29 226.945 1713.32 227.921V233.455H1715.82V227.562C1715.75 226.619 1716.1 225.693 1716.77 225.041C1717.54 224.448 1718.5 224.16 1719.46 224.228H1720.08V222.06C1719.21 222.064 1718.33 222.17 1717.48 222.375M1703.29 223.005C1702.87 223.332 1702.54 223.767 1702.33 224.266C1702.3 224.373 1702.27 224.632 1702.67 224.632H1704.71C1704.91 224.331 1705.2 224.109 1705.54 224.001C1705.94 223.872 1706.35 223.808 1706.77 223.812C1707.25 223.802 1707.73 223.875 1708.19 224.027C1708.74 224.133 1709.14 224.623 1709.13 225.193C1709.13 226.359 1707.39 226.579 1706.81 226.655L1705.52 226.831C1704.56 226.94 1703.63 227.265 1702.81 227.783C1702.1 228.331 1701.73 229.215 1701.82 230.115C1701.73 231.095 1702.14 232.053 1702.92 232.636C1703.73 233.183 1704.68 233.468 1705.65 233.456C1706.19 233.456 1706.81 233.418 1707.54 233.349C1708.21 233.292 1708.87 233.114 1709.48 232.825C1710.12 232.6 1710.64 232.132 1710.95 231.521C1711.4 230.763 1711.61 229.884 1711.57 229V225.01C1711.59 224.122 1711.13 223.292 1710.37 222.854C1709.23 222.263 1707.95 221.995 1706.67 222.079C1705.49 222 1704.31 222.326 1703.32 223.006M1704.71 231.357C1704.37 231.031 1704.18 230.572 1704.19 230.096C1704.15 229.649 1704.31 229.208 1704.62 228.892C1705.01 228.575 1705.47 228.358 1705.96 228.262L1707.02 228.041C1707.62 227.92 1708.2 227.739 1708.75 227.499L1709.22 227.278V228.892C1709.37 230.058 1709 230.638 1708.38 231.048C1707.75 231.596 1706.94 231.878 1706.12 231.835C1705.61 231.849 1705.11 231.679 1704.71 231.357Z" fill="#6A6A6A"/>
<rect x="405.809" y="703.977" width="180.579" height="180.579" rx="90.2895" fill="#161616"/>
<path d="M479.809 792.768V774.977L488.645 779.765V787.781L500.342 787.787L509.322 792.768H479.809ZM502.734 786.314V774.977L511.809 779.645V791.671L502.734 786.314ZM502.734 808.059V800.113L490.947 800.104C490.958 800.157 481.818 795.043 481.818 795.043L511.809 795.186V812.977L502.734 808.059ZM479.809 808.059L479.809 796.433L488.645 801.663V812.728L479.809 808.059Z" fill="#6A6A6A"/>
<rect x="272.809" y="420.977" width="124.148" height="124.148" rx="62.074" fill="#161616"/>
<path d="M340.211 500.949L350.809 498.67C350.809 498.67 346.983 472.982 346.955 472.814C346.927 472.645 346.785 472.532 346.643 472.532C346.501 472.532 343.81 472.335 343.81 472.335C343.81 472.335 341.939 470.478 341.713 470.281C341.656 470.225 341.599 470.197 341.543 470.169L340.211 500.949ZM341.089 470.113C341.061 470.113 341.004 470.141 340.976 470.141C340.948 470.141 340.551 470.253 339.927 470.45C339.304 468.65 338.199 466.99 336.244 466.99C336.187 466.99 336.13 466.99 336.074 466.99C335.507 466.286 334.827 465.977 334.232 465.977C329.67 465.977 327.488 471.632 326.808 474.502C325.051 475.036 323.776 475.43 323.634 475.486C322.642 475.796 322.614 475.824 322.501 476.752C322.387 477.428 319.809 497.263 319.809 497.263L339.729 500.977L341.089 470.113ZM335.904 471.491C335.904 471.547 335.904 471.632 335.904 471.688C334.799 472.026 333.58 472.391 332.39 472.757C333.07 470.169 334.345 468.903 335.45 468.424C335.734 469.156 335.904 470.141 335.904 471.491ZM334.09 467.186C334.288 467.186 334.487 467.243 334.685 467.383C333.24 468.059 331.653 469.775 331.001 473.207C330.038 473.517 329.103 473.798 328.224 474.051C328.99 471.435 330.831 467.186 334.09 467.186ZM334.884 482.464C334.884 482.464 333.693 481.845 332.277 481.845C330.151 481.845 330.066 483.167 330.066 483.505C330.066 485.305 334.827 486.009 334.827 490.257C334.827 493.605 332.702 495.744 329.811 495.744C326.354 495.744 324.597 493.605 324.597 493.605L325.533 490.567C325.533 490.567 327.346 492.114 328.876 492.114C329.868 492.114 330.293 491.326 330.293 490.764C330.293 488.4 326.383 488.288 326.383 484.405C326.383 481.141 328.735 477.962 333.523 477.962C335.365 477.962 336.272 478.497 336.272 478.497L334.884 482.464ZM336.697 468.227C337.717 468.34 338.369 469.494 338.794 470.788C338.284 470.957 337.717 471.125 337.094 471.322C337.094 471.21 337.094 471.097 337.094 470.957C337.094 469.859 336.952 468.959 336.697 468.227Z" fill="#6A6A6A"/>
<rect x="117.809" y="135.977" width="127.91" height="127.91" rx="63.9551" fill="#161616"/>
<g clip-path="url(#clip1_932_386)">
<path d="M173.177 199.733C173.177 200.221 173.23 200.616 173.322 200.906C173.427 201.196 173.559 201.513 173.743 201.856C173.809 201.961 173.835 202.067 173.835 202.159C173.835 202.291 173.756 202.423 173.585 202.555L172.756 203.109C172.638 203.188 172.519 203.227 172.414 203.227C172.282 203.227 172.151 203.161 172.019 203.043C171.835 202.845 171.677 202.634 171.546 202.423C171.414 202.199 171.282 201.948 171.138 201.645C170.111 202.858 168.822 203.465 167.269 203.465C166.164 203.465 165.282 203.148 164.638 202.515C163.993 201.882 163.664 201.038 163.664 199.983C163.664 198.862 164.059 197.953 164.861 197.267C165.664 196.581 166.73 196.238 168.085 196.238C168.532 196.238 168.993 196.278 169.48 196.344C169.967 196.41 170.467 196.515 170.993 196.634V195.671C170.993 194.669 170.782 193.97 170.375 193.561C169.954 193.153 169.243 192.955 168.23 192.955C167.769 192.955 167.296 193.007 166.809 193.126C166.322 193.245 165.848 193.39 165.388 193.574C165.177 193.667 165.019 193.72 164.927 193.746C164.835 193.772 164.769 193.785 164.717 193.785C164.532 193.785 164.44 193.654 164.44 193.377V192.731C164.44 192.52 164.467 192.361 164.532 192.269C164.598 192.177 164.717 192.084 164.901 191.992C165.361 191.755 165.914 191.557 166.559 191.399C167.204 191.227 167.888 191.148 168.611 191.148C170.177 191.148 171.322 191.504 172.059 192.216C172.782 192.928 173.151 194.01 173.151 195.46V199.733H173.177ZM167.835 201.737C168.269 201.737 168.717 201.658 169.19 201.5C169.664 201.342 170.085 201.051 170.44 200.656C170.651 200.405 170.809 200.128 170.888 199.812C170.967 199.495 171.019 199.113 171.019 198.665V198.111C170.638 198.018 170.23 197.939 169.809 197.887C169.388 197.834 168.98 197.807 168.572 197.807C167.69 197.807 167.046 197.979 166.611 198.335C166.177 198.691 165.967 199.192 165.967 199.851C165.967 200.471 166.125 200.933 166.454 201.249C166.769 201.579 167.23 201.737 167.835 201.737ZM178.401 203.161C178.164 203.161 178.006 203.122 177.901 203.029C177.796 202.95 177.704 202.766 177.625 202.515L174.532 192.322C174.454 192.058 174.414 191.887 174.414 191.794C174.414 191.583 174.519 191.465 174.73 191.465H176.019C176.269 191.465 176.44 191.504 176.532 191.596C176.638 191.676 176.717 191.86 176.796 192.111L179.006 200.84L181.059 192.111C181.125 191.847 181.204 191.676 181.309 191.596C181.414 191.517 181.598 191.465 181.835 191.465H182.888C183.138 191.465 183.309 191.504 183.414 191.596C183.519 191.676 183.611 191.86 183.664 192.111L185.743 200.946L188.019 192.111C188.098 191.847 188.19 191.676 188.282 191.596C188.388 191.517 188.559 191.465 188.796 191.465H190.019C190.23 191.465 190.348 191.57 190.348 191.794C190.348 191.86 190.335 191.926 190.322 192.005C190.309 192.084 190.282 192.19 190.23 192.335L187.059 202.528C186.98 202.792 186.888 202.963 186.782 203.043C186.677 203.122 186.506 203.174 186.282 203.174H185.151C184.901 203.174 184.73 203.135 184.625 203.043C184.519 202.95 184.427 202.779 184.375 202.515L182.335 194.01L180.309 202.502C180.243 202.766 180.164 202.937 180.059 203.029C179.954 203.122 179.769 203.161 179.532 203.161H178.401ZM195.309 203.517C194.625 203.517 193.94 203.438 193.282 203.28C192.625 203.122 192.111 202.95 191.769 202.753C191.559 202.634 191.414 202.502 191.361 202.383C191.309 202.265 191.282 202.133 191.282 202.014V201.342C191.282 201.065 191.388 200.933 191.585 200.933C191.664 200.933 191.743 200.946 191.822 200.972C191.901 200.999 192.019 201.051 192.151 201.104C192.598 201.302 193.085 201.46 193.598 201.566C194.125 201.671 194.638 201.724 195.164 201.724C195.993 201.724 196.638 201.579 197.085 201.289C197.532 200.999 197.769 200.577 197.769 200.036C197.769 199.667 197.651 199.363 197.414 199.113C197.177 198.862 196.73 198.638 196.085 198.427L194.177 197.834C193.217 197.531 192.506 197.082 192.072 196.489C191.638 195.909 191.414 195.262 191.414 194.577C191.414 194.023 191.532 193.535 191.769 193.113C192.006 192.691 192.322 192.322 192.717 192.032C193.111 191.728 193.559 191.504 194.085 191.346C194.611 191.188 195.164 191.122 195.743 191.122C196.032 191.122 196.335 191.135 196.625 191.174C196.927 191.214 197.204 191.267 197.48 191.32C197.743 191.385 197.993 191.451 198.23 191.531C198.467 191.61 198.651 191.689 198.782 191.768C198.967 191.873 199.098 191.979 199.177 192.098C199.256 192.203 199.296 192.348 199.296 192.533V193.153C199.296 193.429 199.19 193.574 198.993 193.574C198.888 193.574 198.717 193.522 198.493 193.416C197.743 193.073 196.901 192.902 195.967 192.902C195.217 192.902 194.625 193.021 194.217 193.271C193.809 193.522 193.598 193.904 193.598 194.445C193.598 194.814 193.73 195.131 193.993 195.381C194.256 195.632 194.743 195.882 195.44 196.106L197.309 196.7C198.256 197.003 198.94 197.425 199.348 197.966C199.756 198.506 199.954 199.126 199.954 199.812C199.954 200.379 199.835 200.893 199.611 201.342C199.375 201.79 199.059 202.185 198.651 202.502C198.243 202.832 197.756 203.069 197.19 203.24C196.598 203.425 195.98 203.517 195.309 203.517Z" fill="#6A6A6A"/>
<path fill-rule="evenodd" clip-rule="evenodd" d="M197.795 209.926C193.466 213.131 187.176 214.832 181.768 214.832C174.189 214.832 167.361 212.023 162.203 207.355C161.795 206.985 162.163 206.484 162.65 206.774C168.229 210.018 175.111 211.983 182.229 211.983C187.032 211.983 192.308 210.981 197.163 208.924C197.887 208.594 198.505 209.399 197.795 209.926Z" fill="#6A6A6A"/>
<path fill-rule="evenodd" clip-rule="evenodd" d="M199.597 207.869C199.044 207.157 195.939 207.526 194.531 207.698C194.11 207.75 194.044 207.381 194.426 207.104C196.899 205.364 200.965 205.865 201.439 206.445C201.912 207.038 201.307 211.113 198.991 213.065C198.636 213.368 198.294 213.21 198.452 212.814C198.978 211.509 200.149 208.568 199.597 207.869Z" fill="#6A6A6A"/>
</g>
<rect x="1505.81" y="560.977" width="15.0483" height="15.0483" rx="7.52413" fill="url(#paint1_linear_932_386)"/>
<rect x="1719.31" y="29.4767" width="27.3344" height="27.3344" rx="13.6672" stroke="url(#paint2_linear_932_386)"/>
<rect x="264.809" y="278.977" width="15.0483" height="15.0483" rx="7.52413" fill="url(#paint3_linear_932_386)"/>
<rect x="464.809" y="622.977" width="22.5724" height="22.5724" rx="11.2862" fill="url(#paint4_linear_932_386)"/>
<rect x="1459.81" y="28.9767" width="150.483" height="150.483" rx="75.2413" fill="#161616"/>
<path d="M1548.59 88.5306C1544.64 86.0512 1539.44 86.6419 1534.8 89.5695C1530.18 86.6419 1524.98 86.0512 1521.03 88.5306C1514.79 92.4486 1514.03 102.539 1519.34 111.07C1523.25 117.359 1529.37 121.044 1534.81 120.976C1540.25 121.044 1546.37 117.359 1550.28 111.07C1555.58 102.539 1554.83 92.4486 1548.59 88.5306ZM1522.21 109.268C1521.11 107.526 1520.29 105.627 1519.76 103.636C1519.29 101.909 1519.11 100.114 1519.23 98.3266C1519.47 95.174 1520.74 92.7189 1522.82 91.4129C1524.9 90.1069 1527.66 90.0275 1530.59 91.196C1531.03 91.3724 1531.46 91.5763 1531.89 91.8013C1530.26 93.2929 1528.85 95.0029 1527.68 96.883C1524.46 102.062 1523.48 107.825 1524.61 112.419C1523.71 111.448 1522.91 110.393 1522.21 109.268ZM1549.86 103.635C1549.33 105.625 1548.51 107.524 1547.41 109.267C1546.71 110.393 1545.91 111.45 1545.02 112.424C1546.02 108.305 1545.34 103.259 1542.87 98.5273C1542.83 98.4493 1542.78 98.3806 1542.71 98.3254C1542.64 98.2702 1542.57 98.2299 1542.48 98.207C1542.4 98.1841 1542.31 98.1792 1542.22 98.1926C1542.14 98.2059 1542.06 98.2372 1541.98 98.2845L1534.3 103.107C1534.23 103.151 1534.17 103.209 1534.12 103.276C1534.07 103.344 1534.04 103.42 1534.02 103.501C1534 103.582 1534 103.666 1534.01 103.747C1534.03 103.829 1534.06 103.908 1534.1 103.978L1535.23 105.789C1535.27 105.859 1535.33 105.92 1535.4 105.968C1535.46 106.017 1535.54 106.051 1535.62 106.07C1535.7 106.088 1535.78 106.091 1535.86 106.077C1535.95 106.063 1536.02 106.034 1536.09 105.99L1541.07 102.863C1541.23 103.348 1541.4 103.834 1541.52 104.319C1541.99 106.045 1542.17 107.838 1542.05 109.623C1541.81 112.774 1540.54 115.229 1538.45 116.537C1537.38 117.196 1536.15 117.554 1534.89 117.572H1534.73C1533.48 117.554 1532.25 117.196 1531.17 116.537C1529.09 115.229 1527.81 112.774 1527.58 109.623C1527.46 107.836 1527.64 106.041 1528.11 104.313C1529.19 100.315 1531.42 96.7267 1534.52 93.999C1535.86 92.8189 1537.38 91.8706 1539.03 91.1928C1541.95 90.0243 1544.71 90.102 1546.79 91.4096C1548.87 92.7173 1550.15 95.1707 1550.39 98.3233C1550.51 100.111 1550.33 101.906 1549.86 103.635Z" fill="#6A6A6A"/>
</g>
<defs>
<linearGradient id="paint0_linear_932_386" x1="132.809" y1="491.382" x2="151.619" y2="491.382" gradientUnits="userSpaceOnUse">
<stop stop-color="#0052CC"/>
<stop offset="1" stop-color="#0099FF"/>
</linearGradient>
<linearGradient id="paint1_linear_932_386" x1="1505.81" y1="568.501" x2="1520.86" y2="568.501" gradientUnits="userSpaceOnUse">
<stop stop-color="#0052CC"/>
<stop offset="1" stop-color="#0099FF"/>
</linearGradient>
<linearGradient id="paint2_linear_932_386" x1="1719.81" y1="43.1441" x2="1746.14" y2="43.1441" gradientUnits="userSpaceOnUse">
<stop stop-color="#0052CC"/>
<stop offset="1" stop-color="#0099FF"/>
</linearGradient>
<linearGradient id="paint3_linear_932_386" x1="264.809" y1="286.501" x2="279.857" y2="286.501" gradientUnits="userSpaceOnUse">
<stop stop-color="#0052CC"/>
<stop offset="1" stop-color="#0099FF"/>
</linearGradient>
<linearGradient id="paint4_linear_932_386" x1="464.809" y1="634.263" x2="487.381" y2="634.263" gradientUnits="userSpaceOnUse">
<stop stop-color="#0052CC"/>
<stop offset="1" stop-color="#0099FF"/>
</linearGradient>
<clipPath id="clip0_932_386">
<rect width="32" height="15" fill="white" transform="translate(1577.81 426.977)"/>
</clipPath>
<clipPath id="clip1_932_386">
<rect width="40" height="24" fill="white" transform="translate(161.809 190.977)"/>
</clipPath>
</defs>
</svg>
