<svg width="375" height="583" viewBox="0 0 375 583" fill="none" xmlns="http://www.w3.org/2000/svg">
<g clip-path="url(#clip0_934_301)">
<circle opacity="0.6" cx="188" cy="247" r="200" stroke="#3A3A3A" stroke-width="0.421535" stroke-linecap="round" stroke-dasharray="3.37 2.53"/>
<circle opacity="0.3" cx="188" cy="247" r="275" stroke="#3A3A3A" stroke-width="0.421535" stroke-linecap="round" stroke-dasharray="3.37 2.53"/>
<rect x="26" y="407" width="53.9186" height="53.9186" rx="26.9593" fill="#161616"/>
<g clip-path="url(#clip1_934_301)">
<path d="M49.3402 433.875C49.3402 434.081 49.3624 434.248 49.4012 434.37C49.4456 434.492 49.5011 434.626 49.5787 434.77C49.6064 434.815 49.6175 434.859 49.6175 434.898C49.6175 434.954 49.5843 435.009 49.5121 435.065L49.1627 435.298C49.1128 435.332 49.0629 435.348 49.0185 435.348C48.963 435.348 48.9076 435.321 48.8521 435.271C48.7745 435.187 48.7079 435.098 48.6524 435.009C48.597 434.915 48.5415 434.809 48.4805 434.681C48.0479 435.193 47.5043 435.448 46.8498 435.448C46.3839 435.448 46.0123 435.315 45.7405 435.048C45.4687 434.781 45.3301 434.426 45.3301 433.981C45.3301 433.509 45.4965 433.125 45.8348 432.836C46.1731 432.547 46.6224 432.402 47.1937 432.402C47.3823 432.402 47.5764 432.419 47.7816 432.447C47.9869 432.475 48.1976 432.519 48.4195 432.569V432.163C48.4195 431.741 48.3307 431.446 48.1588 431.274C47.9813 431.102 47.6818 431.018 47.2547 431.018C47.0606 431.018 46.8609 431.04 46.6557 431.09C46.4505 431.14 46.2508 431.202 46.0567 431.279C45.9679 431.318 45.9014 431.341 45.8625 431.352C45.8237 431.363 45.796 431.368 45.7738 431.368C45.6961 431.368 45.6573 431.313 45.6573 431.196V430.924C45.6573 430.835 45.6684 430.768 45.6961 430.729C45.7239 430.69 45.7738 430.651 45.8515 430.612C46.0456 430.512 46.2785 430.429 46.5503 430.362C46.8221 430.29 47.1105 430.257 47.4156 430.257C48.0756 430.257 48.5581 430.407 48.8688 430.707C49.1738 431.007 49.3291 431.463 49.3291 432.074V433.875H49.3402ZM47.0883 434.72C47.2714 434.72 47.4599 434.687 47.6596 434.62C47.8593 434.554 48.0368 434.431 48.1865 434.264C48.2753 434.159 48.3418 434.042 48.3751 433.909C48.4084 433.775 48.4306 433.614 48.4306 433.425V433.192C48.2697 433.153 48.0978 433.119 47.9203 433.097C47.7428 433.075 47.5709 433.064 47.3989 433.064C47.0273 433.064 46.7555 433.136 46.5725 433.286C46.3895 433.436 46.3007 433.647 46.3007 433.925C46.3007 434.187 46.3673 434.381 46.5059 434.515C46.6391 434.654 46.8332 434.72 47.0883 434.72ZM51.5422 435.321C51.4423 435.321 51.3758 435.304 51.3314 435.265C51.287 435.232 51.2482 435.154 51.2149 435.048L49.9115 430.751C49.8782 430.64 49.8616 430.568 49.8616 430.529C49.8616 430.44 49.906 430.39 49.9947 430.39H50.5383C50.6436 430.39 50.7157 430.407 50.7546 430.446C50.7989 430.479 50.8322 430.557 50.8655 430.662L51.7973 434.342L52.6626 430.662C52.6903 430.551 52.7236 430.479 52.768 430.446C52.8123 430.412 52.89 430.39 52.9898 430.39H53.4335C53.5389 430.39 53.611 430.407 53.6554 430.446C53.6998 430.479 53.7386 430.557 53.7608 430.662L54.6371 434.387L55.5967 430.662C55.63 430.551 55.6688 430.479 55.7076 430.446C55.752 430.412 55.8241 430.39 55.9239 430.39H56.4397C56.5285 430.39 56.5784 430.435 56.5784 430.529C56.5784 430.557 56.5729 430.585 56.5673 430.618C56.5618 430.651 56.5507 430.696 56.5285 430.757L55.1918 435.054C55.1585 435.165 55.1197 435.237 55.0753 435.271C55.0309 435.304 54.9588 435.326 54.8645 435.326H54.3875C54.2821 435.326 54.21 435.31 54.1657 435.271C54.1213 435.232 54.0825 435.159 54.0603 435.048L53.2006 431.463L52.3464 435.043C52.3187 435.154 52.2854 435.226 52.241 435.265C52.1967 435.304 52.119 435.321 52.0192 435.321H51.5422ZM58.6694 435.471C58.381 435.471 58.0926 435.437 57.8153 435.371C57.538 435.304 57.3216 435.232 57.1774 435.148C57.0887 435.098 57.0277 435.043 57.0055 434.993C56.9833 434.943 56.9722 434.887 56.9722 434.837V434.554C56.9722 434.437 57.0166 434.381 57.0998 434.381C57.1331 434.381 57.1663 434.387 57.1996 434.398C57.2329 434.409 57.2828 434.431 57.3383 434.453C57.5269 434.537 57.7321 434.604 57.9484 434.648C58.1703 434.693 58.3866 434.715 58.6084 434.715C58.9579 434.715 59.2296 434.654 59.4182 434.531C59.6068 434.409 59.7066 434.231 59.7066 434.003C59.7066 433.848 59.6567 433.72 59.5569 433.614C59.457 433.509 59.2685 433.414 58.9967 433.325L58.1924 433.075C57.7875 432.947 57.488 432.758 57.305 432.508C57.122 432.263 57.0277 431.991 57.0277 431.702C57.0277 431.468 57.0776 431.263 57.1774 431.085C57.2773 430.907 57.4104 430.751 57.5768 430.629C57.7432 430.501 57.9318 430.407 58.1536 430.34C58.3755 430.273 58.6084 430.246 58.8525 430.246C58.9745 430.246 59.1021 430.251 59.2241 430.268C59.3517 430.284 59.4681 430.307 59.5846 430.329C59.6955 430.357 59.8009 430.385 59.9008 430.418C60.0006 430.451 60.0783 430.485 60.1337 430.518C60.2114 430.562 60.2668 430.607 60.3001 430.657C60.3334 430.701 60.35 430.763 60.35 430.84V431.102C60.35 431.218 60.3057 431.279 60.2225 431.279C60.1781 431.279 60.106 431.257 60.0117 431.213C59.6955 431.068 59.3406 430.996 58.9468 430.996C58.6306 430.996 58.381 431.046 58.2091 431.152C58.0371 431.257 57.9484 431.418 57.9484 431.646C57.9484 431.802 58.0039 431.935 58.1148 432.041C58.2257 432.147 58.4309 432.252 58.7249 432.347L59.5125 432.597C59.9119 432.725 60.2003 432.903 60.3722 433.131C60.5442 433.358 60.6274 433.62 60.6274 433.909C60.6274 434.148 60.5774 434.365 60.4832 434.554C60.3833 434.743 60.2502 434.909 60.0783 435.043C59.9063 435.182 59.7011 435.282 59.4626 435.354C59.213 435.432 58.9523 435.471 58.6694 435.471Z" fill="#6A6A6A"/>
<path fill-rule="evenodd" clip-rule="evenodd" d="M59.7178 438.172C57.893 439.523 55.2418 440.24 52.9622 440.24C49.7674 440.24 46.8887 439.056 44.7145 437.088C44.5426 436.933 44.6979 436.721 44.9031 436.844C47.2548 438.211 50.1556 439.039 53.1563 439.039C55.1808 439.039 57.4049 438.617 59.4516 437.75C59.7567 437.611 60.0173 437.95 59.7178 438.172Z" fill="#6A6A6A"/>
<path fill-rule="evenodd" clip-rule="evenodd" d="M60.4773 437.305C60.2444 437.005 58.9354 437.161 58.3419 437.233C58.1644 437.255 58.1367 437.099 58.2975 436.983C59.3403 436.249 61.0541 436.46 61.2538 436.705C61.4535 436.955 61.1984 438.673 60.2222 439.495C60.0724 439.623 59.9282 439.556 59.9948 439.39C60.2166 438.839 60.7103 437.6 60.4773 437.305Z" fill="#6A6A6A"/>
</g>
<rect x="64" y="89" width="52.3328" height="52.3328" rx="26.1664" fill="#161616"/>
<path d="M92.4127 122.711L96.8801 121.75C96.8801 121.75 95.2675 110.922 95.2556 110.851C95.2437 110.78 95.1839 110.732 95.1242 110.732C95.0645 110.732 93.9297 110.649 93.9297 110.649C93.9297 110.649 93.1414 109.867 93.0458 109.784C93.0219 109.76 92.998 109.748 92.9741 109.736L92.4127 122.711ZM92.783 109.712C92.7711 109.712 92.7472 109.724 92.7352 109.724C92.7233 109.724 92.5561 109.772 92.2933 109.855C92.0305 109.096 91.5647 108.396 90.7405 108.396C90.7166 108.396 90.6927 108.396 90.6688 108.396C90.4299 108.1 90.1432 107.969 89.8924 107.969C87.9693 107.969 87.0495 110.353 86.7629 111.563C86.0223 111.788 85.4848 111.954 85.425 111.978C85.007 112.108 84.995 112.12 84.9473 112.511C84.8995 112.796 83.8125 121.157 83.8125 121.157L92.2097 122.723L92.783 109.712ZM90.5971 110.294C90.5971 110.317 90.5971 110.353 90.5971 110.377C90.1313 110.519 89.6177 110.673 89.116 110.827C89.4027 109.736 89.9402 109.203 90.406 109.001C90.5255 109.309 90.5971 109.724 90.5971 110.294ZM89.8327 108.479C89.9163 108.479 89.9999 108.503 90.0835 108.562C89.4743 108.847 88.8054 109.57 88.5307 111.017C88.1246 111.148 87.7304 111.266 87.3601 111.373C87.6826 110.27 88.459 108.479 89.8327 108.479ZM90.1671 114.919C90.1671 114.919 89.6654 114.658 89.0682 114.658C88.1723 114.658 88.1365 115.215 88.1365 115.358C88.1365 116.117 90.1432 116.413 90.1432 118.204C90.1432 119.616 89.2474 120.517 88.029 120.517C86.5717 120.517 85.8312 119.616 85.8312 119.616L86.2253 118.335C86.2253 118.335 86.9898 118.987 87.6348 118.987C88.0529 118.987 88.2321 118.655 88.2321 118.418C88.2321 117.421 86.5837 117.374 86.5837 115.737C86.5837 114.362 87.5751 113.021 89.5938 113.021C90.3702 113.021 90.7524 113.247 90.7524 113.247L90.1671 114.919ZM90.9316 108.918C91.3616 108.965 91.6363 109.452 91.8155 109.997C91.6005 110.068 91.3616 110.139 91.0988 110.222C91.0988 110.175 91.0988 110.128 91.0988 110.068C91.0988 109.606 91.0391 109.226 90.9316 108.918Z" fill="#6A6A6A"/>
<rect x="285" y="108" width="42.1535" height="42.1535" rx="21.0768" fill="#161616"/>
<path d="M317.106 134.696C315.2 135.747 313.021 136.33 310.686 136.292C303.761 136.136 298.314 130.572 298.431 123.803C298.47 121.507 299.17 119.367 300.337 117.577C296.641 119.64 294.112 123.491 294.034 127.966C293.879 134.696 299.365 140.299 306.251 140.455C310.842 140.532 314.849 138.237 317.106 134.696Z" fill="#6A6A6A"/>
<path d="M306.991 117.033C305.123 117.033 303.372 117.5 301.816 118.356C300.843 119.951 300.299 121.779 300.221 123.647C300.104 129.522 304.89 134.385 310.842 134.502C312.632 134.502 314.655 134.074 316.211 133.218C317.145 131.623 317.69 129.755 317.69 127.771C317.768 121.857 312.943 117.033 306.991 117.033Z" fill="#6A6A6A"/>
<rect x="267" y="413" width="76.1204" height="76.1204" rx="38.0602" fill="#161616"/>
<path d="M298.193 450.429V442.929L301.918 444.948V448.326L306.849 448.329L310.634 450.429H298.193ZM307.857 447.708V442.929L311.682 444.897V449.966L307.857 447.708ZM307.857 456.874V453.525L302.888 453.521C302.893 453.543 299.041 451.388 299.041 451.388L311.682 451.448V458.947L307.857 456.874ZM298.193 456.874L298.193 451.974L301.918 454.178V458.842L298.193 456.874Z" fill="#6A6A6A"/>
<rect x="45" y="508" width="63.4337" height="63.4337" rx="31.7168" fill="#161616"/>
<path d="M82.4246 533.104C80.7599 532.059 78.5684 532.308 76.6138 533.542C74.6652 532.308 72.4723 532.059 70.8097 533.104C68.1795 534.756 67.8598 539.009 70.0961 542.605C71.7445 545.256 74.3224 546.809 76.6171 546.781C78.9119 546.809 81.4898 545.256 83.1382 542.605C85.3718 539.009 85.0548 534.756 82.4246 533.104ZM71.3053 541.846C70.8441 541.111 70.4962 540.311 70.2733 539.472C70.0753 538.743 69.9996 537.987 70.0493 537.233C70.1491 535.904 70.6875 534.87 71.5646 534.319C72.4418 533.769 73.6014 533.735 74.8363 534.228C75.0217 534.302 75.205 534.388 75.3869 534.483C74.7007 535.112 74.104 535.832 73.6136 536.625C72.2558 538.808 71.8416 541.237 72.3155 543.174C71.9376 542.764 71.5994 542.32 71.3053 541.846ZM82.9617 539.471C82.7384 540.31 82.3905 541.11 81.9297 541.845C81.6353 542.32 81.2971 542.765 80.9195 543.176C81.3431 541.44 81.0552 539.313 80.0165 537.318C79.9999 537.285 79.9766 537.256 79.9482 537.233C79.9198 537.21 79.8868 537.193 79.8514 537.183C79.816 537.173 79.779 537.171 79.7428 537.177C79.7065 537.183 79.6719 537.196 79.6411 537.216L76.4026 539.249C76.3731 539.267 76.3475 539.291 76.3272 539.32C76.307 539.348 76.2926 539.381 76.2848 539.415C76.2769 539.449 76.2759 539.484 76.2817 539.519C76.2874 539.553 76.2999 539.586 76.3184 539.616L76.7937 540.379C76.812 540.409 76.836 540.434 76.8643 540.455C76.8926 540.475 76.9246 540.49 76.9585 540.497C76.9923 540.505 77.0274 540.506 77.0617 540.501C77.096 540.495 77.1288 540.482 77.1582 540.464L79.2575 539.146C79.3254 539.35 79.3932 539.555 79.4442 539.76C79.6422 540.487 79.7181 541.243 79.6689 541.995C79.5691 543.323 79.0307 544.358 78.1535 544.91C77.7011 545.188 77.1827 545.338 76.6524 545.346H76.5852C76.055 545.338 75.5365 545.188 75.0841 544.91C74.2063 544.358 73.6679 543.323 73.5681 541.995C73.5187 541.242 73.5944 540.485 73.7922 539.757C74.2472 538.072 75.1877 536.559 76.4956 535.409C77.0596 534.912 77.7021 534.512 78.3966 534.226C79.6282 533.734 80.7898 533.766 81.6676 534.318C82.5455 534.869 83.0832 535.903 83.183 537.232C83.2333 537.986 83.1585 538.742 82.9617 539.471Z" fill="#6A6A6A"/>
<rect x="241" y="540" width="44.4036" height="44.4036" rx="22.2018" fill="#161616"/>
<g clip-path="url(#clip2_934_301)">
<path d="M265.807 565.626L265.875 565.378C265.957 565.084 265.927 564.812 265.789 564.612C265.66 564.428 265.45 564.319 265.194 564.307L260.331 564.243C260.315 564.242 260.3 564.238 260.287 564.231C260.274 564.223 260.262 564.213 260.254 564.199C260.245 564.186 260.24 564.171 260.238 564.156C260.236 564.14 260.238 564.124 260.244 564.109C260.252 564.084 260.267 564.063 260.287 564.047C260.307 564.031 260.331 564.022 260.356 564.02L265.266 563.953C265.846 563.926 266.479 563.436 266.7 562.838L266.98 562.08C266.988 562.058 266.991 562.036 266.991 562.013C266.991 562.001 266.99 561.989 266.987 561.977C266.835 561.272 266.464 560.637 265.932 560.171C265.4 559.704 264.735 559.43 264.039 559.391C263.342 559.353 262.653 559.551 262.076 559.955C261.498 560.36 261.064 560.95 260.839 561.634C260.601 561.45 260.313 561.347 260.016 561.34C259.719 561.332 259.427 561.42 259.181 561.591C258.934 561.762 258.744 562.009 258.637 562.296C258.531 562.584 258.513 562.898 258.586 563.197C258.297 563.205 258.012 563.276 257.751 563.406C257.491 563.537 257.26 563.723 257.074 563.953C256.888 564.182 256.751 564.451 256.672 564.739C256.594 565.028 256.575 565.331 256.618 565.628C256.621 565.651 256.632 565.672 256.65 565.688C256.667 565.704 256.689 565.712 256.712 565.712H265.693C265.718 565.713 265.743 565.704 265.763 565.689C265.784 565.673 265.799 565.651 265.807 565.626Z" fill="#6A6A6A"/>
<path d="M267.428 562.137C267.385 562.137 267.34 562.138 267.293 562.141C267.286 562.141 267.279 562.143 267.272 562.146C267.261 562.15 267.25 562.157 267.241 562.166C267.233 562.175 267.227 562.187 267.223 562.199L267.03 562.884C266.948 563.178 266.978 563.45 267.116 563.65C267.186 563.745 267.276 563.822 267.38 563.874C267.483 563.927 267.596 563.955 267.711 563.955L268.749 564.022C268.763 564.022 268.777 564.026 268.79 564.033C268.803 564.041 268.814 564.051 268.822 564.063C268.831 564.076 268.836 564.092 268.838 564.107C268.84 564.123 268.838 564.14 268.833 564.155C268.825 564.179 268.81 564.201 268.79 564.217C268.77 564.233 268.745 564.242 268.72 564.244L267.643 564.311C267.058 564.339 266.428 564.828 266.207 565.425L266.129 565.636C266.126 565.645 266.124 565.655 266.125 565.664C266.126 565.673 266.129 565.682 266.134 565.69C266.139 565.698 266.146 565.705 266.154 565.71C266.162 565.714 266.171 565.717 266.18 565.718H269.89C269.913 565.718 269.935 565.711 269.953 565.697C269.971 565.682 269.984 565.662 269.989 565.64C270.1 565.23 270.118 564.799 270.041 564.381C269.964 563.963 269.796 563.569 269.548 563.23C269.3 562.891 268.98 562.616 268.612 562.426C268.245 562.236 267.84 562.137 267.429 562.137H267.428Z" fill="#6A6A6A"/>
</g>
<rect x="144" y="463" width="52.3328" height="52.3328" rx="26.1664" fill="#161616"/>
<path d="M170.171 501.853V496.933C175.379 496.933 179.421 491.768 177.422 486.287C176.688 484.273 175.062 482.648 173.034 481.914C167.553 479.929 162.388 483.957 162.388 489.164H157.482C157.482 480.864 165.51 474.39 174.213 477.109C178.011 478.303 181.047 481.324 182.227 485.122C184.945 493.826 178.472 501.853 170.171 501.853Z" fill="#6A6A6A"/>
<path fill-rule="evenodd" clip-rule="evenodd" d="M170.185 496.962H165.279V492.056H170.185V496.962Z" fill="#6A6A6A"/>
<path fill-rule="evenodd" clip-rule="evenodd" d="M165.28 500.717H161.525V496.962H165.28V500.717Z" fill="#6A6A6A"/>
<path fill-rule="evenodd" clip-rule="evenodd" d="M161.524 496.962H158.373V493.811H161.524V496.962Z" fill="#6A6A6A"/>
<rect x="311" y="30" width="40" height="40" rx="20" fill="#161616"/>
<path d="M328.152 54.5323L328.177 45.4314H331.376C333.853 45.4314 335.331 47.0119 335.28 50.0577C335.23 52.9699 333.687 54.5323 331.362 54.5323H328.152ZM331.166 52.4436C331.896 52.3875 332.812 52.0811 332.812 50.0167C332.812 47.9523 331.74 47.514 331.15 47.4988C331.078 47.4988 330.695 47.4988 330.619 47.514V52.4436H331.166Z" fill="#6A6A6A"/>
<path d="M335.3 55.0056C333.953 56.1756 332.197 56.7633 330.418 56.6399C328.638 56.5164 326.98 55.6918 325.807 54.3471C324.635 53.0023 324.044 51.2473 324.164 49.4673C324.285 47.6874 325.106 46.0278 326.449 44.853C327.792 43.6782 329.546 43.0841 331.326 43.2012C333.106 43.3183 334.767 44.1369 335.944 45.4775C337.121 46.818 337.719 48.5708 337.605 50.3512C337.491 52.1316 336.675 53.7941 335.337 54.9737H338.607C339.819 53.1197 340.313 50.8869 339.995 48.6948C339.677 46.5027 338.569 44.502 336.881 43.0687C335.192 41.6354 333.038 40.8681 330.823 40.9108C328.608 40.9536 326.485 41.8036 324.853 43.301C323.221 44.7985 322.192 46.8404 321.959 49.0432C321.726 51.246 322.305 53.4581 323.588 55.2639C324.871 57.0697 326.769 58.345 328.925 58.8501C331.082 59.3553 333.349 59.0556 335.3 58.0074V55.0056Z" fill="#6A6A6A"/>
<path d="M338.618 57.0109C338.618 57.2569 338.545 57.4975 338.409 57.702C338.272 57.9066 338.078 58.066 337.85 58.1601C337.623 58.2542 337.373 58.2788 337.131 58.2307C336.89 58.1825 336.669 58.0639 336.495 57.8898C336.321 57.7157 336.202 57.494 336.155 57.2526C336.107 57.0112 336.132 56.7611 336.226 56.5339C336.32 56.3066 336.48 56.1125 336.685 55.976C336.889 55.8395 337.13 55.7668 337.376 55.7671C337.539 55.7671 337.701 55.7993 337.852 55.8618C338.003 55.9243 338.14 56.016 338.255 56.1315C338.37 56.247 338.462 56.3841 338.524 56.535C338.587 56.6859 338.619 56.8476 338.618 57.0109Z" fill="#6A6A6A"/>
<rect x="220.789" y="48.7892" width="8.35074" height="8.35074" rx="4.17537" stroke="url(#paint0_linear_934_301)" stroke-width="0.421535"/>
<rect x="37" y="86" width="6.34337" height="6.34337" rx="3.17168" fill="url(#paint1_linear_934_301)"/>
<rect x="329.789" y="376.789" width="11.5224" height="11.5224" rx="5.76121" stroke="url(#paint2_linear_934_301)" stroke-width="0.421535"/>
<rect x="53" y="482" width="9.51505" height="9.51505" rx="4.75752" fill="url(#paint3_linear_934_301)"/>
<rect x="294" y="517" width="6.34337" height="6.34337" rx="3.17168" fill="url(#paint4_linear_934_301)"/>
<rect x="155" width="30" height="30" rx="15" fill="#161616"/>
<path d="M175.223 11.6783C175.019 11.6452 174.825 11.7803 174.78 11.9865L173.831 15.1748L172.791 11.6703H171.708L173.269 15.993C173.39 16.2151 173.34 16.4935 173.15 16.6573C172.993 16.7821 172.843 16.7821 172.517 16.7794H172.439V17.5659H172.7C173.15 17.5659 173.48 17.5473 173.667 17.3852C173.892 17.1894 174.058 16.9337 174.148 16.6466L175.881 11.6809H175.223V11.6783H175.223ZM176.783 12.0794C176.479 12.3345 176.306 12.7187 176.315 13.1209C176.301 13.4125 176.416 13.6951 176.627 13.8914C176.822 14.0907 177.228 14.2688 177.832 14.4229C177.982 14.4686 178.136 14.5032 178.292 14.5265C178.51 14.5743 179.158 14.7151 179.158 15.1562C179.156 15.3537 179.047 15.5339 178.874 15.6237C178.682 15.7244 178.469 15.7746 178.253 15.7699C177.979 15.7802 177.707 15.7081 177.473 15.5627C177.3 15.438 177.186 15.2455 177.158 15.0312H176.208C176.2 15.4276 176.371 15.8056 176.671 16.0567C176.981 16.3225 177.452 16.4473 178.105 16.4473C178.758 16.4473 179.299 16.3225 179.632 16.0727C179.977 15.8086 180.172 15.3866 180.152 14.9462C180.166 14.6582 180.059 14.3777 179.858 14.1757C179.494 13.9209 179.082 13.7454 178.648 13.6603L178.315 13.5886C177.598 13.4344 177.275 13.2405 177.275 12.9588C177.267 12.7809 177.351 12.6116 177.496 12.5125C177.684 12.4126 177.896 12.3667 178.107 12.3797C178.345 12.3673 178.581 12.4344 178.778 12.5709H178.794L178.841 12.6161C178.878 12.6501 178.913 12.6865 178.945 12.7251C179.026 12.8823 179.182 12.9835 179.356 12.9908H179.97C179.93 12.6267 179.755 12.292 179.481 12.0556C179.068 11.7773 178.578 11.6413 178.084 11.6676C177.62 11.6471 177.163 11.7835 176.783 12.0556M168.153 12.0555C167.848 12.3116 167.675 12.6966 167.684 13.0996C167.663 13.4042 167.781 13.7019 168.004 13.9046C168.2 14.1039 168.608 14.2819 169.211 14.4361C169.363 14.4819 169.518 14.5165 169.674 14.5397C169.893 14.5876 170.543 14.7283 170.543 15.172C170.542 15.3706 170.433 15.5519 170.26 15.6423C170.067 15.7434 169.852 15.7936 169.635 15.7884C169.357 15.8007 169.081 15.7286 168.842 15.5811C168.669 15.4563 168.555 15.2639 168.527 15.0498H167.575C167.567 15.4482 167.738 15.8286 168.041 16.0806C168.35 16.3463 168.821 16.4712 169.479 16.4712C170.137 16.4712 170.679 16.3436 171.011 16.0965C171.359 15.8314 171.554 15.4069 171.532 14.9647C171.546 14.6759 171.439 14.3945 171.238 14.1915C170.872 13.9358 170.458 13.7593 170.023 13.6734L169.687 13.6017C168.967 13.445 168.647 13.2511 168.647 12.9694C168.64 12.7909 168.725 12.6216 168.871 12.5231C169.06 12.4231 169.272 12.3771 169.485 12.3902C169.724 12.3785 169.96 12.4466 170.158 12.5842H170.174L170.221 12.6293C170.258 12.6634 170.292 12.6998 170.325 12.7383C170.406 12.8962 170.564 12.9977 170.738 13.004H171.357C171.312 12.6463 171.136 12.3192 170.866 12.0874C170.451 11.8073 169.96 11.6705 169.464 11.6968C169 11.6777 168.543 11.815 168.163 12.0874M166.129 11.8217C165.801 11.8966 165.49 12.0325 165.211 12.2229C164.913 12.3797 164.688 12.6497 164.584 12.9747C164.416 13.3493 164.336 13.7586 164.35 14.1703V16.503H165.403V14.0189C165.374 13.6212 165.521 13.231 165.804 12.9562C166.13 12.7062 166.534 12.5845 166.94 12.6135H167.201V11.6995C166.832 11.7013 166.464 11.7459 166.105 11.8323M160.123 12.098C159.944 12.2357 159.804 12.419 159.717 12.6294C159.707 12.6746 159.694 12.7835 159.863 12.7835H160.721C160.804 12.6568 160.927 12.5631 161.07 12.5179C161.238 12.4634 161.414 12.4365 161.59 12.4381C161.793 12.434 161.995 12.4646 162.188 12.5285C162.419 12.5732 162.587 12.7798 162.586 13.02C162.586 13.5116 161.85 13.6045 161.608 13.6364L161.065 13.7108C160.659 13.7566 160.268 13.8936 159.92 14.112C159.623 14.3429 159.465 14.7156 159.504 15.095C159.464 15.508 159.64 15.912 159.967 16.1578C160.308 16.3881 160.708 16.5084 161.117 16.5032C161.343 16.5032 161.608 16.4873 161.913 16.458C162.196 16.4341 162.474 16.3593 162.732 16.2375C163 16.1423 163.222 15.9453 163.351 15.6875C163.54 15.368 163.631 14.9976 163.611 14.6248V12.943C163.621 12.5685 163.428 12.219 163.109 12.0343C162.627 11.7849 162.088 11.6721 161.548 11.7075C161.048 11.6744 160.551 11.8117 160.136 12.0981M160.721 15.6184C160.578 15.481 160.498 15.2878 160.503 15.087C160.487 14.8986 160.553 14.7127 160.685 14.5795C160.849 14.4456 161.043 14.3545 161.249 14.3138L161.697 14.2207C161.946 14.1699 162.19 14.0933 162.425 13.9923L162.623 13.8993V14.5795C162.685 15.071 162.529 15.3154 162.266 15.4881C162.002 15.7192 161.661 15.8381 161.314 15.8202C161.1 15.8259 160.89 15.7545 160.721 15.6184Z" fill="#6A6A6A"/>
</g>
<defs>
<linearGradient id="paint0_linear_934_301" x1="221" y1="52.9647" x2="228.929" y2="52.9647" gradientUnits="userSpaceOnUse">
<stop stop-color="#0052CC"/>
<stop offset="1" stop-color="#0099FF"/>
</linearGradient>
<linearGradient id="paint1_linear_934_301" x1="37" y1="89.1717" x2="43.3434" y2="89.1717" gradientUnits="userSpaceOnUse">
<stop stop-color="#0052CC"/>
<stop offset="1" stop-color="#0099FF"/>
</linearGradient>
<linearGradient id="paint2_linear_934_301" x1="330" y1="382.551" x2="341.101" y2="382.551" gradientUnits="userSpaceOnUse">
<stop stop-color="#0052CC"/>
<stop offset="1" stop-color="#0099FF"/>
</linearGradient>
<linearGradient id="paint3_linear_934_301" x1="53" y1="486.758" x2="62.515" y2="486.758" gradientUnits="userSpaceOnUse">
<stop stop-color="#0052CC"/>
<stop offset="1" stop-color="#0099FF"/>
</linearGradient>
<linearGradient id="paint4_linear_934_301" x1="294" y1="520.172" x2="300.343" y2="520.172" gradientUnits="userSpaceOnUse">
<stop stop-color="#0052CC"/>
<stop offset="1" stop-color="#0099FF"/>
</linearGradient>
<clipPath id="clip0_934_301">
<rect width="375" height="583" fill="white"/>
</clipPath>
<clipPath id="clip1_934_301">
<rect width="16.8614" height="10.1168" fill="white" transform="translate(44.5469 430.184)"/>
</clipPath>
<clipPath id="clip2_934_301">
<rect width="13.4891" height="6.32303" fill="white" transform="translate(256.598 559.391)"/>
</clipPath>
</defs>
</svg>
