<svg width="32" height="32" viewBox="0 0 32 32" fill="none" xmlns="http://www.w3.org/2000/svg">
<path d="M15.674 12.1343C16.0351 12.2416 16.3963 12.0627 16.5047 11.7047C16.613 11.3468 16.4324 10.9888 16.0713 10.8815C15.999 10.8457 13.9403 10.2372 12.5679 11.2036C11.8094 11.7763 11.4121 12.6712 11.4121 13.924C11.4121 15.141 11.8094 16.0716 12.5679 16.6443C13.218 17.1454 14.0126 17.2528 14.6988 17.2528C15.4934 17.2528 16.1074 17.0739 16.1435 17.0739C16.5047 16.9665 16.6852 16.6085 16.613 16.2506C16.5047 15.8926 16.1435 15.7137 15.7823 15.7853C15.7823 15.7853 14.2293 16.2148 13.3624 15.5705C12.929 15.2483 12.7485 14.7114 12.7485 13.924C12.7485 13.1365 12.9652 12.5638 13.3624 12.2774C14.0487 11.7763 15.2767 11.9911 15.674 12.1343Z" fill="url(#paint0_linear_875_450)"/>
<path d="M21.6695 12.8859C21.6695 12.2774 21.4528 11.7405 20.9833 11.3826C19.9359 10.4877 18.0217 10.7025 17.805 10.7383C17.4799 10.7741 17.2271 11.0604 17.2271 11.3826V16.6085C17.2271 16.9665 17.516 17.2528 17.8772 17.2528C18.2384 17.2528 18.5273 16.9665 18.5273 16.6085V15.2125C18.8524 15.2125 19.2135 15.1768 19.6108 15.1052L20.5499 16.9307C20.6582 17.1454 20.9111 17.2886 21.1278 17.2886C21.2361 17.2886 21.3445 17.2528 21.4167 17.217C21.7418 17.0381 21.8501 16.6443 21.7056 16.3222L20.7666 14.5683C20.8027 14.5325 20.8027 14.5325 20.8388 14.4967C21.4167 14.1029 21.6695 13.5302 21.6695 12.8859ZM18.5996 11.9911C19.1413 11.9911 19.7914 12.0627 20.1526 12.349C20.261 12.4206 20.3693 12.5638 20.3693 12.8859C20.3693 13.2439 20.2248 13.4228 20.1165 13.4944C19.7553 13.8166 19.1052 13.8882 18.5996 13.8882V11.9911Z" fill="url(#paint1_linear_875_450)"/>
<path d="M27.3038 16.6085C27.3038 16.9665 27.5927 17.2528 27.9539 17.2528C28.3151 17.2528 28.604 16.9307 28.604 16.5727L28.4957 11.3468C28.4957 11.0604 28.279 10.8099 28.0261 10.7383C27.7733 10.6667 27.4483 10.7741 27.3038 11.0246L25.534 13.745L23.8004 11.0246C23.6559 10.7741 23.3309 10.6667 23.0419 10.7383C22.753 10.8099 22.5724 11.0604 22.5724 11.3826V16.6085C22.5724 16.9665 22.8614 17.2528 23.2225 17.2528C23.5837 17.2528 23.8726 16.9665 23.8726 16.6085V13.6376L24.92 15.2841C25.0284 15.4631 25.2451 15.6063 25.4618 15.6063C25.6785 15.6063 25.8952 15.4989 26.0036 15.3199L27.1593 13.5302L27.3038 16.6085Z" fill="url(#paint2_linear_875_450)"/>
<path d="M12.605 3.86576C12.605 3.50782 12.316 3.22147 11.9187 3.22147C11.5576 3.22147 11.2686 3.50782 11.2686 3.86576C11.2686 4.2237 11.5576 4.54585 11.9187 4.54585C12.316 4.54585 12.605 4.2237 12.605 3.86576Z" fill="white"/>
<path d="M18.6366 3.86576C18.6366 3.50782 18.3477 3.22147 17.9865 3.22147C17.6253 3.22147 17.3364 3.50782 17.3364 3.86576C17.3364 4.2237 17.6253 4.54585 17.9865 4.54585C18.3477 4.54585 18.6366 4.2237 18.6366 3.86576Z" fill="white"/>
<path d="M15.6388 3.86576C15.6388 3.50782 15.3499 3.22147 14.9526 3.22147C14.5914 3.22147 14.3025 3.50782 14.3025 3.86576C14.3025 4.2237 14.5914 4.54585 14.9526 4.54585C15.3138 4.54585 15.6388 4.2237 15.6388 3.86576Z" fill="white"/>
<path d="M21.2009 30.6398H1.33634V7.80313H7.87359V28.4922C7.87359 28.8501 8.16253 29.1365 8.5237 29.1365C8.88488 29.1365 9.17382 28.8501 9.17382 28.4922V7.80313H28.3521C28.7133 7.80313 29.0023 7.51677 29.0023 7.15883C29.0023 6.80089 28.7133 6.51453 28.3521 6.51453H0.650113C0.288939 6.51453 0 6.80089 0 7.15883V31.3557C0 31.7136 0.288939 32 0.650113 32H21.2009C21.5621 32 21.851 31.7136 21.851 31.3557C21.851 30.962 21.5621 30.6398 21.2009 30.6398Z" fill="white"/>
<path d="M32 0.644295C32 0.286353 31.7111 0 31.3499 0H0.650113C0.288939 0 0 0.286353 0 0.644295V4.54586C0 4.9038 0.288939 5.19016 0.650113 5.19016C1.01129 5.19016 1.30023 4.9038 1.30023 4.54586V1.32438H7.83747V4.68904C7.83747 5.04698 8.12641 5.33333 8.48759 5.33333C8.84876 5.33333 9.1377 5.04698 9.1377 4.68904V1.32438H30.5914V22.6219C30.5914 22.9799 30.8804 23.2662 31.2415 23.2662C31.6027 23.2662 31.8916 22.9799 31.8916 22.6219L32 0.644295Z" fill="white"/>
<path d="M6.17613 11.4899C6.17613 11.132 5.88719 10.8456 5.52602 10.8456H3.50344C3.14227 10.8456 2.85333 11.132 2.85333 11.4899C2.85333 11.8479 3.14227 12.1342 3.50344 12.1342H5.52602C5.88719 12.1342 6.17613 11.8479 6.17613 11.4899Z" fill="white"/>
<path d="M3.46721 13.3154C3.10603 13.3154 2.81709 13.6018 2.81709 13.9597C2.81709 14.3177 3.10603 14.604 3.46721 14.604H4.29791C4.65908 14.604 4.94802 14.3177 4.94802 13.9597C4.94802 13.6018 4.65908 13.3154 4.29791 13.3154H3.46721Z" fill="white"/>
<path d="M28.6401 27.9553L30.6265 27.132C30.8794 27.0246 31.0238 26.8099 31.0238 26.5235C31.0238 26.2729 30.8794 26.0224 30.6265 25.915L23.5836 22.6935C23.3308 22.5861 23.0419 22.6219 22.8613 22.8009C22.6807 22.9799 22.6085 23.2662 22.6807 23.5168L25.4256 30.7114C25.534 30.962 25.7507 31.1052 26.0035 31.141H26.0396C26.2924 31.141 26.5092 30.9978 26.6175 30.783L27.5927 28.8501L30.4459 31.7853C30.5904 31.9284 30.7349 32 30.9155 32C31.0961 32 31.2405 31.9284 31.385 31.821C31.6378 31.5705 31.6739 31.141 31.385 30.8904L28.6401 27.9553ZM26.148 28.8501L24.5227 24.5906L28.7123 26.5235L27.2315 27.132C27.087 27.2036 26.9787 27.311 26.9064 27.4542L26.148 28.8501Z" fill="white"/>
<path d="M22.5724 19.1857C22.2112 19.2931 22.0306 19.651 22.139 20.009L22.5002 21.1544C22.5724 21.4407 22.8613 21.6197 23.1503 21.6197C23.2225 21.6197 23.2948 21.6197 23.3309 21.5839C23.692 21.4765 23.8726 21.1186 23.7643 20.7607L23.4031 19.6152C23.2948 19.2931 22.9336 19.0783 22.5724 19.1857Z" fill="white"/>
<path d="M27.3399 23.4094C27.4121 23.4094 27.4844 23.4094 27.5205 23.3736L28.7846 22.9799C29.1458 22.8725 29.3264 22.5145 29.218 22.1566C29.1097 21.7987 28.7485 21.6197 28.3873 21.7271L27.1593 22.1208C26.7981 22.2282 26.6176 22.5861 26.7259 22.9441C26.7981 23.2304 27.0871 23.4094 27.3399 23.4094Z" fill="white"/>
<path d="M20.7305 24.0537L19.7914 24.3401C19.4302 24.4474 19.2497 24.8054 19.358 25.1633C19.4302 25.4497 19.7192 25.6287 20.0081 25.6287C20.0804 25.6287 20.1526 25.6287 20.1887 25.5929L21.1278 25.3065C21.4889 25.1991 21.6695 24.8412 21.5612 24.4832C21.4528 24.1253 21.0916 23.9463 20.7305 24.0537Z" fill="white"/>
<path d="M21.8501 22.6577C22.0307 22.3356 21.8862 21.9419 21.5612 21.7629L20.5138 21.1902C20.1887 21.0112 19.7914 21.1544 19.6108 21.4765C19.4302 21.7987 19.5747 22.1924 19.8998 22.3714L20.9472 22.9441C21.0555 22.9799 21.1639 23.0157 21.2722 23.0157C21.525 22.9799 21.7417 22.8725 21.8501 22.6577Z" fill="white"/>
<path d="M25.3174 19.8658L24.7395 20.9038C24.5589 21.226 24.7034 21.6197 25.0284 21.7987C25.1368 21.8345 25.2451 21.8703 25.3535 21.8703C25.6063 21.8703 25.823 21.7271 25.9314 21.5123L26.5092 20.4743C26.6898 20.1521 26.5454 19.7584 26.2203 19.5794C25.8952 19.4363 25.498 19.5436 25.3174 19.8658Z" fill="white"/>
<path d="M22.6086 26.273C22.2835 26.094 21.8862 26.2372 21.7056 26.5593L21.0916 27.7047C20.9111 28.0269 21.0555 28.4206 21.3806 28.5996C21.4889 28.6354 21.5973 28.6712 21.7056 28.6712C21.9585 28.6712 22.1752 28.528 22.2835 28.3132L22.8975 27.1678C23.042 26.8457 22.9336 26.4519 22.6086 26.273Z" fill="white"/>
<defs>
<linearGradient id="paint0_linear_875_450" x1="11.4121" y1="13.9742" x2="28.604" y2="13.9742" gradientUnits="userSpaceOnUse">
<stop stop-color="#0052CC"/>
<stop offset="1" stop-color="#0099FF"/>
</linearGradient>
<linearGradient id="paint1_linear_875_450" x1="11.4121" y1="13.9742" x2="28.604" y2="13.9742" gradientUnits="userSpaceOnUse">
<stop stop-color="#0052CC"/>
<stop offset="1" stop-color="#0099FF"/>
</linearGradient>
<linearGradient id="paint2_linear_875_450" x1="11.4121" y1="13.9742" x2="28.604" y2="13.9742" gradientUnits="userSpaceOnUse">
<stop stop-color="#0052CC"/>
<stop offset="1" stop-color="#0099FF"/>
</linearGradient>
</defs>
</svg>
