<svg width="432" height="326" viewBox="0 0 432 326" fill="none" xmlns="http://www.w3.org/2000/svg">
<path opacity="0.9" d="M104.663 162.24C103.837 162.24 103.09 162.099 102.423 161.816C101.762 161.528 101.215 161.12 100.783 160.592C100.357 160.059 100.079 159.427 99.9512 158.696L101.695 158.432C101.871 159.136 102.239 159.685 102.799 160.08C103.359 160.469 104.013 160.664 104.759 160.664C105.223 160.664 105.65 160.592 106.039 160.448C106.429 160.299 106.741 160.088 106.975 159.816C107.215 159.539 107.335 159.208 107.335 158.824C107.335 158.616 107.298 158.432 107.223 158.272C107.154 158.112 107.055 157.973 106.927 157.856C106.805 157.733 106.653 157.629 106.471 157.544C106.295 157.453 106.101 157.376 105.887 157.312L102.935 156.44C102.647 156.355 102.354 156.245 102.055 156.112C101.757 155.973 101.482 155.795 101.231 155.576C100.986 155.352 100.786 155.077 100.631 154.752C100.477 154.421 100.399 154.021 100.399 153.552C100.399 152.843 100.581 152.243 100.943 151.752C101.311 151.256 101.807 150.883 102.431 150.632C103.055 150.376 103.754 150.248 104.527 150.248C105.306 150.259 106.002 150.397 106.615 150.664C107.234 150.931 107.746 151.315 108.151 151.816C108.562 152.312 108.845 152.915 108.999 153.624L107.207 153.928C107.127 153.496 106.957 153.125 106.695 152.816C106.434 152.501 106.114 152.261 105.735 152.096C105.357 151.925 104.946 151.837 104.503 151.832C104.077 151.821 103.685 151.885 103.327 152.024C102.975 152.163 102.693 152.357 102.479 152.608C102.271 152.859 102.167 153.147 102.167 153.472C102.167 153.792 102.261 154.051 102.447 154.248C102.634 154.445 102.863 154.603 103.135 154.72C103.413 154.832 103.687 154.925 103.959 155L106.087 155.6C106.354 155.675 106.655 155.776 106.991 155.904C107.333 156.027 107.661 156.2 107.975 156.424C108.295 156.648 108.559 156.947 108.767 157.32C108.975 157.688 109.079 158.152 109.079 158.712C109.079 159.293 108.962 159.805 108.727 160.248C108.493 160.685 108.17 161.053 107.759 161.352C107.354 161.645 106.885 161.867 106.351 162.016C105.818 162.165 105.255 162.24 104.663 162.24ZM116.848 162V157.752C116.848 157.416 116.819 157.072 116.76 156.72C116.707 156.363 116.6 156.032 116.44 155.728C116.285 155.424 116.064 155.179 115.776 154.992C115.493 154.805 115.123 154.712 114.664 154.712C114.365 154.712 114.083 154.763 113.816 154.864C113.549 154.96 113.315 155.117 113.112 155.336C112.915 155.555 112.757 155.843 112.64 156.2C112.528 156.557 112.472 156.992 112.472 157.504L111.432 157.112C111.432 156.328 111.579 155.637 111.872 155.04C112.165 154.437 112.587 153.968 113.136 153.632C113.685 153.296 114.349 153.128 115.128 153.128C115.725 153.128 116.227 153.224 116.632 153.416C117.037 153.608 117.365 153.861 117.616 154.176C117.872 154.485 118.067 154.824 118.2 155.192C118.333 155.56 118.424 155.92 118.472 156.272C118.52 156.624 118.544 156.933 118.544 157.2V162H116.848ZM110.776 162V150.48H112.272V156.696H112.472V162H110.776ZM123.068 162.24C122.428 162.24 121.892 162.123 121.46 161.888C121.028 161.648 120.7 161.333 120.476 160.944C120.257 160.549 120.148 160.117 120.148 159.648C120.148 159.211 120.225 158.827 120.38 158.496C120.534 158.165 120.764 157.885 121.068 157.656C121.372 157.421 121.745 157.232 122.188 157.088C122.572 156.976 123.006 156.877 123.492 156.792C123.977 156.707 124.486 156.627 125.02 156.552C125.558 156.477 126.092 156.403 126.62 156.328L126.012 156.664C126.022 155.987 125.878 155.485 125.58 155.16C125.286 154.829 124.78 154.664 124.06 154.664C123.606 154.664 123.19 154.771 122.812 154.984C122.433 155.192 122.169 155.539 122.02 156.024L120.46 155.544C120.673 154.803 121.078 154.213 121.676 153.776C122.278 153.339 123.078 153.12 124.076 153.12C124.849 153.12 125.521 153.253 126.092 153.52C126.668 153.781 127.089 154.197 127.356 154.768C127.494 155.051 127.58 155.349 127.612 155.664C127.644 155.979 127.66 156.317 127.66 156.68V162H126.18V160.024L126.468 160.28C126.11 160.941 125.654 161.435 125.1 161.76C124.55 162.08 123.873 162.24 123.068 162.24ZM123.364 160.872C123.838 160.872 124.246 160.789 124.588 160.624C124.929 160.453 125.204 160.237 125.412 159.976C125.62 159.715 125.756 159.443 125.82 159.16C125.91 158.904 125.961 158.616 125.972 158.296C125.988 157.976 125.996 157.72 125.996 157.528L126.54 157.728C126.012 157.808 125.532 157.88 125.1 157.944C124.668 158.008 124.276 158.072 123.924 158.136C123.577 158.195 123.268 158.267 122.996 158.352C122.766 158.432 122.561 158.528 122.38 158.64C122.204 158.752 122.062 158.888 121.956 159.048C121.854 159.208 121.804 159.403 121.804 159.632C121.804 159.856 121.86 160.064 121.972 160.256C122.084 160.443 122.254 160.592 122.484 160.704C122.713 160.816 123.006 160.872 123.364 160.872ZM129.737 162V153.36H131.225V155.456L131.017 155.184C131.124 154.907 131.263 154.653 131.433 154.424C131.604 154.189 131.801 153.997 132.025 153.848C132.244 153.688 132.487 153.565 132.753 153.48C133.025 153.389 133.303 153.336 133.585 153.32C133.868 153.299 134.14 153.312 134.401 153.36V154.928C134.119 154.853 133.804 154.832 133.457 154.864C133.116 154.896 132.801 155.005 132.513 155.192C132.241 155.368 132.025 155.581 131.865 155.832C131.711 156.083 131.599 156.363 131.529 156.672C131.46 156.976 131.425 157.299 131.425 157.64V162H129.737ZM139.6 162.24C138.742 162.24 137.987 162.053 137.336 161.68C136.691 161.301 136.187 160.776 135.824 160.104C135.467 159.427 135.288 158.643 135.288 157.752C135.288 156.808 135.464 155.989 135.816 155.296C136.174 154.603 136.67 154.067 137.304 153.688C137.939 153.309 138.678 153.12 139.52 153.12C140.4 153.12 141.15 153.325 141.768 153.736C142.387 154.141 142.848 154.72 143.152 155.472C143.462 156.224 143.584 157.117 143.52 158.152H141.848V157.544C141.838 156.541 141.646 155.8 141.272 155.32C140.904 154.84 140.342 154.6 139.584 154.6C138.747 154.6 138.118 154.864 137.696 155.392C137.275 155.92 137.064 156.683 137.064 157.68C137.064 158.629 137.275 159.365 137.696 159.888C138.118 160.405 138.726 160.664 139.52 160.664C140.043 160.664 140.494 160.547 140.872 160.312C141.256 160.072 141.555 159.731 141.768 159.288L143.408 159.808C143.072 160.581 142.563 161.181 141.88 161.608C141.198 162.029 140.438 162.24 139.6 162.24ZM136.52 158.152V156.848H142.688V158.152H136.52ZM153.462 162C152.918 162.107 152.385 162.152 151.862 162.136C151.34 162.12 150.873 162.019 150.462 161.832C150.052 161.645 149.742 161.352 149.534 160.952C149.348 160.595 149.246 160.232 149.23 159.864C149.22 159.491 149.214 159.069 149.214 158.6V150.96H150.894V158.52C150.894 158.867 150.897 159.168 150.902 159.424C150.913 159.68 150.969 159.896 151.07 160.072C151.262 160.403 151.566 160.592 151.982 160.64C152.404 160.683 152.897 160.664 153.462 160.584V162ZM147.558 154.704V153.36H153.462V154.704H147.558ZM161.348 162V157.752C161.348 157.416 161.319 157.072 161.26 156.72C161.207 156.363 161.1 156.032 160.94 155.728C160.785 155.424 160.564 155.179 160.276 154.992C159.993 154.805 159.623 154.712 159.164 154.712C158.865 154.712 158.583 154.763 158.316 154.864C158.049 154.96 157.815 155.117 157.612 155.336C157.415 155.555 157.257 155.843 157.14 156.2C157.028 156.557 156.972 156.992 156.972 157.504L155.932 157.112C155.932 156.328 156.079 155.637 156.372 155.04C156.665 154.437 157.087 153.968 157.636 153.632C158.185 153.296 158.849 153.128 159.628 153.128C160.225 153.128 160.727 153.224 161.132 153.416C161.537 153.608 161.865 153.861 162.116 154.176C162.372 154.485 162.567 154.824 162.7 155.192C162.833 155.56 162.924 155.92 162.972 156.272C163.02 156.624 163.044 156.933 163.044 157.2V162H161.348ZM155.276 162V150.48H156.772V156.696H156.972V162H155.276ZM165.288 151.944V150.32H166.96V151.944H165.288ZM165.288 162V153.36H166.96V162H165.288ZM172.666 162.232C171.616 162.232 170.76 162 170.098 161.536C169.437 161.072 169.032 160.419 168.882 159.576L170.594 159.312C170.701 159.76 170.946 160.115 171.33 160.376C171.72 160.632 172.202 160.76 172.778 160.76C173.301 160.76 173.709 160.653 174.002 160.44C174.301 160.227 174.45 159.933 174.45 159.56C174.45 159.341 174.397 159.165 174.29 159.032C174.189 158.893 173.973 158.763 173.642 158.64C173.312 158.517 172.808 158.365 172.13 158.184C171.389 157.992 170.8 157.787 170.362 157.568C169.93 157.344 169.621 157.085 169.434 156.792C169.253 156.493 169.162 156.133 169.162 155.712C169.162 155.189 169.301 154.733 169.578 154.344C169.856 153.955 170.245 153.653 170.746 153.44C171.253 153.227 171.845 153.12 172.522 153.12C173.184 153.12 173.773 153.224 174.29 153.432C174.808 153.64 175.226 153.936 175.546 154.32C175.866 154.699 176.058 155.144 176.122 155.656L174.41 155.968C174.352 155.552 174.157 155.224 173.826 154.984C173.496 154.744 173.066 154.613 172.538 154.592C172.032 154.571 171.621 154.656 171.306 154.848C170.992 155.035 170.834 155.293 170.834 155.624C170.834 155.816 170.893 155.979 171.01 156.112C171.133 156.245 171.368 156.373 171.714 156.496C172.061 156.619 172.573 156.765 173.25 156.936C173.976 157.123 174.552 157.331 174.978 157.56C175.405 157.784 175.709 158.053 175.89 158.368C176.077 158.677 176.17 159.053 176.17 159.496C176.17 160.349 175.858 161.019 175.234 161.504C174.616 161.989 173.76 162.232 172.666 162.232ZM181.303 162V150.24H182.975V162H181.303ZM185.538 151.944V150.32H187.21V151.944H185.538ZM185.538 162V153.36H187.21V162H185.538ZM195.676 162V157.752C195.676 157.416 195.647 157.072 195.588 156.72C195.535 156.363 195.428 156.032 195.268 155.728C195.114 155.424 194.892 155.179 194.604 154.992C194.322 154.805 193.951 154.712 193.492 154.712C193.194 154.712 192.911 154.763 192.644 154.864C192.378 154.96 192.143 155.117 191.94 155.336C191.743 155.555 191.586 155.843 191.468 156.2C191.356 156.557 191.3 156.992 191.3 157.504L190.26 157.112C190.26 156.328 190.407 155.637 190.7 155.04C190.994 154.437 191.415 153.968 191.964 153.632C192.514 153.296 193.178 153.128 193.956 153.128C194.554 153.128 195.055 153.224 195.46 153.416C195.866 153.608 196.194 153.861 196.444 154.176C196.7 154.485 196.895 154.824 197.028 155.192C197.162 155.56 197.252 155.92 197.3 156.272C197.348 156.624 197.372 156.933 197.372 157.2V162H195.676ZM189.604 162V153.36H191.1V155.856H191.3V162H189.604ZM199.448 162L199.456 150.48H201.152V157.52L204.544 153.36H206.672L203.088 157.68L207.04 162H204.768L201.152 157.84V162H199.448ZM212.89 162L210.25 153.352L211.906 153.36L213.714 159.288L215.538 153.36H216.978L218.802 159.288L220.61 153.36H222.258L219.618 162H218.274L216.258 155.744L214.234 162H212.89ZM223.85 151.944V150.32H225.522V151.944H223.85ZM223.85 162V153.36H225.522V162H223.85ZM232.869 162C232.325 162.107 231.791 162.152 231.269 162.136C230.746 162.12 230.279 162.019 229.869 161.832C229.458 161.645 229.149 161.352 228.941 160.952C228.754 160.595 228.653 160.232 228.637 159.864C228.626 159.491 228.621 159.069 228.621 158.6V150.96H230.301V158.52C230.301 158.867 230.303 159.168 230.309 159.424C230.319 159.68 230.375 159.896 230.477 160.072C230.669 160.403 230.973 160.592 231.389 160.64C231.81 160.683 232.303 160.664 232.869 160.584V162ZM226.965 154.704V153.36H232.869V154.704H226.965ZM240.754 162V157.752C240.754 157.416 240.725 157.072 240.666 156.72C240.613 156.363 240.506 156.032 240.346 155.728C240.192 155.424 239.97 155.179 239.682 154.992C239.4 154.805 239.029 154.712 238.57 154.712C238.272 154.712 237.989 154.763 237.722 154.864C237.456 154.96 237.221 155.117 237.018 155.336C236.821 155.555 236.664 155.843 236.546 156.2C236.434 156.557 236.378 156.992 236.378 157.504L235.338 157.112C235.338 156.328 235.485 155.637 235.778 155.04C236.072 154.437 236.493 153.968 237.042 153.632C237.592 153.296 238.256 153.128 239.034 153.128C239.632 153.128 240.133 153.224 240.538 153.416C240.944 153.608 241.272 153.861 241.522 154.176C241.778 154.485 241.973 154.824 242.106 155.192C242.24 155.56 242.33 155.92 242.378 156.272C242.426 156.624 242.45 156.933 242.45 157.2V162H240.754ZM234.682 162V150.48H236.178V156.696H236.378V162H234.682ZM250.177 162.24C249.537 162.24 249.001 162.123 248.569 161.888C248.137 161.648 247.809 161.333 247.585 160.944C247.367 160.549 247.257 160.117 247.257 159.648C247.257 159.211 247.335 158.827 247.489 158.496C247.644 158.165 247.873 157.885 248.177 157.656C248.481 157.421 248.855 157.232 249.297 157.088C249.681 156.976 250.116 156.877 250.601 156.792C251.087 156.707 251.596 156.627 252.129 156.552C252.668 156.477 253.201 156.403 253.729 156.328L253.121 156.664C253.132 155.987 252.988 155.485 252.689 155.16C252.396 154.829 251.889 154.664 251.169 154.664C250.716 154.664 250.3 154.771 249.921 154.984C249.543 155.192 249.279 155.539 249.129 156.024L247.569 155.544C247.783 154.803 248.188 154.213 248.785 153.776C249.388 153.339 250.188 153.12 251.185 153.12C251.959 153.12 252.631 153.253 253.201 153.52C253.777 153.781 254.199 154.197 254.465 154.768C254.604 155.051 254.689 155.349 254.721 155.664C254.753 155.979 254.769 156.317 254.769 156.68V162H253.289V160.024L253.577 160.28C253.22 160.941 252.764 161.435 252.209 161.76C251.66 162.08 250.983 162.24 250.177 162.24ZM250.473 160.872C250.948 160.872 251.356 160.789 251.697 160.624C252.039 160.453 252.313 160.237 252.521 159.976C252.729 159.715 252.865 159.443 252.929 159.16C253.02 158.904 253.071 158.616 253.081 158.296C253.097 157.976 253.105 157.72 253.105 157.528L253.649 157.728C253.121 157.808 252.641 157.88 252.209 157.944C251.777 158.008 251.385 158.072 251.033 158.136C250.687 158.195 250.377 158.267 250.105 158.352C249.876 158.432 249.671 158.528 249.489 158.64C249.313 158.752 249.172 158.888 249.065 159.048C248.964 159.208 248.913 159.403 248.913 159.632C248.913 159.856 248.969 160.064 249.081 160.256C249.193 160.443 249.364 160.592 249.593 160.704C249.823 160.816 250.116 160.872 250.473 160.872ZM263.746 162.24C262.86 162.24 262.108 162.043 261.49 161.648C260.871 161.253 260.396 160.712 260.066 160.024C259.74 159.336 259.575 158.555 259.57 157.68C259.575 156.789 259.746 156.003 260.082 155.32C260.418 154.632 260.898 154.093 261.522 153.704C262.146 153.315 262.895 153.12 263.77 153.12C264.714 153.12 265.519 153.355 266.186 153.824C266.858 154.293 267.3 154.936 267.514 155.752L265.85 156.232C265.684 155.747 265.412 155.371 265.034 155.104C264.66 154.832 264.231 154.696 263.746 154.696C263.196 154.696 262.746 154.827 262.394 155.088C262.042 155.344 261.78 155.696 261.61 156.144C261.439 156.592 261.351 157.104 261.346 157.68C261.351 158.571 261.554 159.291 261.954 159.84C262.359 160.389 262.956 160.664 263.746 160.664C264.284 160.664 264.719 160.541 265.05 160.296C265.386 160.045 265.642 159.688 265.818 159.224L267.514 159.624C267.231 160.467 266.764 161.115 266.114 161.568C265.463 162.016 264.674 162.24 263.746 162.24ZM272.661 162.24C271.797 162.24 271.048 162.045 270.413 161.656C269.778 161.267 269.288 160.731 268.941 160.048C268.6 159.36 268.429 158.568 268.429 157.672C268.429 156.771 268.605 155.979 268.957 155.296C269.309 154.608 269.802 154.075 270.437 153.696C271.072 153.312 271.813 153.12 272.661 153.12C273.525 153.12 274.274 153.315 274.909 153.704C275.544 154.093 276.034 154.629 276.381 155.312C276.728 155.995 276.901 156.781 276.901 157.672C276.901 158.573 276.725 159.368 276.373 160.056C276.026 160.739 275.536 161.275 274.901 161.664C274.266 162.048 273.52 162.24 272.661 162.24ZM272.661 160.664C273.488 160.664 274.104 160.387 274.509 159.832C274.92 159.272 275.125 158.552 275.125 157.672C275.125 156.771 274.917 156.051 274.501 155.512C274.09 154.968 273.477 154.696 272.661 154.696C272.101 154.696 271.64 154.824 271.277 155.08C270.914 155.331 270.645 155.68 270.469 156.128C270.293 156.571 270.205 157.085 270.205 157.672C270.205 158.579 270.413 159.304 270.829 159.848C271.245 160.392 271.856 160.664 272.661 160.664ZM278.819 162V150.24H280.491V162H278.819ZM283.053 162V150.24H284.725V162H283.053ZM290.96 162.24C290.101 162.24 289.346 162.053 288.696 161.68C288.05 161.301 287.546 160.776 287.184 160.104C286.826 159.427 286.648 158.643 286.648 157.752C286.648 156.808 286.824 155.989 287.176 155.296C287.533 154.603 288.029 154.067 288.664 153.688C289.298 153.309 290.037 153.12 290.88 153.12C291.76 153.12 292.509 153.325 293.128 153.736C293.746 154.141 294.208 154.72 294.512 155.472C294.821 156.224 294.944 157.117 294.88 158.152H293.208V157.544C293.197 156.541 293.005 155.8 292.632 155.32C292.264 154.84 291.701 154.6 290.944 154.6C290.106 154.6 289.477 154.864 289.056 155.392C288.634 155.92 288.424 156.683 288.424 157.68C288.424 158.629 288.634 159.365 289.056 159.888C289.477 160.405 290.085 160.664 290.88 160.664C291.402 160.664 291.853 160.547 292.232 160.312C292.616 160.072 292.914 159.731 293.128 159.288L294.768 159.808C294.432 160.581 293.922 161.181 293.24 161.608C292.557 162.029 291.797 162.24 290.96 162.24ZM287.88 158.152V156.848H294.048V158.152H287.88ZM298.958 162.24C298.318 162.24 297.782 162.123 297.35 161.888C296.918 161.648 296.59 161.333 296.366 160.944C296.148 160.549 296.038 160.117 296.038 159.648C296.038 159.211 296.116 158.827 296.27 158.496C296.425 158.165 296.654 157.885 296.958 157.656C297.262 157.421 297.636 157.232 298.078 157.088C298.462 156.976 298.897 156.877 299.382 156.792C299.868 156.707 300.377 156.627 300.91 156.552C301.449 156.477 301.982 156.403 302.51 156.328L301.902 156.664C301.913 155.987 301.769 155.485 301.47 155.16C301.177 154.829 300.67 154.664 299.95 154.664C299.497 154.664 299.081 154.771 298.702 154.984C298.324 155.192 298.06 155.539 297.91 156.024L296.35 155.544C296.564 154.803 296.969 154.213 297.566 153.776C298.169 153.339 298.969 153.12 299.966 153.12C300.74 153.12 301.412 153.253 301.982 153.52C302.558 153.781 302.98 154.197 303.246 154.768C303.385 155.051 303.47 155.349 303.502 155.664C303.534 155.979 303.55 156.317 303.55 156.68V162H302.07V160.024L302.358 160.28C302.001 160.941 301.545 161.435 300.99 161.76C300.441 162.08 299.764 162.24 298.958 162.24ZM299.254 160.872C299.729 160.872 300.137 160.789 300.478 160.624C300.82 160.453 301.094 160.237 301.302 159.976C301.51 159.715 301.646 159.443 301.71 159.16C301.801 158.904 301.852 158.616 301.862 158.296C301.878 157.976 301.886 157.72 301.886 157.528L302.43 157.728C301.902 157.808 301.422 157.88 300.99 157.944C300.558 158.008 300.166 158.072 299.814 158.136C299.468 158.195 299.158 158.267 298.886 158.352C298.657 158.432 298.452 158.528 298.27 158.64C298.094 158.752 297.953 158.888 297.846 159.048C297.745 159.208 297.694 159.403 297.694 159.632C297.694 159.856 297.75 160.064 297.862 160.256C297.974 160.443 298.145 160.592 298.374 160.704C298.604 160.816 298.897 160.872 299.254 160.872ZM309.188 166.08C308.724 166.08 308.273 166.008 307.836 165.864C307.404 165.72 307.009 165.507 306.652 165.224C306.294 164.947 305.998 164.603 305.764 164.192L307.308 163.408C307.494 163.776 307.761 164.045 308.108 164.216C308.454 164.387 308.82 164.472 309.204 164.472C309.678 164.472 310.084 164.387 310.42 164.216C310.756 164.051 311.009 163.8 311.18 163.464C311.356 163.128 311.441 162.712 311.436 162.216V159.8H311.636V153.36H313.116V162.232C313.116 162.461 313.108 162.68 313.092 162.888C313.076 163.096 313.046 163.304 313.004 163.512C312.881 164.093 312.646 164.573 312.3 164.952C311.958 165.331 311.521 165.613 310.988 165.8C310.46 165.987 309.86 166.08 309.188 166.08ZM309.06 162.24C308.254 162.24 307.558 162.04 306.972 161.64C306.39 161.24 305.94 160.696 305.62 160.008C305.305 159.315 305.148 158.536 305.148 157.672C305.148 156.803 305.308 156.027 305.628 155.344C305.948 154.656 306.401 154.115 306.988 153.72C307.58 153.32 308.281 153.12 309.092 153.12C309.908 153.12 310.593 153.32 311.148 153.72C311.708 154.115 312.129 154.656 312.412 155.344C312.7 156.032 312.844 156.808 312.844 157.672C312.844 158.536 312.7 159.312 312.412 160C312.124 160.688 311.7 161.235 311.14 161.64C310.58 162.04 309.886 162.24 309.06 162.24ZM309.292 160.728C309.841 160.728 310.289 160.597 310.636 160.336C310.982 160.075 311.236 159.715 311.396 159.256C311.556 158.797 311.636 158.269 311.636 157.672C311.636 157.075 311.553 156.547 311.388 156.088C311.228 155.629 310.977 155.272 310.636 155.016C310.3 154.76 309.87 154.632 309.348 154.632C308.793 154.632 308.337 154.768 307.98 155.04C307.622 155.312 307.356 155.677 307.18 156.136C307.009 156.595 306.924 157.107 306.924 157.672C306.924 158.243 307.009 158.76 307.18 159.224C307.356 159.683 307.617 160.048 307.964 160.32C308.316 160.592 308.758 160.728 309.292 160.728ZM318.618 162.232C318.021 162.232 317.52 162.136 317.114 161.944C316.709 161.752 316.378 161.501 316.122 161.192C315.872 160.877 315.68 160.536 315.546 160.168C315.413 159.8 315.322 159.44 315.274 159.088C315.226 158.736 315.202 158.427 315.202 158.16V153.36H316.898V157.608C316.898 157.944 316.925 158.291 316.978 158.648C317.037 159 317.144 159.328 317.298 159.632C317.458 159.936 317.68 160.181 317.962 160.368C318.25 160.555 318.624 160.648 319.082 160.648C319.381 160.648 319.664 160.6 319.93 160.504C320.197 160.403 320.429 160.243 320.626 160.024C320.829 159.805 320.986 159.517 321.098 159.16C321.216 158.803 321.274 158.368 321.274 157.856L322.314 158.248C322.314 159.032 322.168 159.725 321.874 160.328C321.581 160.925 321.16 161.392 320.61 161.728C320.061 162.064 319.397 162.232 318.618 162.232ZM321.474 162V159.504H321.274V153.36H322.962V162H321.474ZM329.038 162.24C328.179 162.24 327.425 162.053 326.774 161.68C326.129 161.301 325.625 160.776 325.262 160.104C324.905 159.427 324.726 158.643 324.726 157.752C324.726 156.808 324.902 155.989 325.254 155.296C325.611 154.603 326.107 154.067 326.742 153.688C327.377 153.309 328.115 153.12 328.958 153.12C329.838 153.12 330.587 153.325 331.206 153.736C331.825 154.141 332.286 154.72 332.59 155.472C332.899 156.224 333.022 157.117 332.958 158.152H331.286V157.544C331.275 156.541 331.083 155.8 330.71 155.32C330.342 154.84 329.779 154.6 329.022 154.6C328.185 154.6 327.555 154.864 327.134 155.392C326.713 155.92 326.502 156.683 326.502 157.68C326.502 158.629 326.713 159.365 327.134 159.888C327.555 160.405 328.163 160.664 328.958 160.664C329.481 160.664 329.931 160.547 330.31 160.312C330.694 160.072 330.993 159.731 331.206 159.288L332.846 159.808C332.51 160.581 332.001 161.181 331.318 161.608C330.635 162.029 329.875 162.24 329.038 162.24ZM325.958 158.152V156.848H332.126V158.152H325.958Z" fill="white"/>
<path d="M109.871 189.18C109.267 189.18 108.723 189.08 108.239 188.88C107.759 188.676 107.361 188.388 107.045 188.016C106.733 187.644 106.529 187.202 106.433 186.69L107.333 186.54C107.477 187.1 107.781 187.54 108.245 187.86C108.709 188.176 109.263 188.334 109.907 188.334C110.331 188.334 110.711 188.268 111.047 188.136C111.383 188 111.647 187.808 111.839 187.56C112.031 187.312 112.127 187.018 112.127 186.678C112.127 186.454 112.087 186.264 112.007 186.108C111.927 185.948 111.821 185.816 111.689 185.712C111.557 185.608 111.413 185.522 111.257 185.454C111.101 185.382 110.949 185.324 110.801 185.28L108.611 184.626C108.347 184.55 108.103 184.454 107.879 184.338C107.655 184.218 107.459 184.076 107.291 183.912C107.127 183.744 106.999 183.548 106.907 183.324C106.815 183.1 106.769 182.844 106.769 182.556C106.769 182.068 106.897 181.646 107.153 181.29C107.409 180.934 107.759 180.66 108.203 180.468C108.647 180.276 109.153 180.182 109.721 180.186C110.297 180.186 110.811 180.288 111.263 180.492C111.719 180.696 112.095 180.988 112.391 181.368C112.687 181.744 112.883 182.19 112.979 182.706L112.055 182.874C111.995 182.498 111.857 182.172 111.641 181.896C111.425 181.62 111.149 181.408 110.813 181.26C110.481 181.108 110.115 181.03 109.715 181.026C109.327 181.026 108.981 181.092 108.677 181.224C108.377 181.352 108.139 181.528 107.963 181.752C107.787 181.976 107.699 182.232 107.699 182.52C107.699 182.812 107.779 183.046 107.939 183.222C108.103 183.398 108.303 183.536 108.539 183.636C108.779 183.736 109.011 183.818 109.235 183.882L110.927 184.38C111.103 184.428 111.309 184.498 111.545 184.59C111.785 184.678 112.017 184.806 112.241 184.974C112.469 185.138 112.657 185.354 112.805 185.622C112.953 185.89 113.027 186.23 113.027 186.642C113.027 187.042 112.947 187.4 112.787 187.716C112.631 188.032 112.409 188.298 112.121 188.514C111.837 188.73 111.503 188.894 111.119 189.006C110.739 189.122 110.323 189.18 109.871 189.18ZM117.008 189.18C116.376 189.18 115.828 189.04 115.364 188.76C114.904 188.48 114.546 188.086 114.29 187.578C114.034 187.07 113.906 186.474 113.906 185.79C113.906 185.082 114.032 184.47 114.284 183.954C114.536 183.438 114.89 183.04 115.346 182.76C115.806 182.48 116.348 182.34 116.972 182.34C117.612 182.34 118.158 182.488 118.61 182.784C119.062 183.076 119.404 183.496 119.636 184.044C119.868 184.592 119.974 185.246 119.954 186.006H119.054V185.694C119.038 184.854 118.856 184.22 118.508 183.792C118.164 183.364 117.66 183.15 116.996 183.15C116.3 183.15 115.766 183.376 115.394 183.828C115.026 184.28 114.842 184.924 114.842 185.76C114.842 186.576 115.026 187.21 115.394 187.662C115.766 188.11 116.292 188.334 116.972 188.334C117.436 188.334 117.84 188.228 118.184 188.016C118.532 187.8 118.806 187.49 119.006 187.086L119.828 187.404C119.572 187.968 119.194 188.406 118.694 188.718C118.198 189.026 117.636 189.18 117.008 189.18ZM114.53 186.006V185.268H119.48V186.006H114.53ZM125.79 189V185.694C125.79 185.334 125.756 185.004 125.688 184.704C125.62 184.4 125.51 184.136 125.358 183.912C125.21 183.684 125.016 183.508 124.776 183.384C124.54 183.26 124.252 183.198 123.912 183.198C123.6 183.198 123.324 183.252 123.084 183.36C122.848 183.468 122.648 183.624 122.484 183.828C122.324 184.028 122.202 184.272 122.118 184.56C122.034 184.848 121.992 185.176 121.992 185.544L121.368 185.406C121.368 184.742 121.484 184.184 121.716 183.732C121.948 183.28 122.268 182.938 122.676 182.706C123.084 182.474 123.552 182.358 124.08 182.358C124.468 182.358 124.806 182.418 125.094 182.538C125.386 182.658 125.632 182.82 125.832 183.024C126.036 183.228 126.2 183.462 126.324 183.726C126.448 183.986 126.538 184.264 126.594 184.56C126.65 184.852 126.678 185.144 126.678 185.436V189H125.79ZM121.104 189V182.52H121.902V184.116H121.992V189H121.104ZM130.702 189.18C130.098 189.18 129.582 189.03 129.154 188.73C128.726 188.426 128.398 188.016 128.17 187.5C127.942 186.984 127.828 186.402 127.828 185.754C127.828 185.11 127.94 184.53 128.164 184.014C128.392 183.498 128.718 183.09 129.142 182.79C129.566 182.49 130.074 182.34 130.666 182.34C131.274 182.34 131.786 182.488 132.202 182.784C132.618 183.08 132.932 183.486 133.144 184.002C133.36 184.514 133.468 185.098 133.468 185.754C133.468 186.398 133.362 186.98 133.15 187.5C132.938 188.016 132.626 188.426 132.214 188.73C131.802 189.03 131.298 189.18 130.702 189.18ZM130.792 188.358C131.252 188.358 131.632 188.246 131.932 188.022C132.232 187.798 132.456 187.49 132.604 187.098C132.752 186.702 132.826 186.254 132.826 185.754C132.826 185.246 132.752 184.798 132.604 184.41C132.456 184.018 132.232 183.712 131.932 183.492C131.636 183.272 131.262 183.162 130.81 183.162C130.346 183.162 129.962 183.276 129.658 183.504C129.354 183.732 129.128 184.042 128.98 184.434C128.836 184.826 128.764 185.266 128.764 185.754C128.764 186.246 128.838 186.69 128.986 187.086C129.138 187.478 129.364 187.788 129.664 188.016C129.964 188.244 130.34 188.358 130.792 188.358ZM132.826 189V184.122H132.73V180.36H133.618V189H132.826ZM141.231 189C140.867 189.076 140.507 189.106 140.151 189.09C139.799 189.074 139.483 188.998 139.203 188.862C138.927 188.726 138.717 188.514 138.573 188.226C138.457 187.986 138.393 187.744 138.381 187.5C138.373 187.252 138.369 186.97 138.369 186.654V180.72H139.245V186.618C139.245 186.89 139.247 187.118 139.251 187.302C139.259 187.482 139.301 187.642 139.377 187.782C139.521 188.05 139.749 188.21 140.061 188.262C140.377 188.314 140.767 188.302 141.231 188.226V189ZM136.983 183.276V182.52H141.231V183.276H136.983ZM147.188 189V185.694C147.188 185.334 147.154 185.004 147.086 184.704C147.018 184.4 146.908 184.136 146.756 183.912C146.608 183.684 146.414 183.508 146.174 183.384C145.938 183.26 145.65 183.198 145.31 183.198C144.998 183.198 144.722 183.252 144.482 183.36C144.246 183.468 144.046 183.624 143.882 183.828C143.722 184.028 143.6 184.272 143.516 184.56C143.432 184.848 143.39 185.176 143.39 185.544L142.766 185.406C142.766 184.742 142.882 184.184 143.114 183.732C143.346 183.28 143.666 182.938 144.074 182.706C144.482 182.474 144.95 182.358 145.478 182.358C145.866 182.358 146.204 182.418 146.492 182.538C146.784 182.658 147.03 182.82 147.23 183.024C147.434 183.228 147.598 183.462 147.722 183.726C147.846 183.986 147.936 184.264 147.992 184.56C148.048 184.852 148.076 185.144 148.076 185.436V189H147.188ZM142.502 189V180.36H143.3V185.238H143.39V189H142.502ZM149.753 181.29V180.3H150.635V181.29H149.753ZM149.753 189V182.52H150.635V189H149.753ZM154.852 189.174C154.092 189.174 153.466 189.01 152.974 188.682C152.486 188.354 152.186 187.898 152.074 187.314L152.974 187.164C153.07 187.532 153.288 187.826 153.628 188.046C153.972 188.262 154.396 188.37 154.9 188.37C155.392 188.37 155.78 188.268 156.064 188.064C156.348 187.856 156.49 187.574 156.49 187.218C156.49 187.018 156.444 186.856 156.352 186.732C156.264 186.604 156.082 186.486 155.806 186.378C155.53 186.27 155.118 186.142 154.57 185.994C153.982 185.834 153.522 185.674 153.19 185.514C152.858 185.354 152.622 185.17 152.482 184.962C152.342 184.75 152.272 184.492 152.272 184.188C152.272 183.82 152.376 183.498 152.584 183.222C152.792 182.942 153.08 182.726 153.448 182.574C153.816 182.418 154.244 182.34 154.732 182.34C155.22 182.34 155.656 182.42 156.04 182.58C156.428 182.736 156.74 182.956 156.976 183.24C157.212 183.524 157.352 183.854 157.396 184.23L156.496 184.392C156.436 184.012 156.246 183.712 155.926 183.492C155.61 183.268 155.208 183.152 154.72 183.144C154.26 183.132 153.886 183.22 153.598 183.408C153.31 183.592 153.166 183.838 153.166 184.146C153.166 184.318 153.218 184.466 153.322 184.59C153.426 184.71 153.614 184.824 153.886 184.932C154.162 185.04 154.554 185.158 155.062 185.286C155.658 185.438 156.126 185.598 156.466 185.766C156.806 185.934 157.048 186.132 157.192 186.36C157.336 186.588 157.408 186.87 157.408 187.206C157.408 187.818 157.18 188.3 156.724 188.652C156.272 189 155.648 189.174 154.852 189.174ZM161.261 189V180.18H162.143V189H161.261ZM164.062 181.29V180.3H164.944V181.29H164.062ZM164.062 189V182.52H164.944V189H164.062ZM171.422 189V185.694C171.422 185.334 171.388 185.004 171.32 184.704C171.252 184.4 171.142 184.136 170.99 183.912C170.842 183.684 170.648 183.508 170.408 183.384C170.172 183.26 169.884 183.198 169.544 183.198C169.232 183.198 168.956 183.252 168.716 183.36C168.48 183.468 168.28 183.624 168.116 183.828C167.956 184.028 167.834 184.272 167.75 184.56C167.666 184.848 167.624 185.176 167.624 185.544L167 185.406C167 184.742 167.116 184.184 167.348 183.732C167.58 183.28 167.9 182.938 168.308 182.706C168.716 182.474 169.184 182.358 169.712 182.358C170.1 182.358 170.438 182.418 170.726 182.538C171.018 182.658 171.264 182.82 171.464 183.024C171.668 183.228 171.832 183.462 171.956 183.726C172.08 183.986 172.17 184.264 172.226 184.56C172.282 184.852 172.31 185.144 172.31 185.436V189H171.422ZM166.736 189V182.52H167.534V184.116H167.624V189H166.736ZM173.861 189L173.867 180.36H174.755V185.64L177.647 182.52H178.823L175.787 185.76L179.219 189H177.935L174.755 185.88V189H173.861ZM185.133 189.18C184.537 189.18 184.033 189.03 183.621 188.73C183.209 188.426 182.897 188.016 182.685 187.5C182.473 186.98 182.367 186.398 182.367 185.754C182.367 185.098 182.473 184.514 182.685 184.002C182.901 183.486 183.217 183.08 183.633 182.784C184.049 182.488 184.561 182.34 185.169 182.34C185.761 182.34 186.269 182.49 186.693 182.79C187.117 183.09 187.441 183.498 187.665 184.014C187.893 184.53 188.007 185.11 188.007 185.754C188.007 186.402 187.893 186.984 187.665 187.5C187.437 188.016 187.109 188.426 186.681 188.73C186.253 189.03 185.737 189.18 185.133 189.18ZM182.217 189V180.36H183.105V184.122H183.009V189H182.217ZM185.043 188.358C185.495 188.358 185.871 188.244 186.171 188.016C186.471 187.788 186.695 187.478 186.843 187.086C186.995 186.69 187.071 186.246 187.071 185.754C187.071 185.266 186.997 184.826 186.849 184.434C186.701 184.042 186.475 183.732 186.171 183.504C185.871 183.276 185.489 183.162 185.025 183.162C184.573 183.162 184.197 183.272 183.897 183.492C183.601 183.712 183.379 184.018 183.231 184.41C183.083 184.798 183.009 185.246 183.009 185.754C183.009 186.254 183.083 186.702 183.231 187.098C183.379 187.49 183.603 187.798 183.903 188.022C184.203 188.246 184.583 188.358 185.043 188.358ZM192.066 189.18C191.434 189.18 190.886 189.04 190.422 188.76C189.962 188.48 189.604 188.086 189.348 187.578C189.092 187.07 188.964 186.474 188.964 185.79C188.964 185.082 189.09 184.47 189.342 183.954C189.594 183.438 189.948 183.04 190.404 182.76C190.864 182.48 191.406 182.34 192.03 182.34C192.67 182.34 193.216 182.488 193.668 182.784C194.12 183.076 194.462 183.496 194.694 184.044C194.926 184.592 195.032 185.246 195.012 186.006H194.112V185.694C194.096 184.854 193.914 184.22 193.566 183.792C193.222 183.364 192.718 183.15 192.054 183.15C191.358 183.15 190.824 183.376 190.452 183.828C190.084 184.28 189.9 184.924 189.9 185.76C189.9 186.576 190.084 187.21 190.452 187.662C190.824 188.11 191.35 188.334 192.03 188.334C192.494 188.334 192.898 188.228 193.242 188.016C193.59 187.8 193.864 187.49 194.064 187.086L194.886 187.404C194.63 187.968 194.252 188.406 193.752 188.718C193.256 189.026 192.694 189.18 192.066 189.18ZM189.588 186.006V185.268H194.538V186.006H189.588ZM196.464 189V180.18H197.346V189H196.464ZM201.851 189.18C201.207 189.18 200.657 189.034 200.201 188.742C199.745 188.45 199.395 188.046 199.151 187.53C198.907 187.014 198.785 186.422 198.785 185.754C198.785 185.074 198.909 184.478 199.157 183.966C199.405 183.454 199.757 183.056 200.213 182.772C200.673 182.484 201.219 182.34 201.851 182.34C202.499 182.34 203.051 182.486 203.507 182.778C203.967 183.066 204.317 183.468 204.557 183.984C204.801 184.496 204.923 185.086 204.923 185.754C204.923 186.434 204.801 187.032 204.557 187.548C204.313 188.06 203.961 188.46 203.501 188.748C203.041 189.036 202.491 189.18 201.851 189.18ZM201.851 188.334C202.571 188.334 203.107 188.096 203.459 187.62C203.811 187.14 203.987 186.518 203.987 185.754C203.987 184.97 203.809 184.346 203.453 183.882C203.101 183.418 202.567 183.186 201.851 183.186C201.367 183.186 200.967 183.296 200.651 183.516C200.339 183.732 200.105 184.034 199.949 184.422C199.797 184.806 199.721 185.25 199.721 185.754C199.721 186.534 199.901 187.16 200.261 187.632C200.621 188.1 201.151 188.334 201.851 188.334ZM207.392 189L205.412 182.514L206.294 182.52L207.83 187.554L209.372 182.52H210.176L211.718 187.554L213.266 182.52H214.142L212.162 189H211.394L209.774 183.84L208.16 189H207.392ZM221.153 189C220.789 189.076 220.429 189.106 220.073 189.09C219.721 189.074 219.405 188.998 219.125 188.862C218.849 188.726 218.639 188.514 218.495 188.226C218.379 187.986 218.315 187.744 218.303 187.5C218.295 187.252 218.291 186.97 218.291 186.654V180.72H219.167V186.618C219.167 186.89 219.169 187.118 219.173 187.302C219.181 187.482 219.223 187.642 219.299 187.782C219.443 188.05 219.671 188.21 219.983 188.262C220.299 188.314 220.689 188.302 221.153 188.226V189ZM216.905 183.276V182.52H221.153V183.276H216.905ZM224.901 189.18C224.257 189.18 223.707 189.034 223.251 188.742C222.795 188.45 222.445 188.046 222.201 187.53C221.957 187.014 221.835 186.422 221.835 185.754C221.835 185.074 221.959 184.478 222.207 183.966C222.455 183.454 222.807 183.056 223.263 182.772C223.723 182.484 224.269 182.34 224.901 182.34C225.549 182.34 226.101 182.486 226.557 182.778C227.017 183.066 227.367 183.468 227.607 183.984C227.851 184.496 227.973 185.086 227.973 185.754C227.973 186.434 227.851 187.032 227.607 187.548C227.363 188.06 227.011 188.46 226.551 188.748C226.091 189.036 225.541 189.18 224.901 189.18ZM224.901 188.334C225.621 188.334 226.157 188.096 226.509 187.62C226.861 187.14 227.037 186.518 227.037 185.754C227.037 184.97 226.859 184.346 226.503 183.882C226.151 183.418 225.617 183.186 224.901 183.186C224.417 183.186 224.017 183.296 223.701 183.516C223.389 183.732 223.155 184.034 222.999 184.422C222.847 184.806 222.771 185.25 222.771 185.754C222.771 186.534 222.951 187.16 223.311 187.632C223.671 188.1 224.201 188.334 224.901 188.334ZM232.623 191.88L233.877 188.478L233.895 189.486L231.057 182.52H231.993L234.321 188.346H233.937L236.085 182.52H236.985L233.505 191.88H232.623ZM240.499 189.18C239.855 189.18 239.305 189.034 238.849 188.742C238.393 188.45 238.043 188.046 237.799 187.53C237.555 187.014 237.433 186.422 237.433 185.754C237.433 185.074 237.557 184.478 237.805 183.966C238.053 183.454 238.405 183.056 238.861 182.772C239.321 182.484 239.867 182.34 240.499 182.34C241.147 182.34 241.699 182.486 242.155 182.778C242.615 183.066 242.965 183.468 243.205 183.984C243.449 184.496 243.571 185.086 243.571 185.754C243.571 186.434 243.449 187.032 243.205 187.548C242.961 188.06 242.609 188.46 242.149 188.748C241.689 189.036 241.139 189.18 240.499 189.18ZM240.499 188.334C241.219 188.334 241.755 188.096 242.107 187.62C242.459 187.14 242.635 186.518 242.635 185.754C242.635 184.97 242.457 184.346 242.101 183.882C241.749 183.418 241.215 183.186 240.499 183.186C240.015 183.186 239.615 183.296 239.299 183.516C238.987 183.732 238.753 184.034 238.597 184.422C238.445 184.806 238.369 185.25 238.369 185.754C238.369 186.534 238.549 187.16 238.909 187.632C239.269 188.1 239.799 188.334 240.499 188.334ZM247.373 189.162C246.985 189.162 246.645 189.102 246.353 188.982C246.065 188.862 245.819 188.7 245.615 188.496C245.415 188.292 245.253 188.06 245.129 187.8C245.005 187.536 244.915 187.258 244.859 186.966C244.803 186.67 244.775 186.376 244.775 186.084V182.52H245.663V185.826C245.663 186.182 245.697 186.512 245.765 186.816C245.833 187.12 245.941 187.386 246.089 187.614C246.241 187.838 246.435 188.012 246.671 188.136C246.911 188.26 247.201 188.322 247.541 188.322C247.853 188.322 248.127 188.268 248.363 188.16C248.603 188.052 248.803 187.898 248.963 187.698C249.127 187.494 249.251 187.248 249.335 186.96C249.419 186.668 249.461 186.34 249.461 185.976L250.085 186.114C250.085 186.778 249.969 187.336 249.737 187.788C249.505 188.24 249.185 188.582 248.777 188.814C248.369 189.046 247.901 189.162 247.373 189.162ZM249.551 189V187.404H249.461V182.52H250.343V189H249.551ZM252.02 189V182.52H252.812V184.08L252.656 183.876C252.728 183.684 252.822 183.508 252.938 183.348C253.054 183.184 253.18 183.05 253.316 182.946C253.484 182.798 253.68 182.686 253.904 182.61C254.128 182.53 254.354 182.484 254.582 182.472C254.81 182.456 255.018 182.472 255.206 182.52V183.348C254.97 183.288 254.712 183.274 254.432 183.306C254.152 183.338 253.894 183.45 253.658 183.642C253.442 183.81 253.28 184.012 253.172 184.248C253.064 184.48 252.992 184.728 252.956 184.992C252.92 185.252 252.902 185.51 252.902 185.766V189H252.02ZM261.434 189.18C260.782 189.18 260.23 189.034 259.778 188.742C259.326 188.45 258.982 188.048 258.746 187.536C258.514 187.02 258.394 186.428 258.386 185.76C258.394 185.08 258.518 184.484 258.758 183.972C258.998 183.456 259.344 183.056 259.796 182.772C260.248 182.484 260.796 182.34 261.44 182.34C262.096 182.34 262.666 182.5 263.15 182.82C263.638 183.14 263.972 183.578 264.152 184.134L263.288 184.41C263.136 184.022 262.894 183.722 262.562 183.51C262.234 183.294 261.858 183.186 261.434 183.186C260.958 183.186 260.564 183.296 260.252 183.516C259.94 183.732 259.708 184.034 259.556 184.422C259.404 184.81 259.326 185.256 259.322 185.76C259.33 186.536 259.51 187.16 259.862 187.632C260.214 188.1 260.738 188.334 261.434 188.334C261.874 188.334 262.248 188.234 262.556 188.034C262.868 187.83 263.104 187.534 263.264 187.146L264.152 187.41C263.912 187.986 263.56 188.426 263.096 188.73C262.632 189.03 262.078 189.18 261.434 189.18ZM267.921 189.18C267.277 189.18 266.727 189.034 266.271 188.742C265.815 188.45 265.465 188.046 265.221 187.53C264.977 187.014 264.855 186.422 264.855 185.754C264.855 185.074 264.979 184.478 265.227 183.966C265.475 183.454 265.827 183.056 266.283 182.772C266.743 182.484 267.289 182.34 267.921 182.34C268.569 182.34 269.121 182.486 269.577 182.778C270.037 183.066 270.387 183.468 270.627 183.984C270.871 184.496 270.993 185.086 270.993 185.754C270.993 186.434 270.871 187.032 270.627 187.548C270.383 188.06 270.031 188.46 269.571 188.748C269.111 189.036 268.561 189.18 267.921 189.18ZM267.921 188.334C268.641 188.334 269.177 188.096 269.529 187.62C269.881 187.14 270.057 186.518 270.057 185.754C270.057 184.97 269.879 184.346 269.523 183.882C269.171 183.418 268.637 183.186 267.921 183.186C267.437 183.186 267.037 183.296 266.721 183.516C266.409 183.732 266.175 184.034 266.019 184.422C265.867 184.806 265.791 185.25 265.791 185.754C265.791 186.534 265.971 187.16 266.331 187.632C266.691 188.1 267.221 188.334 267.921 188.334ZM272.437 189V180.18H273.319V189H272.437ZM275.237 189V180.18H276.119V189H275.237ZM280.66 189.18C280.028 189.18 279.48 189.04 279.016 188.76C278.556 188.48 278.198 188.086 277.942 187.578C277.686 187.07 277.558 186.474 277.558 185.79C277.558 185.082 277.684 184.47 277.936 183.954C278.188 183.438 278.542 183.04 278.998 182.76C279.458 182.48 280 182.34 280.624 182.34C281.264 182.34 281.81 182.488 282.262 182.784C282.714 183.076 283.056 183.496 283.288 184.044C283.52 184.592 283.626 185.246 283.606 186.006H282.706V185.694C282.69 184.854 282.508 184.22 282.16 183.792C281.816 183.364 281.312 183.15 280.648 183.15C279.952 183.15 279.418 183.376 279.046 183.828C278.678 184.28 278.494 184.924 278.494 185.76C278.494 186.576 278.678 187.21 279.046 187.662C279.418 188.11 279.944 188.334 280.624 188.334C281.088 188.334 281.492 188.228 281.836 188.016C282.184 187.8 282.458 187.49 282.658 187.086L283.48 187.404C283.224 187.968 282.846 188.406 282.346 188.718C281.85 189.026 281.288 189.18 280.66 189.18ZM278.182 186.006V185.268H283.132V186.006H278.182ZM286.674 189.18C286.186 189.18 285.776 189.092 285.444 188.916C285.116 188.74 284.87 188.506 284.706 188.214C284.542 187.922 284.46 187.604 284.46 187.26C284.46 186.908 284.53 186.608 284.67 186.36C284.814 186.108 285.008 185.902 285.252 185.742C285.5 185.582 285.786 185.46 286.11 185.376C286.438 185.296 286.8 185.226 287.196 185.166C287.596 185.102 287.986 185.048 288.366 185.004C288.75 184.956 289.086 184.91 289.374 184.866L289.062 185.058C289.074 184.418 288.95 183.944 288.69 183.636C288.43 183.328 287.978 183.174 287.334 183.174C286.89 183.174 286.514 183.274 286.206 183.474C285.902 183.674 285.688 183.99 285.564 184.422L284.706 184.17C284.854 183.59 285.152 183.14 285.6 182.82C286.048 182.5 286.63 182.34 287.346 182.34C287.938 182.34 288.44 182.452 288.852 182.676C289.268 182.896 289.562 183.216 289.734 183.636C289.814 183.824 289.866 184.034 289.89 184.266C289.914 184.498 289.926 184.734 289.926 184.974V189H289.14V187.374L289.368 187.47C289.148 188.026 288.806 188.45 288.342 188.742C287.878 189.034 287.322 189.18 286.674 189.18ZM286.776 188.418C287.188 188.418 287.548 188.344 287.856 188.196C288.164 188.048 288.412 187.846 288.6 187.59C288.788 187.33 288.91 187.038 288.966 186.714C289.014 186.506 289.04 186.278 289.044 186.03C289.048 185.778 289.05 185.59 289.05 185.466L289.386 185.64C289.086 185.68 288.76 185.72 288.408 185.76C288.06 185.8 287.716 185.846 287.376 185.898C287.04 185.95 286.736 186.012 286.464 186.084C286.28 186.136 286.102 186.21 285.93 186.306C285.758 186.398 285.616 186.522 285.504 186.678C285.396 186.834 285.342 187.028 285.342 187.26C285.342 187.448 285.388 187.63 285.48 187.806C285.576 187.982 285.728 188.128 285.936 188.244C286.148 188.36 286.428 188.418 286.776 188.418ZM294.062 192.06C293.73 192.06 293.402 192.01 293.078 191.91C292.758 191.814 292.462 191.66 292.19 191.448C291.918 191.24 291.69 190.968 291.506 190.632L292.304 190.188C292.484 190.548 292.736 190.806 293.06 190.962C293.388 191.122 293.722 191.202 294.062 191.202C294.53 191.202 294.908 191.114 295.196 190.938C295.488 190.766 295.7 190.51 295.832 190.17C295.964 189.83 296.028 189.406 296.024 188.898V187.17H296.126V182.52H296.912V188.91C296.912 189.094 296.906 189.27 296.894 189.438C296.886 189.61 296.868 189.778 296.84 189.942C296.764 190.426 296.606 190.824 296.366 191.136C296.13 191.448 295.818 191.68 295.43 191.832C295.046 191.984 294.59 192.06 294.062 192.06ZM294.002 189.18C293.398 189.18 292.882 189.03 292.454 188.73C292.026 188.426 291.698 188.016 291.47 187.5C291.242 186.984 291.128 186.402 291.128 185.754C291.128 185.11 291.24 184.53 291.464 184.014C291.692 183.498 292.018 183.09 292.442 182.79C292.866 182.49 293.374 182.34 293.966 182.34C294.574 182.34 295.086 182.488 295.502 182.784C295.918 183.08 296.232 183.486 296.444 184.002C296.66 184.514 296.768 185.098 296.768 185.754C296.768 186.398 296.662 186.98 296.45 187.5C296.238 188.016 295.926 188.426 295.514 188.73C295.102 189.03 294.598 189.18 294.002 189.18ZM294.092 188.358C294.552 188.358 294.932 188.246 295.232 188.022C295.532 187.798 295.756 187.49 295.904 187.098C296.052 186.702 296.126 186.254 296.126 185.754C296.126 185.246 296.052 184.798 295.904 184.41C295.756 184.018 295.532 183.712 295.232 183.492C294.936 183.272 294.562 183.162 294.11 183.162C293.646 183.162 293.262 183.276 292.958 183.504C292.654 183.732 292.428 184.042 292.28 184.434C292.136 184.826 292.064 185.266 292.064 185.754C292.064 186.246 292.138 186.69 292.286 187.086C292.438 187.478 292.664 187.788 292.964 188.016C293.264 188.244 293.64 188.358 294.092 188.358ZM301.068 189.162C300.68 189.162 300.34 189.102 300.048 188.982C299.76 188.862 299.514 188.7 299.31 188.496C299.11 188.292 298.948 188.06 298.824 187.8C298.7 187.536 298.61 187.258 298.554 186.966C298.498 186.67 298.47 186.376 298.47 186.084V182.52H299.358V185.826C299.358 186.182 299.392 186.512 299.46 186.816C299.528 187.12 299.636 187.386 299.784 187.614C299.936 187.838 300.13 188.012 300.366 188.136C300.606 188.26 300.896 188.322 301.236 188.322C301.548 188.322 301.822 188.268 302.058 188.16C302.298 188.052 302.498 187.898 302.658 187.698C302.822 187.494 302.946 187.248 303.03 186.96C303.114 186.668 303.156 186.34 303.156 185.976L303.78 186.114C303.78 186.778 303.664 187.336 303.432 187.788C303.2 188.24 302.88 188.582 302.472 188.814C302.064 189.046 301.596 189.162 301.068 189.162ZM303.246 189V187.404H303.156V182.52H304.038V189H303.246ZM308.457 189.18C307.825 189.18 307.277 189.04 306.813 188.76C306.353 188.48 305.995 188.086 305.739 187.578C305.483 187.07 305.355 186.474 305.355 185.79C305.355 185.082 305.481 184.47 305.733 183.954C305.985 183.438 306.339 183.04 306.795 182.76C307.255 182.48 307.797 182.34 308.421 182.34C309.061 182.34 309.607 182.488 310.059 182.784C310.511 183.076 310.853 183.496 311.085 184.044C311.317 184.592 311.423 185.246 311.403 186.006H310.503V185.694C310.487 184.854 310.305 184.22 309.957 183.792C309.613 183.364 309.109 183.15 308.445 183.15C307.749 183.15 307.215 183.376 306.843 183.828C306.475 184.28 306.291 184.924 306.291 185.76C306.291 186.576 306.475 187.21 306.843 187.662C307.215 188.11 307.741 188.334 308.421 188.334C308.885 188.334 309.289 188.228 309.633 188.016C309.981 187.8 310.255 187.49 310.455 187.086L311.277 187.404C311.021 187.968 310.643 188.406 310.143 188.718C309.647 189.026 309.085 189.18 308.457 189.18ZM305.979 186.006V185.268H310.929V186.006H305.979ZM318.665 189C318.301 189.076 317.941 189.106 317.585 189.09C317.233 189.074 316.917 188.998 316.637 188.862C316.361 188.726 316.151 188.514 316.007 188.226C315.891 187.986 315.827 187.744 315.815 187.5C315.807 187.252 315.803 186.97 315.803 186.654V180.72H316.679V186.618C316.679 186.89 316.681 187.118 316.685 187.302C316.693 187.482 316.735 187.642 316.811 187.782C316.955 188.05 317.183 188.21 317.495 188.262C317.811 188.314 318.201 188.302 318.665 188.226V189ZM314.417 183.276V182.52H318.665V183.276H314.417ZM322.413 189.18C321.769 189.18 321.219 189.034 320.763 188.742C320.307 188.45 319.957 188.046 319.713 187.53C319.469 187.014 319.347 186.422 319.347 185.754C319.347 185.074 319.471 184.478 319.719 183.966C319.967 183.454 320.319 183.056 320.775 182.772C321.235 182.484 321.781 182.34 322.413 182.34C323.061 182.34 323.613 182.486 324.069 182.778C324.529 183.066 324.879 183.468 325.119 183.984C325.363 184.496 325.485 185.086 325.485 185.754C325.485 186.434 325.363 187.032 325.119 187.548C324.875 188.06 324.523 188.46 324.063 188.748C323.603 189.036 323.053 189.18 322.413 189.18ZM322.413 188.334C323.133 188.334 323.669 188.096 324.021 187.62C324.373 187.14 324.549 186.518 324.549 185.754C324.549 184.97 324.371 184.346 324.015 183.882C323.663 183.418 323.129 183.186 322.413 183.186C321.929 183.186 321.529 183.296 321.213 183.516C320.901 183.732 320.667 184.034 320.511 184.422C320.359 184.806 320.283 185.25 320.283 185.754C320.283 186.534 320.463 187.16 320.823 187.632C321.183 188.1 321.713 188.334 322.413 188.334ZM165.346 205.18C164.694 205.18 164.142 205.034 163.69 204.742C163.238 204.45 162.894 204.048 162.658 203.536C162.426 203.02 162.306 202.428 162.298 201.76C162.306 201.08 162.43 200.484 162.67 199.972C162.91 199.456 163.256 199.056 163.708 198.772C164.16 198.484 164.708 198.34 165.352 198.34C166.008 198.34 166.578 198.5 167.062 198.82C167.55 199.14 167.884 199.578 168.064 200.134L167.2 200.41C167.048 200.022 166.806 199.722 166.474 199.51C166.146 199.294 165.77 199.186 165.346 199.186C164.87 199.186 164.476 199.296 164.164 199.516C163.852 199.732 163.62 200.034 163.468 200.422C163.316 200.81 163.238 201.256 163.234 201.76C163.242 202.536 163.422 203.16 163.774 203.632C164.126 204.1 164.65 204.334 165.346 204.334C165.786 204.334 166.16 204.234 166.468 204.034C166.78 203.83 167.016 203.534 167.176 203.146L168.064 203.41C167.824 203.986 167.472 204.426 167.008 204.73C166.544 205.03 165.99 205.18 165.346 205.18ZM171.833 205.18C171.189 205.18 170.639 205.034 170.183 204.742C169.727 204.45 169.377 204.046 169.133 203.53C168.889 203.014 168.767 202.422 168.767 201.754C168.767 201.074 168.891 200.478 169.139 199.966C169.387 199.454 169.739 199.056 170.195 198.772C170.655 198.484 171.201 198.34 171.833 198.34C172.481 198.34 173.033 198.486 173.489 198.778C173.949 199.066 174.299 199.468 174.539 199.984C174.783 200.496 174.905 201.086 174.905 201.754C174.905 202.434 174.783 203.032 174.539 203.548C174.295 204.06 173.943 204.46 173.483 204.748C173.023 205.036 172.473 205.18 171.833 205.18ZM171.833 204.334C172.553 204.334 173.089 204.096 173.441 203.62C173.793 203.14 173.969 202.518 173.969 201.754C173.969 200.97 173.791 200.346 173.435 199.882C173.083 199.418 172.549 199.186 171.833 199.186C171.349 199.186 170.949 199.296 170.633 199.516C170.321 199.732 170.087 200.034 169.931 200.422C169.779 200.806 169.703 201.25 169.703 201.754C169.703 202.534 169.883 203.16 170.243 203.632C170.603 204.1 171.133 204.334 171.833 204.334ZM183.957 205L183.963 200.746C183.963 200.246 183.823 199.854 183.543 199.57C183.267 199.282 182.915 199.138 182.487 199.138C182.243 199.138 182.005 199.194 181.773 199.306C181.541 199.418 181.349 199.598 181.197 199.846C181.049 200.094 180.975 200.418 180.975 200.818L180.453 200.668C180.441 200.204 180.531 199.798 180.723 199.45C180.919 199.102 181.187 198.832 181.527 198.64C181.871 198.444 182.259 198.346 182.691 198.346C183.343 198.346 183.865 198.548 184.257 198.952C184.649 199.352 184.845 199.894 184.845 200.578L184.839 205H183.957ZM176.223 205V198.52H177.015V200.116H177.111V205H176.223ZM180.099 205L180.105 200.806C180.105 200.29 179.967 199.884 179.691 199.588C179.419 199.288 179.059 199.138 178.611 199.138C178.163 199.138 177.801 199.292 177.525 199.6C177.249 199.904 177.111 200.31 177.111 200.818L176.583 200.53C176.583 200.114 176.681 199.742 176.877 199.414C177.073 199.082 177.341 198.822 177.681 198.634C178.021 198.442 178.407 198.346 178.839 198.346C179.251 198.346 179.617 198.434 179.937 198.61C180.261 198.786 180.515 199.042 180.699 199.378C180.883 199.714 180.975 200.122 180.975 200.602L180.969 205H180.099ZM189.311 205.18C188.715 205.18 188.211 205.03 187.799 204.73C187.387 204.426 187.075 204.016 186.863 203.5C186.651 202.98 186.545 202.398 186.545 201.754C186.545 201.098 186.651 200.514 186.863 200.002C187.079 199.486 187.395 199.08 187.811 198.784C188.227 198.488 188.739 198.34 189.347 198.34C189.939 198.34 190.447 198.49 190.871 198.79C191.295 199.09 191.619 199.498 191.843 200.014C192.071 200.53 192.185 201.11 192.185 201.754C192.185 202.402 192.071 202.984 191.843 203.5C191.615 204.016 191.287 204.426 190.859 204.73C190.431 205.03 189.915 205.18 189.311 205.18ZM186.395 207.88V198.52H187.187V203.398H187.283V207.88H186.395ZM189.221 204.358C189.673 204.358 190.049 204.244 190.349 204.016C190.649 203.788 190.873 203.478 191.021 203.086C191.173 202.69 191.249 202.246 191.249 201.754C191.249 201.266 191.175 200.826 191.027 200.434C190.879 200.042 190.653 199.732 190.349 199.504C190.049 199.276 189.667 199.162 189.203 199.162C188.751 199.162 188.375 199.272 188.075 199.492C187.779 199.712 187.557 200.018 187.409 200.41C187.261 200.798 187.187 201.246 187.187 201.754C187.187 202.254 187.261 202.702 187.409 203.098C187.557 203.49 187.781 203.798 188.081 204.022C188.381 204.246 188.761 204.358 189.221 204.358ZM193.622 205V196.18H194.504V205H193.622ZM199.045 205.18C198.413 205.18 197.865 205.04 197.401 204.76C196.941 204.48 196.583 204.086 196.327 203.578C196.071 203.07 195.943 202.474 195.943 201.79C195.943 201.082 196.069 200.47 196.321 199.954C196.573 199.438 196.927 199.04 197.383 198.76C197.843 198.48 198.385 198.34 199.009 198.34C199.649 198.34 200.195 198.488 200.647 198.784C201.099 199.076 201.441 199.496 201.673 200.044C201.905 200.592 202.011 201.246 201.991 202.006H201.091V201.694C201.075 200.854 200.893 200.22 200.545 199.792C200.201 199.364 199.697 199.15 199.033 199.15C198.337 199.15 197.803 199.376 197.431 199.828C197.063 200.28 196.879 200.924 196.879 201.76C196.879 202.576 197.063 203.21 197.431 203.662C197.803 204.11 198.329 204.334 199.009 204.334C199.473 204.334 199.877 204.228 200.221 204.016C200.569 203.8 200.843 203.49 201.043 203.086L201.865 203.404C201.609 203.968 201.231 204.406 200.731 204.718C200.235 205.026 199.673 205.18 199.045 205.18ZM196.567 202.006V201.268H201.517V202.006H196.567ZM206.85 205C206.486 205.076 206.126 205.106 205.77 205.09C205.418 205.074 205.102 204.998 204.822 204.862C204.546 204.726 204.336 204.514 204.192 204.226C204.076 203.986 204.012 203.744 204 203.5C203.992 203.252 203.988 202.97 203.988 202.654V196.72H204.864V202.618C204.864 202.89 204.866 203.118 204.87 203.302C204.878 203.482 204.92 203.642 204.996 203.782C205.14 204.05 205.368 204.21 205.68 204.262C205.996 204.314 206.386 204.302 206.85 204.226V205ZM202.602 199.276V198.52H206.85V199.276H202.602ZM210.635 205.18C210.003 205.18 209.455 205.04 208.991 204.76C208.531 204.48 208.173 204.086 207.917 203.578C207.661 203.07 207.533 202.474 207.533 201.79C207.533 201.082 207.659 200.47 207.911 199.954C208.163 199.438 208.517 199.04 208.973 198.76C209.433 198.48 209.975 198.34 210.599 198.34C211.239 198.34 211.785 198.488 212.237 198.784C212.689 199.076 213.031 199.496 213.263 200.044C213.495 200.592 213.601 201.246 213.581 202.006H212.681V201.694C212.665 200.854 212.483 200.22 212.135 199.792C211.791 199.364 211.287 199.15 210.623 199.15C209.927 199.15 209.393 199.376 209.021 199.828C208.653 200.28 208.469 200.924 208.469 201.76C208.469 202.576 208.653 203.21 209.021 203.662C209.393 204.11 209.919 204.334 210.599 204.334C211.063 204.334 211.467 204.228 211.811 204.016C212.159 203.8 212.433 203.49 212.633 203.086L213.455 203.404C213.199 203.968 212.821 204.406 212.321 204.718C211.825 205.026 211.263 205.18 210.635 205.18ZM208.157 202.006V201.268H213.107V202.006H208.157ZM220.843 205C220.479 205.076 220.119 205.106 219.763 205.09C219.411 205.074 219.095 204.998 218.815 204.862C218.539 204.726 218.329 204.514 218.185 204.226C218.069 203.986 218.005 203.744 217.993 203.5C217.985 203.252 217.981 202.97 217.981 202.654V196.72H218.857V202.618C218.857 202.89 218.859 203.118 218.863 203.302C218.871 203.482 218.913 203.642 218.989 203.782C219.133 204.05 219.361 204.21 219.673 204.262C219.989 204.314 220.379 204.302 220.843 204.226V205ZM216.595 199.276V198.52H220.843V199.276H216.595ZM226.799 205V201.694C226.799 201.334 226.765 201.004 226.697 200.704C226.629 200.4 226.519 200.136 226.367 199.912C226.219 199.684 226.025 199.508 225.785 199.384C225.549 199.26 225.261 199.198 224.921 199.198C224.609 199.198 224.333 199.252 224.093 199.36C223.857 199.468 223.657 199.624 223.493 199.828C223.333 200.028 223.211 200.272 223.127 200.56C223.043 200.848 223.001 201.176 223.001 201.544L222.377 201.406C222.377 200.742 222.493 200.184 222.725 199.732C222.957 199.28 223.277 198.938 223.685 198.706C224.093 198.474 224.561 198.358 225.089 198.358C225.477 198.358 225.815 198.418 226.103 198.538C226.395 198.658 226.641 198.82 226.841 199.024C227.045 199.228 227.209 199.462 227.333 199.726C227.457 199.986 227.547 200.264 227.603 200.56C227.659 200.852 227.687 201.144 227.687 201.436V205H226.799ZM222.113 205V196.36H222.911V201.238H223.001V205H222.113ZM231.986 205.18C231.354 205.18 230.806 205.04 230.342 204.76C229.882 204.48 229.524 204.086 229.268 203.578C229.012 203.07 228.884 202.474 228.884 201.79C228.884 201.082 229.01 200.47 229.262 199.954C229.514 199.438 229.868 199.04 230.324 198.76C230.784 198.48 231.326 198.34 231.95 198.34C232.59 198.34 233.136 198.488 233.588 198.784C234.04 199.076 234.382 199.496 234.614 200.044C234.846 200.592 234.952 201.246 234.932 202.006H234.032V201.694C234.016 200.854 233.834 200.22 233.486 199.792C233.142 199.364 232.638 199.15 231.974 199.15C231.278 199.15 230.744 199.376 230.372 199.828C230.004 200.28 229.82 200.924 229.82 201.76C229.82 202.576 230.004 203.21 230.372 203.662C230.744 204.11 231.27 204.334 231.95 204.334C232.414 204.334 232.818 204.228 233.162 204.016C233.51 203.8 233.784 203.49 233.984 203.086L234.806 203.404C234.55 203.968 234.172 204.406 233.672 204.718C233.176 205.026 232.614 205.18 231.986 205.18ZM229.508 202.006V201.268H234.458V202.006H229.508ZM241.084 205.174C240.324 205.174 239.698 205.01 239.206 204.682C238.718 204.354 238.418 203.898 238.306 203.314L239.206 203.164C239.302 203.532 239.52 203.826 239.86 204.046C240.204 204.262 240.628 204.37 241.132 204.37C241.624 204.37 242.012 204.268 242.296 204.064C242.58 203.856 242.722 203.574 242.722 203.218C242.722 203.018 242.676 202.856 242.584 202.732C242.496 202.604 242.314 202.486 242.038 202.378C241.762 202.27 241.35 202.142 240.802 201.994C240.214 201.834 239.754 201.674 239.422 201.514C239.09 201.354 238.854 201.17 238.714 200.962C238.574 200.75 238.504 200.492 238.504 200.188C238.504 199.82 238.608 199.498 238.816 199.222C239.024 198.942 239.312 198.726 239.68 198.574C240.048 198.418 240.476 198.34 240.964 198.34C241.452 198.34 241.888 198.42 242.272 198.58C242.66 198.736 242.972 198.956 243.208 199.24C243.444 199.524 243.584 199.854 243.628 200.23L242.728 200.392C242.668 200.012 242.478 199.712 242.158 199.492C241.842 199.268 241.44 199.152 240.952 199.144C240.492 199.132 240.118 199.22 239.83 199.408C239.542 199.592 239.398 199.838 239.398 200.146C239.398 200.318 239.45 200.466 239.554 200.59C239.658 200.71 239.846 200.824 240.118 200.932C240.394 201.04 240.786 201.158 241.294 201.286C241.89 201.438 242.358 201.598 242.698 201.766C243.038 201.934 243.28 202.132 243.424 202.36C243.568 202.588 243.64 202.87 243.64 203.206C243.64 203.818 243.412 204.3 242.956 204.652C242.504 205 241.88 205.174 241.084 205.174ZM247.713 205.18C247.081 205.18 246.533 205.04 246.069 204.76C245.609 204.48 245.251 204.086 244.995 203.578C244.739 203.07 244.611 202.474 244.611 201.79C244.611 201.082 244.737 200.47 244.989 199.954C245.241 199.438 245.595 199.04 246.051 198.76C246.511 198.48 247.053 198.34 247.677 198.34C248.317 198.34 248.863 198.488 249.315 198.784C249.767 199.076 250.109 199.496 250.341 200.044C250.573 200.592 250.679 201.246 250.659 202.006H249.759V201.694C249.743 200.854 249.561 200.22 249.213 199.792C248.869 199.364 248.365 199.15 247.701 199.15C247.005 199.15 246.471 199.376 246.099 199.828C245.731 200.28 245.547 200.924 245.547 201.76C245.547 202.576 245.731 203.21 246.099 203.662C246.471 204.11 246.997 204.334 247.677 204.334C248.141 204.334 248.545 204.228 248.889 204.016C249.237 203.8 249.511 203.49 249.711 203.086L250.533 203.404C250.277 203.968 249.899 204.406 249.399 204.718C248.903 205.026 248.341 205.18 247.713 205.18ZM245.235 202.006V201.268H250.185V202.006H245.235ZM255.518 205C255.154 205.076 254.794 205.106 254.438 205.09C254.086 205.074 253.77 204.998 253.49 204.862C253.214 204.726 253.004 204.514 252.86 204.226C252.744 203.986 252.68 203.744 252.668 203.5C252.66 203.252 252.656 202.97 252.656 202.654V196.72H253.532V202.618C253.532 202.89 253.534 203.118 253.538 203.302C253.546 203.482 253.588 203.642 253.664 203.782C253.808 204.05 254.036 204.21 254.348 204.262C254.664 204.314 255.054 204.302 255.518 204.226V205ZM251.27 199.276V198.52H255.518V199.276H251.27ZM259.273 205.162C258.885 205.162 258.545 205.102 258.253 204.982C257.965 204.862 257.719 204.7 257.515 204.496C257.315 204.292 257.153 204.06 257.029 203.8C256.905 203.536 256.815 203.258 256.759 202.966C256.703 202.67 256.675 202.376 256.675 202.084V198.52H257.563V201.826C257.563 202.182 257.597 202.512 257.665 202.816C257.733 203.12 257.841 203.386 257.989 203.614C258.141 203.838 258.335 204.012 258.571 204.136C258.811 204.26 259.101 204.322 259.441 204.322C259.753 204.322 260.027 204.268 260.263 204.16C260.503 204.052 260.703 203.898 260.863 203.698C261.027 203.494 261.151 203.248 261.235 202.96C261.319 202.668 261.361 202.34 261.361 201.976L261.985 202.114C261.985 202.778 261.869 203.336 261.637 203.788C261.405 204.24 261.085 204.582 260.677 204.814C260.269 205.046 259.801 205.162 259.273 205.162ZM261.451 205V203.404H261.361V198.52H262.243V205H261.451ZM266.83 205.18C266.234 205.18 265.73 205.03 265.318 204.73C264.906 204.426 264.594 204.016 264.382 203.5C264.17 202.98 264.064 202.398 264.064 201.754C264.064 201.098 264.17 200.514 264.382 200.002C264.598 199.486 264.914 199.08 265.33 198.784C265.746 198.488 266.258 198.34 266.866 198.34C267.458 198.34 267.966 198.49 268.39 198.79C268.814 199.09 269.138 199.498 269.362 200.014C269.59 200.53 269.704 201.11 269.704 201.754C269.704 202.402 269.59 202.984 269.362 203.5C269.134 204.016 268.806 204.426 268.378 204.73C267.95 205.03 267.434 205.18 266.83 205.18ZM263.914 207.88V198.52H264.706V203.398H264.802V207.88H263.914ZM266.74 204.358C267.192 204.358 267.568 204.244 267.868 204.016C268.168 203.788 268.392 203.478 268.54 203.086C268.692 202.69 268.768 202.246 268.768 201.754C268.768 201.266 268.694 200.826 268.546 200.434C268.398 200.042 268.172 199.732 267.868 199.504C267.568 199.276 267.186 199.162 266.722 199.162C266.27 199.162 265.894 199.272 265.594 199.492C265.298 199.712 265.076 200.018 264.928 200.41C264.78 200.798 264.706 201.246 264.706 201.754C264.706 202.254 264.78 202.702 264.928 203.098C265.076 203.49 265.3 203.798 265.6 204.022C265.9 204.246 266.28 204.358 266.74 204.358Z" fill="#999999"/>
<path d="M213.212 91.2789L199 91.2789L213.212 91.2789Z" fill="white"/>
<path d="M218.796 91.6125C219.009 91.5057 219.116 91.4523 219.15 91.3801C219.18 91.3172 219.18 91.2443 219.15 91.1814C219.116 91.1092 219.009 91.0558 218.796 90.9491L212.484 87.7931C212.208 87.6553 212.07 87.5864 211.985 87.6096C211.911 87.6297 211.852 87.685 211.827 87.7573C211.798 87.8408 211.857 87.983 211.976 88.2675L213.172 91.1381C213.194 91.1908 213.205 91.2171 213.209 91.2443C213.213 91.2685 213.213 91.2931 213.209 91.3172C213.205 91.3444 213.194 91.3708 213.172 91.4234L211.976 94.2941C211.857 94.5785 211.798 94.7207 211.827 94.8042C211.852 94.8766 211.911 94.9319 211.985 94.9519C212.07 94.9751 212.208 94.9062 212.484 94.7684L218.796 91.6125Z" fill="white"/>
<path d="M213.212 91.2789L199 91.2789M211.976 94.2941L213.172 91.4234C213.194 91.3708 213.205 91.3444 213.209 91.3172C213.213 91.2931 213.213 91.2685 213.209 91.2443C213.205 91.2171 213.194 91.1908 213.172 91.1381L211.976 88.2675C211.857 87.983 211.798 87.8408 211.827 87.7573C211.852 87.685 211.911 87.6297 211.985 87.6096C212.07 87.5864 212.208 87.6553 212.484 87.7931L218.796 90.9491C219.009 91.0558 219.116 91.1092 219.15 91.1814C219.18 91.2443 219.18 91.3172 219.15 91.3801C219.116 91.4523 219.009 91.5057 218.796 91.6125L212.484 94.7684C212.208 94.9062 212.07 94.9751 211.985 94.9519C211.911 94.9319 211.852 94.8766 211.827 94.8042C211.798 94.7207 211.857 94.5785 211.976 94.2941Z" stroke="white" stroke-linecap="round" stroke-linejoin="round"/>
<path d="M219.312 71.1299L233.524 71.1299L219.312 71.1299Z" fill="white"/>
<path d="M213.728 71.4635C213.514 71.3568 213.408 71.3034 213.373 71.2312C213.343 71.1683 213.343 71.0954 213.373 71.0325C213.408 70.9603 213.514 70.9069 213.728 70.8001L220.04 67.6442C220.315 67.5064 220.453 67.4375 220.538 67.4607C220.612 67.4807 220.671 67.536 220.697 67.6084C220.726 67.6919 220.666 67.8341 220.548 68.1185L219.352 70.9892C219.33 71.0418 219.319 71.0681 219.314 71.0954C219.311 71.1195 219.311 71.1441 219.314 71.1683C219.319 71.1955 219.33 71.2218 219.352 71.2745L220.548 74.1451C220.666 74.4296 220.726 74.5718 220.697 74.6553C220.671 74.7276 220.612 74.7829 220.538 74.803C220.453 74.8262 220.315 74.7573 220.04 74.6195L213.728 71.4635Z" fill="white"/>
<path d="M219.312 71.1299L233.524 71.1299M220.548 74.1451L219.352 71.2745C219.33 71.2218 219.319 71.1955 219.314 71.1683C219.311 71.1441 219.311 71.1195 219.314 71.0954C219.319 71.0681 219.33 71.0418 219.352 70.9892L220.548 68.1185C220.666 67.8341 220.726 67.6919 220.697 67.6084C220.671 67.536 220.612 67.4807 220.538 67.4607C220.453 67.4375 220.315 67.5064 220.04 67.6442L213.728 70.8001C213.514 70.9069 213.408 70.9603 213.373 71.0325C213.343 71.0954 213.343 71.1683 213.373 71.2312C213.408 71.3034 213.514 71.3568 213.728 71.4635L220.04 74.6195C220.315 74.7573 220.453 74.8262 220.538 74.803C220.612 74.7829 220.671 74.7276 220.697 74.6553C220.726 74.5718 220.666 74.4296 220.548 74.1451Z" stroke="white" stroke-linecap="round" stroke-linejoin="round"/>
<rect x="115" y="49" width="64" height="64" fill="url(#paint0_linear_868_849)" fill-opacity="0.8"/>
<rect x="114.5" y="48.5" width="65" height="65" stroke="url(#paint1_linear_868_849)" stroke-opacity="0.16"/>
<path d="M150.488 87.4168H152.25C155.773 87.4168 158.667 84.5352 158.667 81.0002C158.667 77.4768 155.785 74.5835 152.25 74.5835H150.488" stroke="white" stroke-width="1.4" stroke-linecap="round" stroke-linejoin="round"/>
<path d="M143.501 74.5835H141.751C138.216 74.5835 135.334 77.4652 135.334 81.0002C135.334 84.5235 138.216 87.4168 141.751 87.4168H143.501" stroke="white" stroke-width="1.4" stroke-linecap="round" stroke-linejoin="round"/>
<path d="M142.334 81H151.667" stroke="white" stroke-width="1.4" stroke-linecap="round" stroke-linejoin="round"/>
<rect x="253" y="49" width="64" height="64" fill="url(#paint2_linear_868_849)" fill-opacity="0.8"/>
<rect x="252.5" y="48.5" width="65" height="65" stroke="url(#paint3_linear_868_849)" stroke-opacity="0.16"/>
<path d="M298 91.9999C298 89.5616 295.588 87.4873 292.222 86.7186M289.333 92C289.333 88.9072 285.453 86.4 280.667 86.4C275.88 86.4 272 88.9072 272 92M289.333 82.2C292.524 82.2 295.111 79.6928 295.111 76.6C295.111 73.5072 292.524 71 289.333 71M280.667 82.2C277.476 82.2 274.889 79.6928 274.889 76.6C274.889 73.5072 277.476 71 280.667 71C283.858 71 286.444 73.5072 286.444 76.6C286.444 79.6928 283.858 82.2 280.667 82.2Z" stroke="white" stroke-width="1.4" stroke-linecap="round" stroke-linejoin="round"/>
<rect x="61.5" y="239.5" width="309" height="39" stroke="url(#paint4_linear_868_849)" stroke-opacity="0.16"/>
<path d="M84.7868 264V260.213C84.7868 259.854 84.7542 259.508 84.6888 259.177C84.6282 258.846 84.5185 258.549 84.3598 258.288C84.2058 258.022 83.9958 257.812 83.7298 257.658C83.4685 257.504 83.1372 257.427 82.7358 257.427C82.4232 257.427 82.1385 257.481 81.8818 257.588C81.6298 257.691 81.4128 257.849 81.2308 258.064C81.0488 258.279 80.9065 258.549 80.8038 258.876C80.7058 259.198 80.6568 259.578 80.6568 260.017L79.8378 259.765C79.8378 259.032 79.9685 258.405 80.2298 257.882C80.4958 257.355 80.8668 256.951 81.3428 256.671C81.8235 256.386 82.3882 256.244 83.0368 256.244C83.5268 256.244 83.9445 256.321 84.2898 256.475C84.6352 256.629 84.9222 256.834 85.1508 257.091C85.3795 257.343 85.5592 257.628 85.6898 257.945C85.8205 258.258 85.9115 258.577 85.9628 258.904C86.0188 259.226 86.0468 259.532 86.0468 259.821V264H84.7868ZM79.3968 264V253.92H80.5168V259.485H80.6568V264H79.3968ZM92.0877 264C91.6397 264.089 91.1964 264.124 90.7577 264.105C90.3237 264.091 89.9364 264.005 89.5957 263.846C89.2551 263.683 88.9961 263.431 88.8187 263.09C88.6694 262.791 88.5877 262.49 88.5737 262.187C88.5644 261.879 88.5597 261.531 88.5597 261.144V254.34H89.8057V261.088C89.8057 261.396 89.8081 261.66 89.8127 261.879C89.8221 262.098 89.8711 262.287 89.9597 262.446C90.1277 262.745 90.3937 262.92 90.7577 262.971C91.1264 263.022 91.5697 263.008 92.0877 262.929V264ZM87.0267 257.469V256.44H92.0877V257.469H87.0267ZM97.0087 264C96.5607 264.089 96.1174 264.124 95.6787 264.105C95.2447 264.091 94.8574 264.005 94.5167 263.846C94.1761 263.683 93.9171 263.431 93.7397 263.09C93.5904 262.791 93.5087 262.49 93.4947 262.187C93.4854 261.879 93.4807 261.531 93.4807 261.144V254.34H94.7267V261.088C94.7267 261.396 94.7291 261.66 94.7337 261.879C94.7431 262.098 94.7921 262.287 94.8807 262.446C95.0487 262.745 95.3147 262.92 95.6787 262.971C96.0474 263.022 96.4907 263.008 97.0087 262.929V264ZM91.9477 257.469V256.44H97.0087V257.469H91.9477ZM102.016 264.21C101.307 264.21 100.71 264.035 100.224 263.685C99.7391 263.33 99.3705 262.852 99.1185 262.25C98.8711 261.643 98.7475 260.964 98.7475 260.213C98.7475 259.452 98.8711 258.771 99.1185 258.169C99.3705 257.567 99.7391 257.093 100.224 256.748C100.714 256.403 101.314 256.23 102.023 256.23C102.723 256.23 103.325 256.405 103.829 256.755C104.338 257.1 104.728 257.574 104.998 258.176C105.269 258.778 105.404 259.457 105.404 260.213C105.404 260.969 105.269 261.648 104.998 262.25C104.728 262.852 104.338 263.33 103.829 263.685C103.325 264.035 102.721 264.21 102.016 264.21ZM98.5375 267.36V256.44H99.6505V262.005H99.7905V267.36H98.5375ZM101.862 263.069C102.362 263.069 102.775 262.943 103.101 262.691C103.428 262.439 103.673 262.098 103.836 261.669C104 261.235 104.081 260.75 104.081 260.213C104.081 259.681 104 259.2 103.836 258.771C103.678 258.342 103.43 258.001 103.094 257.749C102.763 257.497 102.341 257.371 101.827 257.371C101.337 257.371 100.931 257.492 100.609 257.735C100.287 257.973 100.047 258.307 99.8885 258.736C99.7298 259.161 99.6505 259.653 99.6505 260.213C99.6505 260.764 99.7275 261.256 99.8815 261.69C100.04 262.119 100.283 262.458 100.609 262.705C100.936 262.948 101.354 263.069 101.862 263.069ZM109.686 264.203C108.785 264.203 108.045 264.007 107.467 263.615C106.893 263.218 106.54 262.665 106.41 261.956L107.684 261.753C107.786 262.164 108.022 262.49 108.391 262.733C108.759 262.971 109.217 263.09 109.763 263.09C110.281 263.09 110.687 262.983 110.981 262.768C111.275 262.553 111.422 262.262 111.422 261.893C111.422 261.678 111.373 261.506 111.275 261.375C111.177 261.24 110.974 261.114 110.666 260.997C110.362 260.88 109.903 260.74 109.287 260.577C108.619 260.4 108.094 260.215 107.712 260.024C107.329 259.833 107.056 259.611 106.893 259.359C106.729 259.107 106.648 258.801 106.648 258.442C106.648 257.999 106.769 257.611 107.012 257.28C107.254 256.944 107.593 256.685 108.027 256.503C108.465 256.321 108.974 256.23 109.553 256.23C110.127 256.23 110.64 256.321 111.093 256.503C111.545 256.685 111.909 256.944 112.185 257.28C112.465 257.611 112.63 257.999 112.682 258.442L111.408 258.673C111.347 258.267 111.151 257.947 110.82 257.714C110.493 257.481 110.071 257.357 109.553 257.343C109.063 257.324 108.664 257.411 108.356 257.602C108.052 257.793 107.901 258.052 107.901 258.379C107.901 258.561 107.957 258.717 108.069 258.848C108.185 258.979 108.398 259.102 108.706 259.219C109.018 259.336 109.471 259.469 110.064 259.618C110.731 259.786 111.256 259.97 111.639 260.171C112.026 260.367 112.301 260.6 112.465 260.871C112.628 261.137 112.71 261.466 112.71 261.858C112.71 262.586 112.441 263.16 111.905 263.58C111.368 263.995 110.628 264.203 109.686 264.203ZM114.813 262.95V261.578H116.185V262.95H114.813ZM114.82 258.862V257.49H116.192V258.862H114.82ZM120.069 253.92H121.336L118.648 264H117.381L120.069 253.92ZM123.747 253.92H125.014L122.326 264H121.059L123.747 253.92Z" fill="#999999"/>
<path d="M128.557 264.21C127.992 264.21 127.518 264.107 127.136 263.902C126.758 263.692 126.471 263.417 126.275 263.076C126.083 262.735 125.988 262.362 125.988 261.956C125.988 261.559 126.062 261.216 126.212 260.927C126.366 260.633 126.58 260.39 126.856 260.199C127.131 260.003 127.46 259.849 127.843 259.737C128.202 259.639 128.603 259.555 129.047 259.485C129.495 259.41 129.947 259.343 130.405 259.282C130.862 259.221 131.289 259.163 131.686 259.107L131.238 259.366C131.252 258.694 131.116 258.197 130.832 257.875C130.552 257.553 130.066 257.392 129.376 257.392C128.918 257.392 128.517 257.497 128.172 257.707C127.831 257.912 127.591 258.248 127.451 258.715L126.268 258.358C126.45 257.695 126.802 257.175 127.325 256.797C127.847 256.419 128.536 256.23 129.39 256.23C130.076 256.23 130.664 256.354 131.154 256.601C131.648 256.844 132.003 257.212 132.218 257.707C132.325 257.94 132.393 258.195 132.421 258.47C132.449 258.741 132.463 259.025 132.463 259.324V264H131.357V262.187L131.616 262.355C131.331 262.966 130.932 263.428 130.419 263.741C129.91 264.054 129.289 264.21 128.557 264.21ZM128.746 263.167C129.194 263.167 129.581 263.088 129.908 262.929C130.239 262.766 130.505 262.553 130.706 262.292C130.906 262.026 131.037 261.737 131.098 261.424C131.168 261.191 131.205 260.932 131.21 260.647C131.219 260.358 131.224 260.136 131.224 259.982L131.658 260.171C131.252 260.227 130.853 260.281 130.461 260.332C130.069 260.383 129.698 260.439 129.348 260.5C128.998 260.556 128.683 260.624 128.403 260.703C128.197 260.768 128.004 260.852 127.822 260.955C127.644 261.058 127.5 261.191 127.388 261.354C127.28 261.513 127.227 261.711 127.227 261.949C127.227 262.154 127.278 262.35 127.381 262.537C127.488 262.724 127.651 262.875 127.871 262.992C128.095 263.109 128.386 263.167 128.746 263.167ZM137.755 264.21C137.045 264.21 136.448 264.035 135.963 263.685C135.477 263.33 135.109 262.852 134.857 262.25C134.609 261.643 134.486 260.964 134.486 260.213C134.486 259.452 134.609 258.771 134.857 258.169C135.109 257.567 135.477 257.093 135.963 256.748C136.453 256.403 137.052 256.23 137.762 256.23C138.462 256.23 139.064 256.405 139.568 256.755C140.076 257.1 140.466 257.574 140.737 258.176C141.007 258.778 141.143 259.457 141.143 260.213C141.143 260.969 141.007 261.648 140.737 262.25C140.466 262.852 140.076 263.33 139.568 263.685C139.064 264.035 138.459 264.21 137.755 264.21ZM134.276 267.36V256.44H135.389V262.005H135.529V267.36H134.276ZM137.601 263.069C138.1 263.069 138.513 262.943 138.84 262.691C139.166 262.439 139.411 262.098 139.575 261.669C139.738 261.235 139.82 260.75 139.82 260.213C139.82 259.681 139.738 259.2 139.575 258.771C139.416 258.342 139.169 258.001 138.833 257.749C138.501 257.497 138.079 257.371 137.566 257.371C137.076 257.371 136.67 257.492 136.348 257.735C136.026 257.973 135.785 258.307 135.627 258.736C135.468 259.161 135.389 259.653 135.389 260.213C135.389 260.764 135.466 261.256 135.62 261.69C135.778 262.119 136.021 262.458 136.348 262.705C136.674 262.948 137.092 263.069 137.601 263.069ZM146.149 264.21C145.44 264.21 144.843 264.035 144.357 263.685C143.872 263.33 143.503 262.852 143.251 262.25C143.004 261.643 142.88 260.964 142.88 260.213C142.88 259.452 143.004 258.771 143.251 258.169C143.503 257.567 143.872 257.093 144.357 256.748C144.847 256.403 145.447 256.23 146.156 256.23C146.856 256.23 147.458 256.405 147.962 256.755C148.471 257.1 148.861 257.574 149.131 258.176C149.402 258.778 149.537 259.457 149.537 260.213C149.537 260.969 149.402 261.648 149.131 262.25C148.861 262.852 148.471 263.33 147.962 263.685C147.458 264.035 146.854 264.21 146.149 264.21ZM142.67 267.36V256.44H143.783V262.005H143.923V267.36H142.67ZM145.995 263.069C146.495 263.069 146.908 262.943 147.234 262.691C147.561 262.439 147.806 262.098 147.969 261.669C148.133 261.235 148.214 260.75 148.214 260.213C148.214 259.681 148.133 259.2 147.969 258.771C147.811 258.342 147.563 258.001 147.227 257.749C146.896 257.497 146.474 257.371 145.96 257.371C145.47 257.371 145.064 257.492 144.742 257.735C144.42 257.973 144.18 258.307 144.021 258.736C143.863 259.161 143.783 259.653 143.783 260.213C143.783 260.764 143.86 261.256 144.014 261.69C144.173 262.119 144.416 262.458 144.742 262.705C145.069 262.948 145.487 263.069 145.995 263.069ZM151.022 264V262.628H152.394V264H151.022ZM156.182 264L153.872 256.433L155.111 256.44L156.798 261.97L158.499 256.44H159.598L161.292 261.97L162.986 256.44H164.218L161.908 264H160.872L159.045 258.253L157.218 264H156.182ZM168.247 264.196C167.748 264.196 167.283 264.105 166.854 263.923C166.425 263.736 166.054 263.475 165.741 263.139C165.433 262.798 165.207 262.395 165.062 261.928L166.259 261.585C166.413 262.052 166.67 262.406 167.029 262.649C167.388 262.892 167.792 263.011 168.24 263.006C168.651 262.997 169.005 262.903 169.304 262.726C169.607 262.544 169.841 262.297 170.004 261.984C170.172 261.671 170.256 261.31 170.256 260.899C170.256 260.274 170.069 259.767 169.696 259.38C169.323 258.988 168.833 258.792 168.226 258.792C168.058 258.792 167.881 258.815 167.694 258.862C167.512 258.909 167.342 258.974 167.183 259.058L166.581 258.071L170.319 254.69L170.48 255.11H165.461V253.92H171.404V255.117L168.219 258.169L168.205 257.728C168.872 257.681 169.456 257.791 169.955 258.057C170.454 258.323 170.842 258.703 171.117 259.198C171.397 259.693 171.537 260.26 171.537 260.899C171.537 261.543 171.392 262.112 171.103 262.607C170.814 263.102 170.422 263.491 169.927 263.776C169.432 264.056 168.872 264.196 168.247 264.196ZM176.325 264.21C175.62 264.21 175.016 264.035 174.512 263.685C174.008 263.33 173.618 262.852 173.343 262.25C173.072 261.648 172.937 260.969 172.937 260.213C172.937 259.457 173.072 258.778 173.343 258.176C173.618 257.574 174.008 257.1 174.512 256.755C175.016 256.405 175.618 256.23 176.318 256.23C177.032 256.23 177.632 256.403 178.117 256.748C178.602 257.093 178.969 257.567 179.216 258.169C179.468 258.771 179.594 259.452 179.594 260.213C179.594 260.964 179.468 261.643 179.216 262.25C178.969 262.852 178.602 263.33 178.117 263.685C177.632 264.035 177.034 264.21 176.325 264.21ZM176.479 263.069C176.988 263.069 177.405 262.948 177.732 262.705C178.059 262.458 178.299 262.119 178.453 261.69C178.612 261.256 178.691 260.764 178.691 260.213C178.691 259.653 178.612 259.161 178.453 258.736C178.299 258.307 178.061 257.973 177.739 257.735C177.417 257.492 177.009 257.371 176.514 257.371C176.001 257.371 175.576 257.497 175.24 257.749C174.909 258.001 174.661 258.342 174.498 258.771C174.339 259.2 174.26 259.681 174.26 260.213C174.26 260.75 174.342 261.235 174.505 261.669C174.668 262.098 174.913 262.439 175.24 262.691C175.571 262.943 175.984 263.069 176.479 263.069ZM178.691 264V258.435H178.551V253.92H179.804V264H178.691ZM183.914 264.21C183.349 264.21 182.876 264.107 182.493 263.902C182.115 263.692 181.828 263.417 181.632 263.076C181.441 262.735 181.345 262.362 181.345 261.956C181.345 261.559 181.42 261.216 181.569 260.927C181.723 260.633 181.938 260.39 182.213 260.199C182.488 260.003 182.817 259.849 183.2 259.737C183.559 259.639 183.961 259.555 184.404 259.485C184.852 259.41 185.305 259.343 185.762 259.282C186.219 259.221 186.646 259.163 187.043 259.107L186.595 259.366C186.609 258.694 186.474 258.197 186.189 257.875C185.909 257.553 185.424 257.392 184.733 257.392C184.276 257.392 183.874 257.497 183.529 257.707C183.188 257.912 182.948 258.248 182.808 258.715L181.625 258.358C181.807 257.695 182.159 257.175 182.682 256.797C183.205 256.419 183.893 256.23 184.747 256.23C185.433 256.23 186.021 256.354 186.511 256.601C187.006 256.844 187.36 257.212 187.575 257.707C187.682 257.94 187.75 258.195 187.778 258.47C187.806 258.741 187.82 259.025 187.82 259.324V264H186.714V262.187L186.973 262.355C186.688 262.966 186.289 263.428 185.776 263.741C185.267 264.054 184.647 264.21 183.914 264.21ZM184.103 263.167C184.551 263.167 184.938 263.088 185.265 262.929C185.596 262.766 185.862 262.553 186.063 262.292C186.264 262.026 186.394 261.737 186.455 261.424C186.525 261.191 186.562 260.932 186.567 260.647C186.576 260.358 186.581 260.136 186.581 259.982L187.015 260.171C186.609 260.227 186.21 260.281 185.818 260.332C185.426 260.383 185.055 260.439 184.705 260.5C184.355 260.556 184.04 260.624 183.76 260.703C183.555 260.768 183.361 260.852 183.179 260.955C183.002 261.058 182.857 261.191 182.745 261.354C182.638 261.513 182.584 261.711 182.584 261.949C182.584 262.154 182.635 262.35 182.738 262.537C182.845 262.724 183.009 262.875 183.228 262.992C183.452 263.109 183.744 263.167 184.103 263.167ZM189.64 264V256.44H190.753V258.267L190.571 258.029C190.66 257.796 190.774 257.581 190.914 257.385C191.059 257.189 191.22 257.028 191.397 256.902C191.593 256.743 191.815 256.622 192.062 256.538C192.309 256.454 192.561 256.405 192.818 256.391C193.075 256.372 193.315 256.389 193.539 256.44V257.609C193.278 257.539 192.991 257.52 192.678 257.553C192.365 257.586 192.076 257.7 191.81 257.896C191.567 258.069 191.378 258.279 191.243 258.526C191.112 258.773 191.021 259.042 190.97 259.331C190.919 259.616 190.893 259.907 190.893 260.206V264H189.64ZM199.084 264C198.636 264.089 198.192 264.124 197.754 264.105C197.32 264.091 196.932 264.005 196.592 263.846C196.251 263.683 195.992 263.431 195.815 263.09C195.665 262.791 195.584 262.49 195.57 262.187C195.56 261.879 195.556 261.531 195.556 261.144V254.34H196.802V261.088C196.802 261.396 196.804 261.66 196.809 261.879C196.818 262.098 196.867 262.287 196.956 262.446C197.124 262.745 197.39 262.92 197.754 262.971C198.122 263.022 198.566 263.008 199.084 262.929V264ZM194.023 257.469V256.44H199.084V257.469H194.023ZM200.843 264V262.628H202.215V264H200.843ZM207.577 264.21C206.812 264.21 206.161 264.04 205.624 263.699C205.092 263.354 204.686 262.88 204.406 262.278C204.126 261.676 203.981 260.99 203.972 260.22C203.981 259.431 204.128 258.738 204.413 258.141C204.702 257.539 205.115 257.07 205.652 256.734C206.189 256.398 206.835 256.23 207.591 256.23C208.389 256.23 209.075 256.426 209.649 256.818C210.228 257.21 210.615 257.747 210.811 258.428L209.579 258.799C209.42 258.36 209.161 258.02 208.802 257.777C208.447 257.534 208.039 257.413 207.577 257.413C207.059 257.413 206.632 257.534 206.296 257.777C205.96 258.015 205.71 258.346 205.547 258.771C205.384 259.191 205.3 259.674 205.295 260.22C205.304 261.06 205.498 261.739 205.876 262.257C206.259 262.77 206.826 263.027 207.577 263.027C208.072 263.027 208.482 262.915 208.809 262.691C209.136 262.462 209.383 262.133 209.551 261.704L210.811 262.033C210.55 262.738 210.141 263.277 209.586 263.65C209.031 264.023 208.361 264.21 207.577 264.21ZM215.255 264.21C214.503 264.21 213.855 264.04 213.309 263.699C212.767 263.358 212.35 262.887 212.056 262.285C211.762 261.683 211.615 260.992 211.615 260.213C211.615 259.42 211.764 258.724 212.063 258.127C212.361 257.53 212.784 257.065 213.33 256.734C213.876 256.398 214.517 256.23 215.255 256.23C216.011 256.23 216.662 256.4 217.208 256.741C217.754 257.077 218.171 257.546 218.461 258.148C218.755 258.745 218.902 259.434 218.902 260.213C218.902 261.002 218.755 261.697 218.461 262.299C218.167 262.896 217.747 263.365 217.201 263.706C216.655 264.042 216.006 264.21 215.255 264.21ZM215.255 263.027C216.039 263.027 216.622 262.766 217.005 262.243C217.387 261.72 217.579 261.044 217.579 260.213C217.579 259.359 217.385 258.68 216.998 258.176C216.61 257.667 216.029 257.413 215.255 257.413C214.727 257.413 214.293 257.532 213.953 257.77C213.612 258.008 213.358 258.337 213.19 258.757C213.022 259.177 212.938 259.662 212.938 260.213C212.938 261.062 213.134 261.744 213.526 262.257C213.918 262.77 214.494 263.027 215.255 263.027ZM229.48 264L229.487 259.163C229.487 258.598 229.335 258.157 229.032 257.84C228.733 257.518 228.344 257.357 227.863 257.357C227.583 257.357 227.317 257.422 227.065 257.553C226.813 257.679 226.608 257.88 226.449 258.155C226.29 258.426 226.211 258.773 226.211 259.198L225.553 258.932C225.544 258.395 225.653 257.926 225.882 257.525C226.115 257.119 226.433 256.804 226.834 256.58C227.235 256.356 227.688 256.244 228.192 256.244C228.981 256.244 229.601 256.484 230.054 256.965C230.507 257.441 230.733 258.083 230.733 258.89L230.726 264H229.48ZM220.436 264V256.44H221.549V258.463H221.689V264H220.436ZM224.965 264L224.972 259.212C224.972 258.633 224.823 258.181 224.524 257.854C224.225 257.523 223.829 257.357 223.334 257.357C222.844 257.357 222.447 257.525 222.144 257.861C221.841 258.197 221.689 258.643 221.689 259.198L221.031 258.806C221.031 258.316 221.148 257.877 221.381 257.49C221.614 257.103 221.932 256.799 222.333 256.58C222.734 256.356 223.189 256.244 223.698 256.244C224.207 256.244 224.65 256.351 225.028 256.566C225.406 256.781 225.698 257.089 225.903 257.49C226.108 257.887 226.211 258.36 226.211 258.911L226.204 264H224.965Z" fill="url(#paint5_linear_868_849)"/>
<rect width="68" height="38" transform="translate(302 240)" fill="url(#paint6_linear_868_849)"/>
<path d="M323.654 264.21C322.646 264.21 321.783 263.991 321.064 263.552C320.345 263.109 319.792 262.493 319.405 261.704C319.022 260.915 318.831 260.001 318.831 258.96C318.831 257.919 319.022 257.005 319.405 256.216C319.792 255.427 320.345 254.814 321.064 254.375C321.783 253.932 322.646 253.71 323.654 253.71C324.816 253.71 325.784 254.002 326.559 254.585C327.334 255.164 327.877 255.945 328.19 256.93L326.489 257.399C326.293 256.741 325.959 256.228 325.488 255.859C325.017 255.486 324.405 255.299 323.654 255.299C322.977 255.299 322.413 255.451 321.96 255.754C321.512 256.057 321.174 256.484 320.945 257.035C320.721 257.581 320.607 258.223 320.602 258.96C320.602 259.697 320.714 260.341 320.938 260.892C321.167 261.438 321.507 261.863 321.96 262.166C322.413 262.469 322.977 262.621 323.654 262.621C324.405 262.621 325.017 262.434 325.488 262.061C325.959 261.688 326.293 261.174 326.489 260.521L328.19 260.99C327.877 261.975 327.334 262.759 326.559 263.342C325.784 263.921 324.816 264.21 323.654 264.21ZM333.066 264.21C332.31 264.21 331.65 264.04 331.085 263.699C330.52 263.358 330.082 262.889 329.769 262.292C329.461 261.69 329.307 260.999 329.307 260.22C329.307 259.427 329.466 258.731 329.783 258.134C330.1 257.537 330.541 257.07 331.106 256.734C331.671 256.398 332.324 256.23 333.066 256.23C333.827 256.23 334.489 256.4 335.054 256.741C335.619 257.082 336.057 257.553 336.37 258.155C336.683 258.752 336.839 259.441 336.839 260.22C336.839 261.004 336.68 261.697 336.363 262.299C336.05 262.896 335.612 263.365 335.047 263.706C334.482 264.042 333.822 264.21 333.066 264.21ZM333.066 262.628C333.738 262.628 334.237 262.404 334.564 261.956C334.891 261.508 335.054 260.929 335.054 260.22C335.054 259.487 334.888 258.904 334.557 258.47C334.226 258.031 333.729 257.812 333.066 257.812C332.613 257.812 332.24 257.915 331.946 258.12C331.657 258.321 331.442 258.603 331.302 258.967C331.162 259.326 331.092 259.744 331.092 260.22C331.092 260.953 331.258 261.538 331.589 261.977C331.925 262.411 332.417 262.628 333.066 262.628ZM342.014 264.21C341.277 264.21 340.659 264.035 340.159 263.685C339.66 263.335 339.284 262.859 339.032 262.257C338.78 261.65 338.654 260.971 338.654 260.22C338.654 259.459 338.78 258.778 339.032 258.176C339.284 257.574 339.653 257.1 340.138 256.755C340.628 256.405 341.233 256.23 341.951 256.23C342.665 256.23 343.284 256.405 343.806 256.755C344.334 257.1 344.742 257.574 345.031 258.176C345.321 258.773 345.465 259.455 345.465 260.22C345.465 260.976 345.323 261.655 345.038 262.257C344.754 262.859 344.352 263.335 343.834 263.685C343.316 264.035 342.71 264.21 342.014 264.21ZM338.367 267.36V256.44H339.858V261.746H340.068V267.36H338.367ZM341.755 262.698C342.194 262.698 342.556 262.588 342.84 262.369C343.125 262.15 343.335 261.853 343.47 261.48C343.61 261.102 343.68 260.682 343.68 260.22C343.68 259.763 343.61 259.347 343.47 258.974C343.33 258.596 343.113 258.297 342.819 258.078C342.525 257.854 342.152 257.742 341.699 257.742C341.27 257.742 340.92 257.847 340.649 258.057C340.379 258.262 340.178 258.552 340.047 258.925C339.921 259.294 339.858 259.725 339.858 260.22C339.858 260.71 339.921 261.142 340.047 261.515C340.178 261.888 340.381 262.18 340.656 262.39C340.936 262.595 341.303 262.698 341.755 262.698ZM347.729 267.36L349.185 263.363L349.213 264.539L345.916 256.44H347.673L350.011 262.432H349.563L351.838 256.44H353.525L349.311 267.36H347.729Z" fill="white"/>
<defs>
<linearGradient id="paint0_linear_868_849" x1="147" y1="49" x2="147" y2="113" gradientUnits="userSpaceOnUse">
<stop stop-color="#E2E8FF" stop-opacity="0.06"/>
<stop offset="1" stop-color="#E2E8FF" stop-opacity="0.02"/>
</linearGradient>
<linearGradient id="paint1_linear_868_849" x1="147" y1="49" x2="147" y2="113" gradientUnits="userSpaceOnUse">
<stop stop-color="white"/>
<stop offset="1" stop-color="white" stop-opacity="0.33"/>
</linearGradient>
<linearGradient id="paint2_linear_868_849" x1="285" y1="49" x2="285" y2="113" gradientUnits="userSpaceOnUse">
<stop stop-color="#E2E8FF" stop-opacity="0.06"/>
<stop offset="1" stop-color="#E2E8FF" stop-opacity="0.02"/>
</linearGradient>
<linearGradient id="paint3_linear_868_849" x1="285" y1="49" x2="285" y2="113" gradientUnits="userSpaceOnUse">
<stop stop-color="white"/>
<stop offset="1" stop-color="white" stop-opacity="0.33"/>
</linearGradient>
<linearGradient id="paint4_linear_868_849" x1="62" y1="259" x2="370" y2="259" gradientUnits="userSpaceOnUse">
<stop stop-color="white"/>
<stop offset="1" stop-color="white" stop-opacity="0.33"/>
</linearGradient>
<linearGradient id="paint5_linear_868_849" x1="78" y1="259" x2="232" y2="259" gradientUnits="userSpaceOnUse">
<stop stop-color="#0052CC"/>
<stop offset="1" stop-color="#0099FF"/>
</linearGradient>
<linearGradient id="paint6_linear_868_849" x1="4.11635e-07" y1="19.0003" x2="68" y2="19.0003" gradientUnits="userSpaceOnUse">
<stop stop-color="#0052CC"/>
<stop offset="1" stop-color="#0099FF"/>
</linearGradient>
</defs>
</svg>
