<svg width="432" height="326" viewBox="0 0 432 326" fill="none" xmlns="http://www.w3.org/2000/svg">
<g clip-path="url(#clip0_868_744)">
<g style="mix-blend-mode:soft-light" opacity="0.6">
<path d="M-62 196H-17L16 163H252" stroke="white"/>
<path d="M-62 246H110L126 230H195.5" stroke="white"/>
<circle cx="195" cy="230" r="2" fill="white"/>
<g opacity="0.5">
<path d="M-62 205.5H8L35.5 178H47" stroke="white"/>
<circle cx="48" cy="178" r="2" fill="white"/>
</g>
<g opacity="0.8">
<path d="M-62 223.5H28L41.5 210H74.5" stroke="white"/>
<circle cx="74" cy="210" r="2" fill="white"/>
</g>
<g opacity="0.6">
<path d="M-62 229.5H82L115.5 196" stroke="white"/>
<circle cx="115" cy="196" r="2" fill="white"/>
</g>
<path d="M-62 209.5H13.5L37 186" stroke="white"/>
<circle cx="37" cy="186" r="2" fill="white"/>
<path d="M-62 130H-17L16 163H187" stroke="white"/>
<path d="M-62 80H110L126 96H195.5" stroke="white"/>
<circle cx="2" cy="2" r="2" transform="matrix(1 0 0 -1 193 98)" fill="white"/>
<g opacity="0.5">
<path d="M-62 120.5H8L35.5 148H47" stroke="white"/>
<circle cx="2" cy="2" r="2" transform="matrix(1 0 0 -1 46 150)" fill="white"/>
</g>
<g opacity="0.8">
<path d="M-62 102.5H28L41.5 116H74.5" stroke="white"/>
<circle cx="2" cy="2" r="2" transform="matrix(1 0 0 -1 72 118)" fill="white"/>
</g>
<g opacity="0.6">
<path d="M-62 96.5H82L115.5 130" stroke="white"/>
<circle cx="2" cy="2" r="2" transform="matrix(1 0 0 -1 113 132)" fill="white"/>
</g>
<path d="M-62 116.5H13.5L37 140" stroke="white"/>
<circle cx="2" cy="2" r="2" transform="matrix(1 0 0 -1 35 142)" fill="white"/>
<path d="M495 196H450L417 163H181" stroke="white"/>
<path d="M495 246H323L307 230H237.5" stroke="white"/>
<circle cx="2" cy="2" r="2" transform="matrix(-1 0 0 1 240 228)" fill="white"/>
<g opacity="0.5">
<path d="M495 205.5H425L397.5 178H386" stroke="white"/>
<circle cx="2" cy="2" r="2" transform="matrix(-1 0 0 1 387 176)" fill="white"/>
</g>
<g opacity="0.8">
<path d="M495 223.5H405L391.5 210H358.5" stroke="white"/>
<circle cx="2" cy="2" r="2" transform="matrix(-1 0 0 1 361 208)" fill="white"/>
</g>
<g opacity="0.6">
<path d="M495 229.5H351L317.5 196" stroke="white"/>
<circle cx="2" cy="2" r="2" transform="matrix(-1 0 0 1 320 194)" fill="white"/>
</g>
<path d="M495 209.5H419.5L396 186" stroke="white"/>
<circle cx="2" cy="2" r="2" transform="matrix(-1 0 0 1 398 184)" fill="white"/>
<path d="M495 130H450L417 163H246" stroke="white"/>
<path d="M495 80H323L307 96H237.5" stroke="white"/>
<circle cx="238" cy="96" r="2" transform="rotate(180 238 96)" fill="white"/>
<g opacity="0.5">
<path d="M495 120.5H425L397.5 148H386" stroke="white"/>
<circle cx="385" cy="148" r="2" transform="rotate(180 385 148)" fill="white"/>
</g>
<g opacity="0.8">
<path d="M495 102.5H405L391.5 116H358.5" stroke="white"/>
<circle cx="359" cy="116" r="2" transform="rotate(180 359 116)" fill="white"/>
</g>
<g opacity="0.6">
<path d="M495 96.5H351L317.5 130" stroke="white"/>
<circle cx="318" cy="130" r="2" transform="rotate(180 318 130)" fill="white"/>
</g>
<path d="M495 116.5H419.5L396 140" stroke="white"/>
<circle cx="396" cy="140" r="2" transform="rotate(180 396 140)" fill="white"/>
</g>
<rect width="64" height="64" transform="translate(115 131)" fill="url(#paint0_linear_868_744)"/>
<path d="M163.38 172.75V154.25L146.69 145L130 154.25V172.75L146.69 182L163.38 172.75ZM137.166 158.221L146.69 152.943L156.215 158.221V168.779L146.69 174.057L137.166 168.779V158.221Z" fill="url(#paint1_linear_868_744)"/>
<path d="M153.207 167.111V159.888L146.69 156.277L140.174 159.888V167.111L146.69 170.723L153.207 167.111Z" fill="url(#paint2_linear_868_744)"/>
<path d="M213.212 173.279L199 173.279L213.212 173.279Z" fill="white"/>
<path d="M218.796 173.612C219.009 173.506 219.116 173.452 219.15 173.38C219.18 173.317 219.18 173.244 219.15 173.181C219.116 173.109 219.009 173.056 218.796 172.949L212.484 169.793C212.208 169.655 212.07 169.586 211.985 169.61C211.911 169.63 211.852 169.685 211.827 169.757C211.798 169.841 211.857 169.983 211.976 170.267L213.172 173.138C213.194 173.191 213.205 173.217 213.209 173.244C213.213 173.268 213.213 173.293 213.209 173.317C213.205 173.344 213.194 173.371 213.172 173.423L211.976 176.294C211.857 176.578 211.798 176.721 211.827 176.804C211.852 176.877 211.911 176.932 211.985 176.952C212.07 176.975 212.208 176.906 212.484 176.768L218.796 173.612Z" fill="white"/>
<path d="M213.212 173.279L199 173.279M211.976 176.294L213.172 173.423C213.194 173.371 213.205 173.344 213.209 173.317C213.213 173.293 213.213 173.268 213.209 173.244C213.205 173.217 213.194 173.191 213.172 173.138L211.976 170.267C211.857 169.983 211.798 169.841 211.827 169.757C211.852 169.685 211.911 169.63 211.985 169.61C212.07 169.586 212.208 169.655 212.484 169.793L218.796 172.949C219.009 173.056 219.116 173.109 219.15 173.181C219.18 173.244 219.18 173.317 219.15 173.38C219.116 173.452 219.009 173.506 218.796 173.612L212.484 176.768C212.208 176.906 212.07 176.975 211.985 176.952C211.911 176.932 211.852 176.877 211.827 176.804C211.798 176.721 211.857 176.578 211.976 176.294Z" stroke="white" stroke-linecap="round" stroke-linejoin="round"/>
<path d="M219.312 153.13L233.524 153.13L219.312 153.13Z" fill="white"/>
<path d="M213.728 153.464C213.514 153.357 213.408 153.303 213.373 153.231C213.343 153.168 213.343 153.095 213.373 153.033C213.408 152.96 213.514 152.907 213.728 152.8L220.04 149.644C220.315 149.506 220.453 149.438 220.538 149.461C220.612 149.481 220.671 149.536 220.697 149.608C220.726 149.692 220.666 149.834 220.548 150.119L219.352 152.989C219.33 153.042 219.319 153.068 219.314 153.095C219.311 153.12 219.311 153.144 219.314 153.168C219.319 153.196 219.33 153.222 219.352 153.274L220.548 156.145C220.666 156.43 220.726 156.572 220.697 156.655C220.671 156.728 220.612 156.783 220.538 156.803C220.453 156.826 220.315 156.757 220.04 156.619L213.728 153.464Z" fill="white"/>
<path d="M219.312 153.13L233.524 153.13M220.548 156.145L219.352 153.274C219.33 153.222 219.319 153.196 219.314 153.168C219.311 153.144 219.311 153.12 219.314 153.095C219.319 153.068 219.33 153.042 219.352 152.989L220.548 150.119C220.666 149.834 220.726 149.692 220.697 149.608C220.671 149.536 220.612 149.481 220.538 149.461C220.453 149.438 220.315 149.506 220.04 149.644L213.728 152.8C213.514 152.907 213.408 152.96 213.373 153.033C213.343 153.095 213.343 153.168 213.373 153.231C213.408 153.303 213.514 153.357 213.728 153.464L220.04 156.619C220.315 156.757 220.453 156.826 220.538 156.803C220.612 156.783 220.671 156.728 220.697 156.655C220.726 156.572 220.666 156.43 220.548 156.145Z" stroke="white" stroke-linecap="round" stroke-linejoin="round"/>
<rect width="64" height="64" transform="translate(253 131)" fill="url(#paint3_linear_868_744)"/>
<g clip-path="url(#clip1_868_744)">
<path d="M275.899 175.855H271V181H275.899V175.855Z" fill="white"/>
<path d="M299 163.003C299 167.976 297.042 172.474 293.876 175.73C290.711 178.986 286.332 181 281.504 181H280.657V175.855H281.453C284.907 175.855 288.027 174.416 290.287 172.091C292.547 169.766 293.947 166.55 293.947 163.003C293.947 155.904 288.355 150.151 281.453 150.151H271V145H281.498C291.161 145 299 153.057 299 163.003Z" fill="white"/>
<path d="M281.543 155.091H271V170.909H281.543C283.668 170.909 285.587 170.024 286.981 168.59C288.374 167.157 289.234 165.183 289.234 162.997C289.234 158.631 285.793 155.091 281.543 155.091ZM282.73 165.546C282.095 166.2 281.222 166.603 280.252 166.603H276.181V159.397H280.258C282.191 159.397 283.758 161.009 283.758 162.997C283.758 163.994 283.366 164.899 282.73 165.546Z" fill="white"/>
</g>
</g>
<defs>
<linearGradient id="paint0_linear_868_744" x1="32" y1="0" x2="32" y2="64" gradientUnits="userSpaceOnUse">
<stop stop-color="#FEFEFF"/>
<stop offset="1" stop-color="#D5D6DB"/>
</linearGradient>
<linearGradient id="paint1_linear_868_744" x1="146.69" y1="145" x2="146.69" y2="182" gradientUnits="userSpaceOnUse">
<stop stop-color="#14142B"/>
<stop offset="1" stop-color="#333348"/>
</linearGradient>
<linearGradient id="paint2_linear_868_744" x1="146.69" y1="156.277" x2="146.69" y2="170.723" gradientUnits="userSpaceOnUse">
<stop stop-color="#14142B"/>
<stop offset="1" stop-color="#333348"/>
</linearGradient>
<linearGradient id="paint3_linear_868_744" x1="3.87421e-07" y1="32.0005" x2="64" y2="32.0005" gradientUnits="userSpaceOnUse">
<stop stop-color="#0052CC"/>
<stop offset="1" stop-color="#0099FF"/>
</linearGradient>
<clipPath id="clip0_868_744">
<rect width="432" height="326" fill="white"/>
</clipPath>
<clipPath id="clip1_868_744">
<rect width="28" height="36" fill="white" transform="translate(271 145)"/>
</clipPath>
</defs>
</svg>
