<svg width="32" height="32" viewBox="0 0 32 32" fill="none" xmlns="http://www.w3.org/2000/svg">
<path d="M12.8169 3.68313C12.7006 3.56687 12.5394 3.5 12.375 3.5C12.2106 3.5 12.0494 3.56681 11.9331 3.68313C11.8169 3.79938 11.75 3.96062 11.75 4.125C11.75 4.28937 11.8169 4.45062 11.9331 4.56681C12.0494 4.68313 12.2106 4.75 12.375 4.75C12.5394 4.75 12.7006 4.68313 12.8169 4.56681C12.9331 4.45062 13 4.28937 13 4.125C13 3.96062 12.9331 3.79938 12.8169 3.68313Z" fill="url(#paint0_linear_875_424)"/>
<path d="M10.0655 3.5H7.55469C7.2095 3.5 6.92969 3.77988 6.92969 4.125C6.92969 4.47013 7.2095 4.75 7.55469 4.75H10.0655C10.4107 4.75 10.6905 4.47013 10.6905 4.125C10.6905 3.77988 10.4107 3.5 10.0655 3.5Z" fill="url(#paint1_linear_875_424)"/>
<path d="M10.5668 7H7.55469C7.2095 7 6.92969 7.27987 6.92969 7.625C6.92969 7.97013 7.2095 8.25 7.55469 8.25H10.5668C10.912 8.25 11.1918 7.97013 11.1918 7.625C11.1918 7.27987 10.912 7 10.5668 7Z" fill="url(#paint2_linear_875_424)"/>
<path d="M27.4667 0.20775C27.2226 -0.0362502 26.8269 -0.0362502 26.5828 0.20775L24.058 2.7325C23.814 2.97656 23.814 3.37231 24.058 3.61644C24.1801 3.73844 24.34 3.7995 24.5 3.7995C24.6599 3.7995 24.8199 3.73844 24.9419 3.61644L27.4667 1.09169C27.7107 0.847625 27.7107 0.451875 27.4667 0.20775Z" fill="url(#paint3_linear_875_424)"/>
<path d="M22.1508 0C21.8056 0 21.5258 0.279875 21.5258 0.625V1.88044C21.5258 2.22556 21.8056 2.50544 22.1508 2.50544C22.4959 2.50544 22.7758 2.22556 22.7758 1.88044V0.625C22.7758 0.279875 22.4959 0 22.1508 0Z" fill="url(#paint4_linear_875_424)"/>
<path d="M27.043 4.84506H25.7456C25.4004 4.84506 25.1206 5.12494 25.1206 5.47006C25.1206 5.81519 25.4004 6.09506 25.7456 6.09506H27.043C27.3882 6.09506 27.668 5.81519 27.668 5.47006C27.668 5.12494 27.3882 4.84506 27.043 4.84506Z" fill="url(#paint5_linear_875_424)"/>
<path d="M31.7588 13.0074C31.7588 13.0072 31.7589 13.0071 31.759 13.0069L27.634 9.79456C27.6311 9.79231 27.6279 9.7905 27.625 9.78825V9.125C27.625 8.77987 27.3452 8.5 27 8.5C26.6548 8.5 26.375 8.77987 26.375 9.125V17.6042C26.375 17.608 26.3755 17.6117 26.3756 17.6155L21.204 22.7871L20.6052 22.2431C19.6693 21.3929 18.5289 20.8261 17.3067 20.5893L18.9294 18.9665C19.1735 18.7224 19.1735 18.3267 18.9294 18.0826L16.8301 15.9831L25.9791 12.0826C26.17 12.0012 26.3081 11.8302 26.3476 11.6264C26.387 11.4226 26.3227 11.2125 26.1759 11.0657L23.1884 8.07819C23.4413 7.6655 23.5769 7.19025 23.5769 6.694C23.5769 5.98438 23.3006 5.31731 22.7988 4.8155C22.2971 4.31375 21.6299 4.03744 20.9203 4.03744C20.4241 4.03744 19.9488 4.173 19.5361 4.42588L16.5486 1.43837C16.4018 1.2915 16.1917 1.227 15.9878 1.26675C15.7839 1.30625 15.613 1.44444 15.5316 1.63544L11.3197 11.5276L9.05269 13.7946C8.41569 14.4316 8.06481 15.2786 8.06481 16.1794C8.06481 17.0803 8.41569 17.9273 9.05269 18.5643C9.68969 19.2013 10.5367 19.5521 11.4376 19.5521C12.3384 19.5521 13.1854 19.2013 13.8224 18.5643L14.0608 18.3259L16.2016 20.4667C16.1345 20.4648 16.0672 20.4634 15.9999 20.4634C14.2933 20.4634 12.6578 21.0954 11.3946 22.2429L10.7958 22.7869L5.62425 17.6153C5.62431 17.6115 5.62481 17.6078 5.62481 17.6039V1.25H12.624C12.9692 1.25 13.249 0.970125 13.249 0.625C13.249 0.279875 12.9692 0 12.624 0H5C4.65481 0 4.375 0.279875 4.375 0.625V9.68838C4.36963 9.69244 4.36394 9.69594 4.35869 9.70019L0.233688 13.0127C0.23375 13.0128 0.23375 13.0129 0.233812 13.013C0.091375 13.1276 0 13.303 0 13.5V28.8125C0 30.5701 1.42988 32 3.1875 32H28.8125C30.5701 32 32 30.5701 32 28.8125V13.5C32 13.2996 31.9054 13.1217 31.7588 13.0074ZM27.625 11.3718L30.4328 13.5583L27.625 16.3661V11.3718ZM20.9204 5.28756C21.2961 5.28756 21.6493 5.43388 21.915 5.69956C22.1806 5.96519 22.3269 6.31838 22.3269 6.69413C22.3269 6.84913 22.3007 6.99981 22.2528 7.14262L20.4719 5.36169C20.6147 5.31375 20.7654 5.28756 20.9204 5.28756ZM16.3193 2.97681L19.0411 5.69869C19.0414 5.69894 19.0416 5.69925 19.0419 5.69956C19.0421 5.69987 19.0424 5.70006 19.0427 5.70031L21.9149 8.5725L21.915 8.57263L21.9151 8.57269L24.638 11.2956L23.3111 11.8612L15.7541 4.30419L16.3193 2.97681ZM15.2261 5.54413L22.0716 12.3896L15.8776 15.0304L12.5878 11.7406L15.2261 5.54413ZM12.9386 17.6805C12.5378 18.0814 12.0047 18.3022 11.4377 18.3022C10.8707 18.3022 10.3376 18.0814 9.93669 17.6805C9.53575 17.2796 9.31494 16.7466 9.31494 16.1796C9.31494 15.6126 9.53575 15.0795 9.93669 14.6786L11.8474 12.7679L14.8492 15.77L12.9386 17.6805ZM14.9447 17.4421L15.733 16.6539L17.6036 18.5246L16.8154 19.3127L14.9447 17.4421ZM4.375 11.2902V16.3661L1.55981 13.5509L4.375 11.2902ZM2.33319 30.4749C2.3155 30.491 2.29919 30.5081 2.28375 30.5256C1.66956 30.2003 1.25 29.5546 1.25 28.8125V15.0089L9.86969 23.6286L2.33319 30.4749ZM3.88937 30.75L5.95337 28.875H10.5411C10.8862 28.875 11.1661 28.5951 11.1661 28.25C11.1661 27.9049 10.8862 27.625 10.5411 27.625H7.32937L12.2353 23.1682C14.3816 21.2186 17.6185 21.2186 19.7647 23.1682L28.1106 30.75H3.88937ZM30.75 28.8125C30.75 29.5546 30.3304 30.2003 29.7162 30.5256C29.7008 30.508 29.6845 30.491 29.6668 30.4749L22.1304 23.6286L30.75 15.0089V28.8125Z" fill="white"/>
<path d="M13.5456 27.8081C13.4288 27.6919 13.2681 27.625 13.1038 27.625C12.9388 27.625 12.7781 27.6918 12.6613 27.8081C12.545 27.9244 12.4788 28.0856 12.4788 28.25C12.4788 28.4144 12.545 28.5756 12.6613 28.6918C12.7781 28.8081 12.9394 28.875 13.1038 28.875C13.2681 28.875 13.4288 28.8081 13.5456 28.6918C13.6619 28.5756 13.7288 28.4144 13.7288 28.25C13.7288 28.0856 13.6619 27.9244 13.5456 27.8081Z" fill="white"/>
<defs>
<linearGradient id="paint0_linear_875_424" x1="6.92969" y1="4.12507" x2="27.668" y2="4.12507" gradientUnits="userSpaceOnUse">
<stop stop-color="#0052CC"/>
<stop offset="1" stop-color="#0099FF"/>
</linearGradient>
<linearGradient id="paint1_linear_875_424" x1="6.92969" y1="4.12507" x2="27.668" y2="4.12507" gradientUnits="userSpaceOnUse">
<stop stop-color="#0052CC"/>
<stop offset="1" stop-color="#0099FF"/>
</linearGradient>
<linearGradient id="paint2_linear_875_424" x1="6.92969" y1="4.12507" x2="27.668" y2="4.12507" gradientUnits="userSpaceOnUse">
<stop stop-color="#0052CC"/>
<stop offset="1" stop-color="#0099FF"/>
</linearGradient>
<linearGradient id="paint3_linear_875_424" x1="6.92969" y1="4.12507" x2="27.668" y2="4.12507" gradientUnits="userSpaceOnUse">
<stop stop-color="#0052CC"/>
<stop offset="1" stop-color="#0099FF"/>
</linearGradient>
<linearGradient id="paint4_linear_875_424" x1="6.92969" y1="4.12507" x2="27.668" y2="4.12507" gradientUnits="userSpaceOnUse">
<stop stop-color="#0052CC"/>
<stop offset="1" stop-color="#0099FF"/>
</linearGradient>
<linearGradient id="paint5_linear_875_424" x1="6.92969" y1="4.12507" x2="27.668" y2="4.12507" gradientUnits="userSpaceOnUse">
<stop stop-color="#0052CC"/>
<stop offset="1" stop-color="#0099FF"/>
</linearGradient>
</defs>
</svg>
