<svg width="142" height="142" viewBox="0 0 142 142" fill="none" xmlns="http://www.w3.org/2000/svg">
<rect x="0.5" y="0.5" width="141" height="141" stroke="url(#paint0_linear_915_453)" stroke-opacity="0.16"/>
<rect x="10.5" y="10.5" width="121" height="121" stroke="url(#paint1_linear_915_453)" stroke-opacity="0.16"/>
<rect width="100" height="100" transform="translate(21 20)" fill="url(#paint2_linear_915_453)"/>
<g clip-path="url(#clip0_915_453)">
<path d="M57.3981 91.2446H49V99.9335H57.3981V91.2446Z" fill="white"/>
<path d="M97 69.5389C97 77.9378 93.643 85.5336 88.2167 91.0325C82.7904 96.5314 75.2839 99.9333 67.0069 99.9333H65.554V91.2444H66.9188C72.8404 91.2444 78.1896 88.8128 82.064 84.8867C85.9383 80.9605 88.3378 75.5285 88.3378 69.5389C88.3378 57.5484 78.751 47.8334 66.9188 47.8334H49V39.1333H66.9959C83.5609 39.1333 97 52.7411 97 69.5389Z" fill="white"/>
<path d="M67.0729 56.1768H49V82.8904H67.0729C70.7161 82.8904 74.0071 81.3958 76.3955 78.9754C78.784 76.555 80.2589 73.2199 80.2589 69.528C80.2589 62.1553 74.3593 56.1768 67.0729 56.1768ZM69.1091 73.8334C68.0195 74.9376 66.5226 75.618 64.8606 75.618H57.8824V63.4491H64.8716C68.1846 63.4491 70.8702 66.1707 70.8702 69.528C70.8702 71.2122 70.1988 72.7403 69.1091 73.8334Z" fill="white"/>
</g>
<defs>
<linearGradient id="paint0_linear_915_453" x1="71" y1="1" x2="71" y2="141" gradientUnits="userSpaceOnUse">
<stop stop-color="white"/>
<stop offset="1" stop-color="white" stop-opacity="0.33"/>
</linearGradient>
<linearGradient id="paint1_linear_915_453" x1="71" y1="11" x2="71" y2="131" gradientUnits="userSpaceOnUse">
<stop stop-color="white"/>
<stop offset="1" stop-color="white" stop-opacity="0.33"/>
</linearGradient>
<linearGradient id="paint2_linear_915_453" x1="6.05345e-07" y1="50.0008" x2="100" y2="50.0008" gradientUnits="userSpaceOnUse">
<stop stop-color="#0052CC"/>
<stop offset="1" stop-color="#0099FF"/>
</linearGradient>
<clipPath id="clip0_915_453">
<rect width="48" height="60.8" fill="white" transform="translate(49 39.1333)"/>
</clipPath>
</defs>
</svg>
