<svg width="1089" height="687" viewBox="0 0 1089 687" fill="none" xmlns="http://www.w3.org/2000/svg">
<mask id="mask0_914_452" style="mask-type:alpha" maskUnits="userSpaceOnUse" x="0" y="0" width="1089" height="687">
<rect x="0.642578" y="0.781494" width="1088.22" height="685.828" fill="#D9D9D9"/>
</mask>
<g mask="url(#mask0_914_452)">
<circle opacity="0.6" cx="542.254" cy="471" r="280" stroke="#475177" stroke-linecap="round" stroke-dasharray="8 6"/>
<circle opacity="0.3" cx="542.254" cy="471" r="430" stroke="#475177" stroke-linecap="round" stroke-dasharray="8 6"/>
<rect x="86.2539" y="346" width="80" height="80" rx="40" fill="url(#paint0_linear_914_452)"/>
<path d="M139.557 379.033C139.073 378.955 138.613 379.275 138.508 379.764L136.256 387.328L133.788 379.014H131.22L134.923 389.269C135.209 389.796 135.09 390.456 134.639 390.844C134.269 391.141 133.911 391.141 133.14 391.134H132.954V393H133.571C134.639 393 135.423 392.956 135.867 392.571C136.4 392.107 136.795 391.5 137.009 390.819L141.118 379.039H139.557V379.033H139.557ZM143.259 379.985C142.537 380.59 142.127 381.501 142.149 382.455C142.116 383.147 142.387 383.817 142.889 384.283C143.352 384.756 144.315 385.178 145.746 385.544C146.104 385.652 146.469 385.734 146.838 385.79C147.357 385.903 148.893 386.237 148.893 387.283C148.888 387.752 148.629 388.179 148.22 388.393C147.765 388.631 147.258 388.751 146.746 388.739C146.095 388.764 145.451 388.593 144.895 388.248C144.485 387.952 144.214 387.495 144.148 386.987H141.896C141.877 387.927 142.282 388.824 142.994 389.42C143.728 390.05 144.845 390.346 146.394 390.346C147.943 390.346 149.226 390.05 150.016 389.458C150.836 388.831 151.299 387.83 151.25 386.785C151.285 386.102 151.031 385.437 150.553 384.957C149.689 384.353 148.712 383.937 147.684 383.735L146.894 383.565C145.191 383.199 144.426 382.739 144.426 382.071C144.408 381.649 144.606 381.247 144.95 381.012C145.397 380.775 145.898 380.666 146.4 380.697C146.965 380.667 147.524 380.827 147.993 381.151H148.03L148.14 381.258C148.228 381.338 148.31 381.425 148.387 381.516C148.579 381.889 148.95 382.129 149.362 382.147H150.819C150.723 381.283 150.309 380.489 149.659 379.928C148.679 379.268 147.517 378.945 146.345 379.008C145.245 378.959 144.161 379.283 143.259 379.928M122.785 379.928C122.062 380.535 121.653 381.449 121.674 382.405C121.622 383.127 121.903 383.834 122.433 384.314C122.896 384.787 123.865 385.21 125.297 385.575C125.656 385.684 126.023 385.766 126.395 385.821C126.913 385.935 128.456 386.268 128.456 387.321C128.453 387.792 128.194 388.222 127.783 388.437C127.326 388.676 126.817 388.796 126.302 388.783C125.641 388.813 124.986 388.641 124.42 388.292C124.011 387.995 123.741 387.539 123.674 387.031H121.415C121.395 387.976 121.803 388.879 122.52 389.476C123.254 390.107 124.371 390.403 125.932 390.403C127.493 390.403 128.777 390.1 129.567 389.514C130.391 388.885 130.853 387.878 130.801 386.829C130.836 386.144 130.582 385.477 130.104 384.995C129.236 384.388 128.255 383.97 127.222 383.766L126.426 383.596C124.717 383.224 123.958 382.764 123.958 382.096C123.941 381.672 124.142 381.271 124.489 381.037C124.937 380.8 125.44 380.691 125.945 380.722C126.512 380.694 127.073 380.855 127.543 381.182H127.58L127.691 381.289C127.779 381.37 127.861 381.456 127.938 381.548C128.13 381.922 128.505 382.163 128.919 382.178H130.388C130.279 381.329 129.863 380.553 129.222 380.003C128.238 379.339 127.073 379.014 125.896 379.077C124.796 379.032 123.711 379.357 122.81 380.003M117.984 379.373C117.207 379.551 116.469 379.873 115.806 380.325C115.1 380.697 114.566 381.338 114.319 382.108C113.921 382.997 113.731 383.968 113.764 384.945V390.479H116.263V384.586C116.193 383.642 116.542 382.716 117.213 382.064C117.987 381.472 118.944 381.183 119.909 381.251H120.527V379.083C119.652 379.088 118.78 379.193 117.929 379.398M103.736 380.029C103.313 380.355 102.981 380.79 102.774 381.289C102.749 381.396 102.718 381.655 103.119 381.655H105.155C105.353 381.354 105.644 381.132 105.982 381.025C106.381 380.896 106.798 380.832 107.217 380.835C107.698 380.826 108.178 380.898 108.636 381.05C109.184 381.156 109.581 381.646 109.58 382.216C109.58 383.382 107.834 383.602 107.26 383.678L105.97 383.855C105.007 383.963 104.08 384.288 103.255 384.806C102.55 385.354 102.175 386.238 102.268 387.138C102.172 388.118 102.59 389.077 103.366 389.66C104.174 390.206 105.125 390.491 106.094 390.479C106.63 390.479 107.26 390.441 107.982 390.372C108.655 390.315 109.313 390.138 109.925 389.849C110.561 389.623 111.087 389.156 111.394 388.544C111.843 387.786 112.058 386.907 112.011 386.023V382.033C112.035 381.145 111.577 380.316 110.82 379.877C109.676 379.286 108.397 379.018 107.118 379.102C105.931 379.024 104.753 379.35 103.767 380.029M105.155 388.38C104.815 388.054 104.627 387.596 104.637 387.119C104.599 386.672 104.758 386.231 105.069 385.916C105.459 385.598 105.918 385.382 106.408 385.285L107.469 385.064C108.062 384.944 108.641 384.762 109.197 384.522L109.666 384.302V385.915C109.814 387.081 109.444 387.661 108.821 388.071C108.195 388.619 107.386 388.901 106.562 388.859C106.053 388.872 105.555 388.703 105.155 388.38Z" fill="#B3BCDD"/>
<rect x="737.254" y="285" width="96" height="96" rx="48" fill="url(#paint1_linear_914_452)"/>
<path d="M769.254 331.792V314.001L778.09 318.789V326.804L789.788 326.81L798.767 331.792H769.254ZM792.18 325.337V314L801.254 318.669V330.694L792.18 325.337ZM792.179 347.082V339.136L780.392 339.127C780.403 339.18 771.264 334.066 771.264 334.066L801.254 334.209V352L792.179 347.082ZM769.254 347.082L769.254 335.456L778.09 340.687V351.751L769.254 347.082Z" fill="#B3BCDD"/>
<rect x="796.254" y="570" width="12" height="12" rx="6" fill="url(#paint2_linear_914_452)"/>
<rect x="683.254" y="62" width="8" height="8" rx="4" fill="url(#paint3_linear_914_452)"/>
<rect x="360.754" y="70.5" width="15" height="15" rx="7.5" stroke="url(#paint4_linear_914_452)"/>
<rect x="931.754" y="294.5" width="11" height="11" rx="5.5" stroke="url(#paint5_linear_914_452)"/>
<rect x="113.254" y="530" width="8" height="8" rx="4" fill="url(#paint6_linear_914_452)"/>
<rect x="502.254" y="1" width="80" height="80" rx="40" fill="url(#paint7_linear_914_452)"/>
<path d="M556.032 25.5539C552.083 23.0745 546.884 23.6652 542.247 26.5929C537.625 23.6652 532.423 23.0745 528.478 25.5539C522.239 29.472 521.48 39.5625 526.786 48.093C530.696 54.382 536.811 58.067 542.255 57.9991C547.699 58.067 553.814 54.382 557.725 48.093C563.024 39.5625 562.272 29.472 556.032 25.5539ZM529.654 46.2917C528.56 44.5492 527.735 42.6504 527.206 40.6598C526.736 38.9318 526.556 37.1372 526.674 35.3499C526.911 32.1973 528.188 29.7422 530.269 28.4362C532.35 27.1302 535.101 27.0509 538.031 28.2193C538.47 28.3957 538.905 28.5997 539.337 28.8246C537.709 30.3162 536.293 32.0262 535.13 33.9063C531.909 39.0851 530.926 44.8481 532.051 49.4427C531.154 48.4711 530.352 47.416 529.654 46.2917ZM557.306 40.6582C556.777 42.6485 555.951 44.5472 554.858 46.2901C554.16 47.416 553.357 48.4731 552.462 49.4476C553.467 45.3288 552.784 40.2827 550.319 35.5506C550.28 35.4726 550.225 35.4039 550.157 35.3487C550.09 35.2935 550.012 35.2532 549.928 35.2303C549.844 35.2075 549.756 35.2025 549.67 35.2159C549.584 35.2292 549.502 35.2606 549.429 35.3078L541.746 40.1306C541.676 40.1745 541.615 40.2319 541.567 40.2995C541.52 40.367 541.485 40.4434 541.467 40.5243C541.448 40.6052 541.446 40.6889 541.459 40.7708C541.473 40.8526 541.503 40.9309 541.547 41.0013L542.674 42.8122C542.718 42.8826 542.775 42.9436 542.842 42.9918C542.909 43.04 542.985 43.0744 543.065 43.093C543.145 43.1117 543.229 43.1142 543.31 43.1004C543.391 43.0867 543.469 43.057 543.539 43.0129L548.519 39.8862C548.68 40.3717 548.841 40.8572 548.962 41.3427C549.431 43.0685 549.612 44.8609 549.495 46.6462C549.258 49.7971 547.981 52.2522 545.9 53.5599C544.827 54.2193 543.597 54.577 542.339 54.5956H542.18C540.922 54.5774 539.692 54.2196 538.619 53.5599C536.536 52.2522 535.259 49.7971 535.022 46.6462C534.905 44.8588 535.084 43.0644 535.554 41.3363C536.633 37.3383 538.864 33.75 541.967 31.0224C543.305 29.8422 544.829 28.8939 546.477 28.2161C549.398 27.0476 552.154 27.1253 554.236 28.433C556.319 29.7406 557.594 32.1941 557.831 35.3467C557.951 37.1342 557.773 38.9292 557.306 40.6582Z" fill="#B3BCDD"/>
<rect x="935.254" y="502" width="68" height="68" rx="34" fill="url(#paint8_linear_914_452)"/>
<g clip-path="url(#clip0_914_452)">
<path d="M960.623 535.756C960.623 536.244 960.675 536.64 960.767 536.93C960.873 537.22 961.004 537.536 961.188 537.879C961.254 537.985 961.28 538.09 961.28 538.182C961.28 538.314 961.201 538.446 961.03 538.578L960.201 539.132C960.083 539.211 959.965 539.251 959.859 539.251C959.728 539.251 959.596 539.185 959.465 539.066C959.28 538.868 959.123 538.657 958.991 538.446C958.859 538.222 958.728 537.971 958.583 537.668C957.557 538.881 956.267 539.488 954.715 539.488C953.609 539.488 952.728 539.171 952.083 538.538C951.438 537.905 951.109 537.062 951.109 536.007C951.109 534.886 951.504 533.976 952.307 533.29C953.109 532.604 954.175 532.262 955.53 532.262C955.978 532.262 956.438 532.301 956.925 532.367C957.412 532.433 957.912 532.538 958.438 532.657V531.694C958.438 530.692 958.228 529.993 957.82 529.585C957.399 529.176 956.688 528.978 955.675 528.978C955.215 528.978 954.741 529.031 954.254 529.149C953.767 529.268 953.294 529.413 952.833 529.598C952.623 529.69 952.465 529.743 952.373 529.769C952.28 529.796 952.215 529.809 952.162 529.809C951.978 529.809 951.886 529.677 951.886 529.4V528.754C951.886 528.543 951.912 528.385 951.978 528.292C952.044 528.2 952.162 528.108 952.346 528.015C952.807 527.778 953.359 527.58 954.004 527.422C954.649 527.251 955.333 527.171 956.057 527.171C957.623 527.171 958.767 527.527 959.504 528.24C960.228 528.952 960.596 530.033 960.596 531.483V535.756H960.623ZM955.28 537.76C955.715 537.76 956.162 537.681 956.636 537.523C957.109 537.365 957.53 537.075 957.886 536.679C958.096 536.429 958.254 536.152 958.333 535.835C958.412 535.519 958.465 535.136 958.465 534.688V534.134C958.083 534.042 957.675 533.963 957.254 533.91C956.833 533.857 956.425 533.831 956.017 533.831C955.136 533.831 954.491 534.002 954.057 534.358C953.623 534.714 953.412 535.215 953.412 535.875C953.412 536.494 953.57 536.956 953.899 537.272C954.215 537.602 954.675 537.76 955.28 537.76ZM965.846 539.185C965.609 539.185 965.451 539.145 965.346 539.053C965.241 538.974 965.149 538.789 965.07 538.538L961.978 528.345C961.899 528.081 961.859 527.91 961.859 527.818C961.859 527.607 961.965 527.488 962.175 527.488H963.465C963.715 527.488 963.886 527.527 963.978 527.62C964.083 527.699 964.162 527.883 964.241 528.134L966.451 536.864L968.504 528.134C968.57 527.87 968.649 527.699 968.754 527.62C968.859 527.541 969.044 527.488 969.28 527.488H970.333C970.583 527.488 970.754 527.527 970.859 527.62C970.965 527.699 971.057 527.883 971.109 528.134L973.188 536.969L975.465 528.134C975.544 527.87 975.636 527.699 975.728 527.62C975.833 527.541 976.004 527.488 976.241 527.488H977.465C977.675 527.488 977.794 527.593 977.794 527.818C977.794 527.883 977.78 527.949 977.767 528.029C977.754 528.108 977.728 528.213 977.675 528.358L974.504 538.552C974.425 538.815 974.333 538.987 974.228 539.066C974.123 539.145 973.951 539.198 973.728 539.198H972.596C972.346 539.198 972.175 539.158 972.07 539.066C971.965 538.974 971.873 538.802 971.82 538.538L969.78 530.033L967.754 538.525C967.688 538.789 967.609 538.96 967.504 539.053C967.399 539.145 967.215 539.185 966.978 539.185H965.846ZM982.754 539.541C982.07 539.541 981.386 539.462 980.728 539.303C980.07 539.145 979.557 538.974 979.215 538.776C979.004 538.657 978.859 538.525 978.807 538.407C978.754 538.288 978.728 538.156 978.728 538.037V537.365C978.728 537.088 978.833 536.956 979.03 536.956C979.109 536.956 979.188 536.969 979.267 536.996C979.346 537.022 979.465 537.075 979.596 537.127C980.044 537.325 980.53 537.483 981.044 537.589C981.57 537.694 982.083 537.747 982.609 537.747C983.438 537.747 984.083 537.602 984.53 537.312C984.978 537.022 985.215 536.6 985.215 536.059C985.215 535.69 985.096 535.387 984.859 535.136C984.623 534.886 984.175 534.662 983.53 534.451L981.623 533.857C980.662 533.554 979.951 533.105 979.517 532.512C979.083 531.932 978.859 531.286 978.859 530.6C978.859 530.046 978.978 529.558 979.215 529.136C979.451 528.714 979.767 528.345 980.162 528.055C980.557 527.752 981.004 527.527 981.53 527.369C982.057 527.211 982.609 527.145 983.188 527.145C983.478 527.145 983.78 527.158 984.07 527.198C984.373 527.237 984.649 527.29 984.925 527.343C985.188 527.409 985.438 527.475 985.675 527.554C985.912 527.633 986.096 527.712 986.228 527.791C986.412 527.897 986.544 528.002 986.623 528.121C986.701 528.226 986.741 528.371 986.741 528.556V529.176C986.741 529.453 986.636 529.598 986.438 529.598C986.333 529.598 986.162 529.545 985.938 529.44C985.188 529.097 984.346 528.925 983.412 528.925C982.662 528.925 982.07 529.044 981.662 529.294C981.254 529.545 981.044 529.927 981.044 530.468C981.044 530.837 981.175 531.154 981.438 531.404C981.701 531.655 982.188 531.905 982.886 532.13L984.754 532.723C985.701 533.026 986.386 533.448 986.794 533.989C987.201 534.53 987.399 535.149 987.399 535.835C987.399 536.402 987.28 536.916 987.057 537.365C986.82 537.813 986.504 538.209 986.096 538.525C985.688 538.855 985.201 539.092 984.636 539.264C984.044 539.448 983.425 539.541 982.754 539.541Z" fill="#B3BCDD"/>
<path fill-rule="evenodd" clip-rule="evenodd" d="M985.24 545.949C980.911 549.154 974.622 550.855 969.214 550.855C961.635 550.855 954.806 548.046 949.648 543.378C949.24 543.009 949.608 542.507 950.095 542.798C955.674 546.042 962.556 548.006 969.674 548.006C974.477 548.006 979.753 547.004 984.608 544.947C985.332 544.617 985.951 545.422 985.24 545.949Z" fill="#B3BCDD"/>
<path fill-rule="evenodd" clip-rule="evenodd" d="M987.042 543.892C986.489 543.18 983.384 543.549 981.976 543.721C981.555 543.773 981.489 543.404 981.871 543.127C984.345 541.387 988.41 541.888 988.884 542.468C989.358 543.061 988.752 547.136 986.437 549.088C986.081 549.391 985.739 549.233 985.897 548.837C986.424 547.532 987.595 544.591 987.042 543.892Z" fill="#B3BCDD"/>
</g>
<rect x="436.254" y="177" width="56" height="56" rx="28" fill="url(#paint9_linear_914_452)"/>
<g clip-path="url(#clip1_914_452)">
<path d="M470.103 212.791L470.266 212.204C470.46 211.505 470.388 210.861 470.061 210.386C469.756 209.949 469.258 209.693 468.649 209.662L457.112 209.51C457.076 209.51 457.041 209.5 457.009 209.483C456.977 209.465 456.95 209.439 456.929 209.408C456.909 209.377 456.896 209.341 456.892 209.304C456.888 209.267 456.893 209.229 456.906 209.194C456.926 209.135 456.961 209.084 457.009 209.046C457.056 209.008 457.114 208.986 457.173 208.982L468.821 208.823C470.196 208.758 471.699 207.596 472.223 206.178L472.885 204.379C472.904 204.329 472.914 204.275 472.913 204.221C472.912 204.192 472.909 204.163 472.904 204.135C472.542 202.462 471.663 200.958 470.4 199.851C469.137 198.743 467.56 198.094 465.909 198.002C464.257 197.91 462.622 198.38 461.252 199.34C459.882 200.3 458.852 201.698 458.319 203.321C457.753 202.886 457.071 202.642 456.367 202.624C455.662 202.606 454.97 202.814 454.384 203.221C453.798 203.627 453.348 204.211 453.096 204.893C452.843 205.575 452.8 206.321 452.973 207.029C452.287 207.048 451.612 207.217 450.994 207.526C450.375 207.835 449.827 208.277 449.386 208.822C448.944 209.368 448.62 210.004 448.434 210.689C448.247 211.374 448.204 212.092 448.305 212.796C448.313 212.851 448.339 212.902 448.38 212.939C448.421 212.976 448.473 212.997 448.527 212.997H469.832C469.893 212.998 469.952 212.978 470 212.941C470.049 212.904 470.085 212.851 470.103 212.791Z" fill="#B3BCDD"/>
<path d="M473.947 204.515C473.845 204.515 473.738 204.518 473.626 204.525C473.609 204.525 473.593 204.529 473.577 204.536C473.549 204.545 473.524 204.562 473.504 204.584C473.484 204.606 473.469 204.633 473.461 204.662L473.003 206.287C472.807 206.985 472.879 207.629 473.208 208.104C473.373 208.329 473.587 208.511 473.832 208.637C474.076 208.762 474.346 208.828 474.619 208.828L477.079 208.986C477.114 208.987 477.148 208.997 477.178 209.014C477.208 209.031 477.234 209.055 477.254 209.084C477.274 209.116 477.288 209.152 477.292 209.19C477.297 209.227 477.292 209.266 477.28 209.301C477.26 209.36 477.224 209.411 477.177 209.449C477.129 209.487 477.072 209.509 477.012 209.514L474.457 209.672C473.069 209.738 471.573 210.899 471.049 212.316L470.865 212.816C470.857 212.837 470.854 212.86 470.856 212.882C470.858 212.904 470.866 212.926 470.878 212.945C470.889 212.963 470.905 212.979 470.924 212.99C470.943 213.002 470.964 213.008 470.985 213.009H479.787C479.841 213.011 479.894 212.993 479.936 212.96C479.979 212.926 480.01 212.878 480.023 212.824C480.285 211.852 480.327 210.83 480.145 209.839C479.964 208.847 479.563 207.912 478.975 207.108C478.387 206.303 477.627 205.651 476.756 205.201C475.884 204.751 474.924 204.516 473.95 204.515H473.947Z" fill="#B3BCDD"/>
</g>
<rect x="126.254" y="621" width="56" height="56" rx="28" fill="url(#paint10_linear_914_452)"/>
<path d="M168.908 656.466C166.376 657.861 163.481 658.637 160.38 658.585C151.18 658.378 143.944 650.987 144.099 641.993C144.15 638.944 145.081 636.101 146.631 633.724C141.721 636.463 138.362 641.58 138.258 647.524C138.051 656.466 145.339 663.909 154.488 664.115C160.587 664.219 165.91 661.169 168.908 656.466Z" fill="#B3BCDD"/>
<path d="M155.469 633C152.988 633 150.662 633.62 148.595 634.757C147.302 636.876 146.579 639.306 146.475 641.787C146.32 649.591 152.678 656.052 160.586 656.207C162.963 656.207 165.651 655.639 167.719 654.502C168.959 652.382 169.683 649.901 169.683 647.265C169.786 639.409 163.377 633 155.469 633Z" fill="#B3BCDD"/>
<rect x="225.254" y="119" width="66" height="66" rx="33" fill="url(#paint11_linear_914_452)"/>
<path d="M258.256 168V161.795C264.824 161.795 269.922 155.282 267.4 148.369C266.475 145.829 264.425 143.779 261.867 142.854C254.954 140.35 248.441 145.43 248.441 151.998H242.254C242.254 141.529 252.378 133.365 263.354 136.794C268.144 138.3 271.972 142.11 273.46 146.899C276.889 157.876 268.725 168 258.256 168Z" fill="#B3BCDD"/>
<path fill-rule="evenodd" clip-rule="evenodd" d="M258.275 161.831H252.088V155.645H258.275V161.831Z" fill="#B3BCDD"/>
<path fill-rule="evenodd" clip-rule="evenodd" d="M252.087 166.567H247.352V161.832H252.087V166.567Z" fill="#B3BCDD"/>
<path fill-rule="evenodd" clip-rule="evenodd" d="M247.352 161.831H243.379V157.858H247.352V161.831Z" fill="#B3BCDD"/>
<rect x="229.254" y="474" width="66" height="66" rx="33" fill="url(#paint12_linear_914_452)"/>
<path d="M257.559 514.478L257.599 499.461H262.877C266.964 499.461 269.404 502.069 269.319 507.095C269.236 511.9 266.691 514.478 262.854 514.478H257.559ZM262.532 511.032C263.735 510.939 265.247 510.433 265.247 507.027C265.247 503.621 263.478 502.898 262.504 502.873C262.386 502.873 261.753 502.873 261.628 502.898V511.032H262.532Z" fill="#B3BCDD"/>
<path d="M269.351 515.259C267.129 517.19 264.231 518.159 261.295 517.956C258.358 517.752 255.622 516.391 253.688 514.173C251.753 511.954 250.778 509.058 250.977 506.121C251.175 503.184 252.531 500.446 254.746 498.507C256.961 496.569 259.855 495.589 262.793 495.782C265.73 495.975 268.471 497.326 270.413 499.538C272.356 501.75 273.341 504.642 273.153 507.579C272.965 510.517 271.619 513.26 269.411 515.207H274.807C276.807 512.147 277.621 508.463 277.097 504.846C276.572 501.229 274.745 497.928 271.958 495.563C269.172 493.198 265.617 491.932 261.963 492.003C258.309 492.073 254.806 493.476 252.113 495.947C249.42 498.417 247.722 501.787 247.337 505.421C246.953 509.056 247.909 512.706 250.025 515.685C252.142 518.665 255.274 520.769 258.832 521.603C262.391 522.436 266.131 521.942 269.351 520.212V515.259Z" fill="#B3BCDD"/>
<path d="M274.825 518.568C274.825 518.974 274.705 519.371 274.479 519.708C274.254 520.046 273.933 520.309 273.558 520.464C273.183 520.619 272.77 520.66 272.372 520.581C271.973 520.501 271.608 520.305 271.321 520.018C271.034 519.731 270.839 519.365 270.76 518.967C270.681 518.568 270.722 518.156 270.878 517.781C271.033 517.406 271.297 517.085 271.635 516.86C271.972 516.635 272.369 516.515 272.775 516.516C273.045 516.516 273.312 516.569 273.56 516.672C273.809 516.775 274.035 516.926 274.226 517.117C274.416 517.307 274.567 517.534 274.67 517.783C274.773 518.032 274.826 518.298 274.825 518.568Z" fill="#B3BCDD"/>
<rect x="767.254" y="86" width="66" height="66" rx="33" fill="url(#paint13_linear_914_452)"/>
<path d="M805.656 136.972L816.254 134.693C816.254 134.693 812.428 109.006 812.4 108.837C812.372 108.668 812.23 108.555 812.088 108.555C811.947 108.555 809.255 108.359 809.255 108.359C809.255 108.359 807.385 106.502 807.158 106.305C807.101 106.248 807.045 106.22 806.988 106.192L805.656 136.972ZM806.535 106.136C806.506 106.136 806.45 106.164 806.421 106.164C806.393 106.164 805.996 106.277 805.373 106.473C804.749 104.673 803.644 103.013 801.689 103.013C801.632 103.013 801.576 103.013 801.519 103.013C800.952 102.309 800.272 102 799.677 102C795.115 102 792.933 107.655 792.253 110.525C790.496 111.059 789.221 111.453 789.079 111.51C788.088 111.819 788.059 111.847 787.946 112.776C787.833 113.451 785.254 133.286 785.254 133.286L805.174 137L806.535 106.136ZM801.349 107.514C801.349 107.571 801.349 107.655 801.349 107.711C800.244 108.049 799.025 108.415 797.835 108.781C798.515 106.192 799.79 104.926 800.896 104.448C801.179 105.179 801.349 106.164 801.349 107.514ZM799.535 103.21C799.734 103.21 799.932 103.266 800.131 103.407C798.685 104.082 797.099 105.798 796.447 109.231C795.483 109.54 794.548 109.822 793.67 110.075C794.435 107.458 796.277 103.21 799.535 103.21ZM800.329 118.487C800.329 118.487 799.139 117.868 797.722 117.868C795.597 117.868 795.512 119.191 795.512 119.528C795.512 121.329 800.272 122.032 800.272 126.281C800.272 129.629 798.147 131.767 795.257 131.767C791.8 131.767 790.043 129.629 790.043 129.629L790.978 126.59C790.978 126.59 792.791 128.137 794.322 128.137C795.313 128.137 795.738 127.35 795.738 126.787C795.738 124.424 791.828 124.311 791.828 120.428C791.828 117.165 794.18 113.986 798.969 113.986C800.811 113.986 801.717 114.52 801.717 114.52L800.329 118.487ZM802.142 104.251C803.162 104.363 803.814 105.517 804.239 106.811C803.729 106.98 803.162 107.149 802.539 107.346C802.539 107.233 802.539 107.121 802.539 106.98C802.539 105.883 802.397 104.982 802.142 104.251Z" fill="#B3BCDD"/>
<rect x="422.754" y="351.5" width="239" height="239" rx="119.5" fill="url(#paint14_linear_914_452)"/>
<rect x="422.754" y="351.5" width="239" height="239" rx="119.5" stroke="url(#paint15_linear_914_452)"/>
<g clip-path="url(#clip2_914_452)">
<path d="M521.7 513.051H505.254V530.067H521.7V513.051Z" fill="white"/>
<path d="M599.254 470.544C599.254 486.992 592.68 501.867 582.053 512.636C571.427 523.405 556.727 530.067 540.517 530.067H537.672V513.051H540.345C551.941 513.051 562.417 508.289 570.004 500.6C577.591 492.912 582.29 482.274 582.29 470.544C582.29 447.063 563.516 428.038 540.345 428.038H505.254V411H540.496C572.936 411 599.254 437.649 599.254 470.544Z" fill="white"/>
<path d="M540.647 444.376H505.254V496.691H540.647C547.781 496.691 554.226 493.764 558.904 489.024C563.581 484.284 566.469 477.753 566.469 470.523C566.469 456.084 554.916 444.376 540.647 444.376ZM544.634 478.954C542.5 481.117 539.569 482.449 536.314 482.449H522.649V458.618H536.336C542.824 458.618 548.083 463.948 548.083 470.523C548.083 473.821 546.768 476.813 544.634 478.954Z" fill="white"/>
</g>
</g>
<defs>
<linearGradient id="paint0_linear_914_452" x1="126.254" y1="346" x2="126.254" y2="426" gradientUnits="userSpaceOnUse">
<stop stop-color="#292A2B"/>
<stop offset="1" stop-color="#121517"/>
</linearGradient>
<linearGradient id="paint1_linear_914_452" x1="785.254" y1="285" x2="785.254" y2="381" gradientUnits="userSpaceOnUse">
<stop stop-color="#292A2B"/>
<stop offset="1" stop-color="#121517"/>
</linearGradient>
<linearGradient id="paint2_linear_914_452" x1="796.254" y1="576" x2="808.254" y2="576" gradientUnits="userSpaceOnUse">
<stop stop-color="#0052CC"/>
<stop offset="1" stop-color="#0099FF"/>
</linearGradient>
<linearGradient id="paint3_linear_914_452" x1="683.254" y1="66.0001" x2="691.254" y2="66.0001" gradientUnits="userSpaceOnUse">
<stop stop-color="#0052CC"/>
<stop offset="1" stop-color="#0099FF"/>
</linearGradient>
<linearGradient id="paint4_linear_914_452" x1="361.254" y1="78.0001" x2="375.254" y2="78.0001" gradientUnits="userSpaceOnUse">
<stop stop-color="#0052CC"/>
<stop offset="1" stop-color="#0099FF"/>
</linearGradient>
<linearGradient id="paint5_linear_914_452" x1="932.254" y1="300" x2="942.254" y2="300" gradientUnits="userSpaceOnUse">
<stop stop-color="#0052CC"/>
<stop offset="1" stop-color="#0099FF"/>
</linearGradient>
<linearGradient id="paint6_linear_914_452" x1="113.254" y1="534" x2="121.254" y2="534" gradientUnits="userSpaceOnUse">
<stop stop-color="#0052CC"/>
<stop offset="1" stop-color="#0099FF"/>
</linearGradient>
<linearGradient id="paint7_linear_914_452" x1="542.254" y1="1" x2="542.254" y2="81" gradientUnits="userSpaceOnUse">
<stop stop-color="#292A2B"/>
<stop offset="1" stop-color="#121517"/>
</linearGradient>
<linearGradient id="paint8_linear_914_452" x1="969.254" y1="502" x2="969.254" y2="570" gradientUnits="userSpaceOnUse">
<stop stop-color="#292A2B"/>
<stop offset="1" stop-color="#121517"/>
</linearGradient>
<linearGradient id="paint9_linear_914_452" x1="464.254" y1="177" x2="464.254" y2="233" gradientUnits="userSpaceOnUse">
<stop stop-color="#292A2B"/>
<stop offset="1" stop-color="#121517"/>
</linearGradient>
<linearGradient id="paint10_linear_914_452" x1="154.254" y1="621" x2="154.254" y2="677" gradientUnits="userSpaceOnUse">
<stop stop-color="#292A2B"/>
<stop offset="1" stop-color="#121517"/>
</linearGradient>
<linearGradient id="paint11_linear_914_452" x1="258.254" y1="119" x2="258.254" y2="185" gradientUnits="userSpaceOnUse">
<stop stop-color="#292A2B"/>
<stop offset="1" stop-color="#121517"/>
</linearGradient>
<linearGradient id="paint12_linear_914_452" x1="262.254" y1="474" x2="262.254" y2="540" gradientUnits="userSpaceOnUse">
<stop stop-color="#292A2B"/>
<stop offset="1" stop-color="#121517"/>
</linearGradient>
<linearGradient id="paint13_linear_914_452" x1="800.254" y1="86" x2="800.254" y2="152" gradientUnits="userSpaceOnUse">
<stop stop-color="#292A2B"/>
<stop offset="1" stop-color="#121517"/>
</linearGradient>
<linearGradient id="paint14_linear_914_452" x1="422.254" y1="471.002" x2="662.254" y2="471.002" gradientUnits="userSpaceOnUse">
<stop stop-color="#0052CC"/>
<stop offset="1" stop-color="#0099FF"/>
</linearGradient>
<linearGradient id="paint15_linear_914_452" x1="542.254" y1="591" x2="542.254" y2="351" gradientUnits="userSpaceOnUse">
<stop stop-color="#E2E8FF" stop-opacity="0"/>
<stop offset="1" stop-color="#E2E8FF" stop-opacity="0.14"/>
</linearGradient>
<clipPath id="clip0_914_452">
<rect width="40" height="24" fill="white" transform="translate(949.254 527)"/>
</clipPath>
<clipPath id="clip1_914_452">
<rect width="32" height="15" fill="white" transform="translate(448.254 198)"/>
</clipPath>
<clipPath id="clip2_914_452">
<rect width="94" height="119.067" fill="white" transform="translate(505.254 411)"/>
</clipPath>
</defs>
</svg>
