<svg width="155" height="42" viewBox="0 0 155 42" fill="none" xmlns="http://www.w3.org/2000/svg">
<g clip-path="url(#clip0_868_444)">
<path d="M7.2488 34.5694H2V40H7.2488V34.5694Z" fill="url(#paint0_linear_868_444)"/>
<path d="M32 21.0035C32 26.2528 29.9019 31.0002 26.5104 34.437C23.119 37.8738 18.4274 40 13.2543 40H12.3463V34.5694H13.1993C16.9003 34.5694 20.2435 33.0497 22.665 30.5959C25.0864 28.142 26.5861 24.747 26.5861 21.0035C26.5861 13.5094 20.5944 7.43753 13.1993 7.43753H2V2H13.2474C23.6005 2 32 10.5049 32 21.0035Z" fill="white"/>
<path d="M13.2956 12.652H2V29.348H13.2956C15.5726 29.348 17.6294 28.4139 19.1222 26.9011C20.615 25.3884 21.5368 23.304 21.5368 20.9965C21.5368 16.3885 17.8496 12.652 13.2956 12.652ZM14.5682 23.6874C13.8872 24.3775 12.9516 24.8028 11.9129 24.8028H7.55148V17.1972H11.9197C13.9904 17.1972 15.6689 18.8982 15.6689 20.9965C15.6689 22.0492 15.2493 23.0042 14.5682 23.6874Z" fill="white"/>
</g>
<path d="M46.2729 30H39.8652V11.0909H46.4022C48.2795 11.0909 49.8922 11.4695 51.2402 12.2266C52.5944 12.9775 53.6346 14.0578 54.361 15.4673C55.0873 16.8769 55.4505 18.5635 55.4505 20.527C55.4505 22.4967 55.0842 24.1894 54.3517 25.6051C53.6254 27.0208 52.5759 28.1073 51.2033 28.8644C49.8368 29.6215 48.1934 30 46.2729 30ZM43.2907 27.0362H46.1067C47.4239 27.0362 48.5227 26.7962 49.4029 26.3161C50.2831 25.8298 50.9448 25.1065 51.388 24.1463C51.8311 23.1799 52.0527 21.9735 52.0527 20.527C52.0527 19.0805 51.8311 17.8802 51.388 16.9261C50.9448 15.9659 50.2892 15.2488 49.4213 14.7749C48.5596 14.2948 47.4886 14.0547 46.2083 14.0547H43.2907V27.0362Z" fill="url(#paint1_linear_868_444)"/>
<path d="M74.2441 11.0909V30H71.1973L62.2875 17.12H62.1305V30H58.7051V11.0909H61.7704L70.671 23.9801H70.8372V11.0909H74.2441Z" fill="url(#paint2_linear_868_444)"/>
<path d="M88.2528 16.2891C88.1667 15.4827 87.8035 14.8549 87.1634 14.4056C86.5294 13.9562 85.7045 13.7315 84.6889 13.7315C83.9749 13.7315 83.3625 13.8393 82.8516 14.0547C82.3407 14.2701 81.9498 14.5625 81.679 14.9318C81.4081 15.3011 81.2697 15.7228 81.2635 16.1967C81.2635 16.5907 81.3527 16.9323 81.5312 17.2216C81.7159 17.5109 81.9652 17.7571 82.2791 17.9602C82.593 18.1572 82.9408 18.3234 83.3224 18.4588C83.7041 18.5942 84.0888 18.7081 84.4766 18.8004L86.2493 19.2436C86.9633 19.4098 87.6496 19.6345 88.3082 19.9176C88.973 20.2008 89.567 20.5578 90.0902 20.9886C90.6196 21.4195 91.0381 21.9396 91.3459 22.549C91.6536 23.1584 91.8075 23.8724 91.8075 24.6911C91.8075 25.799 91.5244 26.7746 90.9581 27.6179C90.3918 28.455 89.5732 29.1106 88.5021 29.5845C87.4373 30.0523 86.1477 30.2862 84.6335 30.2862C83.1624 30.2862 81.8852 30.0585 80.8018 29.603C79.7247 29.1475 78.8814 28.4827 78.272 27.6087C77.6688 26.7346 77.3426 25.6698 77.2933 24.4141H80.6634C80.7126 25.0727 80.9157 25.6205 81.2727 26.0575C81.6297 26.4946 82.0945 26.8208 82.6669 27.0362C83.2455 27.2517 83.8918 27.3594 84.6058 27.3594C85.3506 27.3594 86.0031 27.2486 86.5632 27.027C87.1295 26.7993 87.5727 26.4853 87.8928 26.0852C88.2128 25.679 88.3759 25.205 88.3821 24.6634C88.3759 24.1709 88.2313 23.7647 87.9482 23.4446C87.665 23.1184 87.268 22.8475 86.7571 22.6321C86.2524 22.4105 85.6615 22.2136 84.9844 22.0412L82.8331 21.4872C81.2758 21.0871 80.0447 20.4808 79.1399 19.6683C78.2412 18.8497 77.7919 17.7633 77.7919 16.4091C77.7919 15.295 78.0935 14.3194 78.6967 13.4823C79.3061 12.6451 80.134 11.9958 81.1804 11.5341C82.2268 11.0663 83.4117 10.8324 84.7351 10.8324C86.0769 10.8324 87.2526 11.0663 88.2621 11.5341C89.2777 11.9958 90.0748 12.639 90.6534 13.4638C91.232 14.2824 91.5305 15.2242 91.549 16.2891H88.2528Z" fill="url(#paint3_linear_868_444)"/>
<path d="M101.269 30H94.8613V11.0909H101.398C103.276 11.0909 104.888 11.4695 106.236 12.2266C107.59 12.9775 108.631 14.0578 109.357 15.4673C110.083 16.8769 110.447 18.5635 110.447 20.527C110.447 22.4967 110.08 24.1894 109.348 25.6051C108.622 27.0208 107.572 28.1073 106.199 28.8644C104.833 29.6215 103.189 30 101.269 30ZM98.2868 27.0362H101.103C102.42 27.0362 103.519 26.7962 104.399 26.3161C105.279 25.8298 105.941 25.1065 106.384 24.1463C106.827 23.1799 107.049 21.9735 107.049 20.527C107.049 19.0805 106.827 17.8802 106.384 16.9261C105.941 15.9659 105.285 15.2488 104.417 14.7749C103.556 14.2948 102.485 14.0547 101.204 14.0547H98.2868V27.0362Z" fill="url(#paint4_linear_868_444)"/>
<path d="M115.114 30H111.458L118.115 11.0909H122.343L129.009 30H125.353L120.303 14.9688H120.155L115.114 30ZM115.234 22.5859H125.205V25.3374H115.234V22.5859Z" fill="url(#paint5_linear_868_444)"/>
<path d="M137.908 30H131.5V11.0909H138.037C139.914 11.0909 141.527 11.4695 142.875 12.2266C144.229 12.9775 145.269 14.0578 145.996 15.4673C146.722 16.8769 147.085 18.5635 147.085 20.527C147.085 22.4967 146.719 24.1894 145.987 25.6051C145.26 27.0208 144.211 28.1073 142.838 28.8644C141.472 29.6215 139.828 30 137.908 30ZM134.925 27.0362H137.741C139.059 27.0362 140.157 26.7962 141.038 26.3161C141.918 25.8298 142.58 25.1065 143.023 24.1463C143.466 23.1799 143.688 21.9735 143.688 20.527C143.688 19.0805 143.466 17.8802 143.023 16.9261C142.58 15.9659 141.924 15.2488 141.056 14.7749C140.194 14.2948 139.123 14.0547 137.843 14.0547H134.925V27.0362Z" fill="url(#paint6_linear_868_444)"/>
<defs>
<linearGradient id="paint0_linear_868_444" x1="2" y1="37.2848" x2="7.2488" y2="37.2848" gradientUnits="userSpaceOnUse">
<stop stop-color="#0052CC"/>
<stop offset="1" stop-color="#0099FF"/>
</linearGradient>
<linearGradient id="paint1_linear_868_444" x1="39.8652" y1="20.5595" x2="147.085" y2="20.5595" gradientUnits="userSpaceOnUse">
<stop stop-color="#0052CC"/>
<stop offset="1" stop-color="#0099FF"/>
</linearGradient>
<linearGradient id="paint2_linear_868_444" x1="39.8652" y1="20.5595" x2="147.085" y2="20.5595" gradientUnits="userSpaceOnUse">
<stop stop-color="#0052CC"/>
<stop offset="1" stop-color="#0099FF"/>
</linearGradient>
<linearGradient id="paint3_linear_868_444" x1="39.8652" y1="20.5595" x2="147.085" y2="20.5595" gradientUnits="userSpaceOnUse">
<stop stop-color="#0052CC"/>
<stop offset="1" stop-color="#0099FF"/>
</linearGradient>
<linearGradient id="paint4_linear_868_444" x1="39.8652" y1="20.5595" x2="147.085" y2="20.5595" gradientUnits="userSpaceOnUse">
<stop stop-color="#0052CC"/>
<stop offset="1" stop-color="#0099FF"/>
</linearGradient>
<linearGradient id="paint5_linear_868_444" x1="39.8652" y1="20.5595" x2="147.085" y2="20.5595" gradientUnits="userSpaceOnUse">
<stop stop-color="#0052CC"/>
<stop offset="1" stop-color="#0099FF"/>
</linearGradient>
<linearGradient id="paint6_linear_868_444" x1="39.8652" y1="20.5595" x2="147.085" y2="20.5595" gradientUnits="userSpaceOnUse">
<stop stop-color="#0052CC"/>
<stop offset="1" stop-color="#0099FF"/>
</linearGradient>
<clipPath id="clip0_868_444">
<rect width="30" height="38" fill="white" transform="translate(2 2)"/>
</clipPath>
</defs>
</svg>
