<svg width="32" height="32" viewBox="0 0 32 32" fill="none" xmlns="http://www.w3.org/2000/svg">
<path fill-rule="evenodd" clip-rule="evenodd" d="M20.4026 11.0972C20.5338 11.4535 20.3514 11.8488 19.9951 11.9801L15.2436 13.7308V16.328L19.9951 18.0787C20.3514 18.21 20.5338 18.6053 20.4026 18.9616C20.2713 19.318 19.8761 19.5004 19.5198 19.3692L14.3185 17.4527C14.0482 17.3531 13.8686 17.0956 13.8686 16.8075V13.2513C13.8686 12.9632 14.0482 12.7057 14.3185 12.6061L19.5198 10.6896C19.8761 10.5584 20.2713 10.7408 20.4026 11.0972Z" fill="white"/>
<path fill-rule="evenodd" clip-rule="evenodd" d="M11.8522 13.9389C11.7612 13.9389 11.6875 14.0127 11.6875 14.1035V15.9552C11.6875 16.046 11.7612 16.1198 11.8522 16.1198H14.5561C14.9358 16.1198 15.2436 16.4277 15.2436 16.8074C15.2436 17.1872 14.9358 17.4951 14.5561 17.4951H11.8522C11.002 17.4951 10.3125 16.8057 10.3125 15.9552V14.1035C10.3125 13.253 11.002 12.5636 11.8522 12.5636H14.5561C14.9358 12.5636 15.2436 12.8715 15.2436 13.2512C15.2436 13.631 14.9358 13.9389 14.5561 13.9389H11.8522Z" fill="white"/>
<path fill-rule="evenodd" clip-rule="evenodd" d="M19.7003 15.0294C19.7003 14.6496 20.0081 14.3418 20.3878 14.3418H20.9754C21.3551 14.3418 21.6629 14.6496 21.6629 15.0294C21.6629 15.4092 21.3551 15.717 20.9754 15.717H20.3878C20.0081 15.717 19.7003 15.4092 19.7003 15.0294Z" fill="white"/>
<path fill-rule="evenodd" clip-rule="evenodd" d="M20.1932 9.81152C20.5729 9.81152 20.8807 10.1194 20.8807 10.4991V19.5596C20.8807 19.9394 20.5729 20.2472 20.1932 20.2472C19.8135 20.2472 19.5057 19.9394 19.5057 19.5596V10.4991C19.5057 10.1194 19.8135 9.81152 20.1932 9.81152Z" fill="white"/>
<path fill-rule="evenodd" clip-rule="evenodd" d="M12.2926 16.5734C12.6723 16.5734 12.9801 16.8812 12.9801 17.261V19.7032C12.9801 20.0314 13.2463 20.2978 13.5748 20.2978C13.9034 20.2978 14.1696 20.0314 14.1696 19.7032V17.261C14.1696 16.8812 14.4774 16.5734 14.8571 16.5734C15.2368 16.5734 15.5446 16.8812 15.5446 17.261V19.7032C15.5446 20.7912 14.6626 21.673 13.5748 21.673C12.4872 21.673 11.6051 20.7913 11.6051 19.7032V17.261C11.6051 16.8812 11.9129 16.5734 12.2926 16.5734Z" fill="white"/>
<path fill-rule="evenodd" clip-rule="evenodd" d="M8.50913 27.3073C8.60304 27.6753 8.38092 28.0497 8.01302 28.1436L7.29825 28.3261L7.48218 29.0422C7.57665 29.41 7.35511 29.7848 6.98736 29.8793C6.61961 29.9738 6.2449 29.7522 6.15042 29.3844L5.79517 28.0013C5.74976 27.8245 5.77651 27.6368 5.86952 27.4798C5.96253 27.3227 6.11417 27.2091 6.29102 27.1639L7.67295 26.8111C8.04085 26.7172 8.41522 26.9393 8.50913 27.3073Z" fill="white"/>
<path fill-rule="evenodd" clip-rule="evenodd" d="M13.4279 4.08853C13.5266 3.81652 13.7849 3.63538 14.0742 3.63538H17.9256C18.2149 3.63538 18.4732 3.81652 18.5719 4.08853L18.8504 4.8565C19.923 5.13009 20.9351 5.55433 21.8629 6.10517L22.6039 5.7586C22.8659 5.63605 23.1766 5.69066 23.3812 5.89522L26.1045 8.61851C26.3091 8.82314 26.3637 9.13401 26.2411 9.39615L25.8946 10.137C26.4454 11.0647 26.8696 12.0768 27.1432 13.1493L27.9112 13.4278C28.1832 13.5265 28.3643 13.7849 28.3643 14.0743V17.9256C28.3643 18.215 28.1832 18.4734 27.9112 18.5721L27.1432 18.8506C26.8696 19.9231 26.4454 20.9352 25.8946 21.8629L26.2411 22.6038C26.3637 22.8659 26.3091 23.1768 26.1045 23.3814L23.3812 26.1047C23.1766 26.3093 22.8659 26.3639 22.6038 26.2413L21.8628 25.8947C20.9351 26.4455 19.9229 26.8698 18.8504 27.1434L18.5719 27.9113C18.4732 28.1833 18.2149 28.3645 17.9256 28.3645H14.0742C13.7849 28.3645 13.5266 28.1833 13.4279 27.9113L13.1494 27.1434C12.0769 26.8698 11.0647 26.4455 10.137 25.8947L9.39599 26.2413C9.13394 26.3639 8.82322 26.3093 8.61864 26.1047L5.89534 23.3814C5.69071 23.1768 5.63609 22.8659 5.7587 22.6038L6.10522 21.8629C5.55442 20.9352 5.13022 19.9231 4.85664 18.8506L4.08863 18.5721C3.81664 18.4734 3.63549 18.215 3.63549 17.9256V14.0743C3.63549 13.7849 3.81664 13.5265 4.08863 13.4278L4.85664 13.1493C5.13022 12.0768 5.55442 11.0647 6.10522 10.137L5.7587 9.39615C5.63609 9.13401 5.69071 8.82314 5.89534 8.61851L8.61864 5.89522C8.82321 5.69066 9.13392 5.63605 9.39596 5.7586L10.137 6.10517C11.0647 5.55433 12.0769 5.13009 13.1494 4.85651L13.4279 4.08853ZM14.5562 5.01062L14.3155 5.67422C14.2352 5.89581 14.0469 6.06079 13.8167 6.11137C12.6388 6.37018 11.5375 6.83423 10.5521 7.46449C10.3536 7.59146 10.104 7.60791 9.89051 7.50808L9.25004 7.20853L7.20843 9.25014L7.5079 9.89041C7.60778 10.1039 7.59132 10.3538 7.4643 10.5523C6.83405 11.5377 6.37003 12.6389 6.11122 13.8169C6.06063 14.0471 5.89566 14.2354 5.6741 14.3157L5.01049 14.5564V17.4436L5.6741 17.6842C5.89566 17.7646 6.06063 17.9528 6.11122 18.1831C6.37003 19.361 6.83405 20.4623 7.4643 21.4476C7.59132 21.6462 7.60778 21.896 7.5079 22.1095L7.20843 22.7498L9.25003 24.7914L9.89048 24.4918C10.1039 24.392 10.3536 24.4084 10.5521 24.5354C11.5375 25.1656 12.6387 25.6297 13.8167 25.8885C14.0469 25.9391 14.2352 26.104 14.3155 26.3256L14.5562 26.9892H17.4436L17.6843 26.3256C17.7647 26.1041 17.9529 25.9391 18.1831 25.8885C19.361 25.6297 20.4623 25.1656 21.4477 24.5354C21.6462 24.4084 21.8959 24.392 22.1093 24.4918L22.7498 24.7914L24.7914 22.7498L24.4919 22.1095C24.392 21.896 24.4085 21.6462 24.5355 21.4476C25.1658 20.4623 25.6298 19.361 25.8886 18.1831C25.9392 17.9528 26.1042 17.7646 26.3257 17.6842L26.9893 17.4436V14.5564L26.3257 14.3157C26.1042 14.2354 25.9392 14.0471 25.8886 13.8169C25.6298 12.6389 25.1658 11.5377 24.5355 10.5523C24.4085 10.3538 24.392 10.1039 24.4919 9.89041L24.7914 9.25014L22.7498 7.20853L22.1093 7.50808C21.8959 7.60791 21.6462 7.59146 21.4477 7.46449C20.4623 6.83422 19.3611 6.37018 18.1831 6.11137C17.9529 6.06079 17.7647 5.89582 17.6843 5.67422L17.4436 5.01062H14.5562Z" fill="white"/>
<path fill-rule="evenodd" clip-rule="evenodd" d="M15.8183 1.37559C12.6819 1.35365 9.5222 2.37279 6.89267 4.49387C6.59711 4.73227 6.16429 4.6859 5.92593 4.39029C5.68756 4.09469 5.73393 3.66179 6.02948 3.42338C8.91519 1.09567 12.3861 -0.0236922 15.8279 0.000380011C19.2893 0.0245086 22.7243 1.20506 25.5102 3.47654C25.8045 3.7165 25.8486 4.14964 25.6087 4.44399C25.3688 4.73834 24.9357 4.78243 24.6414 4.54247C22.1049 2.47432 18.975 1.39759 15.8183 1.37559Z" fill="white"/>
<path fill-rule="evenodd" clip-rule="evenodd" d="M25.0125 2.12073C25.3802 2.02624 25.755 2.24782 25.8494 2.61564L26.2047 3.99876C26.2501 4.17557 26.2234 4.36318 26.1303 4.52025C26.0373 4.67732 25.8857 4.79096 25.7088 4.83611L24.3269 5.18892C23.959 5.28284 23.5846 5.06069 23.4907 4.69273C23.3968 4.32476 23.6189 3.95033 23.9868 3.8564L24.7016 3.67392L24.5177 2.95782C24.4232 2.59 24.6447 2.21522 25.0125 2.12073Z" fill="white"/>
<path fill-rule="evenodd" clip-rule="evenodd" d="M6.39121 27.556C6.63113 27.2617 7.06419 27.2176 7.35849 27.4575C9.89498 29.5257 13.0249 30.6024 16.1816 30.6244C19.3179 30.6463 22.4777 29.6272 25.1072 27.5061C25.4028 27.2677 25.8356 27.3141 26.074 27.6097C26.3123 27.9053 26.266 28.3382 25.9704 28.5766C23.0847 30.9043 19.6138 32.0237 16.172 31.9996C12.7106 31.9755 9.27555 30.7949 6.48968 28.5235C6.19539 28.2835 6.1513 27.8504 6.39121 27.556Z" fill="white"/>
<path fill-rule="evenodd" clip-rule="evenodd" d="M27.6098 5.92602C27.9053 5.68756 28.3381 5.73386 28.5765 6.02942C30.9043 8.91514 32.0236 12.3861 31.9996 15.8279C31.9754 19.2893 30.7949 22.7244 28.5234 25.5104C28.2834 25.8047 27.8503 25.8487 27.5561 25.6087C27.2618 25.3687 27.2178 24.9355 27.4578 24.6412C29.526 22.1047 30.6026 18.9749 30.6247 15.8183C30.6465 12.6821 29.6275 9.52245 27.5064 6.89295C27.268 6.59739 27.3143 6.16448 27.6098 5.92602Z" fill="white"/>
<path fill-rule="evenodd" clip-rule="evenodd" d="M27.3073 23.4907C27.6752 23.3967 28.0496 23.6188 28.1435 23.9868L28.326 24.7015L29.0424 24.5176C29.4101 24.4231 29.7848 24.6447 29.8792 25.0125C29.9737 25.3804 29.7521 25.7551 29.3844 25.8496L28.0012 26.2048C27.8245 26.2502 27.6369 26.2235 27.4799 26.1305C27.3229 26.0374 27.2093 25.8858 27.1641 25.7089L26.8113 24.327C26.7174 23.9591 26.9394 23.5846 27.3073 23.4907Z" fill="white"/>
<path fill-rule="evenodd" clip-rule="evenodd" d="M4.44392 6.39133C4.73817 6.63134 4.78218 7.06449 4.54221 7.35879C2.47402 9.8953 1.3974 13.0251 1.37534 16.1817C1.35347 19.3179 2.37252 22.4775 4.49361 25.107C4.73203 25.4026 4.68574 25.8355 4.39023 26.074C4.09472 26.3124 3.66189 26.2661 3.42347 25.9706C1.0957 23.0849 -0.0236253 19.6139 0.00037787 16.1721C0.0245681 12.7107 1.20507 9.27557 3.47663 6.48964C3.71659 6.19534 4.14966 6.15132 4.44392 6.39133Z" fill="white"/>
<path fill-rule="evenodd" clip-rule="evenodd" d="M4.52013 5.86955C4.67715 5.96257 4.79076 6.11421 4.83591 6.29107L5.18872 7.673C5.28266 8.04096 5.06058 8.41541 4.69269 8.50937C4.3248 8.60333 3.95041 8.38121 3.85647 8.01325L3.67399 7.29847L2.95766 7.48246C2.5899 7.57691 2.21521 7.3553 2.12077 6.98748C2.02633 6.61965 2.2479 6.24489 2.61566 6.15043L3.99878 5.79518C4.17555 5.74978 4.3631 5.77654 4.52013 5.86955Z" fill="white"/>
<path fill-rule="evenodd" clip-rule="evenodd" d="M15.975 8.68628C11.9501 8.68628 8.6875 11.9491 8.6875 15.9737C8.6875 16.3535 8.37969 16.6613 8 16.6613C7.6203 16.6613 7.3125 16.3535 7.3125 15.9737C7.3125 11.1893 11.191 7.31104 15.975 7.31104C16.3547 7.31104 16.6625 7.61889 16.6625 7.99866C16.6625 8.37842 16.3547 8.68628 15.975 8.68628Z" fill="url(#paint0_linear_875_532)"/>
<path fill-rule="evenodd" clip-rule="evenodd" d="M23.9501 15.286C24.3298 15.286 24.6376 15.5939 24.6376 15.9737C24.6376 20.758 20.7592 24.6363 15.9751 24.6363C15.5954 24.6363 15.2876 24.3285 15.2876 23.9487C15.2876 23.5689 15.5954 23.2611 15.9751 23.2611C20 23.2611 23.2626 19.9983 23.2626 15.9737C23.2626 15.5939 23.5704 15.286 23.9501 15.286Z" fill="url(#paint1_linear_875_532)"/>
<defs>
<linearGradient id="paint0_linear_875_532" x1="7.3125" y1="15.9738" x2="24.6376" y2="15.9738" gradientUnits="userSpaceOnUse">
<stop stop-color="#0052CC"/>
<stop offset="1" stop-color="#0099FF"/>
</linearGradient>
<linearGradient id="paint1_linear_875_532" x1="7.3125" y1="15.9738" x2="24.6376" y2="15.9738" gradientUnits="userSpaceOnUse">
<stop stop-color="#0052CC"/>
<stop offset="1" stop-color="#0099FF"/>
</linearGradient>
</defs>
</svg>
