<svg width="32" height="32" viewBox="0 0 32 32" fill="none" xmlns="http://www.w3.org/2000/svg">
<path fill-rule="evenodd" clip-rule="evenodd" d="M4.6875 9.625C4.51488 9.625 4.375 9.76488 4.375 9.9375C4.375 10.3172 4.06719 10.625 3.6875 10.625C3.3078 10.625 3 10.3172 3 9.9375C3 9.00549 3.75549 8.25 4.6875 8.25C5.06719 8.25 5.375 8.5578 5.375 8.9375C5.375 9.31719 5.06719 9.625 4.6875 9.625ZM6.99999 8.9375C6.99999 8.5578 7.3078 8.25 7.68749 8.25H8.68749C9.06719 8.25 9.37499 8.5578 9.37499 8.9375C9.37499 9.31719 9.06719 9.625 8.68749 9.625H7.68749C7.3078 9.625 6.99999 9.31719 6.99999 8.9375ZM11 8.9375C11 8.5578 11.3078 8.25 11.6875 8.25H12.6875C13.0672 8.25 13.375 8.5578 13.375 8.9375C13.375 9.31719 13.0672 9.625 12.6875 9.625H11.6875C11.3078 9.625 11 9.31719 11 8.9375ZM15 8.9375C15 8.5578 15.3078 8.25 15.6875 8.25C16.6195 8.25 17.375 9.00549 17.375 9.9375C17.375 10.3172 17.0672 10.625 16.6875 10.625C16.3078 10.625 16 10.3172 16 9.9375C16 9.76488 15.8601 9.625 15.6875 9.625C15.3078 9.625 15 9.31719 15 8.9375ZM3.6875 12.25C4.06719 12.25 4.375 12.5578 4.375 12.9375V13.9375C4.375 14.3172 4.06719 14.625 3.6875 14.625C3.3078 14.625 3 14.3172 3 13.9375V12.9375C3 12.5578 3.3078 12.25 3.6875 12.25ZM3.6875 16.25C4.06719 16.25 4.375 16.5578 4.375 16.9375V17.9375C4.375 18.3172 4.06719 18.625 3.6875 18.625C3.3078 18.625 3 18.3172 3 17.9375V16.9375C3 16.5578 3.3078 16.25 3.6875 16.25ZM3.6875 20.25C4.06719 20.25 4.375 20.5578 4.375 20.9375C4.375 21.1101 4.51488 21.25 4.6875 21.25C5.06719 21.25 5.375 21.5578 5.375 21.9375C5.375 22.3172 5.06719 22.625 4.6875 22.625C3.75549 22.625 3 21.8695 3 20.9375C3 20.5578 3.3078 20.25 3.6875 20.25ZM6.99999 21.9375C6.99999 21.5578 7.3078 21.25 7.68749 21.25H8.68749C9.06719 21.25 9.37499 21.5578 9.37499 21.9375C9.37499 22.3172 9.06719 22.625 8.68749 22.625H7.68749C7.3078 22.625 6.99999 22.3172 6.99999 21.9375Z" fill="url(#paint0_linear_875_376)"/>
<path fill-rule="evenodd" clip-rule="evenodd" d="M0 0.687499C0 0.307804 0.307804 0 0.687499 0H31.3124C31.6921 0 31.9999 0.307804 31.9999 0.687499V24.6875C31.9999 25.0672 31.6921 25.375 31.3124 25.375H28.5235V24H30.6249V6.87499H1.375V24H11V21.3983C10.9999 21.3942 10.9999 21.3901 11 21.386V13.9375C11 13.0055 11.7555 12.25 12.6875 12.25H23.6875C24.6195 12.25 25.375 13.0055 25.375 13.9375V19.4856C25.375 19.4888 25.375 19.492 25.375 19.4952V23.9578H24V19.7401L23.2027 18.7854C22.2424 17.6354 20.4753 17.6354 19.5149 18.7854L17.2834 21.4575C17.1522 21.6145 16.9579 21.705 16.7532 21.7043C16.5485 21.7035 16.3548 21.6116 16.2248 21.4536C15.2553 20.2751 13.4398 20.287 12.4881 21.4891L12.375 21.6319V24.9375C12.375 25.1101 12.5149 25.25 12.6875 25.25H22.1974V26.625H12.6875C11.9068 26.625 11.2499 26.0949 11.0572 25.375H0.687499C0.307804 25.375 0 25.0672 0 24.6875V0.687499ZM12.375 19.7711C13.7056 18.9421 15.4506 19.0215 16.7028 20.0076L18.4595 17.904C19.8871 16.1945 22.4486 16.1013 24 17.6242V13.9375C24 13.7649 23.8601 13.625 23.6875 13.625H12.6875C12.5149 13.625 12.375 13.7649 12.375 13.9375V19.7711ZM1.375 5.49999H30.6249V1.375H1.375V5.49999ZM12.7018 3.43749C12.7018 3.0578 13.0096 2.75 13.3893 2.75H28.2468C28.6265 2.75 28.9343 3.0578 28.9343 3.43749C28.9343 3.81719 28.6265 4.12499 28.2468 4.12499H13.3893C13.0096 4.12499 12.7018 3.81719 12.7018 3.43749Z" fill="white"/>
<path fill-rule="evenodd" clip-rule="evenodd" d="M21.3705 23.0674C21.5281 22.91 21.7521 22.8386 21.9717 22.876L28.6387 24.0098C28.8924 24.0529 29.1007 24.2341 29.1787 24.4794C29.2566 24.7246 29.191 24.9928 29.0087 25.1745L27.9164 26.2632L30.1014 28.4482C30.3699 28.7167 30.3699 29.152 30.1014 29.4205L27.7231 31.7987C27.4547 32.0672 27.0194 32.0672 26.7509 31.7987L24.565 29.6129L23.471 30.7069C23.2892 30.8888 23.021 30.9539 22.7759 30.8757C22.5309 30.7976 22.35 30.5891 22.307 30.3355L21.1786 23.6684C21.1414 23.4488 21.2129 23.2248 21.3705 23.0674ZM22.6959 24.3939L23.4405 28.7929L24.0789 28.1545C24.2078 28.0255 24.3827 27.9531 24.565 27.9531C24.7473 27.9531 24.9222 28.0255 25.0511 28.1544L27.237 30.3403L28.643 28.9343L26.4571 26.7485C26.328 26.6194 26.2556 26.4443 26.2558 26.2618C26.2559 26.0792 26.3287 25.9042 26.4579 25.7754L27.0937 25.1418L22.6959 24.3939Z" fill="url(#paint1_linear_875_376)"/>
<path d="M4.4414 3.4375C4.4414 3.81719 4.1336 4.125 3.75391 4.125C3.37421 4.125 3.06641 3.81719 3.06641 3.4375C3.06641 3.0578 3.37421 2.75 3.75391 2.75C4.1336 2.75 4.4414 3.0578 4.4414 3.4375Z" fill="white"/>
<path d="M7.1914 3.4375C7.1914 3.81719 6.8836 4.125 6.5039 4.125C6.12421 4.125 5.8164 3.81719 5.8164 3.4375C5.8164 3.0578 6.12421 2.75 6.5039 2.75C6.8836 2.75 7.1914 3.0578 7.1914 3.4375Z" fill="white"/>
<path d="M9.94139 3.4375C9.94139 3.81719 9.63359 4.125 9.2539 4.125C8.8742 4.125 8.5664 3.81719 8.5664 3.4375C8.5664 3.0578 8.8742 2.75 9.2539 2.75C9.63359 2.75 9.94139 3.0578 9.94139 3.4375Z" fill="white"/>
<defs>
<linearGradient id="paint0_linear_875_376" x1="3" y1="15.4376" x2="17.375" y2="15.4376" gradientUnits="userSpaceOnUse">
<stop stop-color="#0052CC"/>
<stop offset="1" stop-color="#0099FF"/>
</linearGradient>
<linearGradient id="paint1_linear_875_376" x1="21.1689" y1="27.4332" x2="30.3028" y2="27.4332" gradientUnits="userSpaceOnUse">
<stop stop-color="#0052CC"/>
<stop offset="1" stop-color="#0099FF"/>
</linearGradient>
</defs>
</svg>
