<svg width="992" height="432" viewBox="0 0 992 432" fill="none" xmlns="http://www.w3.org/2000/svg">
<g opacity="0.1">
<rect x="286" y="7" width="420" height="420" rx="210" fill="url(#paint0_linear_878_576)" fill-opacity="0.16"/>
</g>
<g opacity="0.2">
<rect x="316" y="37" width="360" height="360" rx="180" fill="url(#paint1_linear_878_576)" fill-opacity="0.16"/>
</g>
<g opacity="0.3">
<rect x="346" y="67" width="300" height="300" rx="150" fill="url(#paint2_linear_878_576)" fill-opacity="0.16"/>
</g>
<rect x="0.5" y="-0.5" width="95" height="95" transform="matrix(1 0 0 -1 0 264)" fill="url(#paint3_linear_878_576)"/>
<rect x="0.5" y="-0.5" width="95" height="95" transform="matrix(1 0 0 -1 0 264)" stroke="url(#paint4_linear_878_576)"/>
<path d="M65.9403 206.322V226.583L47.6606 236.714L29.3809 226.583V206.322L47.6606 196.191L65.9403 206.322ZM37.229 222.234L47.6606 228.015L58.0922 222.234V210.671L47.6606 204.89L37.229 210.671V222.234Z" fill="white"/>
<path d="M54.7976 212.497V220.408L47.6605 224.364L40.5234 220.408V212.497L47.6605 208.542L54.7976 212.497Z" fill="white"/>
<path d="M96.6992 216.301L365.999 216.3" stroke="#475177" stroke-width="1.4" stroke-linecap="round" stroke-dasharray="4 3"/>
<path d="M202 222.928C205.827 225.137 210.72 223.826 212.929 220C215.138 216.174 213.827 211.281 210 209.072C206.174 206.863 201.281 208.174 199.072 212C196.863 215.826 198.174 220.719 202 222.928Z" fill="url(#paint5_linear_878_576)"/>
<path d="M205.268 218.268L207.76 215.768L205.268 213.268" stroke="white" stroke-linecap="round" stroke-linejoin="round"/>
<path d="M625.5 203L895.41 159.61" stroke="#475177" stroke-width="1.4" stroke-linecap="round" stroke-dasharray="4 3"/>
<path d="M625.5 231L895.605 271.413" stroke="#475177" stroke-width="1.4" stroke-linecap="round" stroke-dasharray="4 3"/>
<path d="M619.499 258.5L895.824 383.313" stroke="#475177" stroke-width="1.4" stroke-linecap="round" stroke-dasharray="4 3"/>
<path d="M619.5 175.5L895.313 46.8321" stroke="#475177" stroke-width="1.4" stroke-linecap="round" stroke-dasharray="4 3"/>
<rect x="376" y="97" width="240" height="240" rx="120" fill="url(#paint6_linear_878_576)"/>
<g clip-path="url(#clip0_878_576)">
<path d="M475.446 259.051H459V276.067H475.446V259.051Z" fill="white"/>
<path d="M553 216.544C553 232.992 546.426 247.867 535.799 258.636C525.173 269.405 510.473 276.067 494.263 276.067H491.418V259.051H494.091C505.687 259.051 516.163 254.289 523.75 246.6C531.338 238.912 536.036 228.274 536.036 216.544C536.036 193.063 517.262 174.038 494.091 174.038H459V157H494.242C526.682 157 553 183.649 553 216.544Z" fill="white"/>
<path d="M494.393 190.377H459V242.691H494.393C501.527 242.691 507.972 239.764 512.65 235.024C517.327 230.284 520.215 223.753 520.215 216.523C520.215 202.085 508.662 190.377 494.393 190.377ZM498.38 224.954C496.246 227.117 493.315 228.449 490.06 228.449H476.395V204.618H490.082C496.57 204.618 501.829 209.948 501.829 216.523C501.829 219.821 500.514 222.814 498.38 224.954Z" fill="white"/>
</g>
<rect x="366" y="87" width="260" height="260" rx="130" stroke="#475177" stroke-width="1.4" stroke-linecap="round" stroke-dasharray="4 3"/>
<rect width="96" height="96" transform="translate(896)" fill="url(#paint7_linear_878_576)"/>
<path d="M965.03 24.3765C959.002 20.5845 951.067 21.488 943.99 25.9656C936.934 21.488 928.994 20.5845 922.974 24.3765C913.451 30.3689 912.293 45.8015 920.39 58.8481C926.359 68.4666 935.693 74.1025 944.002 73.9986C952.311 74.1025 961.645 68.4666 967.614 58.8481C975.701 45.8015 974.553 30.3689 965.03 24.3765ZM924.769 56.0933C923.099 53.4282 921.839 50.5241 921.032 47.4797C920.315 44.8369 920.041 42.0923 920.221 39.3587C920.582 34.537 922.532 30.7822 925.708 28.7848C928.884 26.7873 933.082 26.666 937.554 28.4531C938.225 28.7229 938.889 29.0348 939.548 29.3788C937.063 31.6601 934.902 34.2754 933.127 37.1508C928.21 45.0713 926.711 53.8854 928.426 60.9124C927.058 59.4263 925.833 57.8127 924.769 56.0933ZM966.975 47.4772C966.166 50.5213 964.907 53.4251 963.238 56.0908C962.172 57.8127 960.947 59.4295 959.58 60.9198C961.114 54.6205 960.072 46.903 956.311 39.6656C956.25 39.5464 956.166 39.4412 956.063 39.3568C955.96 39.2725 955.841 39.2108 955.713 39.1758C955.585 39.1408 955.451 39.1333 955.319 39.1537C955.188 39.1741 955.063 39.222 954.951 39.2943L943.225 46.6703C943.118 46.7375 943.026 46.8253 942.952 46.9286C942.879 47.0319 942.827 47.1488 942.798 47.2725C942.77 47.3962 942.766 47.5243 942.787 47.6494C942.808 47.7746 942.853 47.8944 942.92 48.0019L944.641 50.7717C944.708 50.8793 944.795 50.9726 944.897 51.0463C944.999 51.12 945.115 51.1726 945.238 51.2011C945.361 51.2296 945.488 51.2335 945.612 51.2124C945.736 51.1914 945.855 51.1459 945.961 51.0786L953.562 46.2966C953.808 47.0391 954.054 47.7817 954.238 48.5242C954.955 51.1636 955.23 53.9049 955.052 56.6353C954.691 61.4545 952.741 65.2093 949.565 67.2092C947.927 68.2177 946.05 68.7648 944.13 68.7933H943.886C941.966 68.7654 940.089 68.2183 938.451 67.2092C935.273 65.2093 933.323 61.4545 932.962 56.6353C932.783 53.9017 933.057 51.1572 933.773 48.5143C935.421 42.3997 938.826 36.9118 943.562 32.7401C945.604 30.9352 947.93 29.4847 950.445 28.4481C954.904 26.6611 959.111 26.7799 962.289 28.7798C965.468 30.7798 967.415 34.5321 967.776 39.3537C967.958 42.0876 967.687 44.8329 966.975 47.4772Z" fill="white"/>
<rect width="96" height="96" transform="translate(896 224)" fill="url(#paint8_linear_878_576)"/>
<path d="M923 270.41V247.001L934.598 253.301V263.848L949.951 263.855L961.736 270.41H923ZM953.09 261.918V247L965 253.143V268.966L953.09 261.918ZM953.09 290.529V280.074L937.619 280.062C937.633 280.132 925.638 273.403 925.638 273.403L965 273.591V297L953.09 290.529ZM923 290.529L923 275.232L934.598 282.114V296.672L923 290.529Z" fill="white"/>
<rect width="96" height="96" transform="translate(896 112)" fill="url(#paint9_linear_878_576)"/>
<g clip-path="url(#clip1_878_576)">
<path d="M931.053 159.134C931.053 159.866 931.132 160.459 931.27 160.894C931.428 161.33 931.625 161.804 931.902 162.319C932 162.477 932.04 162.635 932.04 162.774C932.04 162.971 931.921 163.169 931.665 163.367L930.421 164.198C930.244 164.316 930.066 164.376 929.908 164.376C929.711 164.376 929.513 164.277 929.316 164.099C929.04 163.802 928.803 163.486 928.606 163.169C928.408 162.833 928.211 162.457 927.994 162.002C926.454 163.822 924.52 164.732 922.191 164.732C920.533 164.732 919.211 164.257 918.244 163.308C917.277 162.358 916.783 161.092 916.783 159.51C916.783 157.829 917.375 156.464 918.579 155.435C919.783 154.407 921.382 153.892 923.415 153.892C924.086 153.892 924.777 153.952 925.507 154.05C926.237 154.149 926.987 154.308 927.777 154.486V153.042C927.777 151.538 927.461 150.49 926.849 149.877C926.217 149.264 925.152 148.967 923.632 148.967C922.941 148.967 922.231 149.046 921.5 149.224C920.77 149.402 920.06 149.62 919.369 149.897C919.053 150.035 918.816 150.114 918.678 150.154C918.54 150.193 918.441 150.213 918.362 150.213C918.086 150.213 917.948 150.015 917.948 149.6V148.631C917.948 148.314 917.987 148.077 918.086 147.938C918.185 147.8 918.362 147.661 918.638 147.523C919.329 147.167 920.158 146.87 921.125 146.633C922.092 146.376 923.119 146.257 924.204 146.257C926.553 146.257 928.27 146.791 929.375 147.859C930.461 148.927 931.013 150.549 931.013 152.725V159.134H931.053ZM923.04 162.141C923.691 162.141 924.362 162.022 925.073 161.785C925.783 161.547 926.415 161.112 926.948 160.519C927.263 160.143 927.5 159.727 927.619 159.253C927.737 158.778 927.816 158.204 927.816 157.532V156.701C927.244 156.563 926.632 156.444 926 156.365C925.369 156.286 924.757 156.246 924.145 156.246C922.823 156.246 921.856 156.503 921.204 157.037C920.553 157.571 920.237 158.323 920.237 159.312C920.237 160.242 920.474 160.934 920.967 161.409C921.441 161.903 922.132 162.141 923.04 162.141ZM938.888 164.277C938.533 164.277 938.296 164.218 938.138 164.079C937.981 163.96 937.842 163.683 937.724 163.308L933.086 148.018C932.967 147.622 932.908 147.365 932.908 147.226C932.908 146.91 933.066 146.732 933.382 146.732H935.316C935.691 146.732 935.948 146.791 936.086 146.93C936.244 147.048 936.362 147.325 936.481 147.701L939.796 160.796L942.875 147.701C942.974 147.305 943.092 147.048 943.25 146.93C943.408 146.811 943.685 146.732 944.04 146.732H945.619C945.994 146.732 946.25 146.791 946.408 146.93C946.566 147.048 946.704 147.325 946.783 147.701L949.902 160.954L953.316 147.701C953.435 147.305 953.573 147.048 953.711 146.93C953.869 146.811 954.125 146.732 954.481 146.732H956.316C956.632 146.732 956.81 146.89 956.81 147.226C956.81 147.325 956.79 147.424 956.77 147.543C956.75 147.661 956.711 147.82 956.632 148.037L951.875 163.327C951.757 163.723 951.619 163.98 951.461 164.099C951.303 164.218 951.046 164.297 950.711 164.297H949.013C948.638 164.297 948.382 164.237 948.224 164.099C948.066 163.96 947.928 163.703 947.849 163.308L944.79 150.549L941.75 163.288C941.652 163.683 941.533 163.941 941.375 164.079C941.217 164.218 940.941 164.277 940.586 164.277H938.888ZM964.25 164.811C963.224 164.811 962.198 164.692 961.211 164.455C960.224 164.218 959.454 163.96 958.941 163.664C958.625 163.486 958.408 163.288 958.329 163.11C958.25 162.932 958.211 162.734 958.211 162.556V161.547C958.211 161.132 958.369 160.934 958.665 160.934C958.783 160.934 958.902 160.954 959.02 160.993C959.138 161.033 959.316 161.112 959.513 161.191C960.185 161.488 960.915 161.725 961.685 161.883C962.474 162.042 963.244 162.121 964.033 162.121C965.277 162.121 966.244 161.903 966.915 161.468C967.586 161.033 967.941 160.4 967.941 159.589C967.941 159.035 967.763 158.58 967.408 158.204C967.053 157.829 966.382 157.492 965.415 157.176L962.553 156.286C961.112 155.831 960.046 155.158 959.395 154.268C958.744 153.398 958.408 152.429 958.408 151.4C958.408 150.569 958.586 149.837 958.941 149.204C959.296 148.571 959.77 148.018 960.362 147.582C960.954 147.127 961.625 146.791 962.415 146.554C963.204 146.316 964.033 146.218 964.902 146.218C965.336 146.218 965.79 146.237 966.224 146.297C966.678 146.356 967.092 146.435 967.507 146.514C967.902 146.613 968.277 146.712 968.632 146.831C968.987 146.949 969.263 147.068 969.461 147.187C969.737 147.345 969.935 147.503 970.053 147.681C970.171 147.84 970.231 148.057 970.231 148.334V149.264C970.231 149.679 970.073 149.897 969.777 149.897C969.619 149.897 969.362 149.818 969.027 149.659C967.902 149.145 966.638 148.888 965.237 148.888C964.112 148.888 963.224 149.066 962.612 149.442C962 149.818 961.685 150.391 961.685 151.202C961.685 151.756 961.882 152.231 962.277 152.607C962.671 152.982 963.402 153.358 964.448 153.694L967.25 154.585C968.671 155.04 969.698 155.672 970.31 156.483C970.921 157.294 971.217 158.224 971.217 159.253C971.217 160.103 971.04 160.875 970.704 161.547C970.349 162.22 969.875 162.813 969.263 163.288C968.652 163.782 967.921 164.138 967.073 164.396C966.185 164.672 965.257 164.811 964.25 164.811Z" fill="white"/>
<path fill-rule="evenodd" clip-rule="evenodd" d="M967.981 174.424C961.488 179.231 952.054 181.782 943.942 181.782C932.573 181.782 922.33 177.569 914.593 170.567C913.981 170.013 914.534 169.261 915.264 169.697C923.632 174.563 933.955 177.51 944.632 177.51C951.836 177.51 959.751 176.007 967.034 172.921C968.119 172.426 969.047 173.633 967.981 174.424Z" fill="white"/>
<path fill-rule="evenodd" clip-rule="evenodd" d="M970.685 171.338C969.856 170.27 965.198 170.824 963.086 171.081C962.455 171.16 962.356 170.607 962.928 170.191C966.639 167.58 972.738 168.332 973.448 169.202C974.159 170.092 973.251 176.204 969.777 179.132C969.244 179.587 968.731 179.349 968.968 178.756C969.757 176.798 971.514 172.387 970.685 171.338Z" fill="white"/>
</g>
<rect width="96" height="96" transform="translate(896 336)" fill="url(#paint10_linear_878_576)"/>
<path d="M963.052 378.047C962.35 377.935 961.683 378.393 961.532 379.092L958.268 389.897L954.692 378.02H950.972L956.337 392.67C956.752 393.422 956.579 394.366 955.926 394.921C955.389 395.344 954.87 395.344 953.753 395.335H953.484V398H954.379C955.926 398 957.061 397.937 957.705 397.388C958.476 396.724 959.049 395.858 959.359 394.885L965.314 378.056H963.052V378.047H963.052ZM968.416 379.406C967.369 380.271 966.775 381.573 966.807 382.936C966.759 383.924 967.152 384.882 967.879 385.547C968.55 386.223 969.945 386.826 972.019 387.348C972.538 387.503 973.067 387.621 973.602 387.7C974.353 387.862 976.579 388.339 976.579 389.833C976.572 390.503 976.197 391.114 975.604 391.418C974.944 391.759 974.21 391.929 973.468 391.913C972.525 391.948 971.592 391.704 970.786 391.211C970.192 390.789 969.799 390.136 969.704 389.41H966.44C966.413 390.753 966.999 392.034 968.032 392.886C969.096 393.786 970.714 394.209 972.958 394.209C975.202 394.209 977.062 393.786 978.207 392.94C979.395 392.045 980.065 390.614 979.995 389.122C980.045 388.146 979.677 387.195 978.985 386.511C977.732 385.647 976.317 385.053 974.827 384.764L973.683 384.521C971.215 383.999 970.106 383.341 970.106 382.387C970.08 381.784 970.368 381.21 970.866 380.874C971.513 380.536 972.239 380.38 972.967 380.424C973.786 380.382 974.595 380.61 975.274 381.072H975.328L975.489 381.225C975.616 381.341 975.735 381.464 975.846 381.595C976.123 382.127 976.662 382.471 977.259 382.495H979.369C979.231 381.261 978.63 380.127 977.688 379.326C976.268 378.383 974.586 377.922 972.887 378.011C971.294 377.941 969.722 378.404 968.416 379.326M938.749 379.325C937.702 380.193 937.108 381.498 937.14 382.864C937.065 383.896 937.471 384.905 938.24 385.592C938.91 386.267 940.314 386.871 942.388 387.393C942.91 387.548 943.442 387.666 943.98 387.744C944.731 387.907 946.966 388.383 946.966 389.887C946.963 390.56 946.586 391.175 945.991 391.481C945.328 391.823 944.591 391.994 943.846 391.976C942.888 392.018 941.939 391.773 941.119 391.274C940.526 390.851 940.134 390.199 940.037 389.473H936.765C936.735 390.823 937.326 392.112 938.365 392.966C939.429 393.867 941.047 394.29 943.31 394.29C945.572 394.29 947.432 393.858 948.576 393.02C949.77 392.122 950.44 390.683 950.364 389.185C950.414 388.206 950.047 387.252 949.354 386.564C948.096 385.698 946.675 385.1 945.178 384.809L944.025 384.566C941.548 384.034 940.449 383.377 940.449 382.423C940.424 381.818 940.716 381.244 941.218 380.91C941.868 380.571 942.597 380.415 943.328 380.46C944.15 380.42 944.963 380.651 945.644 381.117H945.697L945.858 381.27C945.985 381.386 946.104 381.509 946.216 381.639C946.495 382.175 947.037 382.518 947.638 382.54H949.766C949.608 381.328 949.005 380.219 948.076 379.433C946.651 378.484 944.962 378.021 943.256 378.11C941.662 378.045 940.091 378.51 938.786 379.433M931.793 378.533C930.667 378.787 929.597 379.248 928.637 379.893C927.614 380.424 926.84 381.339 926.482 382.441C925.905 383.71 925.63 385.097 925.677 386.492V394.398H929.298V385.979C929.197 384.632 929.703 383.309 930.675 382.378C931.797 381.531 933.184 381.118 934.582 381.216H935.477V378.119C934.209 378.125 932.946 378.276 931.712 378.569M911.148 379.47C910.534 379.936 910.053 380.557 909.753 381.27C909.717 381.423 909.673 381.793 910.254 381.793H913.204C913.49 381.363 913.913 381.046 914.403 380.892C914.981 380.708 915.584 380.617 916.191 380.622C916.888 380.608 917.584 380.712 918.247 380.928C919.042 381.08 919.616 381.78 919.615 382.594C919.615 384.26 917.085 384.575 916.253 384.683L914.385 384.935C912.99 385.09 911.646 385.555 910.451 386.295C909.429 387.077 908.886 388.341 909.02 389.626C908.882 391.026 909.486 392.395 910.612 393.228C911.782 394.008 913.16 394.416 914.564 394.398C915.342 394.398 916.253 394.345 917.3 394.245C918.275 394.164 919.228 393.911 920.116 393.498C921.037 393.175 921.799 392.508 922.244 391.634C922.894 390.551 923.206 389.296 923.138 388.033V382.333C923.173 381.064 922.509 379.88 921.412 379.254C919.755 378.408 917.902 378.026 916.048 378.146C914.328 378.034 912.621 378.499 911.193 379.47M913.204 391.4C912.711 390.934 912.438 390.28 912.453 389.599C912.398 388.961 912.628 388.331 913.079 387.879C913.644 387.426 914.31 387.117 915.019 386.979L916.557 386.663C917.416 386.491 918.254 386.232 919.061 385.889L919.74 385.574V387.879C919.955 389.545 919.418 390.373 918.515 390.958C917.608 391.742 916.437 392.145 915.243 392.084C914.505 392.103 913.784 391.861 913.204 391.4Z" fill="white"/>
<path d="M774.426 109.471C778.58 110.976 783.168 108.829 784.673 104.675C786.178 100.521 784.031 95.9336 779.877 94.4284C775.723 92.9231 771.135 95.0703 769.63 99.2243C768.125 103.378 770.272 107.966 774.426 109.471Z" fill="url(#paint11_linear_878_576)"/>
<path d="M776.828 104.311L778.845 101.413L775.953 99.3879" stroke="white" stroke-linecap="round" stroke-linejoin="round"/>
<path d="M778.822 185.181C782.841 187.018 787.587 185.249 789.424 181.231C791.261 177.212 789.492 172.466 785.473 170.629C781.455 168.792 776.708 170.561 774.872 174.58C773.035 178.598 774.804 183.344 778.822 185.181Z" fill="url(#paint12_linear_878_576)"/>
<path d="M781.634 180.232L783.879 177.507L781.16 175.255" stroke="white" stroke-linecap="round" stroke-linejoin="round"/>
<path d="M776.666 260.636C780.097 263.419 785.135 262.894 787.918 259.463C790.702 256.032 790.177 250.994 786.746 248.211C783.315 245.427 778.277 245.952 775.493 249.383C772.71 252.814 773.234 257.852 776.666 260.636Z" fill="url(#paint13_linear_878_576)"/>
<path d="M780.627 256.548L783.483 254.471L781.414 251.61" stroke="white" stroke-linecap="round" stroke-linejoin="round"/>
<path d="M774.251 335.982C777.038 339.41 782.077 339.929 785.505 337.142C788.933 334.354 789.452 329.316 786.664 325.888C783.877 322.46 778.838 321.941 775.41 324.728C771.982 327.516 771.463 332.554 774.251 335.982Z" fill="url(#paint14_linear_878_576)"/>
<path d="M778.966 332.793L782.186 331.346L780.748 328.122" stroke="white" stroke-linecap="round" stroke-linejoin="round"/>
<defs>
<linearGradient id="paint0_linear_878_576" x1="496" y1="7" x2="496" y2="427" gradientUnits="userSpaceOnUse">
<stop stop-color="white"/>
<stop offset="1" stop-color="white" stop-opacity="0.33"/>
</linearGradient>
<linearGradient id="paint1_linear_878_576" x1="496" y1="37" x2="496" y2="397" gradientUnits="userSpaceOnUse">
<stop stop-color="white"/>
<stop offset="1" stop-color="white" stop-opacity="0.33"/>
</linearGradient>
<linearGradient id="paint2_linear_878_576" x1="496" y1="67" x2="496" y2="367" gradientUnits="userSpaceOnUse">
<stop stop-color="white"/>
<stop offset="1" stop-color="white" stop-opacity="0.33"/>
</linearGradient>
<linearGradient id="paint3_linear_878_576" x1="48" y1="0" x2="48" y2="96" gradientUnits="userSpaceOnUse">
<stop stop-color="#121313"/>
<stop offset="1" stop-color="#222323"/>
</linearGradient>
<linearGradient id="paint4_linear_878_576" x1="48" y1="96" x2="48" y2="-3.74019e-07" gradientUnits="userSpaceOnUse">
<stop stop-color="#373737"/>
<stop offset="1" stop-color="#121212"/>
</linearGradient>
<linearGradient id="paint5_linear_878_576" x1="199.072" y1="212" x2="212.929" y2="220" gradientUnits="userSpaceOnUse">
<stop stop-color="#0052CC"/>
<stop offset="1" stop-color="#0099FF"/>
</linearGradient>
<linearGradient id="paint6_linear_878_576" x1="376" y1="217.002" x2="616" y2="217.002" gradientUnits="userSpaceOnUse">
<stop stop-color="#0052CC"/>
<stop offset="1" stop-color="#0099FF"/>
</linearGradient>
<linearGradient id="paint7_linear_878_576" x1="48" y1="0" x2="48" y2="96" gradientUnits="userSpaceOnUse">
<stop stop-color="#244851"/>
<stop offset="1" stop-color="#11161A"/>
</linearGradient>
<linearGradient id="paint8_linear_878_576" x1="48" y1="0" x2="48" y2="96" gradientUnits="userSpaceOnUse">
<stop stop-color="#22426C"/>
<stop offset="1" stop-color="#11161A"/>
</linearGradient>
<linearGradient id="paint9_linear_878_576" x1="48" y1="0" x2="48" y2="96" gradientUnits="userSpaceOnUse">
<stop stop-color="#35366E"/>
<stop offset="1" stop-color="#11171B"/>
</linearGradient>
<linearGradient id="paint10_linear_878_576" x1="48" y1="0" x2="48" y2="96" gradientUnits="userSpaceOnUse">
<stop stop-color="#58356E"/>
<stop offset="1" stop-color="#11171C"/>
</linearGradient>
<linearGradient id="paint11_linear_878_576" x1="769.63" y1="99.2244" x2="784.673" y2="104.675" gradientUnits="userSpaceOnUse">
<stop stop-color="#0052CC"/>
<stop offset="1" stop-color="#0099FF"/>
</linearGradient>
<linearGradient id="paint12_linear_878_576" x1="774.872" y1="174.58" x2="789.424" y2="181.231" gradientUnits="userSpaceOnUse">
<stop stop-color="#0052CC"/>
<stop offset="1" stop-color="#0099FF"/>
</linearGradient>
<linearGradient id="paint13_linear_878_576" x1="775.493" y1="249.383" x2="787.918" y2="259.463" gradientUnits="userSpaceOnUse">
<stop stop-color="#0052CC"/>
<stop offset="1" stop-color="#0099FF"/>
</linearGradient>
<linearGradient id="paint14_linear_878_576" x1="775.41" y1="324.728" x2="785.505" y2="337.142" gradientUnits="userSpaceOnUse">
<stop stop-color="#0052CC"/>
<stop offset="1" stop-color="#0099FF"/>
</linearGradient>
<clipPath id="clip0_878_576">
<rect width="94" height="119.067" fill="white" transform="translate(459 157)"/>
</clipPath>
<clipPath id="clip1_878_576">
<rect width="60" height="36" fill="white" transform="translate(914 146)"/>
</clipPath>
</defs>
</svg>
