<?xml version="1.0" encoding="utf-8"?>
<!-- Generator: Adobe Illustrator 25.0.0, SVG Export Plug-In . SVG Version: 6.00 Build 0)  -->
<svg version="1.1" id="Light" xmlns="http://www.w3.org/2000/svg" xmlns:xlink="http://www.w3.org/1999/xlink" x="0px" y="0px"
	 viewBox="0 0 24 24" style="enable-background:new 0 0 24 24;" xml:space="preserve">
<path d="M12,24C5.4,24,0,18.6,0,12S5.4,0,12,0s12,5.4,12,12S18.6,24,12,24z M12,1.8C6.4,1.8,1.8,6.4,1.8,12S6.4,22.2,12,22.2
	S22.2,17.6,22.2,12S17.6,1.8,12,1.8z"/>
<path d="M8.1,16.8c-0.2,0-0.5-0.1-0.7-0.3c-0.4-0.4-0.4-0.9,0-1.3l7.8-7.8c0.4-0.4,0.9-0.4,1.3,0s0.4,0.9,0,1.3l-7.8,7.8
	C8.6,16.7,8.3,16.8,8.1,16.8z"/>
<path d="M15.9,16.8c-0.2,0-0.5-0.1-0.7-0.3L7.4,8.7c-0.4-0.4-0.4-0.9,0-1.3s0.9-0.4,1.3,0l7.8,7.8c0.4,0.4,0.4,0.9,0,1.3
	C16.4,16.7,16.2,16.8,15.9,16.8z"/>
</svg>
