<svg xmlns="http://www.w3.org/2000/svg" xmlns:xlink="http://www.w3.org/1999/xlink" width="38" height="34.87" viewBox="0 0 38 34.87">
  <defs>
    <clipPath id="clip-path">
      <rect id="Rectangle_854" data-name="Rectangle 854" width="38" height="34.87" transform="translate(0 0)" fill="none" stroke="#617384" stroke-width="1"/>
    </clipPath>
  </defs>
  <g id="calender_icon" transform="translate(0 0)">
    <g id="Group_2019" data-name="Group 2019">
      <g id="Group_2018" data-name="Group 2018" clip-path="url(#clip-path)">
        <path id="Path_789" data-name="Path 789" d="M26.044,8.826H37V33.869H1V8.826H11.957" fill="none" stroke="#617384" stroke-linecap="round" stroke-linejoin="round" stroke-width="2"/>
        <line id="Line_351" data-name="Line 351" x2="36" transform="translate(1 15.087)" fill="none" stroke="#617384" stroke-linecap="round" stroke-linejoin="round" stroke-width="2"/>
      </g>
    </g>
    <line id="Line_352" data-name="Line 352" x2="6.261" transform="translate(19.783 21.348)" fill="none" stroke="#617384" stroke-linecap="round" stroke-linejoin="round" stroke-width="2"/>
    <line id="Line_353" data-name="Line 353" x2="9.391" transform="translate(19.783 24.478)" fill="none" stroke="#617384" stroke-linecap="round" stroke-linejoin="round" stroke-width="2"/>
    <line id="Line_354" data-name="Line 354" x2="7.826" transform="translate(19.783 27.609)" fill="none" stroke="#617384" stroke-linecap="round" stroke-linejoin="round" stroke-width="2"/>
    <g id="Group_2021" data-name="Group 2021">
      <g id="Group_2020" data-name="Group 2020" clip-path="url(#clip-path)">
        <path id="Path_790" data-name="Path 790" d="M19,1a3.913,3.913,0,0,0-3.913,3.913v7.044h7.826V4.913A3.913,3.913,0,0,0,19,1Z" fill="none" stroke="#617384" stroke-linecap="round" stroke-linejoin="round" stroke-width="2"/>
        <circle id="Ellipse_98" data-name="Ellipse 98" cx="2.348" cy="2.348" r="2.348" transform="translate(8.826 19.782)" fill="none" stroke="#617384" stroke-linecap="round" stroke-linejoin="round" stroke-width="2"/>
        <path id="Path_791" data-name="Path 791" d="M15.087,29.174H7.261c0-2.593,1.752-4.7,3.913-4.7S15.087,26.581,15.087,29.174Z" fill="none" stroke="#617384" stroke-linecap="round" stroke-linejoin="round" stroke-width="2"/>
      </g>
    </g>
  </g>
</svg>
