<svg xmlns="http://www.w3.org/2000/svg" width="160" height="26.797" viewBox="0 0 160 26.797">
  <g id="logo" transform="translate(0 -3.216)">
    <path id="Path_2" data-name="Path 2" d="M53.612,6.237H58V19.122c0,4.261,2.541,6.8,5.881,6.8,3.364,0,5.881-2.542,5.881-6.8V6.237h4.361V20.044a9.831,9.831,0,0,1-10.243,9.968,9.851,9.851,0,0,1-10.266-9.968V6.237Z" fill="#005ca9"/>
    <path id="Path_3" data-name="Path 3" d="M98.395,30.012V6.761H94.059V21.29L81.374,6.761H79.006V29.987h4.337V15.533L96,30.012Z" fill="#005ca9"/>
    <path id="Path_4" data-name="Path 4" d="M103.554,6.786h4.486V30.012h-4.486Z" fill="#005ca9"/>
    <path id="Path_5" data-name="Path 5" d="M124.338,5.291a12.361,12.361,0,1,0,7.052,22.554l2.044,2.019,2.841-2.841-1.969-1.944a12.243,12.243,0,0,0,2.517-7.426A12.433,12.433,0,0,0,124.338,5.291Zm0,3.887a8.3,8.3,0,0,1,8.1,8.474,8.737,8.737,0,0,1-1.171,4.386L128.6,19.347l-2.841,2.841,2.742,2.741a7.726,7.726,0,0,1-4.162,1.2,8.281,8.281,0,0,1-8.1-8.473,8.282,8.282,0,0,1,8.1-8.474Z" fill="#005ca9"/>
    <path id="Path_6" data-name="Path 6" d="M148.462,6.786h-1.346L136.947,30.012h4.66l1.845-4.386h9.994l1.769,4.386H160L150.106,6.786Zm0,15.027h-3.414l3.414-8.224.074-.124,3.365,8.348Z" fill="#005ca9"/>
    <g id="Group_4" data-name="Group 4">
      <path id="Path_7" data-name="Path 7" d="M19.837,26.2a18.189,18.189,0,0,1-4.551-4.763c-3.114-4.735-2.673-9.485-1.223-11.845a13.2,13.2,0,0,1,2.986-2.275A10.9,10.9,0,0,1,21.2,5.908a7.639,7.639,0,0,0-3.839,3.484,8.134,8.134,0,0,0-.854,4.166,12.761,12.761,0,0,0,1.976,5.716,13.677,13.677,0,0,0,8.461,5.987,37.645,37.645,0,0,0,6.555.7c2.332.129,7.11.157,7.935.157h.9l2.033,3.9s-6.925.028-10.152-.142c-5.218-.285-10.068-.526-14.375-3.669Z" fill="#005ca9"/>
      <path id="Path_8" data-name="Path 8" d="M23.776,29.342a13.383,13.383,0,0,1-3.257.412,13.51,13.51,0,0,1-7.977-3.143,13.268,13.268,0,0,1-5.233-8.219c-.071-.37-.114-.74-.17-1.266a12.649,12.649,0,0,1,1.649-7.55,13.014,13.014,0,0,1,6.556-5.6,12.436,12.436,0,0,1,7.636-.313A15.626,15.626,0,0,1,31.6,9.732,12.639,12.639,0,0,0,23.335,5.3c-.241-.015-.483-.029-.711-.029A11.831,11.831,0,0,0,15.5,7.586a13.151,13.151,0,0,0-3.356,3.455A13.62,13.62,0,0,0,9.97,18.222,12.17,12.17,0,0,0,12.1,25.176a10.833,10.833,0,0,0,7.409,1.479,15.378,15.378,0,0,0,5.005,2.488l-.74.2Z" fill="#005ca9"/>
      <path id="Path_9" data-name="Path 9" d="M17.021,29.754H0L1.721,26.7h9.967A18.975,18.975,0,0,0,14.1,28.389a15.634,15.634,0,0,0,2.916,1.365Z" fill="#005ca9"/>
      <path id="Path_10" data-name="Path 10" d="M33.729,16.6c.256,3.413-1.962,7.195-3.085,8.631-.7-.057-1.806-.185-2.83-.37a14.855,14.855,0,0,1-2.19-.611,13.6,13.6,0,0,0,4.28-6.5A10.578,10.578,0,0,0,27.629,7.216a11.213,11.213,0,0,1,6.1,9.385Z" fill="#005ca9"/>
    </g>
  </g>
</svg>
