<svg id="playstore-icon" xmlns="http://www.w3.org/2000/svg" xmlns:xlink="http://www.w3.org/1999/xlink" width="135" height="40" viewBox="0 0 135 40">
  <defs>
    <linearGradient id="linear-gradient" x1="0.907" y1="2.519" x2="-0.384" y2="3.191" gradientUnits="objectBoundingBox">
      <stop offset="0" stop-color="#00a0ff"/>
      <stop offset="0.007" stop-color="#00a1ff"/>
      <stop offset="0.26" stop-color="#00beff"/>
      <stop offset="0.512" stop-color="#00d2ff"/>
      <stop offset="0.76" stop-color="#00dfff"/>
      <stop offset="1" stop-color="#00e3ff"/>
    </linearGradient>
    <linearGradient id="linear-gradient-2" x1="1.077" y1="7.768" x2="-1.307" y2="7.768" gradientUnits="objectBoundingBox">
      <stop offset="0" stop-color="#ffe000"/>
      <stop offset="0.409" stop-color="#ffbd00"/>
      <stop offset="0.775" stop-color="orange"/>
      <stop offset="1" stop-color="#ff9c00"/>
    </linearGradient>
    <linearGradient id="linear-gradient-3" x1="0.863" y1="4.971" x2="-0.5" y2="6.736" gradientUnits="objectBoundingBox">
      <stop offset="0" stop-color="#ff3a44"/>
      <stop offset="1" stop-color="#c31162"/>
    </linearGradient>
    <linearGradient id="linear-gradient-4" x1="-0.188" y1="4.273" x2="0.421" y2="5.065" gradientUnits="objectBoundingBox">
      <stop offset="0" stop-color="#32a071"/>
      <stop offset="0.068" stop-color="#2da771"/>
      <stop offset="0.476" stop-color="#15cf74"/>
      <stop offset="0.801" stop-color="#06e775"/>
      <stop offset="1" stop-color="#00f076"/>
    </linearGradient>
  </defs>
  <g id="Group_248" data-name="Group 248">
    <g id="Group_245" data-name="Group 245">
      <path id="Path_106" data-name="Path 106" d="M130,40H5a4.951,4.951,0,0,1-5-5V5A4.951,4.951,0,0,1,5,0H130a4.951,4.951,0,0,1,5,5V35A4.951,4.951,0,0,1,130,40Z"/>
    </g>
    <path id="Path_107" data-name="Path 107" d="M68.1,21.8a4.207,4.207,0,0,0-4.3,4.3,4.268,4.268,0,0,0,4.3,4.3,4.207,4.207,0,0,0,4.3-4.3A4.149,4.149,0,0,0,68.1,21.8Zm0,6.8a2.608,2.608,0,0,1,0-5.2A2.422,2.422,0,0,1,70.5,26,2.482,2.482,0,0,1,68.1,28.6Zm-9.3-6.8a4.207,4.207,0,0,0-4.3,4.3,4.268,4.268,0,0,0,4.3,4.3,4.207,4.207,0,0,0,4.3-4.3A4.149,4.149,0,0,0,58.8,21.8Zm0,6.8a2.608,2.608,0,0,1,0-5.2A2.422,2.422,0,0,1,61.2,26,2.482,2.482,0,0,1,58.8,28.6ZM47.7,23.1v1.8H52a3.781,3.781,0,0,1-1,2.3,4.426,4.426,0,0,1-3.3,1.3A4.656,4.656,0,0,1,43,23.7a4.717,4.717,0,0,1,4.7-4.8A4.958,4.958,0,0,1,51,20.2l1.3-1.3a6.408,6.408,0,0,0-4.5-1.8,6.746,6.746,0,0,0-6.7,6.6,6.746,6.746,0,0,0,6.7,6.6,5.755,5.755,0,0,0,4.6-1.9A6.02,6.02,0,0,0,54,24.2a3.75,3.75,0,0,0-.1-1.1Zm45.4,1.4a3.885,3.885,0,0,0-3.6-2.7,4.028,4.028,0,0,0-4,4.3,4.185,4.185,0,0,0,4.2,4.3,4.1,4.1,0,0,0,3.5-1.9l-1.4-1a2.438,2.438,0,0,1-2.1,1.2,2.17,2.17,0,0,1-2.1-1.3L93.3,25Zm-5.8,1.4a2.429,2.429,0,0,1,2.2-2.5,1.769,1.769,0,0,1,1.6.9ZM82.6,30h1.9V17.5H82.6Zm-3-7.3h0a3.293,3.293,0,0,0-2.3-1A4.3,4.3,0,0,0,73.2,26a4.141,4.141,0,0,0,4.1,4.2,2.871,2.871,0,0,0,2.2-1h.1v.6a2.273,2.273,0,0,1-4.4,1l-1.6.7A4.125,4.125,0,0,0,77.4,34c2.2,0,4-1.3,4-4.4V22H79.6Zm-2.2,5.9a2.608,2.608,0,0,1,0-5.2A2.406,2.406,0,0,1,79.7,26,2.406,2.406,0,0,1,77.4,28.6Zm24.4-11.1H97.3V30h1.9V25.3h2.6a3.9,3.9,0,1,0,0-7.8Zm.1,6H99.2V19.2h2.7a2.2,2.2,0,0,1,2.2,2.1A2.289,2.289,0,0,1,101.9,23.5Zm11.5-1.8a3.361,3.361,0,0,0-3.3,1.9l1.7.7a1.766,1.766,0,0,1,1.7-.9,1.879,1.879,0,0,1,2,1.6v.1a3.967,3.967,0,0,0-1.9-.5c-1.8,0-3.6,1-3.6,2.8a2.93,2.93,0,0,0,3.1,2.8,2.814,2.814,0,0,0,2.4-1.2h.1v1h1.8V25.2A3.785,3.785,0,0,0,113.4,21.7Zm-.2,6.9c-.6,0-1.5-.3-1.5-1.1,0-1,1.1-1.3,2-1.3a3.867,3.867,0,0,1,1.7.4A2.329,2.329,0,0,1,113.2,28.6ZM123.7,22l-2.1,5.4h-.1L119.3,22h-2l3.3,7.6-1.9,4.2h1.9L125.7,22Zm-16.8,8h1.9V17.5h-1.9Z" fill="#fff"/>
    <g id="Group_247" data-name="Group 247">
      <path id="Path_108" data-name="Path 108" d="M10.4,7.5A1.955,1.955,0,0,0,10,8.9V31a1.978,1.978,0,0,0,.5,1.4l.1.1L23,20.1v-.2L10.4,7.5Z" fill="url(#linear-gradient)"/>
      <path id="Path_109" data-name="Path 109" d="M27,24.3l-4.1-4.1v-.3L27,15.8l.1.1L32,18.7c1.4.8,1.4,2.1,0,2.9l-5,2.7Z" fill="url(#linear-gradient-2)"/>
      <path id="Path_110" data-name="Path 110" d="M27.1,24.2,22.9,20,10.4,32.5c.5.5,1.2.5,2.1.1l14.6-8.4" fill="url(#linear-gradient-3)"/>
      <path id="Path_111" data-name="Path 111" d="M27.1,15.8,12.5,7.5a1.621,1.621,0,0,0-2.1.1L22.9,20Z" fill="url(#linear-gradient-4)"/>
      <g id="Group_246" data-name="Group 246">
        <path id="Path_112" data-name="Path 112" d="M27,24.1,12.5,32.3a1.635,1.635,0,0,1-2,0h0l-.1.1h0l.1.1h0a1.635,1.635,0,0,0,2,0L27,24.1Z" opacity="0.2" style="isolation: isolate"/>
        <path id="Path_113" data-name="Path 113" d="M10.4,32.3a1.955,1.955,0,0,1-.4-1.4V31a1.978,1.978,0,0,0,.5,1.4v-.1Z" opacity="0.12" style="isolation: isolate"/>
      </g>
      <path id="Path_114" data-name="Path 114" d="M32,21.3l-5,2.8.1.1L32,21.4A1.662,1.662,0,0,0,33,20h0C33,20.5,32.6,20.9,32,21.3Z" opacity="0.12" style="isolation: isolate"/>
      <path id="Path_115" data-name="Path 115" d="M12.5,7.6,32,18.7c.6.4,1,.8,1,1.3h0a1.662,1.662,0,0,0-1-1.4L12.5,7.5C11.1,6.7,10,7.3,10,8.9V9C10,7.5,11.1,6.8,12.5,7.6Z" fill="#fff" opacity="0.25" style="isolation: isolate"/>
    </g>
  </g>
  <g id="Group_249" data-name="Group 249">
    <path id="Path_116" data-name="Path 116" d="M43,13.1a1.5,1.5,0,0,1-1.1-.4,2.552,2.552,0,0,1-.7-1l.7-.3c.2.6.5.9,1.1.9a.984.984,0,0,0,.8-.3,1.222,1.222,0,0,0,.3-.9V7h.8v4.1a2.07,2.07,0,0,1-.5,1.5A1.741,1.741,0,0,1,43,13.1Z" fill="#fff" stroke="#fff" stroke-miterlimit="10" stroke-width="0.2"/>
    <path id="Path_117" data-name="Path 117" d="M49.7,7.7H47V9.6h2.5v.7H47v1.9h2.7V13H46.2V7h3.5Z" fill="#fff" stroke="#fff" stroke-miterlimit="10" stroke-width="0.2"/>
    <path id="Path_118" data-name="Path 118" d="M53,13h-.8V7.7H50.5V7h4.1v.7H53Z" fill="#fff" stroke="#fff" stroke-miterlimit="10" stroke-width="0.2"/>
    <path id="Path_119" data-name="Path 119" d="M55.3,13v-.8l3.2-4.5H55.4V7h4v.8l-3.2,4.5h3.2V13Z" fill="#fff" stroke="#fff" stroke-miterlimit="10" stroke-width="0.2"/>
    <path id="Path_120" data-name="Path 120" d="M62.5,13h-.8V7.7H60V7h4.1v.7H62.4V13Z" fill="#fff" stroke="#fff" stroke-miterlimit="10" stroke-width="0.2"/>
    <path id="Path_121" data-name="Path 121" d="M67.2,13V7h2.2a1.707,1.707,0,0,1,1.7,1.7,2.354,2.354,0,0,1-.2.8,1.024,1.024,0,0,1-.6.5h0a1.794,1.794,0,0,1,.7.5,1.222,1.222,0,0,1,.3.9,1.656,1.656,0,0,1-.5,1.2,2.836,2.836,0,0,1-1.3.4ZM68,9.6h1.4a.908.908,0,0,0,.7-.3.864.864,0,0,0,.3-.6,1.08,1.08,0,0,0-.3-.7.908.908,0,0,0-.7-.3H68Zm0,2.7h1.6a1.025,1.025,0,0,0,1-1,1.08,1.08,0,0,0-.3-.7.908.908,0,0,0-.7-.3H68Z" fill="#fff" stroke="#fff" stroke-miterlimit="10" stroke-width="0.2"/>
    <path id="Path_122" data-name="Path 122" d="M75.9,7.7H73.2V9.6h2.5v.7H73.2v1.9h2.7V13H72.4V7h3.5Z" fill="#fff" stroke="#fff" stroke-miterlimit="10" stroke-width="0.2"/>
    <path id="Path_123" data-name="Path 123" d="M77.1,13V7h.8v6Z" fill="#fff" stroke="#fff" stroke-miterlimit="10" stroke-width="0.2"/>
  </g>
</svg>
