<svg xmlns="http://www.w3.org/2000/svg" width="34.111" height="34.112" viewBox="0 0 34.111 34.112">
  <g id="instagram" transform="translate(-0.005)">
    <g id="Group_10" data-name="Group 10" transform="translate(0.005)">
      <g id="Group_9" data-name="Group 9" transform="translate(0)">
        <path id="Path_2" data-name="Path 2" d="M25.588,0H8.533A8.553,8.553,0,0,0,0,8.528V25.584a8.554,8.554,0,0,0,8.528,8.528H25.588a8.554,8.554,0,0,0,8.528-8.528V8.528A8.553,8.553,0,0,0,25.588,0Zm5.685,25.584a5.691,5.691,0,0,1-5.685,5.685H8.533a5.692,5.692,0,0,1-5.685-5.685V8.528A5.692,5.692,0,0,1,8.533,2.843H25.588a5.691,5.691,0,0,1,5.685,5.685V25.584Z" transform="translate(-0.005)" fill="#fff"/>
      </g>
    </g>
    <g id="Group_12" data-name="Group 12" transform="translate(24.168 5.685)">
      <g id="Group_11" data-name="Group 11">
        <circle id="Ellipse_3" data-name="Ellipse 3" cx="2.132" cy="2.132" r="2.132" fill="#fff"/>
      </g>
    </g>
    <g id="Group_14" data-name="Group 14" transform="translate(8.533 8.528)">
      <g id="Group_13" data-name="Group 13">
        <path id="Path_3" data-name="Path 3" d="M110.933,102.4a8.528,8.528,0,1,0,8.528,8.528A8.527,8.527,0,0,0,110.933,102.4Zm0,14.214a5.685,5.685,0,1,1,5.685-5.686A5.686,5.686,0,0,1,110.933,116.614Z" transform="translate(-102.405 -102.4)" fill="#fff"/>
      </g>
    </g>
  </g>
</svg>
