<svg id="circle-img" xmlns="http://www.w3.org/2000/svg" xmlns:xlink="http://www.w3.org/1999/xlink" width="181.977" height="182" viewBox="0 0 181.977 182">
  <defs>
    <clipPath id="clip-path">
      <rect id="Rectangle_16" data-name="Rectangle 16" width="181.977" height="182" fill="#e1ca5e"/>
    </clipPath>
  </defs>
  <path id="Path_25" data-name="Path 25" d="M5.984.188a4.918,4.918,0,0,1-3.816-1.57A5.824,5.824,0,0,1,.734-5.469,6.171,6.171,0,0,1,2.2-9.781a5.1,5.1,0,0,1,3.977-1.609A4.807,4.807,0,0,1,9.91-9.828a5.845,5.845,0,0,1,1.418,4.086A6.191,6.191,0,0,1,9.875-1.406,5.008,5.008,0,0,1,5.984.188ZM6.078-10.2A3.612,3.612,0,0,0,3.211-8.93a4.93,4.93,0,0,0-1.1,3.344A4.964,4.964,0,0,0,3.184-2.254a3.5,3.5,0,0,0,2.8,1.262A3.678,3.678,0,0,0,8.891-2.2,4.917,4.917,0,0,0,9.953-5.562a5.138,5.138,0,0,0-1.031-3.43A3.536,3.536,0,0,0,6.078-10.2Z" transform="translate(27.294 47.371) rotate(-50.553)" fill="#e1ca5e"/>
  <path id="Path_24" data-name="Path 24" d="M12.891,0h-1.3V-7.516q0-.891.109-2.18h-.031a6.969,6.969,0,0,1-.336,1.086L7.5,0H6.859L3.039-8.547A6.7,6.7,0,0,1,2.7-9.7H2.672q.062.672.063,2.2V0H1.469V-11.2H3.2L6.641-3.391a10,10,0,0,1,.516,1.344H7.2q.336-.922.539-1.375L11.25-11.2h1.641Z" transform="matrix(0.796, -0.605, 0.605, 0.796, 38.281, 34.477)" fill="#e1ca5e"/>
  <path id="Path_23" data-name="Path 23" transform="matrix(0.888, -0.459, 0.459, 0.888, 53.901, 23.602)" fill="#e1ca5e"/>
  <g id="Group_2" data-name="Group 2">
    <g id="Group_1" data-name="Group 1" clip-path="url(#clip-path)">
      <text id="U" transform="translate(60.7 20.024) rotate(-18.342)" fill="#e1ca5e" font-size="16" font-family="SegoeUI, Segoe UI"><tspan x="0" y="0">U</tspan></text>
      <text id="P" transform="matrix(0.993, -0.117, 0.117, 0.993, 76.319, 15.314)" fill="#e1ca5e" font-size="16" font-family="SegoeUI, Segoe UI"><tspan x="0" y="0">P</tspan></text>
      <text id="_" data-name=" " transform="translate(90.931 14.104) rotate(1.452)" fill="#e1ca5e" font-size="16" font-family="SegoeUI, Segoe UI"><tspan x="0" y="0"> </tspan></text>
      <text id="Y" transform="matrix(0.986, 0.169, -0.169, 0.986, 98.409, 14.274)" fill="#e1ca5e" font-size="16" font-family="SegoeUI, Segoe UI"><tspan x="0" y="0">Y</tspan></text>
    </g>
  </g>
  <path id="Path_22" data-name="Path 22" d="M5.984.188a4.918,4.918,0,0,1-3.816-1.57A5.824,5.824,0,0,1,.734-5.469,6.171,6.171,0,0,1,2.2-9.781a5.1,5.1,0,0,1,3.977-1.609A4.807,4.807,0,0,1,9.91-9.828a5.845,5.845,0,0,1,1.418,4.086A6.191,6.191,0,0,1,9.875-1.406,5.008,5.008,0,0,1,5.984.188ZM6.078-10.2A3.612,3.612,0,0,0,3.211-8.93a4.93,4.93,0,0,0-1.1,3.344A4.964,4.964,0,0,0,3.184-2.254a3.5,3.5,0,0,0,2.8,1.262A3.678,3.678,0,0,0,8.891-2.2,4.917,4.917,0,0,0,9.953-5.562a5.138,5.138,0,0,0-1.031-3.43A3.536,3.536,0,0,0,6.078-10.2Z" transform="matrix(0.932, 0.361, -0.361, 0.932, 112.506, 16.886)" fill="#e1ca5e"/>
  <path id="Path_21" data-name="Path 21" d="M9.664-4.531Q9.664.188,5.406.188q-4.078,0-4.078-4.539V-11.2H2.641v6.766q0,3.445,2.906,3.445,2.8,0,2.8-3.328V-11.2H9.664Z" transform="matrix(0.833, 0.553, -0.553, 0.833, 128.124, 23.39)" fill="#e1ca5e"/>
  <path id="Path_20" data-name="Path 20" d="M9.5,0H7.938L6.063-3.141a6.84,6.84,0,0,0-.5-.746,2.85,2.85,0,0,0-.5-.5,1.718,1.718,0,0,0-.547-.285,2.249,2.249,0,0,0-.66-.09H2.781V0H1.469V-11.2H4.813a4.765,4.765,0,0,1,1.355.184,3.033,3.033,0,0,1,1.078.559,2.6,2.6,0,0,1,.715.934,3.1,3.1,0,0,1,.258,1.309,3.151,3.151,0,0,1-.176,1.074,2.805,2.805,0,0,1-.5.871,3.031,3.031,0,0,1-.781.652A3.988,3.988,0,0,1,5.734-5.2v.031a2.363,2.363,0,0,1,.488.285,2.687,2.687,0,0,1,.395.379,5.019,5.019,0,0,1,.371.5q.184.277.41.645ZM2.781-10.016v4.063H4.563a2.7,2.7,0,0,0,.91-.148A2.107,2.107,0,0,0,6.2-6.527a1.931,1.931,0,0,0,.477-.68,2.275,2.275,0,0,0,.172-.9,1.756,1.756,0,0,0-.582-1.4,2.5,2.5,0,0,0-1.684-.5Z" transform="matrix(0.703, 0.711, -0.711, 0.703, 141.501, 32.77)" fill="#e1ca5e"/>
  <path id="Path_19" data-name="Path 19" transform="translate(151.944 44.136) rotate(53.895)" fill="#e1ca5e"/>
  <path id="Path_18" data-name="Path 18" d="M.945-.453V-2a3,3,0,0,0,.637.422,5.159,5.159,0,0,0,.781.316,6.219,6.219,0,0,0,.824.2,4.6,4.6,0,0,0,.766.07,3,3,0,0,0,1.809-.449,1.52,1.52,0,0,0,.6-1.293,1.518,1.518,0,0,0-.2-.789,2.244,2.244,0,0,0-.551-.613,5.465,5.465,0,0,0-.832-.531Q4.3-4.922,3.742-5.2q-.586-.3-1.094-.6a4.74,4.74,0,0,1-.883-.672,2.8,2.8,0,0,1-.59-.832A2.575,2.575,0,0,1,.961-8.4,2.563,2.563,0,0,1,1.3-9.73a2.881,2.881,0,0,1,.883-.934,4,4,0,0,1,1.246-.547,5.706,5.706,0,0,1,1.426-.18,5.464,5.464,0,0,1,2.414.4v1.477A4.376,4.376,0,0,0,4.719-10.2a4.189,4.189,0,0,0-.859.09,2.428,2.428,0,0,0-.766.293,1.7,1.7,0,0,0-.547.523,1.389,1.389,0,0,0-.211.781,1.608,1.608,0,0,0,.16.742,1.819,1.819,0,0,0,.473.57,4.708,4.708,0,0,0,.762.5q.449.242,1.035.531.6.3,1.141.625a5.214,5.214,0,0,1,.945.727,3.229,3.229,0,0,1,.645.883,2.482,2.482,0,0,1,.238,1.109,2.813,2.813,0,0,1-.324,1.4,2.661,2.661,0,0,1-.875.934,3.822,3.822,0,0,1-1.27.52A6.953,6.953,0,0,1,3.75.188,6.176,6.176,0,0,1,3.094.145Q2.7.1,2.3.02a6.5,6.5,0,0,1-.77-.2A2.4,2.4,0,0,1,.945-.453Z" transform="translate(156.466 50.362) rotate(62.18)" fill="#e1ca5e"/>
  <g id="Group_4" data-name="Group 4">
    <g id="Group_3" data-name="Group 3" clip-path="url(#clip-path)">
      <text id="O" transform="translate(163.007 63.263) rotate(73.922)" fill="#e1ca5e" font-size="16" font-family="SegoeUI, Segoe UI"><tspan x="0" y="0">O</tspan></text>
      <text id="U-2" data-name="U" transform="translate(167.291 79.679) rotate(86.328)" fill="#e1ca5e" font-size="16" font-family="SegoeUI, Segoe UI"><tspan x="0" y="0">U</tspan></text>
      <text id="L" transform="translate(167.849 95.976) rotate(97.154)" fill="#e1ca5e" font-size="16" font-family="SegoeUI, Segoe UI"><tspan x="0" y="0">L</tspan></text>
      <text id="_2" data-name=" " transform="matrix(-0.255, 0.967, -0.967, -0.255, 165.839, 108.732)" fill="#e1ca5e" font-size="16" font-family="SegoeUI, Segoe UI"><tspan x="0" y="0"> </tspan></text>
    </g>
  </g>
  <path id="Path_17" data-name="Path 17" d="M5.713-8.086l-2.007.41L5.1-5.9l-.806.557L3.149-7.28,1.992-5.339,1.187-5.9l1.392-1.78L.557-8.086.886-9l1.919.725L2.637-10.5H3.647L3.479-8.276,5.405-9Z" transform="matrix(-0.385, 0.923, -0.923, -0.385, 164.76, 116.499)" fill="#e1ca5e"/>
  <path id="Path_16" data-name="Path 16" transform="matrix(-0.508, 0.862, -0.862, -0.508, 158.282, 128.277)" fill="#e1ca5e"/>
  <path id="Path_15" data-name="Path 15" d="M5.984.188a4.918,4.918,0,0,1-3.816-1.57A5.824,5.824,0,0,1,.734-5.469,6.171,6.171,0,0,1,2.2-9.781a5.1,5.1,0,0,1,3.977-1.609A4.807,4.807,0,0,1,9.91-9.828a5.845,5.845,0,0,1,1.418,4.086A6.191,6.191,0,0,1,9.875-1.406,5.008,5.008,0,0,1,5.984.188ZM6.078-10.2A3.612,3.612,0,0,0,3.211-8.93a4.93,4.93,0,0,0-1.1,3.344A4.964,4.964,0,0,0,3.184-2.254a3.5,3.5,0,0,0,2.8,1.262A3.678,3.678,0,0,0,8.891-2.2,4.917,4.917,0,0,0,9.953-5.562a5.138,5.138,0,0,0-1.031-3.43A3.536,3.536,0,0,0,6.078-10.2Z" transform="matrix(-0.638, 0.77, -0.77, -0.638, 154.475, 134.903)" fill="#e1ca5e"/>
  <path id="Path_14" data-name="Path 14" d="M12.891,0h-1.3V-7.516q0-.891.109-2.18h-.031a6.969,6.969,0,0,1-.336,1.086L7.5,0H6.859L3.039-8.547A6.7,6.7,0,0,1,2.7-9.7H2.672q.062.672.063,2.2V0H1.469V-11.2H3.2L6.641-3.391a10,10,0,0,1,.516,1.344H7.2q.336-.922.539-1.375L11.25-11.2h1.641Z" transform="matrix(-0.798, 0.602, -0.602, -0.798, 143.425, 147.781)" fill="#e1ca5e"/>
  <path id="Path_13" data-name="Path 13" transform="translate(127.758 158.599) rotate(152.88)" fill="#e1ca5e"/>
  <g id="Group_6" data-name="Group 6">
    <g id="Group_5" data-name="Group 5" clip-path="url(#clip-path)">
      <text id="U-3" data-name="U" transform="translate(120.971 162.14) rotate(161.858)" fill="#e1ca5e" font-size="16" font-family="SegoeUI, Segoe UI"><tspan x="0" y="0">U</tspan></text>
      <text id="P-2" data-name="P" transform="matrix(-0.994, 0.114, -0.114, -0.994, 105.36, 166.791)" fill="#e1ca5e" font-size="16" font-family="SegoeUI, Segoe UI"><tspan x="0" y="0">P</tspan></text>
      <text id="_3" data-name=" " transform="translate(90.739 167.956) rotate(-178.367)" fill="#e1ca5e" font-size="16" font-family="SegoeUI, Segoe UI"><tspan x="0" y="0"> </tspan></text>
      <text id="Y-2" data-name="Y" transform="matrix(-0.985, -0.172, 0.172, -0.985, 83.269, 167.762)" fill="#e1ca5e" font-size="16" font-family="SegoeUI, Segoe UI"><tspan x="0" y="0">Y</tspan></text>
    </g>
  </g>
  <path id="Path_12" data-name="Path 12" d="M5.984.188a4.918,4.918,0,0,1-3.816-1.57A5.824,5.824,0,0,1,.734-5.469,6.171,6.171,0,0,1,2.2-9.781a5.1,5.1,0,0,1,3.977-1.609A4.807,4.807,0,0,1,9.91-9.828a5.845,5.845,0,0,1,1.418,4.086A6.191,6.191,0,0,1,9.875-1.406,5.008,5.008,0,0,1,5.984.188ZM6.078-10.2A3.612,3.612,0,0,0,3.211-8.93a4.93,4.93,0,0,0-1.1,3.344A4.964,4.964,0,0,0,3.184-2.254a3.5,3.5,0,0,0,2.8,1.262A3.678,3.678,0,0,0,8.891-2.2,4.917,4.917,0,0,0,9.953-5.562a5.138,5.138,0,0,0-1.031-3.43A3.536,3.536,0,0,0,6.078-10.2Z" transform="translate(69.155 165.099) rotate(-158.611)" fill="#e1ca5e"/>
  <path id="Path_11" data-name="Path 11" d="M9.664-4.531Q9.664.188,5.406.188q-4.078,0-4.078-4.539V-11.2H2.641v6.766q0,3.445,2.906,3.445,2.8,0,2.8-3.328V-11.2H9.664Z" transform="matrix(-0.831, -0.556, 0.556, -0.831, 53.541, 158.527)" fill="#e1ca5e"/>
  <path id="Path_10" data-name="Path 10" d="M9.5,0H7.938L6.063-3.141a6.84,6.84,0,0,0-.5-.746,2.85,2.85,0,0,0-.5-.5,1.718,1.718,0,0,0-.547-.285,2.249,2.249,0,0,0-.66-.09H2.781V0H1.469V-11.2H4.813a4.765,4.765,0,0,1,1.355.184,3.033,3.033,0,0,1,1.078.559,2.6,2.6,0,0,1,.715.934,3.1,3.1,0,0,1,.258,1.309,3.151,3.151,0,0,1-.176,1.074,2.805,2.805,0,0,1-.5.871,3.031,3.031,0,0,1-.781.652A3.988,3.988,0,0,1,5.734-5.2v.031a2.363,2.363,0,0,1,.488.285,2.687,2.687,0,0,1,.395.379,5.019,5.019,0,0,1,.371.5q.184.277.41.645ZM2.781-10.016v4.063H4.563a2.7,2.7,0,0,0,.91-.148A2.107,2.107,0,0,0,6.2-6.527a1.931,1.931,0,0,0,.477-.68,2.275,2.275,0,0,0,.172-.9,1.756,1.756,0,0,0-.582-1.4,2.5,2.5,0,0,0-1.684-.5Z" transform="translate(40.244 149.136) rotate(-134.489)" fill="#e1ca5e"/>
  <path id="Path_9" data-name="Path 9" transform="translate(29.815 137.716) rotate(-125.911)" fill="#e1ca5e"/>
  <path id="Path_8" data-name="Path 8" d="M.945-.453V-2a3,3,0,0,0,.637.422,5.159,5.159,0,0,0,.781.316,6.219,6.219,0,0,0,.824.2,4.6,4.6,0,0,0,.766.07,3,3,0,0,0,1.809-.449,1.52,1.52,0,0,0,.6-1.293,1.518,1.518,0,0,0-.2-.789,2.244,2.244,0,0,0-.551-.613,5.465,5.465,0,0,0-.832-.531Q4.3-4.922,3.742-5.2q-.586-.3-1.094-.6a4.74,4.74,0,0,1-.883-.672,2.8,2.8,0,0,1-.59-.832A2.575,2.575,0,0,1,.961-8.4,2.563,2.563,0,0,1,1.3-9.73a2.881,2.881,0,0,1,.883-.934,4,4,0,0,1,1.246-.547,5.706,5.706,0,0,1,1.426-.18,5.464,5.464,0,0,1,2.414.4v1.477A4.376,4.376,0,0,0,4.719-10.2a4.189,4.189,0,0,0-.859.09,2.428,2.428,0,0,0-.766.293,1.7,1.7,0,0,0-.547.523,1.389,1.389,0,0,0-.211.781,1.608,1.608,0,0,0,.16.742,1.819,1.819,0,0,0,.473.57,4.708,4.708,0,0,0,.762.5q.449.242,1.035.531.6.3,1.141.625a5.214,5.214,0,0,1,.945.727,3.229,3.229,0,0,1,.645.883,2.482,2.482,0,0,1,.238,1.109,2.813,2.813,0,0,1-.324,1.4,2.661,2.661,0,0,1-.875.934,3.822,3.822,0,0,1-1.27.52A6.953,6.953,0,0,1,3.75.188,6.176,6.176,0,0,1,3.094.145Q2.7.1,2.3.02a6.5,6.5,0,0,1-.77-.2A2.4,2.4,0,0,1,.945-.453Z" transform="matrix(-0.464, -0.886, 0.886, -0.464, 25.328, 131.499)" fill="#e1ca5e"/>
  <g id="Group_8" data-name="Group 8">
    <g id="Group_7" data-name="Group 7" clip-path="url(#clip-path)">
      <text id="O-2" data-name="O" transform="matrix(-0.273, -0.962, 0.962, -0.273, 18.805, 118.519)" fill="#e1ca5e" font-size="16" font-family="SegoeUI, Segoe UI"><tspan x="0" y="0">O</tspan></text>
      <text id="U-4" data-name="U" transform="matrix(-0.061, -0.998, 0.998, -0.061, 14.589, 102.135)" fill="#e1ca5e" font-size="16" font-family="SegoeUI, Segoe UI"><tspan x="0" y="0">U</tspan></text>
      <text id="L-2" data-name="L" transform="translate(14.085 85.841) rotate(-82.666)" fill="#e1ca5e" font-size="16" font-family="SegoeUI, Segoe UI"><tspan x="0" y="0">L</tspan></text>
      <text id="_4" data-name=" " transform="matrix(0.258, -0.966, 0.966, 0.258, 16.141, 73.067)" fill="#e1ca5e" font-size="16" font-family="SegoeUI, Segoe UI"><tspan x="0" y="0"> </tspan></text>
    </g>
  </g>
  <path id="Path_7" data-name="Path 7" d="M5.713-8.086l-2.007.41L5.1-5.9l-.806.557L3.149-7.28,1.992-5.339,1.187-5.9l1.392-1.78L.557-8.086.886-9l1.919.725L2.637-10.5H3.647L3.479-8.276,5.405-9Z" transform="translate(17.256 65.28) rotate(-67.16)" fill="#e1ca5e"/>
  <path id="Path_6" data-name="Path 6" transform="translate(23.75 53.581) rotate(-59.322)" fill="#e1ca5e"/>
  <path id="Path_5" data-name="Path 5" transform="translate(27.833 47.056) rotate(-53.595)" fill="#e1ca5e"/>
</svg>
