<svg xmlns="http://www.w3.org/2000/svg" width="29.97" height="34.112" viewBox="0 0 29.97 34.112">
  <g id="tik-tok" transform="translate(-31.423 -0.39)">
    <path id="Path_1" data-name="Path 1" d="M61.377,8.931A8.6,8.6,0,0,1,56.183,7.2,8.615,8.615,0,0,1,52.916,2,8.66,8.66,0,0,1,52.75.39H47.18V15.609l-.007,8.336a5.049,5.049,0,1,1-3.463-4.784V13.507a10.96,10.96,0,0,0-1.606-.119,10.68,10.68,0,0,0-8.025,3.589,10.467,10.467,0,0,0,.472,14.433,10.865,10.865,0,0,0,1.006.879A10.681,10.681,0,0,0,42.1,34.5a10.96,10.96,0,0,0,1.606-.118,10.645,10.645,0,0,0,5.947-2.974,10.428,10.428,0,0,0,3.128-7.421L52.757,11.54a14.113,14.113,0,0,0,8.636,2.935V8.93s-.015,0-.016,0Z" fill="#fff"/>
  </g>
</svg>
