<?xml version="1.0" encoding="utf-8"?>
<!-- Generator: Adobe Illustrator 27.4.1, SVG Export Plug-In . SVG Version: 6.00 Build 0)  -->
<svg version="1.1" id="Ebene_1" xmlns="http://www.w3.org/2000/svg" xmlns:xlink="http://www.w3.org/1999/xlink" x="0px" y="0px"
	 viewBox="0 0 50.139 48" style="enable-background:new 0 0 50.139 48;" xml:space="preserve">
<style type="text/css">
	.st0{fill:none;stroke:#000000;stroke-width:2;stroke-linejoin:round;}
	.st1{fill:none;stroke:#000000;stroke-width:2;stroke-linecap:round;stroke-linejoin:round;}
</style>
<g>
	<g id="Gruppe_1981">
		<path id="Pfad_714" class="st0" d="M11.496,28.136v6.236c0,1.713,0.363,3.117,2.079,3.117v9.356h6.236v-9.356
			c1.713,0,2.079-1.407,2.079-3.117v-6.236H11.496z"/>
		<circle id="Ellipse_94" class="st0" cx="16.693" cy="20.861" r="3.118"/>
		<path id="Pfad_715" class="st0" d="M28.126,28.136v6.236c0,1.713,0.363,3.117,2.079,3.117v9.356h6.236v-9.356
			c1.713,0,2.079-1.407,2.079-3.117v-6.236H28.126z"/>
		<circle id="Ellipse_95" class="st0" cx="33.323" cy="20.861" r="3.118"/>
		<line id="Linie_339" class="st1" x1="7.339" y1="23.979" x2="7.339" y2="46.845"/>
		<line id="Linie_340" class="st1" x1="42.677" y1="23.979" x2="42.677" y2="46.845"/>
		<path id="Pfad_716" class="st1" d="M1.103,22.94L25.008,1.113L48.913,22.94"/>
	</g>
</g>
</svg>
