<?xml version="1.0" encoding="utf-8"?>
<!-- Generator: Adobe Illustrator 27.4.1, SVG Export Plug-In . SVG Version: 6.00 Build 0)  -->
<svg version="1.1" id="Ebene_1" xmlns="http://www.w3.org/2000/svg" xmlns:xlink="http://www.w3.org/1999/xlink" x="0px" y="0px"
	 viewBox="0 0 48 48" style="enable-background:new 0 0 48 48;" xml:space="preserve">
<style type="text/css">
	.st0{clip-path:url(#SVGID_00000021121414401639202780000010251172812822710420_);}
	.st1{fill:#DC091D;}
	.st2{fill:#003F8F;}
	.st3{fill:#FAFAFA;}
	.st4{fill:#FFFFFF;}
	.st5{clip-path:url(#SVGID_00000020362953080475607030000009152224335880978573_);}
</style>
<g id="Gruppe_393">
	<g>
		<defs>
			<path id="SVGID_1_" d="M-0.016,24.008c0.001,13.255,10.748,23.999,24.002,23.998c13.255-0.001,23.999-10.748,23.998-24.002
				c-0.001-13.254-10.746-23.998-24-23.998c-13.255,0-24,10.745-24,24C-0.016,24.006-0.016,24.007-0.016,24.008"/>
		</defs>
		<clipPath id="SVGID_00000042736813152233416460000012787730878226510495_">
			<use xlink:href="#SVGID_1_"  style="overflow:visible;"/>
		</clipPath>
		<g id="Gruppe_392" style="clip-path:url(#SVGID_00000042736813152233416460000012787730878226510495_);">
			<rect id="Rechteck_130" x="-1.757" y="31.479" class="st1" width="74.441" height="16.543"/>
			<rect id="Rechteck_131" x="-1.757" y="14.938" class="st2" width="74.441" height="16.543"/>
			<rect id="Rechteck_132" x="-1.757" y="-1.605" class="st3" width="74.441" height="16.543"/>
			<path id="Pfad_167" class="st4" d="M24.401,36.731C19.955,34.59,13.59,30.336,13.59,21.924s0.403-12.239,0.403-12.239H34.81
				c0,0,0.403,3.827,0.403,12.239S28.848,34.59,24.401,36.731"/>
			<path id="Pfad_168" class="st1" d="M24.401,35.615c-4.083-1.965-9.919-5.867-9.919-13.587S14.852,10.8,14.852,10.8h19.097
				c0,0,0.369,3.511,0.369,11.228s-5.836,11.619-9.919,13.587"/>
		</g>
	</g>
</g>
<g id="Gruppe_395" transform="translate(6.012 4.478)">
	<g>
		<defs>
			<path id="SVGID_00000151511320531872296560000002568949601053544589_" d="M18.389,6.326H8.835c0,0-0.369,3.509-0.369,11.228
				s5.838,11.619,9.919,13.587c4.083-1.965,9.919-5.87,9.919-13.587S27.935,6.326,27.935,6.326H18.389z"/>
		</defs>
		<clipPath id="SVGID_00000119106002409794548280000008472021192058872225_">
			<use xlink:href="#SVGID_00000151511320531872296560000002568949601053544589_"  style="overflow:visible;"/>
		</clipPath>
		<g id="Gruppe_394" style="clip-path:url(#SVGID_00000119106002409794548280000008472021192058872225_);">
			<path id="Pfad_170" class="st4" d="M19.262,15.531c1.747,0.093,3.497-0.104,5.18-0.581c0,0-0.051,0.687-0.051,1.486
				c0,0.798,0.051,1.488,0.051,1.488c-1.685-0.466-3.433-0.663-5.18-0.586v4.264h-1.746v-4.264c-1.747-0.077-3.495,0.12-5.18,0.586
				c0,0,0.051-0.687,0.051-1.488c0-0.801-0.051-1.486-0.051-1.486c1.683,0.477,3.433,0.673,5.18,0.581v-2.677
				c-1.39-0.039-2.777,0.16-4.1,0.588c0,0,0.051-0.687,0.051-1.488c0-0.801-0.051-1.488-0.051-1.488
				c1.323,0.428,2.71,0.627,4.1,0.588c-0.077-1.29-0.259-2.572-0.545-3.832c0,0,1.018,0.08,1.423,0.08s1.423-0.08,1.423-0.08
				c-0.287,1.257-0.471,2.535-0.55,3.822c1.39,0.039,2.777-0.16,4.1-0.588c0,0-0.051,0.687-0.051,1.488
				c0,0.801,0.051,1.488,0.051,1.488c-1.323-0.428-2.71-0.627-4.1-0.588L19.262,15.531z"/>
			<path id="Pfad_171" class="st2" d="M18.209,33.669L9.754,26.13c0,0,1.083-3.497,3.193-3.497c0.958-0.02,1.845,0.504,2.289,1.353
				c0,0,1.1-2.85,3.154-2.85s3.157,2.85,3.157,2.85c0.444-0.849,1.331-1.374,2.289-1.353c2.11,0,3.193,3.497,3.193,3.497
				L18.209,33.669z"/>
		</g>
	</g>
</g>
</svg>
