<?xml version="1.0" encoding="utf-8"?>
<!-- Generator: Adobe Illustrator 27.4.1, SVG Export Plug-In . SVG Version: 6.00 Build 0)  -->
<svg version="1.1" id="Ebene_1" xmlns="http://www.w3.org/2000/svg" xmlns:xlink="http://www.w3.org/1999/xlink" x="0px" y="0px"
	 viewBox="0 0 48 48" style="enable-background:new 0 0 48 48;" xml:space="preserve">
<style type="text/css">
	.st0{clip-path:url(#SVGID_00000150792679825040045510000017859286615731311269_);}
	.st1{fill:#D80018;}
	.st2{fill:#283C80;}
	.st3{fill:#FAFAFA;}
	.st4{fill:none;stroke:#FFFFFF;stroke-width:0.057;stroke-miterlimit:2.5;}
</style>
<g id="Gruppe_853_00000074437214307906176450000010918794272900495260_" transform="translate(19.804) rotate(90)">
	<g>
		<defs>
			<path id="SVGID_1_" d="M0.005-4.18c0,13.255,10.745,24,24,24s24-10.745,24-24s-10.745-24-24-24c0,0,0,0,0,0
				C10.751-28.18,0.005-17.435,0.005-4.18"/>
		</defs>
		<clipPath id="SVGID_00000119808039692733048450000010339839443266895509_">
			<use xlink:href="#SVGID_1_"  style="overflow:visible;"/>
		</clipPath>
		
			<g id="Gruppe_401_00000160182214203188030880000016558894280190659500_" transform="translate(0 0)" style="clip-path:url(#SVGID_00000119808039692733048450000010339839443266895509_);">
			
				<rect id="Rechteck_135_00000130625742885597608240000017665672668720588708_" x="17.613" y="-56.702" transform="matrix(2.535182e-06 1 -1 2.535182e-06 5.4614 -45.9166)" class="st1" width="16.153" height="72.948"/>
			
				<rect id="Rechteck_136_00000071556269961368466380000012334475379312033430_" x="17.613" y="-24.396" transform="matrix(2.535182e-06 1 -1 2.535182e-06 37.7669 -13.6112)" class="st2" width="16.153" height="72.948"/>
			
				<rect id="Rechteck_137_00000143606732466879553740000014536483414928082849_" x="17.613" y="-40.549" transform="matrix(2.535182e-06 1 -1 2.535182e-06 21.6142 -29.7639)" class="st3" width="16.153" height="72.948"/>
			
				<rect id="Rechteck_138_00000183952903394768576640000016152532233166076302_" x="17.613" y="-40.549" transform="matrix(2.535182e-06 1 -1 2.535182e-06 21.6142 -29.7639)" class="st4" width="16.153" height="72.948"/>
		</g>
	</g>
</g>
</svg>
