<?xml version="1.0" encoding="utf-8"?>
<!-- Generator: Adobe Illustrator 27.4.1, SVG Export Plug-In . SVG Version: 6.00 Build 0)  -->
<svg version="1.1" id="Ebene_1" xmlns="http://www.w3.org/2000/svg" xmlns:xlink="http://www.w3.org/1999/xlink" x="0px" y="0px"
	 viewBox="0 0 48 48" style="enable-background:new 0 0 48 48;" xml:space="preserve">
<style type="text/css">
	.st0{clip-path:url(#SVGID_00000003074790270078174100000001179919104989829296_);}
	.st1{fill:#EE1C25;}
	.st2{fill:#FFFF00;}
</style>
<g>
	<defs>
		<rect id="SVGID_1_" x="-0.016" y="0.005" width="48" height="48"/>
	</defs>
	<clipPath id="SVGID_00000029764275299039214290000009042065000920623746_">
		<use xlink:href="#SVGID_1_"  style="overflow:visible;"/>
	</clipPath>
	<g id="Gruppe_1884" style="clip-path:url(#SVGID_00000029764275299039214290000009042065000920623746_);">
		<path id="Pfad_655" class="st1" d="M23.984,0.005c13.255,0,24,10.745,24,24s-10.745,24-24,24s-24-10.745-24-24
			S10.729,0.005,23.984,0.005"/>
		<path id="Pfad_656" class="st2" d="M14.989,6.965l5.254,16.174L6.488,13.145H23.49L9.735,23.139L14.989,6.965z"/>
		<path id="Pfad_657" class="st2" d="M31.052,4.229l-0.497,5.645l-2.916-4.86l5.215,2.218l-5.52,1.272L31.052,4.229z"/>
		<path id="Pfad_658" class="st2" d="M37.983,10.856l-2.64,5.009l-0.802-5.609l3.946,4.068l-5.582-0.96L37.983,10.856z"/>
		<path id="Pfad_659" class="st2" d="M38.643,20.845l-4.462,3.494l1.562-5.45l1.944,5.323l-4.709-3.163L38.643,20.845z"/>
		<path id="Pfad_660" class="st2" d="M30.944,25.037l-0.264,5.662l-3.12-4.735l5.302,1.999l-5.465,1.5L30.944,25.037z"/>
	</g>
</g>
</svg>
