<?xml version="1.0" encoding="utf-8"?>
<!-- Generator: Adobe Illustrator 27.4.1, SVG Export Plug-In . SVG Version: 6.00 Build 0)  -->
<svg version="1.1" id="Ebene_1" xmlns="http://www.w3.org/2000/svg" xmlns:xlink="http://www.w3.org/1999/xlink" x="0px" y="0px"
	 viewBox="0 0 48 48" style="enable-background:new 0 0 48 48;" xml:space="preserve">
<style type="text/css">
	.st0{clip-path:url(#SVGID_00000092420701140215088910000009888957417046422933_);}
	.st1{fill:#005430;}
	.st2{fill:#FFFFFF;}
</style>
<g>
	<defs>
		<rect id="SVGID_1_" x="-0.016" y="0.005" width="48" height="48"/>
	</defs>
	<clipPath id="SVGID_00000162352725143355685050000001981892005429584551_">
		<use xlink:href="#SVGID_1_"  style="overflow:visible;"/>
	</clipPath>
	<g id="Gruppe_1890-2" style="clip-path:url(#SVGID_00000162352725143355685050000001981892005429584551_);">
		<path id="Pfad_673" class="st1" d="M23.984,0.005c13.255,0,24,10.745,24,24s-10.745,24-24,24s-24-10.745-24-24
			S10.729,0.005,23.984,0.005"/>
		<path id="Pfad_674" class="st2" d="M44.072,18.2c0-0.902-0.355-3.334-0.444-4.147c-0.089-0.814-0.178-1.555-0.156-1.728
			c0.022-0.173,0.278,0.24,0.413,0.264c0.072-0.014,0.041-0.266-0.089-0.48c-0.086-0.146-0.382-0.694-0.559-1.013
			c-0.084-0.154-0.103-0.24-0.144-0.259c-0.159,0.215-0.271,0.46-0.331,0.72c0.104,0.121,0.162,0.275,0.166,0.434
			c0.012,0.24,0.134,1.92,0.29,3.194c0.118,0.96,0.374,3.038,0.384,4.32c0.009,0.333-0.025,0.665-0.101,0.989
			c-0.144,0.262-0.37,0.499-1.2,0.989c-0.941,0.552-2.196,1.01-2.736,1.315c-0.334,0.192-0.223,0.218,0.07,0.134
			c0.855-0.168,1.699-0.389,2.527-0.662c0.664-0.286,1.192-0.819,1.471-1.486c0.357-0.811,0.51-1.698,0.444-2.582"/>
		<path id="Pfad_675" class="st2" d="M41.161,11.345c0.277-0.042,0.558-0.05,0.838-0.026c-0.108,0.154-0.828,0.48-0.833,0.552
			c0.224-0.009,0.444-0.058,0.65-0.144c0.09-0.065,0.171-0.141,0.24-0.228c0.173-0.197,0.377-0.566,0.326-0.612
			c-0.336-0.05-0.676-0.054-1.013-0.012c-0.072,0-0.257,0.338-0.29,0.422s0.012,0.077,0.084,0.048"/>
		<path id="Pfad_676" class="st2" d="M42.39,16.695c0.143-0.485,0.138-1.001-0.014-1.483c-0.16-0.462-0.491-0.846-0.924-1.073
			l-0.058,0.538c0.315,0.181,0.572,0.449,0.742,0.77c0.219,0.432,0.262,0.932,0.12,1.394C42.231,16.978,42.327,16.904,42.39,16.695"
			/>
		<path id="Pfad_677" class="st2" d="M37.729,19.39c0.129-0.436,0.125-0.901-0.012-1.334c-0.147-0.414-0.444-0.756-0.833-0.96
			l-0.053,0.48c0.284,0.163,0.516,0.402,0.67,0.691c0.195,0.39,0.234,0.84,0.108,1.258c-0.024,0.122,0.065,0.055,0.12-0.132"/>
		<path id="Pfad_678" class="st2" d="M21.546,12.068c0.208,0.41,0.248,0.885,0.113,1.325c-0.022,0.13,0.07,0.06,0.13-0.139
			c0.134-0.461,0.129-0.951-0.014-1.409c-0.153-0.439-0.468-0.804-0.881-1.02l-0.053,0.511c0.298,0.169,0.542,0.419,0.706,0.72"/>
		<path id="Pfad_679" class="st2" d="M10.621,12.245c0.171,0.438,0.143,0.928-0.077,1.344c-0.048,0.127,0.07,0.067,0.168-0.125
			c0.227-0.436,0.3-0.936,0.209-1.418c-0.114-0.475-0.414-0.885-0.833-1.138l-0.142,0.506c0.303,0.203,0.54,0.49,0.682,0.826"/>
		<path id="Pfad_680" class="st2" d="M13.64,20.225c0.177-0.317,0.3-0.662,0.362-1.02c0.069-0.412,0.087-0.831,0.053-1.248
			c0.578-0.24,1.27-0.629,1.502-0.658c-0.133,0.442,0.117,0.908,0.558,1.041c0.138,0.042,0.285,0.047,0.426,0.015
			c0.06,0.617,0.11,1.159,0.139,1.478c0.062,0.66,0.053,1.488,0.053,1.632s0.101,0.118,0.209-0.204
			c0.153-0.759,0.199-1.535,0.137-2.306c-0.014-0.185-0.034-0.437-0.06-0.72c0.497-0.24,0.578-0.672,0.763-0.862
			c0.168,0.588,1.09,0.667,1.375,0.542c0.353-0.156,0.48-0.437,0.559-1.087c0.1-0.352-0.004-0.731-0.269-0.984
			c0,0.079-0.24,0.842-0.24,0.842s0.218,0.24,0.228,0.346c-0.263,0.159-0.584,0.184-0.869,0.07c-0.317-0.103-0.413-0.293-0.394-0.42
			c0.019-0.127,0.137-0.24,0.142-0.398c0.005-0.158-0.072-0.11-0.199,0.029c-0.147,0.17-0.275,0.356-0.382,0.554
			c-0.159,0.312-0.445,0.539-0.785,0.622c-0.067-0.72-0.144-1.464-0.197-1.937c-0.026-0.24-0.295-2.4-0.314-2.652
			c-0.019-0.252-0.048-0.458-0.043-0.576c0.005-0.118,0.062-0.055,0.154,0.043s0.24,0.264,0.276,0.252
			c0.091-0.046,0-0.326-0.122-0.578c-0.178-0.442-0.384-0.871-0.617-1.286c-0.153,0.219-0.267,0.463-0.338,0.72
			c0.112,0.155,0.169,0.342,0.161,0.533c0,0.094,0.06,0.982,0.144,1.819c0.074,0.742,0.17,1.44,0.18,1.526
			c0.067,0.564,0.149,1.361,0.226,2.146c-0.444-0.086-0.562-0.379-0.552-0.545c0.01-0.166,0.096-0.403,0.055-0.451
			c-0.454,0.131-0.892,0.312-1.306,0.54c-0.199,0.086-0.425,0.178-0.662,0.266c-0.062-0.535-0.144-1.042-0.175-1.44v-0.043
			c0.392-0.016,0.761-0.189,1.025-0.48c0.24-0.392,0.372-0.841,0.384-1.301c-0.071-0.521-0.216-1.029-0.43-1.51
			c-0.062-0.171-0.108-0.347-0.137-0.526c0-0.089,0.192,0.103,0.319,0.142c0.086,0.017,0.055-0.17-0.048-0.298
			c-0.103-0.127-0.665-0.979-0.706-0.919c-0.102,0.248-0.19,0.501-0.264,0.758c0.115,0.092,0.187,0.227,0.199,0.374
			c0.05,0.412,0.14,0.818,0.269,1.212c0.176,0.424,0.326,0.858,0.449,1.301c-0.339,0.239-0.742,0.373-1.157,0.384
			c-0.082-0.662-0.182-1.44-0.24-1.973c-0.017-0.183-0.023-0.366-0.019-0.55c0-0.094,0.07-0.082,0.161,0.014
			c0.091,0.096,0.24,0.24,0.264,0.223s0-0.24-0.118-0.48c-0.211-0.464-0.451-0.914-0.72-1.346c-0.132,0.214-0.228,0.448-0.283,0.694
			c0.115,0.152,0.175,0.338,0.17,0.528c0,0.269,0.139,1.586,0.252,2.746c-0.435-0.224-0.701-0.678-0.684-1.166
			c-0.022-0.593-0.085-1.184-0.187-1.769c-0.068-0.335-0.225-0.645-0.456-0.898c-0.048,0.115-0.264,0.833-0.264,0.833
			c0.171,0.483,0.266,0.988,0.283,1.5c0.094,0.627-0.188,1.25-0.72,1.594c-0.629,0.425-1.484,0.259-1.909-0.37
			c-0.004-0.005-0.007-0.011-0.011-0.016c-0.24-0.634,0.305-2.218,0.295-2.592c-0.01-0.374-0.072-0.425-0.24-0.365
			c-0.341,0.259-0.601,0.61-0.751,1.01c-0.225,0.59-0.409,1.195-0.552,1.81c-0.156,0.494-0.406,0.994-0.792,0.96
			c-0.386-0.034-0.595-0.382-0.72-0.893c-0.077-0.45-0.077-0.909,0-1.358c0.079-0.432-0.108-0.343-0.221,0.336
			c-0.119,0.595-0.082,1.211,0.108,1.788c0.24,0.701,0.672,0.96,1.044,0.871c0.372-0.089,0.698-0.96,0.814-1.351
			s0.631-2.129,0.922-2.215c0.041,0.197-0.226,0.828-0.312,1.565c-0.086,0.737,0.115,1.73,1.051,1.903
			c0.722,0.122,1.442-0.228,1.793-0.871c0.184-0.338,0.307-0.706,0.365-1.087c0.04,0.741,0.49,1.397,1.166,1.702l0.079,0.022
			c0.046,0.463,0.12,1.07,0.19,1.704c-0.147,0.046-0.294,0.087-0.439,0.122c-0.018-0.06-0.04-0.118-0.065-0.175
			c-0.24-0.494-0.61-0.948-1.135-0.917c-0.607,0.134-1.054,0.652-1.097,1.272c0.017,0.35,0.211,0.641,0.917,0.72
			c0.34,0.027,0.683,0.001,1.015-0.079c0.05,0.136,0.078,0.278,0.084,0.422c-0.978,0.882-2.167,1.498-3.451,1.788
			c-1.385,0.132-1.805-0.593-1.819-1.32c0.045-0.538,0.238-1.053,0.557-1.488c0.298-0.223,0.561-0.488,0.782-0.787l0.134,0.079
			c0.102,0.055,0.185,0.138,0.24,0.24c0.031-0.046,0.173-0.302,0.118-0.427c-0.094-0.075-0.194-0.142-0.3-0.199
			c0.158-0.394,0.156-0.785-0.048-0.874c-0.204-0.089-0.528,0.173-0.658,0.338c-0.059,0.075-0.091,0.168-0.091,0.264
			c0.001,0.119,0.066,0.228,0.17,0.286c0.122,0.084,0.24,0.158,0.341,0.226c-0.449,0.398-0.935,0.752-1.452,1.056
			c-0.017-0.038-0.082,0-0.168,0.103L6.997,18.19c-0.348,0.214-1.186,0.682-1.349,0.797c-0.163,0.115-0.062,0.094,0,0.067
			c0.115-0.062,0.269-0.137,0.439-0.221l0.799-0.389c-0.091,0.154-0.171,0.315-0.24,0.48c-0.329,0.775-0.862,2.386,0.29,3.36
			c1.458,0.809,3.26,0.656,4.56-0.389c0.827-0.395,1.563-0.958,2.16-1.654 M8.543,16.402c-0.055-0.038-0.062-0.094-0.017-0.13
			c0.06-0.054,0.133-0.092,0.211-0.11c0.173-0.031,0.24,0.168,0.173,0.48C8.778,16.561,8.641,16.477,8.543,16.402 M12.143,17.717
			c-0.797,0-0.835-0.142-0.818-0.24c0.094-0.205,0.336-0.295,0.541-0.201c0.006,0.003,0.012,0.006,0.018,0.009
			c0.167,0.104,0.311,0.241,0.422,0.403h-0.182 M9.678,21.91c-1.51,0.415-2.974-0.226-3.07-1.49
			c-0.042-0.736,0.135-1.467,0.509-2.102c0.216-0.106,0.422-0.211,0.59-0.302c-0.427,0.653-0.597,1.44-0.48,2.21
			c0.173,0.816,0.886,1.313,2.09,1.152c1.209-0.305,2.327-0.894,3.262-1.718c0.154-0.17,0.277-0.366,0.365-0.578
			c0.069-0.141,0.119-0.29,0.149-0.444c0.019-0.118,0.03-0.238,0.031-0.358c0.139-0.041,0.281-0.089,0.422-0.139
			c0.048,0.518,0.082,1.03,0.084,1.471c-1.099,1.094-2.461,1.885-3.955,2.299"/>
		<path id="Pfad_681" class="st2" d="M36.078,18.596c-0.05-0.845-0.175-2.376-0.24-3.151c-0.062-0.691-0.182-1.639-0.269-2.472
			c-0.017-0.175-0.025-0.352-0.022-0.528c0-0.091,0.094-0.058,0.187,0.038s0.24,0.214,0.264,0.199
			c0.089-0.046-0.019-0.278-0.146-0.528c-0.21-0.456-0.45-0.897-0.72-1.32c-0.135,0.223-0.233,0.466-0.293,0.72
			c0.116,0.151,0.177,0.337,0.173,0.528c0.012,0.336,0.182,1.889,0.307,3.144c0.084,0.871,0.194,2.294,0.274,3.36
			c0,0,0.077,1.022,0.086,1.135c0.048,0.66,0.022,1.488,0.017,1.632s0.101,0.12,0.216-0.202c0.135-0.563,0.198-1.14,0.19-1.718
			L36.078,18.596z"/>
		<path id="Pfad_682" class="st2" d="M31.791,15.637c-0.154,0.048-0.398-0.118-0.379-0.458c0.035-0.269,0.103-0.532,0.202-0.785
			c0.07-0.252,0.07-0.497,0.012-0.358c-0.199,0.417-0.348,0.857-0.442,1.31c-0.05,0.406,0.079,0.665,0.257,0.754
			c0.226,0.113,0.384-0.065,0.48-0.326s0.084-0.54,0.012-0.48s-0.082,0.312-0.158,0.336"/>
		<path id="Pfad_683" class="st2" d="M29.569,16.885c0.082-0.218,0.101-0.432,0.038-0.314c-0.202,0.355-0.363,0.732-0.48,1.123
			c-0.077,0.353,0.017,0.59,0.166,0.682c0.187,0.113,0.343-0.031,0.458-0.254c0.115-0.223,0.118-0.48,0.048-0.415
			s-0.098,0.269-0.166,0.286c-0.139,0.029-0.341-0.13-0.298-0.432c0.053-0.233,0.134-0.46,0.24-0.674"/>
		<path id="Pfad_684" class="st2" d="M23.089,21.485c0.137-0.223,0.206-0.454,0.11-0.336c-0.301,0.348-0.562,0.729-0.778,1.135
			c-0.161,0.372-0.11,0.65,0.034,0.778c0.18,0.158,0.382,0.029,0.557-0.192s0.24-0.494,0.142-0.446
			c-0.098,0.048-0.163,0.276-0.24,0.281c-0.158,0-0.343-0.204-0.24-0.526c0.109-0.246,0.246-0.479,0.408-0.694"/>
		<path id="Pfad_685" class="st2" d="M34.448,14.989c-0.158,0.038-0.389-0.137-0.35-0.48c0.048-0.266,0.128-0.524,0.24-0.77
			c0.086-0.24,0.101-0.48,0.034-0.358c-0.222,0.407-0.394,0.839-0.514,1.286c-0.077,0.403,0.038,0.67,0.211,0.768
			c0.216,0.122,0.386-0.046,0.509-0.302s0.118-0.535,0.041-0.48c-0.077,0.055-0.101,0.305-0.178,0.326"/>
		<path id="Pfad_686" class="st2" d="M34.4,19.181c0.216,0.122,0.386-0.046,0.509-0.302s0.118-0.535,0.041-0.48
			c-0.077,0.055-0.101,0.307-0.178,0.326c-0.158,0.041-0.391-0.137-0.35-0.48c0.049-0.266,0.129-0.526,0.24-0.773
			c0.086-0.24,0.101-0.48,0.034-0.358c-0.222,0.407-0.394,0.839-0.514,1.286c-0.077,0.403,0.038,0.67,0.211,0.768"/>
		<path id="Pfad_687" class="st2" d="M37.151,13.825c0.103-0.302,0.122-0.595,0.038-0.432c-0.266,0.493-0.474,1.015-0.619,1.555
			c-0.094,0.48,0.046,0.811,0.257,0.929c0.259,0.149,0.466-0.055,0.617-0.365s0.139-0.648,0.048-0.569s-0.122,0.372-0.216,0.394
			c-0.19,0.048-0.48-0.166-0.425-0.578C36.913,14.436,37.014,14.123,37.151,13.825"/>
		<path id="Pfad_688" class="st2" d="M15.164,19.035c0.17-0.367,0.24-0.734,0.106-0.54c-0.399,0.59-0.729,1.224-0.984,1.889
			c-0.18,0.6-0.048,1.022,0.202,1.2c0.307,0.214,0.593-0.017,0.823-0.391c0.23-0.374,0.262-0.802,0.137-0.72
			s-0.204,0.456-0.324,0.48c-0.24,0.041-0.571-0.259-0.458-0.773c0.121-0.399,0.288-0.783,0.499-1.142"/>
		<path id="Pfad_689" class="st2" d="M38.903,22.678c0.13-0.106,1.26-0.72,1.466-0.838c0,0,0.214-0.348,0.151-0.384
			c-0.062-0.036-0.48,0.338-0.734,0.348c-0.254,0.01-0.607-0.178-0.619-0.334c0.11-0.151,0.271-0.257,0.454-0.298
			c0.113,0,0.094,0.24,0.132,0.278c0.038,0.038,0.185-0.175,0.204-0.262s0-0.444-0.202-0.394c-0.376,0.188-0.681,0.494-0.866,0.871
			c-0.055,0.19,0.24,0.353,0.466,0.442c-0.105,0.048-0.203,0.112-0.288,0.19C38.982,22.411,38.926,22.541,38.903,22.678"/>
		<path id="Pfad_690" class="st2" d="M35.051,23.432c0.13-0.106,1.26-0.72,1.466-0.838c0,0,0.214-0.348,0.151-0.384
			c-0.062-0.036-0.48,0.338-0.734,0.348s-0.607-0.178-0.619-0.334c0.11-0.151,0.271-0.257,0.454-0.298
			c0.113,0,0.094,0.24,0.132,0.278c0.038,0.038,0.185-0.175,0.204-0.262c0.019-0.086,0-0.444-0.202-0.394
			c-0.376,0.189-0.68,0.495-0.866,0.871c-0.055,0.19,0.24,0.353,0.463,0.442c-0.104,0.048-0.201,0.112-0.286,0.19
			C35.13,23.164,35.074,23.294,35.051,23.432"/>
		<path id="Pfad_691" class="st2" d="M26.384,12.524c0.101,0.118,0.766,0.96,1.284,1.49c0.518,0.53,1.411,1.39,2.066,1.978
			c0.125,0.115,0.259,0.24,0.396,0.367c0.166,1.267,0.358,2.88,0.437,3.545c0.079,0.665,0.091,1.488,0.094,1.632
			c0.002,0.144,0.106,0.115,0.204-0.211c0.132-0.762,0.158-1.538,0.077-2.306c-0.043-0.461-0.146-1.322-0.24-2.117
			c0.386,0.382,0.754,0.761,0.998,1.044c0.435,0.428,0.795,0.926,1.066,1.474c0.163,0.396,0.146,0.72,0.214,0.773
			s0.122-0.42,0.05-0.881c-0.115-0.744-0.276-1.061-1.234-2.126c-0.365-0.408-0.794-0.833-1.214-1.231
			c-0.017-0.122-0.031-0.24-0.046-0.336c-0.031-0.24-0.358-2.4-0.382-2.64c-0.024-0.24-0.06-0.456-0.058-0.574
			c0.002-0.118,0.062-0.058,0.154,0.038c0.091,0.096,0.254,0.259,0.283,0.24c0.089-0.046-0.012-0.324-0.139-0.574
			c-0.189-0.438-0.405-0.864-0.648-1.274c-0.145,0.221-0.253,0.464-0.319,0.72c0.116,0.151,0.177,0.337,0.173,0.528
			c0,0.094,0.086,0.979,0.192,1.817c0.094,0.737,0.206,1.44,0.218,1.519l0,0c-0.434-0.396-0.816-0.732-1.049-0.943
			c-0.643-0.564-1.24-1.178-1.786-1.836c0-0.055,0.082-0.019,0.24,0c0.158,0.019,0.324,0.086,0.298,0
			c-0.053-0.103-0.137-0.187-0.24-0.24c-0.163-0.101-0.583-0.362-0.893-0.547c-0.31-0.185-0.468-0.341-0.533-0.298
			c-0.02,0.245-0.015,0.492,0.014,0.737c0.126,0.036,0.237,0.112,0.317,0.216"/>
		<path id="Pfad_692" class="st2" d="M27.227,11.381c0.32-0.025,0.642-0.013,0.96,0.034c-0.094,0.065-0.72,0.379-0.838,0.454
			c-0.118,0.074-0.154,0.118-0.091,0.11c0.262-0.048,0.52-0.119,0.77-0.211c0.237-0.185,0.444-0.406,0.612-0.655
			c0.122-0.154,0.122-0.24,0.089-0.271c-0.425-0.1-0.866-0.114-1.296-0.041c-0.142,0.159-0.258,0.34-0.343,0.535
			c-0.031,0.079,0.012,0.074,0.139,0.046"/>
		<path id="Pfad_693" class="st2" d="M30.608,11.333c0.257-0.019,0.515-0.01,0.77,0.026c-0.074,0.053-0.574,0.305-0.674,0.367
			s-0.122,0.094-0.074,0.089c0.212-0.039,0.421-0.096,0.624-0.17c0.185-0.151,0.347-0.329,0.48-0.528
			c0.096-0.125,0.096-0.187,0.072-0.218c-0.343-0.082-0.699-0.093-1.046-0.034c-0.113,0.129-0.206,0.273-0.276,0.43
			c-0.024,0.065,0,0.06,0.113,0.038"/>
		<path id="Pfad_694" class="st2" d="M33.344,11.285c0.257-0.019,0.515-0.01,0.77,0.026c-0.074,0.053-0.576,0.305-0.674,0.365
			c-0.098,0.06-0.122,0.096-0.074,0.091c0.22-0.04,0.437-0.097,0.648-0.17c0.146-0.07,0.319-0.403,0.418-0.528
			c0.098-0.125,0.096-0.187,0.072-0.218c-0.326-0.082-0.665-0.094-0.996-0.034c-0.114,0.128-0.207,0.273-0.276,0.43
			C33.207,11.312,33.231,11.307,33.344,11.285"/>
		<path id="Pfad_695" class="st2" d="M31.643,12.634c-0.163,0.259,0.041,0.463,0.115,0.672c-0.101,0.091-0.254,0-0.305-0.074
			c-0.11-0.163-0.074-0.502-0.204-0.552c-0.021,0.062-0.039,0.125-0.053,0.19c0.052,0.122,0.077,0.254,0.072,0.386
			c-0.017,0.104-0.1,0.185-0.204,0.199c-0.286,0-0.144-0.415-0.254-0.653c-0.022,0.058-0.038,0.12-0.065,0.175
			c0.019,0.065,0.03,0.132,0.034,0.199c0,0.098,0.006,0.196,0.017,0.293c0.011,0.106,0.09,0.192,0.194,0.211
			c0.175,0.005,0.323-0.126,0.341-0.3c0.038,0.146,0.319,0.305,0.458,0.13c0.185-0.24,0.036-0.437-0.058-0.658
			C31.664,12.689,31.683,12.584,31.643,12.634"/>
		<path id="Pfad_696" class="st2" d="M23.627,11.955c0.014,0.106,0.07,0.178,0.158,0.187c0.15,0.013,0.284-0.092,0.307-0.24
			c0.024,0.127,0.262,0.276,0.389,0.127c0.17-0.194,0.053-0.372-0.019-0.566c-0.05-0.142-0.029-0.24-0.065-0.192
			c-0.154,0.214,0.014,0.401,0.067,0.583c-0.091,0.074-0.218,0-0.259-0.074c-0.089-0.146-0.041-0.434-0.149-0.48
			c-0.022,0.053-0.041,0.108-0.055,0.163c0.039,0.106,0.053,0.219,0.043,0.331c-0.017,0.091-0.093,0.159-0.185,0.166
			c-0.24,0-0.106-0.365-0.19-0.576c-0.022,0.05-0.038,0.103-0.062,0.149c0.013,0.058,0.019,0.116,0.019,0.175
			c0,0.086,0,0.18,0,0.254"/>
		<path id="Pfad_697" class="st2" d="M29.444,21.884c0.049-0.071,0.075-0.154,0.074-0.24c-0.017-0.082-0.115-0.422-0.31-0.509
			s-0.341,0.094-0.432,0.343h-0.065c-0.026,0.061-0.043,0.126-0.05,0.192c-0.022,0.144-0.062,0.24-0.31,0.461
			c-0.408,0.326-0.848,0.609-1.313,0.847c-0.437,0.211-0.749,0.396-0.864,0.451c-0.115,0.055-0.082,0.074,0.034,0.041
			c0.115-0.034,0.691-0.221,0.922-0.317c0.298-0.134,0.583-0.295,0.852-0.48c0.294-0.159,0.531-0.405,0.677-0.706
			c0.027-0.071,0.05-0.143,0.07-0.216c0.12,0.064,0.248,0.111,0.382,0.139c0.24,0.055,0.307,0.036,0.334,0 M29.12,21.411
			c0.097,0.047,0.167,0.135,0.192,0.24c-0.153-0.01-0.303-0.044-0.444-0.103c0.037-0.102,0.148-0.157,0.252-0.125"/>
		<path id="Pfad_698" class="st2" d="M26.895,22.124c-0.336-0.046-1.178-0.175-1.385-0.662c0.585-0.432,1.257-0.729,1.97-0.871
			c0.799-0.218,1.576-0.511,2.321-0.874c0.059-0.012,0.12-0.017,0.18-0.014c0.05-0.144,0.302-0.653,0.317-0.758
			c-0.278,0.017-1.999,0.142-2.762,0.182c-0.763,0.041-2.237,0.031-2.726,0.026c0.631-0.421,1.316-0.757,2.035-0.998l0.367-0.127
			c0.083,0.131,0.137,0.278,0.161,0.432c0.089-0.156,0.124-0.338,0.098-0.516c0.595-0.19,0.902-0.252,1.034-0.288
			c0.14-0.269,0.226-0.562,0.252-0.864c-0.171-0.215-0.379-0.397-0.614-0.538c-0.292-0.266-0.683-0.395-1.075-0.355
			c-0.504,0.122-0.602,1.046-0.48,1.241c0.038,0.062,0.127,0.173,0.24,0.307c-0.371,0.141-0.734,0.301-1.087,0.48
			c-0.694,0.284-1.321,0.709-1.841,1.248l-0.07,0.034c-0.019,0.038-0.175,0.686-0.197,0.756c0.156,0,1.325,0,2.141-0.029
			c0.816-0.029,1.526-0.053,1.805-0.053c-0.631,0.167-1.239,0.415-1.807,0.737c-0.361,0.295-0.553,0.75-0.511,1.214
			c-0.516-0.2-0.964-0.545-1.289-0.994c-0.511-0.691-0.406-1.404-0.612-2.34c-0.192-1.048-0.65-2.03-1.33-2.851
			c-0.078,0.274-0.127,0.556-0.149,0.84c0,0,0.494,1.097,0.746,1.798c0.202,0.499,0.355,1.017,0.456,1.546
			c-0.673,0.822-1.511,1.493-2.46,1.97c-0.96,0.528-1.819,0.583-2.122,0.209c-0.06-0.076-0.101-0.165-0.122-0.259l0.398-0.185
			c0.999-0.428,1.934-0.993,2.777-1.68c0.353-0.499,0.413-1.149,0.156-1.704c-0.228-0.352-0.433-0.719-0.614-1.097
			c-0.022-0.082,0.24,0.034,0.384,0.041c0.072,0,0.036-0.103-0.12-0.257c-0.156-0.154-0.607-0.523-0.792-0.679
			c-0.046-0.038-0.079-0.024-0.089,0.019c-0.036,0.158-0.11,0.499-0.139,0.67l0.022,0.084c0.066,0.031,0.117,0.087,0.142,0.156
			c0.122,0.314,0.264,0.62,0.427,0.914c0.248,0.367,0.456,0.76,0.622,1.171c-0.943,0.729-1.983,1.324-3.089,1.769
			c0.107-0.311,0.241-0.612,0.401-0.9c0.055-0.062,0.103-0.131,0.142-0.204c0.137-0.252,0.151-0.562,0.067-0.494
			c-0.084,0.067-0.125,0.319-0.206,0.336c-0.168,0.034-0.403-0.163-0.343-0.521c0.067-0.279,0.168-0.549,0.3-0.804
			c0.103-0.259,0.132-0.514,0.055-0.374c-0.256,0.419-0.46,0.867-0.61,1.334c-0.103,0.42,0,0.706,0.182,0.818
			c0.056,0.038,0.123,0.054,0.19,0.046c-0.151,0.273-0.278,0.559-0.379,0.854c-0.557,0.24-1.099,0.48-1.548,0.631
			c-1.61,0.576-2.76,0.917-3.562,1.169l-0.034,0.014c0.06-0.19,0.053-0.353,0-0.305c-0.053,0.048-0.122,0.319-0.204,0.336
			c-0.168,0.036-0.403-0.161-0.346-0.521c0.07-0.278,0.171-0.547,0.302-0.802c0.103-0.259,0.132-0.516,0.053-0.377
			c-0.254,0.42-0.458,0.868-0.61,1.334c-0.101,0.42,0,0.72,0.185,0.818c0.221,0.139,0.408-0.031,0.552-0.293l0.05-0.108
			c0.088-0.005,0.176-0.019,0.262-0.041c0.37-0.084,1.289-0.216,2.554-0.382c0.768-0.102,1.514-0.326,2.21-0.665
			c-0.004,0.07-0.004,0.141,0,0.211c0.034,0.859,0.595,1.102,1.366,0.941c0.871-0.286,1.684-0.725,2.4-1.296
			c0.423-0.294,0.799-0.65,1.116-1.056c0.137-0.303,0.219-0.628,0.24-0.96c0.008,0.671,0.217,1.323,0.6,1.874
			c0.776,0.933,1.944,1.45,3.156,1.397c0-0.209-0.077-0.864-0.077-0.864 M26.778,16.805c0.252-0.283,0.79-0.098,1.2,0.262
			c-0.27,0.066-0.537,0.146-0.799,0.24C27.026,17.156,26.891,16.988,26.778,16.805"/>
		<path id="Pfad_699" class="st2" d="M16.871,12.922c0.113-0.053,0.463-0.211,0.84-0.43c0.326-0.183,0.629-0.404,0.902-0.66
			c0.063-0.053,0.119-0.115,0.166-0.182c0.113,0.048,0.192,0.096,0.24,0.115c0.048,0.019,0.17,0.07,0.24-0.139
			c0.047-0.181-0.008-0.373-0.144-0.502c-0.106-0.158-0.247-0.29-0.41-0.386c-0.113-0.041-0.168,0.214-0.149,0.206h0.074h0.014
			c-0.143,0.098-0.246,0.244-0.288,0.413c-0.014,0.094,0,0.163,0.24,0.221l0.089,0.026c-0.234,0.234-0.494,0.44-0.775,0.614
			c-0.338,0.24-0.821,0.523-0.96,0.607s-0.125,0.108-0.072,0.089 M18.903,11.285v-0.11c0.125,0.119,0.221,0.265,0.281,0.427
			c-0.07,0-0.161-0.062-0.319-0.13C18.884,11.412,18.896,11.349,18.903,11.285 M18.45,11.285c0.031-0.087,0.101-0.153,0.19-0.18
			c0.127-0.05,0.185,0.094,0.194,0.269l-0.036,0.072l-0.115-0.041c-0.125-0.036-0.206-0.058-0.24-0.12"/>
		<path id="Pfad_700" class="st2" d="M25.307,16.325c0.187-0.122,0.696-0.48,0.986-0.72c0.22-0.187,0.421-0.397,0.6-0.624
			l0.278,0.173c0.101,0.056,0.184,0.139,0.24,0.24c0.031-0.048,0.173-0.305,0.118-0.43c-0.142-0.105-0.29-0.2-0.444-0.286
			c0.103-0.24,0.24-0.646,0.041-0.787c-0.199-0.142-0.48,0.079-0.614,0.341c-0.115,0.216-0.13,0.398,0.089,0.547
			c0.062,0.043,0.12,0.084,0.178,0.12c-0.289,0.297-0.594,0.577-0.914,0.84c-0.358,0.3-0.696,0.595-0.756,0.665l-0.017,0.029
			c-0.079-0.218-0.058-0.353-0.115-0.281c-0.24,0.394,0.062,0.72,0.178,1.032c-0.156,0.139-0.391,0-0.48-0.113
			c-0.17-0.254-0.113-0.77-0.312-0.85c-0.034,0.096-0.062,0.194-0.084,0.293c0.08,0.185,0.119,0.386,0.113,0.588
			c-0.023,0.162-0.152,0.289-0.314,0.31c-0.439,0.012-0.223-0.638-0.391-1.008c-0.036,0.091-0.06,0.187-0.101,0.271
			c0.029,0.101,0.047,0.205,0.053,0.31c-0.001,0.152,0.007,0.303,0.024,0.454c0.036,0.185,0.139,0.31,0.298,0.322
			c0.269,0.01,0.5-0.19,0.528-0.458c0.058,0.223,0.48,0.48,0.706,0.194c0.283-0.36,0.055-0.67-0.089-1.008l-0.017-0.043
			c0.019,0,0.096-0.026,0.218-0.108 M26.588,14.307c0.108-0.202,0.338-0.218,0.406-0.113c0.061,0.135,0.053,0.292-0.022,0.42
			C26.771,14.489,26.588,14.374,26.588,14.307"/>
		<path id="Pfad_701" class="st2" d="M18.147,15.034c-0.386-0.026-0.595-0.382-0.72-0.893c-0.081-0.449-0.086-0.908-0.014-1.358
			c0.034-0.173-0.149-0.084-0.221,0.336c-0.117,0.595-0.08,1.211,0.108,1.788c0.24,0.701,0.674,0.96,1.044,0.871
			c0.37-0.089,0.701-0.96,0.816-1.351c0.115-0.391,0.629-1.99,0.922-2.074c0.041,0.194-0.24,0.686-0.312,1.423
			s0.062,1.706,0.998,1.879c0.724,0.13,1.45-0.215,1.805-0.859c0.185-0.338,0.307-0.706,0.362-1.087
			c0.04,0.741,0.491,1.398,1.169,1.702c0.519,0.236,1.131,0.118,1.524-0.295c0.249-0.39,0.39-0.839,0.408-1.301
			c-0.077-0.523-0.23-1.031-0.454-1.51c-0.062-0.171-0.108-0.347-0.137-0.526c0-0.089,0.194,0.103,0.319,0.142
			c0.086,0.017,0.058-0.17-0.048-0.298c-0.106-0.127-0.665-0.979-0.706-0.919c-0.102,0.248-0.19,0.501-0.264,0.758
			c0.115,0.093,0.188,0.228,0.202,0.374c0.061,0.412,0.159,0.818,0.293,1.212c0.169,0.424,0.311,0.859,0.425,1.301
			c-0.421,0.293-0.958,0.363-1.44,0.187c-0.511-0.19-0.841-0.687-0.818-1.231c-0.021-0.597-0.083-1.192-0.185-1.781
			c-0.068-0.334-0.225-0.644-0.454-0.898c-0.048,0.115-0.264,0.835-0.264,0.835c0.168,0.484,0.262,0.99,0.278,1.502
			c0.093,0.626-0.189,1.249-0.72,1.594c-0.597,0.418-1.42,0.274-1.839-0.323c-0.015-0.021-0.029-0.043-0.043-0.065
			c-0.24-0.631,0.305-2.054,0.298-2.429c-0.007-0.374-0.074-0.425-0.24-0.362c-0.341,0.258-0.601,0.608-0.751,1.008
			c-0.225,0.546-0.41,1.107-0.554,1.68c-0.156,0.494-0.406,0.994-0.792,0.96"/>
		<path id="Pfad_702" class="st2" d="M6.927,12.843c0.37-0.053,0.713-0.221,0.982-0.48c0.103-0.096,0.161-0.24,0.086-0.187
			c-0.35,0.346-0.844,0.503-1.33,0.422c0.019-0.082,0.214-0.216,0.497-0.403c0.166-0.1,0.314-0.226,0.439-0.374h0.031
			c0.209,0.046,0.451,0.137,0.523,0.065c0.128-0.151,0.128-0.372,0-0.523c-0.159-0.198-0.361-0.356-0.59-0.463
			c-0.223-0.118-0.266,0.072-0.295,0.139s-0.017,0.118,0.031,0.118c-0.07,0.098-0.119,0.21-0.142,0.329
			c-0.013,0.057-0.004,0.117,0.024,0.168c0.033,0.041,0.077,0.073,0.127,0.091l0.113,0.022c-0.143,0.126-0.297,0.238-0.461,0.336
			C6.76,12.214,6.598,12.389,6.5,12.601c-0.067,0.202-0.041,0.274,0.434,0.24 M7.775,11.439l0.019-0.101v-0.053
			c0.151,0.11,0.391,0.319,0.377,0.444c-0.096-0.024-0.278-0.06-0.451-0.106c0.024-0.055,0.043-0.112,0.055-0.17 M7.328,11.485
			c-0.11-0.089,0-0.178,0.096-0.24c0.096-0.062,0.202-0.014,0.266,0.18c-0.025,0.056-0.057,0.109-0.094,0.158
			c-0.093-0.025-0.183-0.061-0.269-0.106"/>
		<path id="Pfad_703" class="st2" d="M8.353,18.214c-0.117,0.15-0.174,0.338-0.161,0.528c0.026,0.024,0.454,0.168,0.521,0.199
			l0.031-0.118c0.202,0.182,0.427,1.094,0.48,1.097c0.053,0.002,0.125-0.103,0.17-0.346c0.046-0.242,0.089-0.559,0.134-0.833
			c0.046-0.274,0.108-0.394,0.259-0.422c0.151-0.029,0.262,0.166,0.302,0.295c0.056-0.132,0.098-0.268,0.127-0.408
			c-0.024-0.084-0.259-0.394-0.451-0.29s-0.314,0.54-0.353,0.811c-0.015,0.225-0.053,0.448-0.115,0.665
			c-0.074-0.318-0.211-0.619-0.403-0.883c-0.216-0.262-0.468-0.358-0.54-0.295"/>
		<path id="Pfad_704" class="st2" d="M6.531,17.746c0.264-0.049,0.523-0.123,0.773-0.221c0.231-0.182,0.433-0.398,0.6-0.641
			c0.12-0.158,0.12-0.24,0.091-0.276c-0.423-0.099-0.862-0.114-1.291-0.043c-0.144,0.157-0.26,0.337-0.343,0.533
			C6.33,17.177,6.373,17.17,6.5,17.144c0.32-0.025,0.642-0.013,0.96,0.034c-0.091,0.062-0.72,0.379-0.838,0.454
			c-0.118,0.074-0.154,0.118-0.091,0.108"/>
		<path id="Pfad_705" class="st2" d="M43.369,19.959c-0.126-0.852-0.514-1.643-1.109-2.266c-0.298-0.377-0.72-0.866-1.159-1.37
			c0-0.17-0.024-0.326-0.034-0.461c-0.058-0.691-0.254-2.102-0.338-2.935c-0.018-0.183-0.025-0.368-0.019-0.552
			c0-0.094,0.07-0.079,0.161,0.014s0.24,0.24,0.264,0.226c0.024-0.014,0-0.24-0.118-0.48c-0.2-0.448-0.429-0.883-0.686-1.301
			c-0.133,0.214-0.227,0.45-0.281,0.696c0.114,0.152,0.173,0.338,0.168,0.528c0,0.338,0.216,2.33,0.334,3.586v0.07
			c-0.66-0.737-1.282-1.411-1.538-1.68l-0.144-0.158c-0.043-0.336-0.082-0.658-0.108-0.922c-0.018-0.183-0.025-0.366-0.019-0.55
			c0-0.094,0.07-0.082,0.161,0.014c0.091,0.096,0.24,0.24,0.264,0.226c0.024-0.014,0-0.24-0.118-0.48
			c-0.206-0.456-0.442-0.899-0.706-1.325c-0.135,0.231-0.233,0.481-0.293,0.742c0.114,0.153,0.174,0.34,0.17,0.53
			c0,0.142,0.043,0.576,0.091,1.126c-0.331-0.367-0.631-0.76-0.898-1.176c0-0.055,0.082-0.022,0.254,0s0.331,0.079,0.302,0
			c-0.053-0.103-0.137-0.187-0.24-0.24c-0.166-0.103-0.583-0.365-0.895-0.55c-0.312-0.185-0.48-0.341-0.533-0.298
			c-0.019,0.245-0.014,0.492,0.014,0.737c0.127,0.018,0.241,0.087,0.317,0.19c0.094,0.122,0.691,0.96,1.164,1.526
			c0.134,0.163,0.348,0.418,0.598,0.72c0.048,0.523,0.101,1.061,0.142,1.512c0.096,1.027,0.442,3.737,0.444,4.618
			c-0.358,0.337-0.82,0.542-1.31,0.578c-0.426,0.067-0.847-0.147-1.044-0.53c-0.067-0.125-0.127-0.24-0.19-0.36
			c-0.158-0.274-0.476-0.414-0.785-0.343h-0.048l-0.086,0.041c-0.257,0.144-0.478,0.345-0.646,0.588
			c-0.325,0.487-0.62,0.994-0.883,1.517c-0.288,0.48-0.506,0.818-1.008,0.742c-0.367-0.093-0.663-0.363-0.79-0.72
			c0.474-0.328,0.839-0.789,1.051-1.325c0.32-0.816,0.459-1.691,0.408-2.566c-0.029-0.902-0.439-3.024-0.547-3.84
			c-0.108-0.816-0.264-1.483-0.24-1.656s0.283,0.24,0.42,0.257c0.07-0.017,0.034-0.269-0.101-0.48
			c-0.089-0.144-0.374-0.802-0.562-1.121c-0.086-0.149-0.108-0.24-0.149-0.254c-0.153,0.216-0.26,0.461-0.314,0.72
			c0.107,0.118,0.169,0.27,0.175,0.43c0.019,0.24,0.24,1.963,0.418,3.238c0.23,1.322,0.39,2.655,0.48,3.994
			c0.015,0.3-0.019,0.601-0.101,0.89c-0.273,0.453-0.657,0.828-1.116,1.092c-0.118-0.77,0-1.397-0.101-1.454
			c-0.127,0.014-0.149,0.372-0.161,0.816c-0.008,0.265,0.005,0.529,0.038,0.792c-0.895,0.545-1.819,1.041-2.767,1.486
			c-0.341,0.18-0.218,0.221,0.072,0.132c0.934-0.246,1.847-0.567,2.729-0.96l0.094-0.05c0.04,0.147,0.093,0.291,0.158,0.43
			c0.286,0.593,0.694,0.946,1.138,0.912c0.372-0.029,0.641-0.427,0.876-0.902c0.254-0.627,0.603-1.212,1.034-1.733
			c0.137-0.123,0.292-0.224,0.461-0.298c0.175-0.049,0.363-0.023,0.518,0.072c0.087,0.06,0.155,0.143,0.197,0.24
			c0.102,0.267,0.254,0.511,0.449,0.72c0.465,0.345,1.09,0.378,1.589,0.084c0.437-0.185,0.76-0.568,0.869-1.03
			c0.157-0.714,0.204-1.448,0.137-2.177c-0.043-0.768-0.166-1.553-0.24-2.386c-0.022-0.269-0.067-0.641-0.118-1.044
			c0.48,0.564,0.998,1.138,1.306,1.44c0.106,0.108,0.218,0.228,0.334,0.355c0.091,1.26,0.18,2.837,0.228,3.499
			c0.048,0.662,0.014,1.488,0,1.632s0.074,0.12,0.19-0.199c0.182-0.749,0.256-1.52,0.221-2.29c-0.022-0.444-0.065-1.253-0.113-2.018
			c0.379,0.451,0.739,0.905,0.974,1.214c0.386,0.486,0.7,1.024,0.934,1.598c0.134,0.406,0.149,0.526,0.175,0.598
			c0.026,0.072,0.142-0.223,0.122-0.686"/>
		<path id="Pfad_706" class="st2" d="M36.327,35.379c-0.047-0.118-0.164-0.193-0.29-0.187c-0.126-0.004-0.242,0.07-0.29,0.187
			h-1.306c-0.014-0.145,0-0.292,0.041-0.432h2.702l0.074,0.127c0.07,0.114,0.155,0.217,0.254,0.307L36.327,35.379z M38.113,34.126
			h-3.24c0.242-0.155,0.376-0.434,0.346-0.72c-0.045-0.18-0.206-0.306-0.391-0.307h-0.101c-0.24,0.024-0.425,0.199-0.398,0.394
			v0.077l0.012,0.113c0.014,0.145,0,0.292-0.041,0.432H10.364c0.398,0.539,1.034,0.851,1.704,0.835l21.852-0.014
			c-0.244,0.154-0.378,0.434-0.346,0.72c0.056,0.211,0.264,0.345,0.48,0.31c0.24-0.024,0.425-0.202,0.398-0.396v-0.074h1.291
			c0.052,0.166,0.228,0.258,0.394,0.206c0.098-0.031,0.175-0.108,0.206-0.206h1.308c0.29,0.2,0.634,0.307,0.986,0.305
			c0.319,0.022,0.597-0.216,0.624-0.535v-0.156c-0.048-0.584-0.558-1.021-1.142-0.979"/>
	</g>
</g>
</svg>
