<?xml version="1.0" encoding="utf-8"?>
<!-- Generator: Adobe Illustrator 27.4.1, SVG Export Plug-In . SVG Version: 6.00 Build 0)  -->
<svg version="1.1" id="Ebene_1" xmlns="http://www.w3.org/2000/svg" xmlns:xlink="http://www.w3.org/1999/xlink" x="0px" y="0px"
	 viewBox="0 0 48 48" style="enable-background:new 0 0 48 48;" xml:space="preserve">
<style type="text/css">
	.st0{clip-path:url(#SVGID_00000062893431725786952020000000488374497343581579_);}
	.st1{fill:#E30A17;}
	.st2{fill:#FFFFFF;}
</style>
<g>
	<defs>
		<rect id="SVGID_1_" x="-0.016" y="0.005" width="48" height="48"/>
	</defs>
	<clipPath id="SVGID_00000127040194555975514550000006320878458293607296_">
		<use xlink:href="#SVGID_1_"  style="overflow:visible;"/>
	</clipPath>
	<g id="Gruppe_1894" style="clip-path:url(#SVGID_00000127040194555975514550000006320878458293607296_);">
		<path id="Pfad_708" class="st1" d="M23.984,0.005c13.255,0,24,10.745,24,24s-10.745,24-24,24s-24-10.745-24-24
			S10.729,0.005,23.984,0.005"/>
		<path id="Pfad_709" class="st2" d="M29.264,24.005l10.848-3.526l-6.708,9.233V18.301l6.708,9.233L29.264,24.005z M30.003,30.423
			c-3.544,5.6-10.956,7.268-16.557,3.724S6.179,23.191,9.722,17.59s10.956-7.268,16.557-3.724c1.502,0.95,2.774,2.222,3.724,3.724
			c-3.544-3.943-9.614-4.267-13.557-0.722s-4.267,9.614-0.722,13.557s9.614,4.267,13.557,0.722c0.001-0.001,0.002-0.001,0.002-0.002
			c0.252-0.227,0.493-0.468,0.72-0.72"/>
	</g>
</g>
</svg>
