<?xml version="1.0" encoding="utf-8"?>
<!-- Generator: Adobe Illustrator 27.4.1, SVG Export Plug-In . SVG Version: 6.00 Build 0)  -->
<svg version="1.1" id="Ebene_1" xmlns="http://www.w3.org/2000/svg" xmlns:xlink="http://www.w3.org/1999/xlink" x="0px" y="0px"
	 viewBox="0 0 69.094 48" style="enable-background:new 0 0 69.094 48;" xml:space="preserve">
<style type="text/css">
	.st0{fill:none;stroke:#000000;stroke-width:2;}
	.st1{fill:none;stroke:#000000;stroke-width:2;stroke-miterlimit:10;}
</style>
<g>
	<g id="Gruppe_1918">
		<path id="Pfad_737" class="st0" d="M64.005,42.8h-11.89c-1.094,0-1.981,0.887-1.981,1.981v1.983h15.852v-1.983
			C65.986,43.687,65.099,42.8,64.005,42.8"/>
		<path id="Pfad_738" class="st1" d="M64.005,42.8h-11.89c-1.094,0-1.981,0.887-1.981,1.981v1.983h15.852v-1.983
			C65.986,43.687,65.099,42.8,64.005,42.8L64.005,42.8z"/>
		<line id="Linie_260" class="st1" x1="58.06" y1="42.8" x2="58.06" y2="16.048"/>
		<path id="Pfad_739" class="st0" d="M67.968,16.049h-19.81v-0.997l4.946-13.865h9.909l4.954,13.871L67.968,16.049z"/>
		<path id="Pfad_740" class="st1" d="M67.968,16.049h-19.81v-0.997l4.946-13.865h9.909l4.954,13.871L67.968,16.049z"/>
		<line id="Linie_261" class="st1" x1="63.013" y1="16.049" x2="63.013" y2="24.967"/>
		<path id="Pfad_741" class="st0" d="M9.083,20.896v-2.972c0-4.22,6.946-6.936,14.862-6.936s14.862,2.716,14.862,6.936v2.972
			c0,0-2.881,2.279-2.881,3.948V37.74H12.056V25.004C12.056,23.648,9.083,20.896,9.083,20.896"/>
		<path id="Pfad_742" class="st1" d="M9.083,20.896v-2.972c0-4.22,6.946-6.936,14.862-6.936s14.862,2.716,14.862,6.936v2.972
			c0,0-2.881,2.279-2.881,3.948V37.74H12.056V25.004C12.056,23.648,9.083,20.896,9.083,20.896z"/>
		<path id="Pfad_743" class="st0" d="M12.057,31.795c0-2.111,5.367-3.964,11.89-3.964s11.89,1.852,11.89,3.964"/>
		<path id="Pfad_744" class="st1" d="M12.057,31.795c0-2.111,5.367-3.964,11.89-3.964s11.89,1.852,11.89,3.964"/>
		<path id="Pfad_745" class="st0" d="M35.835,37.74V25.85c0-3.199,2.44-4.954,5.449-4.954s5.449,1.755,5.449,4.954
			c0,3.964-2.972,4.954-2.972,8.917v11.89h-6.935l-0.997-1.981H12.056l-0.997,1.981H4.13v-11.89c0-3.964-2.972-4.952-2.972-8.917
			c0-3.199,2.44-4.954,5.449-4.954s5.449,1.755,5.449,4.954v11.89H35.835z"/>
		<path id="Pfad_746" class="st1" d="M35.835,37.74V25.85c0-3.199,2.44-4.954,5.449-4.954s5.449,1.755,5.449,4.954
			c0,3.964-2.972,4.954-2.972,8.917v11.89h-6.935l-0.997-1.981H12.056l-0.997,1.981H4.13v-11.89c0-3.964-2.972-4.952-2.972-8.917
			c0-3.199,2.44-4.954,5.449-4.954s5.449,1.755,5.449,4.954v11.89H35.835z"/>
	</g>
</g>
</svg>
