<?xml version="1.0" encoding="utf-8"?>
<!-- Generator: Adobe Illustrator 27.4.1, SVG Export Plug-In . SVG Version: 6.00 Build 0)  -->
<svg version="1.1" id="Ebene_1" xmlns="http://www.w3.org/2000/svg" xmlns:xlink="http://www.w3.org/1999/xlink" x="0px" y="0px"
	 viewBox="0 0 75.051 48" style="enable-background:new 0 0 75.051 48;" xml:space="preserve">
<style type="text/css">
	.st0{fill:none;stroke:#000000;stroke-width:2;stroke-linejoin:round;}
	.st1{fill:none;stroke:#000000;stroke-width:2;stroke-linecap:round;stroke-linejoin:round;}
</style>
<g>
	<g id="Gruppe_1920">
		<path id="Pfad_752" class="st0" d="M39.412,3.537C36.705-0.697,28.58,0.815,28.58,8.377c0.17,6.885,10.832,12.098,10.832,12.098
			s10.662-5.213,10.831-12.098C50.243,0.815,42.123-0.697,39.412,3.537z"/>
		
			<rect id="Rechteck_801_00000070082495749097005890000009099144383289555113_" x="1.241" y="21.705" class="st0" width="12.643" height="22.126"/>
		<path id="Pfad_753" class="st1" d="M13.884,39.288C47.073,50.351,36.01,50.351,73.94,31.387c-3.361-3.356-6.012-4.15-9.483-3.16
			l-14.014,4.651"/>
		<path id="Pfad_754" class="st1" d="M13.884,24.866h9.483c5.38,0.19,10.478,2.456,14.223,6.322h9.483c5.037,0,5.037,6.321,0,6.321
			H29.688"/>
	</g>
</g>
</svg>
