<?xml version="1.0" encoding="utf-8"?>
<!-- Generator: Adobe Illustrator 27.4.1, SVG Export Plug-In . SVG Version: 6.00 Build 0)  -->
<svg version="1.1" id="Ebene_1" xmlns="http://www.w3.org/2000/svg" xmlns:xlink="http://www.w3.org/1999/xlink" x="0px" y="0px"
	 viewBox="0 0 54.93 48" style="enable-background:new 0 0 54.93 48;" xml:space="preserve">
<style type="text/css">
	.st0{fill:none;stroke:#000000;stroke-width:2;stroke-linejoin:round;}
	.st1{fill:none;stroke:#000000;stroke-width:2;stroke-linecap:round;stroke-linejoin:round;}
</style>
<g>
	<g id="Gruppe_1744">
		<path id="Pfad_621" class="st0" d="M21.675,46.852H42.32c0,0,0-7.685-1.085-10.963c-0.948-2.852-7.783-4.76-14.966-7.466v-5.732
			c0,0,2.289-1.421,2.289-6.88c2.289,0,2.289-4.587,0-4.587c0-0.536,2.472-3.849,1.72-6.88c-1.085-4.366-14.106-4.366-15.192,0
			c-5.433-1.091-2.579,6.147-2.579,6.88v4.587c-0.127,3.046,1.726,5.825,4.586,6.88v5.732c-6.371,2.422-14.022,4.613-14.966,7.466
			c-1.084,3.278-1.084,10.963-1.084,10.963H21.675z"/>
		<path id="Pfad_622" class="st1" d="M48.053,46.852h5.734c0,0,0-7.685-1.087-10.963c-0.948-2.852-7.783-5.906-14.966-8.612v-3.44
			c0,0,2.289-1.421,2.289-6.88c2.289,0,2.289-4.586,0-4.586c0-0.537,2.472-4.273,1.72-7.301c-0.51-2.043-4.874-5.27-8.314-2.977"/>
	</g>
</g>
</svg>
