<?xml version="1.0" encoding="utf-8"?>
<!-- Generator: Adobe Illustrator 27.4.1, SVG Export Plug-In . SVG Version: 6.00 Build 0)  -->
<svg version="1.1" id="Ebene_1" xmlns="http://www.w3.org/2000/svg" xmlns:xlink="http://www.w3.org/1999/xlink" x="0px" y="0px"
	 viewBox="0 0 43.947 48" style="enable-background:new 0 0 43.947 48;" xml:space="preserve">
<style type="text/css">
	.st0{fill:#F5F5FA;}
</style>
<g>
	<g id="Gruppe_1818">
		<path id="Pfad_631" class="st0" d="M43.742,46.989c-0.106-5.952-4.623-7.999-7.921-9.492c-0.84-0.352-1.653-0.765-2.433-1.237
			c-0.578-0.385-1.119-0.698-1.618-0.987c-1.989-1.15-2.897-1.674-2.897-5.131c0-4.329,3.543-7.123,3.575-7.149l0.187-0.143
			l0.102-0.21c0.864-1.682,0.941-3.66,0.21-5.404c2.584-5.73-0.542-10.469-1.205-11.375C30.062,1.022,26.477,0,23.751,0
			c-2.127,0.052-4.221,0.544-6.149,1.444c-2.99,1.197-5.029,3.108-6.06,5.677c-1.665,4.151-0.156,8.71,0.392,10.11
			c-1.341,3.242,0.205,5.457,0.275,5.554l0.208,0.212c0.036,0.027,3.57,2.762,3.57,7.145c0,4.245-2.325,5.021-5.269,6.003
			l-0.386,0.127C7.02,37.365,0.128,39.633,0.128,47.008V48h43.631L43.742,46.989z"/>
	</g>
</g>
</svg>
