<?xml version="1.0" encoding="utf-8"?>
<!-- Generator: Adobe Illustrator 27.4.1, SVG Export Plug-In . SVG Version: 6.00 Build 0)  -->
<svg version="1.1" id="Ebene_1" xmlns="http://www.w3.org/2000/svg" xmlns:xlink="http://www.w3.org/1999/xlink" x="0px" y="0px"
	 viewBox="0 0 68.832 48" style="enable-background:new 0 0 68.832 48;" xml:space="preserve">
<style type="text/css">
	.st0{fill:none;stroke:#000000;stroke-width:2;stroke-linecap:round;stroke-linejoin:round;}
</style>
<g>
	<g id="Gruppe_1743">
		<path id="Pfad_614" class="st0" d="M60.212,18.416H42.971V1.175h17.242v6.158l7.389-3.696v12.316l-7.389-3.696V18.416z"/>
		<path id="Pfad_615" class="st0" d="M18.268,39.67v-1.231c0.062-1.436,1.003-2.684,2.366-3.139l6.255-1.788v-3.429"/>
		<path id="Pfad_616" class="st0" d="M34.278,30.074v3.429l6.251,1.787c1.364,0.454,2.307,1.702,2.37,3.139v1.231"/>
		<path id="Pfad_617" class="st0" d="M37.977,23.095c0.176,4.263-3.127,7.866-7.389,8.061c-4.263-0.193-7.567-3.797-7.389-8.061
			c-0.175-4.26,3.125-7.861,7.385-8.056C34.845,15.23,38.151,18.831,37.977,23.095z"/>
		<path id="Pfad_618" class="st0" d="M37.869,21.721c-1.905,1.333-4.53,0.869-5.863-1.036c-0.068-0.097-0.131-0.196-0.191-0.298
			c-2.267,2.2-5.719,2.631-8.457,1.055"/>
		<path id="Pfad_619" class="st0" d="M56.104,46.899H4.972c-2.11,0-3.82-1.71-3.82-3.82l0,0v-1.978h58.774v1.974
			c0.002,2.11-1.707,3.821-3.816,3.823C56.108,46.899,56.106,46.899,56.104,46.899z"/>
		<line id="Linie_139" class="st0" x1="26.85" y1="43.903" x2="34.262" y2="43.903"/>
		<path id="Pfad_620" class="st0" d="M55.648,23.898v17.204H5.432V15.111c-0.001-2.72,2.203-4.926,4.924-4.927
			c0.001,0,0.001,0,0.002,0h26.697"/>
	</g>
</g>
</svg>
