<?xml version="1.0" encoding="utf-8"?>
<!-- Generator: Adobe Illustrator 27.4.1, SVG Export Plug-In . SVG Version: 6.00 Build 0)  -->
<svg version="1.1" id="Ebene_1" xmlns="http://www.w3.org/2000/svg" xmlns:xlink="http://www.w3.org/1999/xlink" x="0px" y="0px"
	 viewBox="0 0 89.776 48" style="enable-background:new 0 0 89.776 48;" xml:space="preserve">
<style type="text/css">
	.st0{fill:none;stroke:#000000;stroke-width:3;stroke-linecap:round;stroke-linejoin:round;}
</style>
<g>
	<g id="Gruppe_487">
		<path id="Pfad_252" class="st0" d="M65.444,2.194l0.233,0.419l0.44-0.034l0.612-0.286l0.643-0.174l1.054,0.286l2.222,1.257
			l1.144,0.455l0.731-0.106l0.673,0.036l2.632,1.887l1.844,0.277h1.667l0.526-0.558l0.731-0.49l0.732,0.071l0.643,0.244l1.287,0.803
			l0.585,0.244l0.759,0.106l0.585,0.209l0.499,1.43l0.286,0.385l-0.059,0.174l-0.059,0.663l-0.437,0.803l-0.469,1.084l0.03,0.942
			l1.2,3.288l1.081,1.954l0.204,0.771l0.703,0.558l-0.673,0.735l-0.116,1.084l-0.44,0.488l-0.116,0.629l0.174,0.559v0.693
			l0.233,0.978l-1.052,0.209l-1.228-0.034l-0.468,0.034l-0.41,0.286l-0.437-0.143l-1.144-0.909l-0.643-0.21l-0.44,0.071
			l-0.349,0.383l-0.585,0.523l-0.526,0.349l0.116,0.316l2.34,0.803l0.44,1.257l-0.469,1.014l-0.143,0.488l-0.556,0.42l-0.673,0.313
			l-0.818,0.106l-0.089,0.558l0.322,1.607l-0.263,0.349l-0.263,0.49l0.233,1.328l0.526,0.103l0.089,0.286l-0.089,0.559l-0.089,0.559
			l-0.174,0.593l-0.089,0.286l-0.322,0.174l-1.052-0.106l-0.906,0.523l-1.784,1.859l-0.642,0.313l-0.673,0.735l0.03,1.641
			l-0.089,0.143l-0.174,0.349l-2.136-0.595h-0.086l-1.43,0.21l-1.001,0.768l-1.2,0.42l-2.515-0.246l-2.455,0.316l-0.585,0.209
			l-0.615,0.106l-0.615,0.455l-0.322,0.593l-0.615,0.771l-0.878,0.628l-0.936,0.455l-0.233,0.385l-0.286,0.244l-0.526-0.313
			l-0.437,0.034l-0.528-0.209l-1.726-0.21l-1.87-0.385l-0.906-0.313l-1.052-0.286l-1.084-0.244l-0.994-0.036l-0.496-0.103
			l-2.369-0.606l-1.58-0.034l-2.075-0.244l-4.095-0.909l-1.2-0.385l-1.144-0.106l-1.344-0.313l-1.054-0.523l-0.642-0.942
			l-0.703-1.328l-1.287-1.677l-0.263-0.839l0.38-0.732l0.41-0.559l-0.03-0.244l-0.322-0.143l-2.288,0.735l-2.195,0.909l-0.848,0.034
			l-0.848-0.209h-1.111l-1.052,0.244l-2.136,0.106l-1.257,0.699l-0.791,1.287l-0.437,1.048l-0.352,0.349l-0.759,0.143l-1.111-0.106
			l-0.791-0.316l-0.789-0.906l-1.224-0.104l-1.144-0.036l-0.286-0.174v-0.593l-0.437-1.084l-0.732-0.349l-1.926,2.093l-0.526,0.174
			L7.25,38.107l-1.348-0.872l-0.143-0.663l-0.206-0.523l-1.144-0.523l-1.43-0.349H2.542l0.174-0.316l0.177-0.523l-0.117-0.419
			l-0.322-0.455L2.28,33.009l-0.059-0.455l-0.117-0.383l-0.063-0.35l-0.086-0.286l0.906-2.062l0.204-1.287l-0.818-0.768l-0.35-0.21
			l0.286-0.174l1.144,0.143l0.731-0.419l0.38-0.455l1.025,0.42l1.52,0.802l0.703,0.559l0.286,0.419l0.143,0.349l-0.07,0.592
			l0.349,0.244l0.703,0.07l0.468,0.21l-0.174,0.768L9.361,31.4l0.673-0.103l0.789-0.49l0.643-0.909l0.409-0.874l0.286-2.129
			l0.089-0.174l0.496,0.174l1.989-0.106l0.936,0.419l1.491,0.07l-0.03,0.316l0.263,0.523l0.673,0.768l0.322,0.488l0.701,0.071
			l1.054-0.286l0.612-0.286l0.236,0.21l0.994-0.21l0.848-0.593l0.204-0.455l0.878-0.316l1.17-0.768l1.638-0.558l5.29-0.629
			l0.206-0.49l-0.089-1.048l0.143-0.174l0.673,0.286l1.081,0.244l0.818,0.385l0.528,0.488l0.496,0.036l0.769-0.34l1.054-0.244
			l0.964,0.523l0.263,0.558l-0.174,0.286l0.03,0.455l0.286,0.385l0.789,0.593l1.022,0.558l0.528-0.07l0.174-0.488l0.204-1.222
			l0.064-1.332l-0.233-0.735l-0.526-0.174l-0.673-0.07l-0.322-0.174l0.117-0.385l0.496-1.081v-1.43l-1.17-1.607l-1.022-1.573v-0.523
			l0.615-0.942l0.934-0.735l2.106-1.258l0.643-0.244l0.848-0.21l1.227-0.488l0.585-0.523l0.38-0.593l0.585-2.935l0.143-0.143
			l0.143-0.174l2.136,1.014l0.204-0.143l0.352-0.174l0.701-0.803l0.143-0.595V7.119l0.059-1.048l0.116-0.349l0.322,0.143
			l0.936,0.559l0.731,0.593l0.673,1.573l1.573,0.42l2.017,0.034l0.732-0.699l0.643-0.143l0.731,0.209l1.551,0.246l0.174-1.294
			l0.906-1.287l0.409-0.455l1.144,0.036l0.295-0.978l0.277-2.731l0.233-0.315l0.848,0.071l0.818,0.488"/>
	</g>
</g>
</svg>
