<svg xmlns="http://www.w3.org/2000/svg" xmlns:xlink="http://www.w3.org/1999/xlink" width="180" height="180" viewBox="0 0 180 180">
  <defs>
    <filter id="Ellipse_2" x="0" y="0" width="180" height="180" filterUnits="userSpaceOnUse">
      <feOffset input="SourceAlpha"/>
      <feGaussianBlur stdDeviation="5" result="blur"/>
      <feFlood flood-opacity="0.102"/>
      <feComposite operator="in" in2="blur"/>
      <feComposite in="SourceGraphic"/>
    </filter>
    <clipPath id="clip-path">
      <rect id="Rectangle_32" data-name="Rectangle 32" width="125.625" height="125.625" fill="none"/>
    </clipPath>
  </defs>
  <g id="Group_12" data-name="Group 12" transform="translate(-59 -12)">
    <g transform="matrix(1, 0, 0, 1, 59, 12)" filter="url(#Ellipse_2)">
      <circle id="Ellipse_2-2" data-name="Ellipse 2" cx="75" cy="75" r="75" transform="translate(15 15)" fill="#fff"/>
    </g>
    <g id="Group_3" data-name="Group 3" transform="translate(86.188 39.188)">
      <g id="Group_2" data-name="Group 2" clip-path="url(#clip-path)">
        <path id="Path_19" data-name="Path 19" d="M62.813,125.625a62.812,62.812,0,1,1,62.813-62.812,62.884,62.884,0,0,1-62.813,62.812m0-124.74a61.928,61.928,0,1,0,61.928,61.928A62,62,0,0,0,62.813.884" fill="#dcbf8c"/>
        <path id="Path_20" data-name="Path 20" d="M63.138,123.46a60.323,60.323,0,1,1,60.323-60.322A60.392,60.392,0,0,1,63.138,123.46m0-119.761a59.438,59.438,0,1,0,59.439,59.439A59.505,59.505,0,0,0,63.138,3.7" transform="translate(-0.325 -0.325)" fill="#dcbf8c"/>
        <path id="Path_21" data-name="Path 21" d="M64.388,115.144a50.758,50.758,0,1,1,50.758-50.758,50.815,50.815,0,0,1-50.758,50.758m0-100.631a49.873,49.873,0,1,0,49.873,49.873A49.93,49.93,0,0,0,64.388,14.513" transform="translate(-1.575 -1.575)" fill="#dcbf8c"/>
        <path id="Path_22" data-name="Path 22" d="M68.665,93.94V92.914c2.491,0,6.154-.733,6.154-3.884,0-1.465-1.319-3.224-2.124-4.249L57.821,66.318H57.6V86.833c0,3.81,2.2,5.861,6.814,6.081V93.94h-22.2V92.914c2.71-.147,6.3-3.517,6.3-4.689V47.854c0-1.172-2.565-4.1-3.591-4.249s-1.978-.147-2.857-.22V42.359H65.734v1.026a25.453,25.453,0,0,0-3.663.147c-1.245.219-4.469,3.443-4.469,4.25V64.413L73.5,51.3a4.878,4.878,0,0,0,1.905-4.323c0-2.271-1.026-3.59-4.176-3.59H68.885V42.359H91.6v1.026H90.5a12.719,12.719,0,0,0-3.371.953,51.252,51.252,0,0,0-10.551,6.081L64.489,60.457l21.98,27.329c2.345,2.858,4.836,4.982,8.719,5.129V93.94ZM58.554,92.914v-.147c-1.905-1.172-4.469-2.345-4.469-4.469V46.682l3.59-3.15v-.147H47.2v.147l3.664,2.93v1.026c-1.1.22-1.319,1.611-1.319,2.931V89.324c0,.953-2.712,2.711-3.738,3.443v.147Zm3.224-30.186L59.36,64.56c-.294.219-.66.586-.66.879,0,.22.513.732.66.953L72.695,82.877c1.685,2.051,3.443,4.03,3.443,6.227a3.853,3.853,0,0,1-2.417,3.663v.147H87.788v-.147c-2.2-.953-4.4-3.224-6.155-5.422ZM75.7,43.385a7.329,7.329,0,0,1,1.026,3.59,6.929,6.929,0,0,1-.513,2.345,16.145,16.145,0,0,0,5.422-5.935Z" transform="translate(-4.861 -4.895)"/>
      </g>
    </g>
  </g>
</svg>
