<svg id="instagram" xmlns="http://www.w3.org/2000/svg" width="25.071" height="25.076" viewBox="0 0 25.071 25.076">
  <path id="Path_1" data-name="Path 1" d="M25.456,7.372a9.163,9.163,0,0,0-.583-3.042A6.424,6.424,0,0,0,21.2.661,9.186,9.186,0,0,0,18.162.078C16.82.015,16.394,0,12.989,0S9.158.015,7.821.074A9.165,9.165,0,0,0,4.779.656a6.118,6.118,0,0,0-2.224,1.45A6.174,6.174,0,0,0,1.11,4.326,9.187,9.187,0,0,0,.527,7.367C.463,8.71.449,9.136.449,12.54s.015,3.831.073,5.168a9.162,9.162,0,0,0,.583,3.042A6.423,6.423,0,0,0,4.774,24.42,9.188,9.188,0,0,0,7.816,25c1.337.059,1.763.073,5.168.073s3.831-.015,5.168-.073a9.16,9.16,0,0,0,3.042-.583,6.414,6.414,0,0,0,3.669-3.669,9.194,9.194,0,0,0,.583-3.042c.059-1.337.073-1.763.073-5.168s0-3.831-.064-5.168ZM23.2,17.611a6.873,6.873,0,0,1-.431,2.327,4.16,4.16,0,0,1-2.381,2.381,6.9,6.9,0,0,1-2.327.431c-1.323.059-1.719.073-5.065.073s-3.747-.015-5.065-.073A6.87,6.87,0,0,1,5.6,22.318a3.859,3.859,0,0,1-1.44-.936,3.9,3.9,0,0,1-.936-1.44A6.9,6.9,0,0,1,2.8,17.615c-.059-1.323-.073-1.719-.073-5.065S2.736,8.8,2.8,7.485a6.87,6.87,0,0,1,.431-2.327,3.811,3.811,0,0,1,.941-1.44,3.893,3.893,0,0,1,1.44-.936,6.9,6.9,0,0,1,2.327-.431C9.256,2.293,9.653,2.278,13,2.278s3.747.015,5.065.073a6.873,6.873,0,0,1,2.327.431,3.856,3.856,0,0,1,1.44.936,3.9,3.9,0,0,1,.936,1.44A6.9,6.9,0,0,1,23.2,7.485c.059,1.323.073,1.719.073,5.065s-.015,3.738-.073,5.06Zm0,0" transform="translate(-0.449 0)" fill="#fff"/>
  <path id="Path_2" data-name="Path 2" d="M131.391,124.5a6.442,6.442,0,1,0,6.442,6.442A6.443,6.443,0,0,0,131.391,124.5Zm0,10.62a4.179,4.179,0,1,1,4.179-4.179A4.179,4.179,0,0,1,131.391,135.12Zm0,0" transform="translate(-118.85 -118.401)" fill="#fff"/>
  <path id="Path_3" data-name="Path 3" d="M365.458,90.106a1.5,1.5,0,1,1-1.5-1.5A1.5,1.5,0,0,1,365.458,90.106Zm0,0" transform="translate(-344.717 -84.262)" fill="#fff"/>
</svg>
