<svg xmlns="http://www.w3.org/2000/svg" xmlns:xlink="http://www.w3.org/1999/xlink" width="201" height="39.762" viewBox="0 0 201 39.762">
  <defs>
    <clipPath id="clip-path">
      <rect id="Rectangle_29" data-name="Rectangle 29" width="201" height="39.762" fill="#333"/>
    </clipPath>
  </defs>
  <g id="Group_1" data-name="Group 1" opacity="0.5" style="mix-blend-mode: luminosity;isolation: isolate">
    <g id="Group_1-2" data-name="Group 1" transform="translate(0 0)" clip-path="url(#clip-path)">
      <path id="Path_11" data-name="Path 11" d="M6.162,13.828c-.021,0-1.69-.1-2.081-.119V3.824l.238-.01,2.672-.079c2.665,0,3.99.366,4.874,1.348a4.888,4.888,0,0,1,1.089,3.36c0,3.876-1.9,5.386-6.791,5.386ZM12.086,1.147h0a20.071,20.071,0,0,0-5.069-.5l-.85.023L4.257.723l-2.4.039H0v25.8H4.078V16.882c.4.007,1.778.025,1.778.025,3.178,0,4.7-.2,6.285-.813A8.207,8.207,0,0,0,17.332,8.37a7.149,7.149,0,0,0-5.251-7.223Z" transform="translate(0 -0.133)" fill="#333"/>
      <path id="Path_12" data-name="Path 12" d="M45.2.794V11.447H31.237V.794H27.154v25.8h4.083V14.751H45.2V26.594h4.119V.794Z" transform="translate(-5.624 -0.164)" fill="#333"/>
      <path id="Path_13" data-name="Path 13" d="M102.033.794H76.384s-6.62,10.674-7.048,11.358C68.921,11.458,62.605.794,62.605.794H57.9l8.9,14.757-.036,11.043h4.083V15.29a10.743,10.743,0,0,0,.691-.913L78.85,3.989h8.6v22.6h4.117V3.986h10.47V.794Z" transform="translate(-11.992 -0.164)" fill="#333"/>
      <path id="Path_14" data-name="Path 14" d="M127.539,23.8c-5.331,0-9.508-4.751-9.508-10.808,0-5.7,3.74-9.688,9.1-9.688h.482A7.888,7.888,0,0,1,133.168,5.7,12.647,12.647,0,0,1,136.3,13.92c0,5.533-3.85,9.876-8.762,9.876ZM127.575,0A13.722,13.722,0,0,0,113.5,13.66,13.261,13.261,0,0,0,126.588,27.1c.094,0,.189,0,.283,0A13.6,13.6,0,0,0,140.788,13.83q.007-.307,0-.614A12.78,12.78,0,0,0,127.575,0Z" transform="translate(-23.507 0)" fill="#333"/>
      <path id="Path_15" data-name="Path 15" d="M182.187.794H178.76l-9.915,19.361L159.5.794h-3.822l-1.427,25.8h3.879s.248-16.977.274-18.95c.872,1.8,9.084,18.853,9.084,18.853l1.686-.243s8.691-17.2,9.558-18.923c.031,1.91.276,19.267.276,19.267h4.123l-.7-25.8Z" transform="translate(-31.946 -0.164)" fill="#333"/>
      <path id="Path_16" data-name="Path 16" d="M203.409,15.2H215V12.139h-11.59V3.986H216.29V.794H199.326v25.8H216.4V23.288H203.409V15.2Z" transform="translate(-41.281 -0.164)" fill="#333"/>
      <path id="Path_17" data-name="Path 17" d="M235.461,12.807c-.067-.006-4.475.052-4.9.018v-9c.442-.016,2.942-.093,2.942-.093,2.5,0,3.817.323,4.678,1.156a4.566,4.566,0,0,1,1.1,3.3c0,2.671-1.185,4.1-3.83,4.623Zm11.859,11.418a5.464,5.464,0,0,1-3.1-1.559,42,42,0,0,1-5.12-7.048,9.03,9.03,0,0,0,4.568-7.77,6.7,6.7,0,0,0-4.813-6.74,21.809,21.809,0,0,0-5.063-.461h-.777l-2.393.075-2.369.039h-1.773v25.8h4.083V16.03c.339.006,1.036.025,1.036.025.07,0,2.537-.021,2.965-.021.079.129.2.325.2.325,3.166,5.307,5.354,8.187,7.1,9.335a7.552,7.552,0,0,0,4.369,1.051c.39,0,.919,0,1.126-.611,0-.01.547-1.8.547-1.8l-.584-.1Z" transform="translate(-46.905 -0.132)" fill="#333"/>
      <path id="Path_18" data-name="Path 18" d="M231.954,42.731s-15.62,4.386-40.766,1.313c-33.488-4.091-41.724,3.226-41.724,3.226s6.488-3.435,39.486.6C215.326,51.1,231.954,42.731,231.954,42.731Z" transform="translate(-30.954 -8.85)" fill="#333"/>
    </g>
  </g>
</svg>
