<svg xmlns="http://www.w3.org/2000/svg" width="85" height="17.564" viewBox="0 0 85 17.564">
  <g id="logo-pw-white" transform="translate(0 -0.5)" opacity="0.4">
    <rect id="Rectangle_25" data-name="Rectangle 25" width="2.66" height="2.66" transform="translate(2.66 15.404)" fill="#fff" opacity="0.6"/>
    <path id="Path_4" data-name="Path 4" d="M7.98,70.3H0V83.594H2.66V72.96H7.98v7.98h2.66V70.3Z" transform="translate(0 -65.537)" fill="#fff"/>
    <rect id="Rectangle_26" data-name="Rectangle 26" width="2.66" height="2.66" transform="translate(7.976 12.744) rotate(90)" fill="#fff" opacity="0.8"/>
    <path id="Path_5" data-name="Path 5" d="M319.437,79.631a3.032,3.032,0,0,1-2.446-1.119h-.031v4.782H314.3V71.332h2.532v.985h.049a3.213,3.213,0,0,1,2.581-1.217,3.948,3.948,0,0,1,3.828,4.232C323.289,77.582,321.87,79.631,319.437,79.631Zm-.63-6.354a2.077,2.077,0,0,0,0,4.146,2.081,2.081,0,0,0,0-4.146Z" transform="translate(-295.086 -66.288)" fill="#fff"/>
    <rect id="Rectangle_27" data-name="Rectangle 27" width="2.66" height="8.078" transform="translate(29.894 5.047)" fill="#fff"/>
    <path id="Path_6" data-name="Path 6" d="M572.2,79.5V75.089c0-.893-.245-1.7-1.2-1.7s-1.425.813-1.425,1.737V79.5H566.9V71.426h2.581v1.119h.031a2.749,2.749,0,0,1,2.415-1.345c2.171,0,2.954,1.688,2.954,3.308v5H572.2Z" transform="translate(-532.245 -66.379)" fill="#fff"/>
    <path id="Path_7" data-name="Path 7" d="M722.3,82.972V80.9l3.791-3.956h-3.651V74.9h6.892v1.994l-3.908,4.024H729.5v2.061h-7.2Z" transform="translate(-678.144 -69.853)" fill="#fff"/>
    <path id="Path_8" data-name="Path 8" d="M862.013,82.972h-2.672l-1.59-5.027h-.031l-1.559,5.027h-2.678L850.7,74.9h2.868l1.394,5.106h.049l1.443-5.106h2.678l1.492,5.106h.031l1.413-5.106h2.758Z" transform="translate(-798.697 -69.853)" fill="#fff"/>
    <path id="Path_9" data-name="Path 9" d="M1093.7,75.627h-5.852a1.85,1.85,0,0,0,1.932,1.523,2.112,2.112,0,0,0,1.786-.844l1.847,1.168a4.233,4.233,0,0,1-3.663,1.718,4.3,4.3,0,1,1-.086-8.592c2.385,0,4.054,1.639,4.054,4.4C1093.714,75.2,1093.714,75.431,1093.7,75.627Zm-2.434-1.651a1.466,1.466,0,0,0-1.59-1.541,1.765,1.765,0,0,0-1.834,1.541Z" transform="translate(-1018.957 -65.816)" fill="#fff"/>
    <path id="Path_10" data-name="Path 10" d="M1248.918,18.887a3.148,3.148,0,0,1-2.642-1.278h-.031v1.052H1243.8V6.4h2.66v5.045h.031a3.191,3.191,0,0,1,2.464-1.088c2.348,0,3.81,1.981,3.81,4.232S1251.352,18.887,1248.918,18.887Zm-.63-6.354a2.007,2.007,0,0,0-1.945,2.073,1.988,1.988,0,0,0,1.945,2.073,1.937,1.937,0,0,0,1.914-2.091A1.917,1.917,0,0,0,1248.289,12.533Z" transform="translate(-1167.765 -5.539)" fill="#fff"/>
    <rect id="Rectangle_28" data-name="Rectangle 28" width="2.66" height="2.66" transform="translate(29.894 0.5)" fill="#fff"/>
  </g>
</svg>
