<svg xmlns="http://www.w3.org/2000/svg" xmlns:xlink="http://www.w3.org/1999/xlink" width="269.569" height="84.49" viewBox="0 0 269.569 84.49">
  <defs>
    <clipPath id="clip-path">
      <rect id="Rectangle_34" data-name="Rectangle 34" width="269.569" height="84.49" fill="none"/>
    </clipPath>
  </defs>
  <g id="Group_11" data-name="Group 11" transform="translate(-228 -15.433)">
    <g id="Group_10" data-name="Group 10" transform="translate(228 15.433)">
      <g id="Group_9" data-name="Group 9" clip-path="url(#clip-path)">
        <path id="Path_47" data-name="Path 47" d="M41.433,30.133c0,2.243-.234,3.407-.7,3.407a7.15,7.15,0,0,1-2.242-1.447,8.956,8.956,0,0,1-3.085-7.1,14.389,14.389,0,0,1,.561-3.831,39.193,39.193,0,0,0-4.391-3.222,58.542,58.542,0,0,1-4.39,5.794h1.122c.981,0,1.914-.047,2.848-.094l.234.188.046.467-.233.187a22.392,22.392,0,0,1-3.691.232H26.255C20.884,30.13,15.091,32.84,9.673,32.84,3.876,32.843,0,30.226,0,27.378c0-2.287,2.005-3.923,5.465-3.923a14.065,14.065,0,0,1,7.1,1.916l.093.326-.187.373-.28.094a13.056,13.056,0,0,0-5.326-1.451c-2.522,0-3.97,1.17-3.97,3.132,0,2.053,2.663,4.063,6.96,4.063,3.6,0,7.988-2.429,12.567-7.287-9.11-.934-14.061-4.438-14.061-8.455,0-2.85,2.706-5,7.474-5a27.151,27.151,0,0,1,13.873,4.2C36.577,4.957,42.69.333,45.683.333c.422,0,.608.092.608.56,0,1.027-3.269,7.707-8.081,20.692a13.091,13.091,0,0,1,3.223,8.548m-24.15-17.8c-4.3,0-6.819,1.868-6.819,4.343,0,3.458,4.483,6.4,12.752,7.008A54.3,54.3,0,0,0,29.1,16.261c-4.483-2.662-8.549-3.923-11.818-3.923m14.9,4.669c1.542,1.075,2.9,2.057,4.017,2.944,2.662-8.64,5.045-14.484,7.1-17.469-2.943.936-5.933,6.167-11.118,14.531m5.185,9.81c0,2.241.56,3.784,1.961,4.81a7.97,7.97,0,0,0,.7-3.316,7.5,7.5,0,0,0-2.152-5.282,14.54,14.54,0,0,0-.513,3.784" transform="translate(0 0.041)"/>
        <path id="Path_48" data-name="Path 48" d="M58.884,18.451c0,1.167-1.028,2.383-2.522,4.39-4.018,5.511-6.306,8.5-9.109,8.5A2.732,2.732,0,0,1,44.216,28.4c0-2,1.542-5.651,4.905-10.6a10.129,10.129,0,0,1-4.436,1.821c-1.168,0-1.776-.56-1.776-1.634a3.728,3.728,0,0,1,2.85-3.736l.093.139a3.5,3.5,0,0,0-.56,1.5c0,.793.422,1.167,1.354,1.167,1.075,0,2.9-.608,5.56-1.634l.186.139c-3.269,6.96-5.184,11.071-5.184,12.661a1.3,1.3,0,0,0,1.214,1.354c1.868,0,4.9-4.063,10.369-11.724a2.349,2.349,0,0,1,.093.606" transform="translate(5.343 1.774)"/>
        <path id="Path_49" data-name="Path 49" d="M57.4,17.7H54.829l-.093-.281.187-.652.236-.232H57.82L59.74,10.5c.187-.607.372-.982.886-1.075l1.681-.372h.187c.235,0,.326.092.326.325a1.169,1.169,0,0,1-.046.374l-1.916,6.776h2.429l.047.234-.139.746-.188.188H60.529l-2.756,9.53a7.367,7.367,0,0,0-.372,2.052,1.092,1.092,0,0,0,1.011,1.167c.037,0,.073,0,.11,0,1.961,0,5.418-3.923,10.464-11.678a1.7,1.7,0,0,1,.092.653c0,1.121-.887,2.336-2.2,4.157-3.923,5.511-6.773,8.408-9.341,8.408a2.741,2.741,0,0,1-3.082-2.944,21.488,21.488,0,0,1,1.028-4.623Z" transform="translate(6.78 1.128)"/>
        <path id="Path_50" data-name="Path 50" d="M88.851,27.278c1.448,0,3.971-3.269,8.361-9.437a1.248,1.248,0,0,1,.141.56c0,.841-.747,1.961-2,3.643-3.407,4.577-5.512,7.054-7.384,7.054a2.366,2.366,0,0,1-1.773-.841c-2.1,2.105-4.156,3.176-6.446,3.176A5.55,5.55,0,0,1,73.86,25.5a10.651,10.651,0,0,1,3.269-7.287,9.993,9.993,0,0,1,7.1-3.6c2.943,0,5.231,2.429,5.231,5.98a11.36,11.36,0,0,1-1.775,5.7,1.15,1.15,0,0,0,1.168.981M83.993,15.6a4.1,4.1,0,0,0-2.706,1.3,13.991,13.991,0,0,0-4.064,9.436c0,2.616,1.122,4.063,2.99,4.063,1.541,0,3.223-1.3,4.951-3.923a4.075,4.075,0,0,1-.327-1.73,10.247,10.247,0,0,1,2.243-5.885C86.66,16.719,85.586,15.6,84,15.6" transform="translate(9.196 1.82)"/>
        <path id="Path_51" data-name="Path 51" d="M90.263,27.139a.857.857,0,0,1,.187-.467l.7-.934c.139-.188.28-.28.373-.28a.874.874,0,0,1,.513.186l1.309.749C96.615,11.631,100.119,2.85,102.826,0h.188c.56.7.933,2.476.933,5.139a24.633,24.633,0,0,1-7.1,17.142,28.31,28.31,0,0,1-1.261,5.6A5.66,5.66,0,0,0,99.1,29.054c3.268,0,5.6-3.317,9.761-9.62a3.558,3.558,0,0,1,.093.653c0,1.213-.841,2.2-1.961,3.784-3.131,4.2-5.232,6.772-8.969,6.772a5.867,5.867,0,0,1-3.223-.934,22.063,22.063,0,0,1,1.445,6.96,11.172,11.172,0,0,1-4.622,9.482l-.234-.046c-.467-.656-.609-2.337-.609-5a51.673,51.673,0,0,1,2.059-12.192c-1.728-.888-2.568-1.4-2.568-1.774m4.951,9.247a13.4,13.4,0,0,0-.748-4.248c-1.823,4.53-2.617,8.174-2.617,10.555a5.347,5.347,0,0,0,.047.889,8.591,8.591,0,0,0,3.317-7.2m6.956-27.559a13.548,13.548,0,0,0-.842-4.72c-1.4,3.361-2,8.829-3.922,15.974a16.712,16.712,0,0,0,4.765-11.254" transform="translate(11.24)"/>
        <path id="Path_52" data-name="Path 52" d="M129.732,33.092a4.316,4.316,0,0,1-.187-1.214,34.633,34.633,0,0,1,2.57-11.911A27.712,27.712,0,0,1,139.03,9.544c-.467-5-4.483-8.127-10.6-8.127-6.309,0-10.28,3.225-10.28,7.478,0,3.315,2.615,5.418,6.866,5.418a18.893,18.893,0,0,0,7.8-2.005l.328.139.187.423-.141.326a18.957,18.957,0,0,1-9.2,2.336c-5.325,0-8.592-2.755-8.592-6.68,0-4.719,5.23-8.548,13.5-8.548,7.288,0,12.053,2.851,13.219,7.241C147.621,2.635,151.966.212,155,.212c2.476,0,4.064,1.447,4.064,3.507,0,2.568-2.944,6.164-8.595,11.4,5.185.092,8.08,2.755,8.08,7.241a12.6,12.6,0,0,1-4.017,8.734,10.262,10.262,0,0,1-7.147,3.131c-2.568,0-4.156-1.543-4.156-3.738,0-2.895,2.806-6.072,7.615-7.38l.327.094.093.419-.093.234c-3.269,1.4-5.325,4.483-5.325,7.1a2.114,2.114,0,0,0,1.933,2.282c.057.006.115.008.171.008,1.262,0,2.757-.841,4.109-2.475a14.071,14.071,0,0,0,3.269-8.919c0-3.407-1.914-5.28-5.931-5.7-3.691,3.507-6.493,5.745-8.549,6.631l-.187-.139a9.988,9.988,0,0,1,8.127-7.334c4.719-4.765,6.96-8.317,6.96-10.322,0-1.447-1.074-2.43-2.9-2.43-2.428,0-6.259,2.057-10.6,6.447v.141c0,3.507-1.588,8.688-4.951,14.9-2.617,4.81-5.28,7.847-7.335,9.109Zm9.3-22.141a20.874,20.874,0,0,0-6.072,14.713,7.815,7.815,0,0,0,.324,2.428c2.989-2.988,5.511-9.2,5.745-17.142" transform="translate(14.369 0.026)"/>
        <path id="Path_53" data-name="Path 53" d="M177.195,18.64c0,.887-.7,2.241-2.011,4.063-4.2,5.794-8.781,8.689-12.7,8.689-3.362,0-5.465-2.29-5.465-5.84a11.825,11.825,0,0,1,3.131-7.427,9.121,9.121,0,0,1,6.492-3.507c2.29,0,3.83,1.451,3.83,3.224,0,2.756-3.6,6.213-10.321,8.268,0,2.475,1.354,3.972,3.507,3.972,3.6,0,8.6-3.927,13.407-12.007a1,1,0,0,1,.141.56m-9.482-1.121c0-1.167-.56-1.773-1.543-1.773-2.105,0-5.091,3.316-6.026,9.294,4.72-1.075,7.568-4.439,7.568-7.516" transform="translate(19.552 1.82)"/>
        <path id="Path_54" data-name="Path 54" d="M174.843,31.188c-2.336,0-3.83-1.821-3.83-4.951,0-2.706,1.635-5.933,4.67-8.688a10.362,10.362,0,0,1,6.866-2.807,9.907,9.907,0,0,1,4.109.888l.232.328v.093a19.466,19.466,0,0,1-1.027,3.737l-2.105,7.195a6.709,6.709,0,0,0-.279,1.634.93.93,0,0,0,.887.934c1.589,0,4.67-3.83,9.9-11.3a1.626,1.626,0,0,1,.139.652c0,.841-.7,1.73-1.681,3.085-4.3,5.745-6.819,9.248-9.575,9.248a2.117,2.117,0,0,1-2.336-2.336,22.415,22.415,0,0,1,1.355-5.231c-2.85,5-5.092,7.516-7.334,7.516m7.516-15.415c-1.447,0-3.082,1.167-4.858,3.643-2.336,3.269-3.5,6.072-3.5,8.174,0,1.3.606,2.057,1.447,2.057,1.961,0,5.371-4.3,9.019-13.128a3.114,3.114,0,0,0-2.1-.749" transform="translate(21.295 1.836)"/>
        <path id="Path_55" data-name="Path 55" d="M192.537,16.137c.188-.513.234-.793.842-.886l1.914-.376h.187c.234,0,.373.094.373.328a2.341,2.341,0,0,1-.093.421L192.07,26.41a7.261,7.261,0,0,0-.419,2.057.91.91,0,0,0,.838.976l.048,0c1.214,0,4.672-3.361,8.969-10.089,1.447-2.288,1.493-3.923,2.616-4.156l1.777-.374h.138a.346.346,0,0,1,.374.314.545.545,0,0,1,0,.061,1.346,1.346,0,0,1-.094.419l-3.642,10.7a7.187,7.187,0,0,0-.422,2.057.979.979,0,0,0,.934.979c1.635,0,4.857-3.923,10-11.631a1.512,1.512,0,0,1,.188.653c0,1.074-1.075,2.522-2.756,4.911-3.784,5.276-6.773,7.94-8.735,7.94a2.462,2.462,0,0,1-2.493-2.432,2.611,2.611,0,0,1,.017-.324c0-1.167.8-3.738,2.288-7.8-4.671,6.96-7.94,10.558-10.6,10.558-1.543,0-2.383-.842-2.383-2.522a10.206,10.206,0,0,1,.606-2.806Z" transform="translate(23.499 1.846)"/>
        <path id="Path_56" data-name="Path 56" d="M210.885,17.7h-2.568l-.094-.281.187-.652.234-.233h2.663l1.914-6.027c.187-.606.373-.981.888-1.074l1.681-.372h.187c.233,0,.327.092.327.325a1.206,1.206,0,0,1-.046.374l-1.915,6.775h2.43l.049.234-.142.746-.187.188h-2.476l-2.756,9.53a7.366,7.366,0,0,0-.372,2.052A1.092,1.092,0,0,0,211.9,30.45c.036,0,.073,0,.11,0,1.961,0,5.418-3.923,10.463-11.678a1.68,1.68,0,0,1,.093.653c0,1.121-.887,2.336-2.2,4.157-3.925,5.511-6.774,8.408-9.343,8.408a2.741,2.741,0,0,1-3.083-2.944,21.556,21.556,0,0,1,1.028-4.623Z" transform="translate(25.893 1.128)"/>
        <path id="Path_57" data-name="Path 57" d="M221.43,44.475l-.281-.046a5.735,5.735,0,0,1-.325-1.961c0-3.507,2.288-6.728,6.959-10.089a90.767,90.767,0,0,1,2.806-10.79c-3.738,6.119-7.1,9.2-10.044,9.2a2.43,2.43,0,0,1-2.4-2.462c0-.081.007-.163.016-.244a10.981,10.981,0,0,1,.608-2.756l3.037-9.388a1,1,0,0,1,.933-.7l1.776-.233h.139c.188,0,.28.046.28.233a2.131,2.131,0,0,1-.092.373l-3.317,10.652a6.388,6.388,0,0,0-.328,1.961.929.929,0,0,0,.934.886c1.589,0,4.209-2.615,7.567-7.941,2.476-3.876,2.756-5.885,3.646-5.979l1.914-.233h.092c.188,0,.327.093.327.233,0,.654-2.57,5.933-5.139,16.443,3.224-2.662,7.1-7.1,11.725-13.358a1.3,1.3,0,0,1,.139.606c0,.981-1.074,2.336-2.806,4.483-3.456,4.252-6.4,7.66-9.482,9.856-1.541,5.887-4.532,9.72-8.688,11.258m6.259-10.743c-3.224,2.241-4.81,4.39-4.81,7.1a5.506,5.506,0,0,0,.326,1.681c2.382-1.262,3.877-4.209,4.483-8.781" transform="translate(27.165 1.863)"/>
        <path id="Path_58" data-name="Path 58" d="M37.042,51.573c0-2.783-1.912-4.078-5.922-4.078-4.078,0-6.343,1.554-6.343,3.823,0,1.78,1.552,2.978,4.273,2.978a17.787,17.787,0,0,0,3.431-.419l.225.129.1.324-.162.161a15.91,15.91,0,0,1-4.11.55c-3.462,0-5.47-1.586-5.47-3.688,0-2.525,2.913-4.532,7.994-4.532,5.5,0,8.253,1.974,8.253,5.858a17.871,17.871,0,0,1-1.716,6.375,26.593,26.593,0,0,1-3.754,6.44,13.447,13.447,0,0,1-6.343,4.66l-.1-.1c.583-3.949,3.494-8.348,8.7-12.913a31.636,31.636,0,0,0,.938-5.565M29.958,68.14c2.655-1.328,4.789-4.66,5.96-9.871a14.747,14.747,0,0,0-5.96,9.871m10.908-9.221c1.52,0,2.586,1.1,3.6,3.3,1.812,4.012,2.2,6.41,3.85,6.41,1.462,0,3.754-2.686,7.281-7.962a.59.59,0,0,1,.195.45c0,.713-.972,1.976-2.655,4.11-2.3,2.944-4.11,4.467-5.63,4.467-2.1,0-2.811-1.912-4.273-5.113-1.327-2.913-1.843-4.5-3.2-4.5A5.624,5.624,0,0,0,37.6,61.116l-.1-.1c.129-1.3,2.071-4.468,6.084-8.19,4.79-4.4,8.8-5.922,9.029-5.922s.26.129.26.388a5.336,5.336,0,0,1-.485,2.137c-.26.419-.972.518-1.845.841A22.8,22.8,0,0,0,38.9,59.5a4.659,4.659,0,0,1,1.969-.577" transform="translate(2.872 5.83)" fill="#dcbf8c"/>
        <path id="Path_59" data-name="Path 59" d="M51.726,68.424c-1.616,0-2.653-1.263-2.653-3.431a8.721,8.721,0,0,1,3.236-6.018,7.176,7.176,0,0,1,4.757-1.943,6.834,6.834,0,0,1,2.847.617l.162.225v.064a13.557,13.557,0,0,1-.711,2.586L57.9,65.509a4.6,4.6,0,0,0-.195,1.132.644.644,0,0,0,.614.648c1.1,0,3.236-2.655,6.86-7.831a1.166,1.166,0,0,1,.1.45c0,.58-.487,1.2-1.166,2.137-2.978,3.98-4.723,6.41-6.635,6.41a1.462,1.462,0,0,1-1.617-1.617,15.53,15.53,0,0,1,.938-3.624c-1.974,3.462-3.528,5.21-5.082,5.21m5.21-10.683c-1,0-2.137.81-3.366,2.525-1.608,2.268-2.421,4.21-2.421,5.668,0,.906.419,1.425,1,1.425,1.358,0,3.722-2.979,6.246-9.094a2.152,2.152,0,0,0-1.462-.518" transform="translate(6.111 7.102)" fill="#dcbf8c"/>
        <path id="Path_60" data-name="Path 60" d="M74.068,59.6c0,.81-.713,1.651-1.746,3.043-2.783,3.823-4.369,5.891-6.311,5.891a1.892,1.892,0,0,1-2.1-1.663,1.845,1.845,0,0,1-.006-.378c0-1.39,1.068-3.916,3.4-7.347a7.011,7.011,0,0,1-3.073,1.263c-.81,0-1.231-.388-1.231-1.132a2.586,2.586,0,0,1,1.976-2.586l.064.1a2.429,2.429,0,0,0-.388,1.033c0,.55.291.81.938.81A13.716,13.716,0,0,0,69.44,57.5l.13.1c-2.266,4.821-3.6,7.669-3.6,8.771a.9.9,0,0,0,.843.938c1.293,0,3.4-2.811,7.182-8.122a1.607,1.607,0,0,1,.065.419" transform="translate(7.845 7.059)" fill="#dcbf8c"/>
        <path id="Path_61" data-name="Path 61" d="M80.9,65.717c1,0,2.749-2.265,5.792-6.538a.864.864,0,0,1,.1.388,5.47,5.47,0,0,1-1.39,2.523c-2.361,3.173-3.818,4.887-5.113,4.887a1.643,1.643,0,0,1-1.228-.583,6.282,6.282,0,0,1-4.467,2.2,3.847,3.847,0,0,1-4.078-4.11,7.387,7.387,0,0,1,2.265-5.048,6.917,6.917,0,0,1,4.92-2.491c2.039,0,3.624,1.687,3.624,4.142a7.873,7.873,0,0,1-1.229,3.949.8.8,0,0,0,.81.675m-3.367-8.091a2.831,2.831,0,0,0-1.876.906,9.68,9.68,0,0,0-2.811,6.537c0,1.812.776,2.811,2.071,2.811,1.068,0,2.233-.906,3.431-2.718a2.842,2.842,0,0,1-.225-1.2,7.1,7.1,0,0,1,1.552-4.078c-.291-1.489-1.033-2.265-2.137-2.265" transform="translate(8.779 7.091)" fill="#dcbf8c"/>
        <path id="Path_62" data-name="Path 62" d="M86.048,65.771c0,1.877.45,2.782,1.584,2.782,1.651,0,3.949-2.717,7.511-7.992a1.821,1.821,0,0,1,.1.549,9.106,9.106,0,0,1-1.746,3.01c-2.721,3.786-4.858,5.662-6.6,5.662-1.78,0-2.944-1.423-2.944-3.98a33.877,33.877,0,0,1,1.132-6.6,35.7,35.7,0,0,1,2.848-7.734,12.631,12.631,0,0,1,3.106-4.53l.225-.034a3.438,3.438,0,0,1,.55,2.361c0,4.4-1.812,9.158-5.436,13.787a15.264,15.264,0,0,0-.322,2.72M90.06,52.727a18.627,18.627,0,0,0-.291-2.978,34.191,34.191,0,0,0-3.236,12.005,15.023,15.023,0,0,0,3.528-9.028" transform="translate(10.453 5.841)" fill="#dcbf8c"/>
        <path id="Path_63" data-name="Path 63" d="M94.5,58.514a.758.758,0,0,1,.615-.583l1.2-.225h.129a.2.2,0,0,1,.225.182.272.272,0,0,1,0,.043.4.4,0,0,1-.034.195l-2.2,6.828a9.822,9.822,0,0,0-.518,2.1c0,.584.291.938.81.938,1.294,0,3.754-2.718,7.442-8.121a1.607,1.607,0,0,1,.065.419c0,.809-.711,1.687-1.748,3.106-2.718,3.624-4.692,5.534-6.635,5.534A1.809,1.809,0,0,1,91.964,67.2a1.891,1.891,0,0,1,.006-.24,7.7,7.7,0,0,1,.45-2.073Zm.938-4.53a3.235,3.235,0,0,1,.875-1.586c.291,0,.582.324,1,.55.389.195.68.225.68.583,0,1.037-.195,1.462-.68,1.462-.874,0-1.877-.615-1.877-1" transform="translate(11.452 6.525)" fill="#dcbf8c"/>
        <path id="Path_64" data-name="Path 64" d="M101.505,58.257c.161-.485.291-.778.744-.874l1.1-.26a.53.53,0,0,1,.225-.034.238.238,0,0,1,.26.215.3.3,0,0,1,0,.045.664.664,0,0,1-.031.225l-2.2,6.99c3.236-5.017,5.6-7.508,7.216-7.508a1.783,1.783,0,0,1,1.781,1.786v.026a11.894,11.894,0,0,1-.843,3.2,20.458,20.458,0,0,0-1.327,4.4.607.607,0,0,0,.615.55c1,0,3.2-2.556,6.829-7.573a.864.864,0,0,1,.1.388c0,.778-.938,1.877-2.362,3.754-2.427,3.171-4.078,4.79-5.438,4.79a1.9,1.9,0,0,1-1.915-1.879q0-.064,0-.128a24.752,24.752,0,0,1,1.423-4.855,16.4,16.4,0,0,0,.778-2.655.5.5,0,0,0-.518-.485c-.713,0-2.33,1.523-4.563,4.66a22.451,22.451,0,0,0-2.265,3.823c-.324.711-.291,1.1-.938,1.228l-1.2.225h-.125a.257.257,0,0,1-.291-.218.265.265,0,0,1,0-.073,1.037,1.037,0,0,1,.065-.422Z" transform="translate(12.273 7.105)" fill="#dcbf8c"/>
        <path id="Path_65" data-name="Path 65" d="M114.074,68.424c-1.617,0-2.652-1.263-2.652-3.431a8.72,8.72,0,0,1,3.235-6.018,7.179,7.179,0,0,1,4.757-1.943,6.839,6.839,0,0,1,2.848.617l.161.225v.064a13.4,13.4,0,0,1-.711,2.586l-1.462,4.985a4.6,4.6,0,0,0-.195,1.132.644.644,0,0,0,.615.648c1.1,0,3.236-2.655,6.86-7.831a1.127,1.127,0,0,1,.1.45c0,.58-.485,1.2-1.166,2.137-2.978,3.98-4.723,6.41-6.635,6.41a1.462,1.462,0,0,1-1.617-1.617,15.531,15.531,0,0,1,.938-3.624c-1.974,3.462-3.527,5.21-5.082,5.21m5.212-10.683c-1,0-2.137.81-3.367,2.525-1.617,2.265-2.426,4.207-2.426,5.664,0,.906.419,1.425,1,1.425,1.36,0,3.722-2.979,6.246-9.094a2.146,2.146,0,0,0-1.455-.518" transform="translate(13.875 7.102)" fill="#dcbf8c"/>
        <path id="Path_66" data-name="Path 66" d="M148.381,69.6c-3.074,0-5.4-2.3-5.4-5.96,0-.225.03-.419.03-.648a22.033,22.033,0,0,1-3.139.225c-4.918,0-7.734-2.137-7.734-4.948,0-2.718,2.783-4.855,7.573-4.855a27.8,27.8,0,0,1,7.18,1.137c4.206-5.018,9.446-7.508,13.235-7.508,2.492,0,3.85,1.164,3.85,3.2,0,2.3-1.845,4.629-5.534,7.152a34.108,34.108,0,0,1-12.977,5.21,7.976,7.976,0,0,0-.162,1.813,3.837,3.837,0,0,0,3.4,4.228,3.772,3.772,0,0,0,.739.009c2.88,0,7.412-2.62,12.785-8.153l.161.031a47.851,47.851,0,0,1-2.749,12.264,11.9,11.9,0,0,1-3.916,5.048,3.108,3.108,0,0,1-1.455.778c-.26,0-.518-.487-.518-1.392a9.509,9.509,0,0,1,2.362-5.96l.161-.034.225.129.034.2a7.053,7.053,0,0,0-1.3,3.624,4.251,4.251,0,0,0,.423,1.812c2.361-1.293,3.171-5.632,4.173-13.3-4.5,3.916-8.219,5.889-11.457,5.889m-1.97-14.463a21.648,21.648,0,0,0-5.5-.841c-4.337,0-6.829,1.912-6.829,4.273,0,2.4,2.234,3.981,6.085,3.981a22.144,22.144,0,0,0,2.913-.225,17.163,17.163,0,0,1,3.334-7.185m7.216,4.207c5.438-2.783,8.221-6.246,8.221-8.932a2.34,2.34,0,0,0-2.137-2.527,2.284,2.284,0,0,0-.421,0c-2.427,0-6.246,2.362-10.161,7.378q1.262.437,2.525.97l.1.26-.2.324h-.164a22.666,22.666,0,0,0-2.749-.972,18.23,18.23,0,0,0-2.978,6.053,30.369,30.369,0,0,0,7.96-2.557" transform="translate(16.455 5.859)" fill="#dcbf8c"/>
        <path id="Path_67" data-name="Path 67" d="M163.676,68.424c-1.617,0-2.652-1.263-2.652-3.431a8.72,8.72,0,0,1,3.235-6.018,7.179,7.179,0,0,1,4.757-1.943,6.839,6.839,0,0,1,2.848.617l.161.225v.064a13.4,13.4,0,0,1-.711,2.586l-1.462,4.985a4.6,4.6,0,0,0-.195,1.132.644.644,0,0,0,.615.648c1.1,0,3.236-2.655,6.86-7.831a1.126,1.126,0,0,1,.1.45c0,.58-.485,1.2-1.166,2.137-2.978,3.98-4.723,6.41-6.635,6.41a1.462,1.462,0,0,1-1.617-1.617,15.53,15.53,0,0,1,.938-3.624c-1.974,3.462-3.527,5.21-5.082,5.21m5.212-10.683c-1,0-2.137.81-3.367,2.525-1.617,2.265-2.426,4.207-2.426,5.664,0,.906.419,1.425,1,1.425,1.36,0,3.722-2.979,6.246-9.094a2.146,2.146,0,0,0-1.455-.518" transform="translate(20.052 7.102)" fill="#dcbf8c"/>
        <path id="Path_68" data-name="Path 68" d="M175.676,68.442c-1.166,0-1.877-.81-1.877-2.2a7.814,7.814,0,0,1,.356-2.071l1.715-6.343c.065-.291.161-.419.45-.45l1.327-.195c.065,0,.13-.031.195-.031.13,0,.162.065.162.161a2.463,2.463,0,0,1-.065.324L176.093,64.2a7.46,7.46,0,0,0-.354,1.942.951.951,0,0,0,.828,1.06c.026,0,.053.006.079.007.968,0,2.783-1.877,4.885-5.629,1.425-2.557,1.425-3.981,2.4-4.175l1.231-.225h.134c.13,0,.161.034.161.162a1.207,1.207,0,0,1-.064.419l-1.651,5.727a10.551,10.551,0,0,0-.419,2.557c0,.874.388,1.358,1.067,1.358.939,0,2.361-1.067,4.143-3.235a13.44,13.44,0,0,1-.129-1.425,7.114,7.114,0,0,1,2.426-5.532l.162.03a2.417,2.417,0,0,1,.356,1.555,9.72,9.72,0,0,1-2.071,5.436c.1,1.067.614,1.65,1.392,1.65,1.358,0,3.073-2.2,5.824-6.41a.893.893,0,0,1,.065.419c0,.744-.648,1.687-1.715,3.14-1.687,2.3-2.914,3.559-4.208,3.559a2,2,0,0,1-1.942-1.617c-2.137,2.33-3.823,3.527-5.243,3.527-1.293,0-2.071-.874-2.071-2.427a24.472,24.472,0,0,1,.9-4.467c-2.62,4.532-4.756,6.829-6.6,6.829" transform="translate(21.642 7.117)" fill="#dcbf8c"/>
        <path id="Path_69" data-name="Path 69" d="M205.937,59.733a6.008,6.008,0,0,1-1.392,2.811c-2.914,4.015-6.085,6.02-8.8,6.02a3.66,3.66,0,0,1-3.787-4.048,8.209,8.209,0,0,1,2.169-5.147,6.311,6.311,0,0,1,4.5-2.426,2.4,2.4,0,0,1,2.646,2.123c0,.036.007.072.009.108,0,1.912-2.492,4.3-7.152,5.729,0,1.716.938,2.749,2.427,2.749,2.492,0,5.96-2.718,9.289-8.321a.7.7,0,0,1,.1.389m-6.571-.778c0-.809-.388-1.231-1.067-1.231-1.462,0-3.528,2.3-4.175,6.441,3.269-.744,5.243-3.074,5.243-5.21" transform="translate(23.9 7.089)" fill="#dcbf8c"/>
        <path id="Path_70" data-name="Path 70" d="M205.479,65.771c0,1.877.45,2.782,1.584,2.782,1.651,0,3.949-2.717,7.511-7.992a1.821,1.821,0,0,1,.1.549,9.107,9.107,0,0,1-1.746,3.01c-2.718,3.787-4.855,5.662-6.6,5.662-1.781,0-2.945-1.423-2.945-3.98a33.962,33.962,0,0,1,1.132-6.6,35.837,35.837,0,0,1,2.848-7.734,12.637,12.637,0,0,1,3.108-4.53l.225-.034a3.445,3.445,0,0,1,.549,2.361c0,4.4-1.812,9.158-5.436,13.787a15.229,15.229,0,0,0-.323,2.718m4.012-13.044a18.625,18.625,0,0,0-.291-2.978,34.191,34.191,0,0,0-3.236,12.005,15.023,15.023,0,0,0,3.528-9.028" transform="translate(25.325 5.841)" fill="#dcbf8c"/>
      </g>
    </g>
  </g>
</svg>
