<?xml version="1.0" encoding="utf-8"?>
<!-- Generator: Adobe Illustrator 16.0.0, SVG Export Plug-In . SVG Version: 6.00 Build 0)  -->
<!DOCTYPE svg PUBLIC "-//W3C//DTD SVG 1.1//EN" "http://www.w3.org/Graphics/SVG/1.1/DTD/svg11.dtd" [
	<!ENTITY ns_extend "http://ns.adobe.com/Extensibility/1.0/">
	<!ENTITY ns_ai "http://ns.adobe.com/AdobeIllustrator/10.0/">
	<!ENTITY ns_graphs "http://ns.adobe.com/Graphs/1.0/">
	<!ENTITY ns_vars "http://ns.adobe.com/Variables/1.0/">
	<!ENTITY ns_imrep "http://ns.adobe.com/ImageReplacement/1.0/">
	<!ENTITY ns_sfw "http://ns.adobe.com/SaveForWeb/1.0/">
	<!ENTITY ns_custom "http://ns.adobe.com/GenericCustomNamespace/1.0/">
	<!ENTITY ns_adobe_xpath "http://ns.adobe.com/XPath/1.0/">
]>
<svg version="1.1" id="Layer_1" xmlns:x="&ns_extend;" xmlns:i="&ns_ai;" xmlns:graph="&ns_graphs;"
	 xmlns="http://www.w3.org/2000/svg" xmlns:xlink="http://www.w3.org/1999/xlink" x="0px" y="0px" width="288.001px"
	 height="48.235px" viewBox="0 0 288.001 48.235" enable-background="new 0 0 288.001 48.235" xml:space="preserve">
<metadata>
	<sfw  xmlns="&ns_sfw;">
		<slices></slices>
		<sliceSourceBounds  height="48.235" width="288.002" y="0" x="0" bottomLeftOrigin="true"></sliceSourceBounds>
	</sfw>
</metadata>
<g>
	<defs>
		<rect id="SVGID_1_" width="288.001" height="48.235"/>
	</defs>
	<clipPath id="SVGID_2_">
		<use xlink:href="#SVGID_1_"  overflow="visible"/>
	</clipPath>
	<path clip-path="url(#SVGID_2_)" fill="#005AAC" d="M96.501,5.438h7.895V28.63c0,7.671,4.575,12.246,10.586,12.246
		c6.056,0,10.586-4.576,10.586-12.246V5.438h7.851v24.852c0,9.69-7.222,17.943-18.437,17.943S96.501,39.98,96.501,30.291V5.438z"/>
	<polygon clip-path="url(#SVGID_2_)" fill="#005AAC" points="177.111,48.234 177.111,6.381 169.307,6.381 169.307,32.534 
		146.473,6.381 142.212,6.381 142.212,48.189 150.017,48.189 150.017,22.171 172.805,48.234 	"/>
	<rect x="186.398" y="6.426" clip-path="url(#SVGID_2_)" fill="#005AAC" width="8.072" height="41.808"/>
	<path clip-path="url(#SVGID_2_)" fill="#005AAC" d="M223.809,3.735c-12.425,0-22.474,9.958-22.474,22.25s10.048,22.25,22.474,22.25
		c4.711,0,9.106-1.437,12.695-3.902l3.679,3.634l5.114-5.113l-3.544-3.499c2.827-3.724,4.531-8.344,4.531-13.367
		C246.283,13.694,236.19,3.735,223.809,3.735 M223.809,10.732c8.03,0,14.579,6.818,14.579,15.252c0,2.871-0.762,5.562-2.107,7.895
		l-4.801-4.844l-5.113,5.114l4.935,4.934c-2.198,1.392-4.755,2.154-7.492,2.154c-8.074,0-14.579-6.819-14.579-15.252
		C209.229,17.551,215.735,10.732,223.809,10.732"/>
	<path clip-path="url(#SVGID_2_)" fill="#005AAC" d="M267.232,6.426h-2.423l-18.303,41.808h8.388l3.32-7.896h9.018h8.972
		l3.184,7.896h8.614l-17.81-41.808H267.232z M267.232,33.476h-6.146l6.146-14.803l0.135-0.224l6.056,15.027H267.232z"/>
	<path clip-path="url(#SVGID_2_)" fill="#005AAC" d="M35.706,41.371c-3.711-2.688-6.271-5.683-8.191-8.573
		c-5.606-8.524-4.812-17.073-2.201-21.322c0.102-0.102,2.303-2.431,5.375-4.095c2.585-1.51,5.196-2.252,7.474-2.533
		c-2.995,1.074-5.682,3.864-6.911,6.271c0,0-1.715,2.891-1.536,7.498c0.179,3.557,1.869,7.705,3.557,10.291
		c4.3,6.526,9.701,9.342,15.229,10.776c2.611,0.665,6.63,0.998,11.8,1.253c4.198,0.231,12.798,0.283,14.282,0.283h1.613l3.66,7.012
		c0,0-12.465,0.052-18.275-0.256C52.189,47.462,43.461,47.026,35.706,41.371"/>
	<path clip-path="url(#SVGID_2_)" fill="#005AAC" d="M42.796,47.027c-2.022,0.512-4.019,0.742-5.861,0.742
		c-5.273-0.025-10.238-2.483-14.359-5.657c-4.914-3.788-8.523-9.035-9.419-14.794c-0.128-0.665-0.205-1.331-0.307-2.278
		c-0.358-3.942,0.205-8.882,2.969-13.591c2.38-4.095,5.938-7.627,11.8-10.084c2.432-1.024,7.679-2.175,13.745-0.563
		c6.347,1.766,11.927,5.733,15.511,10.929c0,0-5.503-7.167-14.871-7.986c-0.435-0.026-0.87-0.051-1.28-0.051
		c-4.658-0.103-9.112,1.51-12.823,4.172c-2.354,1.664-4.428,3.788-6.04,6.22c-0.359,0.538-3.814,5.606-3.916,12.926
		c-0.077,6.373,2.764,10.955,3.839,12.517c0.025,0.024,2.688,1.816,6.706,2.585c2.815,0.538,6.04,0.282,6.629,0.077
		c0,0,1.638,1.279,3.814,2.405c2.662,1.409,5.196,2.073,5.196,2.073L42.796,47.027z"/>
	<path clip-path="url(#SVGID_2_)" fill="#005AAC" d="M30.638,47.769H0l3.097-5.503h17.942c1.1,0.921,2.662,2.048,4.351,3.046
		C27.131,46.334,29,47.232,30.638,47.769"/>
	<path clip-path="url(#SVGID_2_)" fill="#005AAC" d="M60.713,24.093c0.461,6.143-3.532,12.951-5.554,15.537
		c-1.254-0.103-3.251-0.333-5.093-0.665c-1.817-0.333-3.583-0.973-3.942-1.101c2.457-1.996,6.04-6.04,7.704-11.697
		c2.534-8.626-0.665-15.588-4.095-18.966C57.564,11.578,60.482,18.386,60.713,24.093"/>
</g>
</svg>
