<?xml version="1.0" encoding="utf-8"?>
<!-- Generator: Adobe Illustrator 13.0.0, SVG Export Plug-In . SVG Version: 6.00 Build 14948)  -->
<!DOCTYPE svg PUBLIC "-//W3C//DTD SVG 1.1//EN" "http://www.w3.org/Graphics/SVG/1.1/DTD/svg11.dtd">
<svg version="1.1" id="Layer_1" xmlns="http://www.w3.org/2000/svg" xmlns:xlink="http://www.w3.org/1999/xlink" x="0px" y="0px"
	 width="337.3px" height="337.3px" viewBox="0 0 337.3 337.3" enable-background="new 0 0 337.3 337.3" xml:space="preserve">
<rect fill="#005DA8" width="337.3" height="337.3"/>
<g>
	<defs>
		<rect id="SVGID_1_" width="337.3" height="337.3"/>
	</defs>
	<clipPath id="SVGID_2_">
		<use xlink:href="#SVGID_1_"  overflow="visible"/>
	</clipPath>
	<path clip-path="url(#SVGID_2_)" fill="#FFFFFF" d="M28.5,213.4H40v33.9c0,11.2,6.7,17.9,15.5,17.9c8.9,0,15.5-6.7,15.5-17.9v-33.9
		h11.5v36.4c0,14.1-10.6,26.2-27,26.2s-27-12.1-27-26.2V213.4z"/>
	<polygon clip-path="url(#SVGID_2_)" fill="#FFFFFF" points="146.4,274.6 146.4,213.4 135,213.4 135,251.6 101.6,213.4 95.4,213.4 
		95.4,274.5 106.8,274.5 106.8,236.5 140.1,274.6 	"/>
	<rect x="160.1" y="213.4" clip-path="url(#SVGID_2_)" fill="#FFFFFF" width="11.8" height="61.2"/>
	<path clip-path="url(#SVGID_2_)" fill="#FFFFFF" d="M247.7,243.9c0-18-14.7-32.5-32.9-32.5c-18.1,0-32.9,14.6-32.9,32.5
		c0,18,14.7,32.5,32.9,32.5c6.9,0,13.3-2.1,18.6-5.7l5.4,5.4l7.5-7.5l-5.2-5.2C245.3,258,247.7,251.3,247.7,243.9 M214.9,266.3
		c-11.8,0-21.3-10-21.3-22.3c0-12.3,9.6-22.3,21.3-22.3c11.8,0,21.3,10,21.3,22.3c0,4.2-1.1,8.2-3.1,11.5l-7.1-7.1l-7.5,7.5l7.2,7.2
		C222.6,265.1,218.9,266.3,214.9,266.3"/>
	<path clip-path="url(#SVGID_2_)" fill="#FFFFFF" d="M296.2,274.5h12.6l-26.1-61.2h-7.9l-26.7,61.2h12.3l4.8-11.5h26.3L296.2,274.5z
		 M269.4,252.9l9.2-22l8.9,22H269.4z"/>
	<path clip-path="url(#SVGID_2_)" fill="#FFFFFF" d="M125.9,182.2H57.5l7.8-14h40.2c1.8,1.6,3.6,3.2,5.5,4.6
		C115.5,176.3,120.5,179.6,125.9,182.2"/>
	<path clip-path="url(#SVGID_2_)" fill="#FFFFFF" d="M141,80.7c-2.2,1.9-16.4,29.3,1,53.5c4.9,6.8,12.1,15.1,20.5,20
		c8.7,5.1,14.6,6.4,18.3,7.4c6.6,1.8,16.8,2.5,30,3.2c10.7,0.6,32.5,0.7,36.3,0.7h4.1l9.3,17.8c0,0-31.7,0.1-46.5-0.7
		c-16.6-0.9-29.5-1.8-37.8-4.1c-4.7-1.3-12.1-2.9-23.1-9.3c-10.6-6.1-21.4-16.9-27.1-25.8c-13.6-21.6-10.2-36.1-8.4-43.2
		c3.9-5.4,8.9-10.5,14.3-14.4C136,83.1,138.4,82,141,80.7"/>
	<path clip-path="url(#SVGID_2_)" fill="#FFFFFF" d="M163,181.1c-4,0.8-8,1.1-11.6,1.1c-13.4,0-26-6.3-36.5-14.3
		c-12.5-9.6-21.7-23-24-37.6c-0.3-1.7-0.5-3.4-0.7-5.8c-0.9-10,0.5-22.5,7.5-34.6c6.1-10.4,15.1-19.4,30-25.6
		c6.2-2.6,19.5-5.5,35-1.4c16.2,4.5,30.4,14.5,39.5,27.7c0,0-14-18.2-37.9-20.3c-1.1-0.1-2.2-0.2-3.2-0.2
		c-11.8-0.2-23.1,3.8-32.5,10.6c-6,4.3-11.3,9.7-15.4,15.9c-0.2,0.3-0.9,1.4-1.9,3.1l-0.3,0.5c-0.2,0.4-0.4,0.8-0.6,1.2
		c-2.9,5.6-7,15.5-7.1,28.1c-0.2,16.2,7,27.8,9.8,31.8c0.1,0.1,6.8,4.7,17,6.6c4.1,0.8,8,0.9,11.4,0.8c2.8,2.3,5.8,4.3,8.8,6.1
		C155,177.7,159.3,179.7,163,181.1"/>
	<path clip-path="url(#SVGID_2_)" fill="#FFFFFF" d="M189,86.3c8.8,5.2,21.5,21.7,22.1,36.6c0.9,14.3-6.2,28.2-11,35
		c-7.7-0.6-13.6-1.3-17.7-2.4c-1.3-0.3-2.8-0.7-4.6-1.3c5.1-4.7,12.6-13.5,16.4-27C199.6,108.5,194.4,95.7,189,86.3"/>
</g>
</svg>
