<svg xmlns="http://www.w3.org/2000/svg" width="44.364" height="26.796" viewBox="0 0 44.364 26.796">
  <g id="Group_4" data-name="Group 4" transform="translate(0 -3.216)">
    <path id="Path_7" data-name="Path 7" d="M19.837,26.2a18.189,18.189,0,0,1-4.551-4.763c-3.114-4.735-2.673-9.485-1.223-11.845a13.2,13.2,0,0,1,2.986-2.275A10.9,10.9,0,0,1,21.2,5.908a7.639,7.639,0,0,0-3.839,3.484,8.134,8.134,0,0,0-.854,4.166,12.761,12.761,0,0,0,1.976,5.716,13.677,13.677,0,0,0,8.461,5.987,37.645,37.645,0,0,0,6.555.7c2.332.129,7.11.157,7.935.157h.9l2.033,3.9s-6.925.028-10.152-.142c-5.218-.285-10.068-.526-14.375-3.669Z" fill="#005ca9"/>
    <path id="Path_8" data-name="Path 8" d="M23.776,29.342a13.383,13.383,0,0,1-3.257.412,13.51,13.51,0,0,1-7.977-3.143,13.268,13.268,0,0,1-5.233-8.219c-.071-.37-.114-.74-.17-1.266a12.649,12.649,0,0,1,1.649-7.55,13.014,13.014,0,0,1,6.556-5.6,12.436,12.436,0,0,1,7.636-.313A15.626,15.626,0,0,1,31.6,9.732,12.639,12.639,0,0,0,23.335,5.3c-.241-.015-.483-.029-.711-.029A11.831,11.831,0,0,0,15.5,7.586a13.151,13.151,0,0,0-3.356,3.455A13.62,13.62,0,0,0,9.97,18.222,12.17,12.17,0,0,0,12.1,25.176a10.833,10.833,0,0,0,7.409,1.479,15.378,15.378,0,0,0,5.005,2.488l-.74.2Z" fill="#005ca9"/>
    <path id="Path_9" data-name="Path 9" d="M17.021,29.754H0L1.721,26.7h9.967A18.975,18.975,0,0,0,14.1,28.389a15.634,15.634,0,0,0,2.916,1.365Z" fill="#005ca9"/>
    <path id="Path_10" data-name="Path 10" d="M33.729,16.6c.256,3.413-1.962,7.195-3.085,8.631-.7-.057-1.806-.185-2.83-.37a14.855,14.855,0,0,1-2.19-.611,13.6,13.6,0,0,0,4.28-6.5A10.578,10.578,0,0,0,27.629,7.216a11.213,11.213,0,0,1,6.1,9.385Z" fill="#005ca9"/>
  </g>
</svg>
