<svg xmlns="http://www.w3.org/2000/svg" width="84.493" height="17.456" viewBox="0 0 84.493 17.456">
  <g id="logo-pw-white" transform="translate(0 -0.5)" opacity="0.2">
    <rect id="Rectangle_27" data-name="Rectangle 27" width="2.643" height="2.643" transform="translate(2.643 15.313)" fill="#161615" opacity="0.6"/>
    <path id="Path_97" data-name="Path 97" d="M7.929,70.3H0V83.509H2.643V72.943H7.929v7.929h2.643V70.3Z" transform="translate(0 -65.559)" fill="#161615"/>
    <rect id="Rectangle_28" data-name="Rectangle 28" width="2.643" height="2.643" transform="translate(7.924 12.669) rotate(90)" fill="#161615" opacity="0.8"/>
    <path id="Path_98" data-name="Path 98" d="M319.4,79.576a3.013,3.013,0,0,1-2.43-1.112h-.03v4.751H314.3V71.331h2.515v.978h.049a3.192,3.192,0,0,1,2.564-1.209,3.922,3.922,0,0,1,3.8,4.2C323.231,77.54,321.822,79.576,319.4,79.576Zm-.626-6.313a2.068,2.068,0,1,0,1.881,2.06A2.064,2.064,0,0,0,318.774,73.263Z" transform="translate(-295.204 -66.31)" fill="#161615"/>
    <rect id="Rectangle_29" data-name="Rectangle 29" width="2.643" height="8.026" transform="translate(29.711 5.02)" fill="#161615"/>
    <path id="Path_99" data-name="Path 99" d="M572.168,79.445V75.064c0-.887-.243-1.689-1.191-1.689s-1.416.808-1.416,1.726v4.35H566.9V71.425h2.564v1.112h.03a2.731,2.731,0,0,1,2.4-1.337c2.157,0,2.935,1.677,2.935,3.287v4.964h-2.661Z" transform="translate(-532.456 -66.404)" fill="#161615"/>
    <path id="Path_100" data-name="Path 100" d="M722.3,82.92V80.86l3.767-3.931H722.44V74.9h6.847v1.981l-3.882,4h4.046v2.048H722.3Z" transform="translate(-678.414 -69.88)" fill="#161615"/>
    <path id="Path_101" data-name="Path 101" d="M861.94,82.92h-2.655l-1.58-4.994h-.03l-1.549,4.994h-2.661L850.7,74.9h2.85l1.385,5.073h.049l1.434-5.073h2.661l1.483,5.073h.03l1.4-5.073h2.74Z" transform="translate(-799.013 -69.88)" fill="#161615"/>
    <path id="Path_102" data-name="Path 102" d="M1093.64,75.594h-5.814a1.838,1.838,0,0,0,1.92,1.513,2.1,2.1,0,0,0,1.774-.838l1.835,1.16a4.206,4.206,0,0,1-3.639,1.707,4.27,4.27,0,1,1-.085-8.536c2.37,0,4.028,1.628,4.028,4.368A6.118,6.118,0,0,1,1093.64,75.594Zm-2.418-1.64a1.457,1.457,0,0,0-1.58-1.531,1.754,1.754,0,0,0-1.823,1.531Z" transform="translate(-1019.359 -65.841)" fill="#161615"/>
    <path id="Path_103" data-name="Path 103" d="M1248.89,18.807a3.128,3.128,0,0,1-2.625-1.27h-.03v1.045h-2.43V6.4h2.643v5.013h.03a3.171,3.171,0,0,1,2.448-1.081,3.908,3.908,0,0,1,3.785,4.2C1252.71,16.771,1251.3,18.807,1248.89,18.807Zm-.626-6.313a1.994,1.994,0,0,0-1.932,2.06,1.975,1.975,0,0,0,1.932,2.06,1.925,1.925,0,0,0,1.9-2.078,1.9,1.9,0,0,0-1.9-2.042Z" transform="translate(-1168.229 -5.542)" fill="#161615"/>
    <rect id="Rectangle_30" data-name="Rectangle 30" width="2.643" height="2.643" transform="translate(29.711 0.5)" fill="#161615"/>
  </g>
</svg>
