<svg xmlns="http://www.w3.org/2000/svg" width="21.189" height="15.409" viewBox="0 0 21.189 15.409">
  <g id="mail" transform="translate(101 61.182)">
    <g id="Group_7" data-name="Group 7" transform="translate(-101 -61.182)">
      <path id="Path_96" data-name="Path 96" d="M19.262,69.818H1.926A1.926,1.926,0,0,0,0,71.744V83.305a1.926,1.926,0,0,0,1.926,1.922H19.262A1.926,1.926,0,0,0,21.189,83.3V71.74a1.926,1.926,0,0,0-1.926-1.922Zm-17.341.963H19.262a.964.964,0,0,1,.322.058l-8.337,8.337a.919.919,0,0,1-1.3,0h0L1.61,70.838a.963.963,0,0,1,.317-.058ZM.963,83.3V71.74a.964.964,0,0,1,0-.169l5.962,5.947L.963,83.471a.964.964,0,0,1,0-.17Zm18.3.963H1.926a.965.965,0,0,1-.322-.058l6-6L9.26,79.854a1.883,1.883,0,0,0,2.668,0h0L13.58,78.2l6,6a.962.962,0,0,1-.32.06Zm.963-.795-5.962-5.947,5.962-5.947a.964.964,0,0,1,0,.169V83.3a.963.963,0,0,1,0,.167Z" transform="translate(0 -69.818)"/>
    </g>
  </g>
</svg>
