<svg xmlns="http://www.w3.org/2000/svg" width="223.248" height="87" viewBox="0 0 223.248 87">
  <path id="renault-trucks-logo" d="M23.264,0,0,43.5,23.264,87h6.649L53.177,43.5,38.22,15.534,34.9,21.75,46.532,43.5,26.588,80.784,6.645,43.5,29.913,0ZM36.558,0,13.294,43.5,28.251,71.466l3.32-6.216L19.939,43.5,39.882,6.216,59.821,43.5,36.558,87H43.2L66.471,43.5,43.2,0ZM94.175,25.832H88.558v4.755h5.617c1.767,0,2.721-1.006,2.721-2.375S95.942,25.832,94.175,25.832Zm7.931,13.8H97.154l-3-5.538h-5.6v5.538h-4.51v-17.3H94.783c4.37,0,6.728,2.5,6.728,5.879a5.437,5.437,0,0,1-3.071,5.123Zm67.976-17.3V32.52c0,5.206,3.837,7.38,8.924,7.38s8.924-2.174,8.924-7.38V22.332h-4.541V32.52c0,1.754-.647,3.823-4.383,3.823s-4.383-2.069-4.383-3.823V22.332ZM110.929,36.107h10.525v3.521H106.428v-17.3H121.17v3.521H110.929v3.373h9.357v3.32h-9.357Zm96.392,0h-9.8V22.332h-4.5v17.3h14.3ZM157.688,25.893l-2.927,7h5.853ZM168.06,39.629h-4.624l-1.343-3.211h-8.8l-1.343,3.211h-4.628l7.45-17.3h5.84Zm37.342-17.3v3.517h6.671v13.78h4.5V25.849h6.674V22.332Zm-61.082,0v17.3h-3.889L130.194,28.268V39.629h-4.042v-17.3h3.832L140.3,33.692V22.332ZM84.048,50.561h6.671V64.266h4.5V50.561H101.9v-3.5H84.048Zm51.514,10.433c3.736,0,4.383-2.056,4.383-3.8V47.065h4.541V57.192c0,5.179-3.836,7.34-8.924,7.34s-8.924-2.161-8.924-7.34V47.065h4.541V57.192c0,1.745.647,3.8,4.383,3.8Zm-19.974-5.722h-5.617V50.543h5.617c1.767,0,2.721,1.006,2.721,2.367S117.355,55.272,115.588,55.272Zm7.336-2.367c0-3.364-2.358-5.849-6.728-5.849H105.461v17.2h4.51V58.754h5.595l3,5.508h4.956L119.857,58a5.4,5.4,0,0,0,3.071-5.092Zm54.638,1.085,6.33-6.8h5.521l-7.9,8.552,7.9,8.552h-5.521l-6.334-6.8h-1.863v6.772h-4.5v-17.2h4.5V53.99ZM205.6,55.3a27.806,27.806,0,0,0-6.172-1.439h-.006c-1.628-.254-4.072-.635-4.072-1.915,0-1.032,1.138-1.623,3.819-1.623s3.892.949,3.892,1.947h4.384c0-3-2.831-5.486-8.341-5.486s-8.365,2.62-8.365,5.538a3.7,3.7,0,0,0,1.755,3.088c1.243.914,3.277,1.352,6.759,1.833,3.036.42,4.348.766,4.348,2.056,0,.862-.992,1.71-3.866,1.71s-4.27-.888-4.27-2.157h-4.759c0,2.94,2.509,5.674,8.963,5.674,6.062,0,8.341-2.511,8.341-5.534a3.967,3.967,0,0,0-2.41-3.7Zm-44.423-3.745a5.352,5.352,0,0,0-3.237-1.024,5.172,5.172,0,0,0-3.775,1.409,5.5,5.5,0,0,0,0,7.428,5.19,5.19,0,0,0,3.775,1.409,5.361,5.361,0,0,0,3.237-1.024,4.388,4.388,0,0,0,1.675-2.349h4.405a8.1,8.1,0,0,1-2.948,5.088,9.846,9.846,0,0,1-6.378,2.034,9.961,9.961,0,0,1-6.969-2.542,8.583,8.583,0,0,1,0-12.66,9.961,9.961,0,0,1,6.969-2.542,9.845,9.845,0,0,1,6.378,2.034,8.083,8.083,0,0,1,2.948,5.087h-4.405a4.372,4.372,0,0,0-1.675-2.349Z" fill-rule="evenodd"/>
</svg>
