<svg xmlns="http://www.w3.org/2000/svg" width="20.597" height="20.687" viewBox="0 0 20.597 20.687">
  <g id="telephone" transform="translate(-4.341 -0.425)">
    <path id="Path_95" data-name="Path 95" d="M5.085,13.75a21.944,21.944,0,0,0,7.3,5.718,11.36,11.36,0,0,0,4.085,1.208c.1,0,.193.009.292.009a3.385,3.385,0,0,0,2.623-1.127.094.094,0,0,0,.017-.021,11.043,11.043,0,0,1,.827-.857c.2-.193.407-.391.6-.6A2.07,2.07,0,0,0,20.823,15l-2.575-2.578a2.083,2.083,0,0,0-1.509-.694,2.155,2.155,0,0,0-1.526.69l-1.535,1.534c-.142-.082-.288-.155-.424-.223a5.3,5.3,0,0,1-.471-.26A16.239,16.239,0,0,1,8.9,9.936,9.351,9.351,0,0,1,7.592,7.847c.4-.365.781-.746,1.144-1.118.13-.13.26-.26.391-.4a2.2,2.2,0,0,0,.712-1.543,2.179,2.179,0,0,0-.712-1.543L7.85,1.968c-.15-.15-.292-.3-.437-.445C7.134,1.23,6.839.93,6.547.66A2.136,2.136,0,0,0,5.038,0,2.2,2.2,0,0,0,3.512.664l-1.6,1.6A3.294,3.294,0,0,0,.928,4.377a7.932,7.932,0,0,0,.595,3.434A19.948,19.948,0,0,0,5.085,13.75ZM1.974,4.467A2.267,2.267,0,0,1,2.655,3.01l1.595-1.6a1.155,1.155,0,0,1,.789-.365,1.1,1.1,0,0,1,.772.372c.288.26.557.544.849.84.146.15.3.3.445.454L8.381,3.993a1.164,1.164,0,0,1,.4.8,1.164,1.164,0,0,1-.4.8c-.13.13-.26.269-.4.4-.4.4-.772.781-1.183,1.148l-.021.021a.838.838,0,0,0-.215.952c0,.013.009.021.013.034a10.087,10.087,0,0,0,1.5,2.45,17.139,17.139,0,0,0,4.132,3.764,6.135,6.135,0,0,0,.566.309,5.3,5.3,0,0,1,.471.26l.047.026a.9.9,0,0,0,.415.107.911.911,0,0,0,.639-.292l1.6-1.6a1.134,1.134,0,0,1,.781-.381,1.077,1.077,0,0,1,.759.381l2.588,2.578a1.034,1.034,0,0,1-.013,1.616c-.18.193-.368.378-.57.57a12.343,12.343,0,0,0-.9.93,2.354,2.354,0,0,1-1.838.781,1.819,1.819,0,0,1-.223-.009,10.321,10.321,0,0,1-3.695-1.105A20.846,20.846,0,0,1,5.9,13.091,19.094,19.094,0,0,1,2.515,7.456a6.913,6.913,0,0,1-.542-2.989Z" transform="translate(3.423 0.425)"/>
  </g>
</svg>
