<svg id="volvo-partner" xmlns="http://www.w3.org/2000/svg" width="244.76" height="19" viewBox="0 0 244.76 19">
  <path id="Path_1" data-name="Path 1" d="M4.151,4.259l8.43,15.314h9.745L30.6,4.259h4.151V1.5H22.274V4.259h3.609L19.851,15.421,13.741,4.259h4.383V1.5H0V4.259Z" transform="translate(0 -1.113)"/>
  <path id="Path_2" data-name="Path 2" d="M432.326,4.259V1.5h16.706V4.259h-4.176v12.5h3.867c3.583,0,5.9-2.346,5.9-5.569h2.759v8.379H432.3v-2.81h4.2V4.259Z" transform="translate(-320.851 -1.113)"/>
  <path id="Path_3" data-name="Path 3" d="M238.339,0C229.96,0,225.5,4.176,225.5,9.436c0,5.311,4.28,9.565,12.89,9.565s12.839-4.254,12.839-9.565C251.229,4.176,246.717,0,238.339,0Zm-.077,16.139c-3.068-.052-4.408-3.455-4.357-6.806.052-3.48,1.727-6.522,4.589-6.471s4.383,3.145,4.331,6.626C242.747,12.761,241.407,16.19,238.261,16.139Z" transform="translate(-167.365)"/>
  <path id="Path_4" data-name="Path 4" d="M628.251,4.259l8.4,15.314h9.771L654.7,4.259h4.151V1.5H646.374V4.259h3.609l-6.033,11.163-6.11-11.163h4.383V1.5H624.1V4.259Z" transform="translate(-463.204 -1.113)"/>
  <path id="Path_5" data-name="Path 5" d="M862.439,0C854.06,0,849.6,4.176,849.6,9.436c0,5.311,4.28,9.565,12.89,9.565s12.839-4.254,12.839-9.565C875.329,4.176,870.843,0,862.439,0Zm-.1,16.139c-3.068-.052-4.408-3.455-4.357-6.806.052-3.48,1.727-6.522,4.589-6.471s4.383,3.145,4.331,6.626C866.847,12.761,865.507,16.19,862.336,16.139Z" transform="translate(-630.569)"/>
</svg>
