<svg xmlns="http://www.w3.org/2000/svg" width="200.266" height="33.541" viewBox="0 0 200.266 33.541">
  <g id="logo" transform="translate(0 -3.216)">
    <path id="Path_2" data-name="Path 2" d="M53.612,6.237H59.1V22.365c0,5.333,3.18,8.515,7.361,8.515,4.211,0,7.361-3.182,7.361-8.515V6.237h5.458V23.519C79.282,30.256,74.261,36,66.462,36s-12.85-5.739-12.85-12.477V6.237Z" transform="translate(13.492 0.76)" fill="#005ca9"/>
    <path id="Path_3" data-name="Path 3" d="M103.274,35.864V6.761H97.847V24.947L81.969,6.761H79.006V35.832h5.428V17.74L100.28,35.864Z" transform="translate(19.883 0.892)" fill="#005ca9"/>
    <path id="Path_4" data-name="Path 4" d="M103.554,6.786h5.614V35.857h-5.614Z" transform="translate(26.06 0.898)" fill="#005ca9"/>
    <path id="Path_5" data-name="Path 5" d="M127.48,5.291a15.472,15.472,0,1,0,8.827,28.23l2.558,2.527,3.556-3.556-2.465-2.433a15.324,15.324,0,0,0,3.15-9.295A15.562,15.562,0,0,0,127.48,5.291Zm0,4.865a10.385,10.385,0,0,1,10.137,10.607,10.935,10.935,0,0,1-1.466,5.49l-3.338-3.368-3.556,3.556,3.432,3.431a9.67,9.67,0,0,1-5.209,1.5,10.365,10.365,0,0,1-10.138-10.605A10.366,10.366,0,0,1,127.48,10.156Z" transform="translate(28.149 0.522)" fill="#005ca9"/>
    <path id="Path_6" data-name="Path 6" d="M151.36,6.786h-1.685L136.947,35.857h5.833l2.309-5.49H157.6l2.214,5.49H165.8L153.418,6.786Zm0,18.809h-4.273L151.36,15.3l.093-.155,4.212,10.449Z" transform="translate(34.464 0.899)" fill="#005ca9"/>
    <g id="Group_4" data-name="Group 4" transform="translate(0 3.216)">
      <path id="Path_7" data-name="Path 7" d="M21.57,31.305a22.767,22.767,0,0,1-5.7-5.962c-3.9-5.927-3.346-11.872-1.531-14.826A16.521,16.521,0,0,1,18.08,7.67a13.646,13.646,0,0,1,5.2-1.762,9.562,9.562,0,0,0-4.805,4.361A10.181,10.181,0,0,0,17.4,15.483a15.972,15.972,0,0,0,2.473,7.154,17.119,17.119,0,0,0,10.59,7.494,47.119,47.119,0,0,0,8.2.871c2.919.161,8.9.2,9.932.2h1.121l2.545,4.876s-8.668.035-12.707-.178c-6.531-.357-12.6-.658-17.993-4.592Z" transform="translate(3.259 -2.538)" fill="#005ca9"/>
      <path id="Path_8" data-name="Path 8" d="M27.976,35.917a16.751,16.751,0,0,1-4.077.516c-3.666-.018-7.119-1.727-9.984-3.934a16.607,16.607,0,0,1-6.55-10.287c-.089-.463-.143-.926-.213-1.585a15.833,15.833,0,0,1,2.064-9.45,16.289,16.289,0,0,1,8.206-7.012,15.566,15.566,0,0,1,9.558-.392,19.559,19.559,0,0,1,10.786,7.6A15.82,15.82,0,0,0,27.424,5.82c-.3-.019-.6-.036-.89-.036a14.808,14.808,0,0,0-8.916,2.9,16.461,16.461,0,0,0-4.2,4.324A17.047,17.047,0,0,0,10.7,22a15.233,15.233,0,0,0,2.669,8.7,13.56,13.56,0,0,0,9.274,1.851A19.248,19.248,0,0,0,28.9,35.668l-.926.249Z" transform="translate(1.783 -3.216)" fill="#005ca9"/>
      <path id="Path_9" data-name="Path 9" d="M21.3,30.523H0L2.154,26.7H14.629a23.75,23.75,0,0,0,3.025,2.118,19.568,19.568,0,0,0,3.65,1.709Z" transform="translate(0 2.694)" fill="#005ca9"/>
      <path id="Path_10" data-name="Path 10" d="M35.769,18.963c.32,4.272-2.456,9.006-3.861,10.8-.872-.071-2.26-.232-3.542-.463a18.593,18.593,0,0,1-2.741-.765A17.023,17.023,0,0,0,30.981,20.4c1.762-6-.462-10.839-2.848-13.189a14.035,14.035,0,0,1,7.635,11.747Z" transform="translate(6.449 -2.209)" fill="#005ca9"/>
    </g>
  </g>
</svg>
