<svg xmlns="http://www.w3.org/2000/svg" xmlns:xlink="http://www.w3.org/1999/xlink" width="20" height="20" viewBox="0 0 20 20">
  <defs>
    <clipPath id="clip-path">
      <rect id="Rectangle_790" data-name="Rectangle 790" width="20" height="20" fill="none"/>
    </clipPath>
  </defs>
  <g id="Arabisch-flage" transform="translate(-1040 -731)">
    <g id="Group_1890" data-name="Group 1890" transform="translate(1040 731)">
      <g id="Group_1890-2" data-name="Group 1890" clip-path="url(#clip-path)">
        <path id="Path_673" data-name="Path 673" d="M10,0A10,10,0,1,1,0,10,10,10,0,0,1,10,0" fill="#005430"/>
        <path id="Path_674" data-name="Path 674" d="M18.37,7.581c0-.376-.148-1.389-.185-1.728s-.074-.648-.065-.72.116.1.172.11c.03-.006.017-.111-.037-.2-.036-.061-.159-.289-.233-.422-.035-.064-.043-.1-.06-.108a.812.812,0,0,0-.138.3.287.287,0,0,1,.069.181c.005.1.056.8.121,1.331.049.4.156,1.266.16,1.8a1.606,1.606,0,0,1-.042.412c-.06.109-.154.208-.5.412-.392.23-.915.421-1.14.548-.139.08-.093.091.029.056a8.757,8.757,0,0,0,1.053-.276,1.164,1.164,0,0,0,.613-.619,2.253,2.253,0,0,0,.185-1.076" fill="#fff"/>
        <path id="Path_675" data-name="Path 675" d="M17.157,4.725a1.491,1.491,0,0,1,.349-.011c-.045.064-.345.2-.347.23a.784.784,0,0,0,.271-.06.5.5,0,0,0,.1-.095c.072-.082.157-.236.136-.255a1.564,1.564,0,0,0-.422-.005c-.03,0-.107.141-.121.176s.005.032.035.02" fill="#fff"/>
        <path id="Path_676" data-name="Path 676" d="M17.669,6.954a1.058,1.058,0,0,0-.006-.618.8.8,0,0,0-.385-.447l-.024.224a.8.8,0,0,1,.309.321.779.779,0,0,1,.05.581c-.01.057.03.026.056-.061" fill="#fff"/>
        <path id="Path_677" data-name="Path 677" d="M15.727,8.077a.949.949,0,0,0-.005-.556.725.725,0,0,0-.347-.4l-.022.2a.724.724,0,0,1,.279.288.713.713,0,0,1,.045.524c-.01.051.027.023.05-.055" fill="#fff"/>
        <path id="Path_678" data-name="Path 678" d="M8.984,5.026a.74.74,0,0,1,.047.552c-.009.054.029.025.054-.058a1.012,1.012,0,0,0-.006-.587.764.764,0,0,0-.367-.425l-.022.213a.765.765,0,0,1,.294.3" fill="#fff"/>
        <path id="Path_679" data-name="Path 679" d="M4.432,5.1A.674.674,0,0,1,4.4,5.66c-.02.053.029.028.07-.052a.912.912,0,0,0,.087-.591.76.76,0,0,0-.347-.474l-.059.211a.779.779,0,0,1,.284.344" fill="#fff"/>
        <path id="Path_680" data-name="Path 680" d="M5.69,8.425A1.345,1.345,0,0,0,5.841,8a2.1,2.1,0,0,0,.022-.52c.241-.1.529-.262.626-.274a.348.348,0,0,0,.41.44c.025.257.046.483.058.616.026.275.022.62.022.68s.042.049.087-.085a3.47,3.47,0,0,0,.057-.961c-.006-.077-.014-.182-.025-.3.207-.1.241-.28.318-.359.07.245.454.278.573.226.147-.065.2-.182.233-.453a.412.412,0,0,0-.112-.41c0,.033-.1.351-.1.351s.091.1.095.144a.406.406,0,0,1-.362.029c-.132-.043-.172-.122-.164-.175s.057-.1.059-.166-.03-.046-.083.012a1.266,1.266,0,0,0-.159.231.5.5,0,0,1-.327.259c-.028-.3-.06-.61-.082-.807-.011-.1-.123-1-.131-1.105s-.02-.191-.018-.24.026-.023.064.018.1.11.115.105c.038-.019,0-.136-.051-.241a4.584,4.584,0,0,0-.257-.536.985.985,0,0,0-.141.3.354.354,0,0,1,.067.222c0,.039.025.409.06.758.031.309.071.6.075.636.028.235.062.567.094.894-.185-.036-.234-.158-.23-.227s.04-.168.023-.188a2.657,2.657,0,0,0-.544.225c-.083.036-.177.074-.276.111-.026-.223-.06-.434-.073-.6l0-.018a.61.61,0,0,0,.427-.2,1.092,1.092,0,0,0,.16-.542,2.319,2.319,0,0,0-.179-.629,1.223,1.223,0,0,1-.057-.219c0-.037.08.043.133.059.036.007.023-.071-.02-.124s-.277-.408-.294-.383a3.105,3.105,0,0,0-.11.316.223.223,0,0,1,.083.156,2.667,2.667,0,0,0,.112.505,4.682,4.682,0,0,1,.187.542.876.876,0,0,1-.482.16c-.034-.276-.076-.6-.1-.822a2,2,0,0,1-.008-.229c0-.039.029-.034.067.006s.1.1.11.093,0-.1-.049-.2a4.937,4.937,0,0,0-.3-.561.939.939,0,0,0-.118.289.352.352,0,0,1,.071.22c0,.112.058.661.105,1.144a.526.526,0,0,1-.285-.486,5.473,5.473,0,0,0-.078-.737.785.785,0,0,0-.19-.374c-.02.048-.11.347-.11.347a2.086,2.086,0,0,1,.118.625.672.672,0,0,1-.3.664.573.573,0,0,1-.8-.161c-.1-.264.127-.924.123-1.08s-.03-.177-.1-.152a.946.946,0,0,0-.313.421,5.829,5.829,0,0,0-.23.754c-.065.206-.169.414-.33.4s-.248-.159-.3-.372a1.681,1.681,0,0,1,0-.566c.033-.18-.045-.143-.092.14a1.467,1.467,0,0,0,.045.745c.1.292.28.4.435.363s.291-.4.339-.563.263-.887.384-.923c.017.082-.094.345-.13.652s.048.721.438.793A.715.715,0,0,0,4.873,6.3a1.377,1.377,0,0,0,.152-.453.826.826,0,0,0,.486.709l.033.009c.019.193.05.446.079.71q-.092.029-.183.051a.619.619,0,0,0-.027-.073c-.1-.206-.254-.395-.473-.382a.584.584,0,0,0-.457.53c.007.146.088.267.382.3a1.345,1.345,0,0,0,.423-.033.579.579,0,0,1,.035.176,3.2,3.2,0,0,1-1.438.745c-.577.055-.752-.247-.758-.55a1.222,1.222,0,0,1,.232-.62,1.593,1.593,0,0,0,.326-.328l.056.033a.246.246,0,0,1,.1.1c.013-.019.072-.126.049-.178a.87.87,0,0,0-.125-.083c.066-.164.065-.327-.02-.364s-.22.072-.274.141a.179.179,0,0,0-.038.11.138.138,0,0,0,.071.119c.051.035.1.066.142.094a3.866,3.866,0,0,1-.605.44c-.007-.016-.034,0-.07.043l-.049.031c-.145.089-.494.284-.562.332s-.026.039,0,.028c.048-.026.112-.057.183-.092l.333-.162a1.675,1.675,0,0,0-.1.2c-.137.323-.359.994.121,1.4a1.709,1.709,0,0,0,1.9-.162,2.739,2.739,0,0,0,.9-.689m-2.131-1.6c-.023-.016-.026-.039-.007-.054a.2.2,0,0,1,.088-.046c.072-.013.1.07.072.2-.055-.034-.112-.069-.153-.1m1.5.548c-.332,0-.348-.059-.341-.1A.17.17,0,0,1,4.958,7.2a.6.6,0,0,1,.176.168l-.076,0M4.039,9.127C3.41,9.3,2.8,9.033,2.76,8.506a1.55,1.55,0,0,1,.212-.876c.09-.044.176-.088.246-.126a1.32,1.32,0,0,0-.2.921c.072.34.369.547.871.48a3.257,3.257,0,0,0,1.359-.716A.829.829,0,0,0,5.4,7.948a.727.727,0,0,0,.062-.185,1.007,1.007,0,0,0,.013-.149c.058-.017.117-.037.176-.058.02.216.034.429.035.613a3.759,3.759,0,0,1-1.648.958" fill="#fff"/>
        <path id="Path_681" data-name="Path 681" d="M15.039,7.746c-.021-.352-.073-.99-.1-1.313-.026-.288-.076-.683-.112-1.03a1.891,1.891,0,0,1-.009-.22c0-.038.039-.024.078.016s.1.089.11.083c.037-.019-.008-.116-.061-.22a4.627,4.627,0,0,0-.3-.55,1.041,1.041,0,0,0-.122.3.347.347,0,0,1,.072.22c.005.14.076.787.128,1.31.035.363.081.956.114,1.4,0,0,.032.426.036.473.02.275.009.62.007.68s.042.05.09-.084a2.888,2.888,0,0,0,.079-.716Z" fill="#fff"/>
        <path id="Path_682" data-name="Path 682" d="M13.253,6.513c-.064.02-.166-.049-.158-.191a1.4,1.4,0,0,1,.084-.327c.029-.105.029-.207.005-.149A2.4,2.4,0,0,0,13,6.392c-.021.169.033.277.107.314.094.047.16-.027.2-.136s.035-.225.005-.2-.034.13-.066.14" fill="#fff"/>
        <path id="Path_683" data-name="Path 683" d="M12.327,7.033c.034-.091.042-.18.016-.131a2.23,2.23,0,0,0-.2.468c-.032.147.007.246.069.284.078.047.143-.013.191-.106s.049-.2.02-.173-.041.112-.069.119c-.058.012-.142-.054-.124-.18a1.264,1.264,0,0,1,.1-.281" fill="#fff"/>
        <path id="Path_684" data-name="Path 684" d="M9.627,8.95c.057-.093.086-.189.046-.14a2.534,2.534,0,0,0-.324.473c-.067.155-.046.271.014.324.075.066.159.012.232-.08s.1-.206.059-.186-.068.115-.1.117c-.066,0-.143-.085-.1-.219a1.479,1.479,0,0,1,.17-.289" fill="#fff"/>
        <path id="Path_685" data-name="Path 685" d="M14.36,6.243c-.066.016-.162-.057-.146-.2a1.362,1.362,0,0,1,.1-.321c.036-.1.042-.2.014-.149a2.427,2.427,0,0,0-.214.536c-.032.168.016.279.088.32.09.051.161-.019.212-.126s.049-.223.017-.2-.042.127-.074.136" fill="#fff"/>
        <path id="Path_686" data-name="Path 686" d="M14.34,7.99c.09.051.161-.019.212-.126s.049-.223.017-.2-.042.128-.074.136c-.066.017-.163-.057-.146-.2a1.4,1.4,0,0,1,.1-.322c.036-.1.042-.2.014-.149a2.428,2.428,0,0,0-.214.536c-.032.168.016.279.088.32" fill="#fff"/>
        <path id="Path_687" data-name="Path 687" d="M15.486,5.758c.043-.126.051-.248.016-.18a3.02,3.02,0,0,0-.258.648c-.039.2.019.338.107.387.108.062.194-.023.257-.152s.058-.27.02-.237-.051.155-.09.164c-.079.02-.2-.069-.177-.241a1.728,1.728,0,0,1,.125-.389" fill="#fff"/>
        <path id="Path_688" data-name="Path 688" d="M6.325,7.929c.071-.153.1-.306.044-.225a3.881,3.881,0,0,0-.41.787c-.075.25-.02.426.084.5.128.089.247-.007.343-.163s.109-.334.057-.3-.085.19-.135.2c-.1.017-.238-.108-.191-.322a2.2,2.2,0,0,1,.208-.476" fill="#fff"/>
        <path id="Path_689" data-name="Path 689" d="M16.216,9.447c.054-.044.525-.3.611-.349,0,0,.089-.145.063-.16s-.2.141-.306.145-.253-.074-.258-.139a.319.319,0,0,1,.189-.124c.047,0,.039.1.055.116s.077-.073.085-.109,0-.185-.084-.164a.8.8,0,0,0-.361.363c-.023.079.1.147.194.184a.454.454,0,0,0-.12.079.364.364,0,0,0-.068.158" fill="#fff"/>
        <path id="Path_690" data-name="Path 690" d="M14.611,9.761c.054-.044.525-.3.611-.349,0,0,.089-.145.063-.16s-.2.141-.306.145-.253-.074-.258-.139a.319.319,0,0,1,.189-.124c.047,0,.039.1.055.116s.077-.073.085-.109,0-.185-.084-.164a.808.808,0,0,0-.361.363c-.023.079.1.147.193.184a.472.472,0,0,0-.119.079.364.364,0,0,0-.068.158" fill="#fff"/>
        <path id="Path_691" data-name="Path 691" d="M11,5.216c.042.049.319.4.535.621s.588.579.861.824c.052.048.108.1.165.153.069.528.149,1.2.182,1.477s.038.62.039.68.044.048.085-.088a3.475,3.475,0,0,0,.032-.961c-.018-.192-.061-.551-.1-.882.161.159.314.317.416.435a2.277,2.277,0,0,1,.444.614c.068.165.061.3.089.322s.051-.175.021-.367c-.048-.31-.115-.442-.514-.886-.152-.17-.331-.347-.506-.513-.007-.051-.013-.1-.019-.14-.013-.1-.149-1-.159-1.1s-.025-.19-.024-.239.026-.024.064.016.106.108.118.1c.037-.019-.005-.135-.058-.239a4.651,4.651,0,0,0-.27-.531,1,1,0,0,0-.133.3.347.347,0,0,1,.072.22c0,.039.036.408.08.757.039.307.086.6.091.633v0c-.181-.165-.34-.305-.437-.393a6.729,6.729,0,0,1-.744-.765c0-.023.034-.008.1,0s.135.036.124,0a.232.232,0,0,0-.1-.1c-.068-.042-.243-.151-.372-.228s-.195-.142-.222-.124a1.53,1.53,0,0,0,.006.307.252.252,0,0,1,.132.09" fill="#fff"/>
        <path id="Path_692" data-name="Path 692" d="M11.351,4.74a1.788,1.788,0,0,1,.4.014c-.039.027-.3.158-.349.189s-.064.049-.038.046a1.953,1.953,0,0,0,.321-.088,1.186,1.186,0,0,0,.255-.273c.051-.064.051-.1.037-.113a1.367,1.367,0,0,0-.54-.017.848.848,0,0,0-.143.223c-.013.033.005.031.058.019" fill="#fff"/>
        <path id="Path_693" data-name="Path 693" d="M12.76,4.72a1.5,1.5,0,0,1,.321.011c-.031.022-.239.127-.281.153s-.051.039-.031.037a1.607,1.607,0,0,0,.26-.071,1,1,0,0,0,.2-.22c.04-.052.04-.078.03-.091a1.085,1.085,0,0,0-.436-.014.712.712,0,0,0-.115.179c-.01.027,0,.025.047.016" fill="#fff"/>
        <path id="Path_694" data-name="Path 694" d="M13.9,4.7a1.5,1.5,0,0,1,.321.011c-.031.022-.24.127-.281.152s-.051.04-.031.038a1.8,1.8,0,0,0,.27-.071c.061-.029.133-.168.174-.22s.04-.078.03-.091a.981.981,0,0,0-.415-.014.685.685,0,0,0-.115.179c-.01.027,0,.025.047.016" fill="#fff"/>
        <path id="Path_695" data-name="Path 695" d="M13.191,5.262c-.068.108.017.193.048.28-.042.038-.106,0-.127-.031-.046-.068-.031-.209-.085-.23a.753.753,0,0,0-.022.079.371.371,0,0,1,.03.161.1.1,0,0,1-.085.083c-.119,0-.06-.173-.106-.272-.009.024-.016.05-.027.073a.379.379,0,0,1,.014.083,1.131,1.131,0,0,0,.007.122.1.1,0,0,0,.081.088.139.139,0,0,0,.142-.125c.016.061.133.127.191.054.077-.1.015-.182-.024-.274-.028-.068-.02-.112-.037-.091" fill="#fff"/>
        <path id="Path_696" data-name="Path 696" d="M9.851,4.979c.006.044.029.074.066.078a.119.119,0,0,0,.128-.1c.01.053.109.115.162.053.071-.081.022-.155-.008-.236-.021-.059-.012-.1-.027-.08-.064.089.006.167.028.243-.038.031-.091,0-.108-.031-.037-.061-.017-.181-.062-.2a.5.5,0,0,0-.023.068.319.319,0,0,1,.018.138.085.085,0,0,1-.077.069c-.1,0-.044-.152-.079-.24-.009.021-.016.043-.026.062a.332.332,0,0,1,.008.073c0,.036,0,.075,0,.106" fill="#fff"/>
        <path id="Path_697" data-name="Path 697" d="M12.275,9.116a.176.176,0,0,0,.031-.1c-.007-.034-.048-.176-.129-.212s-.142.039-.18.143H11.97a.3.3,0,0,0-.021.08c-.009.06-.026.1-.129.192a3.254,3.254,0,0,1-.547.353c-.182.088-.312.165-.36.188s-.034.031.014.017.288-.092.384-.132a2.3,2.3,0,0,0,.355-.2.665.665,0,0,0,.282-.294.935.935,0,0,0,.029-.09.6.6,0,0,0,.159.058c.1.023.128.015.139,0m-.135-.2a.149.149,0,0,1,.08.1.576.576,0,0,1-.185-.043.085.085,0,0,1,.105-.052" fill="#fff"/>
        <path id="Path_698" data-name="Path 698" d="M11.213,9.216c-.14-.019-.491-.073-.577-.276a2.058,2.058,0,0,1,.821-.363,5.545,5.545,0,0,0,.967-.364.3.3,0,0,1,.075-.006c.021-.06.126-.272.132-.316-.116.007-.833.059-1.151.076s-.932.013-1.136.011a3.586,3.586,0,0,1,.848-.416l.153-.053a.471.471,0,0,1,.067.18.336.336,0,0,0,.041-.215c.248-.079.376-.105.431-.12a.956.956,0,0,0,.105-.36.949.949,0,0,0-.256-.224.579.579,0,0,0-.448-.148c-.21.051-.251.436-.2.517.016.026.053.072.1.128a4.658,4.658,0,0,0-.453.2,2.246,2.246,0,0,0-.767.52l-.029.014c-.008.016-.073.286-.082.315.065,0,.552,0,.892-.012s.636-.022.752-.022a3.181,3.181,0,0,0-.753.307.586.586,0,0,0-.213.506,1.2,1.2,0,0,1-.537-.414c-.213-.288-.169-.585-.255-.975a2.6,2.6,0,0,0-.554-1.188,1.776,1.776,0,0,0-.062.35s.206.457.311.749a3.45,3.45,0,0,1,.19.644A3.161,3.161,0,0,1,8.6,9.082c-.4.22-.758.243-.884.087a.27.27,0,0,1-.051-.108l.166-.077a4.853,4.853,0,0,0,1.157-.7.712.712,0,0,0,.065-.71,4.184,4.184,0,0,1-.256-.457c-.009-.034.1.014.16.017.03,0,.015-.043-.05-.107s-.253-.218-.33-.283c-.019-.016-.033-.01-.037.008-.015.066-.046.208-.058.279l.009.035a.113.113,0,0,1,.059.065,3.116,3.116,0,0,0,.178.381,2.624,2.624,0,0,1,.259.488A5.4,5.4,0,0,1,7.7,8.737a2.309,2.309,0,0,1,.167-.375.438.438,0,0,0,.059-.085c.057-.105.063-.234.028-.206s-.052.133-.086.14c-.07.014-.168-.068-.143-.217a1.491,1.491,0,0,1,.125-.335c.043-.108.055-.214.023-.156a2.567,2.567,0,0,0-.254.556c-.043.175,0,.294.076.341a.115.115,0,0,0,.079.019,2.248,2.248,0,0,0-.158.356c-.232.1-.458.2-.645.263-.671.24-1.15.382-1.484.487l-.014.006c.025-.079.022-.147,0-.127s-.051.133-.085.14c-.07.015-.168-.067-.144-.217a1.547,1.547,0,0,1,.126-.334c.043-.108.055-.215.022-.157a2.662,2.662,0,0,0-.254.556c-.042.175,0,.3.077.341.092.058.17-.013.23-.122l.021-.045a.557.557,0,0,0,.109-.017c.154-.035.537-.09,1.064-.159a3.006,3.006,0,0,0,.921-.277.861.861,0,0,0,0,.088c.014.358.248.459.569.392a3.207,3.207,0,0,0,1-.54,2.127,2.127,0,0,0,.465-.44,1.148,1.148,0,0,0,.1-.4,1.4,1.4,0,0,0,.25.781,1.618,1.618,0,0,0,1.315.582c0-.087-.032-.36-.032-.36M11.164,7c.105-.118.329-.041.5.109a3.262,3.262,0,0,0-.333.1A1.144,1.144,0,0,1,11.164,7" fill="#fff"/>
        <path id="Path_699" data-name="Path 699" d="M7.036,5.382c.047-.022.193-.088.35-.179a1.928,1.928,0,0,0,.376-.275.389.389,0,0,0,.069-.076c.047.02.08.04.1.048s.071.029.1-.058a.214.214,0,0,0-.06-.209A.535.535,0,0,0,7.8,4.472c-.047-.017-.07.089-.062.086h.031l.006,0a.294.294,0,0,0-.12.172c-.006.039,0,.068.1.092l.037.011a1.775,1.775,0,0,1-.323.256c-.141.1-.342.218-.4.253s-.052.045-.03.037M7.883,4.7l0-.046A.476.476,0,0,1,8,4.832c-.029,0-.067-.026-.133-.054A.433.433,0,0,0,7.883,4.7m-.189,0a.121.121,0,0,1,.079-.075c.053-.021.077.039.081.112l-.015.03-.048-.017c-.052-.015-.086-.024-.1-.05" fill="#fff"/>
        <path id="Path_700" data-name="Path 700" d="M10.551,6.8c.078-.051.29-.2.411-.3a1.809,1.809,0,0,0,.25-.26l.116.072a.253.253,0,0,1,.1.1c.013-.02.072-.127.049-.179a1.723,1.723,0,0,0-.185-.119c.043-.1.1-.269.017-.328s-.2.033-.256.142c-.048.09-.054.166.037.228.026.018.05.035.074.05a4.709,4.709,0,0,1-.381.35c-.149.125-.29.248-.315.277l-.007.012c-.033-.091-.024-.147-.048-.117-.1.164.026.3.074.43-.065.058-.163,0-.2-.047-.071-.106-.047-.321-.13-.354a1.113,1.113,0,0,0-.035.122.571.571,0,0,1,.047.245.152.152,0,0,1-.131.129c-.183.005-.093-.266-.163-.42-.015.038-.025.078-.042.113a.591.591,0,0,1,.022.129,1.61,1.61,0,0,0,.01.189c.015.077.058.129.124.134a.213.213,0,0,0,.22-.191c.024.093.2.2.294.081.118-.15.023-.279-.037-.42l-.007-.018c.008,0,.04-.011.091-.045m.535-.846c.045-.084.141-.091.169-.047a.191.191,0,0,1-.009.175c-.084-.052-.16-.1-.16-.128" fill="#fff"/>
        <path id="Path_701" data-name="Path 701" d="M7.568,6.262c-.161-.011-.248-.159-.3-.372a1.688,1.688,0,0,1-.006-.566c.014-.072-.062-.035-.092.14a1.479,1.479,0,0,0,.045.745c.1.292.281.4.435.363s.292-.4.34-.563.262-.829.384-.864c.017.081-.1.286-.13.593s.026.711.416.783a.714.714,0,0,0,.752-.358,1.346,1.346,0,0,0,.151-.453.826.826,0,0,0,.487.709.558.558,0,0,0,.635-.123,1.086,1.086,0,0,0,.17-.542,2.271,2.271,0,0,0-.189-.629,1.223,1.223,0,0,1-.057-.219c0-.037.081.043.133.059.036.007.024-.071-.02-.124s-.277-.408-.294-.383a3.105,3.105,0,0,0-.11.316.228.228,0,0,1,.084.156,2.856,2.856,0,0,0,.122.505,4.537,4.537,0,0,1,.177.542.656.656,0,0,1-.6.078.524.524,0,0,1-.341-.513A5.5,5.5,0,0,0,9.683,4.8a.793.793,0,0,0-.189-.374c-.02.048-.11.348-.11.348A2.111,2.111,0,0,1,9.5,5.4a.674.674,0,0,1-.3.664.55.55,0,0,1-.784-.162c-.1-.263.127-.856.124-1.012s-.031-.177-.1-.151a.94.94,0,0,0-.313.42,5.089,5.089,0,0,0-.231.7c-.065.206-.169.414-.33.4" fill="#fff"/>
        <path id="Path_702" data-name="Path 702" d="M2.893,5.349a.739.739,0,0,0,.409-.2c.043-.04.067-.1.036-.078a.638.638,0,0,1-.554.176c.008-.034.089-.09.207-.168a.736.736,0,0,0,.183-.156l.013,0c.087.019.188.057.218.027a.169.169,0,0,0,0-.218.688.688,0,0,0-.246-.193c-.093-.049-.111.03-.123.058s-.007.049.013.049a.35.35,0,0,0-.059.137.1.1,0,0,0,.01.07.123.123,0,0,0,.053.038L3.1,4.9a1.3,1.3,0,0,1-.192.14.456.456,0,0,0-.193.208c-.028.084-.017.114.181.1m.35-.584.008-.042V4.7c.063.046.163.133.157.185-.04-.01-.116-.025-.188-.044a.369.369,0,0,0,.023-.071m-.186.013c-.046-.037,0-.074.04-.1s.084-.006.111.075a.346.346,0,0,1-.039.066.562.562,0,0,1-.112-.044" fill="#fff"/>
        <path id="Path_703" data-name="Path 703" d="M3.487,7.587a.322.322,0,0,0-.067.22c.011.01.189.07.217.083l.013-.049c.084.076.178.456.2.457s.052-.043.071-.144.037-.233.056-.347.045-.164.108-.176.109.069.126.123a.912.912,0,0,0,.053-.17c-.01-.035-.108-.164-.188-.121s-.131.225-.147.338a1.334,1.334,0,0,1-.048.277,1.015,1.015,0,0,0-.168-.368c-.09-.109-.195-.149-.225-.123" fill="#fff"/>
        <path id="Path_704" data-name="Path 704" d="M2.728,7.392A1.805,1.805,0,0,0,3.05,7.3,1.215,1.215,0,0,0,3.3,7.033c.05-.066.05-.1.038-.115A1.38,1.38,0,0,0,2.8,6.9a.784.784,0,0,0-.143.222c-.013.033.005.03.058.019a1.788,1.788,0,0,1,.4.014c-.038.026-.3.158-.349.189s-.064.049-.038.045" fill="#fff"/>
        <path id="Path_705" data-name="Path 705" d="M18.077,8.314a1.734,1.734,0,0,0-.462-.944c-.124-.157-.3-.361-.483-.571,0-.071-.01-.136-.014-.192-.024-.288-.106-.876-.141-1.223a1.8,1.8,0,0,1-.008-.23c0-.039.029-.033.067.006s.1.1.11.094,0-.1-.049-.2a4.687,4.687,0,0,0-.286-.542.923.923,0,0,0-.117.29.351.351,0,0,1,.07.22c0,.141.09.971.139,1.494l0,.029c-.275-.307-.534-.588-.641-.7l-.06-.066c-.018-.14-.034-.274-.045-.384a1.789,1.789,0,0,1-.008-.229c0-.039.029-.034.067.006s.1.1.11.094,0-.1-.049-.2a4.825,4.825,0,0,0-.294-.552,1.1,1.1,0,0,0-.122.309.356.356,0,0,1,.071.221c0,.059.018.24.038.469a3.8,3.8,0,0,1-.374-.49c0-.023.034-.009.106,0s.138.033.126,0a.233.233,0,0,0-.1-.1c-.069-.043-.243-.152-.373-.229s-.2-.142-.222-.124a1.607,1.607,0,0,0,.006.307.2.2,0,0,1,.132.079c.039.051.288.4.485.636.056.068.145.174.249.3.02.218.042.442.059.63.04.428.184,1.557.185,1.924a.893.893,0,0,1-.546.241.416.416,0,0,1-.435-.221c-.028-.052-.053-.1-.079-.15a.3.3,0,0,0-.327-.143l-.02,0-.036.017a.807.807,0,0,0-.269.245,6.065,6.065,0,0,0-.368.632c-.12.2-.211.341-.42.309a.473.473,0,0,1-.329-.3,1.215,1.215,0,0,0,.438-.552,2.522,2.522,0,0,0,.17-1.069c-.012-.376-.183-1.26-.228-1.6s-.11-.618-.1-.69.118.1.175.107c.029-.007.014-.112-.042-.2-.037-.06-.156-.334-.234-.467-.036-.062-.045-.1-.062-.106a.811.811,0,0,0-.131.3.282.282,0,0,1,.073.179c.008.1.1.818.174,1.349a15.99,15.99,0,0,1,.2,1.664,1.161,1.161,0,0,1-.042.371,1.3,1.3,0,0,1-.465.455c-.049-.321,0-.582-.042-.606-.053.006-.062.155-.067.34a2.13,2.13,0,0,0,.016.33A12.073,12.073,0,0,1,12.1,9.5c-.142.075-.091.092.03.055a7.436,7.436,0,0,0,1.137-.4l.039-.021a1.119,1.119,0,0,0,.066.179c.119.247.289.394.474.38.155-.012.267-.178.365-.376a2.754,2.754,0,0,1,.431-.722.717.717,0,0,1,.192-.124.272.272,0,0,1,.216.03.235.235,0,0,1,.082.1.918.918,0,0,0,.187.3.6.6,0,0,0,.662.035.621.621,0,0,0,.362-.429A2.959,2.959,0,0,0,16.4,7.6c-.018-.32-.069-.647-.1-.994-.009-.112-.028-.267-.049-.435.2.235.416.474.544.6.044.045.091.095.139.148.038.525.075,1.182.095,1.458s.006.62,0,.68.031.05.079-.083A3.381,3.381,0,0,0,17.2,8.02c-.009-.185-.027-.522-.047-.841.158.188.308.377.406.506a2.713,2.713,0,0,1,.389.666c.056.169.062.219.073.249s.059-.093.051-.286" fill="#fff"/>
        <path id="Path_706" data-name="Path 706" d="M15.143,14.739a.124.124,0,0,0-.121-.078.126.126,0,0,0-.121.078h-.544a.478.478,0,0,1,.017-.18H15.5l.031.053a.587.587,0,0,0,.106.128Zm.744-.522h-1.35a.317.317,0,0,0,.144-.3.169.169,0,0,0-.163-.128h-.042c-.1.01-.177.083-.166.164l0,.032.005.047a.476.476,0,0,1-.017.18H4.325a.857.857,0,0,0,.71.348l9.105-.006a.313.313,0,0,0-.144.3.177.177,0,0,0,.2.129c.1-.01.177-.084.166-.165l0-.031H14.9a.131.131,0,0,0,.25,0h.545a.715.715,0,0,0,.411.127.244.244,0,0,0,.26-.223v-.065a.446.446,0,0,0-.476-.408" fill="#fff"/>
      </g>
    </g>
    <g id="Ellipse_77" data-name="Ellipse 77" transform="translate(1040 731)" fill="none" stroke="#ecedee" stroke-width="1">
      <circle cx="10" cy="10" r="10" stroke="none"/>
      <circle cx="10" cy="10" r="9.5" fill="none"/>
    </g>
  </g>
</svg>
