<svg xmlns="http://www.w3.org/2000/svg" xmlns:xlink="http://www.w3.org/1999/xlink" width="38" height="38" viewBox="0 0 38 38">
  <defs>
    <clipPath id="clip-path">
      <path id="Path_146" data-name="Path 146" d="M5.962,10.682a10,10,0,1,0,10-10,10,10,0,0,0-10,10" transform="translate(-5.962 -0.682)" fill="none"/>
    </clipPath>
    <filter id="Ellipse_16" x="0" y="0" width="38" height="38" filterUnits="userSpaceOnUse">
      <feOffset dy="3" input="SourceAlpha"/>
      <feGaussianBlur stdDeviation="3" result="blur"/>
      <feFlood flood-opacity="0.302"/>
      <feComposite operator="in" in2="blur"/>
      <feComposite in="SourceGraphic"/>
    </filter>
  </defs>
  <g id="Spanisch-flage" transform="translate(9 6)">
    <g id="Group_389" data-name="Group 389" transform="translate(0 0)">
      <g id="Group_388" data-name="Group 388" clip-path="url(#clip-path)">
        <path id="Path_144" data-name="Path 144" d="M28.422,0H0V6.925H31.062V0Z" transform="translate(-3.975 -0.455)" fill="#bd2735"/>
        <path id="Path_662" data-name="Path 662" d="M0,0H31.063V8.288H0Z" transform="translate(-3.975 6.145)" fill="#ffcd00"/>
        <path id="Path_145" data-name="Path 145" d="M0,27.853s1.182-.1,2.64-.1H28.422c1.458,0,2.64.019,2.64.019V20.831H0Z" transform="translate(-3.975 -7.399)" fill="#a73338"/>
      </g>
    </g>
    <g transform="matrix(1, 0, 0, 1, -9, -6)" filter="url(#Ellipse_16)">
      <g id="Ellipse_16-2" data-name="Ellipse 16" transform="translate(9 6)" fill="none" stroke="#ecedee" stroke-width="1">
        <ellipse cx="10" cy="10" rx="10" ry="10" stroke="none"/>
        <ellipse cx="10" cy="10" rx="9.5" ry="9.5" fill="none"/>
      </g>
    </g>
  </g>
</svg>
