<svg xmlns="http://www.w3.org/2000/svg" xmlns:xlink="http://www.w3.org/1999/xlink" width="207" height="207" viewBox="0 0 207 207">
  <defs>
    <clipPath id="clip-path">
      <rect width="207" height="207" fill="none"/>
    </clipPath>
    <clipPath id="clip-path-2">
      <rect id="Rectangle_64" data-name="Rectangle 64" width="182.927" height="182.908" fill="#fff"/>
    </clipPath>
  </defs>
  <g id="Repeat_Grid_1" data-name="Repeat Grid 1" clip-path="url(#clip-path)">
    <g id="Group_26" data-name="Group 26" transform="translate(-1477 -6906)">
      <circle id="Ellipse_20" data-name="Ellipse 20" cx="103.5" cy="103.5" r="103.5" transform="translate(1477 6906)" fill="#d89100"/>
      <g id="premium-badge" transform="translate(1519.826 6968.992)">
        <g id="Layer_5_21_" transform="translate(26.93)">
          <g id="Group_19" data-name="Group 19" transform="translate(0)">
            <path id="Path_41" data-name="Path 41" d="M94.111,67.112,83.772,49.342c1.789-.546,3.7-1.028,4.487-2.4,1.32-2.278-1.029-6.016-.413-8.458.635-2.513,4.387-4.688,4.387-7.243,0-2.489-3.878-5.4-4.514-7.9-.621-2.442,1.721-6.183.4-8.459s-5.734-2.089-7.55-3.836c-1.868-1.8-1.862-6.2-4.115-7.4S70.512,4.89,68,4.311C65.518,3.739,63.3,0,60.706,0c-2.632,0-6.818,4.241-7.475,4.393-2.51.584-6.192-1.854-8.451-.64s-2.237,5.608-4.1,7.408c-1.812,1.75-6.223,1.571-7.543,3.85s1.029,6.015.413,8.458-4.5,4.932-4.5,7.765c0,2.555,3.761,4.723,4.4,7.235.621,2.442-1.721,6.183-.4,8.459.721,1.239,2.356,1.748,3.99,2.237.191.057.551.27.307.626L27.236,67.242a1.441,1.441,0,0,0,1.291,2.353l6.976.291a5.553,5.553,0,0,1,3.974,2.3L43.2,78.095a1.441,1.441,0,0,0,2.683-.05S56.3,60.062,56.3,60.057c.209-.244.419-.194.52-.109a7.21,7.21,0,0,0,4.054,1.938c1.3,0,2.5-.911,3.7-1.927.1-.083.333-.252.505.1l10.407,17.89a1.441,1.441,0,0,0,2.683.046l3.712-5.914a5.554,5.554,0,0,1,3.97-2.309l6.976-.3A1.441,1.441,0,0,0,94.111,67.112ZM72.235,50.936a23.12,23.12,0,1,1-.463-40.309l.172.1.243.137a23.162,23.162,0,0,1,.048,40.076Z" transform="translate(-26.93)" fill="#fff"/>
            <path id="Path_42" data-name="Path 42" d="M122.656,56.183l-.1-.054a19.491,19.491,0,0,0-20.125,33.381c.222.14.446.279.675.411a19.5,19.5,0,0,0,19.546-33.738Zm2.327,15.206-3.257,3.175a5.472,5.472,0,0,0-1.4,4.312l.769,4.483c.238,1.389-.587,1.988-1.834,1.333l-4.026-2.117a5.473,5.473,0,0,0-4.534,0l-4.026,2.117c-1.247.656-2.072.056-1.834-1.333l.769-4.483a5.472,5.472,0,0,0-1.4-4.312l-3.257-3.175c-1.009-.983-.694-1.954.7-2.156l4.5-.654a5.473,5.473,0,0,0,3.668-2.665l2.013-4.078c.623-1.263,1.644-1.263,2.267,0l2.013,4.078a5.473,5.473,0,0,0,3.668,2.665l4.5.654C125.676,69.436,125.991,70.406,124.983,71.389Z" transform="translate(-79.114 -42.073)" fill="#fff"/>
          </g>
        </g>
      </g>
      <g id="Group_21" data-name="Group 21" transform="translate(1488.992 6917.992)">
        <g id="Group_20" data-name="Group 20" clip-path="url(#clip-path-2)">
          <path id="Path_43" data-name="Path 43" d="M41.114,56.725,42,55.737a1.574,1.574,0,0,0,2.227-.221c.886-.988.66-2.385-1.162-4.095l-.019.021A2.721,2.721,0,0,1,42.384,54a2.905,2.905,0,0,1-4.329.157,3.1,3.1,0,0,1-.271-4.6c1.442-1.608,3.378-1.484,5.658.561,2.585,2.318,3.095,4.519,1.6,6.19a2.726,2.726,0,0,1-3.925.424m.359-6.427a1.878,1.878,0,0,0-2.848.006,2.113,2.113,0,1,0,2.848-.006" transform="translate(-14.244 -18.71)" fill="#fff"/>
          <path id="Path_44" data-name="Path 44" d="M51.812,45.5l.989-.885a1.575,1.575,0,0,0,2.239.026c.989-.884.919-2.3-.7-4.2l-.021.019a2.723,2.723,0,0,1-.939,2.466,2.906,2.906,0,0,1-4.321-.323A3.1,3.1,0,0,1,49.295,38c1.611-1.439,3.521-1.1,5.562,1.183,2.313,2.59,2.576,4.835.9,6.329a2.725,2.725,0,0,1-3.948-.012m1.067-6.348a1.879,1.879,0,0,0-2.832-.31,2.113,2.113,0,1,0,2.832.31" transform="translate(-18.592 -14.342)" fill="#fff"/>
          <path id="Path_45" data-name="Path 45" d="M69.529,43.646l-.654.494-.8-1.946-.406.306-1-1.319,1.217-.918,1,1.318Z" transform="translate(-25.749 -15.548)" fill="#fff"/>
          <path id="Path_46" data-name="Path 46" d="M69.923,31.13l1.123-.708a1.576,1.576,0,0,0,2.2.4c1.122-.709,1.287-2.115,0-4.259l-.024.015a2.72,2.72,0,0,1-1.334,2.279,2.908,2.908,0,0,1-4.21-1.033,3.1,3.1,0,0,1,1-4.5c1.827-1.154,3.657-.505,5.293,2.086,1.854,2.938,1.744,5.2-.155,6.394a2.727,2.727,0,0,1-3.894-.665m2.1-6.087a1.879,1.879,0,0,0-2.743-.773,1.9,1.9,0,0,0-.481,2.809,1.89,1.89,0,0,0,2.716.757,1.918,1.918,0,0,0,.508-2.793" transform="translate(-25.915 -8.791)" fill="#fff"/>
          <path id="Path_47" data-name="Path 47" d="M85.2,15.825c.711,1.569.4,2.764-.859,3.336s-2.364.018-3.077-1.551-.4-2.764.859-3.336,2.364-.018,3.077,1.551m-2.92,1.325c.49,1.08,1.082,1.494,1.7,1.214s.695-1,.205-2.078-1.081-1.495-1.7-1.214-.689,1.01-.205,2.078m4.175,6.294L87.031,11.8l.874-.4-.578,11.645ZM93.1,17.235c.711,1.569.4,2.765-.859,3.336s-2.364.018-3.076-1.551-.4-2.764.859-3.336,2.364-.018,3.077,1.551M90.176,18.56c.49,1.08,1.081,1.495,1.7,1.214s.694-1,.2-2.078S91,16.2,90.381,16.482s-.69,1.01-.205,2.078" transform="translate(-31.236 -4.403)" fill="#fff"/>
          <path id="Path_48" data-name="Path 48" d="M120.077,12.194l-1.692.389-5.359-3.838L113,8.753l1.107,4.815-1.265.292-2.255-9.8,1.266-.291,1.016,4.417.028-.007,2.932-5.325,1.6-.367-3.206,5.649Z" transform="translate(-42.705 -0.961)" fill="#fff"/>
          <path id="Path_49" data-name="Path 49" d="M135.655,6.549c.266,2.584-.915,4.081-3.3,4.326s-3.847-.981-4.112-3.565L127.6,1.062,128.891.93l.639,6.22c.192,1.867,1.186,2.7,2.7,2.546s2.306-1.173,2.114-3.04l-.639-6.22L135.013.3Z" transform="translate(-49.275 -0.116)" fill="#fff"/>
          <path id="Path_50" data-name="Path 50" d="M153.38,10.261l-2.229-4.416c-.778-1.525-1.543-3.064-2.264-4.587h-.028c-.029,1.609-.072,3.2-.13,4.811l-.144,4.021-1.27-.045L147.674,0l1.9.069,2.242,4.416c.765,1.525,1.528,3.064,2.264,4.587h.028c.03-1.609.072-3.2.131-4.811l.144-4.021,1.269.045L155.3,10.33Z" transform="translate(-56.888)" fill="#fff"/>
          <path id="Path_51" data-name="Path 51" d="M171.184,1.912c3.28.586,4.811,2.695,4.245,5.864s-2.732,4.618-6.012,4.032L166.4,11.27l1.767-9.9Zm-3.3,8.446,1.724.308c2.474.442,4.033-.656,4.475-3.131s-.641-4.045-3.115-4.486l-1.723-.308Z" transform="translate(-64.259 -0.53)" fill="#fff"/>
          <path id="Path_52" data-name="Path 52" d="M188.349,7.082l-.961,3.029,4.657,1.477-.346,1.09L187.042,11.2l-1.034,3.258,5.088,1.614-.35,1.1-6.326-2.007,3.041-9.583,6.178,1.96-.35,1.1Z" transform="translate(-71.218 -2.157)" fill="#fff"/>
          <path id="Path_53" data-name="Path 53" d="M205.066,23.2l-.309-4.937c-.114-1.708-.211-3.424-.274-5.108l-.026-.012c-.66,1.468-1.328,2.916-2.015,4.372l-1.716,3.638-1.149-.542,4.288-9.09,1.724.813.321,4.943c.1,1.7.2,3.417.274,5.108l.025.012c.661-1.467,1.329-2.916,2.016-4.371l1.716-3.638,1.149.541-4.288,9.09Z" transform="translate(-77.07 -4.448)" fill="#fff"/>
          <path id="Path_54" data-name="Path 54" d="M217.077,28.575l-.015.024,5.019,3.21-.616.963-6.3-4.03.67-1.047,8.908-3.371.015-.023-4.663-2.981.616-.964,5.948,3.8-.67,1.047Z" transform="translate(-83.089 -7.861)" fill="#fff"/>
          <path id="Path_55" data-name="Path 55" d="M237.551,39.86c-1.652,2-3.548,2.217-5.4.69s-2-3.428-.352-5.433l4-4.847,1,.827-3.979,4.825c-1.195,1.449-1.09,2.743.087,3.713s2.455.817,3.65-.632l3.979-4.826,1.013.835Z" transform="translate(-89.07 -11.689)" fill="#fff"/>
          <path id="Path_56" data-name="Path 56" d="M249.663,45.317l-2.494,2.356,3.218,3.408-.842.795-3.219-3.408L243.2,51.424l-.892-.945,7.309-6.9,4.324,4.578-.842.795Z" transform="translate(-93.571 -16.828)" fill="#fff"/>
          <path id="Path_57" data-name="Path 57" d="M262.336,58.729c1.448,1.95,1.289,3.44-.082,4.458a2.456,2.456,0,0,1-3.162-.042l-.022.017c.257.724.109,1.237-.618,2.341l-1.708,2.554-.842-1.133,1.583-2.32c.719-1.045.747-1.646.107-2.508l-1.052-1.416-3.4,2.526-.775-1.043,8.069-6Zm-4.914,1.294,1.12,1.508c.935,1.258,1.968,1.3,2.84.651.941-.7.875-1.687,0-2.866l-1.069-1.439Z" transform="translate(-97.455 -21.69)" fill="#fff"/>
          <rect id="Rectangle_58" data-name="Rectangle 58" width="10.057" height="1.299" transform="matrix(0.855, -0.518, 0.518, 0.855, 160.758, 48.854)" fill="#fff"/>
          <path id="Path_58" data-name="Path 58" d="M274.719,81.365l-2.857,1.387,2.132,4.394-1.028.5-2.133-4.394-3.073,1.492,2.329,4.8-1.041.505-2.9-5.969,9.042-4.388,2.829,5.83-1.041.505Z" transform="translate(-102.779 -30.774)" fill="#fff"/>
          <path id="Path_59" data-name="Path 59" d="M283.338,99.114c1.05,3.161-.073,5.512-3.126,6.526s-5.361-.2-6.41-3.358l-.966-2.906,9.536-3.167Zm-8.994,1.128.551,1.661c.792,2.384,2.5,3.229,4.885,2.438s3.247-2.492,2.455-4.876l-.552-1.661Z" transform="translate(-105.361 -37.153)" fill="#fff"/>
          <path id="Path_60" data-name="Path 60" d="M287.164,117.387l-3.119.6.924,4.8-1.123.217-.924-4.8-3.355.646,1.009,5.24-1.137.219-1.255-6.515,9.87-1.9,1.225,6.363-1.136.219Z" transform="translate(-107.427 -44.754)" fill="#fff"/>
          <path id="Path_61" data-name="Path 61" d="M281.257,140.447l4.189-2.633c1.447-.918,2.908-1.822,4.357-2.684l0-.028c-1.605.122-3.2.228-4.8.32l-4.017.232-.073-1.269,10.036-.58.111,1.9-4.189,2.647c-1.447.9-2.909,1.809-4.357,2.684l0,.028c1.605-.121,3.2-.227,4.8-.32l4.018-.233.074,1.269-10.036.581Z" transform="translate(-108.478 -51.671)" fill="#fff"/>
          <path id="Path_62" data-name="Path 62" d="M280.63,160.252l4.628.385.425-5.106-4.628-.385.107-1.294,10.017.834-.107,1.295-4.249-.354-.425,5.107,4.249.354-.109,1.308-10.017-.834Z" transform="translate(-108.329 -59.413)" fill="#fff"/>
          <path id="Path_63" data-name="Path 63" d="M287.058,175.621l-3.1-.675-1.037,4.774-1.117-.242,1.037-4.774-3.339-.726-1.133,5.215-1.131-.246,1.409-6.484,9.823,2.134-1.376,6.332-1.131-.246Z" transform="translate(-107.059 -66.6)" fill="#fff"/>
          <rect id="Rectangle_59" data-name="Rectangle 59" width="1.299" height="10.054" transform="matrix(0.302, -0.953, 0.953, 0.302, 168.804, 116.717)" fill="#fff"/>
          <path id="Path_64" data-name="Path 64" d="M279.114,203.7l-8.208-3.428.506-1.212,8.208,3.428,1.323-3.166,1.068.446-3.151,7.543-1.068-.446Z" transform="translate(-104.616 -76.872)" fill="#fff"/>
          <rect id="Rectangle_60" data-name="Rectangle 60" width="3.388" height="1.087" transform="matrix(0.518, -0.855, 0.855, 0.518, 164.036, 137.302)" fill="#fff"/>
          <path id="Path_65" data-name="Path 65" d="M254.874,231.231l-.844,1.024a1.575,1.575,0,0,0-2.217.314c-.844,1.024-.56,2.411,1.332,4.044l.018-.021a2.72,2.72,0,0,1,.554-2.581,2.906,2.906,0,0,1,4.321-.335,3.1,3.1,0,0,1,.461,4.589c-1.374,1.667-3.314,1.622-5.678-.327-2.68-2.21-3.28-4.388-1.852-6.12a2.726,2.726,0,0,1,3.9-.586m-.093,6.438a1.88,1.88,0,0,0,2.847-.123,2.113,2.113,0,1,0-2.847.123" transform="translate(-96.627 -89.073)" fill="#fff"/>
          <path id="Path_66" data-name="Path 66" d="M244.834,242.695l-.951.925a1.575,1.575,0,0,0-2.237.067c-.951.924-.823,2.334.878,4.165l.02-.02a2.72,2.72,0,0,1,.835-2.5,2.9,2.9,0,0,1,4.329.142,3.1,3.1,0,0,1-.047,4.611c-1.549,1.505-3.472,1.247-5.606-.95-2.419-2.49-2.776-4.722-1.166-6.286a2.726,2.726,0,0,1,3.945-.152m-.8,6.387a1.879,1.879,0,0,0,2.842.191,2.113,2.113,0,1,0-2.842-.191" transform="translate(-92.645 -93.424)" fill="#fff"/>
          <path id="Path_67" data-name="Path 67" d="M230.938,248.567l.633-.52.877,1.912.393-.323,1.049,1.277-1.179.968-1.049-1.277Z" transform="translate(-89.181 -95.789)" fill="#fff"/>
          <path id="Path_68" data-name="Path 68" d="M227.64,257.576l-1.092.755a1.575,1.575,0,0,0-2.218-.3c-1.091.755-1.2,2.166.177,4.254l.023-.016a2.723,2.723,0,0,1,1.238-2.331,2.906,2.906,0,0,1,4.248.857,3.1,3.1,0,0,1-.809,4.541c-1.777,1.228-3.631.656-5.373-1.864-1.975-2.857-1.958-5.118-.111-6.394a2.727,2.727,0,0,1,3.917.5m-1.847,6.168a1.879,1.879,0,0,0,2.772.659,2.113,2.113,0,1,0-2.772-.659" transform="translate(-85.863 -99.04)" fill="#fff"/>
          <path id="Path_69" data-name="Path 69" d="M202.309,270.881c-.777-1.537-.517-2.744.717-3.368s2.361-.118,3.138,1.419.517,2.743-.718,3.368-2.361.117-3.137-1.419m2.86-1.446c-.535-1.058-1.144-1.447-1.748-1.141s-.652,1.026-.117,2.084,1.143,1.447,1.748,1.141.646-1.038.117-2.084m3.512-5.035-.087,11.655-.857.433.087-11.654Zm1.574,7.556c-.777-1.536-.517-2.744.717-3.368s2.36-.118,3.138,1.419.517,2.744-.718,3.368-2.361.118-3.137-1.419m2.859-1.446c-.535-1.058-1.142-1.447-1.748-1.141s-.652,1.026-.117,2.084,1.142,1.447,1.748,1.141.645-1.039.117-2.084" transform="translate(-77.956 -102.103)" fill="#fff"/>
          <path id="Path_70" data-name="Path 70" d="M177.431,277.405l1.675-.461,5.516,3.606.027-.007-1.311-4.763,1.252-.345,2.668,9.69-1.252.345-1.2-4.369-.027.007-2.7,5.443-1.579.435,2.962-5.779Z" transform="translate(-68.518 -106.364)" fill="#fff"/>
          <path id="Path_71" data-name="Path 71" d="M163.05,284.232c-.373-2.571.743-4.118,3.118-4.463s3.887.819,4.261,3.39l.9,6.219-1.285.187-.9-6.19c-.271-1.859-1.3-2.651-2.809-2.431s-2.255,1.269-1.985,3.129l.9,6.19-1.3.189Z" transform="translate(-62.938 -108.015)" fill="#fff"/>
          <path id="Path_72" data-name="Path 72" d="M145.21,281.5l2.454,4.3c.857,1.482,1.7,2.98,2.5,4.464h.028c-.054-1.609-.093-3.2-.118-4.812l-.064-4.023,1.271-.02.16,10.05-1.905.03-2.469-4.295c-.842-1.483-1.685-2.98-2.5-4.464h-.028c.054,1.608.094,3.2.12,4.812l.064,4.023-1.27.02-.16-10.05Z" transform="translate(-55.335 -108.668)" fill="#fff"/>
          <path id="Path_73" data-name="Path 73" d="M127.134,290.372c-3.3-.447-4.921-2.49-4.49-5.68s2.535-4.73,5.837-4.283l3.037.41-1.347,9.964Zm2.941-8.579-1.735-.234c-2.491-.337-4,.827-4.339,3.317s.811,4.014,3.3,4.351l1.735.235Z" transform="translate(-47.335 -108.256)" fill="#fff"/>
          <path id="Path_74" data-name="Path 74" d="M109.806,285.337l.832-3.066-4.715-1.28.3-1.1,4.715,1.28.9-3.3-5.152-1.4.3-1.117,6.405,1.738-2.634,9.7-6.256-1.7.3-1.117Z" transform="translate(-40.355 -106.333)" fill="#fff"/>
          <path id="Path_75" data-name="Path 75" d="M90.949,269.4l.517,4.92c.187,1.7.355,3.412.49,5.092l.026.011c.6-1.494,1.2-2.97,1.829-4.453l1.562-3.708,1.171.493-3.9,9.263-1.757-.74-.529-4.925c-.174-1.7-.342-3.407-.49-5.093l-.026-.01c-.6,1.493-1.2,2.97-1.829,4.453l-1.562,3.708-1.171-.494,3.9-9.263Z" transform="translate(-32.932 -103.745)" fill="#fff"/>
          <path id="Path_76" data-name="Path 76" d="M78.726,264.559l.014-.025-5.149-3,.575-.988,6.469,3.763-.625,1.074-8.759,3.741-.014.024,4.784,2.784-.575.988-6.1-3.55.624-1.074Z" transform="translate(-26.778 -100.616)" fill="#fff"/>
          <path id="Path_77" data-name="Path 77" d="M58.145,254.787c1.568-2.072,3.453-2.363,5.367-.913s2.145,3.342.578,5.414L60.3,264.3l-1.036-.784,3.776-4.987c1.133-1.5.975-2.786-.241-3.706s-2.488-.714-3.621.783L55.4,260.589l-1.047-.792Z" transform="translate(-20.989 -97.69)" fill="#fff"/>
          <path id="Path_78" data-name="Path 78" d="M45.363,251.811l2.391-2.458L44.4,246.084l.807-.829,3.359,3.268,3-3.085.931.905-7.009,7.2-4.511-4.391.807-.829Z" transform="translate(-15.823 -94.71)" fill="#fff"/>
          <path id="Path_79" data-name="Path 79" d="M32.53,236.611c-1.528-1.886-1.433-3.382-.106-4.457a2.456,2.456,0,0,1,3.161-.091l.021-.018c-.285-.713-.161-1.231.519-2.365l1.6-2.623.889,1.1-1.484,2.384c-.675,1.074-.678,1.676,0,2.509l1.111,1.371,3.29-2.667.818,1.009-7.809,6.329Zm4.855-1.5L36.2,233.654c-.986-1.218-2.021-1.215-2.865-.531-.91.737-.8,1.722.122,2.863l1.128,1.393Z" transform="translate(-12.128 -87.683)" fill="#fff"/>
          <rect id="Rectangle_61" data-name="Rectangle 61" width="10.054" height="1.299" transform="translate(14.929 141.425) rotate(-33.584)" fill="#fff"/>
          <path id="Path_80" data-name="Path 80" d="M18.636,215.431l2.8-1.5-2.314-4.3,1.007-.542,2.314,4.3,3.008-1.619-2.528-4.7,1.02-.549,3.143,5.842-8.85,4.761-3.069-5.7,1.019-.548Z" transform="translate(-5.856 -79.752)" fill="#fff"/>
          <path id="Path_81" data-name="Path 81" d="M9.9,198.475c-1.183-3.115-.16-5.512,2.849-6.654s5.364-.029,6.547,3.086l1.088,2.864-9.4,3.568Zm8.94-1.508-.622-1.636c-.892-2.349-2.635-3.121-4.984-2.229s-3.14,2.627-2.248,4.976l.622,1.636Z" transform="translate(-3.638 -73.907)" fill="#fff"/>
          <path id="Path_82" data-name="Path 82" d="M5.147,181.142l3.092-.731-1.125-4.755,1.113-.263,1.125,4.754,3.326-.787-1.229-5.194,1.127-.266,1.527,6.458L4.32,182.673l-1.492-6.307,1.127-.266Z" transform="translate(-1.092 -67.155)" fill="#fff"/>
          <path id="Path_83" data-name="Path 83" d="M10.412,157.741l-4.076,2.806c-1.406.978-2.828,1.943-4.24,2.864l0,.028c1.6-.188,3.185-.361,4.787-.521l4-.4.126,1.264-10,1-.19-1.9L4.9,160.066c1.408-.964,2.83-1.929,4.24-2.865l0-.028c-1.6.188-3.185.362-4.787.521l-4,.4-.126-1.264,10-1Z" transform="translate(-0.084 -60.177)" fill="#fff"/>
          <path id="Path_84" data-name="Path 84" d="M10.307,138.2l-4.641-.192-.211,5.121,4.641.191-.053,1.3L0,144.209l.053-1.3,4.259.176.211-5.121-4.259-.176.054-1.312,10.043.414Z" transform="translate(0 -52.704)" fill="#fff"/>
          <path id="Path_85" data-name="Path 85" d="M2.845,123.175l3.13.541.832-4.812,1.127.2L7.1,123.912l3.366.583.91-5.257,1.141.2-1.132,6.537-9.9-1.714,1.1-6.384,1.14.2Z" transform="translate(-0.573 -45.519)" fill="#fff"/>
          <rect id="Rectangle_62" data-name="Rectangle 62" width="1.299" height="10.055" transform="matrix(0.262, -0.965, 0.965, 0.262, 3.092, 68.099)" fill="#fff"/>
          <path id="Path_86" data-name="Path 86" d="M9.722,94.843l8.344,3.08-.454,1.232-8.344-3.08L8.079,99.293l-1.085-.4,2.83-7.669,1.086.4Z" transform="translate(-2.701 -35.228)" fill="#fff"/>
          <rect id="Rectangle_63" data-name="Rectangle 63" width="3.389" height="1.087" transform="translate(14.441 51.166) rotate(-61.206)" fill="#fff"/>
        </g>
      </g>
    </g>
  </g>
</svg>
