<svg xmlns="http://www.w3.org/2000/svg" width="50.995" height="40.137" viewBox="0 0 50.995 40.137">
  <g id="camera" transform="translate(0 -44.8)">
    <g id="Group_25" data-name="Group 25" transform="translate(0 44.8)">
      <g id="Group_24" data-name="Group 24" transform="translate(0 0)">
        <path id="Path_87" data-name="Path 87" d="M49.3,51.053a5.483,5.483,0,0,0-4.023-1.7H37.229v-.1a4.352,4.352,0,0,0-1.309-3.151A4.435,4.435,0,0,0,32.769,44.8H18.227a4.469,4.469,0,0,0-4.508,4.46v.1h-8a5.483,5.483,0,0,0-4.023,1.7A5.763,5.763,0,0,0,0,55.077v24.14a5.483,5.483,0,0,0,1.7,4.023,5.763,5.763,0,0,0,4.023,1.7H45.275a5.483,5.483,0,0,0,4.023-1.7A5.763,5.763,0,0,0,51,79.217V55.077A5.483,5.483,0,0,0,49.3,51.053Zm-.824,28.164h-.048a3.145,3.145,0,0,1-3.151,3.151H5.72a3.145,3.145,0,0,1-3.151-3.151V55.077A3.145,3.145,0,0,1,5.72,51.926h9.356a1.3,1.3,0,0,0,1.309-1.309V49.211a1.825,1.825,0,0,1,1.891-1.891H32.769a1.825,1.825,0,0,1,1.891,1.891v1.406a1.3,1.3,0,0,0,1.309,1.309h9.356a3.145,3.145,0,0,1,3.151,3.151Z" transform="translate(0 -44.8)" fill="#ce9b32"/>
        <path id="Path_88" data-name="Path 88" d="M123.925,130.8a11.916,11.916,0,1,0,8.435,3.49A11.946,11.946,0,0,0,123.925,130.8Zm6.593,18.566a9.363,9.363,0,0,1-13.185,0,9.267,9.267,0,0,1-2.715-6.593,9.473,9.473,0,0,1,2.715-6.593,9.267,9.267,0,0,1,6.593-2.715,9.473,9.473,0,0,1,6.593,2.715,9.267,9.267,0,0,1,2.715,6.593A9.071,9.071,0,0,1,130.517,149.366Z" transform="translate(-98.427 -120.378)" fill="#ce9b32"/>
        <circle id="Ellipse_21" data-name="Ellipse 21" cx="2.375" cy="2.375" r="2.375" transform="translate(40.38 10.374)" fill="#ce9b32"/>
      </g>
    </g>
  </g>
</svg>
