<svg xmlns="http://www.w3.org/2000/svg" width="23.794" height="16.73" viewBox="0 0 23.794 16.73">
  <g id="email" transform="translate(0 -76)">
    <g id="Group_2" data-name="Group 2" transform="translate(1.219 85.353)">
      <g id="Group_1" data-name="Group 1">
        <path id="Path_1" data-name="Path 1" d="M40.425,277.251l-1.993,2a2.206,2.206,0,0,1-3.056,0l-1.993-2-7.158,7.181a2.069,2.069,0,0,0,.872.2H46.71a2.068,2.068,0,0,0,.872-.2Z" transform="translate(-26.226 -277.251)" fill="#ce9b32"/>
      </g>
    </g>
    <g id="Group_4" data-name="Group 4" transform="translate(1.219 76)">
      <g id="Group_3" data-name="Group 3">
        <path id="Path_2" data-name="Path 2" d="M46.712,76H27.1a2.07,2.07,0,0,0-.872.2l7.648,7.674h0l2.487,2.5a.837.837,0,0,0,1.081,0l2.486-2.495v0h0L47.584,76.2A2.069,2.069,0,0,0,46.712,76Z" transform="translate(-26.228 -76)" fill="#ce9b32"/>
      </g>
    </g>
    <g id="Group_6" data-name="Group 6" transform="translate(0 77.172)">
      <g id="Group_5" data-name="Group 5">
        <path id="Path_3" data-name="Path 3" d="M.222,101.212a2.066,2.066,0,0,0-.222.92v12.548a2.065,2.065,0,0,0,.222.92l7.17-7.193Z" transform="translate(0 -101.212)" fill="#ce9b32"/>
      </g>
    </g>
    <g id="Group_8" data-name="Group 8" transform="translate(16.402 77.172)">
      <g id="Group_7" data-name="Group 7">
        <path id="Path_4" data-name="Path 4" d="M360.1,101.21l-7.17,7.194,7.17,7.193a2.066,2.066,0,0,0,.222-.92V102.13A2.066,2.066,0,0,0,360.1,101.21Z" transform="translate(-352.933 -101.21)" fill="#ce9b32"/>
      </g>
    </g>
  </g>
</svg>
