<svg xmlns="http://www.w3.org/2000/svg" width="24.248" height="24.252" viewBox="0 0 24.248 24.252">
  <g id="instagram" transform="translate(-0.449)">
    <path id="Path_23" data-name="Path 23" d="M24.635,7.13a8.862,8.862,0,0,0-.564-2.942A6.213,6.213,0,0,0,20.523.64,8.885,8.885,0,0,0,17.58.076c-1.3-.062-1.71-.076-5-.076s-3.7.014-5,.071A8.865,8.865,0,0,0,4.637.635a5.917,5.917,0,0,0-2.151,1.4,5.971,5.971,0,0,0-1.4,2.146A8.886,8.886,0,0,0,.524,7.126c-.062,1.3-.076,1.71-.076,5s.014,3.7.071,5a8.861,8.861,0,0,0,.564,2.942,6.212,6.212,0,0,0,3.549,3.549,8.886,8.886,0,0,0,2.942.564c1.293.057,1.706.071,5,.071s3.7-.014,5-.071a8.86,8.86,0,0,0,2.942-.564,6.2,6.2,0,0,0,3.549-3.549,8.892,8.892,0,0,0,.564-2.942c.057-1.293.071-1.706.071-5s0-3.7-.062-5Zm-2.184,9.9a6.647,6.647,0,0,1-.417,2.25,4.023,4.023,0,0,1-2.3,2.3,6.671,6.671,0,0,1-2.25.417c-1.279.057-1.663.071-4.9.071s-3.624-.014-4.9-.071a6.644,6.644,0,0,1-2.25-.417,3.732,3.732,0,0,1-1.393-.9,3.771,3.771,0,0,1-.9-1.393,6.672,6.672,0,0,1-.417-2.25c-.057-1.279-.071-1.663-.071-4.9s.014-3.624.071-4.9a6.644,6.644,0,0,1,.417-2.25A3.686,3.686,0,0,1,4.045,3.6a3.765,3.765,0,0,1,1.393-.9,6.676,6.676,0,0,1,2.25-.417c1.279-.057,1.663-.071,4.9-.071s3.624.014,4.9.071a6.647,6.647,0,0,1,2.25.417,3.729,3.729,0,0,1,1.393.9,3.77,3.77,0,0,1,.9,1.393,6.675,6.675,0,0,1,.417,2.25c.057,1.279.071,1.663.071,4.9s-.014,3.615-.071,4.894Zm0,0" transform="translate(0 0)" fill="#fff"/>
    <path id="Path_24" data-name="Path 24" d="M131.179,124.5a6.23,6.23,0,1,0,6.23,6.23A6.232,6.232,0,0,0,131.179,124.5Zm0,10.272a4.041,4.041,0,1,1,4.041-4.041A4.042,4.042,0,0,1,131.179,134.772Zm0,0" transform="translate(-118.602 -118.601)" fill="#fff"/>
    <path id="Path_25" data-name="Path 25" d="M365.359,90.056A1.455,1.455,0,1,1,363.9,88.6,1.455,1.455,0,0,1,365.359,90.056Zm0,0" transform="translate(-344.85 -84.404)" fill="#fff"/>
  </g>
</svg>
