<svg xmlns="http://www.w3.org/2000/svg" width="19.463" height="20.883" viewBox="0 0 19.463 20.883">
  <g id="phone-receiver-silhouette" transform="translate(-0.872)">
    <path id="Path_5" data-name="Path 5" d="M18.155,14.535c-1.262-1.079-2.542-1.733-3.788-.655l-.744.651c-.544.473-1.557,2.681-5.47-1.821s-1.584-5.2-1.039-5.665l.748-.652c1.24-1.08.772-2.439-.122-3.838L7.2,1.707C6.3.311,5.324-.606,4.081.473l-.672.587A6.3,6.3,0,0,0,.953,5.231C.5,8.2,1.918,11.591,5.158,15.316s6.4,5.6,9.4,5.566a6.321,6.321,0,0,0,4.471-1.852l.674-.588c1.24-1.077.469-2.174-.793-3.256Z" transform="translate(0 0)" fill="#ce9b32"/>
  </g>
</svg>
