<svg xmlns="http://www.w3.org/2000/svg" width="42.456" height="42.464" viewBox="0 0 42.456 42.464">
  <g id="plaster" transform="translate(-0.501)">
    <path id="Path_91" data-name="Path 91" d="M34.04,21.228l6.37-6.362A8.708,8.708,0,0,0,28.1,2.55L21.724,8.912,15.363,2.551A8.708,8.708,0,0,0,3.047,14.866l6.362,6.362L3.047,27.6A8.708,8.708,0,0,0,15.363,39.913l6.361-6.369,6.37,6.37A8.708,8.708,0,0,0,40.41,27.6ZM29.854,4.31a6.22,6.22,0,0,1,8.8,8.8l-6.371,6.362-8.8-8.8ZM13.6,38.154a6.22,6.22,0,1,1-8.8-8.8l6.361-6.369,8.8,8.8Zm25.047,0,.88.88-.88-.88a6.22,6.22,0,0,1-8.8,0L4.807,13.107a6.22,6.22,0,1,1,8.8-8.8L38.651,29.357A6.227,6.227,0,0,1,38.651,38.154Zm0,0" transform="translate(0 0)" fill="#ce9b32"/>
    <path id="Path_92" data-name="Path 92" d="M64.783,108.519l-1.76-1.76,1.76-1.76,1.759,1.76Zm0,0" transform="translate(-57.337 -96.292)" fill="#ce9b32"/>
    <path id="Path_93" data-name="Path 93" d="M63.02,366.334l1.759-1.759,1.76,1.759-1.76,1.759Zm0,0" transform="translate(-57.334 -334.337)" fill="#ce9b32"/>
    <path id="Path_94" data-name="Path 94" d="M109.6,319.637l1.759,1.759-1.759,1.759-1.76-1.759Zm0,0" transform="translate(-98.441 -293.127)" fill="#ce9b32"/>
    <path id="Path_95" data-name="Path 95" d="M153.8,363.822l-1.76,1.759-1.759-1.759,1.759-1.76Zm0,0" transform="translate(-137.354 -332.034)" fill="#ce9b32"/>
    <path id="Path_96" data-name="Path 96" d="M107.208,410.523l-1.759-1.759L107.208,407l1.76,1.759Zm0,0" transform="translate(-96.244 -373.248)" fill="#ce9b32"/>
    <path id="Path_97" data-name="Path 97" d="M319.977,109.272l1.759-1.76,1.76,1.76-1.76,1.759Zm0,0" transform="translate(-292.98 -98.595)" fill="#ce9b32"/>
    <path id="Path_98" data-name="Path 98" d="M366.782,62.57l1.759,1.76-1.759,1.759-1.759-1.759Zm0,0" transform="translate(-334.29 -57.381)" fill="#ce9b32"/>
    <path id="Path_99" data-name="Path 99" d="M410.972,106.752l-1.759,1.759-1.759-1.759,1.759-1.76Zm0,0" transform="translate(-373.201 -96.284)" fill="#ce9b32"/>
    <path id="Path_100" data-name="Path 100" d="M364.165,149.93l1.759,1.759-1.759,1.76-1.759-1.76Zm0,0" transform="translate(-331.89 -137.495)" fill="#ce9b32"/>
    <path id="Path_101" data-name="Path 101" d="M107.209,62.574l1.759,1.759-1.759,1.76-1.76-1.76Zm0,0" transform="translate(-96.244 -57.384)" fill="#ce9b32"/>
    <path id="Path_102" data-name="Path 102" d="M152.028,107.508l1.76,1.759-1.76,1.76-1.759-1.76Zm0,0" transform="translate(-137.347 -98.592)" fill="#ce9b32"/>
    <path id="Path_103" data-name="Path 103" d="M152.032,195.882l-1.759-1.76,1.759-1.759,1.76,1.759Zm0,0" transform="translate(-137.351 -176.409)" fill="#ce9b32"/>
    <path id="Path_104" data-name="Path 104" d="M194.451,153.456l-1.76-1.76,1.76-1.759,1.76,1.759Zm0,0" transform="translate(-176.251 -137.502)" fill="#ce9b32"/>
    <path id="Path_105" data-name="Path 105" d="M107.84,151.7l1.76-1.759,1.76,1.759-1.76,1.76Zm0,0" transform="translate(-98.437 -137.502)" fill="#ce9b32"/>
    <path id="Path_106" data-name="Path 106" d="M277.543,321.4l1.76-1.76,1.759,1.76-1.759,1.759Zm0,0" transform="translate(-254.065 -293.134)" fill="#ce9b32"/>
    <path id="Path_107" data-name="Path 107" d="M321.733,277.207l1.759,1.759-1.759,1.759-1.759-1.759Zm0,0" transform="translate(-292.976 -254.216)" fill="#ce9b32"/>
    <path id="Path_108" data-name="Path 108" d="M364.166,319.633l1.759,1.76-1.759,1.76-1.759-1.76Zm0,0" transform="translate(-331.89 -293.123)" fill="#ce9b32"/>
    <path id="Path_109" data-name="Path 109" d="M366.783,410.523l-1.759-1.759L366.783,407l1.759,1.759Zm0,0" transform="translate(-334.29 -373.248)" fill="#ce9b32"/>
    <path id="Path_110" data-name="Path 110" d="M409.213,368.1l-1.76-1.759,1.76-1.76,1.759,1.76Zm0,0" transform="translate(-373.201 -334.341)" fill="#ce9b32"/>
    <path id="Path_111" data-name="Path 111" d="M321.739,365.589l-1.759-1.759,1.759-1.759,1.76,1.759Zm0,0" transform="translate(-292.982 -332.041)" fill="#ce9b32"/>
  </g>
</svg>
