<svg xmlns="http://www.w3.org/2000/svg" xmlns:xlink="http://www.w3.org/1999/xlink" width="98.545" height="69.03" viewBox="0 0 98.545 69.03">
  <defs>
    <clipPath id="clip-path">
      <rect id="Rectangle_48" data-name="Rectangle 48" width="30.608" height="94.713" fill="#fff"/>
    </clipPath>
  </defs>
  <g id="Group_16" data-name="Group 16" transform="translate(98.545 41.52) rotate(116)">
    <g id="Group_15" data-name="Group 15" transform="translate(0 0)" clip-path="url(#clip-path)">
      <path id="Path_39" data-name="Path 39" d="M9.957,89.222l9.54-2.138a4.193,4.193,0,0,1-2.943,3.763,124.151,124.151,0,0,1-13.2,3.77c-2.56.54-3.906-1.248-3.133-3.733,1.289-4.148,2.793-8.229,4.211-12.337.083-.24.148-.564.33-.678.581-.364,1.211-.647,1.822-.962.259.528.788,1.091.725,1.577-.213,1.64-.634,3.252-.981,4.874a5.629,5.629,0,0,0-.036,2.955c.979-.889,2-1.736,2.931-2.671a59.445,59.445,0,0,0,10.1-71.123C17.664,9.5,15.639,6.678,13.8,3.754c-.64-1.018-1.225-2.071-1.835-3.108q.284-.323.568-.645c.726.267,1.656.338,2.142.839A51.4,51.4,0,0,1,19.461,6.32c14.364,19.818,14.924,47.343,1.232,68.636-2.612,4.061-5.971,7.642-9.011,11.424-.626.778-1.364,1.465-2.051,2.193l.326.649" transform="translate(0 0)" fill="#fff"/>
    </g>
  </g>
</svg>
