<svg xmlns="http://www.w3.org/2000/svg" width="19.077" height="19.078" viewBox="0 0 19.077 19.078">
  <g id="whatsapp" transform="translate(0 0)">
    <path id="Path_36" data-name="Path 36" d="M15.142,12.675l-.007.06c-1.748-.871-1.931-.987-2.157-.649-.157.234-.613.766-.75.924s-.277.167-.513.06a6.451,6.451,0,0,1-1.91-1.18,7.212,7.212,0,0,1-1.32-1.645c-.233-.4.254-.459.7-1.3a.437.437,0,0,0-.02-.417c-.06-.119-.534-1.288-.733-1.754S8.043,6.37,7.9,6.37a1.183,1.183,0,0,0-1.087.273c-1.283,1.41-.959,2.865.138,4.412C9.1,13.878,10.253,14.4,12.355,15.12a3.289,3.289,0,0,0,1.494.1,2.446,2.446,0,0,0,1.6-1.134,1.968,1.968,0,0,0,.143-1.133C15.536,12.842,15.38,12.783,15.142,12.675Z" transform="translate(-1.226 -1.303)" fill="#fff"/>
    <path id="Path_37" data-name="Path 37" d="M16.311,2.741A9.541,9.541,0,0,0,.08,9.453a9.408,9.408,0,0,0,1.268,4.726L0,19.077l5.036-1.313A9.515,9.515,0,0,0,19.077,9.458,9.375,9.375,0,0,0,16.3,2.772Zm1.178,6.691a7.914,7.914,0,0,1-11.933,6.76l-.286-.17L2.289,16.8l.8-2.9-.19-.3A7.884,7.884,0,0,1,15.177,3.876a7.78,7.78,0,0,1,2.312,5.556Z" transform="translate(0 0)" fill="#fff"/>
  </g>
</svg>
