<svg id="kärnten-fleg" xmlns="http://www.w3.org/2000/svg" xmlns:xlink="http://www.w3.org/1999/xlink" width="22.526" height="26.21" viewBox="0 0 22.526 26.21">
  <defs>
    <clipPath id="clip-path">
      <rect id="Rectangle_605" data-name="Rectangle 605" width="22.526" height="26.21" fill="none"/>
    </clipPath>
  </defs>
  <g id="Group_1055" data-name="Group 1055" clip-path="url(#clip-path)">
    <path id="Path_990" data-name="Path 990" d="M0,0H11.294V26.21C5.009,26.21,0,21.016,0,15.381Z" fill="#ffbf00"/>
    <path id="Path_991" data-name="Path 991" d="M41.4,41.421c0,4.824-4.917,10.449-10.931,10.449V41.421Z" transform="translate(-18.878 -25.66)" fill="#b90017"/>
    <rect id="Rectangle_603" data-name="Rectangle 603" width="10.931" height="7.849" transform="translate(11.595 7.91)" fill="#fff"/>
    <rect id="Rectangle_604" data-name="Rectangle 604" width="10.931" height="7.9" transform="translate(11.595)" fill="#b90017"/>
    <path id="Path_992" data-name="Path 992" d="M20.079,35.091c-.122.173-.151.39.266.428-.1-.137-.2-.2-.112-.395-.122-.055.026-.111-.154-.034" transform="translate(-12.389 -21.715)" fill="#dc0916"/>
    <path id="Path_993" data-name="Path 993" d="M20.356,35.508,20.3,35.5c-.191-.018-.309-.074-.352-.168a.319.319,0,0,1,.066-.3l0-.006.041-.018a.221.221,0,0,1,.072-.025.032.032,0,0,1,.032.036c0,.008,0,.021.039.038l.025.011-.011.025a.232.232,0,0,0,.054.295c.018.022.037.046.055.073Zm-.3-.439a.273.273,0,0,0-.057.243c.03.064.114.107.245.128l-.015-.019a.283.283,0,0,1-.071-.328.093.093,0,0,1-.044-.049l-.03.013Z" transform="translate(-12.345 -21.67)" fill="#393535"/>
    <path id="Path_994" data-name="Path 994" d="M18.607,35.545c-.187.1-.233.394.121.617a.48.48,0,0,1,.155-.48c-.084-.1-.08-.125-.275-.137" transform="translate(-11.438 -22.02)" fill="#dc0916"/>
    <path id="Path_995" data-name="Path 995" d="M18.718,36.171l-.05-.032a.478.478,0,0,1-.277-.413.294.294,0,0,1,.158-.252l.007,0h.008c.182.011.2.032.273.119l.022.028.017.021-.021.017a.451.451,0,0,0-.145.455Zm-.15-.644a.24.24,0,0,0-.122.2.417.417,0,0,0,.2.332.484.484,0,0,1,.151-.427l-.006-.008c-.059-.075-.069-.088-.225-.1" transform="translate(-11.393 -21.974)" fill="#393535"/>
    <path id="Path_996" data-name="Path 996" d="M16.834,34.268c-.206-.047-.464.135-.342.536a.457.457,0,0,1,.411-.271c0-.134.071-.127-.069-.264" transform="translate(-10.197 -21.224)" fill="#dc0916"/>
    <path id="Path_997" data-name="Path 997" d="M16.439,34.825l-.018-.056a.5.5,0,0,1,.041-.446.329.329,0,0,1,.263-.132.313.313,0,0,1,.071.008l.008,0,.006.005c.1.1.106.134.089.2a.412.412,0,0,0-.012.081v.027h-.027c-.2,0-.293.114-.387.259Zm.286-.58a.273.273,0,0,0-.218.11.414.414,0,0,0-.048.339.455.455,0,0,1,.375-.233.534.534,0,0,1,.011-.065c.011-.047.015-.064-.068-.146a.259.259,0,0,0-.051,0" transform="translate(-10.153 -21.18)" fill="#393535"/>
    <path id="Path_998" data-name="Path 998" d="M17.467,32.334c-.042-.207-.432-.575-.747-.3.165.025.165.034.248.234.124-.051.431.249.5.065" transform="translate(-10.358 -19.784)" fill="#dc0916"/>
    <path id="Path_999" data-name="Path 999" d="M17.283,32.378a.556.556,0,0,1-.207-.07.513.513,0,0,0-.175-.062.068.068,0,0,0-.023,0l-.025.01-.016-.038c-.076-.182-.076-.182-.222-.2l-.058-.009.045-.039a.4.4,0,0,1,.266-.105.6.6,0,0,1,.525.42l0,.008,0,.007a.11.11,0,0,1-.11.078m-.382-.186a.527.527,0,0,1,.2.067.527.527,0,0,0,.183.064.055.055,0,0,0,.056-.035.555.555,0,0,0-.47-.368.331.331,0,0,0-.182.055c.112.023.131.057.2.218H16.9" transform="translate(-10.257 -19.74)" fill="#393535"/>
    <path id="Path_1000" data-name="Path 1000" d="M17.948,29.953l.464.01c.064.277.092.57.434.72a1.621,1.621,0,0,0-.71,1.066c0,.109.225.541.1.444s-.326-.4-.444.2c-.165-.071-.17-.319-.641-.178-.041-.146.289-.253.227-.513-.315-.018-.371.475-.513.207-.048-.112-.027-.294-.316-.286-.16-.283.389-.1.621-.3-.3-.131-.564-.177-.473-.335.177-.05.57.1.365-.306-.148-.233.316-.069.533.4.361-.41.795-.87.355-1.135" transform="translate(-10.233 -18.556)" fill="#040405"/>
    <path id="Path_1001" data-name="Path 1001" d="M17.756,32.377l-.043-.018a.408.408,0,0,1-.127-.1c-.085-.086-.172-.173-.488-.078l-.037.011-.01-.038c-.023-.083.038-.15.1-.219a.338.338,0,0,0,.129-.265.38.38,0,0,0-.256.178c-.048.058-.089.109-.142.109h-.008c-.053-.005-.087-.059-.108-.1a.6.6,0,0,1-.026-.08c-.027-.1-.051-.186-.237-.186h-.04l-.011-.02a.157.157,0,0,1-.022-.153c.037-.07.141-.078.274-.089a.892.892,0,0,0,.322-.065l-.122-.048c-.168-.064-.29-.111-.32-.2A.14.14,0,0,1,16.6,30.9l.008-.013.015,0a.681.681,0,0,1,.182-.013c.085,0,.179,0,.2-.037.014-.023.018-.077-.045-.2-.033-.052-.041-.094-.023-.126a.068.068,0,0,1,.074-.034.877.877,0,0,1,.525.479l0-.005c.244-.276.521-.589.485-.817a.3.3,0,0,0-.164-.211l-.122-.073.636.013.006.029c.007.029.013.058.019.087a.712.712,0,0,0,.393.607l.072.032-.07.037a1.584,1.584,0,0,0-.69,1.033,1.056,1.056,0,0,0,.071.224c.065.172.086.232.046.262-.021.015-.048.012-.079-.013s-.041-.035-.063-.054c-.059-.054-.124-.114-.175-.1s-.1.08-.146.327Zm-.425-.311a.388.388,0,0,1,.308.142.532.532,0,0,0,.062.057c.045-.2.1-.306.186-.333s.179.05.25.114l.021.019c-.013-.04-.032-.091-.048-.131a.912.912,0,0,1-.075-.252,1.676,1.676,0,0,1,.667-1.063.809.809,0,0,1-.371-.628l-.012-.057L18,29.927a.33.33,0,0,1,.1.191c.041.263-.236.576-.5.879l-.081.093-.024-.053a.852.852,0,0,0-.486-.488h-.005a.44.44,0,0,0,.024.047c.067.133.08.221.043.28-.048.076-.16.075-.269.073a.824.824,0,0,0-.145.006.054.054,0,0,0,0,.04c.019.053.138.1.276.151.059.023.124.048.19.076l.056.025-.047.039a.755.755,0,0,1-.421.119c-.092.008-.2.016-.213.049-.006.012,0,.032.011.061a.274.274,0,0,1,.306.242.544.544,0,0,0,.021.068c.034.064.046.057.048.057s.056-.047.083-.081a.413.413,0,0,1,.349-.206l.028,0,.007.027a.386.386,0,0,1-.143.364.4.4,0,0,0-.081.107.8.8,0,0,1,.2-.03" transform="translate(-10.171 -18.489)" fill="#ffbf00"/>
    <path id="Path_1002" data-name="Path 1002" d="M25.765,36.079a.426.426,0,0,0,.136.6.567.567,0,0,1,.178-.5c-.084-.1-.119-.091-.314-.1" transform="translate(-15.916 -22.351)" fill="#dc0916"/>
    <path id="Path_1003" data-name="Path 1003" d="M25.89,36.7l-.051-.043a.451.451,0,0,1-.142-.637L25.705,36h.017l.067,0c.139.007.186.009.267.11l.019.023-.025.017a.541.541,0,0,0-.166.472Zm-.155-.637a.383.383,0,0,0,.091.509.586.586,0,0,1,.169-.438c-.054-.06-.086-.062-.209-.068l-.051,0" transform="translate(-15.871 -22.304)" fill="#393535"/>
    <path id="Path_1004" data-name="Path 1004" d="M23.711,37.075c-.187.1-.3.394.052.617-.023-.165-.063-.362.105-.5-.084-.1.038-.106-.157-.118" transform="translate(-14.578 -22.968)" fill="#dc0916"/>
    <path id="Path_1005" data-name="Path 1005" d="M23.754,37.7l-.05-.032a.422.422,0,0,1-.242-.369.356.356,0,0,1,.192-.3l.007,0h.008c.113.007.144.009.147.062a.108.108,0,0,0,.029.066l.017.021-.021.017c-.146.12-.122.285-.1.445Zm-.081-.644a.3.3,0,0,0-.156.245.342.342,0,0,0,.166.286.473.473,0,0,1,.1-.446.143.143,0,0,1-.025-.075h0a.692.692,0,0,0-.088-.009" transform="translate(-14.534 -22.922)" fill="#393535"/>
    <path id="Path_1006" data-name="Path 1006" d="M22.077,35.114a.384.384,0,0,0-.448.374.533.533,0,0,1,.5-.121c.045-.127.045-.08-.049-.253" transform="translate(-13.399 -21.753)" fill="#dc0916"/>
    <path id="Path_1007" data-name="Path 1007" d="M21.533,35.507l.009-.067a.409.409,0,0,1,.475-.4h.016l.008.014.042.075c.046.08.049.088.021.167l-.012.033-.01.028-.027-.012a.28.28,0,0,0-.113-.022.622.622,0,0,0-.356.141ZM22,35.1a.343.343,0,0,0-.393.285.642.642,0,0,1,.334-.113.344.344,0,0,1,.108.017l0-.006c.021-.057.021-.057-.016-.121L22,35.1" transform="translate(-13.339 -21.708)" fill="#393535"/>
    <path id="Path_1008" data-name="Path 1008" d="M22.928,32.789a.418.418,0,0,0-.577.021c.159.031.361.055.447.2.109-.079.107-.026.129-.22" transform="translate(-13.846 -20.247)" fill="#dc0916"/>
    <path id="Path_1009" data-name="Path 1009" d="M22.686,33l-.016-.025c-.072-.12-.238-.151-.384-.178l-.045-.008-.059-.011.047-.037a.523.523,0,0,1,.319-.132.518.518,0,0,1,.29.11l.013.009,0,.017c-.017.151-.021.166-.085.2a.6.6,0,0,0-.056.035Zm-.372-.255a.6.6,0,0,1,.387.177l.037-.022c.041-.024.043-.025.056-.146a.444.444,0,0,0-.245-.092.423.423,0,0,0-.235.083" transform="translate(-13.741 -20.202)" fill="#393535"/>
    <path id="Path_1010" data-name="Path 1010" d="M7.818,34.582c.051.188.172.473.511.431a.62.62,0,0,1-.221-.51c-.134-.01-.148-.055-.291.079" transform="translate(-4.843 -21.365)" fill="#dc0916"/>
    <path id="Path_1011" data-name="Path 1011" d="M8.214,35h0c-.231,0-.39-.153-.473-.456l0-.016.012-.011c.081-.076.127-.1.183-.1a.351.351,0,0,1,.06.007c.019,0,.042.006.069.009l.03,0,0,.029a.6.6,0,0,0,.21.484l.053.041L8.283,35a.541.541,0,0,1-.069,0M7.8,34.546c.076.264.215.4.414.4a.668.668,0,0,1-.184-.463l-.046-.006a.311.311,0,0,0-.051-.006c-.032,0-.064.012-.133.076" transform="translate(-4.793 -21.32)" fill="#393535"/>
    <path id="Path_1012" data-name="Path 1012" d="M6.3,35.109a.411.411,0,0,0,.411.449.525.525,0,0,1-.061-.506.338.338,0,0,0-.35.056" transform="translate(-3.902 -21.699)" fill="#dc0916"/>
    <path id="Path_1013" data-name="Path 1013" d="M6.726,35.546l-.067-.006a.439.439,0,0,1-.436-.475v-.016l.014-.009a.443.443,0,0,1,.232-.086.5.5,0,0,1,.14.027l.029.008-.011.028a.5.5,0,0,0,.056.478Zm-.447-.467a.377.377,0,0,0,.323.4.573.573,0,0,1-.037-.452.358.358,0,0,0-.1-.016.373.373,0,0,0-.189.07" transform="translate(-3.855 -21.654)" fill="#393535"/>
    <path id="Path_1014" data-name="Path 1014" d="M4.132,34a.451.451,0,0,0-.144.623.776.776,0,0,1,.442-.441c-.033-.13-.124-.091-.3-.182" transform="translate(-2.43 -21.061)" fill="#dc0916"/>
    <path id="Path_1015" data-name="Path 1015" d="M3.947,34.64l-.03-.061a.479.479,0,0,1,.154-.658l.013-.009.015.008a.813.813,0,0,0,.151.06c.075.024.135.042.16.14l.008.029-.029,0a.746.746,0,0,0-.421.422Zm.142-.663a.411.411,0,0,0-.147.521.836.836,0,0,1,.407-.39c-.019-.045-.053-.056-.115-.075a.9.9,0,0,1-.145-.056" transform="translate(-2.384 -21.009)" fill="#393535"/>
    <path id="Path_1016" data-name="Path 1016" d="M4.77,31.531c-.067-.183-.234-.323-.568-.253a.52.52,0,0,1,.269.428c.134,0,.168-.029.3-.175" transform="translate(-2.603 -19.365)" fill="#dc0916"/>
    <path id="Path_1017" data-name="Path 1017" d="M4.326,31.69l0-.03a.5.5,0,0,0-.257-.4l-.056-.036.065-.014a.841.841,0,0,1,.17-.019.427.427,0,0,1,.43.289l.006.016-.011.012c-.13.145-.17.183-.319.184Zm-.17-.44a.536.536,0,0,1,.228.384c.1,0,.129-.031.239-.153a.369.369,0,0,0-.372-.238.7.7,0,0,0-.1.007" transform="translate(-2.487 -19.321)" fill="#393535"/>
    <path id="Path_1018" data-name="Path 1018" d="M8.439,23.933a12.307,12.307,0,0,1,2.713-.257c.748-.078,1.029-.019,1.286.257.18-.129.433-.219.406-.587s-.29-.3-.755-.35l-2.238.028A.714.714,0,0,1,9.1,22.34c.037-.371.288-.44.592-.462a2.279,2.279,0,0,0,1-.28.342.342,0,0,1-.056.476.789.789,0,0,1-.783,0c-.333-.132-.568.064-.573.279a.483.483,0,0,0,.514.49s1.777-.048,2.591-.034c.787.013.949.9.153,1.331.037.267.18.6.364.645.212.049.606-.1.6.255-.072,1.086-.18,1.481-.643,1.915.018.412-.055.353-.2.463-.031-.256-.367-.247-.587-.238-.077.24-.038.42-.252.562,0,0-.182-.26-.42-.162.285-.179.257-.457.258-.707-.177.084-.353.289-.53.208.087-.224-.029-.312-.161-.39-.055-.382.29-.091.629-.112.059-.163-.1-.326-.378-.49.475-.068.224-.192.266-.293.233-.123.429.058.588.532,0,0,.427.113.49.028s.25-.773-.126-.909a7.416,7.416,0,0,0-1.273-.042c-.175-.053-.387-.236-.377-.755-1.07-.075-1.7.976-2.806,1a1.15,1.15,0,0,0,.039-.709H7.963c.087.524-.021.559-.083.713a5.534,5.534,0,0,1-1.818.286c-.57.027.156.691-.211.706-.162-.02-.328-.045-.419.043-.148.14-.386.3-.541.224s-.149-.291-.452-.322c-.1-.109-.134-.29-.405-.191-.015-.2,0-.382.313-.293.041-.229-.221-.315-.159-.44.547-.043.4-.226.42-.374.234-.054.375.054.349.446.984-.109.925-.632,1.006-.51.054.081.447.2,1.381-.231s.242-.771,1.1-1.064" transform="translate(-2.496 -13.38)" fill="#040405"/>
    <path id="Path_1019" data-name="Path 1019" d="M11.752,27.7l-.021-.03c-.007-.01-.168-.233-.374-.149l-.035-.068a.612.612,0,0,0,.24-.609v0c-.033.019-.066.042-.1.064-.131.089-.266.181-.41.115l-.032-.015.013-.033c.075-.2-.017-.268-.145-.344l-.016-.009,0-.018c-.015-.105,0-.172.04-.209.063-.057.164-.03.293,0a1.2,1.2,0,0,0,.3.051h.008c.024-.121-.1-.259-.368-.42l-.092-.055.106-.015c.2-.029.248-.065.259-.085s0-.035-.01-.067a.153.153,0,0,1-.012-.119l.005-.013.012-.006a.3.3,0,0,1,.258-.021c.145.059.269.24.377.555a.8.8,0,0,0,.43.037,1.046,1.046,0,0,0,.072-.647.291.291,0,0,0-.18-.2,2.383,2.383,0,0,0-.841-.039,1.559,1.559,0,0,1-.431,0c-.152-.046-.4-.206-.4-.756l-.072,0a2.537,2.537,0,0,0-1.3.485,2.83,2.83,0,0,1-1.394.522H7.864l.022-.054a.9.9,0,0,0,.035-.1c-.01.021-.02.04-.03.058s-.026.049-.038.077l0,.011-.01.007A4.779,4.779,0,0,1,6,25.889c-.091,0-.15.027-.175.065-.042.065.006.189.049.3s.086.218.041.287a.147.147,0,0,1-.126.057l-.031,0c-.142-.019-.29-.037-.363.035-.173.164-.415.31-.584.231a.4.4,0,0,1-.146-.138.362.362,0,0,0-.293-.181l-.015,0-.01-.011a.772.772,0,0,1-.057-.076.212.212,0,0,0-.307-.1l-.047.018,0-.05c-.009-.117-.011-.248.071-.315a.28.28,0,0,1,.246-.029.32.32,0,0,0-.1-.2c-.051-.062-.1-.127-.064-.206l.01-.019.022,0c.4-.032.393-.129.385-.242a.451.451,0,0,1,0-.1l0-.025.025-.006a.313.313,0,0,1,.285.044.479.479,0,0,1,.113.4c.64-.082.8-.342.868-.454.024-.04.041-.068.075-.068h0a.069.069,0,0,1,.054.035c.03.046.387.191,1.333-.245.46-.212.511-.393.561-.568s.1-.347.538-.5a6.478,6.478,0,0,1,1.9-.222c.3-.006.582-.011.824-.037.732-.076,1.033-.022,1.295.245l.065-.042a.482.482,0,0,0,.3-.492c-.02-.268-.166-.277-.485-.3-.072,0-.15-.01-.236-.018l-2.234.028H9.767a.835.835,0,0,1-.59-.263A.593.593,0,0,1,9,22.248c.041-.419.345-.476.627-.5a2.267,2.267,0,0,0,.979-.274l.034-.022.019.036a.38.38,0,0,1-.064.522.828.828,0,0,1-.822.006.414.414,0,0,0-.39.015.287.287,0,0,0-.131.229.447.447,0,0,0,.478.451c.014,0,1.783-.05,2.59-.034a.673.673,0,0,1,.7.479.855.855,0,0,1-.5.91c.041.26.176.551.331.587a.854.854,0,0,0,.2.01.494.494,0,0,1,.361.078.267.267,0,0,1,.068.2c-.07,1.054-.173,1.485-.643,1.93.012.323-.035.366-.14.43a.668.668,0,0,0-.071.048l-.053.041-.009-.067c-.025-.2-.277-.215-.521-.205-.017.057-.027.11-.037.161a.514.514,0,0,1-.223.395Zm-.276-.272a.458.458,0,0,1,.293.168.456.456,0,0,0,.161-.326,1.9,1.9,0,0,1,.047-.2l.008-.025h.027c.19-.009.536-.022.613.212l.031-.019c.082-.049.116-.07.1-.379v-.018l.013-.012c.465-.435.561-.834.631-1.89a.2.2,0,0,0-.046-.147c-.061-.061-.185-.058-.306-.056a.922.922,0,0,1-.219-.012c-.2-.047-.353-.384-.393-.676l0-.026.023-.013a.779.779,0,0,0,.487-.838.6.6,0,0,0-.623-.422c-.8-.013-2.572.034-2.59.035a.519.519,0,0,1-.553-.529.362.362,0,0,1,.165-.291.489.489,0,0,1,.46-.022c.236.094.556.17.744.006a.29.29,0,0,0,.065-.393,2.393,2.393,0,0,1-.978.263c-.328.024-.525.1-.557.428a.52.52,0,0,0,.154.4.758.758,0,0,0,.535.239h.021l2.239-.028c.089.008.166.013.237.017.32.019.532.033.556.367a.555.555,0,0,1-.333.562c-.03.02-.061.039-.089.059l-.027.02-.023-.024c-.251-.269-.521-.323-1.254-.245-.245.025-.53.031-.831.037a6.411,6.411,0,0,0-1.874.218c-.4.137-.442.28-.489.446-.052.183-.111.389-.6.616-.936.431-1.333.317-1.418.23l-.011.018c-.077.125-.255.417-.97.5l-.045,0,0-.045c.013-.193-.016-.32-.084-.378a.22.22,0,0,0-.192-.033.513.513,0,0,0,0,.058c.011.158-.014.283-.43.321,0,.026.019.055.06.106a.364.364,0,0,1,.108.306l-.007.041-.041-.011c-.108-.031-.182-.029-.221,0a.254.254,0,0,0-.046.2.277.277,0,0,1,.347.148c.014.019.027.04.043.058a.44.44,0,0,1,.332.21.32.32,0,0,0,.117.114c.124.06.341-.066.5-.217.1-.1.265-.076.425-.056l.024,0a.085.085,0,0,0,.06-.023c.023-.036-.015-.132-.048-.217-.049-.126-.106-.269-.042-.367a.276.276,0,0,1,.235-.1,5.017,5.017,0,0,0,1.79-.273c.011-.027.024-.05.037-.074.055-.1.107-.2.039-.608l-.008-.044h.135L8,24.844a1.206,1.206,0,0,1-.021.677,2.868,2.868,0,0,0,1.3-.508,2.447,2.447,0,0,1,1.453-.492l.036,0v.036c-.01.53.215.677.35.718a1.58,1.58,0,0,0,.4,0,2.431,2.431,0,0,1,.872.043.363.363,0,0,1,.226.252,1.1,1.1,0,0,1-.083.715c-.071.1-.395.023-.53-.013l-.02-.005-.006-.019c-.1-.3-.215-.478-.34-.529a.215.215,0,0,0-.178.01.168.168,0,0,0,.014.052.146.146,0,0,1,.005.132c-.027.047-.093.08-.214.1.188.122.378.29.309.482l-.009.023-.025,0a1.112,1.112,0,0,1-.356-.052c-.1-.025-.191-.05-.223-.021-.013.012-.027.043-.017.124a.3.3,0,0,1,.175.39c.094.021.2-.047.3-.119a1.24,1.24,0,0,1,.162-.1l.055-.026v.126a.764.764,0,0,1-.163.584" transform="translate(-2.434 -13.292)" fill="#ffbf00"/>
    <path id="Path_1020" data-name="Path 1020" d="M4.626,27.367c-.153-.146-.46-.194-.561.213a.766.766,0,0,1,.449-.08c.073-.113.162.056.112-.133" transform="translate(-2.518 -16.888)" fill="#dc0916"/>
    <path id="Path_1021" data-name="Path 1021" d="M3.958,27.585l.014-.057c.073-.3.244-.339.339-.339a.4.4,0,0,1,.268.113l.006.005,0,.008c.019.071.02.1.006.116s-.023.019-.055.012a.117.117,0,0,0-.023,0c-.011,0-.027,0-.044.03l-.01.014-.017,0a.739.739,0,0,0-.433.077Zm.353-.341c-.123,0-.217.085-.269.241a.781.781,0,0,1,.393-.059.1.1,0,0,1,.08-.041.143.143,0,0,1,.031,0,.435.435,0,0,0-.011-.052.342.342,0,0,0-.224-.093" transform="translate(-2.452 -16.843)" fill="#393535"/>
    <path id="Path_1022" data-name="Path 1022" d="M2.972,25.158a.412.412,0,0,0-.377.6.478.478,0,0,1,.4-.306c-.01-.134.131-.177-.023-.3" transform="translate(-1.58 -15.584)" fill="#dc0916"/>
    <path id="Path_1023" data-name="Path 1023" d="M2.549,25.783l-.023-.054a.458.458,0,0,1,.023-.444.442.442,0,0,1,.35-.2l.033,0h.008l.006,0c.115.09.086.151.059.211a.2.2,0,0,0-.026.106l0,.027-.027,0a.451.451,0,0,0-.378.291ZM2.9,25.14a.391.391,0,0,0-.3.175.383.383,0,0,0-.039.337.484.484,0,0,1,.368-.265.292.292,0,0,1,.031-.106c.024-.053.037-.081-.037-.14H2.9" transform="translate(-1.536 -15.54)" fill="#393535"/>
    <path id="Path_1024" data-name="Path 1024" d="M3.761,23.073c-.019-.211-.272-.4-.615-.161a.458.458,0,0,1,.385.308c.129-.037.143.028.23-.147" transform="translate(-1.949 -14.125)" fill="#dc0916"/>
    <path id="Path_1025" data-name="Path 1025" d="M3.408,23.21,3.4,23.183c-.056-.191-.2-.244-.365-.289l-.057-.015.048-.034a.571.571,0,0,1,.322-.116.331.331,0,0,1,.336.3v.008l0,.007c-.064.128-.094.142-.166.148a.377.377,0,0,0-.081.014Zm-.3-.352a.455.455,0,0,1,.337.285.483.483,0,0,1,.065-.009c.048,0,.065-.005.118-.11a.273.273,0,0,0-.28-.24.473.473,0,0,0-.24.074" transform="translate(-1.845 -14.08)" fill="#393535"/>
    <path id="Path_1026" data-name="Path 1026" d="M6.367,22.815c.2-.073.348-.362.027-.631a.7.7,0,0,1-.3.533c.069.115.086.06.278.1" transform="translate(-3.772 -13.743)" fill="#dc0916"/>
    <path id="Path_1027" data-name="Path 1027" d="M6.308,22.747l-.008,0a.918.918,0,0,0-.139-.016A.152.152,0,0,1,6,22.635l-.014-.024.023-.014a.677.677,0,0,0,.292-.51v-.059l.045.038a.445.445,0,0,1,.192.409.358.358,0,0,1-.227.268Zm-.242-.118c.029.042.045.043.1.046a.972.972,0,0,1,.138.016.3.3,0,0,0,.185-.224.367.367,0,0,0-.132-.321.748.748,0,0,1-.29.483" transform="translate(-3.711 -13.647)" fill="#393535"/>
    <path id="Path_1028" data-name="Path 1028" d="M5.508,24.834c.053.176-.65.642-.787.527s-.16-.632-.989-.555c.427-.44-.122-.263.021-.485.359-.185-.006,0-.575-.2.234-.166.089-.358-.008-.524.119-.128.253-.068.432-.006.009-.226-.471-.3-.282-.469a.614.614,0,0,0,.488-.3c.186-.258.239.57.554-.009a.384.384,0,0,0,.463.241c.121.6-.6.374-.26.9s.89.7.943.884" transform="translate(-1.964 -14.103)" fill="#040405"/>
    <path id="Path_1029" data-name="Path 1029" d="M4.662,25.356a.132.132,0,0,1-.086-.027.462.462,0,0,1-.09-.134c-.1-.187-.252-.471-.871-.412l-.1.01.072-.074c.145-.149.159-.21.154-.234s-.029-.033-.067-.05-.084-.038-.1-.084A.135.135,0,0,1,3.6,24.24l.005-.008.009,0,.045-.023a1.9,1.9,0,0,1-.615-.111l-.068-.024.059-.042c.174-.123.115-.251.007-.431L3,23.528l.019-.021c.122-.131.256-.092.409-.038a.479.479,0,0,0-.161-.153c-.077-.054-.149-.1-.153-.175a.141.141,0,0,1,.057-.112l.017-.008.067-.016a.53.53,0,0,0,.4-.272.132.132,0,0,1,.1-.067h0c.062,0,.1.064.15.131s.082.122.124.122h0c.026,0,.082-.027.171-.19l.032-.06.034.059c.116.205.235.268.421.222l.038-.009.008.039a.432.432,0,0,1-.219.511c-.126.086-.2.138-.046.377a2.3,2.3,0,0,0,.666.63c.148.1.255.177.282.264.046.154-.282.379-.349.422a1,1,0,0,1-.413.172M3.771,24.7a.765.765,0,0,1,.782.46.437.437,0,0,0,.072.111c.038.031.205-.017.408-.151s.333-.285.317-.337-.121-.133-.252-.223a2.358,2.358,0,0,1-.687-.651c-.2-.3-.063-.393.067-.482a.35.35,0,0,0,.194-.395.4.4,0,0,1-.431-.211c-.07.115-.135.171-.2.174H4.034c-.083,0-.138-.082-.187-.155-.027-.041-.065-.1-.088-.1s-.026.014-.042.036a.6.6,0,0,1-.444.3l-.056.013a.066.066,0,0,0-.025.045c0,.033.063.076.121.117.093.066.21.148.2.274l0,.051-.086-.03c-.157-.056-.249-.083-.333-.011l.009.016c.084.139.2.325.027.488a1.881,1.881,0,0,0,.561.085c.076,0,.108,0,.117.039s-.01.049-.153.123c-.015.025-.013.037-.012.04s.033.026.056.037c.044.02.1.045.11.105S3.79,24.6,3.7,24.7l.068,0" transform="translate(-1.843 -14.042)" fill="#ffbf00"/>
    <path id="Path_1030" data-name="Path 1030" d="M8.7,28.261c-.761-.2-.72.5-1.519.622.185.109.08.247.651.217s.651-.615.868-.839" transform="translate(-4.449 -17.485)" fill="#040405"/>
    <path id="Path_1031" data-name="Path 1031" d="M7.508,29.081c-.3,0-.362-.066-.429-.14a.389.389,0,0,0-.1-.086L6.887,28.8l.106-.016a1.239,1.239,0,0,0,.7-.374.769.769,0,0,1,.834-.247l.063.016-.046.047a1.293,1.293,0,0,0-.169.261c-.138.253-.31.568-.724.589-.054,0-.1,0-.145,0m-.417-.237a.6.6,0,0,1,.044.046c.067.074.119.133.514.111.371-.02.525-.3.661-.55a1.785,1.785,0,0,1,.139-.228.686.686,0,0,0-.7.244,1.333,1.333,0,0,1-.654.376" transform="translate(-4.266 -17.424)" fill="#ffbf00"/>
    <path id="Path_1032" data-name="Path 1032" d="M10.813,28.31c.045.156.137.2-.079.592s-.3.449-.819.474c-.113.01-.2-.085-.128-.148.3-.17.354-1,1.026-.918" transform="translate(-6.048 -17.534)" fill="#040405"/>
    <path id="Path_1033" data-name="Path 1033" d="M9.835,29.352a.178.178,0,0,1-.164-.092.1.1,0,0,1,.027-.123.856.856,0,0,0,.257-.347c.151-.283.342-.635.8-.58l.024,0,.007.024a.7.7,0,0,0,.025.068c.05.13.073.226-.107.553-.225.409-.328.469-.85.493H9.835m.826-1.072c-.348,0-.5.289-.638.546a.888.888,0,0,1-.28.373.026.026,0,0,0,0,.03.112.112,0,0,0,.108.046c.519-.024.583-.079.789-.454.171-.312.142-.386.1-.488-.006-.016-.013-.033-.019-.05l-.061,0" transform="translate(-5.986 -17.472)" fill="#ffbf00"/>
    <path id="Path_1034" data-name="Path 1034" d="M13.229,27.449a.658.658,0,0,1-.336.957c-.2-.034-.153-.32-.052-.611.077-.21.32-.447.387-.346" transform="translate(-7.902 -16.99)" fill="#040405"/>
    <path id="Path_1035" data-name="Path 1035" d="M12.833,28.384l-.008,0a.184.184,0,0,1-.134-.089c-.062-.105-.045-.293.053-.573.062-.167.237-.379.363-.394a.1.1,0,0,1,.091.04l0,0a.822.822,0,0,1,.024.685.565.565,0,0,1-.383.326Zm.288-.982h0c-.078.009-.24.181-.3.344-.11.316-.093.451-.059.508a.107.107,0,0,0,.073.052.493.493,0,0,0,.325-.282.743.743,0,0,0-.021-.617.014.014,0,0,0-.013-.006" transform="translate(-7.839 -16.928)" fill="#ffbf00"/>
    <path id="Path_1036" data-name="Path 1036" d="M9.517,25.776a1.569,1.569,0,0,0-1.127-.285c-.395,0-.334-.521-.411-.473s-.211.115-.159.4c.01.185.211.261.413.276s.485.012.791.061.382.175.382.175Z" transform="translate(-4.837 -15.497)" fill="#dc0916"/>
    <path id="Path_1037" data-name="Path 1037" d="M9.375,25.933,9.36,25.91s-.08-.121-.369-.167a5.085,5.085,0,0,0-.589-.05c-.072,0-.14-.006-.2-.01-.264-.02-.421-.126-.43-.293-.051-.281.074-.358.156-.409l.011-.007a.038.038,0,0,1,.019-.006c.033,0,.043.042.06.111.033.136.088.364.338.364h.074a1.5,1.5,0,0,1,1.07.29l.011.011Zm-1.417-.928-.011.006c-.078.048-.186.115-.139.374.011.21.281.252.4.261.059,0,.127.007.2.01A5.088,5.088,0,0,1,9,25.707a.633.633,0,0,1,.379.163l.088-.121a1.581,1.581,0,0,0-1.1-.269h0c-.279,0-.341-.255-.374-.392a.361.361,0,0,0-.025-.083" transform="translate(-4.807 -15.467)" fill="#393535"/>
    <path id="Path_1038" data-name="Path 1038" d="M10.858,22.953c.164.12-.042.427.14.558.2.143.742,1.076.07,1.242-.078-.307-.3-.829-.419-.809s.232.365-.209.726a1.4,1.4,0,0,1-1.228.07c-.1-.029-.129-.365-.028-.488.032.333.759.245.851.1.067-.107.09-.353-.126-.363,0,0-.363-.038-.516-.042a.336.336,0,0,0-.223.1c-.265-.323-.386-.868-.293-.963a.674.674,0,0,1,.545-.056c.1.128-.111.257-.028.363.232.135.5.275.67.14s-.268-.384-.461-.558c.268-.1.4.04.614.056s.471-.194.642-.07" transform="translate(-5.479 -14.195)" fill="#040405"/>
    <path id="Path_1039" data-name="Path 1039" d="M9.793,24.831a2.121,2.121,0,0,1-.622-.108l-.031-.01a.162.162,0,0,1-.1-.119.528.528,0,0,1,.049-.43l.059-.072.008.092c.008.088.075.147.2.176a.738.738,0,0,0,.581-.1.275.275,0,0,0,.022-.24.125.125,0,0,0-.117-.065c-.006,0-.366-.037-.516-.042H9.325a.306.306,0,0,0-.189.086l-.03.03L9.079,24c-.271-.331-.406-.9-.29-1.014a.7.7,0,0,1,.584-.065l.01,0,.007.009a.209.209,0,0,1-.008.238c-.03.061-.041.092-.024.12.224.129.473.256.62.138A.047.047,0,0,0,10,23.394c0-.081-.183-.222-.315-.325-.063-.048-.122-.094-.169-.137l-.047-.042.059-.021a.6.6,0,0,1,.433.009.846.846,0,0,0,.2.044.727.727,0,0,0,.261-.054c.139-.046.283-.094.4-.009.1.071.088.193.08.3s-.016.2.06.258a1.283,1.283,0,0,1,.4.976.422.422,0,0,1-.345.334l-.037.01-.009-.037a1.652,1.652,0,0,0-.373-.781h0s.01.04.018.068a.553.553,0,0,1-.21.649.931.931,0,0,1-.609.195m-.678-.543a.534.534,0,0,0,0,.282c.014.046.033.066.044.069l.033.01a1.217,1.217,0,0,0,1.16-.073.481.481,0,0,0,.184-.571c-.016-.058-.027-.1-.005-.133a.068.068,0,0,1,.049-.03h.013c.177,0,.383.607.439.8a.338.338,0,0,0,.253-.265,1.227,1.227,0,0,0-.372-.9c-.11-.08-.1-.21-.091-.325s.015-.187-.048-.233c-.086-.063-.205-.023-.332.019a.769.769,0,0,1-.29.057.894.894,0,0,1-.215-.047.538.538,0,0,0-.32-.03c.034.028.072.058.112.088.169.131.344.267.345.384a.122.122,0,0,1-.05.1c-.186.149-.465.008-.713-.136l-.011-.01c-.054-.069-.018-.144.011-.205s.049-.106.023-.149a.639.639,0,0,0-.493.05,1.219,1.219,0,0,0,.271.882.355.355,0,0,1,.212-.081h.008c.153,0,.5.04.519.041a.2.2,0,0,1,.179.105.345.345,0,0,1-.025.316.784.784,0,0,1-.662.129.341.341,0,0,1-.229-.147" transform="translate(-5.418 -14.132)" fill="#ffbf00"/>
    <path id="Path_1040" data-name="Path 1040" d="M10.985,23.8a.122.122,0,0,1-.244,0h0a.122.122,0,0,1,.244,0Z" transform="translate(-6.654 -14.668)" fill="#dc0916"/>
    <path id="Path_1041" data-name="Path 1041" d="M10.82,23.9a.15.15,0,1,1,.149-.15.148.148,0,0,1-.149.15Zm0-.245a.092.092,0,0,0-.067.028.095.095,0,0,0,.067.162v0a.093.093,0,0,0,.066-.028.095.095,0,0,0-.067-.162" transform="translate(-6.61 -14.623)" fill="#040405"/>
    <path id="Path_1042" data-name="Path 1042" d="M20.079,53.319c-.122.173-.151.39.266.428-.1-.137-.2-.2-.112-.395-.122-.055.026-.111-.154-.034" transform="translate(-12.389 -33.007)" fill="#dc0916"/>
    <path id="Path_1043" data-name="Path 1043" d="M20.356,53.736,20.3,53.73c-.191-.018-.309-.074-.352-.168a.319.319,0,0,1,.066-.3l0-.006.041-.018a.221.221,0,0,1,.072-.025.032.032,0,0,1,.032.036c0,.008,0,.021.039.038l.025.011-.011.025a.232.232,0,0,0,.054.295c.018.022.037.046.055.073Zm-.3-.439A.273.273,0,0,0,20,53.54c.03.064.114.107.245.128l-.015-.019a.283.283,0,0,1-.071-.328.093.093,0,0,1-.044-.049l-.03.013Z" transform="translate(-12.345 -32.962)" fill="#393535"/>
    <path id="Path_1044" data-name="Path 1044" d="M18.607,53.773c-.187.1-.233.394.121.617a.48.48,0,0,1,.155-.48c-.084-.1-.08-.125-.275-.137" transform="translate(-11.438 -33.312)" fill="#dc0916"/>
    <path id="Path_1045" data-name="Path 1045" d="M18.718,54.4l-.05-.032a.478.478,0,0,1-.277-.413.294.294,0,0,1,.158-.252l.007,0h.008c.182.011.2.032.273.119l.022.028.017.021-.021.017a.451.451,0,0,0-.145.455Zm-.15-.644a.24.24,0,0,0-.122.2.417.417,0,0,0,.2.332.484.484,0,0,1,.151-.427l-.006-.008c-.059-.075-.069-.088-.225-.1" transform="translate(-11.393 -33.267)" fill="#393535"/>
    <path id="Path_1046" data-name="Path 1046" d="M16.834,52.5c-.206-.047-.464.135-.342.536a.457.457,0,0,1,.411-.271c0-.134.071-.127-.069-.264" transform="translate(-10.197 -32.516)" fill="#dc0916"/>
    <path id="Path_1047" data-name="Path 1047" d="M16.439,53.052,16.421,53a.5.5,0,0,1,.041-.446.329.329,0,0,1,.263-.132.313.313,0,0,1,.071.008l.008,0,.006.005c.1.1.106.134.089.2a.413.413,0,0,0-.012.081v.027h-.027c-.2,0-.293.114-.387.259Zm.286-.58a.273.273,0,0,0-.218.11.414.414,0,0,0-.048.339.455.455,0,0,1,.375-.233.534.534,0,0,1,.011-.065c.011-.047.015-.064-.068-.147a.259.259,0,0,0-.051,0" transform="translate(-10.153 -32.472)" fill="#393535"/>
    <path id="Path_1048" data-name="Path 1048" d="M17.467,50.562c-.042-.207-.432-.575-.747-.3.165.025.165.034.248.234.124-.051.431.249.5.065" transform="translate(-10.358 -31.076)" fill="#dc0916"/>
    <path id="Path_1049" data-name="Path 1049" d="M17.283,50.605a.556.556,0,0,1-.207-.07.513.513,0,0,0-.175-.062.068.068,0,0,0-.023,0l-.025.01-.016-.038c-.076-.182-.076-.182-.222-.2l-.058-.009L16.6,50.2a.4.4,0,0,1,.266-.105.6.6,0,0,1,.525.42l0,.008,0,.007a.11.11,0,0,1-.11.078m-.382-.186a.527.527,0,0,1,.2.067.527.527,0,0,0,.183.064.055.055,0,0,0,.056-.035.555.555,0,0,0-.47-.368.332.332,0,0,0-.182.055c.112.023.131.057.2.218H16.9" transform="translate(-10.257 -31.031)" fill="#393535"/>
    <path id="Path_1050" data-name="Path 1050" d="M17.948,48.18l.464.01c.064.277.092.57.434.72a1.621,1.621,0,0,0-.71,1.066c0,.109.225.541.1.444s-.326-.4-.444.2c-.165-.071-.17-.319-.641-.178-.041-.146.289-.253.227-.513-.315-.018-.371.475-.513.207-.048-.112-.027-.294-.316-.286-.16-.283.389-.1.621-.3-.3-.131-.564-.177-.473-.335.177-.05.57.1.365-.306-.148-.233.316-.069.533.4.361-.41.795-.87.355-1.135" transform="translate(-10.233 -29.847)" fill="#040405"/>
    <path id="Path_1051" data-name="Path 1051" d="M17.756,50.6l-.043-.018a.408.408,0,0,1-.127-.1c-.085-.085-.172-.172-.488-.078l-.037.011-.01-.038c-.023-.083.038-.149.1-.219a.337.337,0,0,0,.129-.265.38.38,0,0,0-.256.178c-.05.061-.1.118-.15.109s-.088-.059-.109-.1a.6.6,0,0,1-.026-.08c-.027-.1-.051-.186-.237-.186h-.04l-.011-.02a.157.157,0,0,1-.022-.153c.037-.07.142-.078.274-.089a.909.909,0,0,0,.322-.065l-.122-.048c-.168-.064-.289-.111-.32-.2a.14.14,0,0,1,.016-.118l.008-.013.015,0A.677.677,0,0,1,16.8,49.1c.085,0,.179,0,.2-.037.014-.023.018-.076-.045-.2-.033-.052-.041-.095-.023-.126a.072.072,0,0,1,.067-.034h.006a.877.877,0,0,1,.525.479l0,0c.244-.276.521-.59.486-.818a.3.3,0,0,0-.164-.211l-.122-.073.636.013.006.029c.007.029.013.058.019.087a.714.714,0,0,0,.393.607l.072.032-.07.037a1.582,1.582,0,0,0-.69,1.032,1.056,1.056,0,0,0,.071.224c.065.172.086.232.046.262-.021.015-.048.012-.079-.013s-.041-.035-.063-.054c-.059-.054-.124-.115-.175-.1s-.1.08-.146.327Zm-.425-.311a.388.388,0,0,1,.308.142.532.532,0,0,0,.062.057c.045-.2.1-.306.186-.333s.179.05.25.114l.021.019c-.013-.04-.032-.091-.048-.131a.912.912,0,0,1-.075-.252,1.675,1.675,0,0,1,.667-1.062.811.811,0,0,1-.371-.629l-.012-.057L18,48.154a.33.33,0,0,1,.1.192c.041.263-.236.577-.5.88l-.08.091-.024-.053a.85.85,0,0,0-.486-.488h-.005a.486.486,0,0,0,.024.047c.067.133.08.221.043.28-.048.076-.159.075-.27.073a.831.831,0,0,0-.145.006.054.054,0,0,0,0,.04c.019.053.138.1.275.151.06.023.124.048.191.076l.056.025-.047.039a.761.761,0,0,1-.421.119c-.092.007-.2.016-.213.049-.006.012,0,.032.011.061a.274.274,0,0,1,.306.242.544.544,0,0,0,.021.068c.029.054.046.057.047.057h0c.018,0,.056-.047.083-.081a.414.414,0,0,1,.349-.206l.028,0,.007.027a.386.386,0,0,1-.143.364.4.4,0,0,0-.081.107.8.8,0,0,1,.2-.03" transform="translate(-10.171 -29.781)" fill="#ffbf00"/>
    <path id="Path_1052" data-name="Path 1052" d="M25.765,54.306a.426.426,0,0,0,.136.6.567.567,0,0,1,.178-.5c-.084-.1-.119-.091-.314-.1" transform="translate(-15.916 -33.642)" fill="#dc0916"/>
    <path id="Path_1053" data-name="Path 1053" d="M25.89,54.926l-.051-.043a.451.451,0,0,1-.142-.637l.008-.014h.017l.067,0c.139.007.186.009.267.11l.019.023-.025.017a.541.541,0,0,0-.166.472Zm-.155-.637a.383.383,0,0,0,.091.509.586.586,0,0,1,.169-.438c-.054-.06-.086-.062-.209-.068l-.051,0" transform="translate(-15.871 -33.596)" fill="#393535"/>
    <path id="Path_1054" data-name="Path 1054" d="M23.711,55.3c-.187.1-.3.394.052.617-.023-.165-.063-.362.105-.5-.084-.1.038-.106-.157-.118" transform="translate(-14.578 -34.26)" fill="#dc0916"/>
    <path id="Path_1055" data-name="Path 1055" d="M23.754,55.929,23.7,55.9a.422.422,0,0,1-.242-.369.356.356,0,0,1,.192-.3l.007,0h.008c.113.007.144.009.147.062a.108.108,0,0,0,.029.066l.017.021-.021.017c-.146.12-.122.285-.1.445Zm-.081-.644a.3.3,0,0,0-.156.245.342.342,0,0,0,.166.286.473.473,0,0,1,.1-.446.143.143,0,0,1-.025-.075h0a.694.694,0,0,0-.088-.009" transform="translate(-14.534 -34.214)" fill="#393535"/>
    <path id="Path_1056" data-name="Path 1056" d="M22.077,53.342a.384.384,0,0,0-.448.374.533.533,0,0,1,.5-.121c.045-.127.045-.08-.049-.253" transform="translate(-13.399 -33.045)" fill="#dc0916"/>
    <path id="Path_1057" data-name="Path 1057" d="M21.533,53.735l.009-.067a.409.409,0,0,1,.475-.4h.016l.008.014.042.075c.046.08.049.088.021.167l-.012.033-.01.028-.027-.012a.281.281,0,0,0-.113-.022.622.622,0,0,0-.356.141ZM22,53.325a.343.343,0,0,0-.393.285.642.642,0,0,1,.334-.113.344.344,0,0,1,.108.017l0-.006c.021-.057.021-.057-.016-.121L22,53.325" transform="translate(-13.339 -33)" fill="#393535"/>
    <path id="Path_1058" data-name="Path 1058" d="M22.928,51.016a.418.418,0,0,0-.577.021c.159.031.361.055.447.2.109-.079.107-.026.129-.22" transform="translate(-13.846 -31.538)" fill="#dc0916"/>
    <path id="Path_1059" data-name="Path 1059" d="M22.686,51.232l-.016-.025c-.072-.12-.238-.151-.384-.178l-.045-.008-.059-.011.047-.037a.523.523,0,0,1,.319-.132.518.518,0,0,1,.29.11l.013.009,0,.017c-.017.151-.021.166-.085.2a.6.6,0,0,0-.056.035Zm-.372-.255a.6.6,0,0,1,.387.177l.037-.022c.041-.024.043-.025.056-.146a.444.444,0,0,0-.245-.092.423.423,0,0,0-.235.083" transform="translate(-13.741 -31.494)" fill="#393535"/>
    <path id="Path_1060" data-name="Path 1060" d="M7.818,52.81c.051.188.172.473.511.431a.62.62,0,0,1-.221-.51c-.134-.01-.148-.055-.291.079" transform="translate(-4.843 -32.657)" fill="#dc0916"/>
    <path id="Path_1061" data-name="Path 1061" d="M8.214,53.228h0c-.231,0-.39-.153-.473-.456l0-.016.012-.011c.081-.076.127-.1.183-.1a.352.352,0,0,1,.06.007c.019,0,.042.006.069.009l.03,0,0,.029a.6.6,0,0,0,.21.484l.053.041-.067.008a.541.541,0,0,1-.069,0M7.8,52.774c.076.264.215.4.414.4a.668.668,0,0,1-.184-.463L7.982,52.7a.311.311,0,0,0-.051-.006c-.032,0-.064.012-.133.076" transform="translate(-4.793 -32.612)" fill="#393535"/>
    <path id="Path_1062" data-name="Path 1062" d="M6.3,53.337a.411.411,0,0,0,.411.449.525.525,0,0,1-.061-.506.338.338,0,0,0-.35.056" transform="translate(-3.902 -32.991)" fill="#dc0916"/>
    <path id="Path_1063" data-name="Path 1063" d="M6.726,53.774l-.067-.006a.439.439,0,0,1-.436-.475v-.016l.014-.009a.443.443,0,0,1,.232-.086.5.5,0,0,1,.14.027l.029.008-.011.028a.5.5,0,0,0,.056.478Zm-.447-.467a.377.377,0,0,0,.323.4.573.573,0,0,1-.037-.452.358.358,0,0,0-.1-.016.373.373,0,0,0-.189.07" transform="translate(-3.855 -32.946)" fill="#393535"/>
    <path id="Path_1064" data-name="Path 1064" d="M4.132,52.225a.451.451,0,0,0-.144.623.776.776,0,0,1,.442-.441c-.033-.13-.124-.091-.3-.182" transform="translate(-2.43 -32.353)" fill="#dc0916"/>
    <path id="Path_1065" data-name="Path 1065" d="M3.947,52.868l-.03-.061a.479.479,0,0,1,.154-.658l.013-.009.015.008a.813.813,0,0,0,.151.06c.075.024.135.042.16.14l.008.029-.029,0a.746.746,0,0,0-.421.422Zm.142-.663a.411.411,0,0,0-.147.521.836.836,0,0,1,.407-.39c-.019-.045-.053-.056-.115-.075a.9.9,0,0,1-.145-.056" transform="translate(-2.384 -32.301)" fill="#393535"/>
    <path id="Path_1066" data-name="Path 1066" d="M4.77,49.759c-.067-.183-.234-.323-.568-.253a.52.52,0,0,1,.269.428c.134,0,.168-.029.3-.175" transform="translate(-2.603 -30.657)" fill="#dc0916"/>
    <path id="Path_1067" data-name="Path 1067" d="M4.326,49.918l0-.03a.5.5,0,0,0-.257-.4l-.056-.036.065-.014a.841.841,0,0,1,.17-.019.427.427,0,0,1,.43.289l.006.016-.011.012c-.13.145-.17.183-.319.184Zm-.17-.44a.536.536,0,0,1,.228.384c.1,0,.129-.031.239-.153a.369.369,0,0,0-.372-.238.7.7,0,0,0-.1.007" transform="translate(-2.487 -30.613)" fill="#393535"/>
    <path id="Path_1068" data-name="Path 1068" d="M8.439,42.16a12.306,12.306,0,0,1,2.713-.257c.748-.078,1.029-.019,1.286.257.18-.129.433-.219.406-.587s-.29-.3-.755-.35l-2.238.028a.714.714,0,0,1-.749-.684c.037-.371.288-.44.592-.462a2.279,2.279,0,0,0,1-.28.342.342,0,0,1-.056.476.789.789,0,0,1-.783,0c-.333-.132-.568.064-.573.279a.483.483,0,0,0,.514.49s1.777-.048,2.591-.034c.787.013.949.9.153,1.331.037.267.18.6.364.645.212.049.606-.1.6.255-.072,1.086-.18,1.481-.643,1.915.018.412-.055.353-.2.463-.031-.256-.367-.247-.587-.238-.077.24-.038.42-.252.562,0,0-.182-.26-.42-.162.285-.179.257-.457.258-.707-.177.084-.353.289-.53.208.087-.224-.029-.312-.161-.39-.055-.382.29-.091.629-.112.059-.163-.1-.326-.378-.49.475-.068.224-.192.266-.293.233-.123.429.058.588.532,0,0,.427.113.49.028s.25-.773-.126-.909a7.416,7.416,0,0,0-1.273-.042c-.175-.053-.387-.236-.377-.755-1.07-.075-1.7.976-2.806,1a1.15,1.15,0,0,0,.039-.709H7.963c.087.524-.021.559-.083.713a5.534,5.534,0,0,1-1.818.286c-.57.027.156.691-.211.706-.162-.02-.328-.045-.419.043-.148.14-.386.3-.541.224s-.149-.291-.452-.322c-.1-.109-.134-.29-.405-.191-.015-.2,0-.382.313-.293.041-.229-.221-.315-.159-.441.547-.043.4-.226.42-.374.234-.054.375.054.349.446.984-.109.925-.632,1.006-.51.054.081.447.2,1.381-.231s.242-.771,1.1-1.064" transform="translate(-2.496 -24.671)" fill="#040405"/>
    <path id="Path_1069" data-name="Path 1069" d="M11.752,45.932l-.021-.03c-.007-.01-.168-.233-.374-.149l-.035-.068a.612.612,0,0,0,.24-.608v0c-.033.019-.066.042-.1.064-.131.089-.266.18-.41.115l-.032-.015.013-.033c.075-.2-.017-.268-.145-.344l-.016-.009,0-.018c-.015-.105,0-.172.04-.209.063-.057.164-.03.293,0a1.2,1.2,0,0,0,.3.051h.008c.024-.121-.1-.259-.368-.42l-.092-.055.106-.015c.2-.029.248-.065.259-.085s0-.035-.01-.067a.154.154,0,0,1-.012-.119l.006-.013.012-.007a.3.3,0,0,1,.258-.021c.145.059.269.24.377.555a.8.8,0,0,0,.43.037,1.043,1.043,0,0,0,.072-.646.291.291,0,0,0-.18-.2,2.383,2.383,0,0,0-.841-.039,1.574,1.574,0,0,1-.431,0c-.152-.046-.4-.206-.4-.756l-.073,0a2.531,2.531,0,0,0-1.3.485,2.83,2.83,0,0,1-1.394.521H7.864l.022-.054a.9.9,0,0,0,.035-.1c-.01.021-.02.04-.03.058s-.026.049-.038.077l0,.011-.01.007A4.776,4.776,0,0,1,6,44.117c-.091,0-.15.027-.175.065-.042.065.006.189.049.3s.086.218.041.287a.147.147,0,0,1-.126.057l-.031,0c-.142-.019-.29-.037-.363.035-.173.164-.415.31-.584.231a.4.4,0,0,1-.146-.138.362.362,0,0,0-.293-.181l-.015,0-.01-.011a.773.773,0,0,1-.057-.076.212.212,0,0,0-.307-.1l-.047.018,0-.05c-.009-.117-.011-.248.071-.315a.28.28,0,0,1,.246-.029.32.32,0,0,0-.1-.2c-.051-.062-.1-.127-.064-.206l.01-.019.022,0c.4-.032.393-.129.385-.242a.451.451,0,0,1,0-.1l0-.025.025-.006a.312.312,0,0,1,.285.044.479.479,0,0,1,.113.4c.64-.082.8-.342.868-.454.024-.04.041-.068.075-.068h0a.069.069,0,0,1,.054.035c.031.046.387.191,1.333-.245.46-.212.511-.393.561-.567s.1-.347.538-.5a6.474,6.474,0,0,1,1.9-.222c.3-.006.581-.011.823-.036.732-.076,1.033-.022,1.295.245l.065-.043a.481.481,0,0,0,.3-.492c-.02-.268-.166-.277-.484-.3-.072,0-.151-.01-.237-.018L9.79,41.2a.822.822,0,0,1-.613-.263A.594.594,0,0,1,9,40.476c.041-.42.345-.476.627-.5a2.276,2.276,0,0,0,.979-.274l.034-.022.019.036a.38.38,0,0,1-.064.522c-.172.15-.456.152-.822.006a.414.414,0,0,0-.39.015.287.287,0,0,0-.131.229.447.447,0,0,0,.478.451c.014,0,1.783-.049,2.59-.034a.673.673,0,0,1,.7.479.855.855,0,0,1-.5.91c.041.26.176.551.331.587a.871.871,0,0,0,.2.01.487.487,0,0,1,.361.078.267.267,0,0,1,.068.2c-.07,1.054-.173,1.485-.643,1.93.012.323-.035.366-.14.43a.667.667,0,0,0-.071.048l-.053.041-.009-.067c-.025-.2-.277-.214-.521-.205-.016.057-.027.11-.037.161a.514.514,0,0,1-.223.395Zm-.276-.272a.458.458,0,0,1,.293.168.456.456,0,0,0,.161-.326,1.9,1.9,0,0,1,.047-.2l.008-.025h.027c.19-.01.536-.022.613.212l.031-.019c.082-.049.116-.07.1-.379v-.018l.013-.012c.465-.435.561-.834.631-1.89a.193.193,0,0,0-.046-.147c-.062-.061-.185-.059-.306-.056a.9.9,0,0,1-.219-.012c-.2-.047-.353-.384-.393-.676l0-.026.023-.013a.779.779,0,0,0,.487-.838.6.6,0,0,0-.623-.422c-.8-.013-2.572.034-2.59.035a.519.519,0,0,1-.553-.529.362.362,0,0,1,.165-.291.489.489,0,0,1,.46-.022c.236.094.556.17.744.006a.29.29,0,0,0,.065-.393,2.4,2.4,0,0,1-.978.264c-.328.024-.525.1-.557.428a.52.52,0,0,0,.154.4.757.757,0,0,0,.536.24h.02l2.239-.028c.089.008.167.013.238.018.32.019.531.033.556.366a.555.555,0,0,1-.333.562c-.03.019-.061.039-.089.059l-.027.02-.023-.024c-.25-.269-.519-.322-1.254-.245-.245.025-.529.031-.829.037a6.407,6.407,0,0,0-1.876.218c-.4.138-.442.281-.489.447-.052.182-.111.389-.6.616-.936.432-1.333.317-1.418.23l-.011.018c-.077.125-.255.417-.97.5l-.045,0,0-.045c.013-.193-.016-.32-.084-.378a.223.223,0,0,0-.192-.033.513.513,0,0,0,0,.058c.011.158-.014.283-.43.321,0,.026.019.055.06.106a.364.364,0,0,1,.108.306l-.007.041-.041-.011c-.108-.031-.182-.029-.221,0a.255.255,0,0,0-.046.2.278.278,0,0,1,.347.148c.014.019.027.04.043.058a.44.44,0,0,1,.332.21.32.32,0,0,0,.117.114c.124.059.341-.066.5-.217.1-.1.265-.076.425-.056l.024,0a.085.085,0,0,0,.06-.023c.023-.036-.015-.132-.048-.217-.049-.126-.106-.269-.042-.367a.276.276,0,0,1,.235-.1,4.581,4.581,0,0,0,1.79-.273c.011-.027.024-.05.037-.074.055-.1.107-.2.039-.608l-.008-.044h.135L8,43.072a1.206,1.206,0,0,1-.021.677,2.867,2.867,0,0,0,1.3-.508,2.467,2.467,0,0,1,1.453-.492l.036,0v.036c-.01.529.215.677.35.718a1.581,1.581,0,0,0,.4,0,2.43,2.43,0,0,1,.872.043.363.363,0,0,1,.227.253,1.1,1.1,0,0,1-.083.714c-.071.1-.395.023-.53-.014l-.02-.005-.006-.019c-.1-.3-.215-.478-.34-.529a.215.215,0,0,0-.178.01.168.168,0,0,0,.014.052.146.146,0,0,1,.005.132c-.027.047-.093.08-.214.1.188.122.378.29.309.482l-.009.023-.025,0a1.091,1.091,0,0,1-.356-.052c-.1-.026-.191-.049-.223-.021-.013.012-.027.043-.017.124a.3.3,0,0,1,.175.39c.094.021.2-.048.3-.119a1.263,1.263,0,0,1,.163-.1l.055-.025v.126a.763.763,0,0,1-.163.583" transform="translate(-2.434 -24.584)" fill="#ffbf00"/>
    <path id="Path_1070" data-name="Path 1070" d="M4.626,45.6c-.153-.146-.46-.194-.561.213a.766.766,0,0,1,.449-.08c.073-.113.162.056.112-.133" transform="translate(-2.518 -28.18)" fill="#dc0916"/>
    <path id="Path_1071" data-name="Path 1071" d="M3.958,45.813l.014-.057c.073-.3.244-.339.339-.339a.4.4,0,0,1,.268.113l.006.005,0,.008c.019.071.02.1.006.116s-.023.019-.055.012a.117.117,0,0,0-.023,0c-.011,0-.027,0-.044.03l-.01.014-.017,0a.739.739,0,0,0-.433.077Zm.353-.341c-.123,0-.217.085-.269.241a.781.781,0,0,1,.393-.059.1.1,0,0,1,.08-.041.143.143,0,0,1,.031,0,.435.435,0,0,0-.011-.052.342.342,0,0,0-.224-.093" transform="translate(-2.452 -28.135)" fill="#393535"/>
    <path id="Path_1072" data-name="Path 1072" d="M2.972,43.386a.412.412,0,0,0-.377.6.478.478,0,0,1,.4-.306c-.01-.134.131-.177-.023-.3" transform="translate(-1.58 -26.876)" fill="#dc0916"/>
    <path id="Path_1073" data-name="Path 1073" d="M2.549,44.01l-.023-.054a.458.458,0,0,1,.023-.444.442.442,0,0,1,.35-.2l.033,0h.008l.006,0c.115.09.086.151.059.211a.2.2,0,0,0-.026.106l0,.027-.027,0a.451.451,0,0,0-.378.291Zm.349-.643a.391.391,0,0,0-.3.175.383.383,0,0,0-.039.337.484.484,0,0,1,.368-.265.292.292,0,0,1,.031-.106c.024-.053.037-.081-.037-.14H2.9" transform="translate(-1.536 -26.831)" fill="#393535"/>
    <path id="Path_1074" data-name="Path 1074" d="M3.761,41.3c-.019-.211-.272-.4-.615-.161a.458.458,0,0,1,.385.308c.129-.037.143.028.23-.147" transform="translate(-1.949 -25.417)" fill="#dc0916"/>
    <path id="Path_1075" data-name="Path 1075" d="M3.408,41.437,3.4,41.41c-.056-.191-.2-.244-.365-.289l-.057-.015.048-.034a.571.571,0,0,1,.322-.116.331.331,0,0,1,.336.3v.008l0,.007c-.064.128-.094.142-.166.148a.375.375,0,0,0-.081.014Zm-.3-.352a.455.455,0,0,1,.337.285.481.481,0,0,1,.065-.009c.048,0,.065-.005.118-.11a.273.273,0,0,0-.28-.24.473.473,0,0,0-.24.074" transform="translate(-1.845 -25.372)" fill="#393535"/>
    <path id="Path_1076" data-name="Path 1076" d="M6.367,41.042c.2-.073.348-.362.027-.631a.7.7,0,0,1-.3.533c.069.115.086.06.278.1" transform="translate(-3.772 -25.034)" fill="#dc0916"/>
    <path id="Path_1077" data-name="Path 1077" d="M6.308,40.975l-.008,0a.918.918,0,0,0-.139-.016A.152.152,0,0,1,6,40.863l-.014-.024.023-.014a.677.677,0,0,0,.292-.51v-.059l.045.038a.445.445,0,0,1,.192.409.358.358,0,0,1-.227.268Zm-.242-.118c.029.042.045.043.1.046a.972.972,0,0,1,.138.016.3.3,0,0,0,.185-.224.367.367,0,0,0-.132-.321.748.748,0,0,1-.29.483" transform="translate(-3.711 -24.939)" fill="#393535"/>
    <path id="Path_1078" data-name="Path 1078" d="M5.508,43.062c.053.176-.65.642-.787.527s-.16-.632-.989-.555c.427-.44-.122-.263.021-.485.359-.185-.006,0-.575-.2.234-.166.089-.358-.008-.524.119-.128.253-.068.432-.006.009-.226-.471-.3-.282-.469a.614.614,0,0,0,.488-.3c.186-.258.239.57.554-.009a.384.384,0,0,0,.463.241c.121.6-.6.374-.26.9s.89.7.943.884" transform="translate(-1.964 -25.395)" fill="#040405"/>
    <path id="Path_1079" data-name="Path 1079" d="M4.662,43.583a.132.132,0,0,1-.086-.027.462.462,0,0,1-.09-.134c-.1-.187-.252-.469-.871-.412l-.1.01.072-.074c.145-.149.159-.21.154-.234s-.029-.033-.067-.05-.084-.038-.1-.084a.135.135,0,0,1,.027-.111l.005-.008.009,0,.045-.023a1.9,1.9,0,0,1-.615-.111L2.975,42.3l.059-.043c.174-.123.119-.245.007-.431L3,41.755l.019-.021c.122-.13.256-.092.409-.038a.479.479,0,0,0-.161-.153c-.077-.054-.149-.1-.153-.175a.141.141,0,0,1,.057-.112l.017-.008.067-.016a.529.529,0,0,0,.4-.271.132.132,0,0,1,.1-.067h0c.062,0,.1.064.15.131s.082.121.124.121h0c.026,0,.082-.027.171-.191l.032-.06.034.059c.117.205.235.269.421.223l.038-.009.008.038a.431.431,0,0,1-.219.51c-.126.086-.2.138-.046.377a2.3,2.3,0,0,0,.666.63c.148.1.255.177.282.264.046.154-.282.379-.349.422a1,1,0,0,1-.413.172m-.891-.657a.765.765,0,0,1,.781.46.426.426,0,0,0,.072.112c.038.03.205-.017.408-.151s.333-.285.317-.337-.121-.133-.252-.223a2.358,2.358,0,0,1-.687-.651c-.2-.3-.063-.393.067-.482a.35.35,0,0,0,.194-.395.4.4,0,0,1-.431-.211c-.07.115-.135.17-.2.173H4.034c-.083,0-.138-.082-.187-.155-.027-.041-.065-.1-.088-.1h0c-.01,0-.026.014-.042.036a.6.6,0,0,1-.443.3l-.056.013a.066.066,0,0,0-.025.045c0,.033.063.076.121.117.093.066.21.148.2.274l0,.051-.085-.03c-.158-.056-.25-.084-.334-.011l.01.016c.083.139.194.325.027.487a1.88,1.88,0,0,0,.561.085c.076,0,.108,0,.117.039s-.01.049-.153.123c-.015.025-.013.037-.012.04s.033.026.056.037c.044.02.1.045.11.105s-.023.129-.109.229l.068,0" transform="translate(-1.843 -25.333)" fill="#ffbf00"/>
    <path id="Path_1080" data-name="Path 1080" d="M8.7,46.489c-.761-.2-.72.5-1.519.622.185.109.08.247.651.217s.651-.615.868-.839" transform="translate(-4.449 -28.777)" fill="#040405"/>
    <path id="Path_1081" data-name="Path 1081" d="M7.507,47.308c-.3,0-.361-.066-.428-.141a.389.389,0,0,0-.1-.086l-.092-.054.105-.016a1.239,1.239,0,0,0,.7-.374.768.768,0,0,1,.834-.247l.063.016-.046.047a1.293,1.293,0,0,0-.169.261c-.138.253-.31.568-.724.589-.054,0-.1,0-.146,0m-.416-.238c.017.016.031.032.044.046.066.074.116.132.514.111.371-.02.525-.3.661-.55a1.785,1.785,0,0,1,.139-.228.686.686,0,0,0-.7.244,1.333,1.333,0,0,1-.654.376" transform="translate(-4.267 -28.715)" fill="#ffbf00"/>
    <path id="Path_1082" data-name="Path 1082" d="M10.813,46.538c.045.156.137.2-.079.592s-.3.449-.819.474c-.113.01-.2-.085-.128-.148.3-.17.354-1,1.026-.918" transform="translate(-6.048 -28.826)" fill="#040405"/>
    <path id="Path_1083" data-name="Path 1083" d="M9.835,47.581a.176.176,0,0,1-.164-.092.1.1,0,0,1,.027-.123.856.856,0,0,0,.257-.347c.151-.284.342-.634.8-.58l.024,0,.007.024a.7.7,0,0,0,.025.068c.05.13.073.226-.107.553-.225.409-.328.469-.85.493H9.835m.826-1.072c-.348,0-.5.289-.638.546a.888.888,0,0,1-.28.373.026.026,0,0,0,0,.03.112.112,0,0,0,.108.047c.519-.024.583-.08.789-.454.171-.312.142-.386.1-.488-.006-.016-.013-.033-.019-.05l-.061,0" transform="translate(-5.986 -28.764)" fill="#ffbf00"/>
    <path id="Path_1084" data-name="Path 1084" d="M13.229,45.677a.658.658,0,0,1-.336.957c-.2-.034-.153-.32-.052-.611.077-.21.32-.447.387-.346" transform="translate(-7.902 -28.282)" fill="#040405"/>
    <path id="Path_1085" data-name="Path 1085" d="M12.833,46.612l-.008,0a.184.184,0,0,1-.134-.089c-.062-.105-.045-.293.053-.573.062-.167.237-.379.363-.394a.093.093,0,0,1,.091.04l0,0a.822.822,0,0,1,.024.685.565.565,0,0,1-.383.326Zm.288-.982h0c-.078.009-.24.181-.3.344-.11.316-.093.451-.059.508a.107.107,0,0,0,.073.052.493.493,0,0,0,.325-.282.743.743,0,0,0-.021-.617.014.014,0,0,0-.013-.006" transform="translate(-7.839 -28.22)" fill="#ffbf00"/>
    <path id="Path_1086" data-name="Path 1086" d="M9.517,44a1.569,1.569,0,0,0-1.127-.285c-.395,0-.334-.521-.411-.473s-.211.115-.159.4c.01.185.211.261.413.276s.485.012.791.061.382.175.382.175Z" transform="translate(-4.837 -26.789)" fill="#dc0916"/>
    <path id="Path_1087" data-name="Path 1087" d="M9.375,44.161l-.014-.023s-.08-.121-.369-.167a5.084,5.084,0,0,0-.589-.05c-.072,0-.14-.006-.2-.01-.264-.02-.421-.126-.43-.293-.051-.281.074-.358.156-.409l.011-.007a.038.038,0,0,1,.019-.006c.033,0,.043.042.06.111.033.136.088.364.338.364h.074a1.5,1.5,0,0,1,1.07.29l.011.011Zm-1.417-.928-.011.006c-.078.048-.186.115-.139.374.011.21.281.252.4.261.059,0,.127.007.2.01A5.086,5.086,0,0,1,9,43.935a.633.633,0,0,1,.379.163l.088-.121a1.581,1.581,0,0,0-1.1-.269h0c-.279,0-.341-.255-.374-.392a.361.361,0,0,0-.025-.083" transform="translate(-4.807 -26.759)" fill="#393535"/>
    <path id="Path_1088" data-name="Path 1088" d="M10.858,41.181c.164.12-.042.427.14.558.2.143.742,1.076.07,1.242-.078-.307-.3-.829-.419-.809s.232.365-.209.726a1.4,1.4,0,0,1-1.228.07c-.1-.029-.129-.365-.028-.488.032.333.759.245.851.1.067-.107.09-.354-.126-.363,0,0-.363-.038-.516-.042a.336.336,0,0,0-.223.1c-.265-.323-.386-.868-.293-.963a.674.674,0,0,1,.545-.056c.1.128-.111.257-.028.363.232.135.5.275.67.14s-.268-.384-.461-.558c.268-.1.4.04.614.056s.471-.194.642-.07" transform="translate(-5.479 -25.487)" fill="#040405"/>
    <path id="Path_1089" data-name="Path 1089" d="M9.793,43.059a2.125,2.125,0,0,1-.623-.108l-.031-.01a.162.162,0,0,1-.1-.119.528.528,0,0,1,.049-.43l.059-.072.008.092c.008.088.075.147.2.176a.738.738,0,0,0,.581-.1.272.272,0,0,0,.022-.24.126.126,0,0,0-.118-.065c-.006,0-.365-.037-.516-.042a.306.306,0,0,0-.195.086l-.03.03-.027-.033c-.271-.331-.406-.9-.29-1.014a.7.7,0,0,1,.584-.065l.01,0,.007.009a.209.209,0,0,1-.008.238c-.03.061-.041.092-.024.12.224.129.473.256.62.138A.047.047,0,0,0,10,41.622c0-.081-.175-.216-.315-.324-.063-.049-.122-.1-.169-.138l-.047-.042.059-.021a.6.6,0,0,1,.433.009.846.846,0,0,0,.2.044.782.782,0,0,0,.261-.054c.139-.047.283-.094.4-.009.1.071.088.193.08.3s-.016.2.06.258a1.283,1.283,0,0,1,.4.976.422.422,0,0,1-.345.334l-.037.01-.009-.037a1.652,1.652,0,0,0-.373-.781h0s.01.04.018.068a.554.554,0,0,1-.21.65.93.93,0,0,1-.609.194m-.679-.543a.534.534,0,0,0,0,.282c.014.046.033.066.044.069l.034.01a1.219,1.219,0,0,0,1.16-.072.482.482,0,0,0,.184-.572c-.016-.058-.027-.1-.005-.133a.068.068,0,0,1,.049-.03h.013c.177,0,.383.607.439.8a.338.338,0,0,0,.253-.265,1.227,1.227,0,0,0-.372-.9c-.11-.08-.1-.21-.091-.325s.015-.188-.048-.233c-.087-.063-.206-.023-.332.019a.766.766,0,0,1-.29.057.894.894,0,0,1-.215-.047.541.541,0,0,0-.32-.03l.113.089c.169.13.343.266.344.383a.122.122,0,0,1-.05.1c-.186.149-.465.008-.713-.136l-.011-.01c-.054-.069-.018-.144.011-.205s.049-.106.023-.149a.639.639,0,0,0-.493.05,1.217,1.217,0,0,0,.271.881.355.355,0,0,1,.212-.081h.008c.153,0,.5.04.519.041a.2.2,0,0,1,.179.105.346.346,0,0,1-.025.316.784.784,0,0,1-.662.129.341.341,0,0,1-.229-.147" transform="translate(-5.418 -25.424)" fill="#ffbf00"/>
    <path id="Path_1090" data-name="Path 1090" d="M10.985,42.028a.122.122,0,1,1-.244,0h0a.122.122,0,1,1,.244,0Z" transform="translate(-6.654 -25.96)" fill="#dc0916"/>
    <path id="Path_1091" data-name="Path 1091" d="M10.82,42.132a.15.15,0,1,1,.149-.15.148.148,0,0,1-.149.15Zm0-.245a.092.092,0,0,0-.067.028.095.095,0,0,0,.067.162v0a.093.093,0,0,0,.066-.028.095.095,0,0,0-.067-.162" transform="translate(-6.61 -25.915)" fill="#040405"/>
    <path id="Path_1092" data-name="Path 1092" d="M20.079,15.834c-.122.173-.151.39.266.428-.1-.137-.2-.2-.112-.395-.122-.055.026-.111-.154-.034" transform="translate(-12.389 -9.785)" fill="#dc0916"/>
    <path id="Path_1093" data-name="Path 1093" d="M20.356,16.251l-.059-.005c-.191-.018-.309-.074-.352-.168a.319.319,0,0,1,.066-.3l0-.006.041-.018a.222.222,0,0,1,.072-.025.032.032,0,0,1,.032.036c0,.008,0,.021.039.038l.025.011-.011.025a.232.232,0,0,0,.054.295c.018.022.037.046.055.073Zm-.3-.439a.273.273,0,0,0-.057.243c.03.064.114.107.245.128l-.015-.019a.283.283,0,0,1-.071-.328.093.093,0,0,1-.044-.049l-.03.013Z" transform="translate(-12.345 -9.741)" fill="#393535"/>
    <path id="Path_1094" data-name="Path 1094" d="M18.607,16.287c-.187.1-.233.394.121.617a.48.48,0,0,1,.155-.48c-.084-.1-.08-.125-.275-.137" transform="translate(-11.438 -10.09)" fill="#dc0916"/>
    <path id="Path_1095" data-name="Path 1095" d="M18.718,16.914l-.05-.032a.478.478,0,0,1-.277-.413.294.294,0,0,1,.158-.252l.007,0h.008c.182.011.2.032.273.119l.022.028.017.021-.021.017a.451.451,0,0,0-.145.455Zm-.15-.644a.24.24,0,0,0-.122.2.418.418,0,0,0,.2.332.484.484,0,0,1,.151-.427l-.006-.008c-.059-.075-.069-.088-.225-.1" transform="translate(-11.393 -10.045)" fill="#393535"/>
    <path id="Path_1096" data-name="Path 1096" d="M16.834,15.011c-.206-.047-.464.135-.342.536a.457.457,0,0,1,.411-.271c0-.134.071-.127-.069-.264" transform="translate(-10.197 -9.295)" fill="#dc0916"/>
    <path id="Path_1097" data-name="Path 1097" d="M16.439,15.567l-.018-.056a.5.5,0,0,1,.041-.446.329.329,0,0,1,.263-.132.313.313,0,0,1,.071.008l.008,0,.006.005c.1.1.106.134.089.2a.412.412,0,0,0-.012.081v.027h-.027c-.2,0-.293.114-.387.259Zm.286-.58a.273.273,0,0,0-.218.11.414.414,0,0,0-.048.339.455.455,0,0,1,.375-.233.534.534,0,0,1,.011-.065c.011-.047.015-.064-.068-.146a.258.258,0,0,0-.051,0" transform="translate(-10.153 -9.25)" fill="#393535"/>
    <path id="Path_1098" data-name="Path 1098" d="M17.467,13.077c-.042-.207-.432-.575-.747-.3.165.025.165.034.248.234.124-.051.431.249.5.065" transform="translate(-10.358 -7.854)" fill="#dc0916"/>
    <path id="Path_1099" data-name="Path 1099" d="M17.283,13.12a.556.556,0,0,1-.207-.07.513.513,0,0,0-.175-.062.068.068,0,0,0-.023,0l-.025.01-.016-.038c-.076-.182-.076-.182-.222-.2l-.058-.009.045-.039a.4.4,0,0,1,.266-.105.6.6,0,0,1,.525.42l0,.008,0,.007a.11.11,0,0,1-.11.078m-.382-.186a.527.527,0,0,1,.2.067.527.527,0,0,0,.183.064.055.055,0,0,0,.056-.035.555.555,0,0,0-.47-.368.331.331,0,0,0-.182.055c.112.023.131.057.2.218H16.9" transform="translate(-10.257 -7.81)" fill="#393535"/>
    <path id="Path_1100" data-name="Path 1100" d="M17.948,10.695l.464.01c.064.277.092.57.434.72a1.621,1.621,0,0,0-.71,1.066c0,.109.225.541.1.444s-.326-.4-.444.2c-.165-.071-.17-.319-.641-.178-.041-.146.289-.253.227-.513-.315-.018-.371.475-.513.207-.048-.112-.027-.294-.316-.286-.16-.283.389-.1.621-.3-.3-.131-.564-.177-.473-.335.177-.05.57.1.365-.306-.148-.233.316-.069.533.4.361-.41.795-.87.355-1.135" transform="translate(-10.233 -6.625)" fill="#040405"/>
    <path id="Path_1101" data-name="Path 1101" d="M17.756,13.12l-.043-.019a.411.411,0,0,1-.127-.1c-.084-.086-.172-.174-.488-.078l-.037.011-.01-.037c-.023-.084.038-.15.1-.219a.339.339,0,0,0,.129-.266.384.384,0,0,0-.256.178c-.049.061-.1.117-.15.109s-.088-.059-.109-.1a.6.6,0,0,1-.026-.08c-.027-.1-.051-.186-.237-.186h-.04l-.011-.02a.157.157,0,0,1-.022-.153c.037-.069.142-.078.274-.089a.926.926,0,0,0,.322-.065L16.9,11.96c-.168-.065-.289-.111-.32-.2a.139.139,0,0,1,.016-.117l.008-.013.015,0a.649.649,0,0,1,.182-.013c.084,0,.179,0,.2-.038.014-.023.018-.076-.045-.2-.033-.053-.041-.095-.023-.126a.072.072,0,0,1,.068-.034h.006a.877.877,0,0,1,.525.48l0-.006c.244-.276.521-.589.485-.818a.3.3,0,0,0-.164-.211l-.122-.074.636.013.007.029c.006.029.013.058.019.087a.712.712,0,0,0,.393.607l.072.032-.07.037a1.582,1.582,0,0,0-.69,1.033,1.067,1.067,0,0,0,.071.223c.065.172.086.233.046.263-.021.016-.048.012-.079-.013s-.041-.035-.063-.055c-.059-.054-.124-.115-.175-.1s-.1.08-.146.328Zm-.424-.312a.386.386,0,0,1,.308.142.564.564,0,0,0,.062.057c.045-.2.1-.306.186-.333s.18.05.25.115l.021.019c-.013-.04-.033-.092-.048-.131a.913.913,0,0,1-.075-.252,1.674,1.674,0,0,1,.668-1.063.812.812,0,0,1-.372-.629l-.012-.057L18,10.669a.333.333,0,0,1,.1.192c.041.264-.236.576-.5.88l-.081.092L17.5,11.78a.85.85,0,0,0-.486-.488h-.005a.487.487,0,0,0,.024.047c.067.133.08.221.043.28-.048.077-.161.073-.27.073a.756.756,0,0,0-.144.006.053.053,0,0,0,0,.04c.019.053.138.1.275.151.06.023.125.048.191.077l.056.024-.047.039a.754.754,0,0,1-.421.119c-.092.008-.2.016-.213.049-.006.012,0,.033.011.061a.274.274,0,0,1,.306.242.565.565,0,0,0,.021.068c.029.053.046.057.047.057h0c.018,0,.056-.047.083-.081a.412.412,0,0,1,.349-.206l.028,0,.007.027a.386.386,0,0,1-.143.365.41.41,0,0,0-.081.107.829.829,0,0,1,.205-.03" transform="translate(-10.171 -6.559)" fill="#ffbf00"/>
    <path id="Path_1102" data-name="Path 1102" d="M25.765,16.821a.426.426,0,0,0,.136.6.567.567,0,0,1,.178-.5c-.084-.1-.119-.091-.314-.1" transform="translate(-15.916 -10.42)" fill="#dc0916"/>
    <path id="Path_1103" data-name="Path 1103" d="M25.89,17.441l-.051-.043a.451.451,0,0,1-.142-.637l.008-.014h.017l.067,0c.139.007.186.009.267.11l.019.023-.025.017a.541.541,0,0,0-.166.472Zm-.155-.637a.383.383,0,0,0,.091.509.586.586,0,0,1,.169-.438c-.054-.06-.086-.062-.209-.068l-.051,0" transform="translate(-15.871 -10.375)" fill="#393535"/>
    <path id="Path_1104" data-name="Path 1104" d="M23.711,17.817c-.187.1-.3.394.052.617-.023-.165-.063-.362.105-.5-.084-.1.038-.106-.157-.118" transform="translate(-14.578 -11.037)" fill="#dc0916"/>
    <path id="Path_1105" data-name="Path 1105" d="M23.754,18.444l-.05-.032a.422.422,0,0,1-.242-.369.356.356,0,0,1,.192-.3l.007,0h.008c.113.007.144.009.147.062a.108.108,0,0,0,.029.066l.017.021-.021.017c-.146.12-.122.285-.1.445Zm-.081-.644a.3.3,0,0,0-.156.245.342.342,0,0,0,.166.286.473.473,0,0,1,.1-.446.143.143,0,0,1-.025-.075h0a.692.692,0,0,0-.088-.009" transform="translate(-14.534 -10.992)" fill="#393535"/>
    <path id="Path_1106" data-name="Path 1106" d="M22.077,15.857a.384.384,0,0,0-.448.374.533.533,0,0,1,.5-.121c.045-.127.045-.08-.049-.253" transform="translate(-13.399 -9.823)" fill="#dc0916"/>
    <path id="Path_1107" data-name="Path 1107" d="M21.533,16.25l.009-.067a.409.409,0,0,1,.475-.4h.016l.008.014.042.075c.046.08.049.088.021.167l-.012.033-.01.028-.027-.012a.281.281,0,0,0-.113-.022.622.622,0,0,0-.356.141ZM22,15.84a.343.343,0,0,0-.393.285.642.642,0,0,1,.334-.113.344.344,0,0,1,.108.017l0-.006c.021-.057.021-.057-.016-.121L22,15.84" transform="translate(-13.339 -9.779)" fill="#393535"/>
    <path id="Path_1108" data-name="Path 1108" d="M22.928,13.531a.418.418,0,0,0-.577.021c.159.031.361.055.447.2.109-.079.107-.026.129-.22" transform="translate(-13.846 -8.317)" fill="#dc0916"/>
    <path id="Path_1109" data-name="Path 1109" d="M22.686,13.747l-.016-.025c-.072-.12-.238-.151-.384-.178l-.045-.008-.059-.011.047-.037a.523.523,0,0,1,.319-.132.518.518,0,0,1,.29.11l.013.009,0,.017c-.017.151-.021.166-.085.2a.6.6,0,0,0-.056.035Zm-.372-.255a.6.6,0,0,1,.387.177l.037-.022c.041-.024.043-.025.056-.146a.444.444,0,0,0-.245-.092.423.423,0,0,0-.235.083" transform="translate(-13.741 -8.273)" fill="#393535"/>
    <path id="Path_1110" data-name="Path 1110" d="M7.818,15.325c.051.188.172.473.511.431a.62.62,0,0,1-.221-.51c-.134-.01-.148-.055-.291.079" transform="translate(-4.843 -9.435)" fill="#dc0916"/>
    <path id="Path_1111" data-name="Path 1111" d="M8.214,15.743h0c-.231,0-.39-.153-.473-.456l0-.016.012-.011c.081-.076.127-.1.183-.1a.351.351,0,0,1,.06.007c.019,0,.042.006.069.009l.03,0,0,.029a.6.6,0,0,0,.21.484l.053.041-.067.008a.541.541,0,0,1-.069,0M7.8,15.289c.076.264.215.4.414.4a.668.668,0,0,1-.184-.463l-.046-.006a.311.311,0,0,0-.051-.006c-.032,0-.064.012-.133.076" transform="translate(-4.793 -9.39)" fill="#393535"/>
    <path id="Path_1112" data-name="Path 1112" d="M6.3,15.852a.411.411,0,0,0,.411.449.525.525,0,0,1-.061-.506.338.338,0,0,0-.35.056" transform="translate(-3.902 -9.769)" fill="#dc0916"/>
    <path id="Path_1113" data-name="Path 1113" d="M6.726,16.289l-.067-.006a.439.439,0,0,1-.436-.475v-.016l.014-.009a.443.443,0,0,1,.232-.086.5.5,0,0,1,.14.027l.029.008-.011.028a.5.5,0,0,0,.056.478Zm-.447-.467a.377.377,0,0,0,.323.4.573.573,0,0,1-.037-.452.357.357,0,0,0-.1-.016.373.373,0,0,0-.189.07" transform="translate(-3.855 -9.724)" fill="#393535"/>
    <path id="Path_1114" data-name="Path 1114" d="M4.132,14.74a.451.451,0,0,0-.144.623.776.776,0,0,1,.442-.441c-.033-.13-.124-.091-.3-.182" transform="translate(-2.43 -9.131)" fill="#dc0916"/>
    <path id="Path_1115" data-name="Path 1115" d="M3.947,15.383l-.03-.061a.479.479,0,0,1,.154-.658l.013-.009.015.008a.814.814,0,0,0,.151.06c.075.024.135.042.16.14l.008.029-.029,0a.746.746,0,0,0-.421.422Zm.142-.663a.411.411,0,0,0-.147.521.836.836,0,0,1,.407-.39c-.019-.045-.053-.056-.115-.075a.9.9,0,0,1-.145-.056" transform="translate(-2.384 -9.079)" fill="#393535"/>
    <path id="Path_1116" data-name="Path 1116" d="M4.77,12.274c-.067-.183-.234-.323-.568-.253a.52.52,0,0,1,.269.428c.134,0,.168-.029.3-.175" transform="translate(-2.603 -7.436)" fill="#dc0916"/>
    <path id="Path_1117" data-name="Path 1117" d="M4.326,12.433l0-.03a.5.5,0,0,0-.257-.4l-.056-.036.065-.014a.841.841,0,0,1,.17-.019.427.427,0,0,1,.43.289l.006.016-.011.012c-.13.145-.17.183-.319.184Zm-.17-.44a.536.536,0,0,1,.228.384c.1,0,.129-.031.239-.153a.369.369,0,0,0-.372-.238.7.7,0,0,0-.1.007" transform="translate(-2.487 -7.391)" fill="#393535"/>
    <path id="Path_1118" data-name="Path 1118" d="M8.439,4.675a12.306,12.306,0,0,1,2.713-.257c.748-.078,1.029-.019,1.286.257.18-.129.433-.219.406-.587s-.29-.3-.755-.35l-2.238.028A.714.714,0,0,1,9.1,3.082c.037-.371.288-.44.592-.462a2.279,2.279,0,0,0,1-.28.342.342,0,0,1-.056.476.789.789,0,0,1-.783,0c-.333-.132-.568.064-.573.279a.483.483,0,0,0,.514.49s1.777-.048,2.591-.034c.787.013.949.9.153,1.331.037.267.18.6.364.645.212.049.606-.1.6.255-.072,1.086-.18,1.481-.643,1.915.018.412-.055.353-.2.463-.031-.256-.367-.247-.587-.238-.077.24-.038.42-.252.562,0,0-.182-.26-.42-.162.285-.179.257-.457.258-.707-.177.084-.353.289-.53.208.087-.224-.029-.312-.161-.39-.055-.382.29-.091.629-.112.059-.163-.1-.326-.378-.49.475-.068.224-.192.266-.293.233-.123.429.058.588.532,0,0,.427.113.49.028s.25-.773-.126-.909a7.416,7.416,0,0,0-1.273-.042c-.175-.053-.387-.236-.377-.755-1.07-.075-1.7.976-2.806,1a1.15,1.15,0,0,0,.039-.709H7.963c.087.524-.021.559-.083.713a5.534,5.534,0,0,1-1.818.286c-.57.027.156.691-.211.706-.162-.02-.328-.045-.419.043-.148.14-.386.3-.541.224s-.149-.291-.452-.322c-.1-.109-.134-.29-.405-.191-.015-.2,0-.382.313-.293.041-.229-.221-.315-.159-.441.547-.043.4-.226.42-.374.234-.054.375.054.349.446.984-.109.925-.632,1.006-.51.054.081.447.2,1.381-.231s.242-.771,1.1-1.064" transform="translate(-2.496 -1.45)" fill="#040405"/>
    <path id="Path_1119" data-name="Path 1119" d="M11.752,8.446l-.021-.03c-.007-.01-.168-.233-.374-.149L11.322,8.2a.613.613,0,0,0,.24-.609v0c-.033.019-.066.042-.1.064-.131.089-.266.18-.41.115l-.032-.015.013-.033c.075-.2-.017-.268-.145-.344l-.016-.009,0-.018c-.015-.105,0-.172.04-.209.063-.057.164-.029.293,0a1.2,1.2,0,0,0,.3.051h.008c.024-.121-.1-.259-.368-.42l-.092-.055.106-.015c.2-.029.248-.065.259-.085s0-.035-.01-.066a.153.153,0,0,1-.012-.119l.005-.013.012-.007a.3.3,0,0,1,.258-.022c.145.059.269.24.377.555a.8.8,0,0,0,.43.037,1.043,1.043,0,0,0,.072-.646.291.291,0,0,0-.18-.2,2.383,2.383,0,0,0-.841-.039,1.559,1.559,0,0,1-.431,0c-.152-.046-.4-.206-.4-.755l-.072,0a2.537,2.537,0,0,0-1.3.485,2.83,2.83,0,0,1-1.394.522H7.864l.022-.054a.9.9,0,0,0,.036-.1c-.01.021-.02.04-.03.059s-.026.049-.038.077l0,.011-.01.007A4.79,4.79,0,0,1,6,6.632c-.091,0-.15.026-.175.065-.042.065.006.188.049.3s.086.218.041.287a.147.147,0,0,1-.126.057l-.028,0C5.619,7.317,5.47,7.3,5.4,7.37c-.172.164-.415.309-.584.231a.4.4,0,0,1-.146-.138.363.363,0,0,0-.293-.181l-.015,0-.01-.011a.772.772,0,0,1-.057-.076.212.212,0,0,0-.307-.1l-.047.018,0-.05c-.009-.117-.011-.248.071-.315a.28.28,0,0,1,.246-.029.32.32,0,0,0-.1-.2c-.051-.062-.1-.127-.064-.206l.01-.019.022,0c.4-.032.393-.129.385-.242a.451.451,0,0,1,0-.1l0-.025.025-.006a.312.312,0,0,1,.285.044.479.479,0,0,1,.113.4c.64-.081.8-.342.868-.454.024-.04.041-.068.075-.068h0a.069.069,0,0,1,.054.035c.03.046.387.191,1.333-.245.46-.212.511-.393.561-.567s.1-.347.538-.5a6.478,6.478,0,0,1,1.9-.222c.3-.006.581-.011.822-.037.732-.076,1.033-.022,1.295.245l.065-.042a.482.482,0,0,0,.3-.492c-.02-.268-.166-.277-.484-.3-.072,0-.151-.01-.237-.018L9.79,3.716H9.768a.838.838,0,0,1-.591-.263A.594.594,0,0,1,9,2.99c.041-.42.345-.476.627-.5a2.276,2.276,0,0,0,.979-.274l.034-.022.019.036a.38.38,0,0,1-.064.522c-.172.15-.456.152-.822.006a.419.419,0,0,0-.39.016.286.286,0,0,0-.131.229.447.447,0,0,0,.478.451c.014,0,1.783-.049,2.59-.034a.673.673,0,0,1,.7.48.854.854,0,0,1-.5.91c.042.26.181.552.331.587a.872.872,0,0,0,.2.01.5.5,0,0,1,.362.078.271.271,0,0,1,.068.2c-.07,1.054-.173,1.486-.643,1.93.012.323-.035.366-.14.43a.591.591,0,0,0-.071.048l-.053.041-.009-.067c-.025-.2-.277-.214-.521-.205-.016.057-.027.11-.037.161a.514.514,0,0,1-.223.395Zm-.276-.272a.459.459,0,0,1,.293.168.456.456,0,0,0,.161-.326,1.9,1.9,0,0,1,.047-.2l.008-.025h.027c.19-.009.536-.022.613.212l.031-.019c.082-.05.116-.07.1-.379V7.591l.013-.012c.465-.435.561-.833.631-1.89a.193.193,0,0,0-.046-.147.443.443,0,0,0-.306-.056.968.968,0,0,1-.219-.011c-.2-.047-.353-.384-.393-.677l0-.026.023-.013a.779.779,0,0,0,.487-.838.6.6,0,0,0-.623-.422c-.8-.013-2.572.034-2.59.035a.519.519,0,0,1-.553-.529.361.361,0,0,1,.165-.291.489.489,0,0,1,.46-.022c.236.094.556.17.744.006a.29.29,0,0,0,.065-.393,2.4,2.4,0,0,1-.978.264c-.328.024-.525.1-.557.428a.52.52,0,0,0,.154.4.758.758,0,0,0,.536.24h.02l2.239-.028c.089.008.167.013.237.018.32.019.532.033.556.366a.555.555,0,0,1-.333.562c-.03.02-.06.039-.088.059l-.027.02-.023-.024c-.251-.269-.521-.322-1.254-.245-.245.025-.529.031-.829.037a6.411,6.411,0,0,0-1.876.219c-.4.137-.442.28-.489.446-.052.182-.111.389-.6.616-.936.432-1.333.317-1.418.23l-.011.018c-.077.125-.255.417-.97.5l-.045,0,0-.045c.013-.193-.016-.32-.084-.378a.223.223,0,0,0-.192-.033.51.51,0,0,0,0,.058c.011.158-.014.283-.43.321,0,.026.019.055.06.106a.364.364,0,0,1,.108.306l-.007.041L4.274,6.8c-.108-.031-.182-.029-.221,0a.255.255,0,0,0-.046.2.278.278,0,0,1,.347.148c.014.019.027.04.043.058a.442.442,0,0,1,.332.21.32.32,0,0,0,.117.114c.124.061.341-.066.5-.217.1-.1.266-.076.429-.056l.021,0a.08.08,0,0,0,.059-.023c.023-.036-.014-.132-.048-.217-.049-.126-.106-.268-.042-.367A.276.276,0,0,1,6,6.556a4.6,4.6,0,0,0,1.79-.274c.011-.027.024-.05.037-.074.055-.1.107-.2.039-.608l-.008-.044h.135L8,5.586a1.206,1.206,0,0,1-.021.677,2.863,2.863,0,0,0,1.3-.508,2.449,2.449,0,0,1,1.453-.492l.036,0V5.3c-.01.529.215.677.35.718a1.581,1.581,0,0,0,.4,0,2.422,2.422,0,0,1,.872.043.363.363,0,0,1,.227.253,1.1,1.1,0,0,1-.083.714c-.071.1-.395.022-.53-.014l-.02-.005-.006-.019c-.1-.3-.215-.478-.34-.529a.217.217,0,0,0-.178.011.168.168,0,0,0,.014.051.146.146,0,0,1,.005.132c-.027.047-.093.08-.214.1.188.122.378.29.309.482l-.009.023-.025,0a1.117,1.117,0,0,1-.356-.053c-.1-.026-.191-.049-.223-.021-.013.012-.027.043-.017.124a.3.3,0,0,1,.175.39c.094.021.2-.048.3-.119a1.264,1.264,0,0,1,.163-.1l.055-.025V7.59a.763.763,0,0,1-.163.583" transform="translate(-2.434 -1.362)" fill="#ffbf00"/>
    <path id="Path_1120" data-name="Path 1120" d="M4.626,8.109c-.153-.146-.46-.194-.561.213a.766.766,0,0,1,.449-.08c.073-.113.162.056.112-.133" transform="translate(-2.518 -4.958)" fill="#dc0916"/>
    <path id="Path_1121" data-name="Path 1121" d="M3.958,8.328l.014-.057c.073-.3.244-.339.339-.339a.4.4,0,0,1,.268.113l.006.005,0,.008c.019.071.02.1.006.116s-.023.019-.055.012a.118.118,0,0,0-.023,0c-.011,0-.027,0-.044.03l-.01.014-.017,0a.739.739,0,0,0-.433.077Zm.353-.341c-.123,0-.217.085-.269.241a.781.781,0,0,1,.393-.059.1.1,0,0,1,.08-.041.143.143,0,0,1,.031,0,.435.435,0,0,0-.011-.052.342.342,0,0,0-.224-.093" transform="translate(-2.452 -4.914)" fill="#393535"/>
    <path id="Path_1122" data-name="Path 1122" d="M2.972,5.9a.412.412,0,0,0-.377.6A.478.478,0,0,1,3,6.2c-.01-.134.131-.177-.023-.3" transform="translate(-1.58 -3.654)" fill="#dc0916"/>
    <path id="Path_1123" data-name="Path 1123" d="M2.549,6.525l-.023-.054a.458.458,0,0,1,.023-.444.442.442,0,0,1,.35-.2l.033,0h.008l.006,0c.115.09.086.151.059.211a.2.2,0,0,0-.026.106l0,.027-.027,0a.451.451,0,0,0-.378.291ZM2.9,5.882a.391.391,0,0,0-.3.175.383.383,0,0,0-.039.337.484.484,0,0,1,.368-.265.292.292,0,0,1,.031-.106c.024-.053.037-.081-.037-.14H2.9" transform="translate(-1.536 -3.61)" fill="#393535"/>
    <path id="Path_1124" data-name="Path 1124" d="M3.761,3.816c-.019-.211-.272-.4-.615-.161a.458.458,0,0,1,.385.308c.129-.037.143.028.23-.147" transform="translate(-1.949 -2.195)" fill="#dc0916"/>
    <path id="Path_1125" data-name="Path 1125" d="M3.408,3.952,3.4,3.925c-.056-.191-.2-.244-.365-.289l-.057-.015.048-.034a.571.571,0,0,1,.322-.116.331.331,0,0,1,.336.3v.008l0,.007c-.064.128-.094.142-.166.148a.377.377,0,0,0-.081.014Zm-.3-.352a.455.455,0,0,1,.337.285.483.483,0,0,1,.065-.009c.048,0,.065-.005.118-.11a.273.273,0,0,0-.28-.24.473.473,0,0,0-.24.074" transform="translate(-1.845 -2.15)" fill="#393535"/>
    <path id="Path_1126" data-name="Path 1126" d="M6.367,3.557c.2-.073.348-.362.027-.631a.7.7,0,0,1-.3.533c.069.115.086.06.278.1" transform="translate(-3.772 -1.813)" fill="#dc0916"/>
    <path id="Path_1127" data-name="Path 1127" d="M6.308,3.49l-.008,0a.918.918,0,0,0-.139-.016A.152.152,0,0,1,6,3.378L5.99,3.354l.023-.014a.677.677,0,0,0,.292-.51V2.772l.045.038a.445.445,0,0,1,.192.409.358.358,0,0,1-.227.268Zm-.242-.118c.029.042.045.043.1.046a.972.972,0,0,1,.138.016.3.3,0,0,0,.185-.224.367.367,0,0,0-.132-.321.748.748,0,0,1-.29.483" transform="translate(-3.711 -1.717)" fill="#393535"/>
    <path id="Path_1128" data-name="Path 1128" d="M5.508,5.577c.053.176-.65.642-.787.527s-.16-.632-.989-.555c.427-.44-.122-.263.021-.485.359-.185-.006,0-.575-.2.234-.166.089-.358-.008-.524.119-.128.253-.068.432-.006.009-.226-.471-.3-.282-.469a.614.614,0,0,0,.488-.3c.186-.258.239.57.554-.009a.384.384,0,0,0,.463.241c.121.6-.6.374-.26.9s.89.7.943.884" transform="translate(-1.964 -2.174)" fill="#040405"/>
    <path id="Path_1129" data-name="Path 1129" d="M4.662,6.1a.132.132,0,0,1-.086-.027.462.462,0,0,1-.09-.134c-.1-.187-.252-.471-.871-.412l-.1.01.072-.074c.145-.149.159-.21.154-.234s-.029-.033-.067-.05-.084-.039-.1-.084A.134.134,0,0,1,3.6,4.982l.005-.008.009,0,.045-.024a1.907,1.907,0,0,1-.616-.111L2.975,4.81l.059-.043c.174-.123.119-.245.007-.431L3,4.27l.019-.021c.122-.131.256-.092.409-.037a.47.47,0,0,0-.161-.153c-.076-.054-.148-.1-.153-.175a.141.141,0,0,1,.057-.112l.017-.008.067-.016a.532.532,0,0,0,.4-.272.132.132,0,0,1,.1-.067h0c.062,0,.1.064.15.131s.082.121.124.121h0c.026,0,.082-.028.171-.191l.032-.06.034.059c.117.205.235.269.421.223l.038-.009.008.039a.431.431,0,0,1-.219.51c-.126.086-.2.138-.046.377a2.3,2.3,0,0,0,.666.631c.148.1.255.177.282.264.046.153-.282.378-.348.422a1,1,0,0,1-.414.172m-.891-.657a.765.765,0,0,1,.781.46.426.426,0,0,0,.072.112c.038.03.205-.017.409-.151s.332-.285.317-.336S5.229,5.393,5.1,5.3a2.365,2.365,0,0,1-.687-.651c-.2-.3-.063-.393.067-.482a.35.35,0,0,0,.194-.395.4.4,0,0,1-.431-.211c-.07.115-.135.17-.2.173H4.034c-.083,0-.138-.082-.187-.155-.027-.041-.065-.1-.088-.1h0c-.01,0-.026.014-.042.036a.6.6,0,0,1-.443.3l-.057.013a.066.066,0,0,0-.025.045c0,.033.062.076.121.117.094.066.21.148.205.274l0,.052-.084-.03c-.158-.057-.25-.084-.335-.011l.01.016c.083.139.194.325.027.487a1.879,1.879,0,0,0,.561.085c.077,0,.108,0,.117.039s-.013.05-.153.123c-.015.025-.013.037-.012.04s.033.026.056.037c.045.02.1.045.111.105s-.023.129-.109.229l.068,0" transform="translate(-1.843 -2.112)" fill="#ffbf00"/>
    <path id="Path_1130" data-name="Path 1130" d="M8.7,9c-.761-.2-.72.5-1.519.622.185.109.08.247.651.217S8.483,9.227,8.7,9" transform="translate(-4.449 -5.555)" fill="#040405"/>
    <path id="Path_1131" data-name="Path 1131" d="M7.507,9.824c-.3,0-.361-.066-.428-.141a.389.389,0,0,0-.1-.086l-.092-.054.105-.016a1.239,1.239,0,0,0,.7-.374.772.772,0,0,1,.834-.247l.063.016-.046.047a1.293,1.293,0,0,0-.169.261c-.138.253-.31.568-.724.589-.054,0-.1,0-.146,0m-.416-.238c.017.016.031.032.044.046.066.074.116.133.514.111.371-.02.525-.3.661-.55a1.784,1.784,0,0,1,.139-.228.686.686,0,0,0-.7.244,1.329,1.329,0,0,1-.654.376" transform="translate(-4.267 -5.495)" fill="#ffbf00"/>
    <path id="Path_1132" data-name="Path 1132" d="M10.813,9.052c.045.156.137.2-.079.592s-.3.449-.819.474c-.113.01-.2-.085-.128-.148.3-.17.354-1,1.026-.918" transform="translate(-6.048 -5.604)" fill="#040405"/>
    <path id="Path_1133" data-name="Path 1133" d="M9.835,10.1A.176.176,0,0,1,9.672,10,.1.1,0,0,1,9.7,9.88a.856.856,0,0,0,.257-.347c.151-.284.342-.636.8-.58l.024,0,.007.024a.7.7,0,0,0,.025.068c.044.113.081.21-.107.553-.225.409-.328.469-.85.493H9.835m.826-1.072c-.348,0-.5.289-.638.546a.888.888,0,0,1-.28.373.026.026,0,0,0,0,.03.115.115,0,0,0,.108.047c.519-.024.583-.08.789-.454.172-.312.142-.386.1-.488-.006-.016-.013-.033-.019-.05l-.061,0" transform="translate(-5.986 -5.542)" fill="#ffbf00"/>
    <path id="Path_1134" data-name="Path 1134" d="M13.229,8.192a.658.658,0,0,1-.336.957c-.2-.034-.153-.32-.052-.611.077-.21.32-.447.387-.346" transform="translate(-7.902 -5.06)" fill="#040405"/>
    <path id="Path_1135" data-name="Path 1135" d="M12.833,9.127l-.008,0a.184.184,0,0,1-.134-.089c-.062-.105-.045-.293.053-.572.062-.167.237-.38.363-.395a.1.1,0,0,1,.091.04l0,0a.822.822,0,0,1,.024.685.565.565,0,0,1-.383.326Zm.288-.982h0c-.078.009-.24.181-.3.344-.11.315-.093.451-.059.508a.107.107,0,0,0,.073.052.493.493,0,0,0,.325-.282.743.743,0,0,0-.021-.617.014.014,0,0,0-.013-.006" transform="translate(-7.839 -4.999)" fill="#ffbf00"/>
    <path id="Path_1136" data-name="Path 1136" d="M9.517,6.519A1.569,1.569,0,0,0,8.39,6.234c-.395,0-.334-.521-.411-.473s-.211.115-.159.4c.01.185.211.261.413.276s.485.012.791.061.382.175.382.175Z" transform="translate(-4.837 -3.567)" fill="#dc0916"/>
    <path id="Path_1137" data-name="Path 1137" d="M9.375,6.676,9.36,6.653s-.08-.121-.369-.167a5.085,5.085,0,0,0-.589-.05c-.072,0-.14-.006-.2-.01-.264-.02-.421-.126-.43-.293-.051-.281.074-.358.156-.409l.011-.007a.038.038,0,0,1,.019-.006c.033,0,.043.042.06.111.033.136.088.364.338.364h.074a1.5,1.5,0,0,1,1.07.29l.011.011ZM7.958,5.749l-.011.006c-.078.048-.186.115-.139.374.011.21.281.252.4.261.059,0,.127.007.2.01A5.088,5.088,0,0,1,9,6.45a.633.633,0,0,1,.379.163l.088-.121a1.581,1.581,0,0,0-1.1-.269h0c-.279,0-.341-.255-.374-.392a.361.361,0,0,0-.025-.083" transform="translate(-4.807 -3.538)" fill="#393535"/>
    <path id="Path_1138" data-name="Path 1138" d="M10.858,3.7c.164.12-.042.427.14.558.2.143.742,1.076.07,1.242-.078-.307-.3-.829-.419-.809s.232.365-.209.726a1.4,1.4,0,0,1-1.228.07c-.1-.029-.129-.365-.028-.488.032.333.759.245.851.1.067-.107.09-.353-.126-.363,0,0-.363-.038-.516-.042a.336.336,0,0,0-.223.1c-.265-.323-.386-.868-.293-.963a.674.674,0,0,1,.545-.056c.1.128-.111.257-.028.363.232.135.5.275.67.14s-.268-.384-.461-.558c.268-.1.4.04.614.056s.471-.194.642-.07" transform="translate(-5.479 -2.264)" fill="#040405"/>
    <path id="Path_1139" data-name="Path 1139" d="M9.793,5.575a2.121,2.121,0,0,1-.623-.108l-.032-.01a.162.162,0,0,1-.1-.119.528.528,0,0,1,.049-.43l.059-.072.008.092c.008.088.075.147.2.176a.738.738,0,0,0,.581-.1.271.271,0,0,0,.022-.24.126.126,0,0,0-.117-.065c-.006,0-.366-.038-.516-.042H9.325a.306.306,0,0,0-.189.086l-.03.03-.027-.033c-.271-.331-.406-.9-.29-1.014a.708.708,0,0,1,.584-.065l.01,0,.007.009a.209.209,0,0,1-.008.238c-.03.061-.041.092-.024.12.224.129.473.256.62.138A.047.047,0,0,0,10,4.138c0-.081-.175-.216-.315-.324-.063-.049-.122-.1-.169-.138l-.047-.042.059-.021a.6.6,0,0,1,.433.01.848.848,0,0,0,.2.044.752.752,0,0,0,.261-.054.432.432,0,0,1,.4-.009c.1.071.088.193.08.3s-.016.2.06.258a1.283,1.283,0,0,1,.4.976.422.422,0,0,1-.345.333l-.037.01-.009-.037a1.652,1.652,0,0,0-.373-.781h0s.01.04.018.068a.554.554,0,0,1-.21.65.93.93,0,0,1-.608.194m-.679-.543a.534.534,0,0,0,0,.282c.014.046.033.066.044.069l.034.01a1.217,1.217,0,0,0,1.16-.072.482.482,0,0,0,.184-.572c-.016-.058-.027-.1-.005-.133a.068.068,0,0,1,.049-.03h.013c.177,0,.383.607.439.8a.337.337,0,0,0,.253-.265,1.227,1.227,0,0,0-.372-.9c-.11-.08-.1-.21-.091-.325s.015-.188-.048-.233c-.086-.063-.205-.023-.332.019a.761.761,0,0,1-.29.057.886.886,0,0,1-.214-.048.545.545,0,0,0-.32-.03l.113.089c.169.13.343.266.344.383a.122.122,0,0,1-.05.1c-.186.149-.465.008-.713-.136L9.3,4.09c-.054-.069-.018-.144.011-.205s.049-.106.023-.148a.631.631,0,0,0-.493.05,1.217,1.217,0,0,0,.271.881.355.355,0,0,1,.212-.081h.008c.153,0,.5.041.519.042a.2.2,0,0,1,.179.105.345.345,0,0,1-.025.316.784.784,0,0,1-.662.129.341.341,0,0,1-.229-.147" transform="translate(-5.418 -2.203)" fill="#ffbf00"/>
    <path id="Path_1140" data-name="Path 1140" d="M10.985,4.542a.122.122,0,1,1-.244,0h0a.122.122,0,0,1,.244,0Z" transform="translate(-6.654 -2.738)" fill="#dc0916"/>
    <path id="Path_1141" data-name="Path 1141" d="M10.82,4.647a.15.15,0,1,1,.149-.15.148.148,0,0,1-.149.15Zm0-.245a.092.092,0,0,0-.067.028.095.095,0,0,0,.067.162v0a.093.093,0,0,0,.066-.028A.095.095,0,0,0,10.82,4.4" transform="translate(-6.61 -2.694)" fill="#040405"/>
  </g>
</svg>
