<svg xmlns="http://www.w3.org/2000/svg" xmlns:xlink="http://www.w3.org/1999/xlink" width="21.616" height="26.778" viewBox="0 0 21.616 26.778">
  <defs>
    <clipPath id="clip-path">
      <rect id="Rectangle_539" data-name="Rectangle 539" width="21.616" height="26.778" fill="none"/>
    </clipPath>
  </defs>
  <g id="oberösterreich-fleg" clip-path="url(#clip-path)">
    <path id="Path_834" data-name="Path 834" d="M21.6,23.073l.011,7.472a9.392,9.392,0,0,1-.23,2.079,8.4,8.4,0,0,1-.659,1.868A9.109,9.109,0,0,1,19.5,36.37a10.391,10.391,0,0,1-1.749,1.638,11.853,11.853,0,0,1-1.694,1.046,12.042,12.042,0,0,1-3.406,1.128,10.893,10.893,0,0,1-1.5.153c-.112,0-.224.005-.337.005s-.224,0-.336-.005a10.893,10.893,0,0,1-1.5-.153,11.98,11.98,0,0,1-5.1-2.174,10.369,10.369,0,0,1-1.748-1.635,9.131,9.131,0,0,1-1.23-1.88A8.466,8.466,0,0,1,.23,32.622,9.416,9.416,0,0,1,0,30.545l.012-7.472Z" transform="translate(0 -13.57)" fill="#040506"/>
    <path id="Path_835" data-name="Path 835" d="M.028,9.5.042.037,2.577,0,21.6.037l.011,9.657" transform="translate(-0.016 0)" fill="#040506"/>
    <path id="Path_836" data-name="Path 836" d="M36.09.026,26.262,0l-.037,26.778a11.392,11.392,0,0,0,6.68-2.155,9.744,9.744,0,0,0,2.826-2.939L36.09.093" transform="translate(-15.424 0)" fill="#fff"/>
    <path id="Path_837" data-name="Path 837" d="M6.892,5.937A1.041,1.041,0,0,1,7,5.883a.336.336,0,0,1,.068-.021.315.315,0,0,1,.162.009.26.26,0,0,1,.122.084.378.378,0,0,1,.027.035l.115.169a.691.691,0,0,0,.143.157.594.594,0,0,0,.171.1.508.508,0,0,0,.19.03A.527.527,0,0,0,8.19,6.4L8.4,6.308A.15.15,0,0,1,8.493,6.3a.9.9,0,0,1,.211.075c.043.021.087.042.131.06a.188.188,0,0,0,.039.012.21.21,0,0,0,.043,0c.044,0,.089-.006.133-.012a1.31,1.31,0,0,1,.161-.01,1.122,1.122,0,0,1,.149.01,1.317,1.317,0,0,1,.218.051.831.831,0,0,1,.171.08c.041.025.081.051.12.08q.091.069.178.142l-.07.045-.113-.072c-.029-.018-.059-.036-.089-.052a.963.963,0,0,0-.185-.079A.88.88,0,0,0,9.4,6.591a.757.757,0,0,0-.17,0,1.03,1.03,0,0,0-.19.046,1.725,1.725,0,0,1-.222.063.156.156,0,0,1-.068,0,.1.1,0,0,1-.032-.015A1.411,1.411,0,0,1,8.6,6.6.7.7,0,0,0,8.456,6.5a.17.17,0,0,0-.086-.014.125.125,0,0,0-.045.013,1.357,1.357,0,0,0-.127.069,1.036,1.036,0,0,1-.128.069,1.1,1.1,0,0,1-.131.049.744.744,0,0,1-.233.03.514.514,0,0,1-.189-.043.411.411,0,0,1-.162-.127.487.487,0,0,1-.091-.2l-.05-.264a.128.128,0,0,0-.031-.062.207.207,0,0,0-.074-.051.417.417,0,0,0-.089-.025.829.829,0,0,0-.128-.01" transform="translate(-4.053 -3.444)" fill="#ce0013"/>
    <path id="Path_838" data-name="Path 838" d="M6.805,53.018a.462.462,0,0,0-.023.124.477.477,0,0,0,.033.2.17.17,0,0,0,.084.09.174.174,0,0,0,.092.016,1,1,0,0,0,.221-.044c-.033.026-.066.05-.1.074a.615.615,0,0,1-.062.035.553.553,0,0,1-.348.047.621.621,0,0,1-.329-.179.736.736,0,0,1-.194-.365Zm1.97,0c-.019.133-.044.265-.077.4a1.729,1.729,0,0,1-.137.371,1.867,1.867,0,0,1-.228.346,1.8,1.8,0,0,1-.257.253,1.859,1.859,0,0,1-.306.2,1.442,1.442,0,0,1-.4.135.187.187,0,0,1-.147-.035l-.314-.242a.215.215,0,0,0-.1-.043.221.221,0,0,0-.114.013.477.477,0,0,0-.106.055.951.951,0,0,0-.129.1,1.353,1.353,0,0,1-.032-.254.349.349,0,0,1,.019-.128.413.413,0,0,1,.159-.208.288.288,0,0,1,.213-.046l.717.124a.382.382,0,0,0,.249-.042,1.1,1.1,0,0,0,.327-.28,2.033,2.033,0,0,0,.208-.324,2.884,2.884,0,0,0,.166-.395Zm.349,0c0,.076,0,.153.008.229.009.156.025.31.047.464s.056.336.093.5a5.229,5.229,0,0,1,.1.654.339.339,0,0,1-.026.166l-.2.47a.989.989,0,0,0-.055.167q-.047.2-.079.395c-.038-.113-.076-.227-.115-.34-.02-.057-.04-.114-.06-.171q-.088-.246-.161-.5a1.5,1.5,0,0,1-.044-.208,1.693,1.693,0,0,1-.009-.385,3.789,3.789,0,0,1,.1-.569c.041-.166.082-.334.12-.5.007-.033.013-.066.018-.1a1.856,1.856,0,0,0,.015-.279Zm.464,0a1.944,1.944,0,0,0,.131.358,1.584,1.584,0,0,0,.235.36.984.984,0,0,0,.267.217.31.31,0,0,0,.189.037L11.2,53.9a.348.348,0,0,1,.2.033,1.142,1.142,0,0,1,.293.208.656.656,0,0,1,.119.159.417.417,0,0,1,.048.15.691.691,0,0,1,0,.143,1.893,1.893,0,0,1-.035.234c-.009-.036-.019-.071-.031-.106a.762.762,0,0,0-.031-.079.421.421,0,0,0-.1-.137.277.277,0,0,0-.126-.063.477.477,0,0,0-.151-.009,1.1,1.1,0,0,0-.221.046c-.131.042-.264.082-.4.116a.7.7,0,0,1-.128.021.883.883,0,0,1-.406-.065,1.538,1.538,0,0,1-.458-.294,1.934,1.934,0,0,1-.327-.394,1.513,1.513,0,0,1-.18-.414,3.4,3.4,0,0,1-.078-.384q0-.022-.006-.044Zm2.059,0c0,.023-.009.047-.014.07a.71.71,0,0,1-.063.167.489.489,0,0,1-.151.168.4.4,0,0,1-.2.071.724.724,0,0,1-.127,0,1.572,1.572,0,0,1-.178-.026,1.452,1.452,0,0,0,.248-.11.241.241,0,0,0,.081-.075.335.335,0,0,0,.053-.243c0-.007,0-.015,0-.022h.35" transform="translate(-3.633 -31.182)" fill="#ffd300"/>
    <path id="Path_839" data-name="Path 839" d="M3.014,44.98a.185.185,0,0,1-.083.043.345.345,0,0,1-.089.007.616.616,0,0,1-.122-.017c-.007-.011-.013-.022-.02-.033Zm.8,0-.051.033a.112.112,0,0,1-.072.017A.094.094,0,0,1,3.635,45l-.014-.018Zm2.859-.242c-.014.109-.037.459-.054.569a4.2,4.2,0,0,1-.1.482,2.418,2.418,0,0,1-.192.487,4.028,4.028,0,0,1-.364.569,3.1,3.1,0,0,1-.577.577c-.122.092-.241.185-.361.28-.04.031-.078.064-.116.1a.521.521,0,0,0-.122.161c-.011.021-.1.172-.1.194l-.55-.127c.049.143,0-.023-.006-.035a.549.549,0,0,1,.078-.378.88.88,0,0,1,.115-.147q.147-.154.307-.293a2.369,2.369,0,0,0,.2-.194q.182-.2.352-.412a4.063,4.063,0,0,1-.49.379.38.38,0,0,1-.179.061l-.709.049a.6.6,0,0,0-.326.124.4.4,0,0,0-.151.241.458.458,0,0,0-.007.142,1.527,1.527,0,0,0,.049.259,1.732,1.732,0,0,1-.2-.145.4.4,0,0,1-.081-.09.549.549,0,0,1-.085-.393.646.646,0,0,1,.21-.381,1.134,1.134,0,0,1,.2-.14,2.069,2.069,0,0,1,.3-.138l.222-.084.434-.17a1.7,1.7,0,0,1-.337-.057.55.55,0,0,1-.177-.086.35.35,0,0,1-.12-.153.437.437,0,0,1-.03-.212.769.769,0,0,1,.023-.123,1.371,1.371,0,0,1,.051-.157,2.4,2.4,0,0,0,.22.351.347.347,0,0,0,.119.1.461.461,0,0,0,.278.046,1.674,1.674,0,0,0,.509-.163,2.48,2.48,0,0,0,.5-.333,2.586,2.586,0,0,0,.413-.451c.016-.023.238-.354.254-.377Zm.619.023c0,.331.026,1.051,0,1.02,0,.076,0,.152.008.228q.032.46.072.918.024.274.063.546.033.229.08.455c.007.033-.011.272,0,.3l-.384-.206q-.037-.268-.055-.538,0,.257,0,.514c0,.008,0,.3,0,.025l-.248.282S6.8,47.275,6.8,47.273c-.006-.2.007.35-.014.154-.012.193-.032.387-.058.579,0,.007-.13.759-.054.535l-.237-.514c-.049.249,0-.016.007-.024q.1-.3.171-.614a3.845,3.845,0,0,0,.076-.444,9.162,9.162,0,0,0,.057-.951c0-.339-.056-1.126-.068-1.464l.611.231Zm.986.291q.128.147.265.284c.091.091.187.18.284.266a2.385,2.385,0,0,0,.347.252A1.664,1.664,0,0,0,9.5,46a.672.672,0,0,0,.3.03.6.6,0,0,0,.261-.1.412.412,0,0,0,.122-.124.307.307,0,0,0,.046-.14.516.516,0,0,0-.005-.121,1.4,1.4,0,0,0-.044-.184,1.917,1.917,0,0,1,.1.194.858.858,0,0,1,.049.14.5.5,0,0,1,0,.237.478.478,0,0,1-.106.2.719.719,0,0,1-.228.171.62.62,0,0,1-.257.059,1.586,1.586,0,0,1-.234-.015,2.843,2.843,0,0,1-.31-.06,3.215,3.215,0,0,0,.318.151.273.273,0,0,0,.1.021l.654.007a.3.3,0,0,1,.168.054,1.341,1.341,0,0,1,.271.249,1.248,1.248,0,0,1,.148.227,1.2,1.2,0,0,1,.094.255.8.8,0,0,1,.023.189.647.647,0,0,1-.023.171.448.448,0,0,1-.076.153.163.163,0,0,1-.086.056.2.2,0,0,1-.11,0,1.06,1.06,0,0,1-.23-.1.859.859,0,0,0,.187.04.127.127,0,0,0,.072-.014.134.134,0,0,0,.064-.079.349.349,0,0,0,.011-.163.449.449,0,0,0-.081-.191.322.322,0,0,0-.136-.107.875.875,0,0,0-.232-.058,2.275,2.275,0,0,0-.393-.009,2.394,2.394,0,0,1-.331,0,.6.6,0,0,1-.164-.035.589.589,0,0,1-.147-.077,2.9,2.9,0,0,1-.28-.232,3.417,3.417,0,0,1,.362.346.983.983,0,0,1,.152.224.659.659,0,0,1,.06.187,1.771,1.771,0,0,1,.02.32,1.1,1.1,0,0,1-.015.148h-.35a.618.618,0,0,0-.142-.283,1.258,1.258,0,0,0-.155-.149,2.393,2.393,0,0,0-.242-.168c-.112-.068-.22-.141-.325-.22a2.205,2.205,0,0,1-.219-.187,2.489,2.489,0,0,1-.393-.493,2.123,2.123,0,0,1-.231-.533,6.02,6.02,0,0,1-.14-.63C7.094,44.26,8.017,44.829,8.281,45.052Zm2.147-.072-.021.2-.147-.153-.026-.044Zm.722,0a.411.411,0,0,1-.042.038.079.079,0,0,1-.035.017.113.113,0,0,1-.082-.012.1.1,0,0,1-.039-.042h.2" transform="translate(-1.587 -26.19)" fill="#ffd300"/>
    <path id="Path_840" data-name="Path 840" d="M7.243,28.358a.782.782,0,0,0,.172.25l.632.612a.832.832,0,0,1,.166.228,6.077,6.077,0,0,1,.291.706q.067.2.138.391c.014.037.029.075.047.111l.18.382c.019.041.037.082.055.124q.064.148.125.3c-.063-.052-.129-.1-.2-.148a.31.31,0,0,0-.071-.037L8.4,31.137a.259.259,0,0,1-.1-.068,2.47,2.47,0,0,1-.242-.3l1.62,2.754a.979.979,0,0,0,.107.148.308.308,0,0,0,.077.062.225.225,0,0,0,.131.025.246.246,0,0,0,.129-.055l.135-.112a.174.174,0,0,1,.063-.033.859.859,0,0,1,.154-.029,1.3,1.3,0,0,0,.143-.022.036.036,0,0,0,.02-.013l.135-.18a.237.237,0,0,1,.128-.086.229.229,0,0,1,.153.014.238.238,0,0,1,.089.068.071.071,0,0,1,.014.058l-.036.164.053.145a.25.25,0,0,1,0,.11.065.065,0,0,1-.037.044.063.063,0,0,1-.05,0,.464.464,0,0,1-.122-.064c-.04-.029-.08-.056-.122-.081a.087.087,0,0,0-.033-.012.157.157,0,0,0-.082.008,1.206,1.206,0,0,0-.2.1c-.037.023-.076.045-.114.066-.023.012-.046.023-.07.033s-.047.019-.071.028-.059.019-.089.028l-.062.017-.081.021c.067.1.133.2.2.3.032.048.065.1.1.145.048.069.094.14.14.21.02.033.04.066.058.1a.99.99,0,0,0,.08.126.039.039,0,0,0,.025.016l.2.037a.183.183,0,0,1,.11.068.243.243,0,0,1,.051.142.533.533,0,0,1-.005.1.065.065,0,0,1-.014.031.053.053,0,0,1-.024.017.445.445,0,0,1-.079.022,1.209,1.209,0,0,0-.139.008.227.227,0,0,0-.061.015.258.258,0,0,0-.066.039.783.783,0,0,0-.1.1l-.023.025h-.2a.07.07,0,0,1-.007-.02.266.266,0,0,1-.007-.063q0-.084.007-.167a.332.332,0,0,0,0-.057q0-.056-.012-.11l-.457-.784c.008.051.016.1.023.153s.01.08.014.119a.769.769,0,0,1,0,.157.2.2,0,0,1-.025.077l-.1.18.062.3-.022.217H9.575c-.009-.014-.018-.028-.028-.042a.012.012,0,0,0-.01-.005l-.27-.021a.054.054,0,0,1-.048-.04.078.078,0,0,1,.019-.072l.125-.133a.063.063,0,0,0,.016-.028.781.781,0,0,0,.016-.112,1.556,1.556,0,0,1,.023-.179q.02-.108.049-.215c.017-.061.034-.122.052-.183q.035-.12.072-.238-.116-.042-.232-.087c-.039-.015-.077-.031-.115-.048-.065-.029-.132-.056-.2-.079a.3.3,0,0,0-.078-.017c-.056-.005-.112-.013-.168-.022a.044.044,0,0,1-.019-.008l-.122-.1h0l-.17.026a.257.257,0,0,1-.115-.008.158.158,0,0,1-.076-.049.173.173,0,0,1-.041-.112.139.139,0,0,1,.041-.1l.138-.137.049-.258a.1.1,0,0,1,.059-.02.189.189,0,0,1,.086.019.217.217,0,0,1,.064.044.19.19,0,0,1,.042.059l.01.024c.01.023.019.047.028.071a.5.5,0,0,0,.048.093.042.042,0,0,0,.025.018l.143.037.255.173a.393.393,0,0,0,.1.046,1.729,1.729,0,0,0,.223.054L7.9,31.576a.96.96,0,0,1,0,.209.535.535,0,0,1-.038.15.265.265,0,0,1-.105.126.208.208,0,0,1-.142.029.286.286,0,0,1-.05-.013.782.782,0,0,1-.08-.037,1.076,1.076,0,0,0,.118-.155.123.123,0,0,0,.019-.062.165.165,0,0,0-.028-.1,1.187,1.187,0,0,0-.172-.2c-.075-.069-.146-.141-.214-.216a.576.576,0,0,1-.073-.1.639.639,0,0,1-.066-.159,3.2,3.2,0,0,1-.079-.378c0,.143.011.284.022.426.009.108.022.215.039.322a1.435,1.435,0,0,0,.1.356,1.453,1.453,0,0,0,.193.32.914.914,0,0,0,.15.149.319.319,0,0,0,.11.056.286.286,0,0,0,.093.009,1.385,1.385,0,0,0,.209-.03c-.035.038-.072.074-.11.108a.4.4,0,0,1-.061.044.533.533,0,0,1-.3.074.557.557,0,0,1-.295-.1.966.966,0,0,1-.218-.215,1.006,1.006,0,0,1-.143-.278q-.044-.135-.079-.271c-.029-.118-.056-.236-.078-.355q.028.423.072.845c.022.214.049.427.081.639a2.615,2.615,0,0,0,.138.531,2.267,2.267,0,0,0,.234.453.864.864,0,0,0,.183.2.268.268,0,0,0,.139.056A.215.215,0,0,0,7.567,34a1.357,1.357,0,0,0,.2-.079,1.146,1.146,0,0,1-.051.154.236.236,0,0,1-.037.063.31.31,0,0,1-.15.1.572.572,0,0,1-.245.021.748.748,0,0,1-.245-.078.474.474,0,0,1-.157-.132,1.181,1.181,0,0,1-.16-.281,3.062,3.062,0,0,1-.15-.493q.085.383.193.76a4.138,4.138,0,0,0,.147.421,2.97,2.97,0,0,0,.259.492,5.137,5.137,0,0,0,.385.519H6.687a3.727,3.727,0,0,1-.049-.459c.152.367-.536.8-.582,0-.013.153-.183.82-.2.973l-.666-.514a4.024,4.024,0,0,0,.234-.387,3.278,3.278,0,0,0,.194-.444c.058-.165.11-.332.158-.5q.1-.339.177-.682a2.742,2.742,0,0,1-.2.295,1.744,1.744,0,0,1-.19.207.742.742,0,0,1-.285.164.364.364,0,0,1-.229,0,.319.319,0,0,1-.1-.053,1.608,1.608,0,0,1-.175-.164c.077,0,.154,0,.232,0a.314.314,0,0,0,.082-.016.686.686,0,0,0,.295-.187,1.423,1.423,0,0,0,.27-.419,3.346,3.346,0,0,0,.16-.488,3.149,3.149,0,0,0,.079-.5c.013-.154.022-.308.029-.461.01-.2.016-.4.021-.607q-.044.224-.109.442a2.6,2.6,0,0,1-.118.319.779.779,0,0,1-.139.209.8.8,0,0,1-.2.159.754.754,0,0,1-.262.089.305.305,0,0,1-.172-.025.209.209,0,0,1-.055-.037,1.308,1.308,0,0,1-.112-.117,1.554,1.554,0,0,0,.206.023.2.2,0,0,0,.074-.011.3.3,0,0,0,.121-.08,1.73,1.73,0,0,0,.206-.284,2.61,2.61,0,0,0,.147-.3,1.384,1.384,0,0,0,.075-.235,2.357,2.357,0,0,0,.044-.262c.017-.147.029-.3.035-.444a2.825,2.825,0,0,1-.167.458.648.648,0,0,1-.135.191c-.1.093-.191.189-.284.284a.181.181,0,0,0-.026.033.221.221,0,0,0-.034.119.328.328,0,0,0,.035.145.65.65,0,0,0,.049.082,1.153,1.153,0,0,0,.08.1,1.177,1.177,0,0,1-.2-.046.257.257,0,0,1-.084-.047.277.277,0,0,1-.093-.146.453.453,0,0,1,0-.22A.9.9,0,0,1,4.86,31.5a1.519,1.519,0,0,1,.069-.148l-.268.334-.133.168q-.226.286-.444.577-.437.584-.867,1.173l.531-.063a.172.172,0,0,0,.1-.043.379.379,0,0,0,.09-.124l.112-.254a.114.114,0,0,1,.051-.056.188.188,0,0,1,.094-.024.218.218,0,0,1,.1.028.05.05,0,0,1,.026.045v.271l.046.192a.269.269,0,0,1-.045.16.22.22,0,0,1-.121.089.367.367,0,0,1-.105.015.86.86,0,0,1-.159-.016l-.7.058.191,1.033.175.1a.189.189,0,0,1,.022.121.135.135,0,0,1-.053.088l-.146.071-.272.174h-.2a.218.218,0,0,1-.035-.1.71.71,0,0,1,.018-.228c.021-.083.04-.168.056-.252a.08.08,0,0,0,0-.031l-.072-.344a.727.727,0,0,1-.012-.2,3.2,3.2,0,0,1,.059-.425c-.031.084-.063.168-.095.253l-.048.129a2.487,2.487,0,0,1-.105.246.312.312,0,0,1-.051.074l-.2.214a.25.25,0,0,0-.045.064A.786.786,0,0,0,2.378,35a.374.374,0,0,0-.014.1.339.339,0,0,0,.011.091c.012.048.024.1.036.143v.006a.168.168,0,0,1-.035.113.17.17,0,0,1-.024.025H2.039a.829.829,0,0,0-.051-.068.076.076,0,0,0-.033-.022.1.1,0,0,0-.058,0,.747.747,0,0,0-.147.061.685.685,0,0,1-.1-.013.058.058,0,0,1-.028-.015.128.128,0,0,1-.038-.124.242.242,0,0,1,.1-.146L1.906,35a.062.062,0,0,0,.022-.027q.048-.12.087-.243a.916.916,0,0,1,.063-.153.207.207,0,0,1,.049-.061l.234-.2a.762.762,0,0,0,.118-.129,3.622,3.622,0,0,0,.206-.323c-.075,0-.149,0-.223-.011a1.167,1.167,0,0,1-.136-.019.379.379,0,0,1-.072-.021.709.709,0,0,1-.088-.041.988.988,0,0,0-.127-.06.013.013,0,0,0-.016,0l-.108.153a.147.147,0,0,1-.108.061.128.128,0,0,1-.106-.047.32.32,0,0,1-.054-.1.454.454,0,0,1-.026-.129l-.045-.3a.317.317,0,0,1,.023-.1.159.159,0,0,1,.038-.056.137.137,0,0,1,.045-.028.45.45,0,0,1,.087-.023.672.672,0,0,1,.17,0,.182.182,0,0,1,.084.029l.519.332a.225.225,0,0,0,.075.03,2.875,2.875,0,0,0,.29.04l1.675-2.925c-.079.088-.161.175-.244.259-.04.041-.082.08-.125.117l-.322.277a.49.49,0,0,0-.079.086c-.075.105-.146.213-.213.323a2.389,2.389,0,0,1-.06-.251.744.744,0,0,1-.012-.139.7.7,0,0,1,.059-.273.76.76,0,0,1,.169-.241l.421-.407a.041.041,0,0,0,.011-.016q.12-.282.236-.566a1.806,1.806,0,0,1,.1-.2q.09-.157.192-.306c.089-.131.182-.257.28-.381q.1-.131.221-.252c.1-.1.2-.21.292-.32l.007-.009Zm2.052,0c.006.123.012.245.018.368l.037.766c-.122-.122-.239-.25-.352-.382a1.691,1.691,0,0,1-.147-.2,1.755,1.755,0,0,1-.2-.434c-.01-.034-.016-.079-.025-.113Zm1.2,0,.017.707q.011.449.038.9c.019.3.044.6.074.9.013.13.028.261.044.39q.048.389.1.779-.242-.267-.467-.549a1.681,1.681,0,0,1-.164-.243,3.031,3.031,0,0,1-.29-.707,8.167,8.167,0,0,1-.23-1.227q-.051-.464-.088-.93c0-.006,0-.013,0-.019Zm.933,0v0c0,.07,0,.14.007.21q.019.406.04.811c-.084-.085-.167-.172-.247-.262a.79.79,0,0,1-.072-.093,2.551,2.551,0,0,1-.319-.656.124.124,0,0,1,0-.013h.594" transform="translate(-0.927 -16.678)" fill="#ffd300"/>
    <path id="Path_841" data-name="Path 841" d="M7.007,1.453a.628.628,0,0,1,.014.078.1.1,0,0,1,0,.033A.141.141,0,0,1,7,1.609a.52.52,0,0,1-.058.072.474.474,0,0,1-.113.091.4.4,0,0,1-.125.047.989.989,0,0,1-.2.021,2.832,2.832,0,0,1-.339-.021,2.438,2.438,0,0,0-.407-.012,1.518,1.518,0,0,0-.319.049.5.5,0,0,0-.267.181.339.339,0,0,0-.041.064,1.553,1.553,0,0,0-.061.146c.02.016.038.032.056.049a.186.186,0,0,1,.023.027.2.2,0,0,1,.016.031c.008.023.015.044.021.068l.093-.044a.564.564,0,0,1,.006-.064.1.1,0,0,1,.006-.026.127.127,0,0,1,.037-.047.346.346,0,0,1,.086-.051.425.425,0,0,1,.144-.035.375.375,0,0,1,.14.016.968.968,0,0,1,.171.074,1.84,1.84,0,0,1,.212.136l.064.047.08.064H6.34c-.006.025-.016.05-.023.074A.284.284,0,0,1,6.3,2.6c-.008.018-.016.035-.023.053a.056.056,0,0,0,0,.009.083.083,0,0,0,.012.043.479.479,0,0,0,.062.084c-.025.015-.05.03-.074.047s-.035.024-.051.037a.257.257,0,0,0-.053.064.322.322,0,0,0-.039.086.278.278,0,0,0-.006.111.142.142,0,0,0,.031.074.2.2,0,0,0,.061.049.747.747,0,0,0,.138.056c.011.041.02.081.031.122.005.021.012.04.017.061.019.066.038.136.056.2.006.022.011.044.016.066a1.2,1.2,0,0,1,.029.212,1.793,1.793,0,0,1-.008.253,1.231,1.231,0,0,1-.058.261.46.46,0,0,1-.079.144.3.3,0,0,1-.1.08.5.5,0,0,1-.154.047c-.032,0-.063.008-.1.009s-.083,0-.124,0c-.111.068-.22.138-.327.212a1.24,1.24,0,0,0-.117.09L5.078,5.4a.608.608,0,0,1-.111.074.777.777,0,0,1-.138.06.5.5,0,0,1-.152.023A.666.666,0,0,1,4.5,5.529a.57.57,0,0,1-.166-.08.666.666,0,0,1-.142-.136c-.071-.092-.143-.183-.216-.274l-.014-.016a.258.258,0,0,0-.164-.06.448.448,0,0,0-.222.06.677.677,0,0,0-.166.134.154.154,0,0,0-.037.1l-.014.339A.321.321,0,0,1,3.34,5.7a.173.173,0,0,1-.051.068.2.2,0,0,1-.07.037.841.841,0,0,1-.159.035.827.827,0,0,0,.115.076.505.505,0,0,0,.1.041.264.264,0,0,0,.142,0,.21.21,0,0,0,.107-.07.167.167,0,0,0,.025-.041c.021-.047.037-.1.053-.144a.511.511,0,0,1,.068-.133.354.354,0,0,1,.091-.087A.276.276,0,0,1,3.9,5.441a.12.12,0,0,1,.091.033l.218.208a.53.53,0,0,0,.214.126.454.454,0,0,0,.23.012.9.9,0,0,0,.136-.045,1.762,1.762,0,0,0,.185-.088c-.05.061-.1.123-.142.187a.808.808,0,0,0-.061.1c-.044.083-.09.166-.138.247a.747.747,0,0,1-.055.082.247.247,0,0,1-.107.082.2.2,0,0,1-.121.012.18.18,0,0,1-.07-.033.9.9,0,0,1-.123-.119,1.256,1.256,0,0,0,.092.294.15.15,0,0,0,.076.074.13.13,0,0,0,.08.008.733.733,0,0,0,.179-.07c.037-.02.075-.042.111-.064s.087-.056.13-.086c0,.091-.009.155-.014.241,0,.033-.011.1-.021.21l0,.019,0,.009-.008.033a.668.668,0,0,1-.064.142.306.306,0,0,1-.06.074.056.056,0,0,1-.039.016.049.049,0,0,1-.031-.017.475.475,0,0,1-.06-.09A1.293,1.293,0,0,0,4.438,6.9.123.123,0,0,0,4.4,6.868a.184.184,0,0,0-.09-.029.734.734,0,0,0-.185.016c-.073.016-.146.03-.22.043a.052.052,0,0,1-.025,0l-.29-.1a.252.252,0,0,0-.134-.006.372.372,0,0,0-.146.068l-.253.2a.252.252,0,0,1-.228.045.265.265,0,0,1-.173-.164.113.113,0,0,1-.008-.033c0-.084-.006-.168-.006-.253A.583.583,0,0,0,2.624,6.5a.23.23,0,0,0-.044-.088.34.34,0,0,0-.063-.056c-.074-.054-.15-.105-.228-.154a.665.665,0,0,1-.138-.111.268.268,0,0,1-.054-.1.2.2,0,0,1,.009-.14.287.287,0,0,1,.115-.126l.265-.148a.755.755,0,0,0,.237-.212A.375.375,0,0,0,2.8,5.153v0c-.016-.106-.032-.213-.049-.319a.77.77,0,0,1-.01-.134,1.389,1.389,0,0,1,.018-.179.94.94,0,0,0,.01-.187.389.389,0,0,0-.023-.117.212.212,0,0,0-.109-.119A.145.145,0,0,0,2.5,4.1l-.129.082a.122.122,0,0,1-.078.015.1.1,0,0,1-.064-.033.151.151,0,0,1-.039-.113.568.568,0,0,1,.064-.222.629.629,0,0,1,.072-.111.707.707,0,0,1,.1-.093c.056-.046.11-.094.161-.144a.263.263,0,0,0,.043-.054.177.177,0,0,0,.026-.1.442.442,0,0,0-.026-.152c-.018-.05-.037-.1-.054-.15,0-.012,0-.025-.008-.037a.127.127,0,0,1,.01-.08.142.142,0,0,1,.056-.062A.241.241,0,0,1,2.7,2.823a2.054,2.054,0,0,1,.23-.031.594.594,0,0,0,.214-.062.5.5,0,0,0,.161-.13.421.421,0,0,0,.086-.181.358.358,0,0,0-.01-.183.317.317,0,0,0-.109-.15.392.392,0,0,0-.195-.076,1.161,1.161,0,0,0-.245,0,3.047,3.047,0,0,0-.386.064,3.307,3.307,0,0,0-.463.142,2.439,2.439,0,0,0-.372.185c-.2.122-.4.238-.611.35A.6.6,0,0,1,.866,2.8a.21.21,0,0,1-.051.006c-.068,0-.137,0-.2-.006a.774.774,0,0,0,.033.144.318.318,0,0,0,.041.082A.194.194,0,0,0,.769,3.1.277.277,0,0,0,.9,3.119a.631.631,0,0,0,.152-.031A1.122,1.122,0,0,0,1.238,3c-.086.164-.169.329-.249.495a1.367,1.367,0,0,0-.061.152l-.247.728C.668,4.42.653,4.459.636,4.5c-.048.119-.1.238-.148.356a1.922,1.922,0,0,0,.218,0,.215.215,0,0,0,.072-.018.379.379,0,0,0,.138-.1,1.785,1.785,0,0,0,.212-.31c-.064.169-.126.338-.187.508-.03.085-.057.171-.084.257-.054.176-.1.356-.138.537-.06.28-.113.56-.157.843-.014.09-.027.18-.041.269l-.052.348c.059-.063.117-.126.173-.193a.871.871,0,0,0,.064-.085,1.389,1.389,0,0,0,.105-.2c.055-.124.1-.251.148-.379q-.07.432-.136.864C.8,7.341.78,7.488.761,7.633c-.041.308-.075.617-.1.926C.632,8.84.611,9.12.6,9.4c-.01.223-.016.446-.018.67q-.006.657,0,1.314c0,.416,0,.834-.012,1.25-.005.205-.018.409-.039.613-.008.078-.017.155-.027.234-.021.157-.042.315-.064.471.079-.061.154-.127.228-.194a.75.75,0,0,0,.086-.091A1.158,1.158,0,0,0,.911,13.4a2.981,2.981,0,0,0,.152-.483c.077-.34.139-.684.187-1.03s.086-.721.107-1.082l.14-2.46q.013,1.286,0,2.571c0,.411-.014.824-.033,1.234L1.306,15.51c0,.032,0,.064,0,.1q.006.373.014.747c.11-.091.217-.187.319-.286a1.183,1.183,0,0,0,.133-.154,1.313,1.313,0,0,0,.169-.315,3.793,3.793,0,0,0,.164-.586c.056-.285.1-.572.148-.86.05-.329.1-.66.132-.991.035-.311.066-.624.1-.936.026-.285.049-.571.07-.857q.028-.386.049-.773c.027-.514.052-1.025.074-1.54L2.784,11.4c.015.329.025.657.029.987,0,.155,0,.31-.012.465-.007.106-.015.213-.027.319-.025.213-.054.423-.084.634.146-.131.288-.269.422-.413a1.511,1.511,0,0,0,.173-.224,1.269,1.269,0,0,0,.113-.226c.077-.2.145-.413.206-.623.048-.165.091-.332.126-.5.031-.143.054-.288.072-.434.03-.235.05-.47.056-.706.012-.408.01-.817,0-1.224q.031.384.07.767c.012.129.028.257.047.386.036.255.063.511.086.767a2.217,2.217,0,0,1,.008.309.955.955,0,0,1-.012.128c-.019.121-.043.242-.068.362a3.068,3.068,0,0,0,.284-.208.882.882,0,0,0,.134-.14.812.812,0,0,0,.148-.294A1.4,1.4,0,0,0,4.6,11.1l-.033-.662c-.012-.388-.009-.753.008-.981a6.828,6.828,0,0,0,.27,1.312c.033.132.064.264.092.4a3.3,3.3,0,0,1,.05.335c.013.133.022.267.023.4a1.746,1.746,0,0,1-.027.331.63.63,0,0,1-.064.189.658.658,0,0,1-.074.109l-.156.72,1.884-.718-.008-.027a2.034,2.034,0,0,1-.129-.522,4.872,4.872,0,0,1-.025-.658.957.957,0,0,1,.054-.286l.292-.833a1.036,1.036,0,0,0,.045-.16c.03-.171.053-.346.074-.52l.051,1.063a2.7,2.7,0,0,0,.061.448,1.322,1.322,0,0,0,.1.3,1.478,1.478,0,0,0,.13.218c.09.125.184.248.284.364-.005-.13-.009-.262-.012-.393,0-.065,0-.129,0-.194,0-.09.006-.18.012-.271.008-.13.017-.261.029-.391l.123-1.343L7.761,10.8c.019.255.04.512.06.767.01.118.02.236.031.354A6.256,6.256,0,0,0,8,12.689l.638-.039c-.01-.213-.028-.543-.037-.755,0-.023,0-.047,0-.07l.068-2.808.134,2.6c.016.306.041.851.091,1.147l.938-.091c-.006-.472-.021-.941-.031-1.411q-.021-.86-.049-1.719c0-.062-.006-.125-.012-.187l-.1-.946.22,1.637.146,1.605a3.566,3.566,0,0,0,.191.975l.57.043-.043-1.8c-.008-.362-.024-.726-.044-1.088-.029-.516-.063-1.03-.105-1.546l-.136-1.662c.017.073.036.143.056.214s.035.114.054.169a.833.833,0,0,0,.113.214.4.4,0,0,0,.123.115.276.276,0,0,0,.062.023A1.427,1.427,0,0,0,11,7.347q-.075-.256-.138-.516a1.107,1.107,0,0,1-.029-.175l-.049-.564a2.464,2.464,0,0,0-.047-.329,4.053,4.053,0,0,0-.114-.407c-.041-.121-.084-.242-.129-.362-.058-.156-.117-.311-.179-.465.04.069.077.138.119.206s.067.11.1.164a1.148,1.148,0,0,0,.152.189.276.276,0,0,0,.1.066.232.232,0,0,0,.08.016,1.34,1.34,0,0,0,.194-.016c-.04-.1-.079-.206-.119-.31-.019-.051-.038-.1-.056-.156-.028-.075-.054-.15-.08-.226q-.027-.077-.051-.156c-.052-.172-.106-.344-.161-.516a.923.923,0,0,0-.037-.091,1.212,1.212,0,0,0-.1-.177c-.11-.168-.222-.334-.341-.5-.024-.033-.049-.066-.072-.1l-.138-.2a2.2,2.2,0,0,0,.22.162.989.989,0,0,0,.164.087.5.5,0,0,0,.193.037.7.7,0,0,0,.23-.037c.035-.012.066-.028.1-.043s.091-.041.134-.064a2.835,2.835,0,0,1-.374-.086.611.611,0,0,1-.16-.076.507.507,0,0,1-.066-.052c-.079-.077-.155-.155-.229-.236a1.909,1.909,0,0,0-.276-.245.643.643,0,0,0-.193-.1.718.718,0,0,0-.206-.031,3.022,3.022,0,0,0-.418.023,1.072,1.072,0,0,0-.033-.107.111.111,0,0,0-.018-.029.222.222,0,0,0-.14-.072.862.862,0,0,0-.31.016.42.42,0,0,0-.159.078.321.321,0,0,0-.1.123.306.306,0,0,0-.021.181.524.524,0,0,0,.1.22c.051.07.105.138.161.2a.037.037,0,0,0,.023.012l.2.012a.039.039,0,0,1,.029.018.232.232,0,0,1,.033.078l.031.148.124.074a.064.064,0,0,1,.027.035.107.107,0,0,1,0,.058.205.205,0,0,1-.012.035c-.034.077-.07.153-.105.228a.533.533,0,0,0-.053.228.273.273,0,0,0,.053.158.288.288,0,0,0,.107.091.69.69,0,0,0,.208.062,1.77,1.77,0,0,1,.2.039.235.235,0,0,1,.064.029.19.19,0,0,1,.086.132.3.3,0,0,1-.043.195.358.358,0,0,1-.117.117.154.154,0,0,1-.105.02.251.251,0,0,1-.072-.023A2.18,2.18,0,0,1,9,4.316a.524.524,0,0,0-.144-.068.189.189,0,0,0-.093,0,.148.148,0,0,0-.078.045.331.331,0,0,0-.068.114L8.59,4.7l-.131.345a.467.467,0,0,0-.017.269.317.317,0,0,0,.123.185.281.281,0,0,0,.105.047,1.239,1.239,0,0,0,.247.026,1.553,1.553,0,0,1,.269.029.487.487,0,0,1,.14.052.327.327,0,0,1,.14.158A.511.511,0,0,1,9.5,6.07a.686.686,0,0,1-.1.263.213.213,0,0,1-.125.093l-.309.079a.246.246,0,0,0-.123.078.1.1,0,0,0-.019.09l.078.28a.145.145,0,0,1-.008.105.254.254,0,0,1-.1.1.3.3,0,0,1-.165.041.358.358,0,0,1-.179-.056l-.4-.261A.456.456,0,0,0,7.9,6.821a1.337,1.337,0,0,0-.286-.031c-.106,0-.213,0-.319.012a.112.112,0,0,0-.047.014l-.241.124a.711.711,0,0,1-.243.074.389.389,0,0,1-.185-.023.337.337,0,0,1-.156-.126.612.612,0,0,1-.1-.251,1.4,1.4,0,0,1-.016-.241A2.328,2.328,0,0,1,6.34,6.06c.014.068.026.136.045.2a1.566,1.566,0,0,0,.052.15.634.634,0,0,0,.109.179.353.353,0,0,0,.126.093.4.4,0,0,0,.121.031,1.55,1.55,0,0,0,.251,0,2.482,2.482,0,0,1-.191-.22.54.54,0,0,1-.068-.114.661.661,0,0,1-.058-.249,1.8,1.8,0,0,1,.031-.421c.015-.073.032-.145.049-.218q.033-.139.07-.276c0,.058,0,.119,0,.177s.007.091.012.138a.711.711,0,0,0,.055.208.238.238,0,0,0,.079.1.2.2,0,0,0,.086.033,1.166,1.166,0,0,0,.224.018c-.049-.072-.1-.147-.138-.222a.607.607,0,0,1-.047-.1.829.829,0,0,1-.041-.175,3.1,3.1,0,0,1-.021-.35l0-.724c.019.071.036.143.054.214.01.04.019.081.029.121a2.281,2.281,0,0,0,.164.455.313.313,0,0,0,.123.133.213.213,0,0,0,.1.031,1.9,1.9,0,0,0,.313-.012,3.1,3.1,0,0,1-.222-.265.788.788,0,0,1-.087-.15.637.637,0,0,1-.043-.134,2.411,2.411,0,0,1-.041-.272c-.015-.156-.033-.312-.051-.467-.007-.062-.015-.124-.025-.185a1.427,1.427,0,0,0-.058-.236,2.009,2.009,0,0,0-.115-.265c-.019-.037-.04-.073-.062-.109-.044-.072-.089-.142-.136-.212a1.324,1.324,0,0,0,.133.126.158.158,0,0,0,.054.029l.241.072a.111.111,0,0,1,.045.026,1.305,1.305,0,0,1,.121.136,1.443,1.443,0,0,0,.009-.2A.832.832,0,0,0,7.614,3a.362.362,0,0,0-.142-.216.511.511,0,0,0-.109-.058,1.376,1.376,0,0,0-.2-.061c.069,0,.138,0,.206,0s.108,0,.162-.01a.776.776,0,0,0,.226-.054A.4.4,0,0,0,7.9,2.512.428.428,0,0,0,7.973,2.4a1.626,1.626,0,0,0,.1-.249c-.05.039-.1.076-.154.111A.411.411,0,0,1,7.84,2.3a.592.592,0,0,1-.166.039,1.6,1.6,0,0,1-.284,0c-.051,0-.1-.008-.15-.014L7.05,2.3c.092-.005.181-.013.272-.025.072-.009.145-.022.216-.037a.867.867,0,0,0,.249-.1.379.379,0,0,0,.129-.121.308.308,0,0,0,.041-.1,1.561,1.561,0,0,0,.035-.243c-.028.043-.059.086-.089.126a.439.439,0,0,1-.051.056.457.457,0,0,1-.105.074,1.065,1.065,0,0,1-.177.072,1.119,1.119,0,0,1-.255.043,1.043,1.043,0,0,1-.253-.018l-.093-.021c-.047-.012-.093-.025-.14-.039.035-.018.07-.038.105-.058s.054-.032.08-.049A.38.38,0,0,0,7.091,1.8a.277.277,0,0,0,.045-.08.177.177,0,0,0,.006-.1.226.226,0,0,0-.056-.1.247.247,0,0,0-.031-.027ZM6.573,12.536c.023.072.3.932,0,0Z" transform="translate(-0.259 -0.855)" fill="#ffd300"/>
    <path id="Path_842" data-name="Path 842" d="M12.464,3.46c.025-.009.051-.016.076-.023a.1.1,0,0,1,.024,0,.236.236,0,0,1,.086.019,1.14,1.14,0,0,1,.174.093c.028.018.055.035.084.052.052.03.1.061.158.09-.01.011-.021.021-.032.031l-.025.024c-.018.016-.037.032-.056.046a.5.5,0,0,1-.053.033.413.413,0,0,1-.045.021.488.488,0,0,1-.051.017.587.587,0,0,1-.084.021.481.481,0,0,1-.072.007.286.286,0,0,1-.082-.009.214.214,0,0,1-.063-.029.37.37,0,0,1-.064-.056.62.62,0,0,1-.07-.088l-.023-.033-.028-.044a.18.18,0,0,0,.01-.033.017.017,0,0,0,0-.012.024.024,0,0,0-.007-.009.187.187,0,0,0-.032-.018.241.241,0,0,1,.035-.023.02.02,0,0,1,.013,0,.016.016,0,0,1,.01.007.2.2,0,0,1,.024.037.515.515,0,0,0,.065.1.4.4,0,0,0,.075.068.285.285,0,0,0,.131.049.169.169,0,0,0,.136-.044.626.626,0,0,0,.048-.051.526.526,0,0,1-.1.017.091.091,0,0,1-.085-.046.256.256,0,0,1-.031-.1c0-.028-.008-.056-.013-.083a.029.029,0,0,0,0-.009.043.043,0,0,0-.027-.015.406.406,0,0,0-.1,0" transform="translate(-7.226 -2.02)" fill="#ffd300"/>
    <path id="Path_843" data-name="Path 843" d="M11.026,5.733c.031-.015.063-.029.1-.042a.27.27,0,0,1,.049-.014.364.364,0,0,1,.18.009.417.417,0,0,1,.167.1c.02.019.039.039.057.059s.046.055.067.083c.061,0,.12-.007.181-.007a.88.88,0,0,1,.114.009.572.572,0,0,1,.138.038.37.37,0,0,1,.1.061,1.139,1.139,0,0,1,.177.19,2.441,2.441,0,0,1,.2.316c-.048-.072-.1-.143-.154-.21a1.938,1.938,0,0,0-.136-.154.741.741,0,0,0-.218-.154.372.372,0,0,0-.187-.034.364.364,0,0,0-.073.015,1.551,1.551,0,0,0-.15.06c-.033-.044-.067-.086-.1-.126a.492.492,0,0,0-.063-.058.455.455,0,0,0-.093-.055.855.855,0,0,0-.141-.045l-.088-.018-.114-.02" transform="translate(-6.485 -3.335)" fill="#ffd300"/>
    <path id="Path_844" data-name="Path 844" d="M2,45.458a1.437,1.437,0,0,0,.018.168.211.211,0,0,0,.02.062.347.347,0,0,0,.072.1,1.4,1.4,0,0,0,.2.151c-.015-.029-.028-.059-.041-.089a.64.64,0,0,1-.021-.065.271.271,0,0,1-.008-.065.21.21,0,0,1,.008-.058.447.447,0,0,1,.022-.059.864.864,0,0,1,.04-.078.517.517,0,0,0-.065-.1A.086.086,0,0,0,2.2,45.4a.069.069,0,0,0-.039,0,.393.393,0,0,0-.084.025l-.037.016L2,45.458" transform="translate(-1.175 -26.698)" fill="#ce0013"/>
    <path id="Path_845" data-name="Path 845" d="M5.419,45.394l.237-.135a.95.95,0,0,0-.02.118.386.386,0,0,0,0,.082.221.221,0,0,0,.037.1.17.17,0,0,0,.071.059.327.327,0,0,0,.078.025.777.777,0,0,0,.12.012.935.935,0,0,1-.184.122.185.185,0,0,1-.1.019.167.167,0,0,1-.1-.041.339.339,0,0,1-.09-.124.651.651,0,0,1-.033-.1,1.108,1.108,0,0,1-.023-.133" transform="translate(-3.187 -26.618)" fill="#ce0013"/>
    <path id="Path_846" data-name="Path 846" d="M8.28,40.5c-.013-.04-.023-.079-.033-.12a.422.422,0,0,1-.01-.061.331.331,0,0,1,0-.049c0-.034,0-.068,0-.1a1.447,1.447,0,0,1,.207-.026.233.233,0,0,1,.081.011.286.286,0,0,1,.1.058,1.526,1.526,0,0,1,.182.193,1.4,1.4,0,0,0-.145-.039.357.357,0,0,0-.078-.007.312.312,0,0,0-.1.018.6.6,0,0,0-.122.061l-.04.027L8.28,40.5" transform="translate(-4.843 -23.608)" fill="#ce0013"/>
    <path id="Path_847" data-name="Path 847" d="M1.145,40.967a.789.789,0,0,0-.083,0A.462.462,0,0,0,1,40.973a.264.264,0,0,0-.069.021.172.172,0,0,0-.048.033.407.407,0,0,0-.062.078.949.949,0,0,0-.068.134c-.007-.04-.012-.081-.015-.122a.74.74,0,0,1,0-.1.411.411,0,0,1,.045-.172.28.28,0,0,1,.1-.107.357.357,0,0,1,.072-.033,1,1,0,0,1,.133-.034l.053.291" transform="translate(-0.435 -23.923)" fill="#ce0013"/>
    <path id="Path_848" data-name="Path 848" d="M17.314,40.527a.7.7,0,0,0-.054-.051.41.41,0,0,0-.045-.034.25.25,0,0,0-.128-.042.2.2,0,0,0-.118.029.316.316,0,0,0-.051.037.755.755,0,0,0-.067.068,1.094,1.094,0,0,1,.028-.115.321.321,0,0,1,.028-.062.288.288,0,0,1,.115-.11.277.277,0,0,1,.153-.031.564.564,0,0,1,.117.022,1.1,1.1,0,0,1,.15.057.673.673,0,0,1-.011.1.127.127,0,0,1-.014.04.154.154,0,0,1-.026.034.779.779,0,0,1-.075.063" transform="translate(-9.911 -23.652)" fill="#ce0013"/>
    <path id="Path_849" data-name="Path 849" d="M24.8,40.811a.858.858,0,0,1-.035-.091.155.155,0,0,1-.009-.044.19.19,0,0,1,0-.053.9.9,0,0,1,.032-.112,1.14,1.14,0,0,1,.167.044.335.335,0,0,1,.084.046.256.256,0,0,1,.08.1.316.316,0,0,1,.03.136.8.8,0,0,1-.01.108,1.227,1.227,0,0,1-.033.138.878.878,0,0,0-.031-.1.564.564,0,0,0-.034-.073.234.234,0,0,0-.071-.078.166.166,0,0,0-.116-.031.545.545,0,0,0-.058.008" transform="translate(-14.557 -23.827)" fill="#ce0013"/>
    <path id="Path_850" data-name="Path 850" d="M23.275,45.335a1.162,1.162,0,0,1,.109-.1.228.228,0,0,1,.119-.051,1.114,1.114,0,0,1,.139-.007c0,.048,0,.1-.01.145s-.009.072-.015.107a.547.547,0,0,1-.04.124.387.387,0,0,1-.061.094.869.869,0,0,1-.084.085c-.044.038-.09.074-.138.107a1.2,1.2,0,0,0,.089-.189.185.185,0,0,0,.011-.083.2.2,0,0,0-.021-.073,1.205,1.205,0,0,0-.1-.157" transform="translate(-13.689 -26.569)" fill="#ce0013"/>
    <path id="Path_851" data-name="Path 851" d="M20.161,45.46a.649.649,0,0,1,.13,0,.117.117,0,0,1,.053.019.074.074,0,0,1,.021.02.63.63,0,0,1,.043.072,1.46,1.46,0,0,1-.122.178.316.316,0,0,1-.072.065.312.312,0,0,1-.078.037,1.6,1.6,0,0,1-.184.044,1.643,1.643,0,0,0,.116-.145.411.411,0,0,0,.047-.082.35.35,0,0,0,.02-.062c.01-.047.02-.1.026-.143" transform="translate(-11.734 -26.734)" fill="#ce0013"/>
    <path id="Path_852" data-name="Path 852" d="M10.216,3.546a.357.357,0,0,1,.028-.038.059.059,0,0,1,.013-.012.081.081,0,0,1,.037-.013.4.4,0,0,1,.077,0,.442.442,0,0,1,.087.021.093.093,0,0,1,.037.022.084.084,0,0,1,.017.026.483.483,0,0,1,.026.072l-.112-.032-.056-.014-.051-.012Zm-.191.84q-.054-.1-.1-.194c-.024-.05-.047-.1-.067-.153a.568.568,0,0,1-.035-.157.5.5,0,0,1,.01-.153A.354.354,0,0,1,9.889,3.6a.164.164,0,0,1,.074-.059A.15.15,0,0,1,10,3.535a.678.678,0,0,1,.087,0c.011-.023.023-.044.036-.065a.2.2,0,0,1,.021-.028.222.222,0,0,1,.064-.049.375.375,0,0,1,.1-.036.361.361,0,0,1,.1-.006.3.3,0,0,1,.089.021.254.254,0,0,1,.09.058.21.21,0,0,1,.051.081.363.363,0,0,1,.015.059.8.8,0,0,1,.01.089l.175-.072a1.259,1.259,0,0,0,.119.164.354.354,0,0,0,.083.072.312.312,0,0,0,.138.046.427.427,0,0,0,.167-.021A.792.792,0,0,0,11.45,3.8c.046-.023.09-.047.133-.073l.15-.093a.736.736,0,0,0-.023.1.2.2,0,0,0,0,.051.148.148,0,0,0,.008.033.732.732,0,0,0,.03.074.9.9,0,0,0-.087.057.233.233,0,0,0-.038.035.206.206,0,0,0-.041.08.487.487,0,0,0-.014.142.322.322,0,0,0,.022.106.2.2,0,0,0,.044.069.341.341,0,0,0,.071.054.891.891,0,0,0,.138.064c.024.072.044.144.064.215s.03.119.042.179a1.473,1.473,0,0,1-.017.643.419.419,0,0,1-.214.27.174.174,0,0,1-.065.019,1.875,1.875,0,0,1-.226.005l-.059-.02-.009,0-.217-.12a.536.536,0,0,0-.146-.055,1.061,1.061,0,0,0-.214-.026,1.175,1.175,0,0,0-.174.011.9.9,0,0,0-.148.034c-.036.012-.072.025-.107.039-.053.021-.106.044-.158.068.051-.055.105-.108.161-.159a.743.743,0,0,1,.087-.068.822.822,0,0,1,.271-.116,1.368,1.368,0,0,1,.377-.032,2.3,2.3,0,0,1,.238.026c.086.013.171.031.255.053l.089.024.178.051a2.334,2.334,0,0,0,.053-.291.47.47,0,0,0,0-.136.5.5,0,0,0-.084-.208,1.466,1.466,0,0,0-.257-.281.808.808,0,0,0-.172-.112.549.549,0,0,0-.161-.049.793.793,0,0,0-.108-.007c-.061,0-.122,0-.183.007-.019-.035-.041-.07-.063-.1a.294.294,0,0,0-.037-.045.431.431,0,0,0-.215-.118.506.506,0,0,0-.266.017.943.943,0,0,0-.148.064,1.629,1.629,0,0,0-.179.11" transform="translate(-5.776 -1.968)" fill="#ffd300" fill-rule="evenodd"/>
    <path id="Path_853" data-name="Path 853" d="M35.45,25.468a9.8,9.8,0,0,1-2.781,1V.054H35.45Z" transform="translate(-19.214 -0.032)" fill="#ce0013"/>
    <path id="Path_854" data-name="Path 854" d="M48.454,17.542a8.6,8.6,0,0,1-2.819,6.033s0-23.521,0-23.521h2.781s.038,16.185.038,17.489" transform="translate(-26.837 -0.031)" fill="#ce0013"/>
  </g>
</svg>
