<?xml version="1.0" encoding="utf-8"?>
<!-- Generator: Adobe Illustrator 22.0.1, SVG Export Plug-In . SVG Version: 6.00 Build 0)  -->
<svg version="1.1" id="Layer_1" xmlns="http://www.w3.org/2000/svg" xmlns:xlink="http://www.w3.org/1999/xlink" x="0px" y="0px"
	 width="24px" height="24px" viewBox="0 0 24 24" style="enable-background:new 0 0 24 24;" xml:space="preserve">
<style type="text/css">
	.st0{fill:#FFFFFF;}
</style>
<path class="st0" d="M23.3,17l-5.3-2.3c-0.5-0.2-1-0.1-1.3,0.3l-2.3,2.8c-3.6-1.7-6.6-4.7-8.3-8.3L9,7.2c0.4-0.3,0.5-0.9,0.3-1.3
	L7,0.7C6.8,0.2,6.3-0.1,5.7,0L0.9,1.2C0.4,1.3,0,1.7,0,2.2C0,14.3,9.7,24,21.8,24c0.5,0,1-0.4,1.1-0.9l1.1-4.9
	C24.1,17.7,23.8,17.2,23.3,17L23.3,17z"/>
</svg>
