<svg xmlns="http://www.w3.org/2000/svg" width="31.862" height="22.742" viewBox="0 0 31.862 22.742">
  <path id="g-icon" d="M155.372.038,175.843,0a1.964,1.964,0,0,1,2.214,2.251A1.984,1.984,0,0,1,175.843,4.5H155.372q-4.541.076-4.541,4.616v4.5q0,4.579,4.579,4.579h18.163V13.622H162.221a2.015,2.015,0,0,1-2.271-2.289,2.032,2.032,0,0,1,2.308-2.289h11.276q4.617.038,4.617,4.579V18.2q-.038,4.541-4.617,4.541H155.372q-9.082,0-9.082-9.12V9.12q0-9.082,9.082-9.082" transform="translate(-146.29)" fill="#a68d60"/>
</svg>
