<svg id="instagram-footer" xmlns="http://www.w3.org/2000/svg" width="21.926" height="21.93" viewBox="0 0 21.926 21.93">
  <path id="Path_36" data-name="Path 36" d="M22.319,6.448a8.013,8.013,0,0,0-.51-2.66A5.618,5.618,0,0,0,18.6.578a8.034,8.034,0,0,0-2.66-.51C14.766.013,14.393,0,11.416,0S8.066.013,6.9.064a8.016,8.016,0,0,0-2.66.51A5.351,5.351,0,0,0,2.291,1.842,5.4,5.4,0,0,0,1.027,3.783a8.035,8.035,0,0,0-.51,2.66C.461,7.617.449,7.99.449,10.967s.013,3.35.064,4.52a8.013,8.013,0,0,0,.51,2.66,5.617,5.617,0,0,0,3.209,3.209,8.035,8.035,0,0,0,2.661.51c1.169.052,1.542.064,4.52.064s3.35-.013,4.52-.064a8.012,8.012,0,0,0,2.66-.51A5.609,5.609,0,0,0,21.8,18.148a8.04,8.04,0,0,0,.51-2.66c.051-1.17.064-1.542.064-4.52s0-3.35-.056-4.52ZM20.344,15.4a6.011,6.011,0,0,1-.377,2.035,3.638,3.638,0,0,1-2.082,2.082,6.032,6.032,0,0,1-2.035.377c-1.157.052-1.5.064-4.43.064s-3.277-.013-4.43-.064a6.008,6.008,0,0,1-2.035-.377A3.375,3.375,0,0,1,3.7,18.7a3.41,3.41,0,0,1-.818-1.259A6.033,6.033,0,0,1,2.5,15.406c-.052-1.157-.064-1.5-.064-4.43S2.449,7.7,2.5,6.546a6.008,6.008,0,0,1,.377-2.035A3.333,3.333,0,0,1,3.7,3.252,3.4,3.4,0,0,1,4.96,2.433a6.036,6.036,0,0,1,2.035-.377c1.157-.051,1.5-.064,4.43-.064s3.277.013,4.43.064a6.011,6.011,0,0,1,2.035.377,3.372,3.372,0,0,1,1.259.818,3.409,3.409,0,0,1,.818,1.26,6.035,6.035,0,0,1,.377,2.035c.051,1.157.064,1.5.064,4.43s-.013,3.269-.064,4.426Zm0,0" transform="translate(-0.449 0)" fill="#fff"/>
  <path id="Path_37" data-name="Path 37" d="M130.583,124.5a5.634,5.634,0,1,0,5.634,5.634A5.635,5.635,0,0,0,130.583,124.5Zm0,9.288a3.654,3.654,0,1,1,3.654-3.654A3.655,3.655,0,0,1,130.583,133.788Zm0,0" transform="translate(-119.615 -119.166)" fill="#fff"/>
  <path id="Path_38" data-name="Path 38" d="M365.08,89.917a1.315,1.315,0,1,1-1.315-1.315A1.315,1.315,0,0,1,365.08,89.917Zm0,0" transform="translate(-346.941 -84.806)" fill="#fff"/>
</svg>
