<svg xmlns="http://www.w3.org/2000/svg" xmlns:xlink="http://www.w3.org/1999/xlink" width="1920" height="560.673" viewBox="0 0 1920 560.673">
  <defs>
    <clipPath id="clip-path">
      <rect id="Rectangle_30" data-name="Rectangle 30" width="1920" height="560.673" transform="translate(322.958 214)" fill="none" stroke="#a68d60" stroke-width="1"/>
    </clipPath>
  </defs>
  <g id="Group_24" data-name="Group 24" transform="translate(-322.958 -214)" clip-path="url(#clip-path)">
    <path id="Path_30" data-name="Path 30" d="M.465.261s131.315,171.378,488.134,296C816.108,410.64,1077.167,527,1260.58,410.64c219.9-139.5,257.159-176.952,369.614-182.95,294.756-15.723,631.621,202.167,842.162,111.6s308.79-142.53,308.79-142.53" transform="translate(1.172 0.473)" fill="none" stroke="#a68d60" stroke-width="1"/>
    <path id="Path_31" data-name="Path 31" d="M.913,177.665s168.777-129.2,486.561-33.542S1062,423.9,1245.417,307.542c219.9-139.5,244.382-127.96,355.577-143.489,285.4-39.858,757.948,272.8,968.485,182.236l210.542-90.563" transform="translate(2.301 197.255)" fill="none" stroke="#a68d60" stroke-width="1"/>
    <path id="Path_32" data-name="Path 32" d="M.465,193.274s170.333-75.4,488.113,20.254,593.267,216.984,776.684,100.622c219.894-139.5,272.453-148.956,383.648-164.485,285.4-39.858,489.12,334.812,711.157,267.053,313.472-95.661,421.08-111.6,421.08-111.6" transform="translate(1.172 265.833)" fill="none" stroke="#a68d60" stroke-width="1"/>
    <path id="Path_33" data-name="Path 33" d="M.465,470.076S170.8,125.683,488.578,221.344s593.267,216.984,776.684,100.622c219.894-139.5,272.453-148.956,383.648-164.485,285.4-39.858,489.12,334.812,711.157,267.051,313.472-95.658,421.08,87.691,421.08,87.691" transform="translate(1.172 279.997)" fill="none" stroke="#a68d60" stroke-width="1"/>
    <path id="Path_34" data-name="Path 34" d="M.906,543.577s168.777-400.43,486.561-304.768S1080.73,455.792,1264.147,339.43c219.9-139.5,272.46-148.956,383.652-164.485,285.4-39.861,489.12,334.812,711.157,267.051,313.471-95.658,421.083,87.689,421.083,87.689" transform="translate(2.283 311.646)" fill="none" stroke="#a68d60" stroke-width="1"/>
  </g>
</svg>
