<svg xmlns="http://www.w3.org/2000/svg" xmlns:xlink="http://www.w3.org/1999/xlink" width="1691.649" height="519.95" viewBox="0 0 1691.649 519.95">
  <defs>
    <clipPath id="clip-path">
      <rect id="Rectangle_30" data-name="Rectangle 30" width="1691.649" height="519.95" fill="none" stroke="#a68d60" stroke-width="1"/>
    </clipPath>
  </defs>
  <g id="line-shap-home-mobile" clip-path="url(#clip-path)">
    <path id="Path_30" data-name="Path 30" d="M.465.261S80.258,104.4,297.08,180.126c199.011,69.5,357.644,140.21,469.1,69.5,133.623-84.77,156.263-107.525,224.6-111.17,179.109-9.554,383.8,122.847,511.74,67.816s187.636-86.609,187.636-86.609" transform="translate(0.53 0.185)" fill="none" stroke="#a68d60" stroke-width="1"/>
    <path id="Path_31" data-name="Path 31" d="M.913,150.664s102.558-78.51,295.659-20.382,349.112,170.01,460.565,99.3c133.621-84.77,148.5-77.755,216.067-87.191,173.423-24.22,460.567,165.766,588.5,110.736L1689.64,198.1" transform="translate(1.04 77.157)" fill="none" stroke="#a68d60" stroke-width="1"/>
    <path id="Path_32" data-name="Path 32" d="M.465,175s103.5-45.82,296.6,12.307,360.5,131.851,471.953,61.143c133.619-84.77,165.556-90.513,233.124-99.95,173.423-24.22,297.214,203.448,432.135,162.275,190.481-58.129,255.869-67.816,255.869-67.816" transform="translate(0.53 103.981)" fill="none" stroke="#a68d60" stroke-width="1"/>
    <path id="Path_33" data-name="Path 33" d="M.465,346.261s103.5-209.271,296.6-151.142,360.5,131.851,471.953,61.143c133.619-84.77,165.556-90.513,233.124-99.95,173.423-24.22,297.214,203.449,432.135,162.274,190.481-58.127,255.869,53.286,255.869,53.286" transform="translate(0.53 109.521)" fill="none" stroke="#a68d60" stroke-width="1"/>
    <path id="Path_34" data-name="Path 34" d="M.906,397.776S103.464,154.454,296.565,212.583s360.5,131.851,471.951,61.143c133.621-84.77,165.561-90.513,233.126-99.95,173.421-24.221,297.214,203.449,432.135,162.273,190.481-58.127,255.871,53.284,255.871,53.284" transform="translate(1.032 121.901)" fill="none" stroke="#a68d60" stroke-width="1"/>
  </g>
</svg>
