<svg xmlns="http://www.w3.org/2000/svg" xmlns:xlink="http://www.w3.org/1999/xlink" width="204.705" height="106.435" viewBox="0 0 204.705 106.435">
  <defs>
    <clipPath id="clip-path">
      <rect id="Rectangle_41" data-name="Rectangle 41" width="204.705" height="106.435" fill="none"/>
    </clipPath>
  </defs>
  <g id="logo" clip-path="url(#clip-path)">
    <path id="Path_89" data-name="Path 89" d="M15.807,132.509v2.237q0,4.53-4.511,4.53H1.128A1.014,1.014,0,0,1,0,138.11v-9.022a1,1,0,0,1,1.128-1.109L11.3,128q4.511,0,4.511,4.511M2.256,137.02h9.022a2.01,2.01,0,0,0,2.274-2.274v-2.237a2.039,2.039,0,0,0-2.274-2.293H2.237Z" transform="translate(0 -67.425)" fill="#fff"/>
    <path id="Path_90" data-name="Path 90" d="M37.38,138.126l1.955-9.059a1.359,1.359,0,0,1,1.428-1.128h9.059a1.237,1.237,0,0,1,1.334,1.146l2.086,9.022q0,1.128-.987,1.128t-1.287-1.147l-.883-3.345H40.35l-.714,3.4a1.231,1.231,0,0,1-1.259,1.109q-1,0-1-1.128M49.8,132.468l-.582-2.256H41.271l-.526,2.256Z" transform="translate(-19.694 -67.404)" fill="#fff"/>
    <path id="Path_91" data-name="Path 91" d="M78.32,128.037l11.239-.019a.972.972,0,0,1,1.1,1.109,1,1,0,0,1-1.1,1.128l-11.239-.018q-1.166.056-1.156,1.165a1.006,1.006,0,0,0,1.156,1.109H87.3q3.4,0,3.411,3.383t-3.393,3.384H76.046a.989.989,0,0,1-1.128-1.109,1.007,1.007,0,0,1,1.128-1.128H87.3a1.017,1.017,0,0,0,1.118-1.147,1,1,0,0,0-1.137-1.128H78.32q-3.4,0-3.4-3.364t3.4-3.365" transform="translate(-39.47 -67.446)" fill="#fff"/>
    <path id="Path_92" data-name="Path 92" d="M139.453,128l10.169-.019a.975.975,0,0,1,1.1,1.119.985.985,0,0,1-1.1,1.118H139.453a2.031,2.031,0,0,0-2.256,2.293v2.237a2.01,2.01,0,0,0,2.274,2.274h9.022v-2.274h-5.639a1.137,1.137,0,0,1,.019-2.274h5.6a2.029,2.029,0,0,1,2.293,2.274v2.274a2.021,2.021,0,0,1-2.293,2.255h-9.022q-4.51,0-4.511-4.529v-2.237q0-4.511,4.511-4.511" transform="translate(-71.094 -67.425)" fill="#fff"/>
    <path id="Path_93" data-name="Path 93" d="M188.209,132.508v2.237q0,4.53-4.511,4.529h-6.766q-4.53,0-4.53-4.529v-2.256q.018-4.51,4.511-4.511L183.7,128q4.512,0,4.511,4.511m-13.57,0,.019,2.256a1.993,1.993,0,0,0,2.255,2.256h6.767a2.01,2.01,0,0,0,2.274-2.274v-2.237a2.039,2.039,0,0,0-2.274-2.293h-6.767a2.018,2.018,0,0,0-2.274,2.293" transform="translate(-90.829 -67.425)" fill="#fff"/>
    <path id="Path_94" data-name="Path 94" d="M210.9,127.939a1.011,1.011,0,0,1,1.137,1.128V137h11.352l-.019-1.146a1.128,1.128,0,1,1,2.256.019v2.237a1,1,0,0,1-1.128,1.146H210.909a1,1,0,0,1-1.128-1.128v-9.059a.993.993,0,0,1,1.119-1.128" transform="translate(-110.522 -67.404)" fill="#fff"/>
    <path id="Path_95" data-name="Path 95" d="M263.088,132.509v2.237q0,4.53-4.511,4.53H248.409a1.013,1.013,0,0,1-1.128-1.165v-9.022a1,1,0,0,1,1.128-1.109l10.168.019q4.511,0,4.511,4.511m-13.552,4.511h9.022a2.011,2.011,0,0,0,2.274-2.274v-2.237a2.039,2.039,0,0,0-2.274-2.293h-9.041Z" transform="translate(-130.279 -67.425)" fill="#fff"/>
    <path id="Path_96" data-name="Path 96" d="M284.661,138.126v-9.059a1,1,0,0,1,1.128-1.128h11.3q3.421,0,3.4,3.4-.018,2.218-1.09,2.218,1.053.057,1.071,2.331.038,3.346-3.345,3.346l-11.334.019a1,1,0,0,1-1.128-1.128m12.462-7.913H286.917v2.255h10.206a.984.984,0,0,0,1.118-1.118,1.013,1.013,0,0,0-1.118-1.137m1.118,5.629a.993.993,0,0,0-1.156-1.1H286.917v2.237l10.187-.037q1.146.018,1.137-1.1" transform="translate(-149.973 -67.404)" fill="#fff"/>
    <path id="Path_97" data-name="Path 97" d="M322.161,138.126v-9.059a1,1,0,0,1,1.128-1.128h13.589a1.137,1.137,0,0,1,0,2.274H324.416v2.256h10.206a1.137,1.137,0,0,1,0,2.274H324.416V137h12.462a1.128,1.128,0,0,1,0,2.255H323.289a1,1,0,0,1-1.128-1.128" transform="translate(-169.729 -67.404)" fill="#fff"/>
    <path id="Path_98" data-name="Path 98" d="M359.658,138.128v-9.022a1,1,0,0,1,1.128-1.128h11.258q3.4,0,3.4,3.384t-3.4,3.4h-1.56l4.323,2.349a.987.987,0,0,1,.413,1.542,1,1,0,0,1-1.541.395l-7.237-4.3h-4.529v3.384a1.012,1.012,0,0,1-1.138,1.128.993.993,0,0,1-1.119-1.128m12.425-7.876H361.914v2.256h10.15a.992.992,0,0,0,1.136-1.119,1.012,1.012,0,0,0-1.118-1.137" transform="translate(-189.484 -67.425)" fill="#fff"/>
    <path id="Path_99" data-name="Path 99" d="M401.551,128l10.168-.019a.975.975,0,0,1,1.1,1.119.985.985,0,0,1-1.1,1.118H401.551a2.031,2.031,0,0,0-2.256,2.293v2.237a2.01,2.01,0,0,0,2.274,2.274h9.022v-2.274h-5.639a1.137,1.137,0,0,1,.019-2.274h5.6a2.029,2.029,0,0,1,2.294,2.274v2.274a2.021,2.021,0,0,1-2.294,2.255h-9.021q-4.51,0-4.511-4.529v-2.237q0-4.511,4.511-4.511" transform="translate(-209.179 -67.425)" fill="#fff"/>
    <path id="Path_100" data-name="Path 100" d="M117.613,142.767a1.016,1.016,0,0,1,1.146,1.128l-.019,2.03a1.128,1.128,0,1,1-2.256.018v-2.048a1,1,0,0,1,1.128-1.128" transform="translate(-61.37 -75.216)" fill="#fff"/>
    <path id="Path_101" data-name="Path 101" d="M164.79.077,206.492,0Q211.039,0,211,4.586t-4.509,4.587h-41.7q-9.25.155-9.25,9.4V27.75q0,9.328,9.327,9.327h37V27.75H178.742q-4.625,0-4.625-4.663t4.7-4.663H201.79q9.4.078,9.4,9.327v9.327q-.078,9.25-9.4,9.25h-37q-18.5,0-18.5-18.577V18.577q0-18.5,18.5-18.5" transform="translate(-77.072)" fill="#fff"/>
    <path id="Path_102" data-name="Path 102" d="M224.972,194.5c0,.062.03.062.03,0,.185-.369.338-.769.554-1.138.215-.338.277-.862.769-.923a1.5,1.5,0,0,1,.093.984,8.125,8.125,0,0,0-.031,3.106c.769-.523,1.292-1.784,1.968-2.368.092-.062.277-.215.461-.185.554.092.215,1.353.8,1.476a4.847,4.847,0,0,0,2.276-1.445c.247-.154.338-.584.677-.523,0,.308-.339.462-.492.708a6.155,6.155,0,0,1-.677.584,3.2,3.2,0,0,1-1.845.923c-.031,0-.031-.031-.031,0-.554-.185-.523-.953-.738-1.476-.554.277-.8.861-1.2,1.292-.369.431-.554,1.076-1.23,1.261-.277-.093-.338-.4-.369-.708-.061-1.046.185-2.276.215-3.291a14.768,14.768,0,0,0-1.477,3.045,21.734,21.734,0,0,0-.769,2.707c-.03.123-.154.8-.338.8-.215,0-.123-.246-.093-.4a7.941,7.941,0,0,1,.37-1.476,47.262,47.262,0,0,1,1.722-5.567c.185-.277.185-.738.616-.8a.7.7,0,0,1-.031.769c-.185.031-.154-.185-.123-.308A14.571,14.571,0,0,0,225,194.5Z" transform="translate(-117.74 -100.671)" fill="#fff"/>
    <path id="Path_103" data-name="Path 103" d="M223.54,199.314a.2.2,0,0,1-.167-.07c-.071-.09-.038-.228-.01-.349.006-.023.011-.045.015-.066a8,8,0,0,1,.372-1.487c.158-.536.309-1.1.456-1.641a27.741,27.741,0,0,1,1.268-3.93,1.489,1.489,0,0,0,.133-.285c.092-.238.2-.508.537-.557l.031,0,.024.019a.608.608,0,0,1,.125.478c-.005.076-.032.328-.164.407l-.025.009a.185.185,0,0,1-.176-.05.177.177,0,0,1-.026-.036,13.12,13.12,0,0,0-.7,1.829c.056-.116.116-.23.181-.343a2.245,2.245,0,0,0,.15-.3c.128-.287.273-.612.672-.661l.041-.005.025.033a1.363,1.363,0,0,1,.115.935l-.009.1c-.018.193-.042.394-.067.6a6.405,6.405,0,0,0,0,2.385,5.332,5.332,0,0,0,1.014-1.22,5.66,5.66,0,0,1,.871-1.087l.045-.032a.685.685,0,0,1,.474-.169c.324.054.386.42.445.773.055.329.108.64.344.7a4.335,4.335,0,0,0,2.032-1.247l.2-.179a.878.878,0,0,0,.221-.235c.122-.165.267-.352.516-.3l.059.01v.059a.735.735,0,0,1-.3.517,1.316,1.316,0,0,0-.2.228,5.9,5.9,0,0,1-.695.6c-.069.053-.137.106-.2.161a2.883,2.883,0,0,1-1.645.773v.02l-.09-.021c-.427-.142-.533-.588-.637-1.019a4.043,4.043,0,0,0-.116-.423,2.487,2.487,0,0,0-.738.767,4.982,4.982,0,0,1-.373.472,3.648,3.648,0,0,0-.283.4,1.707,1.707,0,0,1-.98.879l-.02.006-.021-.007c-.309-.1-.383-.43-.417-.768a12.636,12.636,0,0,1,.108-2.006c.038-.364.075-.712.1-1.043a16.27,16.27,0,0,0-1.328,2.821,16.967,16.967,0,0,0-.644,2.2c-.04.162-.08.327-.122.5,0,.015-.009.037-.015.065-.1.473-.21.789-.392.789m2.589-8.237c-.229.05-.3.241-.388.461a1.552,1.552,0,0,1-.142.3,27.775,27.775,0,0,0-1.255,3.9c-.147.544-.3,1.107-.458,1.648a7.943,7.943,0,0,0-.367,1.467c0,.025-.01.049-.017.074-.018.077-.044.193-.017.228.01.014.036.016.055.016s.113-.032.254-.677c.007-.03.012-.053.016-.069.042-.168.082-.334.122-.5a17.157,17.157,0,0,1,.649-2.22,14.958,14.958,0,0,1,1.484-3.06l.136-.194-.007.237c-.013.409-.059.844-.108,1.3a12.488,12.488,0,0,0-.108,1.98c.033.322.1.556.3.637a1.621,1.621,0,0,0,.877-.812,3.7,3.7,0,0,1,.3-.421,4.895,4.895,0,0,0,.363-.461,2.477,2.477,0,0,1,.859-.848l.068-.034.029.07a3.536,3.536,0,0,1,.151.519c.095.4.185.769.5.9l.036-.015.026.026a2.718,2.718,0,0,0,1.581-.745c.069-.054.138-.109.208-.162a6.105,6.105,0,0,0,.67-.579,1.3,1.3,0,0,1,.214-.242.737.737,0,0,0,.25-.35c-.122.007-.2.105-.312.254a.964.964,0,0,1-.25.264l-.185.17a4.422,4.422,0,0,1-2.114,1.284l-.015,0-.015,0c-.343-.072-.41-.469-.468-.82-.054-.318-.1-.619-.328-.656a.549.549,0,0,0-.369.145l-.041.029a5.61,5.61,0,0,0-.839,1.055,4.933,4.933,0,0,1-1.128,1.313l-.077.052-.03-.088a6.115,6.115,0,0,1-.039-2.539c.025-.205.048-.406.066-.6l.009-.1a1.4,1.4,0,0,0-.064-.8c-.288.057-.4.308-.518.572a2.5,2.5,0,0,1-.158.312,7.812,7.812,0,0,0-.35.705c-.064.14-.127.278-.194.413-.008.1-.078.1-.086.1s-.087,0-.087-.117v-.071h.047a14.269,14.269,0,0,1,1.068-2.914l.132.051c-.035.136-.02.2-.006.214a.033.033,0,0,0,.033.007.5.5,0,0,0,.085-.287.6.6,0,0,0-.053-.337" transform="translate(-117.661 -100.588)" fill="#fff"/>
    <path id="Path_104" data-name="Path 104" d="M243.211,194.914a2.8,2.8,0,0,1-1.2.769c-.4.676-1.107,2-.523,2.922a1.588,1.588,0,0,0,.4.154,6.361,6.361,0,0,0,2.8-1.077,20.232,20.232,0,0,0,2.307-1.568,7.154,7.154,0,0,0,.984-.954c.092-.092.184-.277.338-.246.092.277-.247.554-.431.738-.216.215-.493.431-.677.616a15.056,15.056,0,0,1-4.921,2.768,1.3,1.3,0,0,1-1.046-.308c-.584-.891,0-2.275.369-2.952.092-.092-.062-.123,0-.246.031-.093.185-.062.246-.123a3.838,3.838,0,0,1,1.415-1.476.319.319,0,0,1,.4,0c.123.431-.215.738-.461.984m-.954.369a2.168,2.168,0,0,0,1.138-1.138,3.648,3.648,0,0,0-1.138,1.138c-.03.03,0,.03,0,0" transform="translate(-126.967 -102.134)" fill="#fff"/>
    <path id="Path_105" data-name="Path 105" d="M242.064,199.029a1.281,1.281,0,0,1-.949-.332c-.641-.975.036-2.448.357-3.036l.012-.017c.009-.01,0-.021,0-.029a.194.194,0,0,1-.012-.2c.026-.082.116-.1.182-.115a.292.292,0,0,0,.073-.022,3.933,3.933,0,0,1,1.43-1.49.416.416,0,0,1,.253-.082h0a.327.327,0,0,1,.237.093l.018.03a1.049,1.049,0,0,1-.442,1.016l-.037.038a2.878,2.878,0,0,1-1.2.778c-.29.49-1.091,1.876-.52,2.807a1.464,1.464,0,0,0,.355.137,5.934,5.934,0,0,0,2.6-.977l.156-.09a20.289,20.289,0,0,0,2.295-1.56,7.063,7.063,0,0,0,.977-.946c.025-.026.045-.051.066-.077.077-.1.184-.224.34-.193l.041.008.013.039c.1.287-.178.55-.377.742l-.071.069c-.113.113-.242.225-.365.333s-.224.2-.311.282a15.182,15.182,0,0,1-4.951,2.786c-.058,0-.114.006-.167.006m-.472-3.292c-.31.572-.954,1.976-.367,2.872a1.254,1.254,0,0,0,.982.276,15.106,15.106,0,0,0,4.883-2.754c.083-.084.194-.18.31-.282s.249-.217.358-.327l.073-.07c.159-.153.371-.358.352-.546-.052.012-.1.066-.159.141a1.049,1.049,0,0,1-.072.084,7.163,7.163,0,0,1-.989.959,20.485,20.485,0,0,1-2.317,1.575l-.154.089a6.039,6.039,0,0,1-2.674,1h-.01l-.009,0a1.639,1.639,0,0,1-.418-.16l-.018-.009-.011-.017c-.646-1.02.233-2.507.522-3l.014-.024.027-.008a2.735,2.735,0,0,0,1.169-.751l.038-.038c.235-.234.5-.5.41-.858a.2.2,0,0,0-.123-.038h0a.267.267,0,0,0-.163.051l-.022.014a3.786,3.786,0,0,0-1.383,1.447l-.01.015a.282.282,0,0,1-.149.064c-.034.008-.076.017-.081.031a.062.062,0,0,0,0,.075.146.146,0,0,1-.014.19m.543-.428-.03-.048a.078.078,0,0,1,0-.082v-.017l.024-.014A3.645,3.645,0,0,1,243.282,194l.156-.093-.051.174a2.213,2.213,0,0,1-1.146,1.166.083.083,0,0,1-.052.044Zm1.033-1.061a3.487,3.487,0,0,0-.733.721,1.99,1.99,0,0,0,.733-.721" transform="translate(-126.891 -102.054)" fill="#fff"/>
    <path id="Path_106" data-name="Path 106" d="M256.717,193.578a7.815,7.815,0,0,0-.247,1.815c0,.123.185.154.093.308-.4.123-.4-.37-.37-.646a10.466,10.466,0,0,1,.431-2.123,1.949,1.949,0,0,1,.216-.646c0-.031.03-.031.061-.031h.093a4.079,4.079,0,0,1-.277,1.322m.922-4.152a.623.623,0,0,1-.461.123c-.154-.277.277-.431.461-.246Z" transform="translate(-134.968 -99.691)" fill="#fff"/>
    <path id="Path_107" data-name="Path 107" d="M256.368,195.712a.283.283,0,0,1-.186-.064c-.162-.134-.164-.444-.138-.68a10.473,10.473,0,0,1,.433-2.135l.027-.112a1.626,1.626,0,0,1,.189-.545c.01-.037.044-.07.128-.07h.155l.008.062a1.97,1.97,0,0,1-.147.89,3.866,3.866,0,0,0-.13.455h0a7.793,7.793,0,0,0-.244,1.8c0,.022.016.042.043.072a.207.207,0,0,1,.039.272l-.014.023-.026.008a.486.486,0,0,1-.137.023m.453-3.464-.01.009a1.538,1.538,0,0,0-.168.5l-.028.116a10.4,10.4,0,0,0-.429,2.109c-.032.285,0,.487.087.559a.18.18,0,0,0,.163.023c.011-.029,0-.044-.036-.081a.251.251,0,0,1-.079-.167,7.921,7.921,0,0,1,.248-1.829,3.88,3.88,0,0,1,.135-.471,1.991,1.991,0,0,0,.147-.766h-.029Zm.372-2.7a.6.6,0,0,1-.106-.009l-.034-.006-.017-.029a.261.261,0,0,1,.067-.355.4.4,0,0,1,.506.025l.021.02v.193l-.035.021a.755.755,0,0,1-.4.141m-.047-.144a.531.531,0,0,0,.343-.1v-.05a.27.27,0,0,0-.3.007.113.113,0,0,0-.043.141" transform="translate(-134.889 -99.612)" fill="#fff"/>
    <path id="Path_108" data-name="Path 108" d="M261.4,197.9c0,.061.031.031.031,0a14.441,14.441,0,0,1,1.846-2.768c.154-.062.215-.215.431-.215a.331.331,0,0,1,.185.062c.338.492.092,1.6.4,2.153.062.123.185.123.215.247-.215.276-.4-.031-.431-.154-.277-.554-.153-1.507-.369-2.061a6.184,6.184,0,0,0-1.507,1.907,12.547,12.547,0,0,0-.861,1.692c-.153.031-.092.523-.369.492-.215-.031-.031-.646.03-.891a25.9,25.9,0,0,1,.862-2.707c0-.092-.061-.123-.061-.185.154-.185.215-.584.492-.554.154.215-.062.461-.154.677-.277.707-.492,1.476-.708,2.215v.092Z" transform="translate(-137.437 -102.69)" fill="#fff"/>
    <path id="Path_109" data-name="Path 109" d="M260.916,199.248l-.034,0a.167.167,0,0,1-.119-.075c-.1-.147-.024-.474.068-.824l.021-.081a26.173,26.173,0,0,1,.858-2.7.144.144,0,0,0-.025-.064.2.2,0,0,1-.036-.108v-.026l.017-.019a1.12,1.12,0,0,0,.119-.206c.088-.178.2-.4.435-.373l.031,0,.018.026c.144.2.025.421-.071.6-.028.051-.055.1-.076.148-.225.576-.411,1.2-.589,1.808a12.654,12.654,0,0,1,1.61-2.346l.026-.018a.535.535,0,0,0,.129-.084.48.48,0,0,1,.328-.136.328.328,0,0,1,.184.052l.059.04a2.314,2.314,0,0,1,.225,1.125,2.572,2.572,0,0,0,.177,1.033.257.257,0,0,0,.091.095.286.286,0,0,1,.132.169l.009.033-.021.027a.277.277,0,0,1-.28.135c-.157-.033-.254-.226-.276-.315a3.249,3.249,0,0,1-.216-1.129,4.2,4.2,0,0,0-.121-.839,4.392,4.392,0,0,0-1.089,1.333c-.1.168-.211.34-.323.5a12.3,12.3,0,0,0-.854,1.678l-.014.035-.038.008c-.021,0-.052.111-.065.157-.039.137-.1.338-.292.338m.881-3.838.011.02a.272.272,0,0,1,.045.148l-.005.026a25.928,25.928,0,0,0-.858,2.7l-.021.082c-.047.181-.157.6-.087.71a.023.023,0,0,0,.018.013c.083.008.121-.062.171-.235.029-.1.059-.2.134-.242a12.5,12.5,0,0,1,.855-1.672c.112-.165.219-.336.322-.5a4.245,4.245,0,0,1,1.208-1.428l.072-.046.032.08a3.593,3.593,0,0,1,.159.964,3.181,3.181,0,0,0,.207,1.091c.022.079.094.208.173.225.033.009.072-.01.113-.053a.238.238,0,0,0-.064-.058.385.385,0,0,1-.133-.143,2.65,2.65,0,0,1-.194-1.093,2.311,2.311,0,0,0-.192-1.037l-.02-.011a.194.194,0,0,0-.115-.034.345.345,0,0,0-.239.1.668.668,0,0,1-.149.1,14.465,14.465,0,0,0-1.816,2.727v.053H261.4a.084.084,0,0,1-.141-.018.143.143,0,0,1-.009-.053v-.071h.031l0-.041.065-.223c.194-.668.395-1.358.644-2,.023-.054.052-.108.082-.162.1-.177.157-.306.1-.419-.11.007-.173.119-.26.3a1.344,1.344,0,0,1-.115.206" transform="translate(-137.358 -102.612)" fill="#fff"/>
    <path id="Path_110" data-name="Path 110" d="M283.844,189.328c.092.154-.061.338-.154.492a36.948,36.948,0,0,0-2.952,7.9c.861-1.384,1.538-3.2,2.553-4.614.123-.185.369-.492.584-.461.37,0,.308.769.308,1.2a14.591,14.591,0,0,0,.185,2.86c.062.4.185.984.523.984.369.031.677-.615.861-.953a10.1,10.1,0,0,0,.462-1.353,7.362,7.362,0,0,0,.246-3.2c0-.123-.277,0-.246-.154.277-.462.461.03.522.215a6.893,6.893,0,0,1-.215,2.891A8.147,8.147,0,0,1,286,196.8c-.185.431-.616,1.261-1.231,1.138-.646-.092-.738-1.446-.769-2.184-.062-.954,0-2-.123-2.86a3.816,3.816,0,0,0-.923,1.261c-.646,1.107-1.23,2.368-1.876,3.537-.092.215-.215.554-.492.584-.246-.369-.031-.861.062-1.231a34.729,34.729,0,0,1,1.138-3.445,25.3,25.3,0,0,1,1.876-4.244.113.113,0,0,1,.093-.031Z" transform="translate(-147.765 -99.747)" fill="#fff"/>
    <path id="Path_111" data-name="Path 111" d="M280.471,198.274l-.024-.036a1.3,1.3,0,0,1,0-1.092c.019-.068.038-.133.054-.195a35.136,35.136,0,0,1,1.14-3.453,25.514,25.514,0,0,1,1.882-4.256.186.186,0,0,1,.153-.066h.132l.021.035c.1.168-.015.348-.108.493-.016.025-.032.049-.045.072a35,35,0,0,0-2.8,7.374c.262-.463.509-.96.768-1.478a19.77,19.77,0,0,1,1.517-2.683c.125-.187.367-.493.612-.493l.041,0h0a.271.271,0,0,1,.2.086c.185.188.178.648.172,1.019,0,.058,0,.114,0,.165a14.5,14.5,0,0,0,.183,2.847c.035.231.142.926.453.926h.02c.289,0,.563-.511.727-.82l.053-.1a10.06,10.06,0,0,0,.456-1.339,7.327,7.327,0,0,0,.244-3.165.181.181,0,0,0-.057-.008.211.211,0,0,1-.167-.059.135.135,0,0,1-.022-.115l.009-.023c.1-.163.2-.232.308-.225.134.015.247.163.344.455a6.841,6.841,0,0,1-.214,2.93,8.176,8.176,0,0,1-.527,1.674c-.367.854-.837,1.271-1.309,1.178-.652-.093-.784-1.251-.826-2.251-.025-.38-.03-.782-.035-1.17a14.951,14.951,0,0,0-.071-1.561,3.114,3.114,0,0,0-.648.889c-.053.092-.1.185-.16.277-.363.622-.714,1.308-1.054,1.973-.265.517-.539,1.051-.82,1.562l-.017.04c-.092.218-.231.547-.529.581Zm3.2-8.954c-.029,0-.033,0-.042.01a25.6,25.6,0,0,0-1.86,4.219,34.844,34.844,0,0,0-1.136,3.437c-.016.063-.035.131-.055.2a1.255,1.255,0,0,0-.04.934c.188-.053.293-.3.371-.486l.02-.047c.284-.514.557-1.048.821-1.564.341-.665.693-1.354,1.059-1.98.055-.091.106-.183.159-.275a2.927,2.927,0,0,1,.784-1.008l.095-.068.017.115a13.891,13.891,0,0,1,.089,1.7c0,.386.009.786.034,1.165.021.5.086,2.029.708,2.118.541.112.959-.639,1.155-1.1a8.055,8.055,0,0,0,.519-1.649,6.927,6.927,0,0,0,.215-2.858c-.105-.316-.2-.35-.223-.353s-.1.045-.157.136l.053,0c.062,0,.19.011.19.136a7.442,7.442,0,0,1-.248,3.216,10.245,10.245,0,0,1-.466,1.366l-.054.1c-.191.359-.478.9-.846.9h-.032c-.382,0-.518-.6-.587-1.044a14.587,14.587,0,0,1-.185-2.871c0-.052,0-.108,0-.167,0-.326.012-.772-.131-.917a.142.142,0,0,0-.107-.044l-.023,0c-.16,0-.361.219-.5.431a19.647,19.647,0,0,0-1.507,2.666c-.348.7-.676,1.353-1.045,1.946l-.129-.056a36.418,36.418,0,0,1,2.959-7.921c.016-.027.033-.052.049-.078.083-.128.141-.229.121-.308Z" transform="translate(-147.686 -99.667)" fill="#fff"/>
    <path id="Path_112" data-name="Path 112" d="M299.238,194.914a2.8,2.8,0,0,1-1.2.769c-.4.676-1.107,2-.522,2.922a1.58,1.58,0,0,0,.4.154,6.361,6.361,0,0,0,2.8-1.077,20.19,20.19,0,0,0,2.307-1.568,7.128,7.128,0,0,0,.984-.954c.092-.092.185-.277.338-.246.092.277-.246.554-.43.738-.216.215-.493.431-.677.616a15.052,15.052,0,0,1-4.921,2.768,1.3,1.3,0,0,1-1.046-.308c-.584-.891,0-2.275.37-2.952.092-.092-.061-.123,0-.246.03-.093.184-.062.246-.123a3.842,3.842,0,0,1,1.415-1.476.319.319,0,0,1,.4,0c.124.431-.215.738-.461.984m-.953.369a2.166,2.166,0,0,0,1.137-1.138,3.647,3.647,0,0,0-1.137,1.138c-.031.03,0,.03,0,0" transform="translate(-156.485 -102.134)" fill="#fff"/>
    <path id="Path_113" data-name="Path 113" d="M298.092,199.029a1.284,1.284,0,0,1-.949-.331c-.641-.976.036-2.449.357-3.037l.012-.016c.009-.01,0-.021,0-.029a.194.194,0,0,1-.011-.2c.026-.082.116-.1.181-.115a.293.293,0,0,0,.073-.022,3.871,3.871,0,0,1,1.43-1.49.416.416,0,0,1,.253-.082h0a.326.326,0,0,1,.237.093l.018.03a1.05,1.05,0,0,1-.442,1.017l-.037.037a2.885,2.885,0,0,1-1.2.778c-.289.49-1.09,1.876-.52,2.807a1.452,1.452,0,0,0,.355.137,5.934,5.934,0,0,0,2.6-.977l.156-.09a20.21,20.21,0,0,0,2.3-1.564,7,7,0,0,0,.972-.942c.025-.026.045-.051.067-.078.077-.095.184-.223.34-.192l.041.008.013.039c.1.287-.178.55-.377.742-.025.024-.049.047-.071.069-.114.114-.243.226-.367.334s-.223.194-.31.281a15.187,15.187,0,0,1-4.951,2.785c-.058,0-.114.006-.167.006m-.472-3.292c-.31.571-.955,1.975-.368,2.872a1.251,1.251,0,0,0,.982.276,15.093,15.093,0,0,0,4.883-2.754c.083-.084.193-.179.309-.281s.25-.218.36-.328l.072-.07c.158-.153.371-.358.352-.546-.051.013-.1.066-.159.141-.025.031-.049.06-.073.084a7.078,7.078,0,0,1-.989.959,20.386,20.386,0,0,1-2.317,1.575l-.154.089a6.039,6.039,0,0,1-2.673,1h-.01l-.009,0a1.611,1.611,0,0,1-.418-.16l-.018-.009-.011-.017c-.646-1.02.233-2.507.522-3l.014-.024.027-.008a2.735,2.735,0,0,0,1.169-.751l.037-.037c.236-.234.5-.5.411-.858a.2.2,0,0,0-.123-.039h0a.267.267,0,0,0-.163.051l-.022.014a3.79,3.79,0,0,0-1.383,1.447l-.01.015a.282.282,0,0,1-.149.064c-.034.007-.076.017-.08.031a.062.062,0,0,0,0,.075.146.146,0,0,1-.014.19m.543-.428-.029-.048a.077.077,0,0,1,0-.082v-.017l.024-.014A3.64,3.64,0,0,1,299.309,194l.156-.093-.051.174a2.211,2.211,0,0,1-1.146,1.166.083.083,0,0,1-.052.044Zm1.034-1.061a3.444,3.444,0,0,0-.733.721,1.991,1.991,0,0,0,.733-.721" transform="translate(-156.408 -102.054)" fill="#fff"/>
    <path id="Path_114" data-name="Path 114" d="M316.02,192.3a2.912,2.912,0,0,0-1.692,1.015,13.315,13.315,0,0,0-2.8,3.875,1.964,1.964,0,0,1-.461.861c-.215-.062-.062-.369-.062-.523.277-.953.554-2,.862-2.922.092-.308.123-.677.4-.831.247.124.062.616.062.831a.464.464,0,0,1-.215.03c-.185.585-.339,1.2-.523,1.815a16.357,16.357,0,0,1,2.86-3.6c.369-.307.892-.8,1.353-.8.462-.031.83.4.615.769-.277-.031-.153-.461-.4-.523" transform="translate(-163.825 -101.183)" fill="#fff"/>
    <path id="Path_115" data-name="Path 115" d="M311.005,198.053l-.035-.009c-.22-.063-.169-.3-.136-.453a.746.746,0,0,0,.022-.139l0-.02c.079-.271.158-.549.237-.829.2-.7.405-1.434.626-2.1.018-.06.035-.124.051-.189a.961.961,0,0,1,.382-.681l.033-.018.034.017c.227.113.172.429.128.682a1.453,1.453,0,0,0-.027.212v.044l-.04.02a.436.436,0,0,1-.194.037c-.1.312-.185.628-.278.96-.029.1-.057.207-.087.311a15.958,15.958,0,0,1,2.6-3.18l.129-.108a2.35,2.35,0,0,1,1.272-.709.741.741,0,0,1,.665.328.517.517,0,0,1,.012.547l-.024.04-.046,0c-.191-.022-.238-.185-.276-.315-.032-.113-.056-.184-.123-.207a2.6,2.6,0,0,0-1.52.885l-.116.11a13.216,13.216,0,0,0-2.783,3.853c-.031.069-.057.145-.086.223a1.355,1.355,0,0,1-.4.664Zm-.007-.59a.882.882,0,0,1-.026.158c-.033.155-.041.236.006.271a1.314,1.314,0,0,0,.317-.573c.029-.082.057-.161.09-.234a13.367,13.367,0,0,1,2.814-3.9l.117-.111a2.735,2.735,0,0,1,1.618-.925h.012l.011,0c.158.04.2.189.235.308s.057.176.11.2a.375.375,0,0,0-.034-.354.585.585,0,0,0-.539-.261,2.315,2.315,0,0,0-1.185.675l-.127.108a16.568,16.568,0,0,0-2.845,3.581l-.129-.057c.08-.268.155-.536.229-.8.094-.336.19-.684.3-1.015l.015-.05h.052a.638.638,0,0,0,.147-.009c.005-.055.016-.119.027-.185.033-.19.072-.422-.022-.511a.927.927,0,0,0-.278.569c-.017.067-.034.134-.053.2-.22.661-.425,1.388-.624,2.091-.079.278-.157.553-.234.82" transform="translate(-163.746 -101.105)" fill="#fff"/>
    <path id="Path_116" data-name="Path 116" d="M316.885,167.527c.03.154-.185.062-.216.092-.584,1.968-1.107,4.06-1.569,6.182a88.688,88.688,0,0,1,12.487-.769,7.327,7.327,0,0,1,2.861.492c.215.123.554.277.523.554-.247.062-.4-.246-.677-.37a9.148,9.148,0,0,0-3.69-.461,90.062,90.062,0,0,0-11.565.83c-1.014,4.675-1.968,9.35-2.645,14.394a31.51,31.51,0,0,0-.431,5.2c0,.185.277.185.154.4-.462.154-.431-.615-.431-1.046a32.891,32.891,0,0,1,.523-4.983c.677-4.767,1.569-9.473,2.552-13.9-2.983.369-5.72.984-8.489,1.569-.123,0,0,.185-.153.215-.247,0-.554.031-.646-.123.031-.215.308-.246.461-.277,2.8-.677,5.814-1.2,8.858-1.661a74.025,74.025,0,0,1,1.968-7.289c.031-.031.061-.031.092-.062.338.092.031.738.031,1.015" transform="translate(-160.938 -87.726)" fill="#fff"/>
    <path id="Path_117" data-name="Path 117" d="M311.924,194.073a.285.285,0,0,1-.17-.054c-.223-.161-.221-.65-.22-1.006v-.077a31.039,31.039,0,0,1,.483-4.727l.041-.266c.625-4.406,1.477-9.051,2.531-13.809-2.613.329-5.079.853-7.464,1.361l-.925.2c0,.007,0,.016,0,.023a.181.181,0,0,1-.146.192l-.12,0c-.245,0-.5.009-.6-.158l-.013-.022,0-.025c.036-.247.311-.3.476-.328l.043-.009c2.4-.579,5.2-1.105,8.815-1.655.2-.76.388-1.552.569-2.318a38.982,38.982,0,0,1,1.391-4.934l.016-.025a.229.229,0,0,1,.065-.045.093.093,0,0,0,.028-.017l.029-.028.039.01c.3.082.212.467.138.776a1.651,1.651,0,0,0-.055.3.139.139,0,0,1-.029.123.213.213,0,0,1-.191.042h-.012c-.542,1.832-1.058,3.861-1.533,6.036l1.153-.122a78.9,78.9,0,0,1,11.246-.637,7.4,7.4,0,0,1,2.89.5l.072.04c.22.122.522.29.49.585l-.006.049-.048.012c-.185.045-.324-.072-.458-.187a1.138,1.138,0,0,0-.265-.186,9.122,9.122,0,0,0-3.661-.455,89.1,89.1,0,0,0-11.506.823c-1.117,5.149-1.992,9.561-2.634,14.339-.028.219-.058.44-.087.661a26.819,26.819,0,0,0-.343,4.526c0,.048.027.074.076.116a.226.226,0,0,1,.069.321l-.014.024-.025.008a.425.425,0,0,1-.135.024m2.848-20.1-.022.1c-1.064,4.788-1.922,9.464-2.551,13.9l-.041.267a30.89,30.89,0,0,0-.481,4.705v.077c0,.289,0,.772.161.89a.173.173,0,0,0,.15.018c.024-.053,0-.071-.052-.12a.287.287,0,0,1-.124-.221,27.089,27.089,0,0,1,.344-4.547c.029-.221.059-.441.088-.661.644-4.8,1.523-9.226,2.646-14.4l.011-.049.049-.007a89.449,89.449,0,0,1,11.574-.831,9.2,9.2,0,0,1,3.721.468,1.264,1.264,0,0,1,.3.206c.112.1.192.16.278.163-.023-.171-.24-.291-.417-.389l-.07-.039a7.3,7.3,0,0,0-2.828-.483,77.95,77.95,0,0,0-11.226.636l-1.252.132-.1.01.021-.1c.485-2.232,1.014-4.313,1.57-6.187l.017-.03a.152.152,0,0,1,.13-.024.248.248,0,0,0,.077,0l-.012-.018a1.677,1.677,0,0,1,.059-.34c.071-.3.115-.529-.008-.594l-.026.013-.018.01a39.26,39.26,0,0,0-1.378,4.9c-.185.782-.375,1.59-.582,2.367l-.012.045-.046.007c-3.635.551-6.448,1.079-8.852,1.66l-.047.009c-.167.031-.319.068-.355.182.077.077.289.071.461.07h.108c.01,0,.014,0,.018-.061s.011-.154.135-.154l.9-.193c2.419-.514,4.921-1.046,7.577-1.375Z" transform="translate(-160.856 -87.639)" fill="#fff"/>
    <path id="Path_118" data-name="Path 118" d="M332.484,190.1c.062.185-.215.277-.277.43-.338.431-.646.892-.984,1.323-.4.615-.8,1.23-1.23,1.815-.369.646-.8,1.23-1.2,1.845-.461.554-.707,1.322-1.445,1.6-.338-.185-.277-.677-.216-1.107a17.364,17.364,0,0,1,.462-2.46c.092-.339.4-1.445.677-.738,0,.123-.154.062-.215.154a11.385,11.385,0,0,0-.646,3.875,22.2,22.2,0,0,0,2.43-3.353c.523-.8,1.169-1.722,1.753-2.552.247-.338.461-.739.769-.892.093-.03.093.031.123.062" transform="translate(-172.323 -100.114)" fill="#fff"/>
    <path id="Path_119" data-name="Path 119" d="M327.262,197.107l-.028-.016c-.39-.213-.31-.772-.252-1.18a17.51,17.51,0,0,1,.464-2.467c.193-.708.355-1.014.539-1.023h.009c.154,0,.235.208.262.277l0,.026c0,.125-.1.148-.155.161a.151.151,0,0,0-.067.026,11.641,11.641,0,0,0-.647,3.686,10.4,10.4,0,0,0,1.477-1.989c.262-.419.534-.852.832-1.251.53-.811,1.182-1.742,1.752-2.551.055-.075.107-.152.159-.228a1.972,1.972,0,0,1,.636-.687c.135-.047.178.03.2.062l.011.012.014.028c.052.157-.065.261-.159.345a.444.444,0,0,0-.118.134l-.01.018c-.168.214-.333.441-.491.66s-.323.447-.494.663c-.39.6-.8,1.226-1.228,1.813-.242.424-.52.835-.789,1.231-.137.2-.274.405-.408.612a5.207,5.207,0,0,0-.381.545,2.355,2.355,0,0,1-1.1,1.082Zm.732-4.545h0c-.038,0-.18.074-.411.917a17.416,17.416,0,0,0-.459,2.45c-.066.462-.1.857.151,1.021a2.255,2.255,0,0,0,1-1.013,5.434,5.434,0,0,1,.387-.553c.129-.2.267-.4.405-.607.266-.394.543-.8.787-1.228.433-.59.839-1.214,1.231-1.818.172-.22.336-.445.494-.664s.32-.442.488-.656a.58.58,0,0,1,.152-.178c.09-.08.133-.126.123-.182a.183.183,0,0,1-.017-.024c0-.009-.005-.009-.02,0a1.863,1.863,0,0,0-.573.635c-.053.078-.106.156-.161.231-.569.807-1.22,1.737-1.751,2.55-.3.4-.568.829-.829,1.244a9.838,9.838,0,0,1-1.612,2.122l-.108.1-.01-.146a11.349,11.349,0,0,1,.648-3.9l.009-.019a.235.235,0,0,1,.158-.091.224.224,0,0,0,.044-.014c-.052-.125-.1-.17-.124-.17" transform="translate(-172.243 -100.036)" fill="#fff"/>
    <path id="Path_120" data-name="Path 120" d="M338.429,196.465a8.513,8.513,0,0,0,3.753-.277c.277-.092.554-.277.83-.215.031.247-.246.247-.4.308a8.9,8.9,0,0,1-4.213.431,6.152,6.152,0,0,1-.493,1.322c-.215.369-.431.769-.861.892-.369-.308-.123-1.046.031-1.477a3.325,3.325,0,0,1,.923-1.722.109.109,0,0,0,.061-.031c.4-.03.4.431.369.769m-.277.185a.671.671,0,0,1-.338-.308,4.846,4.846,0,0,0-.677,2.307,4.261,4.261,0,0,0,1.015-2" transform="translate(-177.469 -103.101)" fill="#fff"/>
    <path id="Path_121" data-name="Path 121" d="M336.949,198.925l-.028-.024c-.421-.35-.131-1.164.009-1.555a3.362,3.362,0,0,1,.943-1.752l.02-.018h.026l.011-.01.018-.018.026,0a.367.367,0,0,1,.311.1.906.906,0,0,1,.139.682,8.853,8.853,0,0,0,3.658-.291c.07-.023.144-.055.218-.086a1.079,1.079,0,0,1,.646-.13l.049.011.006.05c.032.254-.189.312-.336.35a.886.886,0,0,0-.108.033,9.032,9.032,0,0,1-4.188.446,6,6,0,0,1-.482,1.275l-.03.052a1.6,1.6,0,0,1-.874.875Zm1-3.21a3.256,3.256,0,0,0-.885,1.673c-.117.329-.383,1.074-.082,1.378a1.552,1.552,0,0,0,.753-.8l.029-.05a5.965,5.965,0,0,0,.485-1.305l.017-.063.065.012a8.862,8.862,0,0,0,4.178-.428,1.11,1.11,0,0,1,.121-.036c.143-.038.219-.067.231-.143a1.118,1.118,0,0,0-.5.131c-.078.033-.155.066-.233.092a8.84,8.84,0,0,1-3.791.278l-.06-.014.006-.061c.011-.121.044-.49-.094-.631a.234.234,0,0,0-.177-.062.166.166,0,0,1-.057.028m-.964,3.033v-.179a4.908,4.908,0,0,1,.685-2.339l.064-.123.062.124a.6.6,0,0,0,.3.273l.056.023-.013.06a4.331,4.331,0,0,1-1.032,2.031Zm.754-2.344a4.8,4.8,0,0,0-.607,1.974,4.247,4.247,0,0,0,.856-1.767.767.767,0,0,1-.249-.207" transform="translate(-177.39 -103.022)" fill="#fff"/>
    <path id="Path_122" data-name="Path 122" d="M364.561,166.274q-.185.83-.369,1.476c-.739,2-1.538,4-2.4,5.936a17.043,17.043,0,0,0-.861,1.877c-.123.431-.153.891-.246,1.353a55.373,55.373,0,0,0-.953,6.828,6.4,6.4,0,0,0,.154,2.891.478.478,0,0,0,.185.247c.061.03.277,0,.184.153-.062.215-.4.092-.492-.031a4.481,4.481,0,0,1-.369-2.522,57.736,57.736,0,0,1,1.015-7.751c-2.091,4-3.937,8.489-7.1,11.534a1.931,1.931,0,0,1-2.091.461c-1.354-.738-1.476-3.106-1.569-5.259a37.814,37.814,0,0,1,.4-6.4c-.03-.061-.338.154-.369-.061,0-.308.4-.215.431-.492a56.656,56.656,0,0,1,3.63-13.717,9.966,9.966,0,0,1,2.307-3.475.883.883,0,0,1,1.138,0,2.308,2.308,0,0,1,.277,1.2,9.159,9.159,0,0,1-.4,2.491c-1.384,5.2-4.213,9.719-6.643,13.656-.4,2.737-.83,6.766-.184,9.719.215.922.554,2,1.414,2.214a3.055,3.055,0,0,0,2.215-1.261c.431-.492.8-.984,1.168-1.476a70.622,70.622,0,0,0,5.6-10.334,56.683,56.683,0,0,1,2.307-8.581,10.944,10.944,0,0,1,.554-1.23c.215-.369.431-.8.892-.892.462.247.277.984.185,1.446m-8.12-2.184a10.583,10.583,0,0,0,.738-3.753c-.031-.369-.092-.923-.554-.953-.277.03-.4.215-.584.307a19.121,19.121,0,0,0-3.537,7.32,64.789,64.789,0,0,0-2,8.889,53.866,53.866,0,0,0,4.275-7.567,29.725,29.725,0,0,0,1.661-4.244m6.735,3.106a38.76,38.76,0,0,0-1.938,7.074c.892-2.184,1.907-4.245,2.645-6.551a6.843,6.843,0,0,0,.462-2.552.03.03,0,0,1-.031-.031c-.03.031-.062.031-.092.061a6.142,6.142,0,0,0-1.046,2" transform="translate(-184.194 -83.828)" fill="#fff"/>
    <path id="Path_123" data-name="Path 123" d="M351.757,188.883a1.289,1.289,0,0,1-.659-.176c-1.409-.768-1.517-3.291-1.6-5.318a34.125,34.125,0,0,1,.332-5.83l.058-.5-.015,0a.331.331,0,0,1-.268,0,.179.179,0,0,1-.077-.131.354.354,0,0,1,.256-.338c.105-.051.165-.083.175-.172a57.507,57.507,0,0,1,3.635-13.739,10.157,10.157,0,0,1,2.324-3.5.943.943,0,0,1,1.238.006,2.367,2.367,0,0,1,.3,1.247,9.2,9.2,0,0,1-.4,2.511c-1.357,5.1-4.089,9.524-6.5,13.429l-.144.232c-.619,4.246-.679,7.412-.183,9.679.222.952.557,1.952,1.353,2.159a2.927,2.927,0,0,0,2.114-1.2l.041-.043c.431-.492.8-.989,1.163-1.47a70.344,70.344,0,0,0,5.591-10.321l.187-.86a50.2,50.2,0,0,1,2.118-7.717,10.729,10.729,0,0,1,.557-1.238l.049-.085c.2-.352.433-.751.891-.843l.025,0,.022.011c.48.256.335.964.239,1.433l-.018.091c-.124.555-.248,1.053-.37,1.48-.784,2.123-1.592,4.121-2.4,5.945-.1.218-.212.442-.323.659a7.646,7.646,0,0,0-.535,1.209,6.293,6.293,0,0,0-.154.806c-.026.177-.053.359-.089.541a55.452,55.452,0,0,0-.953,6.819,6.242,6.242,0,0,0,.148,2.855.412.412,0,0,0,.159.218s.026,0,.044.005c.067.009.15.021.184.091a.154.154,0,0,1-.017.145.222.222,0,0,1-.179.155.507.507,0,0,1-.436-.171,4.537,4.537,0,0,1-.384-2.567,55.165,55.165,0,0,1,.934-7.3c-.332.645-.662,1.307-.984,1.95-1.65,3.305-3.357,6.724-5.92,9.187a2.637,2.637,0,0,1-1.517.647m-1.816-11.976a.09.09,0,0,1,.088.051l.009.018-.07.6a33.868,33.868,0,0,0-.332,5.807c.085,1.992.192,4.47,1.532,5.2.763.447,1.662-.169,2.012-.454,2.54-2.442,4.241-5.849,5.886-9.144.391-.783.795-1.592,1.2-2.368l.133.045a58.066,58.066,0,0,0-1.014,7.741,4.446,4.446,0,0,0,.358,2.479.377.377,0,0,0,.294.114.081.081,0,0,0,.071-.063l.007-.018a.08.08,0,0,0,.013-.028c0,.007-.049,0-.073,0a.327.327,0,0,1-.095-.023.549.549,0,0,1-.221-.287,6.354,6.354,0,0,1-.157-2.921,55.658,55.658,0,0,1,.955-6.834c.036-.178.063-.36.088-.535a6.415,6.415,0,0,1,.159-.824,7.764,7.764,0,0,1,.545-1.234c.11-.215.224-.438.32-.652.81-1.821,1.616-3.816,2.4-5.931.12-.42.243-.915.366-1.467l.018-.089c.091-.444.214-1.049-.145-1.267-.379.089-.578.434-.771.769l-.048.083a10.692,10.692,0,0,0-.549,1.22,50.117,50.117,0,0,0-2.111,7.7l-.192.875a70.377,70.377,0,0,1-5.609,10.36c-.363.485-.738.985-1.173,1.482l-.043.045a3.073,3.073,0,0,1-2.223,1.24l-.019,0c-.877-.22-1.234-1.269-1.467-2.267-.5-2.287-.44-5.475.184-9.746l.009-.027.151-.244c2.405-3.9,5.131-8.312,6.484-13.393a9.078,9.078,0,0,0,.4-2.473,2.275,2.275,0,0,0-.263-1.157c-.286-.316-.791-.159-1.04.016a9.873,9.873,0,0,0-2.283,3.446,57.367,57.367,0,0,0-3.624,13.7c-.018.168-.149.23-.254.281s-.176.09-.176.2c0,0,0,.017.012.022.025.015.107-.008.151-.021a.434.434,0,0,1,.11-.022m.545-1.047-.129-.051a64.876,64.876,0,0,1,2-8.9,19.215,19.215,0,0,1,3.552-7.346l.021-.016a1.091,1.091,0,0,0,.164-.11.864.864,0,0,1,.445-.2c.55.035.6.674.632,1.018a10.017,10.017,0,0,1-.669,3.554l-.073.225a29.684,29.684,0,0,1-1.664,4.254,54.018,54.018,0,0,1-4.281,7.576m5.522-16.191a19.112,19.112,0,0,0-3.514,7.283,63.978,63.978,0,0,0-1.946,8.564,54.221,54.221,0,0,0,4.089-7.292,29.477,29.477,0,0,0,1.657-4.235h0l.073-.227a9.908,9.908,0,0,0,.662-3.5c-.035-.414-.1-.861-.488-.886a.722.722,0,0,0-.361.177,1.37,1.37,0,0,1-.174.117m5.219,14.548-.135-.039a39.126,39.126,0,0,1,1.941-7.087,6.218,6.218,0,0,1,1.06-2.022.231.231,0,0,1,.066-.045.1.1,0,0,0,.028-.017l.122-.124v.133h.026l0,.067a6.9,6.9,0,0,1-.463,2.573,48.487,48.487,0,0,1-1.782,4.524c-.288.664-.586,1.351-.867,2.038m2.974-9.055-.006.006a6.121,6.121,0,0,0-1.03,1.974h0a37.845,37.845,0,0,0-1.807,6.388c.2-.475.405-.947.605-1.409a48.278,48.278,0,0,0,1.775-4.5,6.976,6.976,0,0,0,.463-2.455" transform="translate(-184.115 -83.748)" fill="#fff"/>
    <path id="Path_124" data-name="Path 124" d="M377.8,194.379c-.185.031-.092-.246-.123-.4a3.193,3.193,0,0,0-1.753,2.4c-.061.953.492,1.661.523,2.583,1.077-.615,2.184-1.415,3.352-2.061.8-.522,1.723-.984,2.522-1.538.277-.153.431-.522.739-.554.03.4-.431.492-.615.739-1.938,1.291-4.029,2.43-5.967,3.721a4.137,4.137,0,0,1-2.061,3.2c-.492.338-1.138.8-1.815.492a.03.03,0,0,0-.031-.03c-.185-.585.277-.954.523-1.292a7,7,0,0,1,.984-.923c.645-.584,1.414-1.046,2.153-1.6-.062-.861-.492-1.507-.554-2.337-.123-1.6.923-2.4,1.876-3.045a1.046,1.046,0,0,1,.308,0c.123.123.154.584-.061.646m-3.6,6.551c-.308.247-.554.523-.861.769-.185.338-.615.584-.523,1.107.984,0,1.476-.645,2.123-1.076a3.548,3.548,0,0,0,1.261-2.245s0-.031-.031,0c0,.031-.031,0-.031.031a17.4,17.4,0,0,0-1.938,1.415" transform="translate(-196.266 -102.06)" fill="#fff"/>
    <path id="Path_125" data-name="Path 125" d="M372.985,203.051a1.169,1.169,0,0,1-.49-.107l-.054-.024-.015-.05a1.189,1.189,0,0,1,.381-1.165c.054-.065.106-.128.152-.19a7.09,7.09,0,0,1,1-.938,13.443,13.443,0,0,1,1.37-1.041c.246-.171.5-.349.751-.535a4.912,4.912,0,0,0-.274-1.138,4.767,4.767,0,0,1-.276-1.161c-.123-1.593.874-2.41,1.907-3.109l.018-.009a.578.578,0,0,1,.24-.01.9.9,0,0,0,.09.006h.03l.021.021a.644.644,0,0,1,.1.54.289.289,0,0,1-.19.224h-.008a.163.163,0,0,1-.141-.033c-.068-.06-.064-.169-.06-.274v-.044a3.073,3.073,0,0,0-1.618,2.286,3.52,3.52,0,0,0,.256,1.373,4.632,4.632,0,0,1,.261,1.086c.461-.268.922-.564,1.409-.876.6-.383,1.213-.779,1.845-1.128.355-.232.745-.459,1.123-.678.468-.271.953-.552,1.393-.856a1.25,1.25,0,0,0,.285-.249.811.811,0,0,1,.486-.317l.072-.007.005.072c.023.3-.194.45-.385.582a1.019,1.019,0,0,0-.244.2l-.018.017c-.969.646-1.993,1.263-2.984,1.86s-1.993,1.2-2.953,1.842a4.235,4.235,0,0,1-2.089,3.217l-.033.022a2.565,2.565,0,0,1-1.362.583m-.4-.224c.614.261,1.207-.147,1.685-.476l.032-.022a4.091,4.091,0,0,0,2.03-3.142v-.036l.03-.02c.971-.648,2-1.266,2.989-1.865s2-1.209,2.969-1.85a1.17,1.17,0,0,1,.269-.226c.158-.108.3-.2.322-.37a.9.9,0,0,0-.317.255,1.36,1.36,0,0,1-.314.272c-.438.3-.926.586-1.4.859-.376.218-.765.444-1.121.677-.633.35-1.247.744-1.842,1.126-.523.335-1.017.652-1.515.936l-.1.059,0-.118a4.133,4.133,0,0,0-.26-1.163,3.677,3.677,0,0,1-.263-1.428,3.249,3.249,0,0,1,1.789-2.456l.085-.047.019.1a.79.79,0,0,1,.007.181.411.411,0,0,0,.011.163.05.05,0,0,0,.02,0,.164.164,0,0,0,.088-.123.559.559,0,0,0-.045-.384l-.069-.006a.556.556,0,0,0-.173,0c-.995.675-1.953,1.462-1.836,2.975a4.617,4.617,0,0,0,.269,1.128,4.887,4.887,0,0,1,.285,1.211l0,.039-.031.023c-.261.2-.528.381-.786.561a13.365,13.365,0,0,0-1.361,1.034,6.918,6.918,0,0,0-.979.917c-.042.058-.1.124-.153.191a1.069,1.069,0,0,0-.364,1,.091.091,0,0,1,.029.031m.158-.03h-.06l-.01-.059a1.02,1.02,0,0,1,.326-.875,1.769,1.769,0,0,0,.2-.279l.018-.021c.152-.122.292-.254.427-.381s.278-.263.433-.387A17.373,17.373,0,0,1,376,199.389a.078.078,0,0,1,.039-.034h0a.09.09,0,0,1,.1-.029l.044.018.007.061a3.423,3.423,0,0,1-1.183,2.191l-.1.1c-.168.114-.319.234-.465.35a2.61,2.61,0,0,1-1.71.749m.579-1.132a2.054,2.054,0,0,1-.212.288.919.919,0,0,0-.3.7,2.5,2.5,0,0,0,1.559-.717c.148-.117.3-.239.462-.346l.086-.093a3.394,3.394,0,0,0,1.129-1.963,17.217,17.217,0,0,0-1.868,1.369h0c-.151.121-.291.253-.425.379s-.273.258-.425.38" transform="translate(-196.187 -101.981)" fill="#fff"/>
    <path id="Path_126" data-name="Path 126" d="M390.009,167.527c.03.154-.185.062-.216.092-.584,1.968-1.107,4.06-1.569,6.182a88.683,88.683,0,0,1,12.487-.769,7.324,7.324,0,0,1,2.86.492c.215.123.554.277.523.554-.247.062-.4-.246-.677-.37a9.151,9.151,0,0,0-3.691-.461,90.061,90.061,0,0,0-11.564.83c-1.015,4.675-1.968,9.35-2.645,14.394a31.52,31.52,0,0,0-.431,5.2c0,.185.277.185.154.4-.462.154-.431-.615-.431-1.046a32.883,32.883,0,0,1,.523-4.983c.676-4.767,1.568-9.473,2.552-13.9-2.983.369-5.72.984-8.489,1.569-.123,0,0,.185-.153.215-.247,0-.554.031-.646-.123.031-.215.308-.246.461-.277,2.8-.677,5.813-1.2,8.858-1.661a74.28,74.28,0,0,1,1.968-7.289c.031-.031.062-.031.093-.062.338.092.031.738.031,1.015" transform="translate(-199.463 -87.726)" fill="#fff"/>
    <path id="Path_127" data-name="Path 127" d="M385.048,194.073a.285.285,0,0,1-.17-.054c-.223-.161-.221-.65-.22-1.006v-.077a31.043,31.043,0,0,1,.483-4.727l.041-.266c.625-4.406,1.477-9.051,2.531-13.809-2.613.329-5.079.853-7.464,1.361l-.925.2c0,.007,0,.016,0,.023a.181.181,0,0,1-.146.192l-.12,0c-.245,0-.5.009-.6-.158l-.013-.022,0-.025c.036-.247.311-.3.475-.328l.043-.009c2.4-.579,5.2-1.105,8.815-1.655.2-.76.388-1.552.569-2.318a38.982,38.982,0,0,1,1.391-4.934l.016-.025a.231.231,0,0,1,.065-.045.092.092,0,0,0,.028-.017l.029-.028.039.01c.3.082.211.467.138.776a1.656,1.656,0,0,0-.055.3.139.139,0,0,1-.029.123.213.213,0,0,1-.191.042h-.012c-.542,1.832-1.058,3.861-1.533,6.036l1.153-.122a78.9,78.9,0,0,1,11.246-.637,7.4,7.4,0,0,1,2.89.5l.072.04c.22.122.522.29.49.585l-.006.049-.048.012c-.185.044-.324-.073-.458-.187a1.139,1.139,0,0,0-.265-.186,9.123,9.123,0,0,0-3.661-.455,89.1,89.1,0,0,0-11.506.823c-1.117,5.149-1.992,9.561-2.634,14.339-.028.219-.058.44-.087.661a26.815,26.815,0,0,0-.343,4.526c0,.048.027.074.076.116a.226.226,0,0,1,.069.321l-.014.024-.025.008a.424.424,0,0,1-.135.024m2.848-20.1-.022.1c-1.064,4.788-1.922,9.464-2.551,13.9l-.041.267a30.89,30.89,0,0,0-.481,4.705v.077c0,.289,0,.772.161.89a.174.174,0,0,0,.15.018c.024-.053,0-.071-.052-.12a.287.287,0,0,1-.124-.221,27.086,27.086,0,0,1,.344-4.547c.029-.221.059-.441.088-.661.643-4.8,1.523-9.226,2.646-14.4l.011-.049.049-.007a89.449,89.449,0,0,1,11.574-.831,9.2,9.2,0,0,1,3.721.468,1.264,1.264,0,0,1,.3.206c.112.1.192.16.277.163-.022-.171-.239-.291-.417-.389l-.07-.039a7.3,7.3,0,0,0-2.828-.483,77.945,77.945,0,0,0-11.226.636l-1.252.132-.1.01.021-.1c.485-2.232,1.014-4.313,1.57-6.187l.018-.03a.152.152,0,0,1,.13-.024.248.248,0,0,0,.077,0l-.012-.018a1.677,1.677,0,0,1,.059-.34c.07-.3.115-.529-.008-.594l-.026.013-.018.01a39.255,39.255,0,0,0-1.378,4.9c-.185.782-.375,1.59-.582,2.367l-.012.045-.046.007c-3.635.551-6.448,1.079-8.852,1.66l-.047.009c-.167.031-.319.068-.355.182.077.077.289.071.461.07h.108c.01,0,.014,0,.018-.061s.011-.154.135-.154l.9-.193c2.419-.514,4.921-1.046,7.577-1.375Z" transform="translate(-199.381 -87.639)" fill="#fff"/>
    <path id="Path_128" data-name="Path 128" d="M401.548,194.914a2.8,2.8,0,0,1-1.2.769c-.4.676-1.107,2-.523,2.922a1.587,1.587,0,0,0,.4.154,6.361,6.361,0,0,0,2.8-1.077,20.231,20.231,0,0,0,2.307-1.568,7.158,7.158,0,0,0,.984-.954c.092-.092.184-.277.338-.246.092.277-.247.554-.431.738-.216.215-.493.431-.677.616a15.057,15.057,0,0,1-4.921,2.768,1.3,1.3,0,0,1-1.046-.308c-.584-.891,0-2.275.369-2.952.092-.092-.062-.123,0-.246.031-.093.185-.062.246-.123a3.838,3.838,0,0,1,1.415-1.476.319.319,0,0,1,.4,0c.123.431-.215.738-.461.984m-.954.369a2.168,2.168,0,0,0,1.138-1.138,3.648,3.648,0,0,0-1.138,1.138c-.03.03,0,.03,0,0" transform="translate(-210.386 -102.134)" fill="#fff"/>
    <path id="Path_129" data-name="Path 129" d="M400.4,199.029a1.281,1.281,0,0,1-.949-.332c-.641-.975.036-2.448.357-3.036l.012-.017c.009-.01,0-.021,0-.029a.194.194,0,0,1-.012-.2c.027-.082.116-.1.182-.115a.292.292,0,0,0,.073-.022,3.933,3.933,0,0,1,1.43-1.49.416.416,0,0,1,.253-.082h0a.327.327,0,0,1,.237.093l.018.03a1.049,1.049,0,0,1-.442,1.016l-.037.038a2.878,2.878,0,0,1-1.2.778c-.29.49-1.091,1.876-.52,2.807a1.464,1.464,0,0,0,.355.137,5.934,5.934,0,0,0,2.6-.977l.156-.09a20.286,20.286,0,0,0,2.295-1.56,7.061,7.061,0,0,0,.977-.946c.025-.026.045-.051.066-.077.076-.1.184-.224.34-.193l.041.008.013.039c.1.287-.178.55-.377.742l-.071.069c-.113.113-.242.225-.365.333s-.224.2-.311.282a15.182,15.182,0,0,1-4.951,2.786c-.058,0-.114.006-.167.006m-.472-3.292c-.31.572-.954,1.976-.367,2.872a1.254,1.254,0,0,0,.982.276,15.106,15.106,0,0,0,4.883-2.754c.083-.084.194-.18.31-.282s.249-.217.358-.327l.073-.07c.159-.153.371-.358.352-.546-.052.012-.1.066-.159.141a1.061,1.061,0,0,1-.072.084,7.165,7.165,0,0,1-.989.959,20.485,20.485,0,0,1-2.317,1.575l-.154.089a6.038,6.038,0,0,1-2.674,1h-.01l-.009,0a1.639,1.639,0,0,1-.418-.16l-.018-.009-.011-.017c-.646-1.02.233-2.507.522-3l.014-.024.027-.008a2.735,2.735,0,0,0,1.169-.751l.038-.038c.235-.234.5-.5.41-.858a.2.2,0,0,0-.123-.038h0a.267.267,0,0,0-.163.051l-.022.014a3.787,3.787,0,0,0-1.383,1.447l-.01.015a.282.282,0,0,1-.149.064c-.034.008-.076.017-.081.031a.062.062,0,0,0,0,.075.146.146,0,0,1-.014.19m.543-.428-.03-.048a.078.078,0,0,1,0-.082v-.017l.024-.014A3.645,3.645,0,0,1,401.619,194l.156-.093-.051.174a2.213,2.213,0,0,1-1.146,1.166.083.083,0,0,1-.052.044Zm1.033-1.061a3.487,3.487,0,0,0-.733.721,1.99,1.99,0,0,0,.733-.721" transform="translate(-210.31 -102.054)" fill="#fff"/>
    <path id="Path_130" data-name="Path 130" d="M413.226,194.379c-.184.031-.092-.246-.123-.4a3.192,3.192,0,0,0-1.753,2.4c-.062.953.492,1.661.522,2.583,1.077-.615,2.184-1.415,3.353-2.061.8-.522,1.722-.984,2.522-1.538.277-.153.431-.522.738-.554.031.4-.431.492-.615.739-1.938,1.291-4.029,2.43-5.966,3.721a4.136,4.136,0,0,1-2.061,3.2c-.492.338-1.138.8-1.815.492a.03.03,0,0,0-.031-.03c-.185-.585.277-.954.523-1.292a7.018,7.018,0,0,1,.984-.923c.646-.584,1.415-1.046,2.153-1.6-.061-.861-.492-1.507-.554-2.337-.123-1.6.923-2.4,1.877-3.045a1.044,1.044,0,0,1,.307,0c.123.123.154.584-.062.646m-3.6,6.551c-.307.247-.554.523-.861.769-.185.338-.616.584-.523,1.107.984,0,1.476-.645,2.123-1.076a3.55,3.55,0,0,0,1.261-2.245s0-.031-.031,0c0,.031-.03,0-.03.031a17.4,17.4,0,0,0-1.938,1.415" transform="translate(-214.93 -102.06)" fill="#fff"/>
    <path id="Path_131" data-name="Path 131" d="M408.41,203.051a1.169,1.169,0,0,1-.49-.107l-.054-.024-.015-.05a1.187,1.187,0,0,1,.381-1.164c.054-.066.107-.129.152-.191a7.132,7.132,0,0,1,1-.938,13.484,13.484,0,0,1,1.368-1.039c.248-.172.5-.35.753-.537a4.915,4.915,0,0,0-.274-1.138,4.767,4.767,0,0,1-.276-1.161c-.123-1.594.875-2.41,1.907-3.109l.018-.009a.578.578,0,0,1,.24-.01.9.9,0,0,0,.09.006h.029l.021.021a.645.645,0,0,1,.1.54.29.29,0,0,1-.19.224h-.008a.16.16,0,0,1-.141-.032c-.068-.06-.064-.17-.06-.275,0-.015,0-.029,0-.043a3.073,3.073,0,0,0-1.618,2.286,3.526,3.526,0,0,0,.255,1.372,4.6,4.6,0,0,1,.261,1.086c.461-.267.921-.563,1.407-.875.6-.383,1.214-.78,1.847-1.129.355-.233.747-.46,1.125-.679.468-.271.952-.551,1.391-.855a1.251,1.251,0,0,0,.285-.249.809.809,0,0,1,.486-.317l.072-.007.005.072c.024.3-.194.45-.385.582a1.018,1.018,0,0,0-.244.2l-.017.017c-.969.646-1.993,1.263-2.983,1.86s-1.994,1.2-2.953,1.842a4.234,4.234,0,0,1-2.089,3.217l-.033.022a2.565,2.565,0,0,1-1.362.583m-.4-.224c.613.261,1.208-.147,1.685-.476l.032-.022a4.091,4.091,0,0,0,2.03-3.142v-.036l.03-.02c.97-.648,2-1.266,2.988-1.865s2-1.209,2.969-1.85a1.179,1.179,0,0,1,.269-.226c.158-.108.3-.2.322-.37a.9.9,0,0,0-.317.255,1.35,1.35,0,0,1-.314.272c-.438.3-.924.585-1.394.857-.377.219-.767.445-1.124.678-.633.35-1.248.745-1.843,1.127-.522.335-1.015.652-1.513.935l-.1.059,0-.118a4.1,4.1,0,0,0-.26-1.163,3.68,3.68,0,0,1-.262-1.427,3.248,3.248,0,0,1,1.789-2.456l.085-.048.019.1a.813.813,0,0,1,.006.181c0,.052-.006.147.012.163h.019a.164.164,0,0,0,.088-.123.558.558,0,0,0-.045-.384l-.068-.006a.556.556,0,0,0-.173,0c-1,.675-1.953,1.461-1.837,2.975a4.617,4.617,0,0,0,.269,1.128,4.889,4.889,0,0,1,.285,1.211l0,.039-.031.023c-.262.2-.529.382-.788.563a13.454,13.454,0,0,0-1.359,1.032,6.99,6.99,0,0,0-.979.917c-.042.059-.1.124-.154.192a1.068,1.068,0,0,0-.364,1,.092.092,0,0,1,.029.031m.159-.03h-.06l-.01-.059a1.019,1.019,0,0,1,.326-.876,1.8,1.8,0,0,0,.2-.278l.018-.021c.151-.122.291-.254.427-.381s.278-.262.433-.387a17.373,17.373,0,0,1,1.925-1.406.075.075,0,0,1,.038-.033h0a.089.089,0,0,1,.1-.028l.044.018.007.061a3.426,3.426,0,0,1-1.183,2.192l-.1.1c-.168.114-.319.234-.465.35a2.61,2.61,0,0,1-1.71.749m.579-1.132a2.021,2.021,0,0,1-.212.288.921.921,0,0,0-.3.7,2.5,2.5,0,0,0,1.56-.717c.148-.117.3-.239.462-.346l.085-.093a3.4,3.4,0,0,0,1.129-1.963,17.222,17.222,0,0,0-1.868,1.369h0c-.151.121-.29.252-.425.379s-.273.258-.424.38" transform="translate(-214.851 -101.981)" fill="#fff"/>
  </g>
</svg>
