<svg xmlns="http://www.w3.org/2000/svg" width="80" height="16.531" viewBox="0 0 80 16.531">
  <g id="logo-pw-dark" transform="translate(0 -0.5)">
    <rect id="Rectangle_35" data-name="Rectangle 35" width="2.503" height="2.503" transform="translate(2.503 14.528)" fill="#56504d" opacity="0.6"/>
    <path id="Path_39" data-name="Path 39" d="M7.509,70.3H0V82.809H2.5V72.8H7.509v7.509h2.5V70.3Z" transform="translate(0 -65.784)" fill="#56504d"/>
    <rect id="Rectangle_36" data-name="Rectangle 36" width="2.503" height="2.503" transform="translate(5 12.025)" fill="#56504d" opacity="0.8"/>
    <path id="Path_40" data-name="Path 40" d="M319.133,79.126a2.853,2.853,0,0,1-2.3-1.053H316.8v4.5h-2.5V71.319h2.382v.926h.046a3.023,3.023,0,0,1,2.428-1.145,3.714,3.714,0,0,1,3.6,3.982C322.758,77.2,321.423,79.126,319.133,79.126Zm-.593-5.978a1.955,1.955,0,0,0,0,3.9,1.958,1.958,0,0,0,0-3.9Z" transform="translate(-296.216 -66.538)" fill="#56504d"/>
    <rect id="Rectangle_37" data-name="Rectangle 37" width="2.503" height="7.601" transform="translate(28.136 4.781)" fill="#56504d"/>
    <path id="Path_41" data-name="Path 41" d="M571.888,79.008V74.859c0-.84-.23-1.6-1.128-1.6s-1.341.765-1.341,1.634v4.12H566.9v-7.6h2.428v1.053h.029A2.587,2.587,0,0,1,571.63,71.2c2.043,0,2.779,1.588,2.779,3.113v4.7h-2.52Z" transform="translate(-534.282 -66.632)" fill="#56504d"/>
    <path id="Path_42" data-name="Path 42" d="M722.3,82.495V80.544l3.567-3.723h-3.435V74.9h6.484v1.876l-3.677,3.786h3.832V82.5H722.3Z" transform="translate(-680.741 -70.119)" fill="#56504d"/>
    <path id="Path_43" data-name="Path 43" d="M861.344,82.495H858.83l-1.5-4.73h-.029l-1.467,4.73h-2.52L850.7,74.9h2.7l1.312,4.8h.046l1.358-4.8h2.52l1.4,4.8h.029l1.329-4.8h2.595Z" transform="translate(-801.753 -70.119)" fill="#56504d"/>
    <path id="Path_44" data-name="Path 44" d="M1093.2,75.33h-5.506a1.741,1.741,0,0,0,1.818,1.433,1.988,1.988,0,0,0,1.68-.794l1.738,1.1a3.983,3.983,0,0,1-3.447,1.617,4.043,4.043,0,1,1-.081-8.084c2.244,0,3.815,1.542,3.815,4.137C1093.217,74.933,1093.217,75.145,1093.2,75.33Zm-2.29-1.554a1.38,1.38,0,0,0-1.5-1.45,1.661,1.661,0,0,0-1.726,1.45Z" transform="translate(-1022.855 -66.067)" fill="#56504d"/>
    <path id="Path_45" data-name="Path 45" d="M1248.616,18.149a2.963,2.963,0,0,1-2.486-1.2h-.029v.99h-2.3V6.4h2.5v4.747h.029a3,3,0,0,1,2.319-1.024,3.7,3.7,0,0,1,3.585,3.982C1252.235,16.222,1250.906,18.149,1248.616,18.149Zm-.593-5.978a1.888,1.888,0,0,0-1.83,1.951,1.871,1.871,0,0,0,1.83,1.951,1.823,1.823,0,0,0,1.8-1.968A1.8,1.8,0,0,0,1248.023,12.171Z" transform="translate(-1172.235 -5.561)" fill="#56504d"/>
    <rect id="Rectangle_38" data-name="Rectangle 38" width="2.503" height="2.503" transform="translate(28.136 0.5)" fill="#56504d"/>
  </g>
</svg>
