<svg id="phone-white" xmlns="http://www.w3.org/2000/svg" xmlns:xlink="http://www.w3.org/1999/xlink" width="17.08" height="17.116" viewBox="0 0 17.08 17.116">
  <defs>
    <clipPath id="clip-path">
      <rect id="Rectangle_86" data-name="Rectangle 86" width="17.08" height="17.116" fill="#fff"/>
    </clipPath>
  </defs>
  <g id="Group_42" data-name="Group 42" clip-path="url(#clip-path)">
    <path id="Path_153" data-name="Path 153" d="M16.633,12.562l-2.389-2.389a1.589,1.589,0,0,0-2.645.6,1.626,1.626,0,0,1-1.877,1.024A7.366,7.366,0,0,1,5.287,7.358,1.546,1.546,0,0,1,6.31,5.481a1.589,1.589,0,0,0,.6-2.645L4.519.448a1.7,1.7,0,0,0-2.3,0L.595,2.069C-1.026,3.775.765,8.3,4.775,12.306s8.531,5.886,10.237,4.18l1.621-1.621a1.7,1.7,0,0,0,0-2.3" transform="translate(0 0)" fill="#fff"/>
  </g>
</svg>
