<svg xmlns="http://www.w3.org/2000/svg" width="20.411" height="25.122" viewBox="0 0 20.411 25.122">
  <path id="pinterest-footer" d="M12.8,0C5.911,0,2.25,4.413,2.25,9.224c0,2.231,1.247,5.014,3.243,5.9.569.256.494-.057.984-1.93a.445.445,0,0,0-.107-.436c-2.853-3.3-.557-10.085,6.02-10.085,9.518,0,7.74,13.17,1.656,13.17a2.246,2.246,0,0,1-2.367-2.754C12.127,11.27,13,9.32,13,8.013,13,4.718,8.1,5.207,8.1,9.573a5.282,5.282,0,0,0,.477,2.26S6.993,18.214,6.7,19.406a16.933,16.933,0,0,0,.116,5.567.165.165,0,0,0,.3.076,19.74,19.74,0,0,0,2.6-4.9c.195-.717.993-3.627.993-3.627a4.34,4.34,0,0,0,3.662,1.746c4.811,0,8.288-4.229,8.288-9.476C22.644,3.764,18.339,0,12.8,0Z" transform="translate(-2.25)" fill="#fff"/>
</svg>
