<svg xmlns="http://www.w3.org/2000/svg" width="30.317" height="21.227" viewBox="0 0 30.317 21.227">
  <path id="youtube-footer" d="M29.693-2.761a3.8,3.8,0,0,0-2.672-2.672c-2.372-.649-11.862-.649-11.862-.649s-9.489,0-11.862.625a3.875,3.875,0,0,0-2.672,2.7A40.02,40.02,0,0,0,0,4.531a39.873,39.873,0,0,0,.624,7.292A3.8,3.8,0,0,0,3.3,14.5c2.4.649,11.862.649,11.862.649s9.489,0,11.862-.625a3.8,3.8,0,0,0,2.672-2.672,40.033,40.033,0,0,0,.624-7.292,37.989,37.989,0,0,0-.625-7.317ZM12.137,9.076V-.014l7.891,4.545Zm0,0" transform="translate(-0.001 6.082)" fill="#fff"/>
</svg>
