<svg xmlns="http://www.w3.org/2000/svg" width="42.159" height="29.862" viewBox="0 0 42.159 29.862">
  <g id="bed" transform="translate(0 -74.667)">
    <g id="Group_2" data-name="Group 2" transform="translate(0 74.667)">
      <g id="Group_1" data-name="Group 1" transform="translate(0 0)">
        <path id="Path_42" data-name="Path 42" d="M43.545,85.207h4.392a.878.878,0,0,1-.852-1.091l.546-2.183a2.631,2.631,0,0,1,2.556-2h5.655a2.638,2.638,0,0,1,2.635,2.635v1.757a.879.879,0,0,1-.878.878h5.27a.879.879,0,0,1-.878-.878V82.572a2.638,2.638,0,0,1,2.635-2.635h5.655a2.631,2.631,0,0,1,2.556,2l.546,2.183a.878.878,0,0,1-.852,1.091h4.391a.879.879,0,0,0,.878-.878v-5.27a4.4,4.4,0,0,0-4.392-4.392H47.059a4.4,4.4,0,0,0-4.392,4.392v5.27A.879.879,0,0,0,43.545,85.207Z" transform="translate(-39.154 -74.667)" fill="#927d6a"/>
        <path id="Path_43" data-name="Path 43" d="M37.767,224H4.392A4.4,4.4,0,0,0,0,228.391v12.3a.878.878,0,0,0,1.757,0v-2.635H40.4v2.635a.878.878,0,0,0,1.757,0v-12.3A4.4,4.4,0,0,0,37.767,224ZM40.4,236.3H1.757V234.54H40.4V236.3Z" transform="translate(0 -211.704)" fill="#927d6a"/>
      </g>
    </g>
  </g>
</svg>
