<svg xmlns="http://www.w3.org/2000/svg" width="34.33" height="35.734" viewBox="0 0 34.33 35.734">
  <g id="gift-box-icon" transform="translate(-5.765)">
    <g id="Group_7" data-name="Group 7" transform="translate(5.765 0)">
      <g id="Group_3" data-name="Group 3" transform="translate(1.888 19.842)">
        <path id="Path_44" data-name="Path 44" d="M34.542,162.9h-11.6a1.677,1.677,0,0,0-1.672,1.672v12.548a1.677,1.677,0,0,0,1.672,1.672h11.8c.393,0,.393-.423.393-.423v-14.9A.563.563,0,0,0,34.542,162.9Z" transform="translate(-21.265 -162.904)" fill="#927d6a"/>
        <path id="Path_45" data-name="Path 45" d="M170.43,162.9H158.837c-.706,0-.6.735-.6.735v14.748a.4.4,0,0,0,.419.409H170.43a1.677,1.677,0,0,0,1.672-1.672V164.576A1.676,1.676,0,0,0,170.43,162.9Z" transform="translate(-141.548 -162.904)" fill="#927d6a"/>
      </g>
      <g id="Group_4" data-name="Group 4" transform="translate(0 9.403)">
        <path id="Path_46" data-name="Path 46" d="M21.518,77.762a.553.553,0,0,0-.56-.567H7.437a1.677,1.677,0,0,0-1.672,1.672v5.219a1.677,1.677,0,0,0,1.672,1.672H21a.461.461,0,0,0,.514-.446v-7.55Z" transform="translate(-5.765 -77.195)" fill="#927d6a"/>
        <path id="Path_47" data-name="Path 47" d="M172.36,77.2H158.8a.49.49,0,0,0-.517.492v7.635s0,.435.628.435H172.36a1.677,1.677,0,0,0,1.672-1.672V78.867A1.677,1.677,0,0,0,172.36,77.2Z" transform="translate(-139.702 -77.195)" fill="#927d6a"/>
      </g>
      <g id="Group_5" data-name="Group 5" transform="translate(4.098 0)">
        <path id="Path_48" data-name="Path 48" d="M45.381,8.166a10.927,10.927,0,0,1-2.076-.18,4.914,4.914,0,0,1-3.27-1.809,3.766,3.766,0,0,1-.525-3A3.645,3.645,0,0,1,43.385,0a7.624,7.624,0,0,1,1.45.152,13.421,13.421,0,0,1,4.508,2.021C51.9,3.884,52.022,4.947,51.9,5.6c-.187.957-1.081,1.64-2.734,2.09A15.052,15.052,0,0,1,45.381,8.166Zm-2-5.486c-.813,0-1.092.227-1.245,1.012-.125.642.033.866.085.94a2.641,2.641,0,0,0,1.594.723,8.387,8.387,0,0,0,1.562.131,12.064,12.064,0,0,0,3.169-.408c.055-.015.14-.08.049-.134a11.282,11.282,0,0,0-4.278-2.162A4.983,4.983,0,0,0,43.385,2.68Z" transform="translate(-39.413 0)" fill="#927d6a"/>
      </g>
      <g id="Group_6" data-name="Group 6" transform="translate(17.755 0)">
        <path id="Path_49" data-name="Path 49" d="M158.077,8.167h0a15.051,15.051,0,0,1-3.78-.478c-1.653-.45-2.547-1.133-2.734-2.09-.127-.651,0-1.714,2.553-3.425A13.416,13.416,0,0,1,158.623.153,7.623,7.623,0,0,1,160.073,0a3.645,3.645,0,0,1,3.875,3.178,3.764,3.764,0,0,1-.525,3,4.914,4.914,0,0,1-3.27,1.809A10.943,10.943,0,0,1,158.077,8.167Zm-3.2-3.239a.076.076,0,0,0,0,.143,12.027,12.027,0,0,0,3.2.415,8.388,8.388,0,0,0,1.563-.131,2.641,2.641,0,0,0,1.594-.723c.052-.074.21-.3.085-.94-.153-.785-.433-1.012-1.245-1.012a4.966,4.966,0,0,0-.936.1A11.157,11.157,0,0,0,154.881,4.928Z" transform="translate(-151.53 -0.001)" fill="#927d6a"/>
      </g>
    </g>
  </g>
</svg>
