<svg id="logo-hotel-alpina-rauris" xmlns="http://www.w3.org/2000/svg" width="248.752" height="92.034" viewBox="0 0 248.752 92.034">
  <path id="Path_1" data-name="Path 1" d="M10.419,61.039l-.434,1.013c-1.736-.289-3.473-.434-5.354-.579H3.473c-.434,0-.868.145-1.447.145-.434,0-1.013.145-1.592.145L0,60.895c1.592-2.315,2.894-4.631,4.2-6.8,1.158-2.171,2.315-4.341,3.328-6.367s2.026-4.341,3.184-6.946,2.171-5.065,3.184-7.525c1.592-3.618,3.039-7.235,4.341-11a26.216,26.216,0,0,0,1.736-8.248,3.186,3.186,0,0,0-.145-1.158,9.97,9.97,0,0,0-.434-1.158,4.4,4.4,0,0,0-.724-1.013c-.289-.289-.579-.724-1.013-1.158L25.469,8.8s.579,1.447,1.881,4.341c1.3,2.749,2.315,5.354,3.473,7.814,1.013,2.315,2.315,5.065,3.762,8.1s2.894,5.788,4.052,7.959c2.026,3.762,4.052,7.235,5.788,10.419a74.186,74.186,0,0,0,4.92,8.1,13.788,13.788,0,0,0,4.2,4.486,13.393,13.393,0,0,0,3.328.579l-.434.868a28.83,28.83,0,0,0-6.078-.579,25.076,25.076,0,0,0-4.631.434l-12.3-21.851h-19.1L6.8,57.277a4.225,4.225,0,0,0-.289,1.3,2.176,2.176,0,0,0,.579,1.592c.434.579,1.592.868,3.328.868m22-23.443L22,16.614,14.9,37.6Z" transform="translate(0 3.79)" fill="#fff"/>
  <path id="Path_2" data-name="Path 2" d="M42.1,21.7l.145-.579a11.251,11.251,0,0,0,1.881.145,22.385,22.385,0,0,0,4.486-.868l.289.145v14.9c0,7.38.289,13.6.724,18.523a71,71,0,0,0,7.959.579c2.749,0,4.92,0,6.657-.145a5.631,5.631,0,0,0,3.328-1.013,8.959,8.959,0,0,0,1.592-2.46l.434-.289-1.158,5.788H45.428l-.579-29.52a6.759,6.759,0,0,0-.434-2.46A3.457,3.457,0,0,0,43.4,22.571a2.6,2.6,0,0,0-1.3-.868" transform="translate(18.822 8.976)" fill="#fff"/>
  <path id="Path_3" data-name="Path 3" d="M64.6,21.9v-.434h2.171a26.193,26.193,0,0,0,5.788-.579A56.2,56.2,0,0,1,79.5,20.3a14.009,14.009,0,0,1,8.248,2.315c2.171,1.447,3.328,4.052,3.328,7.525a8.577,8.577,0,0,1-3.907,6.8l-1.881,1.736a8.888,8.888,0,0,1-3.762,2.171,18.346,18.346,0,0,1-4.92.434,17.283,17.283,0,0,1-4.775-.579l.289,11.721a3.651,3.651,0,0,0,.868,2.46,2.909,2.909,0,0,0,1.158.579,3.6,3.6,0,0,0,1.158.145l-.145.434a35.482,35.482,0,0,0-3.907-.289c-.579,0-1.592.145-3.184.289l-.289-.145c.145-.579.145-1.447.289-2.749a32.707,32.707,0,0,0,.145-3.762c0-4.052-.145-8.393-.289-13.024-.289-4.631-.434-8.1-.579-10.564a5.7,5.7,0,0,0-.868-3.039A2.333,2.333,0,0,0,64.6,21.9m14.615.868L71.4,22.62l.289,15.628a19.712,19.712,0,0,0,7.091,1.158c1.447-.145,2.894-.289,4.486-.579a5.024,5.024,0,0,0,3.039-2.171,8.278,8.278,0,0,0,1.3-5.209c0-5.644-2.749-8.538-8.393-8.682" transform="translate(28.881 8.926)" fill="#fff"/>
  <path id="Path_4" data-name="Path 4" d="M89.6,21.513l.145-.579a45.515,45.515,0,0,0,6.367-.434l.579.579V52.625a3.021,3.021,0,0,0,1.158,2.315,4.756,4.756,0,0,0,2.46.579l-.579.579a14.271,14.271,0,0,0-3.473-.434,26.712,26.712,0,0,0-3.328.579l-.289-.289V26.867a9.765,9.765,0,0,0-.724-4.486,3.286,3.286,0,0,0-2.315-.868" transform="translate(40.058 9.02)" fill="#fff"/>
  <path id="Path_5" data-name="Path 5" d="M102,21.892l.145-.289a38.787,38.787,0,0,0,5.788-.289c2.315,2.894,4.775,5.644,7.091,8.393,2.46,2.749,4.92,5.354,7.525,7.959s5.065,5.065,7.67,7.38,5.209,4.775,8.1,7.235L136.73,25.654a5.209,5.209,0,0,0-1.013-3.184,3.836,3.836,0,0,0-.868-.724,2.334,2.334,0,0,0-1.3-.434l.289-.434h2.171A6.479,6.479,0,0,0,138.9,20.3h.579c-.145,2.749-.289,4.775-.289,5.933,0,5.209,0,10.274.145,15.194,0,4.92.145,8.538.145,10.853l-1.013,5.209c-5.209-4.341-10.274-8.972-15.339-13.892-4.92-4.775-9.985-9.985-15.05-15.484l.145,20.693a20.054,20.054,0,0,0,.868,5.788,3.163,3.163,0,0,0,.434.724c.289.145.579.434.868.434.434.145.579.289.724.289v.434a11.016,11.016,0,0,0-3.039-.434,5.936,5.936,0,0,0-1.592.145l-.145-.145c.145-1.736.145-4.2.289-7.525s.145-6.367.145-9.406c0-4.052-.145-7.235-.289-9.7a13.158,13.158,0,0,0-1.158-5.354,4.021,4.021,0,0,0-1.736-1.736c-.434-.145-1.013-.289-1.592-.434" transform="translate(45.602 8.931)" fill="#fff"/>
  <path id="Path_6" data-name="Path 6" d="M143.064,61.084,142.63,62.1c-1.737-.289-3.473-.434-5.354-.579h-1.158c-.434,0-.868.145-1.447.145-.434,0-1.013.145-1.592.145l-.579-1.013c1.592-2.315,2.894-4.631,4.2-6.8,1.158-2.171,2.315-4.341,3.328-6.367s2.026-4.341,3.184-6.946,2.171-5.065,3.184-7.525c1.592-3.618,3.039-7.235,4.341-11a31.133,31.133,0,0,0,1.881-8.248,3.186,3.186,0,0,0-.145-1.158,9.965,9.965,0,0,0-.434-1.158,4.4,4.4,0,0,0-.724-1.013c-.289-.289-.579-.724-1.013-1.158l7.814-.724s.579,1.447,1.881,4.341c1.3,2.749,2.315,5.354,3.473,7.814,1.013,2.315,2.315,5.065,3.762,8.1s2.894,5.788,4.052,7.959c2.026,3.762,4.052,7.235,5.788,10.419a74.187,74.187,0,0,0,4.92,8.1,13.788,13.788,0,0,0,4.2,4.486,13.393,13.393,0,0,0,3.328.579l-.434.868A28.83,28.83,0,0,0,183,60.795a25.076,25.076,0,0,0-4.631.434l-12.3-21.706H146.826l-7.38,17.8a4.225,4.225,0,0,0-.289,1.3,2.176,2.176,0,0,0,.579,1.592c.434.579,1.592.868,3.328.868m22-23.443L154.64,16.659l-6.946,20.983Z" transform="translate(59.238 3.745)" fill="#fff"/>
  <path id="Path_7" data-name="Path 7" d="M36.86,56.858h0a4.1,4.1,0,0,1,2.46-1.013h0a2.411,2.411,0,0,1,2.46,2.315v4.052h0c0,.434.289.434.868.579a.311.311,0,0,1,.289.289h0c0,.289-.145.289-.289.289-.434,0-1.013-.145-1.447-.145a4.923,4.923,0,0,0-1.447.145.311.311,0,0,1-.289-.289c0-.289.145-.289.868-.434.289,0,.289-.145.289-.434V59.462a4.274,4.274,0,0,0-.289-1.881A1.755,1.755,0,0,0,38.6,56.568a2.258,2.258,0,0,0-1.881,1.158v4.486c0,.145,0,.434.434.434.724.145,1.013.145,1.013.434,0,.145,0,.289-.289.289a11.728,11.728,0,0,0-3.184,0,.311.311,0,0,1-.289-.289h0c0-.289.145-.289.724-.434.434,0,.434-.289.434-.579v-4.2c0-.434,0-.434-.724-1.013l-.145-.145h0c0-.145,0-.145,1.736-1.013h.145c.145,0,.145.145.145.289v.724l.145.145h0" transform="translate(15.379 24.757)" fill="#fff"/>
  <path id="Path_8" data-name="Path 8" d="M43.449,55.8a2.346,2.346,0,0,1,2.6,1.881v4.052c0,.724.434.724.579.724.579,0,.579-.579.724-.579,0,0,.145,0,.145.289a1.3,1.3,0,0,1-1.3,1.3,1.727,1.727,0,0,1-1.3-.724h0c-.145,0,0,.145-.434.434a2.917,2.917,0,0,1-1.592.434,1.945,1.945,0,0,1-2.026-1.881v-.145h0A2.324,2.324,0,0,1,41.568,60a6.078,6.078,0,0,1,3.039-.868c.145,0,.145-.145.145-.289V58.26a2.792,2.792,0,0,0-.434-1.447,1.314,1.314,0,0,0-1.013-.434c-1.013,0-1.447,1.158-1.447,1.158a.532.532,0,0,1-.434.145A.662.662,0,0,1,40.7,57.1h0c0-.434,1.3-1.3,2.749-1.3m1.3,6.222a.532.532,0,0,0,.145-.434V60.431c0-.434,0-.434-.145-.434a3.322,3.322,0,0,0-2.026.579,1.251,1.251,0,0,0-.434.868,1.563,1.563,0,0,0,.434,1.013c.289.145.434.289.724.289a4.012,4.012,0,0,0,1.3-.724" transform="translate(18.196 24.802)" fill="#fff"/>
  <path id="Path_9" data-name="Path 9" d="M45.8,57.16c0-.289.868-.579,1.881-2.171a.311.311,0,0,1,.289-.289c.145,0,.289,0,.289.289v1.158c0,.289.145.289.289.289h1.736c.145,0,.434,0,.434.289a.532.532,0,0,1-.145.434c-.145,0-.145.145-.289.145H48.26c-.145,0-.145,0-.145.145V61.5c0,.579.145,1.3.868,1.3.868,0,1.592-1.013,1.881-1.013a.311.311,0,0,1,.289.289h0c0,.145,0,.145-.145.289a3.552,3.552,0,0,1-2.46,1.592c-.724,0-1.592-.434-1.736-2.171V57.3c0-.145,0-.145-.145-.145h-.579c-.145.289-.289.289-.289,0" transform="translate(20.476 24.31)" fill="#fff"/>
  <path id="Path_10" data-name="Path 10" d="M53.362,63.525a2.811,2.811,0,0,1-2.749-2.46V57.3c0-.145,0-.289-.434-.434-.289-.145-.579,0-.579-.434h0c0-.145,0-.289.145-.289A16.811,16.811,0,0,1,51.626,56a.142.142,0,0,1,.145.145v3.618A3.671,3.671,0,0,0,52.06,61.5a2.18,2.18,0,0,0,2.749,1.013c.145-.145.434-.289.579-.434.289-.289.289-.289.289-.579V57.158c0-.434-.289-.434-1.158-.579a.311.311,0,0,1-.289-.289c0-.289.145-.289.289-.289h2.171c.289,0,.289.145.289.289v5.5c0,.145.145.145.868.579a.142.142,0,0,1,.145.145c0,.579-.289.145-1.736.868h-.145c-.145,0-.145-.145-.145-.289v-.434h0a5.577,5.577,0,0,1-2.6.868" transform="translate(22.175 24.892)" fill="#fff"/>
  <path id="Path_11" data-name="Path 11" d="M59.907,55.72c.145,0,.289-.145.579,0,.579,0,1.3.289,1.3.724h0c0,.289-.289.434-.434.579a1.105,1.105,0,0,1-.724.289c-.434,0-.434-.434-1.013-.434a1.52,1.52,0,0,0-1.3.724c0,.145-.145.145,0,.289v4.2a.54.54,0,0,0,.434.579c1.013.145,1.3,0,1.3.434,0,.145,0,.289-.289.289-.579,0-1.158-.145-1.736-.145a7.045,7.045,0,0,0-1.736.145A.311.311,0,0,1,56,63.1h0c0-.434.289-.289.724-.434.289,0,.289-.145.289-.434V57.6c0-.289-.145-.289-1.013-.868v-.145c0-.145,0,0,1.881-.868h.145c.145,0,.145.145.145.289v.868a5.974,5.974,0,0,1,1.736-1.158" transform="translate(25.036 24.738)" fill="#fff"/>
  <path id="Path_12" data-name="Path 12" d="M65.826,58.213a.989.989,0,0,1-1.013,1.013h0A.989.989,0,0,1,63.8,58.213h0A.989.989,0,0,1,64.813,57.2h0a.989.989,0,0,1,1.013,1.013" transform="translate(28.524 25.428)" fill="#fff"/>
  <path id="Path_13" data-name="Path 13" d="M71.949,55.8a2.346,2.346,0,0,1,2.6,1.881v4.052c0,.724.434.724.579.724.579,0,.579-.579.724-.579,0,0,.145,0,.145.289a1.3,1.3,0,0,1-1.3,1.3,1.727,1.727,0,0,1-1.3-.724h0c-.145,0,0,.145-.434.434a2.917,2.917,0,0,1-1.592.434,1.945,1.945,0,0,1-2.026-1.881v-.145h0A2.324,2.324,0,0,1,70.068,60a6.078,6.078,0,0,1,3.039-.868c.145,0,.145-.145.145-.289V58.26a2.792,2.792,0,0,0-.434-1.447,1.314,1.314,0,0,0-1.013-.434c-1.013,0-1.447,1.158-1.447,1.158a.532.532,0,0,1-.434.145A.662.662,0,0,1,69.2,57.1h0a3.254,3.254,0,0,1,2.749-1.3m1.3,6.222a.532.532,0,0,0,.145-.434V60.431c0-.434,0-.434-.145-.434a3.322,3.322,0,0,0-2.026.579,1.251,1.251,0,0,0-.434.868,1.563,1.563,0,0,0,.434,1.013c.289.145.434.289.724.289a2.958,2.958,0,0,0,1.3-.724" transform="translate(30.938 24.802)" fill="#fff"/>
  <path id="Path_14" data-name="Path 14" d="M78.641,63.921a29.345,29.345,0,0,0-1.881-2.6h0c-.145,0-.434.434-.434.434v1.881c0,.289.145.289.868.434a.462.462,0,0,1,.434.434c0,.289-.145.289-.289.289h-2.6a.311.311,0,0,1-.289-.289h0c0-.579.868-.145.868-.724V54.371a.532.532,0,0,0-.145-.434c-.289-.145-.724-.579-.868-.579v-.145c0-.145.289-.289.289-.289a8.852,8.852,0,0,1,1.736-.724c.145,0,.145.145.145.289v8.248h.145c1.592-1.592,1.736-1.592,1.736-2.026s-.434-.434-.434-.724v-.145c0-.145.145-.289.434-.289h2.894a.311.311,0,0,1,.289.289c0,.434-.289.289-1.013.434s-1.447.868-2.6,2.026l-.145.145c0,.145,0,0,2.026,2.46a2.88,2.88,0,0,0,1.736,1.158c.145,0,.289,0,.289.289,0,.145,0,.434-.289.434-.579,0-1.158-.145-1.736-.145a7.046,7.046,0,0,0-1.736.145c-.145,0-.289,0-.289-.289h0c.145-.434.868,0,.868-.579" transform="translate(33.218 23.193)" fill="#fff"/>
  <path id="Path_15" data-name="Path 15" d="M79.8,57.16c0-.289.868-.579,1.881-2.171a.311.311,0,0,1,.289-.289c.145,0,.289,0,.289.289v1.158c0,.289.145.289.289.289h1.736c.145,0,.434,0,.434.289a.532.532,0,0,1-.145.434c-.145,0-.145.145-.289.145H82.26c-.145,0-.145,0-.145.145V61.5c0,.579.145,1.3.868,1.3.868,0,1.592-1.013,1.881-1.013a.311.311,0,0,1,.289.289h0c0,.145,0,.145-.145.289a3.552,3.552,0,0,1-2.46,1.592c-.724,0-1.592-.434-1.736-2.171V57.3c0-.145,0-.145-.145-.145h-.579c-.145.289-.289.289-.289,0" transform="translate(35.677 24.31)" fill="#fff"/>
  <path id="Path_16" data-name="Path 16" d="M85.2,59.078c0-.289,0-.289-1.158-.724-.145,0-.145-.145-.145-.289s.289-.289.434-.434c.579-.289,1.3-.579,1.881-.868h0a.311.311,0,0,1,.289.289h0c0,.145-.145,1.881-.145,3.907v.724c0,2.171,0,2.171.434,2.171.579.145.724,0,.724.434,0,.145,0,.434-.145.434-.579,0-1.013-.145-1.592-.145a5.936,5.936,0,0,0-1.592.145.311.311,0,0,1-.289-.289c0-.434,0-.434.868-.434.434,0,.434-.289.434-.579v-.868c0-2.171,0-3.184,0-3.473M86.215,53a.834.834,0,0,1,.868.868.934.934,0,0,1-.868.868.81.81,0,0,1-.868-.724h0c0-.724.289-1.013.868-1.013" transform="translate(37.51 23.55)" fill="#fff"/>
  <path id="Path_17" data-name="Path 17" d="M91.854,56.379c0-.145,0-.289.145-.289h2.894a.311.311,0,0,1,.289.289c0,.579-.724.145-1.013.579a.505.505,0,0,1-.145.289,23.611,23.611,0,0,1-2.6,6.222c-.145.145-.145.145-.289.145-.289,0-.434-.289-.579-.579-2.315-3.907-2.894-5.933-3.184-6.222-.289-.434-.868,0-.868-.724,0-.145,0-.145.145-.289h3.473a.311.311,0,0,1,.289.289c0,.434-.434.289-1.013.434a.311.311,0,0,0-.289.289,26.413,26.413,0,0,0,2.026,4.631.145.145,0,0,0,.289,0,13.506,13.506,0,0,0,1.736-4.775c0-.289-.434-.289-1.013-.289-.145.289-.289.289-.289,0Z" transform="translate(38.672 24.802)" fill="#fff"/>
  <path id="Path_18" data-name="Path 18" d="M98.326,58.213a.989.989,0,0,1-1.013,1.013h0A.989.989,0,0,1,96.3,58.213h0A.989.989,0,0,1,97.313,57.2h0a1.087,1.087,0,0,1,1.013,1.013" transform="translate(43.054 25.428)" fill="#fff"/>
  <path id="Path_19" data-name="Path 19" d="M104.449,55.934a5.818,5.818,0,0,1,2.171.579.977.977,0,0,0,.868-.579c.145-.145.289-.434.579-.434a.684.684,0,0,1,.724.724c0,.724-1.158.868-1.3,1.013v.145a2.821,2.821,0,0,1,.145,1.158,2.9,2.9,0,0,1-2.894,2.894h0c-.289,0-.724-.145-1.013-.145a.917.917,0,0,0-.724.868c0,1.013,2.894.579,4.341,1.013a2,2,0,0,1,1.592,1.881c0,1.013-.724,2.315-3.618,2.315s-3.473-1.447-3.473-2.171a1.592,1.592,0,0,1,.868-1.447h0c0-.145-.724-.289-.724-1.013A2.087,2.087,0,0,1,103,61.144h0c0-.145-.579-.289-1.013-1.158a2.151,2.151,0,0,1-.289-1.3,2.661,2.661,0,0,1,2.749-2.749h0m1.158,10.708c1.881,0,2.171-.724,2.171-1.3a1.088,1.088,0,0,0-.724-1.013,15.773,15.773,0,0,0-3.762-.434h0c-.145,0-.145,0-.289.145a2.057,2.057,0,0,0-.289.868c0,1.013,1.158,1.737,2.894,1.737M103,58.394c0,1.3.724,2.46,1.881,2.46a1.684,1.684,0,0,0,1.592-1.881c0-1.158-.724-2.46-1.881-2.46-1.013,0-1.592.724-1.592,1.881" transform="translate(45.468 24.668)" fill="#fff"/>
  <path id="Path_20" data-name="Path 20" d="M110.284,55.8a3.932,3.932,0,0,1,3.039,1.736.532.532,0,0,1,.145.434h0c0,.579-.868.724-1.447.868-3.618,1.3-3.762,1.158-3.762,1.3a2.563,2.563,0,0,0,2.6,2.46,2.627,2.627,0,0,0,2.026-.868c.145-.145.289-.289.434-.289a.311.311,0,0,1,.289.289h0c0,.145,0,.145-.145.289a3.843,3.843,0,0,1-3.184,1.592,3.521,3.521,0,0,1-3.473-3.473v-.434A3.539,3.539,0,0,1,109.85,55.8h.434m-.289,1.013c-1.013,0-1.736.868-1.736,2.46,0,.145,0,.145.145.145,0,0,3.184-1.3,3.328-1.3a.142.142,0,0,0,.145-.145,2.258,2.258,0,0,0-1.881-1.158" transform="translate(47.736 24.802)" fill="#fff"/>
  <path id="Path_21" data-name="Path 21" d="M114.16,56.858h0a4.1,4.1,0,0,1,2.46-1.013h0a2.411,2.411,0,0,1,2.46,2.315v4.052h0c0,.434.289.434.868.579a.311.311,0,0,1,.289.289h0c0,.289-.145.289-.289.289-.434,0-1.013-.145-1.447-.145a4.923,4.923,0,0,0-1.447.145.311.311,0,0,1-.289-.289c0-.289.145-.289.868-.434.289,0,.289-.145.289-.434V59.462a4.274,4.274,0,0,0-.289-1.881,1.755,1.755,0,0,0-1.736-1.013,2.258,2.258,0,0,0-1.881,1.158v4.486c0,.145,0,.434.434.434.724.145,1.013.145,1.013.434,0,.145,0,.289-.289.289a11.728,11.728,0,0,0-3.184,0,.311.311,0,0,1-.289-.289h0c0-.289.145-.289.724-.434.434,0,.434-.289.434-.579v-4.2c0-.434,0-.434-.724-1.013l-.145-.145h0c0-.145,0-.145,1.736-1.013h.145c.145,0,.145.145.145.289v.724c.145,0,.145,0,.145.145h0" transform="translate(49.939 24.757)" fill="#fff"/>
  <path id="Path_22" data-name="Path 22" d="M121.562,63.525a2.811,2.811,0,0,1-2.749-2.46V57.3c0-.145,0-.289-.434-.434-.289-.145-.579,0-.579-.434h0c0-.145,0-.289.145-.289A16.811,16.811,0,0,1,119.826,56a.142.142,0,0,1,.145.145v3.618a3.671,3.671,0,0,0,.289,1.736,2.18,2.18,0,0,0,2.749,1.013c.145-.145.434-.289.579-.434.289-.289.289-.289.289-.579V57.158c0-.434-.289-.434-1.158-.579a.311.311,0,0,1-.289-.289c0-.289.145-.289.289-.289h2.171c.289,0,.289.145.289.289v5.5c0,.145.145.145.868.579a.142.142,0,0,1,.145.145c0,.579-.289.145-1.736.868h-.145a.311.311,0,0,1-.289-.289v-.434h0a5.044,5.044,0,0,1-2.46.868" transform="translate(52.666 24.892)" fill="#fff"/>
  <path id="Path_23" data-name="Path 23" d="M126.868,55.8a1.836,1.836,0,0,1,.868.145c.145,0,.289-.145.434-.145s.289.289.289.289a15.2,15.2,0,0,1,.289,1.881c0,.289-.289.289-.434.289-.434,0-.289-.434-.579-.868a2.009,2.009,0,0,0-1.447-.724,1.1,1.1,0,0,0-1.158.868h0c0,.289.145.868,1.447,1.3a4.237,4.237,0,0,1,2.315,1.013,2.6,2.6,0,0,1,.579,1.3,2.364,2.364,0,0,1-2.6,2.315h-.145a3.93,3.93,0,0,1-2.46-.868c-.145-.145-.289-.434-.145-.579V61.009c0-.434,0-.579.289-.579.434,0,.145.579.434,1.013a2.532,2.532,0,0,0,2.026,1.013,1.3,1.3,0,0,0,1.447-1.158h0c0-1.158-1.592-1.3-2.171-1.447-1.447-.434-1.881-1.3-1.881-2.171a2.693,2.693,0,0,1,2.6-1.881h0" transform="translate(55.464 24.802)" fill="#fff"/>
  <path id="Path_24" data-name="Path 24" d="M130.968,55.8a1.835,1.835,0,0,1,.868.145c.145,0,.289-.145.434-.145s.289.289.289.289a15.2,15.2,0,0,1,.289,1.881c0,.289-.289.289-.434.289-.434,0-.289-.434-.579-.868a2.009,2.009,0,0,0-1.447-.724,1.1,1.1,0,0,0-1.158.868h0c0,.289.145.868,1.447,1.3a4.237,4.237,0,0,1,2.315,1.013,2.6,2.6,0,0,1,.579,1.3,2.364,2.364,0,0,1-2.6,2.315h-.145a3.929,3.929,0,0,1-2.46-.868c-.145-.145-.289-.434-.145-.579V61.009c0-.434,0-.579.289-.579.434,0,.145.579.434,1.013a2.532,2.532,0,0,0,2.026,1.013,1.3,1.3,0,0,0,1.447-1.158h0c0-1.158-1.592-1.3-2.171-1.447-1.447-.434-2.026-1.3-2.026-2.171a3.036,3.036,0,0,1,2.749-1.881h0" transform="translate(57.297 24.802)" fill="#fff"/>
  <path id="Path_25" data-name="Path 25" d="M31.8,9.972l-3.328,1.736L29.049,7.8,26.3,5.052l3.762-.579L31.8,1l1.736,3.473,3.907.579L34.693,7.8l.579,3.907Z" transform="translate(11.758 0.302)" fill="#fff"/>
  <path id="Path_26" data-name="Path 26" d="M41.644,9.972l-3.473,1.736L38.749,7.8,36,5.052l3.762-.579L41.5,1l1.737,3.473,3.907.579L44.393,7.8l.579,3.907Z" transform="translate(16.095 0.302)" fill="#fff"/>
  <path id="Path_27" data-name="Path 27" d="M51.344,10.172l-3.473,1.881.579-3.907L45.7,5.4l3.907-.724L51.2,1.2l1.736,3.473,3.907.579L54.093,8l.724,3.907Z" transform="translate(20.431 0.392)" fill="#fff"/>
  <path id="Path_28" data-name="Path 28" d="M61.044,10.172l-3.473,1.881.724-3.907L55.4,5.4l3.907-.724L61.044,1.2,62.78,4.673l3.762.579L63.793,8l.724,3.907Z" transform="translate(24.768 0.392)" fill="#fff"/>
  <path id="Path_29" data-name="Path 29" d="M67.489,12.411c-.289,0-.289-.145-.289-.434,0-.434.289-.289,1.158-.434.434,0,.434-.289.434-.579V1.847c0-.579-.434-.579-.868-.579-.289,0-.724,0-.724-.434,0-.145,0-.434.434-.434h4.2c.289,0,.289.145.289.434V.979c0,.289-.289.289-1.3.289-.289,0-.434.145-.434.579V4.741c0,.145,0,.289.289.289h5.933c.289,0,.289-.145.289-.289v-2.6c0-.289,0-.579-.434-.724s-1.3.145-1.3-.434c0-.145.145-.434.289-.434H79.79a.311.311,0,0,1,.289.289h0c.145.434-.289.434-1.158.434-.434.145-.434.289-.434.579v9.261c0,.289.145.579.434.579h.145c.724,0,1.158,0,1.158.434,0,.145,0,.434-.289.434a17.256,17.256,0,0,0-2.171-.145,20.585,20.585,0,0,0-2.171.145c-.289,0-.289-.145-.289-.289,0-.579.145-.434,1.3-.579.434,0,.579-.289.579-.724V6.188c0-.145,0-.145-.289-.145H70.962c-.289,0-.289.145-.289.289v4.775c0,.289,0,.434.868.579.289,0,.868,0,.868.434,0,.289,0,.434-.289.434a17.256,17.256,0,0,0-2.171-.145h-2.46" transform="translate(30.044 0.034)" fill="#fff"/>
  <path id="Path_30" data-name="Path 30" d="M80.407,3.5a3.615,3.615,0,0,1,3.618,3.762v.289a3.765,3.765,0,1,1-7.525.289V7.552A3.923,3.923,0,0,1,80.407,3.5h0m2.46,4.052a2.919,2.919,0,0,0-2.6-3.184c-.868,0-2.315.724-2.315,3.039,0,1.736,1.013,3.039,2.46,3.039a2.724,2.724,0,0,0,2.46-2.894h0" transform="translate(34.201 1.42)" fill="#fff"/>
  <path id="Path_31" data-name="Path 31" d="M82.2,4.86c0-.289.868-.579,1.881-2.171a.311.311,0,0,1,.289-.289c.145,0,.289,0,.289.289V3.847c0,.289.145.289.289.289h1.736c.145,0,.434,0,.434.289a.532.532,0,0,1-.145.434c-.145,0-.145.145-.289.145H84.66c-.145,0-.145,0-.145.145V9.2c0,.579.145,1.3.868,1.3.868,0,1.592-1.013,1.881-1.013a.311.311,0,0,1,.289.289h0c0,.145,0,.145-.145.289a3.552,3.552,0,0,1-2.46,1.592c-.724,0-1.592-.434-1.736-2.171V5c0-.145,0-.145-.145-.145h-.579c-.145.289-.289.289-.289,0" transform="translate(36.75 0.928)" fill="#fff"/>
  <path id="Path_32" data-name="Path 32" d="M89.584,3.5a3.932,3.932,0,0,1,3.039,1.736.532.532,0,0,1,.145.434h0c0,.579-.868.724-1.447.868-3.618,1.3-3.762,1.158-3.762,1.3a2.563,2.563,0,0,0,2.6,2.46,2.627,2.627,0,0,0,2.026-.868c.145-.145.289-.145.434-.289a.311.311,0,0,1,.289.289h0c0,.145,0,.145-.145.289a3.843,3.843,0,0,1-3.184,1.592,3.521,3.521,0,0,1-3.473-3.473V7.407A3.539,3.539,0,0,1,89.15,3.5h.434m-.289,1.013c-1.013,0-1.736.868-1.736,2.46,0,.145,0,.145.145.145,0,0,3.184-1.3,3.328-1.3a.142.142,0,0,0,.145-.145,2.258,2.258,0,0,0-1.881-1.158" transform="translate(38.482 1.42)" fill="#fff"/>
  <path id="Path_33" data-name="Path 33" d="M94.718,12.545c-.579,0-1.158-.145-1.592-.145a9.07,9.07,0,0,0-1.592.145c-.289,0-.289-.145-.289-.289h0c0-.289.145-.289.724-.434.434,0,.434-.289.434-.579V2.415c0-.289-.145-.289-.434-.434-.724-.434-.868-.434-.868-.724h0c0-.145,0-.145,2.171-1.158h.145A.311.311,0,0,1,93.7.389v11c0,.579.145.579.868.579a.311.311,0,0,1,.289.289h0c.145.145,0,.289-.145.289" transform="translate(40.729 -0.1)" fill="#fff"/>
  <path id="Path_34" data-name="Path 34" d="M98.5,6.778c0-.289,0-.289-1.158-.724-.145,0-.145-.145-.145-.289s.289-.289.434-.434c.579-.289,1.3-.579,1.881-.868h0a.311.311,0,0,1,.289.289h0c0,.145-.145,1.881-.145,3.907v.579c0,2.171,0,2.171.434,2.171.579.145.724,0,.724.434,0,.145,0,.434-.145.434-.579,0-1.013-.145-1.592-.145a5.936,5.936,0,0,0-1.592.145.311.311,0,0,1-.289-.289h0c0-.434,0-.434.868-.434.434,0,.434-.289.434-.579v-.868c0-2.026,0-3.039,0-3.328M99.515.7a.834.834,0,0,1,.868.868.934.934,0,0,1-.868.868.81.81,0,0,1-.868-.724h0c0-.724.434-1.013.868-1.013" transform="translate(43.456 0.168)" fill="#fff"/>
  <path id="Path_35" data-name="Path 35" d="M102.36,4.513h0A4.1,4.1,0,0,1,104.82,3.5h0a2.411,2.411,0,0,1,2.46,2.315V9.867h0c0,.434.289.434.868.579a.311.311,0,0,1,.289.289h0c0,.289-.145.289-.289.289-.434,0-1.013-.145-1.447-.145a4.923,4.923,0,0,0-1.447.145.311.311,0,0,1-.289-.289c0-.289.145-.289.868-.434.289,0,.289-.145.289-.434v-2.6a4.274,4.274,0,0,0-.289-1.881A1.755,1.755,0,0,0,104.1,4.368a2.258,2.258,0,0,0-1.881,1.158v4.486c0,.145,0,.434.434.434.724.145,1.013.145,1.013.434,0,.145,0,.289-.289.289a6.489,6.489,0,0,0-1.592-.145,5.936,5.936,0,0,0-1.592.145.311.311,0,0,1-.289-.289h0c0-.289.145-.289.724-.434.434,0,.434-.289.434-.579v-4.2c0-.434,0-.434-.724-1.013l-.145-.145h0c0-.145,0-.145,1.736-1.013h.145c.145,0,.145.145.145.289v.724c.145-.145.145-.145.145,0h0" transform="translate(44.663 1.42)" fill="#fff"/>
  <path id="Path_36" data-name="Path 36" d="M118.117,3.4a3.307,3.307,0,0,1-2.026,2.894.142.142,0,0,0-.145.145h0a31.6,31.6,0,0,1,3.184,4.486,1.465,1.465,0,0,0,1.013.579c.434,0,.579-.434.724-.434a.142.142,0,0,1,.145.145h0a1.574,1.574,0,0,1-1.592,1.3c-.868,0-1.592-1.013-1.881-1.3L115.8,8.751c-1.592-2.171-1.447-2.026-1.592-2.171-.145,0-.145-.145-.289,0h-1.3c-.145,0-.289,0-.289.289v4.052a.54.54,0,0,0,.434.579c1.158.145,1.592,0,1.592.579,0,.145-.145.289-.289.434h0a18.2,18.2,0,0,0-2.315-.145,21.393,21.393,0,0,0-2.315.145c-.289,0-.289-.289-.289-.434,0-.434.289-.289,1.158-.434.434,0,.434-.289.434-.579V1.95c0-.579-.289-.579-1.447-.724A.311.311,0,0,1,109,.937c0-.289,0-.289.289-.289h.579c1.592,0,2.749-.145,3.907-.145,3.328-.145,4.341,1.736,4.341,2.894m-4.486-2.315a2.463,2.463,0,0,0-1.013.145c-.145,0-.145.145-.145.289h0V5.567c0,.289.145.289,1.158.289a2.862,2.862,0,0,0,1.592-.289,2.176,2.176,0,0,0,1.447-2.026,2.774,2.774,0,0,0-3.039-2.46" transform="translate(48.731 0.076)" fill="#fff"/>
  <path id="Path_37" data-name="Path 37" d="M120.549,3.5a2.346,2.346,0,0,1,2.6,1.881V9.433c0,.724.434.724.579.724.579,0,.579-.579.724-.579,0,0,.145,0,.145.289a1.3,1.3,0,0,1-1.3,1.3,1.727,1.727,0,0,1-1.3-.724h0c-.145,0,0,.145-.434.434a2.917,2.917,0,0,1-1.592.434,1.945,1.945,0,0,1-2.026-1.881V9.288h0a2.324,2.324,0,0,1,.724-1.592,6.078,6.078,0,0,1,3.039-.868c.145,0,.145-.145.145-.289V6.1a2.792,2.792,0,0,0-.434-1.447,1.314,1.314,0,0,0-1.013-.434c-1.013,0-1.447,1.158-1.447,1.158a.532.532,0,0,1-.434.145.662.662,0,0,1-.724-.579h0c0-.579,1.3-1.447,2.749-1.447m1.158,6.222a.532.532,0,0,0,.145-.434V8.131c0-.434,0-.434-.145-.434a3.322,3.322,0,0,0-2.026.579,1.251,1.251,0,0,0-.434.868,1.563,1.563,0,0,0,.434,1.013,1.105,1.105,0,0,0,.724.289,2.349,2.349,0,0,0,1.3-.724" transform="translate(52.666 1.42)" fill="#fff"/>
  <path id="Path_38" data-name="Path 38" d="M126.462,11.225a2.811,2.811,0,0,1-2.749-2.46V5c0-.145,0-.289-.434-.434-.289-.145-.579,0-.579-.434h0c0-.145,0-.289.145-.289a16.811,16.811,0,0,1,1.881-.145.142.142,0,0,1,.145.145V7.462A3.671,3.671,0,0,0,125.16,9.2a2.18,2.18,0,0,0,2.749,1.013c.145-.145.434-.289.579-.434.289-.289.289-.289.289-.579V4.858c0-.434-.289-.434-1.158-.579-.145,0-.145-.145-.145-.289,0-.289.145-.289.289-.289h2.171c.289,0,.289.145.289.289v5.5c0,.145.145.145.868.579a.142.142,0,0,1,.145.145c0,.579-.289.145-1.736.868h-.145a.311.311,0,0,1-.289-.289v-.434h0a6.17,6.17,0,0,1-2.6.868" transform="translate(54.856 1.509)" fill="#fff"/>
  <path id="Path_39" data-name="Path 39" d="M133.007,3.42c.145,0,.289-.145.579,0,.579,0,1.3.289,1.3.724h0c0,.289-.289.434-.434.579a1.105,1.105,0,0,1-.724.289c-.434,0-.434-.434-1.013-.434a1.52,1.52,0,0,0-1.3.724c0,.145-.145.145,0,.289v4.2a.54.54,0,0,0,.434.579c1.013.145,1.3,0,1.3.434,0,.145,0,.289-.289.289-.579,0-1.158-.145-1.736-.145a7.045,7.045,0,0,0-1.736.145.311.311,0,0,1-.289-.289h0c0-.434.289-.289.724-.434.289,0,.289-.145.289-.434V5.446c0-.289-.145-.289-1.013-.868V4.433c0-.145,0,0,1.881-.868h.145c.145,0,.145.145.145.289v.868c0-.289,1.158-1.158,1.736-1.3" transform="translate(57.718 1.355)" fill="#fff"/>
  <path id="Path_40" data-name="Path 40" d="M134.6,6.778c0-.289,0-.289-1.158-.724-.145,0-.145-.145-.145-.289s.289-.289.434-.434c.579-.289,1.3-.579,1.881-.868h0a.311.311,0,0,1,.289.289h0c0,.145-.145,1.881-.145,3.907v.579c0,2.171,0,2.171.434,2.171.579.145.724,0,.724.434,0,.145,0,.434-.145.434-.579,0-1.013-.145-1.592-.145a5.936,5.936,0,0,0-1.592.145.311.311,0,0,1-.289-.289h0c0-.434,0-.434.868-.434.434,0,.434-.289.434-.579v-.868c0-2.026,0-3.039,0-3.328M135.615.7a.834.834,0,0,1,.868.868.934.934,0,0,1-.868.868.81.81,0,0,1-.868-.724h0c.145-.724.434-1.013.868-1.013" transform="translate(59.595 0.168)" fill="#fff"/>
  <path id="Path_41" data-name="Path 41" d="M139.068,3.634a1.835,1.835,0,0,1,.868.145c.145,0,.289-.145.434-.145s.289.289.289.289a15.2,15.2,0,0,1,.289,1.881c0,.289-.289.289-.434.289-.434,0-.289-.434-.579-.868a2.009,2.009,0,0,0-1.447-.724,1.1,1.1,0,0,0-1.158.868h0c0,.289.145.868,1.447,1.3a4.238,4.238,0,0,1,2.315,1.013,2.6,2.6,0,0,1,.579,1.3,2.364,2.364,0,0,1-2.6,2.315h-.145a3.929,3.929,0,0,1-2.46-.868c-.145-.145-.289-.434-.145-.579V8.843c0-.434,0-.579.289-.579.434,0,.145.579.434,1.013a2.532,2.532,0,0,0,2.026,1.013,1.3,1.3,0,0,0,1.447-1.158h0c0-1.158-1.592-1.3-2.171-1.447-1.447-.434-2.026-1.3-2.026-2.171a2.554,2.554,0,0,1,2.749-1.881c-.145-.145,0-.145,0,0" transform="translate(60.918 1.431)" fill="#fff"/>
</svg>
