<svg xmlns="http://www.w3.org/2000/svg" width="38.395" height="29.862" viewBox="0 0 38.395 29.862">
  <g id="photo" transform="translate(0 -61.201)">
    <path id="Path_50" data-name="Path 50" d="M35.957,61.2H2.438A2.438,2.438,0,0,0,0,63.639V88.626a2.438,2.438,0,0,0,2.438,2.438H35.957a2.438,2.438,0,0,0,2.438-2.438V63.639A2.438,2.438,0,0,0,35.957,61.2Zm0,2.438V81.368L31.152,77a1.828,1.828,0,0,0-2.522.06l-4.862,4.861L14.181,70.47a1.828,1.828,0,0,0-2.788-.019L2.438,80.86V63.639Zm-10.36,6.4a3.352,3.352,0,1,1,3.352,3.352A3.351,3.351,0,0,1,25.6,70.038Z" fill="#927d6a"/>
  </g>
</svg>
