<svg xmlns="http://www.w3.org/2000/svg" width="43.288" height="43.288" viewBox="0 0 43.288 43.288">
  <g id="zoom-in" transform="translate(0 0)">
    <g id="Group_12" data-name="Group 12" transform="translate(0 0)">
      <g id="Group_11" data-name="Group 11" transform="translate(0 0)">
        <path id="Path_55" data-name="Path 55" d="M42.792,40.4,30.579,28.187a17.252,17.252,0,1,0-2.392,2.392L40.4,42.792A1.691,1.691,0,0,0,42.792,40.4ZM27.05,27.05a13.869,13.869,0,1,1,0-19.614A13.885,13.885,0,0,1,27.05,27.05Z" transform="translate(0 0)" fill="#fff"/>
      </g>
    </g>
    <g id="Group_14" data-name="Group 14" transform="translate(7.271 7.271)">
      <g id="Group_13" data-name="Group 13">
        <path id="Path_56" data-name="Path 56" d="M104.258,94.286h-6.59V87.7a1.691,1.691,0,0,0-3.383,0v6.59H87.7a1.691,1.691,0,0,0,0,3.383h6.59v6.59a1.691,1.691,0,1,0,3.383,0v-6.59h6.59a1.691,1.691,0,1,0,0-3.383Z" transform="translate(-86.005 -86.005)" fill="#fff"/>
      </g>
    </g>
  </g>
</svg>
