<svg xmlns="http://www.w3.org/2000/svg" width="67.345" height="13.914" viewBox="0 0 67.345 13.914">
  <g id="logo-pw-white" transform="translate(0 -0.5)">
    <rect id="Rectangle_26" data-name="Rectangle 26" width="2.039" height="2.039" transform="translate(2.039 12.375)" fill="#fff" opacity="0.6"/>
    <path id="Path_26" data-name="Path 26" d="M6.117,70.3H0V80.491H2.039V72.339H6.117v6.117H8.156V70.3Z" transform="translate(0 -66.082)" fill="#fff"/>
    <rect id="Rectangle_27" data-name="Rectangle 27" width="2.039" height="2.039" transform="translate(6.114 10.255) rotate(90)" fill="#fff" opacity="0.8"/>
    <path id="Path_27" data-name="Path 27" d="M318.237,77.639a2.324,2.324,0,0,1-1.875-.858h-.023v3.666H314.3V71.278h1.941v.755h.038a2.463,2.463,0,0,1,1.978-.933,3.288,3.288,0,0,1-.019,6.539Zm-.483-4.87a1.6,1.6,0,1,0,1.413,1.589A1.592,1.592,0,0,0,317.754,72.769Z" transform="translate(-299.021 -66.844)" fill="#fff"/>
    <rect id="Rectangle_28" data-name="Rectangle 28" width="2.039" height="6.192" transform="translate(23.706 4.202)" fill="#fff"/>
    <path id="Path_28" data-name="Path 28" d="M570.964,78.007V74.39c0-.732-.187-1.395-.919-1.395s-1.092.667-1.092,1.425v3.592H566.9V71.386h1.978V72.3h.023a2.085,2.085,0,0,1,1.852-1.1c1.664,0,2.264,1.384,2.264,2.714v4.1h-2.053Z" transform="translate(-539.354 -67.386)" fill="#fff"/>
    <path id="Path_29" data-name="Path 29" d="M722.3,81.088V79.5l2.906-3.033h-2.8V74.9h5.283v1.528l-3,3.084h3.122v1.58H722.3Z" transform="translate(-687.216 -70.698)" fill="#fff"/>
    <path id="Path_30" data-name="Path 30" d="M859.372,81.088h-2.048L856.1,77.234h-.023l-1.2,3.853h-2.053L850.7,74.9h2.2l1.069,3.914H854l1.106-3.914h2.053l1.144,3.914h.023l1.083-3.914h2.114Z" transform="translate(-809.238 -70.699)" fill="#fff"/>
    <path id="Path_31" data-name="Path 31" d="M1091.74,74.714h-4.486a1.443,1.443,0,0,0,1.481,1.246,1.586,1.586,0,0,0,1.369-.691l1.416.956a3.175,3.175,0,0,1-2.808,1.406,3.519,3.519,0,0,1-.066-7.032c1.828,0,3.108,1.341,3.108,3.6C1091.75,74.369,1091.75,74.554,1091.74,74.714Zm-1.866-1.351a1.163,1.163,0,0,0-1.219-1.261,1.385,1.385,0,0,0-1.406,1.261Z" transform="translate(-1032.265 -66.814)" fill="#fff"/>
    <path id="Path_32" data-name="Path 32" d="M1247.72,15.972a2.414,2.414,0,0,1-2.025-.98h-.023V15.8H1243.8V6.4h2.039v3.867h.023a2.446,2.446,0,0,1,1.889-.834,3.015,3.015,0,0,1,2.92,3.244,3.042,3.042,0,0,1-2.951,3.3Zm-.483-4.87a1.592,1.592,0,0,0,0,3.178,1.485,1.485,0,0,0,1.467-1.6,1.469,1.469,0,0,0-1.464-1.58Z" transform="translate(-1183.336 -5.623)" fill="#fff"/>
    <rect id="Rectangle_29" data-name="Rectangle 29" width="2.039" height="2.039" transform="translate(23.706 0.5)" fill="#fff"/>
  </g>
</svg>
