<?xml version="1.0" encoding="utf-8"?>
<!-- Generator: Adobe Illustrator 22.0.1, SVG Export Plug-In . SVG Version: 6.00 Build 0)  -->
<svg version="1.1" id="Layer_1" xmlns="http://www.w3.org/2000/svg" xmlns:xlink="http://www.w3.org/1999/xlink" x="0px" y="0px"
	 width="24px" height="27.4px" viewBox="0 0 24 27.4" style="enable-background:new 0 0 24 27.4;" xml:space="preserve">
<style type="text/css">
	.st0{fill:#FFFFFF;}
</style>
<path class="st0" d="M7.9,15.4H5.8c-0.4,0-0.6-0.3-0.6-0.6v-2.1c0-0.4,0.3-0.6,0.6-0.6h2.1c0.4,0,0.6,0.3,0.6,0.6v2.1
	C8.6,15.1,8.3,15.4,7.9,15.4z M13.7,14.8v-2.1c0-0.4-0.3-0.6-0.6-0.6h-2.1c-0.4,0-0.6,0.3-0.6,0.6v2.1c0,0.4,0.3,0.6,0.6,0.6h2.1
	C13.4,15.4,13.7,15.1,13.7,14.8z M18.9,14.8v-2.1c0-0.4-0.3-0.6-0.6-0.6h-2.1c-0.4,0-0.6,0.3-0.6,0.6v2.1c0,0.4,0.3,0.6,0.6,0.6h2.1
	C18.6,15.4,18.9,15.1,18.9,14.8z M13.7,19.9v-2.1c0-0.4-0.3-0.6-0.6-0.6h-2.1c-0.4,0-0.6,0.3-0.6,0.6v2.1c0,0.4,0.3,0.6,0.6,0.6h2.1
	C13.4,20.6,13.7,20.3,13.7,19.9z M8.6,19.9v-2.1c0-0.4-0.3-0.6-0.6-0.6H5.8c-0.4,0-0.6,0.3-0.6,0.6v2.1c0,0.4,0.3,0.6,0.6,0.6h2.1
	C8.3,20.6,8.6,20.3,8.6,19.9z M18.9,19.9v-2.1c0-0.4-0.3-0.6-0.6-0.6h-2.1c-0.4,0-0.6,0.3-0.6,0.6v2.1c0,0.4,0.3,0.6,0.6,0.6h2.1
	C18.6,20.6,18.9,20.3,18.9,19.9z M24,6v18.9c0,1.4-1.2,2.6-2.6,2.6H2.6c-1.4,0-2.6-1.2-2.6-2.6V6c0-1.4,1.2-2.6,2.6-2.6h2.6V0.6
	C5.1,0.3,5.4,0,5.8,0h2.1c0.4,0,0.6,0.3,0.6,0.6v2.8h6.9V0.6c0-0.4,0.3-0.6,0.6-0.6h2.1c0.4,0,0.6,0.3,0.6,0.6v2.8h2.6
	C22.8,3.4,24,4.6,24,6z M21.4,24.5v-16H2.6v16c0,0.2,0.1,0.3,0.3,0.3h18.2C21.3,24.9,21.4,24.7,21.4,24.5z"/>
</svg>
