<svg id="Group_6" data-name="Group 6" xmlns="http://www.w3.org/2000/svg" xmlns:xlink="http://www.w3.org/1999/xlink" width="27.089" height="35.308" viewBox="0 0 27.089 35.308">
  <defs>
    <clipPath id="clip-path">
      <rect id="Rectangle_11" data-name="Rectangle 11" width="27.088" height="35.308" fill="#f9d000"/>
    </clipPath>
  </defs>
  <g id="Group_5" data-name="Group 5" clip-path="url(#clip-path)">
    <path id="Path_8" data-name="Path 8" d="M13.544,35.308a1.723,1.723,0,0,1-1.2-.489,62.759,62.759,0,0,1-6.3-7.205C2.033,22.231,0,17.5,0,13.544A13.561,13.561,0,0,1,13.543,0h0A13.561,13.561,0,0,1,27.088,13.543c0,3.955-2.033,8.689-6.044,14.072a62.761,62.761,0,0,1-6.3,7.205,1.723,1.723,0,0,1-1.2.489m0-32.869A11.14,11.14,0,0,0,2.439,13.546c0,3.367,1.923,7.728,5.561,12.611a61.454,61.454,0,0,0,5.544,6.422,61.453,61.453,0,0,0,5.544-6.422c3.638-4.883,5.561-9.244,5.561-12.613a11.139,11.139,0,0,0-11.1-11.105" fill="#f9d000"/>
    <path id="Path_9" data-name="Path 9" d="M129.17,116.4l-2.637,2.571.623,3.631a.423.423,0,0,1-.614.446l-3.261-1.714-3.26,1.714a.423.423,0,0,1-.614-.446l.623-3.631-2.637-2.57a.423.423,0,0,1,.235-.722l3.645-.529,1.63-3.3a.441.441,0,0,1,.76,0l1.63,3.3,3.645.529a.423.423,0,0,1,.235.722" transform="translate(-109.736 -104.459)" fill="#f9d000"/>
  </g>
</svg>
