<svg xmlns="http://www.w3.org/2000/svg" xmlns:xlink="http://www.w3.org/1999/xlink" width="38.667" height="30.074" viewBox="0 0 38.667 30.074">
  <defs>
    <clipPath id="clip-path">
      <rect id="Rectangle_10" data-name="Rectangle 10" width="38.667" height="30.074" fill="#f9d000"/>
    </clipPath>
  </defs>
  <g id="Group_4" data-name="Group 4" transform="translate(0 -0.001)">
    <g id="Group_3" data-name="Group 3" transform="translate(0 0.001)" clip-path="url(#clip-path)">
      <path id="Path_2" data-name="Path 2" d="M63.733,75.419a2.99,2.99,0,0,1-1.547-.447l-5.345-3.214a1.289,1.289,0,0,1,1.34-2.131l5.345,3.214a.4.4,0,0,0,.326,0,.516.516,0,0,0,.275-.206l5.156-8.954a1.289,1.289,0,0,1,2.234,1.272l-5.156,8.954a3.042,3.042,0,0,1-2.629,1.529Z" transform="translate(-51.91 -58.027)" fill="#f9d000"/>
      <path id="Path_3" data-name="Path 3" d="M62.761,165.121H41.521a3.007,3.007,0,0,1-2.956-2.423l-2.818-14.109a1.306,1.306,0,1,1,2.543-.516L41.108,162.2a.412.412,0,0,0,.412.344H62.761a.412.412,0,0,0,.412-.326l2.818-14.143a1.306,1.306,0,0,1,2.543.516l-2.818,14.126a3.007,3.007,0,0,1-2.956,2.406" transform="translate(-32.808 -135.047)" fill="#f9d000"/>
      <path id="Path_4" data-name="Path 4" d="M241.869,73.325a3.042,3.042,0,0,1-2.629-1.53l-5.156-8.953a1.289,1.289,0,1,1,2.234-1.272l5.156,8.954a.516.516,0,0,0,.275.206.4.4,0,0,0,.326,0l5.345-3.2a1.289,1.289,0,0,1,1.34,2.2l-5.345,3.214A2.99,2.99,0,0,1,241.869,73.325Z" transform="translate(-215.026 -55.933)" fill="#f9d000"/>
      <path id="Path_5" data-name="Path 5" d="M195.867,7.734a3.867,3.867,0,1,1,3.867-3.867,3.867,3.867,0,0,1-3.867,3.867m0-5.156a1.289,1.289,0,1,0,1.289,1.289,1.306,1.306,0,0,0-1.289-1.289" transform="translate(-176.533 -0.001)" fill="#f9d000"/>
      <path id="Path_6" data-name="Path 6" d="M3.867,93.067A3.867,3.867,0,1,1,7.733,89.2a3.867,3.867,0,0,1-3.867,3.867m0-5.156A1.289,1.289,0,1,0,5.156,89.2a1.306,1.306,0,0,0-1.289-1.289" transform="translate(0 -78.46)" fill="#f9d000"/>
      <path id="Path_7" data-name="Path 7" d="M387.867,93.067a3.867,3.867,0,1,1,3.867-3.867,3.867,3.867,0,0,1-3.867,3.867m0-5.156a1.289,1.289,0,1,0,1.289,1.289,1.306,1.306,0,0,0-1.289-1.289" transform="translate(-353.067 -78.46)" fill="#f9d000"/>
    </g>
  </g>
</svg>
