<svg id="Group_8" data-name="Group 8" xmlns="http://www.w3.org/2000/svg" xmlns:xlink="http://www.w3.org/1999/xlink" width="27.426" height="29.713" viewBox="0 0 27.426 29.713">
  <defs>
    <clipPath id="clip-path">
      <rect id="Rectangle_12" data-name="Rectangle 12" width="27.426" height="29.713" fill="#f9d000"/>
    </clipPath>
  </defs>
  <g id="Group_7" data-name="Group 7" clip-path="url(#clip-path)">
    <path id="Path_10" data-name="Path 10" d="M26.551,16.607a5.161,5.161,0,0,0,.875-2.911,4.634,4.634,0,0,0-4.571-4.554H19.713a7.84,7.84,0,0,0,.857-3.428,7.409,7.409,0,0,0-.625-3.321A3.924,3.924,0,0,0,18.123.58a6.1,6.1,0,0,0-2.7-.58A2.265,2.265,0,0,0,13.82.661a4.294,4.294,0,0,0-1.107,1.929q-.339,1.178-.545,2.259a3.031,3.031,0,0,1-.634,1.527q-.875.946-1.911,2.286a15.793,15.793,0,0,1-2.446,2.768H2.286a2.2,2.2,0,0,0-1.616.67A2.2,2.2,0,0,0,0,13.714V25.141a2.2,2.2,0,0,0,.669,1.616,2.2,2.2,0,0,0,1.616.67H7.428a13.2,13.2,0,0,1,2.464.714q2.2.768,3.866,1.17a14.409,14.409,0,0,0,3.384.4h2.3A5.691,5.691,0,0,0,23.5,28.275a5.057,5.057,0,0,0,1.518-3.919,5.026,5.026,0,0,0,1.071-3.178,5.4,5.4,0,0,0-.053-.768,5.128,5.128,0,0,0,.679-2.571,4.663,4.663,0,0,0-.161-1.232M4.232,24.8a1.121,1.121,0,0,1-1.607,0,1.121,1.121,0,0,1,0-1.607,1.121,1.121,0,0,1,1.607,0,1.121,1.121,0,0,1,0,1.607m20.526-9.641q-.384.821-.955.839a2.412,2.412,0,0,1,.446.848,3.211,3.211,0,0,1,.178.991,2.822,2.822,0,0,1-.946,2.124A2.469,2.469,0,0,1,23.8,21.2a3.008,3.008,0,0,1-.312,1.312,1.991,1.991,0,0,1-.848.937,6.106,6.106,0,0,1,.089,1q0,2.982-3.429,2.982h-2.16a19.727,19.727,0,0,1-6.107-1.3q-.089-.036-.518-.187l-.634-.223q-.205-.072-.625-.205t-.679-.2q-.259-.062-.589-.116a3.6,3.6,0,0,0-.562-.053H6.857V13.714h.571a1.535,1.535,0,0,0,.634-.161,3.018,3.018,0,0,0,.714-.482q.366-.321.687-.634a10.159,10.159,0,0,0,.714-.785q.393-.473.616-.759t.562-.732q.339-.446.411-.536Q12.749,8.411,13.142,8A4.535,4.535,0,0,0,14.2,6.045q.331-1.188.544-2.241a2.955,2.955,0,0,1,.679-1.518,2.6,2.6,0,0,1,2.285.839,4.663,4.663,0,0,1,.571,2.589,7.293,7.293,0,0,1-.857,2.866,7.284,7.284,0,0,0-.857,2.848h6.285a2.2,2.2,0,0,1,1.589.688,2.178,2.178,0,0,1,.7,1.6,3.509,3.509,0,0,1-.384,1.447" transform="translate(0)" fill="#f9d000"/>
  </g>
</svg>
