<svg xmlns="http://www.w3.org/2000/svg" xmlns:xlink="http://www.w3.org/1999/xlink" width="86.184" height="17.809" viewBox="0 0 86.184 17.809">
  <defs>
    <clipPath id="clip-path">
      <rect id="Rectangle_31" data-name="Rectangle 31" width="86.184" height="17.808" fill="#1a1a1a"/>
    </clipPath>
    <clipPath id="clip-path-3">
      <rect id="Rectangle_24" data-name="Rectangle 24" width="2.696" height="2.696" fill="#1a1a1a"/>
    </clipPath>
  </defs>
  <g id="Group_23" data-name="Group 23" opacity="0.2">
    <g id="Group_22" data-name="Group 22" clip-path="url(#clip-path)">
      <g id="Group_16" data-name="Group 16">
        <g id="Group_15" data-name="Group 15" clip-path="url(#clip-path)">
          <g id="Group_14" data-name="Group 14" transform="translate(2.696 15.112)" opacity="0.6" style="isolation: isolate">
            <g id="Group_13" data-name="Group 13">
              <g id="Group_12" data-name="Group 12" clip-path="url(#clip-path-3)">
                <rect id="Rectangle_23" data-name="Rectangle 23" width="2.696" height="2.696" fill="#1a1a1a"/>
              </g>
            </g>
          </g>
        </g>
      </g>
      <path id="Path_13" data-name="Path 13" d="M8.089,69.8H0V83.275H2.7V72.5H8.089v8.089h2.7V69.8Z" transform="translate(0 -65.473)" fill="#1a1a1a"/>
      <g id="Group_21" data-name="Group 21">
        <g id="Group_20" data-name="Group 20" clip-path="url(#clip-path)">
          <g id="Group_19" data-name="Group 19" transform="translate(5.388 12.415)" opacity="0.8" style="isolation: isolate">
            <g id="Group_18" data-name="Group 18">
              <g id="Group_17" data-name="Group 17" clip-path="url(#clip-path-3)">
                <rect id="Rectangle_26" data-name="Rectangle 26" width="2.696" height="2.696" transform="translate(0 0)" fill="#1a1a1a"/>
              </g>
            </g>
          </g>
          <path id="Path_14" data-name="Path 14" d="M319.507,79.247a3.074,3.074,0,0,1-2.479-1.134H317V82.96h-2.7V70.836h2.566v1h.05a3.256,3.256,0,0,1,2.616-1.234,4,4,0,0,1,3.88,4.289c0,2.281-1.438,4.358-3.905,4.358m-.638-6.44a2.106,2.106,0,0,0,0,4.2,2.11,2.11,0,0,0,0-4.2" transform="translate(-294.818 -66.224)" fill="#1a1a1a"/>
          <rect id="Rectangle_28" data-name="Rectangle 28" width="2.696" height="8.188" transform="translate(30.311 4.612)" fill="#1a1a1a"/>
          <path id="Path_15" data-name="Path 15" d="M572.274,79.111V74.642c0-.9-.248-1.723-1.215-1.723s-1.444.824-1.444,1.76v4.438H566.9V70.929h2.616v1.134h.031A2.786,2.786,0,0,1,572,70.7c2.2,0,2.994,1.711,2.994,3.353v5.064h-2.715Z" transform="translate(-531.761 -66.318)" fill="#1a1a1a"/>
          <path id="Path_16" data-name="Path 16" d="M722.3,82.582v-2.1l3.843-4.01h-3.7V74.4h6.986v2.021L725.467,80.5H729.6v2.089h-7.3Z" transform="translate(-677.528 -69.788)" fill="#1a1a1a"/>
          <path id="Path_17" data-name="Path 17" d="M862.167,82.582h-2.709l-1.612-5.1h-.031l-1.581,5.1H853.52L850.7,74.4h2.907l1.413,5.176h.05l1.463-5.176h2.715l1.512,5.176h.031l1.432-5.176h2.8Z" transform="translate(-797.969 -69.788)" fill="#1a1a1a"/>
          <path id="Path_18" data-name="Path 18" d="M1093.811,75.2h-5.932a1.876,1.876,0,0,0,1.959,1.543,2.141,2.141,0,0,0,1.81-.855l1.872,1.184a4.291,4.291,0,0,1-3.713,1.742,4.356,4.356,0,1,1-.087-8.709c2.417,0,4.11,1.661,4.11,4.457,0,.211,0,.44-.019.638m-2.467-1.674a1.486,1.486,0,0,0-1.612-1.562,1.789,1.789,0,0,0-1.859,1.562Z" transform="translate(-1018.027 -65.755)" fill="#1a1a1a"/>
          <path id="Path_19" data-name="Path 19" d="M1248.988,18.557a3.192,3.192,0,0,1-2.678-1.3h-.031v1.066H1243.8V5.9h2.7v5.114h.031a3.235,3.235,0,0,1,2.5-1.1c2.38,0,3.862,2.008,3.862,4.289s-1.432,4.358-3.9,4.358m-.638-6.44a2.034,2.034,0,0,0-1.971,2.1,2.016,2.016,0,0,0,1.971,2.1,1.964,1.964,0,0,0,1.94-2.12,1.943,1.943,0,0,0-1.94-2.083" transform="translate(-1166.703 -5.534)" fill="#1a1a1a"/>
          <rect id="Rectangle_29" data-name="Rectangle 29" width="2.696" height="2.696" transform="translate(30.311)" fill="#1a1a1a"/>
        </g>
      </g>
    </g>
  </g>
</svg>
