<svg id="Group_11" data-name="Group 11" xmlns="http://www.w3.org/2000/svg" xmlns:xlink="http://www.w3.org/1999/xlink" width="11.673" height="13.992" viewBox="0 0 11.673 13.992">
  <defs>
    <clipPath id="clip-path">
      <rect id="Rectangle_14" data-name="Rectangle 14" width="11.673" height="13.992" fill="#1a1a1a"/>
    </clipPath>
  </defs>
  <g id="Group_9" data-name="Group 9" clip-path="url(#clip-path)">
    <path id="Path_11" data-name="Path 11" d="M90.4,6.74a3.261,3.261,0,0,0,2.383-.987,3.261,3.261,0,0,0,.987-2.383A3.261,3.261,0,0,0,92.785.987a3.369,3.369,0,0,0-4.765,0,3.261,3.261,0,0,0-.987,2.383,3.261,3.261,0,0,0,.987,2.383A3.262,3.262,0,0,0,90.4,6.74" transform="translate(-84.654)" fill="#1a1a1a"/>
    <path id="Path_12" data-name="Path 12" d="M11.645,251.316a8.326,8.326,0,0,0-.113-.884,6.971,6.971,0,0,0-.217-.889,4.39,4.39,0,0,0-.365-.829A3.127,3.127,0,0,0,10.4,248a2.429,2.429,0,0,0-.792-.5,2.735,2.735,0,0,0-1.01-.183,1.026,1.026,0,0,0-.548.232c-.164.107-.356.231-.571.368a3.268,3.268,0,0,1-.738.325,2.866,2.866,0,0,1-1.806,0,3.263,3.263,0,0,1-.738-.325c-.212-.136-.4-.26-.571-.368a1.024,1.024,0,0,0-.548-.232,2.732,2.732,0,0,0-1.01.183,2.427,2.427,0,0,0-.792.5,3.129,3.129,0,0,0-.551.718,4.4,4.4,0,0,0-.365.829,6.983,6.983,0,0,0-.217.889,8.289,8.289,0,0,0-.113.884c-.019.268-.028.546-.028.826A2.323,2.323,0,0,0,.69,253.9a2.484,2.484,0,0,0,1.778.649H9.205a2.483,2.483,0,0,0,1.778-.649,2.322,2.322,0,0,0,.69-1.758c0-.282-.01-.56-.028-.826" transform="translate(0 -240.558)" fill="#1a1a1a"/>
  </g>
</svg>
