<svg width="89" height="89" viewBox="0 0 89 89" fill="none" xmlns="http://www.w3.org/2000/svg">
<path d="M52.6697 63.0777C63.0988 58.4431 67.7961 46.2316 63.1615 35.8026C58.5269 25.3735 46.3155 20.6762 35.8864 25.3108C25.4574 29.9454 20.7601 42.1569 25.3947 52.5859C30.0292 63.0149 42.2407 67.7122 52.6697 63.0777Z" stroke="#004638" stroke-width="2" stroke-linecap="round" stroke-linejoin="round"/>
<path d="M66.3495 66.2749C78.5414 54.0831 78.5414 34.3162 66.3495 22.1243C54.1577 9.93249 34.3908 9.93249 22.1989 22.1243C10.0071 34.3162 10.0071 54.0831 22.1989 66.2749C34.3908 78.4668 54.1577 78.4668 66.3495 66.2749Z" stroke="#004638" stroke-width="2" stroke-linecap="round" stroke-linejoin="round"/>
<path d="M6.01967 13.025V30.3138C6.01967 32.9704 7.60004 35.249 9.86502 36.2913C9.86502 43.563 9.86502 72.5854 9.86502 72.5854C9.86502 74.101 11.0946 75.334 12.6136 75.334C14.1327 75.334 15.3623 74.1044 15.3623 72.5854V36.2913C17.6272 35.249 19.2076 32.9704 19.2076 30.3138V13.025" fill="white"/>
<path d="M6.01967 13.025V30.3138C6.01967 32.9704 7.60004 35.249 9.86502 36.2913C9.86502 43.563 9.86502 72.5854 9.86502 72.5854C9.86502 74.101 11.0946 75.334 12.6136 75.334C14.1327 75.334 15.3623 74.1044 15.3623 72.5854V36.2913C17.6272 35.249 19.2076 32.9704 19.2076 30.3138V13.025" stroke="white" stroke-width="2" stroke-linecap="round" stroke-linejoin="round"/>
<path d="M15.3624 36.2913C17.6274 35.249 19.2077 32.9704 19.2077 30.3138V13.025" fill="white"/>
<path d="M15.3624 36.2913C17.6274 35.249 19.2077 32.9704 19.2077 30.3138V13.025" stroke="#004638" stroke-width="2" stroke-linecap="round" stroke-linejoin="round"/>
<path d="M6.01967 13.025V30.3138C6.01967 32.9704 7.60004 35.249 9.86502 36.2913C9.86502 43.563 9.86502 72.5854 9.86502 72.5854C9.86502 74.101 11.0946 75.334 12.6136 75.334C14.1327 75.334 15.3623 74.1044 15.3623 72.5854V41.2878" stroke="#004638" stroke-width="2" stroke-linecap="round" stroke-linejoin="round"/>
<path d="M10.4169 13.025V28.2157" stroke="#004638" stroke-width="2" stroke-linecap="round" stroke-linejoin="round"/>
<path d="M14.8103 13.025V28.2157" stroke="#004638" stroke-width="2" stroke-linecap="round" stroke-linejoin="round"/>
<path d="M75.4944 49.5644V72.5854C75.4944 74.101 76.7239 75.334 78.243 75.334C79.7621 75.334 80.9916 74.1044 80.9916 72.5854V13.025C75.5284 13.025 71.1007 18.3111 71.1007 24.8336V44.1795" fill="white"/>
<path d="M75.4944 49.5644V72.5854C75.4944 74.101 76.7239 75.334 78.243 75.334C79.7621 75.334 80.9916 74.1044 80.9916 72.5854V13.025C75.5284 13.025 71.1007 18.3111 71.1007 24.8336V44.1795" stroke="white" stroke-width="2" stroke-linecap="round" stroke-linejoin="round"/>
<path d="M75.4956 47.565V72.4286C75.4956 73.917 76.6094 75.2488 78.0944 75.3271C79.6782 75.4089 80.9895 74.1486 80.9895 72.5819V14.0161C80.9895 13.4609 80.5024 13.0216 79.9507 13.0897C74.9779 13.7096 71.0985 18.73 71.0985 24.8335V44.1794" fill="white"/>
<path d="M75.4956 47.565V72.4286C75.4956 73.917 76.6094 75.2488 78.0944 75.3271C79.6782 75.4089 80.9895 74.1486 80.9895 72.5819V14.0161C80.9895 13.4609 80.5024 13.0216 79.9507 13.0897C74.9779 13.7096 71.0985 18.73 71.0985 24.8335V44.1794" stroke="#004638" stroke-width="2" stroke-linecap="round" stroke-linejoin="round"/>
</svg>
