<svg width="180" height="41" viewBox="0 0 180 41" fill="none" xmlns="http://www.w3.org/2000/svg">
<path d="M25.9313 3.42765C23.8076 1.21145 20.1191 0.130371 14.9217 0.130371C10.1154 0.130371 6.48282 1.04929 4.41503 2.83306C4.13559 3.04928 3.91205 3.26549 3.74439 3.53576C4.41503 5.42765 5.92396 7.91412 9.72423 8.77898C9.78012 7.69791 9.78012 6.99521 9.83601 6.61683C10.339 3.69792 11.9038 2.34658 14.8658 2.34658C18.5543 2.34658 19.8956 4.13035 19.8956 9.10331V12.1303C11.9038 12.3465 7.71232 12.8871 5.08566 14.1303C1.67659 15.6979 0 18.1303 0 21.5897C0 26.833 3.80028 29.914 10.1713 29.914C15.5364 29.914 18.6102 27.86 20.2868 23.2114C20.2868 23.2114 21.6839 29.1573 28.2226 29.1573V11.3195C28.2226 7.26548 27.6079 5.15738 25.9313 3.42765ZM19.0573 22.4005C17.8836 25.3195 15.76 26.9411 13.0774 26.9411C10.0596 26.9411 8.38296 24.887 8.38296 21.2114C8.38296 16.0222 11.4567 14.1303 19.8956 14.1303C19.8956 18.2925 19.6161 20.887 19.0573 22.4005Z" fill="#FEF6F2"/>
<path d="M43.3125 9.42807V6.72537C43.089 4.40106 41.7477 0.887561 36.1032 0.887561H35.4884V29.1577H43.7596V14.7794C43.7596 9.9686 46.0509 7.10375 49.9071 7.10375C51.416 7.10375 52.4779 7.31997 54.7133 7.96861V0.292969C48.2864 0.779453 45.6038 2.88755 43.3125 9.42807Z" fill="#FEF6F2"/>
<path d="M82.4881 3.42765C80.3085 1.21145 76.62 0.130371 71.4784 0.130371C66.6722 0.130371 63.0396 1.04929 60.9718 2.83306C60.8041 2.99522 60.6365 3.15739 60.4688 3.31955C61.0836 5.21143 62.5366 7.75196 66.2251 8.72493C66.3369 7.69791 66.3369 6.99521 66.3928 6.61683C66.8399 3.69792 68.4606 2.34658 71.4225 2.34658C75.111 2.34658 76.4523 4.13035 76.4523 9.10331V12.1303C68.4606 12.3465 64.2132 12.8871 61.6424 14.1303C58.2334 15.6979 56.5568 18.1303 56.5568 21.5897C56.5568 26.833 60.357 29.914 66.7281 29.914C72.0932 29.914 75.1669 27.86 76.8435 23.2114C77.0112 23.8059 78.6319 29.1573 84.7235 29.1573V11.3195C84.7235 7.26548 84.1646 5.15738 82.4881 3.42765ZM75.5581 22.4005C74.4404 25.3195 72.2608 26.9411 69.5783 26.9411C66.5604 26.9411 64.8838 24.887 64.8838 21.2114C64.8838 16.0222 68.0135 14.1303 76.4523 14.1303C76.4523 18.2925 76.1729 20.887 75.5581 22.4005Z" fill="#FEF6F2"/>
<path d="M119.206 4.45448C117.585 1.75179 114.511 0.238281 110.32 0.238281C104.563 0.238281 101.042 2.99503 99.5894 8.56257V7.5896C99.5894 7.10312 99.4217 0.886927 92.3801 0.886927H91.8771V29.1571H100.204V16.4004C100.204 11.8058 100.707 8.88689 102.048 6.50852C103.11 4.61664 105.346 3.31935 107.581 3.31935C109.146 3.31935 110.655 4.0761 111.381 5.37339C112.052 6.45447 112.276 7.91392 112.276 11.049V29.1571H120.547V11.049C120.547 7.85987 120.211 6.13015 119.206 4.45448Z" fill="#FEF6F2"/>
<path d="M177.383 3.42765C175.204 1.21145 171.515 0.130371 166.374 0.130371C161.568 0.130371 157.935 1.04929 155.867 2.83306C155.42 3.21144 155.029 3.58982 154.749 4.02225C155.476 5.86008 157.097 7.96818 160.562 8.77898H161.12C161.232 7.69791 161.232 6.99521 161.288 6.61683C161.735 3.69792 163.356 2.34658 166.318 2.34658C170.006 2.34658 171.348 4.13035 171.348 9.10331V12.1303C163.356 12.3465 159.109 12.8871 156.538 14.1303C153.129 15.6979 151.452 18.1303 151.452 21.5897C151.452 26.833 155.252 29.914 161.623 29.914C166.989 29.914 170.062 27.86 171.739 23.2654C172.074 24.2384 173.807 29.1032 179.619 29.1032V11.3195C179.619 7.26548 179.06 5.15738 177.383 3.42765ZM170.454 22.4005C169.336 25.3195 167.156 26.9411 164.474 26.9411C161.456 26.9411 159.779 24.887 159.779 21.2114C159.779 16.0222 162.909 14.1303 171.348 14.1303C171.348 18.2925 171.068 20.887 170.454 22.4005Z" fill="#FEF6F2"/>
<path d="M151.228 0.887695L150.614 2.29309L148.769 6.56335L143.516 18.4011L143.292 18.9417L141.169 23.8065L139.436 27.3741C137.592 31.0497 138.207 29.9146 137.592 31.0497C134.183 37.6983 130.718 39.9686 124.626 40.1308V33.8605C129.991 33.8065 132.562 32.9957 134.854 29.6984L134.965 29.4822L132.73 24.5092L122.111 0.887695H131.333L139.324 20.1309L139.548 20.6714L139.772 20.1309L141.504 15.1039L146.478 0.887695H151.228Z" fill="#FEF6F2"/>
<path d="M134.966 29.4813L132.73 24.6164V24.5083L134.966 29.4813Z" fill="#FEF6F2"/>
</svg>
