<svg width="71" height="72" viewBox="0 0 71 72" fill="none" xmlns="http://www.w3.org/2000/svg">
<path d="M9.17272 59.0636L9.16327 59.0494L9.15198 59.0367C3.69501 52.8661 0.379395 44.7655 0.379395 35.9092C0.379395 16.6152 16.0639 0.930664 35.3579 0.930664C48.823 0.930664 60.5322 8.5866 66.3768 19.7654V19.7772L66.4031 19.83L66.4243 19.8722L66.4454 19.9145L66.4469 19.9174C68.9234 24.7165 70.3364 30.1589 70.3364 35.9233C70.3364 51.0879 60.6324 64.0199 47.1091 68.8586H47.081L47.0403 68.8731C43.3888 70.1742 39.4575 70.8877 35.3579 70.8877C24.9907 70.8877 15.6727 66.355 9.26409 59.1628L9.2593 59.1574L9.25422 59.1523C9.20686 59.105 9.18438 59.0811 9.17272 59.0636ZM30.6724 34.5407L30.9191 34.5205V34.736H67.74H68.0009L67.9897 34.4752C67.7909 29.8462 66.6265 25.4579 64.6808 21.5238L64.6142 21.3891L64.464 21.3847C50.5266 20.9748 38.7728 24.1976 29.503 31.0011L29.3135 31.1402L29.4406 31.3378C30.0566 32.296 30.4808 33.3771 30.6724 34.5407ZM14.0305 37.2769L13.9955 37.0683H13.784H2.98995H2.72932L2.74017 37.3287C3.02419 44.1452 5.4101 50.4221 9.27233 55.5481L9.56985 55.9429L9.71152 55.4692C10.6082 52.471 12.5156 47.3651 16.1208 41.866L16.2269 41.7043L16.097 41.561C15.03 40.3847 14.3044 38.9067 14.0305 37.2769ZM62.8618 19.0381L63.3184 19.0427L63.0763 18.6556C57.2976 9.41246 47.0453 3.24895 35.3579 3.24895C28.6129 3.24895 22.3359 5.30809 17.1384 8.82991L17.0302 8.90324L17.0287 9.03397C16.9579 15.1362 17.9348 21.3633 19.9436 27.5875L20.016 27.812L20.2444 27.7527C20.9327 27.5737 21.63 27.4648 22.3656 27.4648C24.3503 27.4648 26.1698 28.1489 27.6065 29.2983L27.757 29.4187L27.9118 29.3037C37.2452 22.3667 48.9837 18.8976 62.8618 19.0381ZM14.7103 11.158L14.6963 10.6375L14.2989 10.9738C7.5546 16.6816 3.13781 25.0739 2.74017 34.4895L2.72917 34.75H2.98995H13.784H13.9968L14.0308 34.54C14.4138 32.1731 15.7821 30.1339 17.7122 28.8608L17.8716 28.7557L17.8121 28.5743C15.9028 22.7479 14.8646 16.9098 14.7103 11.158ZM11.4414 57.9455L11.4096 58.0765L11.5016 58.1751C17.465 64.5645 25.9569 68.5694 35.3579 68.5694C38.2687 68.5694 41.0804 68.186 43.7502 67.476L44.198 67.3569L43.8526 67.048C40.1293 63.7181 31.849 55.6065 24.9899 44.1231L24.8904 43.9565L24.7042 44.0116C23.9655 44.2305 23.1721 44.3536 22.3515 44.3536C20.8607 44.3536 19.4653 43.9571 18.2466 43.2724L18.0422 43.1576L17.9145 43.3542C13.6386 49.9379 11.9247 55.9556 11.4414 57.9455ZM46.6663 66.4102L46.7788 66.506L46.917 66.4535C58.8162 61.9381 67.4076 50.6638 67.9757 37.329L67.9868 37.0683H67.7259H30.9191H30.7063L30.6723 37.2784C30.3029 39.5636 29.0165 41.5479 27.1966 42.8205L27.0053 42.9542L27.1257 43.1543C34.6841 55.7139 44.1899 64.3017 46.6663 66.4102ZM16.2254 35.9092C16.2254 39.2883 18.9725 42.0353 22.3515 42.0353C25.7306 42.0353 28.4777 39.2883 28.4777 35.9092C28.4777 32.5301 25.7306 29.7831 22.3515 29.7831C18.9725 29.7831 16.2254 32.5301 16.2254 35.9092Z" fill="#004638" stroke="#FEF6F2" stroke-width="0.5"/>
</svg>
