<svg width="180" height="41" viewBox="0 0 180 41" fill="none" xmlns="http://www.w3.org/2000/svg">
<path d="M25.9314 3.80511C23.8077 1.5889 20.1192 0.507812 14.9218 0.507812C10.1155 0.507812 6.48286 1.42673 4.41505 3.21052C4.13562 3.42674 3.91207 3.64295 3.74441 3.91322C4.41505 5.80512 5.92399 8.29161 9.72429 9.15647C9.78017 8.07539 9.78017 7.37269 9.83606 6.99431C10.339 4.07538 11.9039 2.72403 14.8659 2.72403C18.5544 2.72403 19.8957 4.50782 19.8957 9.4808V12.5078C11.9039 12.724 7.71237 13.2646 5.08569 14.5078C1.6766 16.0754 0 18.5078 0 21.9673C0 27.2105 3.8003 30.2916 10.1714 30.2916C15.5365 30.2916 18.6103 28.2376 20.2869 23.5889C20.2869 23.5889 21.684 29.5349 28.2228 29.5349V11.697C28.2228 7.64296 27.608 5.53485 25.9314 3.80511ZM19.0574 22.7781C17.8837 25.697 15.7601 27.3187 13.0775 27.3187C10.0596 27.3187 8.38301 25.2646 8.38301 21.5889C8.38301 16.3997 11.4568 14.5078 19.8957 14.5078C19.8957 18.67 19.6162 21.2646 19.0574 22.7781Z" fill="#004638"/>
<path d="M43.3128 9.80531V7.10261C43.0892 4.77828 41.748 1.26476 36.1034 1.26476H35.4886V29.5351H43.7599V15.1567C43.7599 10.3459 46.0512 7.48099 49.9074 7.48099C51.4164 7.48099 52.4782 7.6972 54.7137 8.34585V0.670166C48.2867 1.15665 45.6041 3.26476 43.3128 9.80531Z" fill="#004638"/>
<path d="M82.4888 3.80511C80.3092 1.5889 76.6207 0.507812 71.4791 0.507812C66.6729 0.507812 63.0402 1.42673 60.9724 3.21052C60.8048 3.37268 60.6371 3.53484 60.4694 3.69701C61.0842 5.5889 62.5373 8.12944 66.2258 9.10242C66.3376 8.07539 66.3376 7.37269 66.3934 6.99431C66.8405 4.07538 68.4612 2.72403 71.4232 2.72403C75.1118 2.72403 76.453 4.50782 76.453 9.4808V12.5078C68.4612 12.724 64.2139 13.2646 61.6431 14.5078C58.234 16.0754 56.5574 18.5078 56.5574 21.9673C56.5574 27.2105 60.3577 30.2916 66.7288 30.2916C72.0939 30.2916 75.1677 28.2376 76.8443 23.5889C77.0119 24.1835 78.6326 29.5349 84.7243 29.5349V11.697C84.7243 7.64296 84.1654 5.53485 82.4888 3.80511ZM75.5589 22.7781C74.4411 25.697 72.2615 27.3187 69.579 27.3187C66.5611 27.3187 64.8845 25.2646 64.8845 21.5889C64.8845 16.3997 68.0142 14.5078 76.453 14.5078C76.453 18.67 76.1736 21.2646 75.5589 22.7781Z" fill="#004638"/>
<path d="M119.207 4.83194C117.586 2.12924 114.513 0.615723 110.321 0.615723C104.565 0.615723 101.044 3.37248 99.5908 8.94006V7.96708C99.5908 7.4806 99.4231 1.26437 92.3814 1.26437H91.8784V29.5347H100.206V16.7779C100.206 12.1833 100.709 9.26438 102.05 6.886C103.112 4.99411 105.347 3.69681 107.583 3.69681C109.147 3.69681 110.656 4.45357 111.383 5.75086C112.054 6.83195 112.277 8.29141 112.277 11.4265V29.5347H120.548V11.4265C120.548 8.23735 120.213 6.50762 119.207 4.83194Z" fill="#004638"/>
<path d="M177.385 3.80511C175.205 1.5889 171.517 0.507812 166.375 0.507812C161.569 0.507812 157.936 1.42673 155.868 3.21052C155.421 3.5889 155.03 3.96728 154.751 4.39971C155.477 6.23755 157.098 8.34566 160.563 9.15647H161.122C161.234 8.07539 161.234 7.37269 161.289 6.99431C161.737 4.07538 163.357 2.72403 166.319 2.72403C170.008 2.72403 171.349 4.50782 171.349 9.4808V12.5078C163.357 12.724 159.11 13.2646 156.539 14.5078C153.13 16.0754 151.453 18.5078 151.453 21.9673C151.453 27.2105 155.254 30.2916 161.625 30.2916C166.99 30.2916 170.064 28.2376 171.74 23.643C172.076 24.616 173.808 29.4808 179.62 29.4808V11.697C179.62 7.64296 179.061 5.53485 177.385 3.80511ZM170.455 22.7781C169.337 25.697 167.158 27.3187 164.475 27.3187C161.457 27.3187 159.78 25.2646 159.78 21.5889C159.78 16.3997 162.91 14.5078 171.349 14.5078C171.349 18.67 171.07 21.2646 170.455 22.7781Z" fill="#004638"/>
<path d="M151.23 1.2644L150.615 2.66981L148.771 6.94009L143.518 18.7779L143.294 19.3185L141.17 24.1834L139.438 27.7509C137.594 31.4266 138.208 30.2915 137.594 31.4266C134.185 38.0753 130.72 40.3455 124.628 40.5077V34.2374C129.993 34.1834 132.564 33.3726 134.855 30.0753L134.967 29.859L132.731 24.8861L122.113 1.2644H131.334L139.326 20.5077L139.55 21.0482L139.773 20.5077L141.506 15.4806L146.48 1.2644H151.23Z" fill="#004638"/>
<path d="M134.966 29.859L132.73 24.9941V24.886L134.966 29.859Z" fill="#004638"/>
</svg>
