<svg width="76" height="70" viewBox="0 0 76 70" fill="none" xmlns="http://www.w3.org/2000/svg">
<path d="M32.0125 66.2932L28.011 67.5581C16.9185 71.0652 8.8272 57.0099 17.4014 49.1333L22.9668 44.024C24.3965 42.7093 25.5771 41.1455 26.451 39.4092L28.5821 35.1623C32.3421 27.6804 43.6684 27.6804 47.4285 35.1623L49.5596 39.4092C50.4335 41.1455 51.6141 42.7093 53.0437 44.024L58.6091 49.1333C67.1834 57.0099 59.0921 71.0691 47.9996 67.5581L43.998 66.2932C40.1115 65.0629 35.9029 65.0629 32.0202 66.2932H32.0125Z" stroke="#004638" stroke-width="2" stroke-linecap="round" stroke-linejoin="round"/>
<path d="M60.3122 25.7872C57.0734 30.3407 56.3298 35.7528 58.6526 37.8724C60.9715 39.992 66.2954 38.7616 70.5385 35.128C74.7815 31.4906 75.5251 26.0823 72.1981 23.0428C68.8711 20.0033 63.551 21.2337 60.3122 25.7872Z" stroke="#004638" stroke-width="2" stroke-linecap="round" stroke-linejoin="round"/>
<path d="M42.4289 10.5433C41.8157 16.5993 44.1269 22.1571 47.588 22.9582C51.0492 23.7592 55.5643 19.7807 57.6724 14.0734C59.7844 8.36623 57.4731 2.8085 52.5133 1.65863C47.5535 0.512587 43.0384 4.49116 42.4289 10.5433Z" stroke="#004638" stroke-width="2" stroke-linecap="round" stroke-linejoin="round"/>
<path d="M15.688 25.7872C18.9268 30.3407 19.6704 35.7528 17.3476 37.8724C15.0287 39.992 9.70479 38.7616 5.46175 35.128C1.21871 31.4944 0.475123 26.0823 3.8021 23.0428C7.12907 20.0033 12.4492 21.2337 15.688 25.7872Z" stroke="#004638" stroke-width="2" stroke-linecap="round" stroke-linejoin="round"/>
<path d="M33.5694 10.5433C34.1827 16.5993 31.8714 22.1571 28.4103 22.9582C24.9492 23.7592 20.434 19.7807 18.3259 14.0734C16.2139 8.36623 18.5252 2.8085 23.485 1.65863C28.4448 0.512587 32.96 4.49116 33.5694 10.5433Z" stroke="#004638" stroke-width="2" stroke-linecap="round" stroke-linejoin="round"/>
</svg>
