<svg width="68" height="68" viewBox="0 0 68 68" fill="none" xmlns="http://www.w3.org/2000/svg">
<path d="M1.83691 17.6016H66.2292" stroke="#004638" stroke-width="2" stroke-linecap="round" stroke-linejoin="round"/>
<path d="M23.1904 14.5039V54.1621" stroke="white" stroke-width="2" stroke-linecap="round" stroke-linejoin="round"/>
<path d="M23.1904 7.06161C23.1904 4.09015 25.5999 1.68066 28.5714 1.68066C31.5428 1.68066 33.9523 4.09015 33.9523 7.06161" stroke="white" stroke-width="2" stroke-linejoin="round"/>
<path d="M23.1904 7.06152V53.1298" stroke="#004638" stroke-width="2" stroke-linecap="round" stroke-linejoin="round"/>
<path d="M23.1904 7.06161C23.1904 4.09015 25.5999 1.68066 28.5714 1.68066C31.5428 1.68066 33.9523 4.09015 33.9523 7.06161V14.5078" stroke="#004638" stroke-width="2" stroke-linejoin="round"/>
<path d="M44.71 14.5039V54.1621" stroke="white" stroke-width="2" stroke-linecap="round" stroke-linejoin="round"/>
<path d="M44.71 7.06161C44.71 4.09015 47.1194 1.68066 50.0909 1.68066C53.0624 1.68066 55.4719 4.09015 55.4719 7.06161" stroke="white" stroke-width="2" stroke-linejoin="round"/>
<path d="M44.71 7.06152V53.1298" stroke="#004638" stroke-width="2" stroke-linecap="round" stroke-linejoin="round"/>
<path d="M44.71 7.06161C44.71 4.09015 47.1194 1.68066 50.0909 1.68066C53.0624 1.68066 55.4719 4.09015 55.4719 7.06161V14.4587" stroke="#004638" stroke-width="2" stroke-linejoin="round"/>
<path d="M23.3564 41.9746H44.7117" stroke="#004638" stroke-width="2" stroke-linecap="round" stroke-linejoin="round"/>
<path d="M23.3564 29.79H44.7117" stroke="#004638" stroke-width="2" stroke-linecap="round" stroke-linejoin="round"/>
<path d="M1.77051 66.0726C7.1339 66.0726 7.1339 60.9902 12.4973 60.9902C17.8607 60.9902 17.8607 66.0726 23.2241 66.0726C28.5874 66.0726 28.591 60.9902 33.9544 60.9902C39.3177 60.9902 39.3177 66.0726 44.6776 66.0726C50.0375 66.0726 50.0445 60.9902 55.4114 60.9902C60.7783 60.9902 60.7818 66.0726 66.1522 66.0726" stroke="#004638" stroke-width="2" stroke-linecap="round" stroke-linejoin="round"/>
<path d="M1.77051 58.3031C7.1339 58.3031 7.1339 53.2207 12.4973 53.2207C17.8607 53.2207 17.8607 58.3031 23.2241 58.3031C28.5874 58.3031 28.591 53.2207 33.9544 53.2207C39.3177 53.2207 39.3177 58.3031 44.6776 58.3031C50.0375 58.3031 50.0445 53.2207 55.4114 53.2207C60.7783 53.2207 60.7818 58.3031 66.1522 58.3031" stroke="#004638" stroke-width="2" stroke-linecap="round" stroke-linejoin="round"/>
</svg>
