<svg width="78" height="70" viewBox="0 0 78 70" fill="none" xmlns="http://www.w3.org/2000/svg">
<path d="M18.349 62.4484L18.309 62.2472H18.1038H10.0423C5.01923 62.2472 0.953369 58.1646 0.953369 53.1582V10.0196C0.953369 5.01349 5.03619 0.930664 10.0423 0.930664H67.9575C72.9642 0.930664 77.0464 4.99683 77.0464 10.0023V53.1755C77.0464 53.3521 77.0304 53.5307 77.0129 53.7225L77.0065 53.7933L77.0383 53.8569C77.0388 53.8579 77.0394 53.8592 77.04 53.8607C77.0415 53.8641 77.0431 53.8686 77.0444 53.8735C77.0462 53.88 77.0464 53.8834 77.0464 53.8834V53.8832C77.0464 53.9072 77.0425 53.9333 77.0338 53.9699C77.0322 53.9767 77.0293 53.9878 77.0259 54.0012C77.0176 54.0331 77.0059 54.0783 76.9995 54.1104L76.9973 54.1215L76.9961 54.1328C76.5089 58.6854 72.6444 62.2472 67.9575 62.2472H59.9132H59.705L59.6674 62.452L58.6669 67.903C58.6668 67.9037 58.6666 67.9043 58.6665 67.905C58.5678 68.3935 58.134 68.7551 57.6346 68.7551H50.8332C50.3283 68.7551 49.8979 68.405 49.801 67.9203L49.8009 67.9198L48.6961 62.4477L48.6556 62.2472H48.451H29.5488H29.3405L29.3029 62.452L28.3024 67.903C28.3023 67.9036 28.3022 67.9042 28.302 67.9048C28.2034 68.3935 27.7695 68.7551 27.2701 68.7551H20.4688C19.9638 68.7551 19.5334 68.405 19.4365 67.9203L18.349 62.4484ZM26.1826 66.6484H26.3906L26.4284 66.4439L27.1535 62.5254L27.2081 62.2299H26.9076H20.745H20.4405L20.4997 62.5285L21.2765 66.4471L21.3165 66.6484H21.5218H26.1826ZM56.5471 66.6484H56.7551L56.7929 66.4439L57.5179 62.5254L57.5726 62.2299H57.2721H51.0922H50.7864L50.8472 62.5295L51.6412 66.4481L51.6818 66.6484H51.8862H56.5471ZM74.7071 11.1845H74.9571V10.9345V10.0023C74.9571 6.13518 71.8066 3.00275 67.9575 3.00275H10.0423C6.17515 3.00275 3.04272 6.15327 3.04272 10.0023V53.141C3.04272 57.0081 6.19324 60.1405 10.0423 60.1405H67.9575C71.0932 60.1405 73.7059 58.0618 74.6002 55.2361L74.7032 54.9107H74.3618H67.267C66.6973 54.9107 66.2223 54.4357 66.2223 53.866C66.2223 53.2963 66.6973 52.8213 67.267 52.8213H74.7071H74.9571V52.5713V44.7342V44.4842H74.7071H67.267C66.6973 44.4842 66.2223 44.0092 66.2223 43.4395C66.2223 42.8698 66.6973 42.3948 67.267 42.3948H74.7071H74.9571V42.1448V34.3423V34.0923H74.7071H67.267C66.6973 34.0923 66.2223 33.6173 66.2223 33.0476C66.2223 32.4779 66.6973 32.0029 67.267 32.0029H74.7071H74.9571V31.7529V23.9158V23.6658H74.7071H67.267C66.6973 23.6658 66.2223 23.1908 66.2223 22.6211C66.2223 22.0514 66.6973 21.5764 67.267 21.5764H74.7071H74.9571V21.3264V13.5239V13.2739H74.7071H67.267C66.6973 13.2739 66.2223 12.7989 66.2223 12.2292C66.2223 11.6595 66.6973 11.1845 67.267 11.1845H74.7071Z" fill="#004638" stroke="#FEF6F2" stroke-width="0.5"/>
<path d="M8.20349 22.1896C8.20349 21.6199 8.67848 21.1449 9.24817 21.1449C9.83295 21.1449 10.2928 21.6177 10.2928 22.1896V47.4962C10.2928 48.0659 9.81785 48.5409 9.24817 48.5409C8.67848 48.5409 8.20349 48.0659 8.20349 47.4962V22.1896Z" fill="#004638" stroke="#FEF6F2" stroke-width="0.5"/>
<path d="M42.0737 30.0426L42.037 30.3248H42.3216H49.2065C49.5868 30.3248 49.9094 30.5517 50.0674 30.894C50.2223 31.2296 50.1692 31.644 49.9266 31.9249L49.9252 31.9265L32.5375 52.3989C32.537 52.3995 32.5365 52.4 32.536 52.4006C32.3405 52.6212 32.0688 52.7365 31.7994 52.7365C31.6506 52.7365 31.5092 52.7003 31.3566 52.6316C30.957 52.4224 30.7547 51.9865 30.8574 51.5499L30.8575 51.5495L34.917 34.1749L34.9887 33.8681H34.6736H28.8117C28.4481 33.8681 28.1269 33.6742 27.9598 33.3657C27.7919 33.0557 27.8053 32.6669 27.9978 32.3715C27.9979 32.3713 27.998 32.3712 27.9981 32.371L42.8553 9.75232L42.8555 9.75207C43.0987 9.38081 43.5758 9.22325 44.0049 9.37869C44.413 9.53234 44.6741 9.95661 44.6228 10.4129L42.0737 30.0426ZM33.9105 47.084L34.3445 47.3027L46.7827 32.6561L47.1325 32.2443H46.5922H40.9576C40.6849 32.2443 40.4139 32.1265 40.2364 31.9237C40.0544 31.7157 39.9656 31.4306 40.0035 31.1656L40.0039 31.1625L42.0499 15.4117L41.593 15.2423L30.8922 31.5452L30.6381 31.9324H31.1012H36.2324C36.5348 31.9324 36.8168 32.0638 36.9931 32.2905C37.1729 32.5217 37.2389 32.8339 37.1741 33.1201C37.1741 33.1203 37.174 33.1206 37.174 33.1208L33.9105 47.084Z" fill="#004638" stroke="#FEF6F2" stroke-width="0.5"/>
</svg>
