<?xml version="1.0" encoding="UTF-8"?>
<svg xmlns="http://www.w3.org/2000/svg" xmlns:xlink="http://www.w3.org/1999/xlink" version="1.1" x="0px" y="0px" viewBox="0 0 125 125" style="enable-background:new 0 0 125 125;" xml:space="preserve">
	<style type="text/css">
		.st0{fill:#1D1D1B;}
		.st1{fill:none;stroke:#FFFFFF;stroke-width:1.5;stroke-miterlimit:10;}
		.st2{fill:#FFFFFF;}
		.st3{fill:none;stroke:#FFFFFF;stroke-width:1.2;stroke-miterlimit:10;}
	</style>
	<g>
		<rect class="st0" width="125" height="125"></rect>
	</g>
	<g>
		<path class="st0" d="M99.6,61.4c0,20.6-16.7,37.4-37.4,37.4S24.9,82,24.9,61.4S41.6,24,62.2,24S99.6,40.8,99.6,61.4"></path>
		<path class="st1" d="M99.6,61.4c0,20.6-16.7,37.4-37.4,37.4S24.9,82,24.9,61.4S41.6,24,62.2,24S99.6,40.8,99.6,61.4z"></path>
		<path class="st2" d="M79.9,69.5h-3.4c-1.2,0-2.2-1-2.2-2.2V55.4c0-1.2,1-2.2,2.2-2.2h3.4v-1.6h-3.4c-2.1,0-3.8,1.7-3.8,3.8v11.9c0,2.1,1.7,3.8,3.8,3.8h3.4V69.5"></path>
		<path class="st2" d="M62.2,69.5h-3.4c-1.2,0-2.2-1-2.2-2.2V55.4c0-1.2,1-2.2,2.2-2.2h3.4v-1.6h-3.4c-2.1,0-3.8,1.7-3.8,3.8v11.9c0,2.1,1.7,3.8,3.8,3.8h3.4V69.5"></path>
		<path class="st2" d="M84.6,51.7h-3.4v1.6h3.4c1.2,0,2.2,1,2.2,2.2v11.9c0,1.2-1,2.2-2.2,2.2h-3.4v1.6h3.4c2.1,0,3.8-1.7,3.8-3.8V55.4C88.4,53.4,86.7,51.7,84.6,51.7"></path>
		<path class="st2" d="M62.2,69.5h-3.4c-1.2,0-2.2-1-2.2-2.2v-3.8c0-1.2,1-2.2,2.2-2.2h3.4v-1.6h-3.4c-2.1,0-3.8,1.7-3.8,3.8v3.8c0,2.1,1.7,3.8,3.8,3.8h3.4V69.5"></path>
		<path class="st2" d="M65.6,59.8h-3.4v1.6h3.4c1.2,0,2.2,1,2.2,2.2v3.8c0,1.2-1,2.2-2.2,2.2h-3.4v1.6h3.4c2.1,0,3.8-1.7,3.8-3.8v-3.8C69.4,61.5,67.7,59.8,65.6,59.8"></path>
		<path class="st0" d="M100.8,46c0,2.5-2,4.4-4.4,4.4c-2.5,0-4.4-2-4.4-4.4c0-2.5,2-4.4,4.4-4.4C98.8,41.6,100.8,43.6,100.8,46"></path>
		<path class="st3" d="M100.8,46c0,2.5-2,4.4-4.4,4.4c-2.5,0-4.4-2-4.4-4.4c0-2.5,2-4.4,4.4-4.4C98.8,41.6,100.8,43.6,100.8,46z"></path>
		<path class="st2" d="M47.6,51.7h-9.1v1.6h9.1c1.2,0,2.2,1,2.2,2.2v5.2H38.5v1.6h11.3v5.2c0,1.2-1,2.2-2.2,2.2h-9.1v1.6h9.1c2.1,0,3.8-1.7,3.8-3.8V55.4C51.3,53.4,49.6,51.7,47.6,51.7"></path>
	</g>
</svg>
