<?xml version="1.0" encoding="UTF-8"?>
<svg xmlns="http://www.w3.org/2000/svg" xmlns:xlink="http://www.w3.org/1999/xlink" version="1.1" id="Ebene_1" x="0px" y="0px" viewBox="0 0 381 373.32" style="enable-background:new 0 0 381 373.32;" xml:space="preserve">
<style type="text/css">
	.st0{fill-rule:evenodd;clip-rule:evenodd;}
	.st1{fill:none;stroke:#000000;stroke-width:0.54;stroke-linecap:square;stroke-linejoin:bevel;stroke-miterlimit:10;}
</style>
<rect x="-107.01" y="607.47" width="0.06" height="0.06"></rect>
<polyline class="st0" points="113.97,223.29 112.29,223.29 113.13,228.75 "></polyline>
<polyline class="st0" points="112.29,61.65 113.97,61.65 113.13,56.19 "></polyline>
<polyline class="st0" points="155.13,10.29 155.13,12.15 149.67,11.25 "></polyline>
<polyline class="st0" points="249.21,11.25 243.75,12.15 243.75,10.29 "></polyline>
<polyline class="st0" points="5.73,28.77 0.27,29.61 5.73,30.45 "></polyline>
<polyline class="st0" points="61.17,30.45 66.63,29.61 61.17,28.77 "></polyline>
<polyline class="st0" points="222.69,255.33 217.23,256.23 217.23,254.43 "></polyline>
<polyline class="st0" points="181.71,254.43 181.71,256.23 176.19,255.33 "></polyline>
<polyline class="st0" points="222.69,29.61 217.23,30.51 217.23,28.71 "></polyline>
<polyline class="st0" points="181.71,28.71 181.71,30.51 176.19,29.61 "></polyline>
<polyline class="st0" points="283.17,61.65 281.31,61.65 282.21,56.19 "></polyline>
<polyline class="st0" points="281.31,77.25 283.17,77.25 282.21,82.71 "></polyline>
<polyline class="st0" points="287.73,215.97 289.59,215.97 288.69,221.49 "></polyline>
<polyline class="st0" points="289.59,234.27 287.73,234.27 288.69,228.75 "></polyline>
<polyline class="st0" points="141.69,226.95 139.83,226.95 140.73,221.49 "></polyline>
<polyline class="st0" points="139.83,213.33 141.69,213.33 140.73,218.79 "></polyline>
<polyline class="st0" points="175.41,207.39 169.89,208.29 169.89,206.49 "></polyline>
<polyline class="st0" points="182.55,206.49 182.55,208.29 177.03,207.39 "></polyline>
<polyline class="st0" points="175.05,222.63 171.81,227.19 170.49,225.87 "></polyline>
<polyline class="st0" points="175.29,83.13 170.61,86.07 169.89,84.39 "></polyline>
<polyline class="st1" points="113.97,223.29 112.29,223.29 113.13,228.75 113.97,223.29 "></polyline>
<polyline class="st1" points="112.29,61.65 113.97,61.65 113.13,56.19 112.29,61.65 "></polyline>
<polyline class="st1" points="155.13,10.29 155.13,12.15 149.67,11.25 155.13,10.29 "></polyline>
<polyline class="st1" points="249.21,11.25 243.75,12.15 243.75,10.29 249.21,11.25 "></polyline>
<polyline class="st1" points="5.73,28.77 0.27,29.61 5.73,30.45 5.73,28.77 "></polyline>
<polyline class="st1" points="61.17,30.45 66.63,29.61 61.17,28.77 61.17,30.45 "></polyline>
<polyline class="st1" points="222.69,255.33 217.23,256.23 217.23,254.43 222.69,255.33 "></polyline>
<polyline class="st1" points="181.71,254.43 181.71,256.23 176.19,255.33 181.71,254.43 "></polyline>
<polyline class="st1" points="222.69,29.61 217.23,30.51 217.23,28.71 222.69,29.61 "></polyline>
<polyline class="st1" points="181.71,28.71 181.71,30.51 176.19,29.61 181.71,28.71 "></polyline>
<polyline class="st1" points="283.17,61.65 281.31,61.65 282.21,56.19 283.17,61.65 "></polyline>
<polyline class="st1" points="281.31,77.25 283.17,77.25 282.21,82.71 281.31,77.25 "></polyline>
<polyline class="st1" points="287.73,215.97 289.59,215.97 288.69,221.49 287.73,215.97 "></polyline>
<polyline class="st1" points="289.59,234.27 287.73,234.27 288.69,228.75 289.59,234.27 "></polyline>
<polyline class="st1" points="141.69,226.95 139.83,226.95 140.73,221.49 141.69,226.95 "></polyline>
<polyline class="st1" points="139.83,213.33 141.69,213.33 140.73,218.79 139.83,213.33 "></polyline>
<polyline class="st1" points="175.41,207.39 169.89,208.29 169.89,206.49 175.41,207.39 "></polyline>
<polyline class="st1" points="182.55,206.49 182.55,208.29 177.03,207.39 182.55,206.49 "></polyline>
<polyline class="st1" points="175.05,222.63 171.81,227.19 170.49,225.87 175.05,222.63 "></polyline>
<polyline class="st1" points="175.29,83.13 170.61,86.07 169.89,84.39 175.29,83.13 "></polyline>
<polyline class="st1" points="206.07,66.63 205.89,66.63 205.83,66.57 205.77,66.57 205.65,66.45 205.59,66.45 205.59,66.39   205.53,66.33 205.53,66.27 205.47,66.27 205.47,66.15 205.41,66.09 205.41,65.85 205.47,65.79 205.47,65.67 205.59,65.55   205.59,65.49 205.65,65.43 205.71,65.43 205.77,65.37 205.83,65.37 205.89,65.31 206.25,65.31 206.31,65.37 206.43,65.37   206.61,65.55 206.61,65.61 206.67,65.61 206.67,65.67 206.73,65.73 206.73,66.21 206.67,66.27 206.61,66.33 206.61,66.39   206.55,66.45 206.49,66.45 206.49,66.51 206.43,66.57 206.31,66.57 206.25,66.63 206.07,66.63 "></polyline>
<path class="st1" d="M202.77,73.29h-0.06c-0.17-0.18-0.14,0.11-0.42-0.24h-0.06v-0.06l-0.06-0.06v-0.12l-0.06-0.06v-0.3l0.06-0.06  v-0.12l0.06-0.06v-0.06h0.06l0.06-0.06h0.06v-0.06h0.06l0.06-0.06h0.48l0.12,0.12h0.06l0.18,0.18v0.12l0.06,0.06v0.3l-0.06,0.06  v0.12l-0.24,0.24h-0.06v0.06h-0.18l-0.06,0.06H202.77"></path>
<polyline class="st1" points="192.81,69.93 192.57,69.93 192.51,69.87 192.45,69.87 192.45,69.81 192.39,69.81 192.21,69.63   192.21,69.51 192.15,69.45 192.15,69.09 192.21,69.03 192.21,68.97 192.27,68.91 192.27,68.85 192.33,68.79 192.39,68.79   192.45,68.73 192.51,68.67 192.63,68.67 192.69,68.61 192.93,68.61 192.99,68.67 193.11,68.67 193.17,68.73 193.23,68.79   193.29,68.79 193.29,68.85 193.41,68.97 193.41,69.03 193.47,69.09 193.47,69.45 193.41,69.51 193.41,69.63 193.35,69.69   193.29,69.69 193.29,69.75 193.23,69.81 193.17,69.81 193.17,69.87 193.11,69.87 193.05,69.93 192.81,69.93 "></polyline>
<polyline class="st1" points="196.11,69.93 195.93,69.93 195.87,69.87 195.81,69.87 195.75,69.81 195.69,69.81 195.63,69.75   195.63,69.69 195.57,69.69 195.57,69.63 195.51,69.57 195.51,69.45 195.45,69.39 195.45,69.15 195.51,69.09 195.51,69.03   195.57,68.97 195.57,68.91 195.63,68.85 195.63,68.79 195.69,68.79 195.75,68.73 195.81,68.73 195.87,68.67 195.93,68.67   195.99,68.61 196.23,68.61 196.29,68.67 196.41,68.67 196.47,68.73 196.53,68.73 196.53,68.79 196.59,68.79 196.65,68.85   196.65,68.91 196.71,68.97 196.71,69.03 196.77,69.03 196.77,69.51 196.71,69.57 196.71,69.63 196.47,69.87 196.41,69.87   196.35,69.93 196.11,69.93 "></polyline>
<polyline class="st1" points="199.47,73.29 199.41,73.29 199.35,73.23 199.17,73.23 199.11,73.17 199.05,73.17 198.99,73.11   198.99,73.05 198.93,73.05 198.93,72.99 198.87,72.93 198.87,72.87 198.81,72.81 198.81,72.39 198.87,72.33 198.87,72.27   198.93,72.21 198.93,72.15 198.99,72.15 198.99,72.09 199.05,72.09 199.11,72.03 199.17,72.03 199.23,71.97 199.65,71.97   199.71,72.03 199.77,72.03 199.83,72.09 199.89,72.09 199.89,72.15 199.95,72.15 200.01,72.21 200.01,72.27 200.07,72.33   200.07,72.45 200.13,72.51 200.13,72.69 200.07,72.75 200.07,72.87 200.01,72.93 200.01,72.99 199.95,73.05 199.89,73.05   199.89,73.11 199.83,73.17 199.77,73.17 199.71,73.23 199.59,73.23 199.53,73.29 199.47,73.29 "></polyline>
<path class="st1" d="M196.11,73.29h-0.06l-0.06-0.06h-0.06c-0.14-0.02-0.26-0.13-0.36-0.24v-0.06l-0.06-0.06v-0.12l-0.06-0.06v-0.18  l0.06-0.06v-0.12l0.06-0.06v-0.06l0.12-0.12h0.06l0.06-0.06h0.06l0.06-0.06h0.42l0.06,0.06h0.06l0.12,0.12h0.06v0.06l0.06,0.06v0.06  l0.06,0.06v0.42l-0.06,0.06v0.06l-0.06,0.06v0.06h-0.06l-0.06,0.06v0.06h-0.06l-0.06,0.06h-0.18l-0.06,0.06H196.11"></path>
<path class="st1" d="M192.81,73.29h-0.06c-0.17-0.18-0.14,0.11-0.42-0.24h-0.06v-0.06l-0.06-0.06v-0.12l-0.06-0.06v-0.3l0.06-0.06  v-0.12l0.06-0.06v-0.06h0.06l0.06-0.06h0.06v-0.06h0.06l0.06-0.06h0.48l0.06,0.06h0.06v0.06h0.06l0.18,0.18v0.12l0.06,0.06v0.3  l-0.06,0.06v0.12l-0.18,0.18l-0.06,0.06l-0.06,0.06h-0.18l-0.06,0.06H192.81"></path>
<polyline class="st1" points="202.77,66.63 202.59,66.63 202.53,66.57 202.41,66.57 202.41,66.51 202.35,66.45 202.29,66.45   202.23,66.39 202.23,66.33 202.17,66.27 202.17,66.21 202.11,66.15 202.11,65.79 202.17,65.73 202.17,65.61 202.23,65.61   202.23,65.55 202.35,65.43 202.41,65.43 202.41,65.37 202.53,65.37 202.59,65.31 202.95,65.31 203.01,65.37 203.07,65.37   203.13,65.43 203.19,65.43 203.25,65.49 203.25,65.55 203.31,65.61 203.37,65.61 203.37,65.73 203.43,65.79 203.43,66.15   203.37,66.21 203.37,66.27 203.25,66.39 203.25,66.45 203.19,66.45 203.07,66.57 203.01,66.57 202.95,66.63 202.77,66.63 "></polyline>
<path class="st1" d="M199.47,66.63h-0.18l-0.06-0.06h-0.12l-0.18-0.18v-0.06l-0.12-0.12c0-0.16,0-0.32,0-0.48l0.06-0.06v-0.06h0.06  v-0.06l0.06-0.06v-0.06h0.06l0.06-0.06h0.12l0.06-0.06h0.3l0.06,0.06h0.12l0.06,0.06h0.06v0.06l0.06,0.06l0.12,0.12v0.12l0.06,0.06  v0.24l-0.06,0.06v0.12h-0.06v0.06l-0.06,0.06l-0.06,0.06l-0.12,0.12h-0.12l-0.06,0.06H199.47"></path>
<polyline class="st1" points="196.11,66.63 195.93,66.63 195.93,66.57 195.81,66.57 195.69,66.45 195.63,66.45 195.63,66.39   195.57,66.33 195.57,66.27 195.51,66.27 195.51,66.15 195.45,66.09 195.45,65.85 195.51,65.79 195.51,65.67 195.63,65.55   195.63,65.49 195.69,65.43 195.75,65.43 195.81,65.37 195.93,65.37 195.93,65.31 196.29,65.31 196.35,65.37 196.47,65.37   196.65,65.55 196.65,65.61 196.71,65.61 196.71,65.67 196.77,65.73 196.77,66.21 196.65,66.33 196.65,66.39 196.59,66.45   196.53,66.45 196.53,66.51 196.47,66.57 196.35,66.57 196.29,66.63 196.11,66.63 "></polyline>
<polyline class="st1" points="192.81,66.63 192.63,66.63 192.57,66.57 192.45,66.57 192.45,66.51 192.39,66.45 192.33,66.45   192.27,66.39 192.27,66.33 192.21,66.27 192.21,66.21 192.15,66.15 192.15,65.79 192.21,65.73 192.21,65.61 192.27,65.61   192.27,65.55 192.39,65.43 192.45,65.43 192.45,65.37 192.57,65.37 192.63,65.31 192.99,65.31 193.05,65.37 193.17,65.37   193.17,65.43 193.23,65.43 193.29,65.49 193.29,65.55 193.35,65.61 193.41,65.61 193.41,65.73 193.47,65.79 193.47,66.15   193.41,66.21 193.41,66.27 193.29,66.39 193.29,66.45 193.23,66.45 193.17,66.51 193.17,66.57 193.05,66.57 192.99,66.63   192.81,66.63 "></polyline>
<polyline class="st1" points="202.77,69.93 202.53,69.93 202.47,69.87 202.41,69.87 202.41,69.81 202.35,69.81 202.23,69.69   202.17,69.63 202.17,69.51 202.11,69.45 202.11,69.09 202.17,69.03 202.17,68.97 202.23,68.91 202.23,68.85 202.29,68.79   202.35,68.79 202.47,68.67 202.59,68.67 202.65,68.61 202.89,68.61 202.95,68.67 203.07,68.67 203.07,68.73 203.13,68.73   203.19,68.79 203.25,68.79 203.25,68.85 203.37,68.97 203.37,69.03 203.43,69.09 203.43,69.45 203.37,69.51 203.37,69.63   203.31,69.69 203.25,69.69 203.25,69.75 203.19,69.81 203.13,69.81 203.01,69.93 202.77,69.93 "></polyline>
<polyline class="st1" points="199.47,69.93 199.23,69.93 199.17,69.87 199.11,69.87 199.05,69.81 198.99,69.81 198.99,69.75   198.87,69.63 198.87,69.57 198.81,69.51 198.81,69.03 198.87,69.03 198.87,68.97 198.93,68.91 198.93,68.85 199.05,68.73   199.11,68.73 199.17,68.67 199.29,68.67 199.35,68.61 199.59,68.61 199.59,68.67 199.71,68.67 199.77,68.73 199.83,68.73   199.89,68.79 199.95,68.85 200.01,68.91 200.01,68.97 200.07,69.03 200.07,69.09 200.13,69.15 200.13,69.39 200.07,69.45   200.07,69.57 200.01,69.63 200.01,69.69 199.95,69.69 199.89,69.75 199.89,69.81 199.83,69.81 199.77,69.87 199.71,69.87   199.65,69.93 199.47,69.93 "></polyline>
<polyline class="st1" points="206.07,69.93 205.83,69.93 205.83,69.87 205.77,69.87 205.71,69.81 205.65,69.81 205.59,69.75   205.59,69.69 205.53,69.69 205.53,69.63 205.47,69.57 205.47,69.45 205.41,69.39 205.41,69.15 205.47,69.09 205.47,69.03   205.53,68.97 205.53,68.91 205.59,68.85 205.59,68.79 205.65,68.79 205.71,68.73 205.77,68.73 205.83,68.67 205.89,68.67   205.95,68.61 206.19,68.61 206.25,68.67 206.37,68.67 206.43,68.73 206.49,68.73 206.49,68.79 206.55,68.79 206.61,68.85   206.61,68.91 206.67,68.97 206.67,69.03 206.73,69.03 206.73,69.51 206.67,69.57 206.67,69.63 206.43,69.87 206.37,69.87   206.31,69.93 206.07,69.93 "></polyline>
<polyline class="st1" points="192.81,79.89 192.57,79.89 192.51,79.83 192.45,79.83 192.45,79.77 192.39,79.77 192.21,79.59   192.21,79.47 192.15,79.41 192.15,79.05 192.21,78.99 192.21,78.93 192.27,78.87 192.27,78.81 192.33,78.75 192.39,78.75   192.51,78.63 192.63,78.63 192.69,78.57 192.93,78.57 192.99,78.63 193.11,78.63 193.23,78.75 193.29,78.75 193.29,78.81   193.41,78.93 193.41,78.99 193.47,79.05 193.47,79.41 193.41,79.47 193.41,79.59 193.35,79.65 193.29,79.65 193.29,79.71   193.23,79.77 193.17,79.77 193.17,79.83 193.11,79.83 193.05,79.89 192.81,79.89 "></polyline>
<polyline class="st1" points="196.11,79.89 195.93,79.89 195.87,79.83 195.81,79.83 195.75,79.77 195.69,79.77 195.63,79.71   195.63,79.65 195.57,79.65 195.57,79.59 195.51,79.53 195.51,79.41 195.45,79.35 195.45,79.11 195.51,79.05 195.51,78.99   195.57,78.93 195.57,78.87 195.63,78.81 195.63,78.75 195.69,78.75 195.75,78.69 195.81,78.69 195.87,78.63 195.93,78.63   195.99,78.57 196.23,78.57 196.29,78.63 196.41,78.63 196.47,78.69 196.53,78.69 196.53,78.75 196.59,78.75 196.65,78.81   196.65,78.87 196.71,78.93 196.71,78.99 196.77,78.99 196.77,79.47 196.71,79.53 196.71,79.59 196.47,79.83 196.41,79.83   196.35,79.89 196.11,79.89 "></polyline>
<polyline class="st1" points="206.07,73.29 206.01,73.29 205.95,73.23 205.83,73.23 205.77,73.17 205.71,73.17 205.53,72.99   205.53,72.93 205.47,72.87 205.47,72.75 205.41,72.69 205.41,72.51 205.47,72.45 205.47,72.33 205.53,72.27 205.53,72.21   205.65,72.09 205.71,72.09 205.77,72.03 205.83,72.03 205.83,71.97 206.31,71.97 206.37,72.03 206.43,72.03 206.55,72.15   206.61,72.15 206.61,72.21 206.67,72.27 206.67,72.33 206.73,72.39 206.73,72.81 206.67,72.87 206.67,72.93 206.61,72.99   206.61,73.05 206.55,73.05 206.49,73.11 206.49,73.17 206.43,73.17 206.37,73.23 206.19,73.23 206.13,73.29 206.07,73.29 "></polyline>
<polyline class="st1" points="206.07,76.59 205.89,76.59 205.77,76.47 205.71,76.47 205.65,76.41 205.59,76.41 205.59,76.35   205.53,76.29 205.53,76.23 205.47,76.23 205.47,76.11 205.41,76.05 205.41,75.81 205.47,75.75 205.47,75.63 205.59,75.51   205.59,75.45 205.65,75.39 205.71,75.39 205.77,75.33 205.83,75.33 205.83,75.27 206.31,75.27 206.37,75.33 206.43,75.33   206.61,75.51 206.61,75.57 206.67,75.57 206.67,75.63 206.73,75.69 206.73,76.17 206.67,76.23 206.61,76.29 206.61,76.35   206.55,76.41 206.49,76.41 206.49,76.47 206.43,76.47 206.37,76.53 206.31,76.53 206.25,76.59 206.07,76.59 "></polyline>
<polyline class="st1" points="206.07,79.89 205.83,79.89 205.83,79.83 205.77,79.83 205.71,79.77 205.65,79.77 205.59,79.71   205.59,79.65 205.53,79.65 205.53,79.59 205.47,79.53 205.47,79.41 205.41,79.35 205.41,79.11 205.47,79.05 205.47,78.99   205.53,78.93 205.53,78.87 205.59,78.81 205.59,78.75 205.65,78.75 205.71,78.69 205.77,78.69 205.83,78.63 205.89,78.63   205.95,78.57 206.19,78.57 206.25,78.63 206.37,78.63 206.43,78.69 206.49,78.69 206.49,78.75 206.55,78.75 206.61,78.81   206.61,78.87 206.67,78.93 206.67,78.99 206.73,78.99 206.73,79.47 206.67,79.53 206.67,79.59 206.43,79.83 206.37,79.83   206.31,79.89 206.07,79.89 "></polyline>
<path class="st1" d="M202.77,76.59h-0.18l-0.06-0.06h-0.06l-0.12-0.12h-0.06l-0.06-0.06v-0.06l-0.06-0.06v-0.06l-0.06-0.06v-0.36  l0.06-0.06v-0.12h0.06v-0.06l0.12-0.12h0.06v-0.06h0.06l0.06-0.06c0.1,0,0.2,0,0.3,0h0.18l0.12,0.12h0.06l0.06,0.06v0.06l0.06,0.06  h0.06v0.12l0.06,0.06v0.36l-0.06,0.06v0.06l-0.12,0.12v0.06h-0.06l-0.06,0.06h-0.06v0.06h-0.06l-0.06,0.06H202.77"></path>
<path class="st1" d="M199.47,76.59h-0.18l-0.06-0.06h-0.06l-0.06-0.06h-0.06l-0.12-0.12v-0.06l-0.12-0.12c0-0.16,0-0.32,0-0.48  l0.06-0.06v-0.06h0.06v-0.06l0.06-0.06v-0.06h0.06l0.06-0.06h0.06l0.06-0.06h0.42l0.06,0.06h0.06l0.06,0.06h0.06v0.06l0.06,0.06  l0.12,0.12v0.12l0.06,0.06v0.24l-0.06,0.06v0.12h-0.06v0.06l-0.06,0.06l-0.06,0.06l-0.06,0.06h-0.06l-0.06,0.06h-0.06l-0.06,0.06  H199.47"></path>
<polyline class="st1" points="196.11,76.59 195.93,76.59 195.93,76.53 195.87,76.53 195.81,76.47 195.75,76.47 195.69,76.41   195.63,76.41 195.63,76.35 195.57,76.29 195.57,76.23 195.51,76.23 195.51,76.11 195.45,76.05 195.45,75.81 195.51,75.75   195.51,75.63 195.63,75.51 195.63,75.45 195.69,75.39 195.75,75.39 195.81,75.33 195.87,75.33 195.93,75.27 196.35,75.27   196.41,75.33 196.47,75.33 196.65,75.51 196.65,75.57 196.71,75.57 196.71,75.63 196.77,75.69 196.77,76.17 196.65,76.29   196.65,76.35 196.59,76.41 196.53,76.41 196.53,76.47 196.47,76.47 196.41,76.53 196.35,76.53 196.29,76.59 196.11,76.59 "></polyline>
<polyline class="st1" points="192.81,76.59 192.63,76.59 192.57,76.53 192.51,76.53 192.45,76.47 192.39,76.41 192.33,76.41   192.27,76.35 192.27,76.29 192.21,76.23 192.21,76.17 192.15,76.11 192.15,75.75 192.21,75.69 192.21,75.57 192.27,75.57   192.27,75.51 192.39,75.39 192.45,75.39 192.45,75.33 192.51,75.33 192.57,75.27 193.05,75.27 193.11,75.33 193.17,75.33   193.17,75.39 193.23,75.39 193.29,75.45 193.29,75.51 193.35,75.57 193.41,75.57 193.41,75.69 193.47,75.75 193.47,76.11   193.41,76.17 193.41,76.23 193.29,76.35 193.29,76.41 193.23,76.41 193.17,76.47 193.11,76.53 193.05,76.53 192.99,76.59   192.81,76.59 "></polyline>
<polyline class="st1" points="202.77,79.89 202.53,79.89 202.47,79.83 202.41,79.83 202.41,79.77 202.35,79.77 202.23,79.65   202.17,79.59 202.17,79.47 202.11,79.41 202.11,79.05 202.17,78.99 202.17,78.93 202.23,78.87 202.23,78.81 202.29,78.75   202.35,78.75 202.47,78.63 202.59,78.63 202.65,78.57 202.89,78.57 202.95,78.63 203.07,78.63 203.07,78.69 203.13,78.69   203.19,78.75 203.25,78.75 203.25,78.81 203.37,78.93 203.37,78.99 203.43,79.05 203.43,79.41 203.37,79.47 203.37,79.59   203.31,79.65 203.25,79.65 203.25,79.71 203.19,79.77 203.13,79.77 203.01,79.89 202.77,79.89 "></polyline>
<polyline class="st1" points="199.47,79.89 199.23,79.89 199.17,79.83 199.11,79.83 199.05,79.77 198.99,79.77 198.99,79.71   198.87,79.59 198.87,79.53 198.81,79.47 198.81,78.99 198.87,78.99 198.87,78.93 198.93,78.87 198.93,78.81 199.05,78.69   199.11,78.69 199.17,78.63 199.29,78.63 199.35,78.57 199.59,78.57 199.59,78.63 199.71,78.63 199.77,78.69 199.83,78.69   199.89,78.75 199.95,78.81 200.01,78.87 200.01,78.93 200.07,78.99 200.07,79.05 200.13,79.11 200.13,79.35 200.07,79.41   200.07,79.53 200.01,79.59 200.01,79.65 199.95,79.65 199.89,79.71 199.89,79.77 199.83,79.77 199.77,79.83 199.71,79.83   199.65,79.89 199.47,79.89 "></polyline>
<path class="st1" d="M222.69,83.73h-0.18l-0.06-0.06h-0.12l-0.06-0.06h-0.06l-0.12-0.06l-0.3-0.3v-0.12l-0.06-0.06v-0.18l-0.06-0.06  v-0.18l0.06-0.12v-0.12l0.06-0.12v-0.06l0.18-0.18c0.13-0.15,0.3-0.23,0.48-0.3h0.48l0.12,0.06h0.06l0.06,0.06l0.06,0.06l0.12,0.06  l0.12,0.12v0.06l0.12,0.12v0.12l0.06,0.06v0.36c0.01,0.3-0.02,0.1-0.12,0.42l-0.06,0.06v0.06c-0.11,0.15-0.29,0.2-0.42,0.3h-0.12  l-0.06,0.06H222.69"></path>
<path class="st1" d="M176.19,83.73h-0.18l-0.06-0.06c-0.31,0-0.77-0.54-0.72-0.84v-0.36l0.06-0.06v-0.12l0.48-0.48h0.12l0.06-0.06  h0.54l0.06,0.06h0.06l0.12,0.06l0.36,0.36v0.06l0.06,0.12v0.06l0.06,0.06v0.36l-0.06,0.12v0.06l-0.06,0.06v0.12l-0.36,0.36h-0.12  l-0.06,0.06h-0.06l-0.12,0.06H176.19"></path>
<path class="st1" d="M150.15,368.07v0.42l0.06,0.12v0.24l0.06,0.12v0.18c0.08,0.15,0.1,0.33,0.18,0.48v0.12l0.06,0.06v0.12  l0.12,0.12l0.06,0.12v0.06l0.06,0.12l0.06,0.06l0.06,0.12l0.12,0.12l0.06,0.12l0.18,0.18l0.06,0.12l0.24,0.24l0.06,0.12l0.12,0.06  c0.21,0.24,0.21,0.15,0.36,0.3l0.06,0.06h0.12l0.12,0.12l0.12,0.06l0.06,0.06h0.12l0.06,0.06l0.12,0.06h0.06l0.12,0.06l0.06,0.06  h0.12l0.06,0.06h0.12l0.06,0.06h0.24l0.06,0.06h0.3l0.12,0.06h0.48"></path>
<path class="st1" d="M244.23,372.57h0.42c0.32,0.02-0.09-0.09,0.48-0.06l0.12-0.06h0.18l0.06-0.06h0.12l0.06-0.06h0.12l0.12-0.06  l0.06-0.06h0.12l0.12-0.12h0.12l0.06-0.06l0.12-0.06l0.06-0.06l0.12-0.06h0.06l0.06-0.06l0.12-0.06l0.12-0.12l0.06-0.06l0.12-0.06  l0.06-0.06l0.06-0.12l0.12-0.12l0.12-0.06l0.06-0.06l0.06-0.12l0.12-0.12l0.06-0.06l0.06-0.12l0.06-0.06v-0.06l0.06-0.12l0.06-0.06  l0.06-0.12l0.06-0.06v-0.12l0.12-0.12v-0.12l0.06-0.06l0.06-0.12v-0.12l0.06-0.06v-0.12l0.06-0.06v-0.18l0.06-0.12v-0.3l0.06-0.06  v-0.54"></path>
<path class="st1" d="M244.23,373.05h0.48c0.42,0.02,0.05-0.09,0.54-0.06l0.06-0.06h0.24l0.12-0.06h0.06l0.24-0.12h0.12l0.06-0.06  l0.12-0.06c0.15,0.02,1.18-0.69,1.32-0.84l0.18-0.18l0.06-0.06l0.12-0.06l0.06-0.12l0.06-0.06l0.06-0.12l0.12-0.12l0.06-0.12  l0.06-0.06l0.06-0.12l0.06-0.06l0.12-0.24l0.06-0.06l0.06-0.12l0.06-0.06v-0.12l0.06-0.12l0.06-0.06v-0.12l0.12-0.24v-0.06  l0.06-0.12v-0.24l0.06-0.06v-0.24l0.06-0.12v-0.66"></path>
<path class="st1" d="M149.67,368.07v0.54l0.06,0.12v0.36l0.06,0.06v0.12c0.1,0.18,0.08,0.36,0.18,0.54v0.12l0.06,0.06l0.06,0.12  c0.14,0.39,0.6,1.08,0.9,1.38l0.06,0.06l0.06,0.06l0.18,0.18c0.3,0.25,0.91,0.65,1.26,0.84h0.06l0.12,0.06l0.12,0.06h0.06l0.24,0.12  h0.12l0.06,0.06h0.24l0.12,0.06h0.18l0.12,0.06h0.66"></path>
<polyline class="st1" points="177.03,218.79 177.03,218.55 176.97,218.55 176.97,218.43 176.91,218.43 176.91,218.37 176.85,218.31   176.85,218.25 176.79,218.25 176.79,218.19 176.73,218.19 176.67,218.13 176.61,218.13 176.61,218.07 176.55,218.07 176.49,218.01   175.95,218.01 175.89,218.07 175.83,218.07 175.77,218.13 175.71,218.13 175.71,218.19 175.65,218.19 175.65,218.25 175.59,218.25   175.53,218.31 175.53,218.37 175.47,218.37 175.47,218.49 175.41,218.55 175.41,218.79 "></polyline>
<path class="st1" d="M175.41,220.05l-0.12,0.06l-0.12,0.06l-0.06,0.06c-0.43,0.41-0.61,0.97-0.54,1.56l0.06,0.12v0.12  c0.28,0.53,0.69,1.02,1.32,1.08h0.6c0.27-0.12,0.23-0.02,0.6-0.24l0.18-0.18c0.26-0.27,0.2-0.15,0.36-0.48l0.06-0.06v-0.12  l0.12-0.24c0-0.2,0-0.4,0-0.6l-0.06-0.12v-0.12l-0.12-0.24l-0.06-0.06l-0.12-0.24l-0.12-0.06l-0.06-0.12l-0.06-0.06l-0.12-0.06  l-0.12-0.06"></path>
<path class="st1" d="M223.53,218.79v-0.06l-0.06-0.06v-0.18h-0.06v-0.12h-0.06v-0.06h-0.06v-0.06l-0.06-0.06l-0.06-0.06h-0.06v-0.06  h-0.12v-0.06h-0.06c-0.16,0-0.32,0-0.48,0h-0.06v0.06h-0.12v0.06h-0.06l-0.06,0.06h-0.06v0.06l-0.12,0.12v0.06l-0.06,0.06v0.06  l-0.06,0.06v0.18"></path>
<path class="st1" d="M221.85,220.05l-0.12,0.06l-0.06,0.06l-0.12,0.06l-0.06,0.12l-0.12,0.06l-0.12,0.24l-0.06,0.06l-0.06,0.12v0.12  l-0.06,0.12v0.12l-0.06,0.12v0.36l0.06,0.12v0.12l0.06,0.12v0.12l0.06,0.06l0.12,0.24l0.12,0.06l0.06,0.12l0.18,0.18l0.12,0.06  l0.06,0.06l0.24,0.12h0.12l0.12,0.06h0.72l0.12-0.06h0.12l0.12-0.06l0.06-0.06l0.12-0.06c0.28-0.16,0.68-0.74,0.72-1.08v-0.24  l0.06-0.12l-0.06-0.12c0.04-0.39-0.34-1.07-0.72-1.2l-0.06-0.06"></path>
<line class="st1" x1="244.23" y1="228.75" x2="244.23" y2="56.19"></line>
<line class="st1" x1="154.65" y1="228.75" x2="154.65" y2="56.19"></line>
<line class="st1" x1="244.23" y1="56.19" x2="154.65" y2="56.19"></line>
<line class="st1" x1="244.23" y1="228.75" x2="154.65" y2="228.75"></line>
<polyline class="st1" points="249.21,228.75 249.21,56.19 244.23,56.19 "></polyline>
<line class="st1" x1="249.21" y1="228.75" x2="244.23" y2="228.75"></line>
<line class="st1" x1="149.67" y1="228.75" x2="149.67" y2="56.19"></line>
<line class="st1" x1="154.65" y1="56.19" x2="149.67" y2="56.19"></line>
<line class="st1" x1="154.65" y1="228.75" x2="149.67" y2="228.75"></line>
<line class="st1" x1="147.99" y1="228.75" x2="111.51" y2="228.75"></line>
<line class="st1" x1="147.99" y1="56.19" x2="111.51" y2="56.19"></line>
<line class="st1" x1="113.13" y1="228.75" x2="113.13" y2="56.19"></line>
<polyline class="st1" points="109.17,144.87 110.61,143.79 110.61,141.63 109.17,140.49 106.23,140.49 104.73,141.63 104.73,144.87   101.85,144.87 101.85,140.49 "></polyline>
<polyline class="st1" points="103.29,138.33 101.85,137.19 101.85,135.03 103.29,133.95 104.73,133.95 106.23,135.03 106.23,137.19   107.67,138.33 110.61,138.33 110.61,133.95 "></polyline>
<polyline class="st1" points="110.61,130.65 109.17,131.73 103.29,131.73 101.85,130.65 101.85,129.51 103.29,128.43 109.17,128.43   110.61,129.51 110.61,130.65 "></polyline>
<line class="st1" x1="149.67" y1="56.07" x2="149.67" y2="11.25"></line>
<line class="st1" x1="249.21" y1="56.07" x2="249.21" y2="11.25"></line>
<line class="st1" x1="155.13" y1="11.25" x2="243.75" y2="11.25"></line>
<polyline class="st1" points="190.65,7.59 191.73,9.03 193.95,9.03 195.03,7.59 195.03,6.09 193.95,4.65 192.87,4.65 "></polyline>
<polyline class="st1" points="193.95,4.65 195.03,3.15 195.03,1.71 193.95,0.27 191.73,0.27 190.65,1.71 "></polyline>
<polyline class="st1" points="198.33,9.03 197.25,7.59 197.25,1.71 198.33,0.27 199.41,0.27 200.55,1.71 200.55,7.59 199.41,9.03   198.33,9.03 "></polyline>
<polyline class="st1" points="203.85,9.03 202.71,7.59 202.71,1.71 203.85,0.27 204.93,0.27 206.01,1.71 206.01,7.59 204.93,9.03   203.85,9.03 "></polyline>
<line class="st1" x1="380.73" y1="228.75" x2="380.73" y2="56.19"></line>
<polyline class="st1" points="380.73,228.75 319.35,228.75 319.35,56.19 "></polyline>
<line class="st1" x1="380.73" y1="56.19" x2="319.35" y2="56.19"></line>
<polyline class="st1" points="319.35,228.75 314.37,228.75 314.37,56.19 "></polyline>
<line class="st1" x1="319.35" y1="56.19" x2="314.37" y2="56.19"></line>
<line class="st1" x1="61.65" y1="228.75" x2="61.65" y2="56.19"></line>
<line class="st1" x1="0.27" y1="228.75" x2="0.27" y2="56.19"></line>
<line class="st1" x1="61.65" y1="56.19" x2="0.27" y2="56.19"></line>
<line class="st1" x1="61.65" y1="228.75" x2="0.27" y2="228.75"></line>
<polyline class="st1" points="66.63,228.75 66.63,56.19 61.65,56.19 "></polyline>
<line class="st1" x1="66.63" y1="228.75" x2="61.65" y2="228.75"></line>
<line class="st1" x1="0.27" y1="54.51" x2="0.27" y2="27.99"></line>
<line class="st1" x1="66.63" y1="54.51" x2="66.63" y2="27.99"></line>
<line class="st1" x1="0.27" y1="29.61" x2="66.63" y2="29.61"></line>
<polyline class="st1" points="28.23,19.77 29.31,18.27 31.53,18.27 32.61,19.77 32.61,21.21 31.53,22.71 29.31,22.71 28.23,24.15   28.23,27.09 32.61,27.09 "></polyline>
<polyline class="st1" points="35.91,27.09 34.83,25.59 34.83,19.77 35.91,18.27 37.05,18.27 38.13,19.77 38.13,25.59 37.05,27.09   35.91,27.09 "></polyline>
<polyline class="st1" points="41.43,27.09 40.29,25.59 40.29,19.77 41.43,18.27 42.51,18.27 43.59,19.77 43.59,25.59 42.51,27.09   41.43,27.09 "></polyline>
<line class="st1" x1="248.73" y1="307.17" x2="248.73" y2="368.07"></line>
<line class="st1" x1="150.15" y1="307.17" x2="248.73" y2="307.17"></line>
<line class="st1" x1="150.15" y1="368.07" x2="150.15" y2="307.17"></line>
<line class="st1" x1="244.23" y1="372.57" x2="154.65" y2="372.57"></line>
<polyline class="st1" points="149.67,306.69 249.21,306.69 249.21,368.07 "></polyline>
<line class="st1" x1="244.23" y1="373.05" x2="154.65" y2="373.05"></line>
<line class="st1" x1="149.67" y1="368.07" x2="149.67" y2="306.69"></line>
<line class="st1" x1="150.15" y1="312.69" x2="248.73" y2="312.69"></line>
<line class="st1" x1="248.73" y1="314.31" x2="150.15" y2="314.31"></line>
<line class="st1" x1="248.73" y1="312.69" x2="248.73" y2="307.17"></line>
<line class="st1" x1="150.15" y1="307.17" x2="150.15" y2="312.69"></line>
<polyline class="st1" points="249.21,228.75 149.67,228.75 149.67,56.19 "></polyline>
<line class="st1" x1="175.41" y1="218.79" x2="175.41" y2="220.05"></line>
<line class="st1" x1="177.03" y1="220.05" x2="177.03" y2="218.79"></line>
<line class="st1" x1="221.85" y1="218.79" x2="221.85" y2="220.05"></line>
<line class="st1" x1="223.53" y1="220.05" x2="223.53" y2="218.79"></line>
<line class="st1" x1="249.21" y1="56.19" x2="149.67" y2="56.19"></line>
<line class="st1" x1="249.21" y1="228.75" x2="249.21" y2="56.19"></line>
<line class="st1" x1="222.69" y1="224.07" x2="222.69" y2="255.33"></line>
<line class="st1" x1="176.19" y1="224.07" x2="176.19" y2="255.33"></line>
<line class="st1" x1="217.23" y1="255.33" x2="181.71" y2="255.33"></line>
<line class="st1" x1="193.05" y1="253.11" x2="195.21" y2="253.11"></line>
<polyline class="st1" points="194.13,253.11 194.13,244.35 193.05,245.79 "></polyline>
<polyline class="st1" points="200.73,253.11 200.73,244.35 197.43,250.23 201.81,250.23 "></polyline>
<polyline class="st1" points="205.11,253.11 204.03,251.67 204.03,245.79 205.11,244.35 206.19,244.35 207.33,245.79 207.33,251.67   206.19,253.11 205.11,253.11 "></polyline>
<line class="st1" x1="222.69" y1="80.79" x2="222.69" y2="29.61"></line>
<line class="st1" x1="176.19" y1="80.79" x2="176.19" y2="29.61"></line>
<line class="st1" x1="217.23" y1="29.61" x2="181.71" y2="29.61"></line>
<line class="st1" x1="192.45" y1="27.45" x2="194.67" y2="27.45"></line>
<polyline class="st1" points="193.53,27.45 193.53,18.63 192.45,20.13 "></polyline>
<polyline class="st1" points="200.13,27.45 200.13,18.63 196.83,24.51 201.21,24.51 "></polyline>
<polyline class="st1" points="204.51,27.45 203.43,25.95 203.43,20.13 204.51,18.63 205.65,18.63 206.73,20.13 206.73,25.95   205.65,27.45 204.51,27.45 "></polyline>
<line class="st1" x1="249.33" y1="56.19" x2="282.21" y2="56.19"></line>
<line class="st1" x1="224.61" y1="82.71" x2="282.21" y2="82.71"></line>
<line class="st1" x1="282.21" y1="56.19" x2="282.21" y2="32.43"></line>
<line class="st1" x1="282.21" y1="61.65" x2="282.21" y2="77.25"></line>
<polyline class="st1" points="280.05,43.41 280.05,41.25 278.55,40.11 277.11,40.11 275.67,41.25 275.67,43.41 274.17,44.49   272.73,44.49 271.23,43.41 271.23,41.25 272.73,40.11 274.17,40.11 275.67,41.25 "></polyline>
<polyline class="st1" points="275.67,43.41 277.11,44.49 278.55,44.49 280.05,43.41 "></polyline>
<polyline class="st1" points="280.05,36.81 278.55,37.95 272.73,37.95 271.23,36.81 271.23,35.73 272.73,34.65 278.55,34.65   280.05,35.73 280.05,36.81 "></polyline>
<line class="st1" x1="225.27" y1="221.49" x2="288.69" y2="221.49"></line>
<line class="st1" x1="249.33" y1="228.75" x2="288.69" y2="228.75"></line>
<line class="st1" x1="288.69" y1="215.97" x2="288.69" y2="193.11"></line>
<line class="st1" x1="288.69" y1="221.49" x2="288.69" y2="228.75"></line>
<line class="st1" x1="288.69" y1="234.27" x2="288.69" y2="239.73"></line>
<polyline class="st1" points="279.15,206.31 277.71,205.23 277.71,203.01 279.15,201.93 280.65,201.93 282.09,203.01 282.09,205.23   283.53,206.31 286.47,206.31 286.47,201.93 "></polyline>
<polyline class="st1" points="279.15,199.71 277.71,198.63 277.71,196.41 279.15,195.33 280.65,195.33 282.09,196.41 282.09,198.63   283.53,199.71 286.47,199.71 286.47,195.33 "></polyline>
<line class="st1" x1="173.61" y1="221.49" x2="140.73" y2="221.49"></line>
<line class="st1" x1="174.45" y1="218.79" x2="140.73" y2="218.79"></line>
<line class="st1" x1="140.73" y1="213.33" x2="140.73" y2="198.51"></line>
<line class="st1" x1="140.73" y1="221.49" x2="140.73" y2="218.79"></line>
<line class="st1" x1="140.73" y1="226.95" x2="140.73" y2="232.41"></line>
<polyline class="st1" points="138.57,203.97 138.57,201.75 137.07,200.67 135.63,200.67 134.19,201.75 134.19,203.97 132.69,205.05   131.25,205.05 129.75,203.97 129.75,201.75 131.25,200.67 132.69,200.67 134.19,201.75 "></polyline>
<polyline class="st1" points="134.19,203.97 135.63,205.05 137.07,205.05 138.57,203.97 "></polyline>
<line class="st1" x1="175.41" y1="218.73" x2="175.41" y2="207.39"></line>
<line class="st1" x1="177.03" y1="218.73" x2="177.03" y2="207.39"></line>
<line class="st1" x1="169.89" y1="207.39" x2="155.61" y2="207.39"></line>
<line class="st1" x1="175.41" y1="207.39" x2="177.03" y2="207.39"></line>
<line class="st1" x1="182.55" y1="207.39" x2="188.01" y2="207.39"></line>
<polyline class="st1" points="157.83,203.73 158.91,205.23 161.13,205.23 162.21,203.73 162.21,200.79 161.13,199.35 157.83,199.35   157.83,196.41 162.21,196.41 "></polyline>
<line class="st1" x1="177.39" y1="220.29" x2="177.39" y2="220.29"></line>
<line class="st1" x1="135.69" y1="261.99" x2="171.15" y2="226.53"></line>
<polyline class="st1" points="135.45,257.07 133.65,256.77 131.55,254.73 131.31,252.93 132.87,251.37 134.67,251.61 136.77,253.71   137.01,255.51 135.45,257.07 "></polyline>
<line class="st1" x1="136.11" y1="258.45" x2="132.21" y2="249.93"></line>
<line class="st1" x1="140.37" y1="254.19" x2="141.93" y2="252.63"></line>
<polyline class="st1" points="141.15,253.41 134.91,247.23 135.21,249.03 "></polyline>
<polyline class="st1" points="144.27,250.35 142.47,250.05 138.33,245.91 138.03,244.11 138.81,243.33 140.61,243.57 144.75,247.71   145.05,249.57 144.27,250.35 "></polyline>
<line class="st1" x1="177.39" y1="220.29" x2="175.05" y2="222.63"></line>
<line class="st1" x1="177.15" y1="82.35" x2="177.15" y2="82.35"></line>
<line class="st1" x1="125.25" y1="104.13" x2="170.25" y2="85.23"></line>
<polyline class="st1" points="126.87,99.45 125.31,98.55 124.17,95.85 124.59,94.05 126.63,93.21 128.19,94.11 129.33,96.81   128.91,98.61 126.87,99.45 "></polyline>
<line class="st1" x1="126.93" y1="101.01" x2="126.57" y2="91.65"></line>
<polyline class="st1" points="130.77,94.65 133.83,93.39 135.39,94.29 135.99,95.61 135.51,97.41 133.47,98.25 131.91,97.35   130.23,93.27 131.13,89.73 132.15,89.31 "></polyline>
<line class="st1" x1="177.15" y1="82.35" x2="175.29" y2="83.13"></line>
<line class="st1" x1="222.69" y1="82.71" x2="222.69" y2="81.87"></line>
<line class="st1" x1="222.69" y1="82.71" x2="221.85" y2="82.71"></line>
<line class="st1" x1="222.69" y1="82.71" x2="222.69" y2="83.55"></line>
<line class="st1" x1="222.69" y1="82.71" x2="223.53" y2="82.71"></line>
<line class="st1" x1="222.69" y1="81.09" x2="222.69" y2="80.91"></line>
<line class="st1" x1="221.01" y1="82.71" x2="220.83" y2="82.71"></line>
<line class="st1" x1="222.69" y1="84.39" x2="222.69" y2="84.57"></line>
<line class="st1" x1="224.37" y1="82.71" x2="224.49" y2="82.71"></line>
<line class="st1" x1="176.19" y1="82.71" x2="176.19" y2="81.87"></line>
<line class="st1" x1="176.19" y1="82.71" x2="175.41" y2="82.71"></line>
<line class="st1" x1="176.19" y1="82.71" x2="176.19" y2="83.55"></line>
<line class="st1" x1="176.19" y1="82.71" x2="177.03" y2="82.71"></line>
<line class="st1" x1="176.19" y1="81.09" x2="176.19" y2="80.91"></line>
<line class="st1" x1="174.57" y1="82.71" x2="174.39" y2="82.71"></line>
<line class="st1" x1="176.19" y1="84.39" x2="176.19" y2="84.57"></line>
<line class="st1" x1="177.87" y1="82.71" x2="178.05" y2="82.71"></line>
<line class="st1" x1="222.69" y1="221.49" x2="222.69" y2="220.65"></line>
<line class="st1" x1="222.69" y1="221.49" x2="221.85" y2="221.49"></line>
<line class="st1" x1="222.69" y1="221.49" x2="222.69" y2="222.33"></line>
<line class="st1" x1="222.69" y1="221.49" x2="223.53" y2="221.49"></line>
<line class="st1" x1="222.69" y1="219.81" x2="222.69" y2="218.97"></line>
<line class="st1" x1="221.01" y1="221.49" x2="220.17" y2="221.49"></line>
<line class="st1" x1="222.69" y1="223.11" x2="222.69" y2="223.95"></line>
<line class="st1" x1="224.37" y1="221.49" x2="225.15" y2="221.49"></line>
<line class="st1" x1="176.19" y1="221.49" x2="176.19" y2="220.65"></line>
<line class="st1" x1="176.19" y1="221.49" x2="175.41" y2="221.49"></line>
<line class="st1" x1="176.19" y1="221.49" x2="176.19" y2="222.33"></line>
<line class="st1" x1="176.19" y1="221.49" x2="177.03" y2="221.49"></line>
<line class="st1" x1="176.19" y1="219.81" x2="176.19" y2="218.97"></line>
<line class="st1" x1="174.57" y1="221.49" x2="173.73" y2="221.49"></line>
<line class="st1" x1="176.19" y1="223.11" x2="176.19" y2="223.95"></line>
<line class="st1" x1="177.87" y1="221.49" x2="178.71" y2="221.49"></line>
<line class="st1" x1="222.69" y1="218.79" x2="222.69" y2="218.01"></line>
<line class="st1" x1="222.69" y1="218.79" x2="221.85" y2="218.79"></line>
<line class="st1" x1="222.69" y1="218.79" x2="222.69" y2="219.63"></line>
<line class="st1" x1="222.69" y1="218.79" x2="223.53" y2="218.79"></line>
<line class="st1" x1="222.69" y1="218.01" x2="222.69" y2="217.17"></line>
<line class="st1" x1="221.85" y1="218.79" x2="221.01" y2="218.79"></line>
<line class="st1" x1="222.69" y1="219.63" x2="222.69" y2="220.47"></line>
<line class="st1" x1="223.53" y1="218.79" x2="224.37" y2="218.79"></line>
<line class="st1" x1="176.19" y1="218.79" x2="176.19" y2="218.01"></line>
<line class="st1" x1="176.19" y1="218.79" x2="175.41" y2="218.79"></line>
<line class="st1" x1="176.19" y1="218.79" x2="176.19" y2="219.63"></line>
<line class="st1" x1="176.19" y1="218.79" x2="177.03" y2="218.79"></line>
<line class="st1" x1="176.19" y1="218.01" x2="176.19" y2="217.17"></line>
<line class="st1" x1="175.41" y1="218.79" x2="174.57" y2="218.79"></line>
<line class="st1" x1="176.19" y1="219.63" x2="176.19" y2="220.47"></line>
<line class="st1" x1="177.03" y1="218.79" x2="177.87" y2="218.79"></line>
<line class="st1" x1="149.67" y1="56.19" x2="149.67" y2="56.19"></line>
<line class="st1" x1="249.21" y1="56.19" x2="249.21" y2="56.19"></line>
<line class="st1" x1="249.21" y1="11.25" x2="249.21" y2="11.25"></line>
<line class="st1" x1="222.69" y1="223.95" x2="222.69" y2="223.95"></line>
<line class="st1" x1="176.19" y1="223.95" x2="176.19" y2="223.95"></line>
<line class="st1" x1="176.19" y1="255.33" x2="176.19" y2="255.33"></line>
<line class="st1" x1="222.69" y1="80.91" x2="222.69" y2="80.91"></line>
<line class="st1" x1="176.19" y1="80.91" x2="176.19" y2="80.91"></line>
<line class="st1" x1="176.19" y1="29.61" x2="176.19" y2="29.61"></line>
<line class="st1" x1="249.21" y1="56.19" x2="249.21" y2="56.19"></line>
<line class="st1" x1="224.49" y1="82.71" x2="224.49" y2="82.71"></line>
<line class="st1" x1="282.21" y1="82.71" x2="282.21" y2="82.71"></line>
<line class="st1" x1="225.15" y1="221.49" x2="225.15" y2="221.49"></line>
<line class="st1" x1="249.21" y1="228.75" x2="249.21" y2="228.75"></line>
<line class="st1" x1="288.69" y1="228.75" x2="288.69" y2="228.75"></line>
<line class="st1" x1="173.73" y1="221.49" x2="173.73" y2="221.49"></line>
<line class="st1" x1="174.57" y1="218.79" x2="174.57" y2="218.79"></line>
<line class="st1" x1="140.73" y1="218.79" x2="140.73" y2="218.79"></line>
<line class="st1" x1="175.41" y1="218.79" x2="175.41" y2="218.79"></line>
<line class="st1" x1="177.03" y1="218.79" x2="177.03" y2="218.79"></line>
<line class="st1" x1="177.03" y1="207.39" x2="177.03" y2="207.39"></line>
<line class="st1" x1="175.05" y1="222.63" x2="175.05" y2="222.63"></line>
<line class="st1" x1="177.39" y1="220.29" x2="177.39" y2="220.29"></line>
<line class="st1" x1="175.29" y1="83.13" x2="175.29" y2="83.13"></line>
<line class="st1" x1="177.15" y1="82.35" x2="177.15" y2="82.35"></line>
</svg>
