<svg width="50" height="50" viewBox="0 0 50 50" fill="none" xmlns="http://www.w3.org/2000/svg">
<path d="M48.1967 33.8123C45.803 28.6545 42.5091 23.9649 38.4694 19.9633V15.2071L42.6644 10.4195C42.7819 10.285 42.863 10.1227 42.9002 9.94801C42.9373 9.77334 42.9293 9.59207 42.8767 9.42139C42.8242 9.2507 42.729 9.09626 42.6001 8.97268C42.4712 8.84911 42.3128 8.7605 42.1401 8.71526L36.4977 7.14211L36.9224 1.10645C36.9317 0.962933 36.9113 0.819045 36.8626 0.683729C36.8139 0.548414 36.7379 0.424564 36.6393 0.319876C36.5432 0.220454 36.4284 0.14101 36.3015 0.0861134C36.1746 0.0312169 36.0381 0.00195186 35.8999 1.61457e-06H24.0016C23.8414 -0.000279494 23.6833 0.0361503 23.5393 0.106495C23.3954 0.17684 23.2694 0.279229 23.1712 0.405805C23.073 0.532381 23.0051 0.679778 22.9727 0.836684C22.9403 0.99359 22.9443 1.15583 22.9843 1.31096L23.8705 4.74568L16.6602 6.9376C16.4902 6.98915 16.336 7.08309 16.2121 7.21059C16.0883 7.33809 15.9989 7.49497 15.9523 7.66649C15.9051 7.83737 15.902 8.01742 15.9433 8.18982C15.9846 8.36222 16.0689 8.52135 16.1883 8.65234C17.2738 9.8322 20.5722 14.0378 21.4321 15.1704V19.9633C20.3626 21 19.3541 22.0978 18.4117 23.2512C16.7074 21.8825 13.5192 21.0173 9.86423 21.0173C5.09758 21.0173 0.25752 22.5485 0.00581625 25.4798C-0.00193875 25.5513 -0.00193875 25.6234 0.00581625 25.6948V44.6251C0.00581625 47.7189 4.97697 49.2921 9.89045 49.2921C12.9791 49.2921 15.8055 48.6733 17.6199 47.6193C20.9759 49.1924 25.2129 50 29.9586 50C38.4589 50 45.1658 47.3781 47.966 43.0152C49.6807 40.3304 49.7594 37.1421 48.1967 33.8123ZM23.5507 15.8574H36.3718V19.3707H23.5559L23.5507 15.8574ZM39.9953 10.2884L36.9434 13.7598H34.4421L36.0153 9.20294L39.9953 10.2884ZM34.7777 2.09754L34.3897 7.57735L32.2187 13.7598H29.214L26.1411 5.14421L25.3545 2.09754H34.7777ZM24.4841 6.74882L26.9854 13.7598H23.021C22.2397 12.7635 20.2103 10.1783 18.826 8.47929L24.4841 6.74882ZM9.89045 42.4751C5.2077 42.4751 2.10335 40.9019 2.10335 39.8846V38.2066C2.11719 38.2038 2.13146 38.2038 2.1453 38.2066C2.28689 38.2853 2.43371 38.3692 2.59103 38.4478C2.83225 38.5684 3.08395 38.6786 3.35139 38.7834C3.45102 38.8254 3.56114 38.8621 3.66602 38.8988C3.77089 38.9355 4.00687 39.0246 4.1904 39.0823L4.59942 39.1977L5.0871 39.334L5.5538 39.4337L6.05196 39.5385L6.54488 39.6224L7.06927 39.7011L7.59365 39.7588L8.16523 39.8112C8.32779 39.8112 8.4851 39.8374 8.65291 39.8427C8.82071 39.8479 9.06717 39.8427 9.28217 39.8427H9.73838H9.91667H10.5826H10.7557C10.7631 39.8922 10.7736 39.9413 10.7871 39.9895C10.7871 40.0996 10.8291 40.2045 10.8553 40.3094C10.8815 40.4143 10.9078 40.5296 10.9392 40.6397C10.9707 40.7499 10.9969 40.8495 11.0284 40.9544L11.1385 41.2743C11.1752 41.3791 11.2171 41.4788 11.2591 41.5836C11.301 41.6885 11.3482 41.7934 11.3954 41.893C11.4426 41.9927 11.4898 42.0975 11.537 42.1972C11.5842 42.2968 11.5842 42.2968 11.6104 42.3492C11.0179 42.4384 10.4935 42.4751 9.89045 42.4751ZM2.75359 29.0089H2.80603C5.04838 29.9439 7.46156 30.3994 9.89045 30.3461C10.2051 30.3461 10.5197 30.3461 10.8343 30.3461H11.1437L11.7625 30.3094L12.1243 30.2727L12.6487 30.2098L13.0158 30.1573L13.5402 30.0734H13.6922L13.5507 30.3251C13.4091 30.5663 13.278 30.8128 13.1416 31.0593C13.0053 31.3057 12.8899 31.5102 12.7746 31.7357L12.3918 32.4803C12.3183 32.6219 12.2344 32.7687 12.1663 32.9156C11.9775 32.9156 11.7887 32.9628 11.5947 32.9785C11.4007 32.9942 11.3325 33.0047 11.1962 33.01C10.7662 33.0414 10.3257 33.0572 9.87996 33.0572C9.58107 33.0572 9.28741 33.0572 8.99375 33.0572C7.18016 33.0239 5.38894 32.6503 3.71321 31.956C3.6398 31.9192 3.57163 31.8825 3.50346 31.8563C3.39524 31.8049 3.29018 31.7471 3.18883 31.6833L3.11017 31.6413L3.03151 31.5941L2.97907 31.5574L2.86895 31.4788L2.82176 31.4473C2.65723 31.3375 2.50744 31.2071 2.37603 31.0593L2.33932 30.9386L2.29213 30.8862V30.8547L2.23969 30.7761L2.19774 30.6974C2.19679 30.6835 2.19679 30.6694 2.19774 30.6555L2.16628 30.5821C2.16628 30.5821 2.16628 30.5821 2.16628 30.5506C2.16874 30.5157 2.16874 30.4806 2.16628 30.4457V28.6681H2.10335C2.31835 28.7939 2.5281 28.904 2.75359 29.0089ZM10.1317 37.8028H9.40277H9.04619L8.31206 37.7556L7.99218 37.7242C7.74572 37.7242 7.50451 37.677 7.26329 37.6455L6.96439 37.6036C6.73017 37.5686 6.49944 37.5267 6.2722 37.4777L5.99428 37.4253L5.34404 37.2313L5.0871 37.1631C4.8721 37.1002 4.67283 37.032 4.47881 36.9638L4.25857 36.8904C4.01032 36.7962 3.76704 36.6895 3.52968 36.5705C2.97102 36.3449 2.49511 35.9532 2.16628 35.4483C2.16229 35.3721 2.14998 35.2965 2.12957 35.2229C2.12732 35.2019 2.12732 35.1809 2.12957 35.1599H2.10335V35.1337V33.419H2.1453C2.30786 33.5134 2.47042 33.6025 2.66969 33.6917L2.75883 33.7284L2.82176 33.7598C5.05748 34.7022 7.46452 35.17 9.89045 35.1337C10.3309 35.1337 10.7714 35.1337 11.2014 35.097C11.128 35.3173 11.0546 35.5427 10.9917 35.763L10.9602 35.9046C10.913 36.0776 10.8658 36.2507 10.8291 36.4289C10.8291 36.5024 10.8029 36.5758 10.7871 36.6492C10.7714 36.7226 10.7347 36.9376 10.7137 37.0792L10.6823 37.3204C10.6823 37.4567 10.6508 37.5931 10.6403 37.7294C10.6403 37.7294 10.6403 37.7766 10.6403 37.7976H10.5197L10.1317 37.8028ZM9.89045 23.1148C13.2832 23.1148 16.0048 23.9486 17.1374 24.882L17.085 24.9554C16.8176 25.3015 16.5606 25.6633 16.2879 26.0042L16.0782 26.3083C15.8579 26.6125 15.6429 26.9271 15.4279 27.247L15.3073 27.42L15.1343 27.483L14.8773 27.5669L14.526 27.6665L14.2481 27.7452L13.8758 27.8291C13.779 27.855 13.681 27.876 13.5821 27.892C13.4563 27.9234 13.3199 27.9444 13.1888 27.9706L12.8899 28.0178C12.7536 28.0441 12.612 28.0598 12.4704 28.0808L12.1715 28.1175L11.7206 28.1647L11.4269 28.1909H10.9025H10.6508C10.3939 28.1909 10.1264 28.1909 9.87472 28.1909C8.21607 28.2083 6.56339 27.9893 4.96649 27.5406C4.53123 27.4091 4.10548 27.2479 3.69223 27.0582H3.6398C2.4914 26.5338 2.06664 25.957 2.06664 25.6371C2.10335 24.646 5.2077 23.1148 9.89045 23.1148ZM9.89045 47.205C5.2077 47.1945 2.10335 45.6529 2.10335 44.6251V42.8789L2.31835 42.989C2.38652 43.0257 2.44945 43.0676 2.52286 43.0991L2.93712 43.2984L3.15212 43.3928C3.34614 43.4714 3.54541 43.5501 3.75516 43.6235C3.96491 43.6969 4.08028 43.7284 4.24808 43.7808L4.41064 43.8332L4.98746 43.9853H5.06612C6.4662 44.3117 7.89716 44.4875 9.33461 44.5097H9.88521C10.3204 44.5097 10.7452 44.5097 11.1699 44.4678C11.3273 44.4678 11.4846 44.4678 11.6419 44.4363H11.9723L12.4966 44.3734L12.7693 44.3419H12.9371C13.0944 44.5149 13.2622 44.688 13.4353 44.8663L13.5664 44.9869C13.7027 45.1127 13.8338 45.2386 13.9754 45.3592L14.1956 45.5375L14.5627 45.8364L14.8197 46.0199L15.192 46.2874L15.3073 46.366C13.5595 46.938 11.7293 47.2179 9.89045 47.1945V47.205ZM46.1935 41.9035C43.8391 45.6109 37.6199 47.913 29.9376 47.913C25.3283 47.913 21.086 47.0582 17.9922 45.5008C17.7859 45.4029 17.5867 45.298 17.3944 45.1862C16.1624 44.5276 15.0691 43.6373 14.1747 42.5642C14.0593 42.4174 13.9492 42.2758 13.8495 42.1238C13.145 41.1298 12.7426 39.9535 12.6907 38.7362C12.6907 38.5789 12.6907 38.4216 12.6907 38.259C12.7563 37.0208 13.0796 35.8099 13.6398 34.7037V34.6093C13.687 34.5149 13.7289 34.4206 13.7761 34.3314V34.2999C14.6802 32.4274 15.7031 30.6146 16.8385 28.8726C17.6408 27.656 18.4641 26.5128 19.2822 25.4851C20.39 24.059 21.5955 22.7116 22.8899 21.4525H37.0063C40.8558 25.2914 44.0009 29.7766 46.2984 34.7037C47.5569 37.3886 47.5255 39.8112 46.1935 41.9035Z" fill="#ED3B41"/>
<path d="M35.992 30.084L35.4349 32.1343H25L25.5572 30.084H35.992ZM30.9139 43L25.2149 35.7866L25.199 34.168H28.0246C28.7303 34.168 29.3273 34.0545 29.8155 33.8276C30.3037 33.6007 30.6751 33.2715 30.9298 32.8398C31.1845 32.4027 31.3119 31.8714 31.3119 31.2461C31.3119 30.3164 31.0466 29.5776 30.5159 29.0298C29.9853 28.4819 29.1548 28.208 28.0246 28.208H25L25.581 26H28.0246C29.3406 26 30.4257 26.2186 31.28 26.6558C32.1343 27.0929 32.7711 27.6989 33.1903 28.4736C33.6095 29.2484 33.8191 30.1421 33.8191 31.1548C33.8191 32.0568 33.6466 32.873 33.3017 33.6035C32.9568 34.334 32.4076 34.9289 31.6541 35.3882C30.9006 35.8475 29.911 36.1159 28.6852 36.1934L28.6136 36.21L33.8191 42.8589V43H30.9139ZM36 26L35.4349 28.0669L27.0933 28.0171L27.6585 26H36Z" fill="#ED3B41"/>
</svg>
