<svg width="51" height="50" viewBox="0 0 51 50" fill="none" xmlns="http://www.w3.org/2000/svg">
<path d="M44.6267 30.1345V5.31146C44.6267 3.76584 43.3365 2.37215 40.9933 1.387C38.8666 0.492575 36.0559 0 33.0787 0C30.1021 0 27.2914 0.492575 25.1641 1.387C22.8209 2.37215 21.5307 3.76584 21.5307 5.31146V11.3877C21.4934 11.3287 21.4539 11.2652 21.4088 11.1929C20.8016 10.2133 19.8838 8.73333 17.1838 8.73333C14.4838 8.73333 13.566 10.2133 12.9588 11.1929C12.5007 11.932 12.4813 11.9242 12.1668 11.8084C9.00429 10.6396 7.51098 10.5222 6.84197 11.3905C6.12732 12.3172 6.91265 13.7064 7.86775 15.0689C8.56737 16.0674 8.90967 16.5917 9.15902 17.0854C8.03528 17.1594 7.14363 18.0962 7.14363 19.2383C7.14363 20.1605 7.72526 20.9492 8.54121 21.2575C5.88632 23.9158 2.82678 27.5987 1.18765 31.7107C-0.777086 36.6381 -0.302321 41.0635 2.59858 44.8639C5.16331 48.2239 8.75327 50 12.9805 50H21.3877C25.222 50 28.5325 48.5384 31.0294 45.7583C31.8871 46.9009 32.9713 47.8666 34.2113 48.5835C35.8143 49.5102 37.6455 50 39.5067 50C45.348 50 50.1006 45.2473 50.1006 39.406C50.1001 35.4203 47.8877 31.9422 44.6267 30.1345ZM39.5061 28.812C37.0889 28.812 34.7913 29.6191 32.9251 31.1035C32.2833 29.633 31.4685 28.2232 30.5657 26.9007C31.38 26.9792 32.2143 27.0204 33.0637 27.0204C37.3905 27.0204 41.0657 26.023 43.0549 24.4629V29.4243C41.945 29.0285 40.7506 28.812 39.5061 28.812ZM34.2648 35.7932C35.4564 34.0645 37.3944 33.0398 39.5061 33.0398C43.0165 33.0398 45.8723 35.8957 45.8723 39.406C45.8723 42.9164 43.0165 45.7722 39.5061 45.7722C36.8618 45.7722 34.5108 44.1481 33.5668 41.7019C34.2904 39.8479 34.5241 37.8749 34.2648 35.7932ZM23.2495 11.4389C23.1838 11.3242 23.1354 11.2107 23.1031 11.0977V8.06321C23.6546 8.49678 24.3454 8.89196 25.1647 9.23648C27.2914 10.1309 30.1021 10.6235 33.0793 10.6235C36.0559 10.6235 38.8666 10.1309 40.9939 9.23648C41.8137 8.89196 42.5039 8.49678 43.0554 8.06321V10.9741C42.7426 12.6856 38.6562 14.5173 33.0642 14.5173C31.0043 14.5173 29.0006 14.2607 27.3103 13.7893C27.8012 12.8771 28.016 12.025 27.5262 11.3899C26.9351 10.624 25.7029 10.6257 23.2495 11.4389ZM26.4309 15.1685C28.3528 15.7635 30.6804 16.0891 33.0637 16.0891C37.3905 16.0891 41.0657 15.0917 43.0549 13.5316V16.4398C42.7421 18.1513 38.6556 19.983 33.0637 19.983C30.9759 19.983 28.9322 19.718 27.2246 19.2316C27.2212 18.0923 26.3307 17.1589 25.2092 17.0848C25.4502 16.6084 25.778 16.1019 26.4309 15.1685ZM26.6513 20.7015C28.5409 21.2598 30.7422 21.5548 33.0642 21.5548C37.3911 21.5548 41.0662 20.5574 43.0554 18.9973V21.9054C42.7426 23.6169 38.6562 25.4486 33.0642 25.4486C31.7574 25.4486 30.4889 25.3479 29.2873 25.1514C28.1541 23.6987 26.9546 22.3857 25.8275 21.257C26.1442 21.1373 26.4253 20.9453 26.6513 20.7015ZM25.7736 2.83579C27.7121 2.02039 30.3064 1.57179 33.0787 1.57179C35.851 1.57179 38.4453 2.02095 40.3838 2.83579C42.0564 3.53931 43.0549 4.4649 43.0549 5.31146C43.0549 6.15803 42.0564 7.08418 40.3838 7.78714C38.4453 8.60253 35.851 9.05114 33.0787 9.05114C30.3064 9.05114 27.7121 8.60198 25.7736 7.78714C24.101 7.08362 23.1025 6.15803 23.1025 5.31146C23.1025 4.4649 24.101 3.53931 25.7736 2.83579ZM8.1594 12.3901C8.47331 12.3689 9.35716 12.4452 11.6219 13.2823C13.1597 13.8505 13.8427 12.7496 14.294 12.0211C14.8412 11.1383 15.3582 10.3051 17.1838 10.3051C19.0094 10.3051 19.5259 11.1389 20.0736 12.0211C20.5255 12.7496 21.2085 13.8505 22.7463 13.2823C25.0116 12.4452 25.8943 12.3689 26.2088 12.3901C26.1492 12.6172 25.9394 13.1309 25.2136 14.1672C24.2062 15.6049 23.8623 16.1659 23.4905 17.0798H10.8772C10.5059 16.1659 10.1614 15.6055 9.15401 14.1672C8.42823 13.1309 8.2184 12.6166 8.1594 12.3901ZM9.30095 18.6511H25.0667C25.3901 18.6511 25.6533 18.9143 25.6533 19.2377C25.6533 19.5611 25.3901 19.8243 25.0667 19.8243H9.30095C8.97757 19.8243 8.71431 19.5611 8.71431 19.2377C8.71431 18.9143 8.97757 18.6511 9.30095 18.6511ZM21.3877 48.4282H12.98C9.26143 48.4282 6.10338 46.8659 3.847 43.9099C1.30453 40.5793 0.901009 36.671 2.64701 32.2923C4.39857 27.8987 7.91895 23.9764 10.6507 21.3956H23.717C26.4487 23.9764 29.9696 27.8992 31.7212 32.2929C33.4672 36.6715 33.0626 40.5804 30.5201 43.9104C28.2631 46.8664 25.1057 48.4282 21.3877 48.4282ZM39.5061 48.4282C36.4839 48.4282 33.7332 46.9633 32.0485 44.4848C32.2822 44.157 32.4982 43.8242 32.6969 43.4874C34.1084 45.8457 36.672 47.3434 39.5061 47.3434C43.8831 47.3434 47.4435 43.7824 47.4435 39.406C47.4435 35.0296 43.8825 31.4686 39.5061 31.4686C37.3549 31.4686 35.3479 32.3202 33.8757 33.8074C33.7744 33.425 33.6592 33.0393 33.5273 32.6502C35.1787 31.1853 37.2826 30.3838 39.5061 30.3838C44.4808 30.3838 48.5283 34.4313 48.5283 39.406C48.5289 44.3807 44.4814 48.4282 39.5061 48.4282ZM17.1838 24.405C11.3904 24.405 6.67666 29.1187 6.67666 34.9122C6.67666 40.7056 11.3898 45.4193 17.1838 45.4193C22.9778 45.4193 27.691 40.7056 27.691 34.9122C27.691 29.1187 22.9773 24.405 17.1838 24.405ZM17.1838 43.8475C12.257 43.8475 8.24845 39.839 8.24845 34.9122C8.24845 29.9853 12.257 25.9768 17.1838 25.9768C22.1107 25.9768 26.1192 29.9853 26.1192 34.9122C26.1192 39.839 22.1107 43.8475 17.1838 43.8475Z" fill="#ED3B41"/>
<path d="M20.9949 33.1621L20.6404 34.2476H14L14.3546 33.1621H20.9949ZM17.7634 40L14.1368 36.1812L14.1266 35.3242H15.9247C16.3739 35.3242 16.7537 35.2642 17.0644 35.144C17.3751 35.0239 17.6114 34.8496 17.7735 34.6211C17.9356 34.3896 18.0166 34.1084 18.0166 33.7773C18.0166 33.2852 17.8478 32.894 17.5101 32.604C17.1725 32.314 16.644 32.1689 15.9247 32.1689H14L14.3698 31H15.9247C16.7622 31 17.4527 31.1157 17.9964 31.3472C18.54 31.5786 18.9452 31.8994 19.212 32.3096C19.4788 32.7197 19.6122 33.1929 19.6122 33.729C19.6122 34.2065 19.5024 34.6387 19.2829 35.0254C19.0634 35.4121 18.7139 35.7271 18.2344 35.9702C17.7549 36.2134 17.1252 36.3555 16.3452 36.3965L16.2996 36.4053L19.6122 39.9253V40H17.7634ZM21 31L20.6404 32.0942L15.3321 32.0679L15.6918 31H21Z" fill="#ED3B41"/>
<path d="M41.9964 37.6816L41.7431 38.5259H37L37.2533 37.6816H41.9964ZM39.6881 43L37.0977 40.0298L37.0904 39.3633H38.3748C38.6956 39.3633 38.967 39.3166 39.1889 39.2231C39.4108 39.1297 39.5796 38.9941 39.6954 38.8164C39.8111 38.6364 39.869 38.4176 39.869 38.1602C39.869 37.7773 39.7484 37.4731 39.5072 37.2476C39.266 37.022 38.8886 36.9092 38.3748 36.9092H37L37.2641 36H38.3748C38.973 36 39.4662 36.09 39.8546 36.27C40.2429 36.45 40.5323 36.6995 40.7229 37.0186C40.9134 37.3376 41.0087 37.7056 41.0087 38.1226C41.0087 38.494 40.9303 38.8301 40.7735 39.1309C40.6167 39.4316 40.3671 39.6766 40.0246 39.8657C39.6821 40.0549 39.2323 40.1654 38.6751 40.1973L38.6425 40.2041L41.0087 42.9419V43H39.6881ZM42 36L41.7431 36.8511L37.9515 36.8306L38.2084 36H42Z" fill="#ED3B41"/>
</svg>
