<svg width="54" height="50" viewBox="0 0 54 50" fill="none" xmlns="http://www.w3.org/2000/svg">
<path d="M2.68702 22.7752C2.65212 22.7752 2.61722 22.7717 2.58232 22.7682C2.12515 22.7089 1.79709 22.2901 1.85642 21.8329C2.61373 15.8442 5.52781 10.3267 10.0647 6.29929C12.3052 4.31004 14.8494 2.75703 17.6273 1.67865C20.5065 0.565366 23.5427 0 26.6558 0C29.521 0 32.3304 0.481608 35.0071 1.42737C37.5931 2.34522 40.0012 3.67488 42.1614 5.38843C44.3008 7.08104 46.1399 9.10169 47.6266 11.3841C49.1378 13.7084 50.2441 16.249 50.9142 18.9328C51.0258 19.383 50.7536 19.8367 50.3034 19.9483C49.8532 20.06 49.3995 19.7878 49.2878 19.3376C46.6948 8.93767 37.3872 1.67516 26.6558 1.67516C14.9331 1.67516 4.98339 10.4314 3.51413 22.0458C3.46178 22.4646 3.10232 22.7752 2.68702 22.7752Z" fill="#ED3B41"/>
<path d="M50.0974 19.9763C49.9508 19.9763 49.8007 19.9379 49.6681 19.8576L45.222 17.1878C44.8241 16.9505 44.6985 16.434 44.9358 16.0397C45.1731 15.6418 45.6896 15.5162 46.084 15.7535L49.8112 17.9905L52.0482 14.2633C52.2856 13.8654 52.8021 13.7363 53.1964 13.9771C53.5943 14.2144 53.7199 14.7309 53.4826 15.1253L50.8128 19.5714C50.6593 19.8332 50.3836 19.9763 50.0974 19.9763Z" fill="#ED3B41"/>
<path d="M26.6555 50C23.8497 50 21.0926 49.5394 18.4647 48.6285C15.9241 47.749 13.5509 46.4647 11.4116 44.8175C9.29671 43.1877 7.46101 41.2403 5.96035 39.0312C4.43526 36.7872 3.29755 34.3303 2.57164 31.7303C2.44601 31.2836 2.70775 30.8229 3.15446 30.6973C3.60117 30.5717 4.06184 30.8334 4.18747 31.2801C6.98639 41.3171 16.2277 48.3249 26.659 48.3249C38.3817 48.3249 48.3314 39.5687 49.8007 27.9542C49.86 27.4936 50.2788 27.169 50.736 27.2283C51.1966 27.2877 51.5212 27.7065 51.4619 28.1636C50.7045 34.1523 47.7905 39.6699 43.2536 43.6972C41.0131 45.6865 38.4689 47.2395 35.6909 48.3179C32.8083 49.4347 29.7685 50 26.6555 50Z" fill="#ED3B41"/>
<path d="M0.837184 36.8535C0.697588 36.8535 0.557991 36.8186 0.425375 36.7453C0.0240346 36.5184 -0.119052 36.0089 0.107793 35.6041L2.65194 31.0846C2.87878 30.6833 3.38831 30.5402 3.79314 30.7671L8.31258 33.3112C8.71392 33.5381 8.85701 34.0476 8.63016 34.4524C8.40332 34.8538 7.89379 34.9968 7.48896 34.77L3.69891 32.6342L1.56309 36.4242C1.41302 36.6999 1.13034 36.8535 0.837184 36.8535Z" fill="#ED3B41"/>
<path d="M26.8022 40.7552C24.6768 40.7552 22.6108 40.3399 20.6669 39.5163C18.7894 38.7241 17.1037 37.5864 15.6589 36.1381C14.2106 34.6897 13.0764 33.0076 12.2807 31.13C11.457 29.1862 11.0417 27.1236 11.0417 24.9948C11.0417 22.8659 11.457 20.8034 12.2807 18.8595C13.0729 16.9819 14.2106 15.2963 15.6589 13.8515C17.1072 12.4032 18.7894 11.2689 20.6669 10.4732C22.6108 9.64961 24.6734 9.23431 26.8022 9.23431C28.931 9.23431 30.9936 9.64961 32.9375 10.4732C34.815 11.2654 36.5007 12.4032 37.9455 13.8515C39.3938 15.2998 40.528 16.9819 41.3237 18.8595C42.1474 20.8034 42.5627 22.8659 42.5627 24.9948C42.5627 27.1236 42.1474 29.1862 41.3237 31.13C40.5315 33.0076 39.3938 34.6932 37.9455 36.1381C36.4972 37.5829 34.815 38.7206 32.9375 39.5163C30.9936 40.3399 28.9276 40.7552 26.8022 40.7552ZM26.8022 10.9165C19.0371 10.9165 12.7204 17.2332 12.7204 24.9983C12.7204 32.7633 19.0371 39.0801 26.8022 39.0801C34.5673 39.0801 40.884 32.7633 40.884 24.9983C40.884 17.2332 34.5673 10.9165 26.8022 10.9165Z" fill="#ED3B41"/>
<path d="M31.992 21.3976L31.4349 23.1033H21L21.5572 21.3976H31.992ZM26.9139 32.1429L21.2149 26.1418L21.199 24.7952H24.0246C24.7303 24.7952 25.3273 24.7008 25.8155 24.5121C26.3037 24.3233 26.6751 24.0494 26.9298 23.6903C27.1845 23.3266 27.3119 22.8846 27.3119 22.3644C27.3119 21.591 27.0466 20.9764 26.5159 20.5206C25.9853 20.0648 25.1548 19.8369 24.0246 19.8369H21L21.581 18H24.0246C25.3406 18 26.4257 18.1819 27.28 18.5456C28.1343 18.9092 28.7711 19.4134 29.1903 20.0579C29.6095 20.7024 29.8191 21.4459 29.8191 22.2884C29.8191 23.0389 29.6466 23.7179 29.3017 24.3256C28.9568 24.9333 28.4076 25.4282 27.6541 25.8103C26.9006 26.1925 25.911 26.4157 24.6852 26.4802L24.6136 26.494L29.8191 32.0255V32.1429H26.9139ZM32 18L31.4349 19.7195L23.0933 19.6781L23.6585 18H32Z" fill="#ED3B41"/>
</svg>
