<svg width="51" height="64" viewBox="0 0 51 64" fill="none" xmlns="http://www.w3.org/2000/svg">
<path d="M17.3182 0.00159888C17.0735 0.0254485 16.8389 0.110928 16.6362 0.250045C16.4335 0.389162 16.2693 0.577394 16.1591 0.797142C15.8905 1.33429 15.6428 1.99366 15.2727 2.84277C14.9026 3.69189 14.4387 4.66647 13.8636 5.57031C12.7134 7.37799 11.3074 8.72967 9.45454 8.72967H1.45455C1.06879 8.72971 0.698842 8.88297 0.42607 9.15576C0.153299 9.42856 3.94341e-05 9.79856 0 10.1843V32.0045C0 41.5362 4.42 48.837 9.70454 54.0293C14.9891 59.2216 21.1246 62.3799 24.9091 63.8939C25.259 64.0354 25.6501 64.0354 26 63.8939C29.7845 62.3799 35.92 59.2216 41.2045 54.0293C46.4891 48.837 50.9091 41.5362 50.9091 32.0045V10.1843C50.909 9.79856 50.7558 9.42856 50.483 9.15576C50.2102 8.88297 49.8403 8.72971 49.4545 8.72967H41.4545C39.6017 8.72967 38.1957 7.37799 37.0454 5.57031C36.4703 4.66647 36.0065 3.69189 35.6364 2.84277C35.2663 1.99366 35.0185 1.33429 34.75 0.797142C34.6284 0.557967 34.4431 0.357061 34.2144 0.216665C33.9858 0.0762686 33.7228 0.00183585 33.4545 0.00159888H25.4545H17.4545C17.4091 -0.000532959 17.3636 -0.000532959 17.3182 0.00159888ZM18.4091 2.91096H25.4545H32.5C32.647 3.26569 32.7245 3.47408 32.9545 4.00195C33.3572 4.92573 33.8933 6.04228 34.5909 7.13863C35.9861 9.33133 38.2164 11.639 41.4545 11.639H48V32.0045C48 40.6434 44.0564 47.149 39.1591 51.961C34.4639 56.5742 28.9812 59.4488 25.4545 60.9163C21.9279 59.4488 16.4452 56.5742 11.75 51.961C6.85272 47.149 2.90909 40.6434 2.90909 32.0045V11.639H9.45454C12.6926 11.639 14.923 9.33133 16.3182 7.13863C17.0158 6.04228 17.5519 4.92573 17.9545 4.00195C18.1846 3.47408 18.2621 3.26569 18.4091 2.91096ZM20.9545 16.0031C20.5929 16.0372 20.2571 16.2053 20.0131 16.4745C19.7692 16.7437 19.6348 17.0944 19.6364 17.4577V26.1858H10.9091C10.5233 26.1858 10.1534 26.3391 9.88061 26.6119C9.60784 26.8847 9.45458 27.2547 9.45454 27.6405V36.3686C9.45458 36.7544 9.60784 37.1244 9.88061 37.3972C10.1534 37.67 10.5233 37.8232 10.9091 37.8233H19.6364V46.5514C19.6364 46.9371 19.7897 47.3071 20.0624 47.5799C20.3352 47.8527 20.7051 48.006 21.0909 48.0061H29.8182C30.2039 48.006 30.5739 47.8527 30.8467 47.5799C31.1194 47.3071 31.2727 46.9371 31.2727 46.5514V37.8233H40C40.3857 37.8232 40.7557 37.67 41.0285 37.3972C41.3012 37.1244 41.4545 36.7544 41.4545 36.3686V27.6405C41.4545 27.2547 41.3012 26.8847 41.0285 26.6119C40.7557 26.3391 40.3857 26.1858 40 26.1858H31.2727V17.4577C31.2727 17.0719 31.1194 16.702 30.8467 16.4292C30.5739 16.1564 30.2039 16.0031 29.8182 16.0031H21.0909C21.0455 16.0009 21 16.0009 20.9545 16.0031ZM22.5455 18.9124H28.3636V27.6405C28.3637 28.0263 28.5169 28.3963 28.7897 28.6691C29.0625 28.9419 29.4324 29.0951 29.8182 29.0952H38.5454V34.9139H29.8182C29.4324 34.914 29.0625 35.0672 28.7897 35.34C28.5169 35.6128 28.3637 35.9828 28.3636 36.3686V45.0967H22.5455V36.3686C22.5454 35.9828 22.3922 35.6128 22.1194 35.34C21.8466 35.0672 21.4767 34.914 21.0909 34.9139H12.3636V29.0952H21.0909C21.4767 29.0951 21.8466 28.9419 22.1194 28.6691C22.3922 28.3963 22.5454 28.0263 22.5455 27.6405V18.9124Z" fill="#ED3B41"/>
</svg>
