<svg width="50" height="50" viewBox="0 0 50 50" fill="none" xmlns="http://www.w3.org/2000/svg">
<path d="M49.3992 23.3049C49.9019 23.9424 50.103 24.762 49.9508 25.5538C49.7986 26.3457 49.3084 27.0326 48.6051 27.4386L32.3263 36.837C30.7361 37.7554 29.1399 38.1832 27.3035 38.1832H22.2171C20.9818 38.1832 20.5546 38.2467 19.7823 39.5842L18.1948 42.3342C18.6269 42.6386 18.9437 43.0728 19.0829 43.5908C19.2394 44.1761 19.1595 44.7859 18.8579 45.3092L16.803 48.8679C16.3834 49.594 15.6209 50 14.8372 50C14.453 50 14.0644 49.9022 13.7084 49.6973L1.13231 42.4364C0.609482 42.1348 0.235025 41.6462 0.0785034 41.0609C-0.0785618 40.4755 0.00187296 39.8658 0.303503 39.3429L2.35839 35.7842C2.66057 35.2614 3.14861 34.887 3.73394 34.7304C4.25187 34.5918 4.78666 34.6489 5.266 34.8712L6.8535 32.1212C6.98176 31.8995 7.12905 31.5647 7.30024 31.1772C8.44535 28.5815 10.8231 23.1908 19.2068 25.394H21.5035C21.0606 24.2136 20.8611 22.9457 20.9068 21.6033C20.379 21.7554 19.8236 21.8413 19.2481 21.8413C15.9383 21.8413 13.2459 19.1489 13.2459 15.8391C13.2459 12.5299 15.9383 9.83696 19.2481 9.83696C21.4481 9.83696 23.3698 11.0304 24.4149 12.8005L26.4622 9.81902C26.0421 9.46793 25.7682 8.94674 25.7682 8.35761C25.7682 7.47283 26.3752 6.7337 27.1921 6.5163C26.9127 5.97826 26.6774 5.37663 26.5019 4.7L25.8682 2.26196C25.8127 2.04946 25.8595 1.82391 25.9932 1.65054C26.1269 1.47717 26.3345 1.37554 26.5535 1.37554C26.9106 1.37554 27.6502 1.44891 28.2861 1.64293C28.8682 0.646739 29.9513 0 31.1388 0C32.3258 0 33.4095 0.646739 33.991 1.64185C34.6269 1.44728 35.3665 1.37446 35.7236 1.37446C35.9432 1.37446 36.1497 1.47609 36.2839 1.64946C36.4182 1.82283 36.4644 2.04891 36.4089 2.26087L35.7747 4.69891C35.5986 5.37609 35.3638 5.97717 35.0845 6.51522C35.9019 6.73261 36.5084 7.47174 36.5084 8.35652C36.5084 8.94565 36.235 9.46685 35.8144 9.81793L38.6693 13.9755C40.7606 17.0212 41.6736 20.3272 41.2921 23.2853L41.903 22.9326C45.553 20.8261 48.1682 21.7435 49.3992 23.3049ZM27.4997 2.9038L27.8736 4.34239C28.091 5.17772 28.4127 5.89022 28.803 6.44456H33.4742C33.8649 5.89076 34.1867 5.17772 34.4035 4.34239L34.7774 2.9038C34.4421 2.97391 34.1546 3.06522 34.0568 3.13967C33.8709 3.28152 33.6269 3.32283 33.4051 3.24946C33.1828 3.17609 33.0111 2.99837 32.9464 2.77337C32.7149 1.97446 31.9714 1.4163 31.1383 1.4163C30.3051 1.4163 29.5617 1.97446 29.3307 2.77337C29.2655 2.99783 29.0937 3.17609 28.872 3.24891C28.6497 3.32228 28.4062 3.28098 28.2204 3.13913C28.1225 3.06522 27.835 2.97446 27.4997 2.9038ZM27.1856 8.35707C27.1856 8.62554 27.4122 8.85272 27.6812 8.85272H34.5964C34.8649 8.85272 35.0921 8.62609 35.0921 8.35707C35.0921 8.08804 34.8655 7.86141 34.5964 7.86141H27.6812C27.4122 7.86141 27.1856 8.08859 27.1856 8.35707ZM19.2481 20.4234C21.7763 20.4234 23.8329 18.3663 23.8329 15.8386C23.8329 13.3109 21.7758 11.2538 19.2481 11.2538C16.7204 11.2538 14.6633 13.3103 14.6633 15.8386C14.6633 18.3668 16.7204 20.4234 19.2481 20.4234ZM23.035 25.3929H26.7252C30.085 25.3929 31.9144 26.7293 32.6627 28.2685L39.6644 24.2261C40.4492 21.3625 39.6714 17.938 37.5019 14.7783L34.4057 10.2696H27.872L25.06 14.3647C25.1801 14.8375 25.2508 15.3293 25.2508 15.8386C25.2508 18.0038 24.0948 19.8989 22.3709 20.9549C22.204 22.5674 22.4269 24.0565 23.035 25.3929ZM17.7138 43.9576C17.6551 43.738 17.5149 43.5554 17.3198 43.4424L16.8829 43.1902L5.18122 36.4348L4.74372 36.1821C4.61437 36.1071 4.46981 36.069 4.32361 36.069C4.2497 36.069 4.1747 36.0788 4.10079 36.0984C3.88122 36.1571 3.69861 36.2973 3.58557 36.4924L1.53068 40.0511C1.41818 40.2462 1.38829 40.4745 1.44698 40.694C1.50568 40.9136 1.64535 41.0962 1.841 41.2092L14.4171 48.4701C14.822 48.7038 15.3415 48.5647 15.5752 48.1598L17.6301 44.6011C17.7426 44.4054 17.7725 44.1772 17.7138 43.9576ZM48.2861 24.1821C47.4225 23.0864 45.478 22.5054 42.6117 24.1603L33.054 29.6788C33.103 30.4098 32.8644 31.131 32.3839 31.6859C31.8562 32.2957 31.0877 32.6457 30.2763 32.6457H22.0698C21.6785 32.6457 21.3611 32.3283 21.3611 31.937C21.3611 31.5457 21.6785 31.2283 22.0698 31.2283H30.2763C30.6823 31.2283 31.0502 31.0614 31.3127 30.7587C31.5747 30.456 31.6872 30.0674 31.629 29.6658C31.429 28.2853 30.0356 26.8098 26.7258 26.8098H19.1144C19.0524 26.8098 18.991 26.8016 18.9312 26.7859C11.6464 24.8342 9.7372 29.162 8.59698 31.7484C8.40948 32.1734 8.24753 32.5408 8.08122 32.8293L6.5035 35.562L16.9774 41.6087L18.5551 38.8761C19.691 36.9081 20.6964 36.7663 22.2171 36.7663H27.3035C28.9024 36.7663 30.2334 36.4098 31.6182 35.6103L47.897 26.212C48.2486 26.0087 48.4839 25.6804 48.5595 25.287C48.635 24.8935 48.5377 24.5011 48.2861 24.1821ZM21.4801 15.1299H19.9568V13.6065C19.9568 13.2152 19.6394 12.8978 19.2481 12.8978C18.8568 12.8978 18.5394 13.2152 18.5394 13.6065V15.1299H17.0165C16.6252 15.1299 16.3079 15.4473 16.3079 15.8386C16.3079 16.2299 16.6252 16.5473 17.0165 16.5473H18.5399V18.0707C18.5399 18.462 18.8573 18.7793 19.2486 18.7793C19.6399 18.7793 19.9573 18.462 19.9573 18.0707V16.5473H21.4807C21.872 16.5473 22.1894 16.2299 22.1894 15.8386C22.1888 15.4473 21.8714 15.1299 21.4801 15.1299ZM42.2992 13.7875C42.2992 12.6234 43.2464 11.6761 44.4106 11.6761C45.5747 11.6761 46.522 12.6234 46.522 13.7875C46.522 14.9516 45.5747 15.8989 44.4106 15.8989C43.2464 15.8989 42.2992 14.9516 42.2992 13.7875ZM43.7165 13.7875C43.7165 14.1707 44.028 14.4821 44.4111 14.4821C44.7943 14.4821 45.1057 14.1707 45.1057 13.7875C45.1057 13.4043 44.7943 13.0929 44.4111 13.0929C44.028 13.0929 43.7165 13.4043 43.7165 13.7875ZM16.5155 3.12391C16.5155 1.95978 17.4627 1.0125 18.6269 1.0125C19.791 1.0125 20.7383 1.95978 20.7383 3.12391C20.7383 4.28804 19.791 5.23533 18.6269 5.23533C17.4627 5.23533 16.5155 4.28804 16.5155 3.12391ZM17.9323 3.12391C17.9323 3.50707 18.2437 3.81848 18.6269 3.81848C19.01 3.81848 19.3214 3.50707 19.3214 3.12391C19.3214 2.74076 19.01 2.42935 18.6269 2.42935C18.2437 2.42935 17.9323 2.74076 17.9323 3.12391Z" fill="#ED3B41"/>
<path d="M34.9949 17.1621L34.6404 18.2476H28L28.3546 17.1621H34.9949ZM31.7634 24L28.1368 20.1812L28.1266 19.3242H29.9247C30.3739 19.3242 30.7537 19.2642 31.0644 19.144C31.3751 19.0239 31.6114 18.8496 31.7735 18.6211C31.9356 18.3896 32.0166 18.1084 32.0166 17.7773C32.0166 17.2852 31.8478 16.894 31.5101 16.604C31.1725 16.314 30.644 16.1689 29.9247 16.1689H28L28.3698 15H29.9247C30.7622 15 31.4527 15.1157 31.9964 15.3472C32.54 15.5786 32.9452 15.8994 33.212 16.3096C33.4788 16.7197 33.6122 17.1929 33.6122 17.729C33.6122 18.2065 33.5024 18.6387 33.2829 19.0254C33.0634 19.4121 32.7139 19.7271 32.2344 19.9702C31.7549 20.2134 31.1252 20.3555 30.3452 20.3965L30.2996 20.4053L33.6122 23.9253V24H31.7634ZM35 15L34.6404 16.0942L29.3321 16.0679L29.6918 15H35Z" fill="#ED3B41"/>
</svg>
