<svg width="148" height="47" viewBox="0 0 148 47" fill="none" xmlns="http://www.w3.org/2000/svg">
<path d="M0 9.41061C0 6.11659 0 4.46958 0.64106 3.21143C1.20495 2.10473 2.10473 1.20495 3.21143 0.64106C4.46958 0 6.11659 0 9.41061 0H138.589C141.883 0 143.53 0 144.789 0.64106C145.895 1.20495 146.795 2.10473 147.359 3.21143C148 4.46958 148 6.11659 148 9.41061V37.5894C148 40.8834 148 42.5304 147.359 43.7886C146.795 44.8953 145.895 45.795 144.789 46.3589C143.53 47 141.883 47 138.589 47H9.41061C6.11659 47 4.46958 47 3.21143 46.3589C2.10473 45.795 1.20495 44.8953 0.64106 43.7886C0 42.5304 0 40.8834 0 37.5894V9.41061Z" fill="white"/>
<path d="M79.4794 25V20.6364H82.1854V21.2031H80.1378V22.5327H81.9915V23.0973H80.1378V25H79.4794ZM84.812 23.6428V21.7273H85.4512V25H84.8248V24.4332H84.7907C84.7154 24.608 84.5946 24.7536 84.4284 24.87C84.2637 24.9851 84.0584 25.0426 83.8127 25.0426C83.6025 25.0426 83.4164 24.9964 83.2544 24.9041C83.0939 24.8104 82.9675 24.6719 82.8752 24.4886C82.7843 24.3054 82.7388 24.0788 82.7388 23.8089V21.7273H83.3759V23.7322C83.3759 23.9553 83.4377 24.1328 83.5613 24.2649C83.6848 24.397 83.8453 24.4631 84.0428 24.4631C84.1621 24.4631 84.2807 24.4332 84.3986 24.3736C84.5179 24.3139 84.6167 24.2237 84.6948 24.103C84.7743 23.9822 84.8134 23.8288 84.812 23.6428ZM87.7177 25.0661C87.3952 25.0661 87.1175 24.9972 86.8846 24.8594C86.6531 24.7202 86.4741 24.5249 86.3477 24.2734C86.2227 24.0206 86.1602 23.7244 86.1602 23.3849C86.1602 23.0497 86.2227 22.7543 86.3477 22.4986C86.4741 22.2429 86.6502 22.0433 86.8761 21.8999C87.1033 21.7564 87.369 21.6847 87.6729 21.6847C87.8576 21.6847 88.0366 21.7152 88.2099 21.7763C88.3832 21.8374 88.5387 21.9332 88.6765 22.0639C88.8143 22.1946 88.9229 22.3643 89.0025 22.5732C89.082 22.7805 89.1218 23.0327 89.1218 23.3295V23.5554H86.5202V23.0781H88.4975C88.4975 22.9105 88.4634 22.7621 88.3952 22.6328C88.3271 22.5021 88.2312 22.3991 88.1076 22.3239C87.9854 22.2486 87.842 22.2109 87.6772 22.2109C87.4982 22.2109 87.342 22.255 87.2085 22.343C87.0763 22.4297 86.9741 22.5433 86.9016 22.6839C86.8306 22.8232 86.7951 22.9744 86.7951 23.1378V23.5107C86.7951 23.7294 86.8335 23.9155 86.9102 24.0689C86.9883 24.2223 87.0969 24.3395 87.2362 24.4205C87.3754 24.5 87.538 24.5398 87.7241 24.5398C87.8448 24.5398 87.9549 24.5227 88.0543 24.4886C88.1538 24.4531 88.2397 24.4006 88.3121 24.331C88.3846 24.2614 88.44 24.1754 88.4783 24.0732L89.0813 24.1818C89.033 24.3594 88.9464 24.5149 88.8214 24.6484C88.6978 24.7805 88.5423 24.8835 88.3548 24.9574C88.1687 25.0298 87.9563 25.0661 87.7177 25.0661ZM90.4657 20.6364V25H89.8287V20.6364H90.4657Z" fill="#6F6F6F"/>
<path d="M81.8594 10.7827C81.8366 10.581 81.7429 10.4247 81.5781 10.3139C81.4134 10.2017 81.206 10.1456 80.956 10.1456C80.777 10.1456 80.6222 10.174 80.4915 10.2308C80.3608 10.2862 80.2592 10.3629 80.1868 10.4609C80.1158 10.5575 80.0803 10.6676 80.0803 10.7912C80.0803 10.8949 80.1044 10.9844 80.1527 11.0597C80.2024 11.1349 80.267 11.1982 80.3466 11.2493C80.4276 11.299 80.5142 11.3409 80.6065 11.375C80.6989 11.4077 80.7876 11.4347 80.8729 11.456L81.299 11.5668C81.4382 11.6009 81.581 11.647 81.7273 11.7053C81.8736 11.7635 82.0092 11.8402 82.1342 11.9354C82.2592 12.0305 82.3601 12.1484 82.4368 12.2891C82.5149 12.4297 82.554 12.598 82.554 12.794C82.554 13.0412 82.4901 13.2607 82.3622 13.4524C82.2358 13.6442 82.0518 13.7955 81.8104 13.9062C81.5703 14.017 81.2798 14.0724 80.9389 14.0724C80.6122 14.0724 80.3295 14.0206 80.0909 13.9169C79.8523 13.8132 79.6655 13.6662 79.5305 13.4759C79.3956 13.2841 79.321 13.0568 79.3068 12.794H79.9673C79.9801 12.9517 80.0313 13.0831 80.1207 13.1882C80.2116 13.2919 80.3274 13.3693 80.468 13.4205C80.6101 13.4702 80.7656 13.495 80.9347 13.495C81.1207 13.495 81.2862 13.4659 81.4311 13.4077C81.5774 13.348 81.6925 13.2656 81.7763 13.1605C81.8601 13.054 81.902 12.9297 81.902 12.7876C81.902 12.6584 81.8651 12.5526 81.7912 12.4702C81.7188 12.3878 81.62 12.3196 81.495 12.2656C81.3714 12.2116 81.2315 12.1641 81.0753 12.1229L80.5597 11.9822C80.2102 11.8871 79.9332 11.7472 79.7287 11.5625C79.5256 11.3778 79.424 11.1335 79.424 10.8295C79.424 10.5781 79.4922 10.3587 79.6286 10.1712C79.7649 9.98366 79.9496 9.83807 80.1825 9.73438C80.4155 9.62926 80.6783 9.5767 80.9709 9.5767C81.2663 9.5767 81.527 9.62855 81.7528 9.73224C81.9801 9.83594 82.1591 9.97869 82.2898 10.1605C82.4205 10.3409 82.4886 10.5483 82.4943 10.7827H81.8594ZM85.3627 12.6428V10.7273H86.002V14H85.3755V13.4332H85.3414C85.2662 13.608 85.1454 13.7536 84.9792 13.87C84.8145 13.9851 84.6092 14.0426 84.3635 14.0426C84.1532 14.0426 83.9672 13.9964 83.8052 13.9041C83.6447 13.8104 83.5183 13.6719 83.426 13.4886C83.335 13.3054 83.2896 13.0788 83.2896 12.8089V10.7273H83.9267V12.7322C83.9267 12.9553 83.9885 13.1328 84.112 13.2649C84.2356 13.397 84.3961 13.4631 84.5936 13.4631C84.7129 13.4631 84.8315 13.4332 84.9494 13.3736C85.0687 13.3139 85.1674 13.2237 85.2456 13.103C85.3251 12.9822 85.3642 12.8288 85.3627 12.6428ZM86.9091 14V9.63636H87.5462V11.2578H87.5845C87.6214 11.1896 87.6747 11.1108 87.7443 11.0213C87.8139 10.9318 87.9105 10.8537 88.0341 10.7869C88.1577 10.7188 88.321 10.6847 88.5241 10.6847C88.7884 10.6847 89.0241 10.7514 89.2315 10.8849C89.4389 11.0185 89.6016 11.2109 89.7195 11.4624C89.8388 11.7138 89.8984 12.0163 89.8984 12.37C89.8984 12.7237 89.8395 13.027 89.7216 13.2798C89.6037 13.5312 89.4418 13.7251 89.2358 13.8615C89.0298 13.9964 88.7947 14.0639 88.5305 14.0639C88.3317 14.0639 88.169 14.0305 88.0426 13.9638C87.9176 13.897 87.8196 13.8189 87.7486 13.7294C87.6776 13.6399 87.6229 13.5604 87.5845 13.4908H87.5312V14H86.9091ZM87.5334 12.3636C87.5334 12.5937 87.5668 12.7955 87.6335 12.9688C87.7003 13.142 87.7969 13.2777 87.9233 13.3757C88.0497 13.4723 88.2045 13.5206 88.3878 13.5206C88.5781 13.5206 88.7372 13.4702 88.8651 13.3693C88.9929 13.267 89.0895 13.1286 89.1548 12.9538C89.2216 12.7791 89.255 12.5824 89.255 12.3636C89.255 12.1477 89.2223 11.9538 89.157 11.782C89.093 11.6101 88.9964 11.4744 88.8672 11.375C88.7393 11.2756 88.5795 11.2259 88.3878 11.2259C88.2031 11.2259 88.0469 11.2734 87.919 11.3686C87.7926 11.4638 87.6967 11.5966 87.6314 11.767C87.5661 11.9375 87.5334 12.1364 87.5334 12.3636ZM93.0662 11.5263L92.4888 11.6286C92.4647 11.5547 92.4263 11.4844 92.3738 11.4176C92.3226 11.3509 92.253 11.2962 92.165 11.2536C92.0769 11.2109 91.9668 11.1896 91.8347 11.1896C91.6543 11.1896 91.5037 11.2301 91.383 11.3111C91.2623 11.3906 91.2019 11.4936 91.2019 11.62C91.2019 11.7294 91.2424 11.8175 91.3233 11.8842C91.4043 11.951 91.535 12.0057 91.7154 12.0483L92.2353 12.1676C92.5364 12.2372 92.7608 12.3445 92.9086 12.4893C93.0563 12.6342 93.1301 12.8224 93.1301 13.054C93.1301 13.25 93.0733 13.4247 92.9597 13.5781C92.8475 13.7301 92.6905 13.8494 92.4888 13.9361C92.2885 14.0227 92.0563 14.0661 91.7921 14.0661C91.4256 14.0661 91.1266 13.9879 90.8951 13.8317C90.6635 13.674 90.5215 13.4503 90.4689 13.1605L91.0847 13.0668C91.123 13.2273 91.2019 13.3487 91.3212 13.4311C91.4405 13.5121 91.5961 13.5526 91.7878 13.5526C91.9966 13.5526 92.1635 13.5092 92.2885 13.4226C92.4135 13.3345 92.476 13.2273 92.476 13.1009C92.476 12.9986 92.4377 12.9126 92.361 12.843C92.2857 12.7734 92.1699 12.7209 92.0137 12.6854L91.4597 12.5639C91.1543 12.4943 90.9284 12.3835 90.7821 12.2315C90.6373 12.0795 90.5648 11.8871 90.5648 11.6541C90.5648 11.4609 90.6188 11.2919 90.7267 11.147C90.8347 11.0021 90.9838 10.8892 91.1742 10.8082C91.3645 10.7259 91.5826 10.6847 91.8283 10.6847C92.182 10.6847 92.4604 10.7614 92.6635 10.9148C92.8667 11.0668 93.0009 11.2706 93.0662 11.5263ZM95.2092 14.0661C94.8924 14.0661 94.6197 13.9943 94.391 13.8509C94.1637 13.706 93.989 13.5064 93.8668 13.2521C93.7447 12.9979 93.6836 12.7067 93.6836 12.3786C93.6836 12.0462 93.7461 11.7528 93.8711 11.4986C93.9961 11.2429 94.1722 11.0433 94.3995 10.8999C94.6268 10.7564 94.8945 10.6847 95.2028 10.6847C95.4513 10.6847 95.6729 10.7308 95.8675 10.8232C96.0621 10.9141 96.2191 11.0419 96.3384 11.2067C96.4592 11.3714 96.5309 11.5639 96.5536 11.7841H95.9336C95.8995 11.6307 95.8214 11.4986 95.6992 11.3878C95.5785 11.277 95.4165 11.2216 95.2134 11.2216C95.0359 11.2216 94.8803 11.2685 94.7468 11.3622C94.6147 11.4545 94.5117 11.5866 94.4379 11.7585C94.364 11.929 94.3271 12.1307 94.3271 12.3636C94.3271 12.6023 94.3633 12.8082 94.4357 12.9815C94.5082 13.1548 94.6104 13.2891 94.7425 13.3842C94.8761 13.4794 95.033 13.527 95.2134 13.527C95.3342 13.527 95.4435 13.505 95.5415 13.4609C95.641 13.4155 95.7241 13.3509 95.7908 13.267C95.859 13.1832 95.9066 13.0824 95.9336 12.9645H96.5536C96.5309 13.1761 96.462 13.3651 96.3469 13.5312C96.2319 13.6974 96.0778 13.8281 95.8846 13.9233C95.6928 14.0185 95.4677 14.0661 95.2092 14.0661ZM97.2349 14V10.7273H97.8507V11.2472H97.8848C97.9444 11.071 98.0495 10.9325 98.2001 10.8317C98.3521 10.7294 98.524 10.6783 98.7157 10.6783C98.7555 10.6783 98.8024 10.6797 98.8564 10.6825C98.9118 10.6854 98.9551 10.6889 98.9863 10.6932V11.3026C98.9608 11.2955 98.9153 11.2876 98.85 11.2791C98.7846 11.2692 98.7193 11.2642 98.6539 11.2642C98.5034 11.2642 98.3691 11.2962 98.2512 11.3601C98.1348 11.4226 98.0424 11.5099 97.9743 11.6222C97.9061 11.733 97.872 11.8594 97.872 12.0014V14H97.2349ZM99.5376 14V10.7273H100.175V14H99.5376ZM99.8594 10.2223C99.7486 10.2223 99.6534 10.1854 99.5739 10.1115C99.4957 10.0362 99.4567 9.94673 99.4567 9.84304C99.4567 9.73793 99.4957 9.64844 99.5739 9.57457C99.6534 9.49929 99.7486 9.46165 99.8594 9.46165C99.9702 9.46165 100.065 9.49929 100.143 9.57457C100.222 9.64844 100.262 9.73793 100.262 9.84304C100.262 9.94673 100.222 10.0362 100.143 10.1115C100.065 10.1854 99.9702 10.2223 99.8594 10.2223ZM101.032 15.2273V10.7273H101.654V11.2578H101.707C101.744 11.1896 101.797 11.1108 101.867 11.0213C101.937 10.9318 102.033 10.8537 102.157 10.7869C102.28 10.7188 102.444 10.6847 102.647 10.6847C102.911 10.6847 103.147 10.7514 103.354 10.8849C103.562 11.0185 103.724 11.2109 103.842 11.4624C103.961 11.7138 104.021 12.0163 104.021 12.37C104.021 12.7237 103.962 13.027 103.844 13.2798C103.726 13.5312 103.564 13.7251 103.358 13.8615C103.153 13.9964 102.917 14.0639 102.653 14.0639C102.454 14.0639 102.292 14.0305 102.165 13.9638C102.04 13.897 101.942 13.8189 101.871 13.7294C101.8 13.6399 101.746 13.5604 101.707 13.4908H101.669V15.2273H101.032ZM101.656 12.3636C101.656 12.5937 101.689 12.7955 101.756 12.9688C101.823 13.142 101.92 13.2777 102.046 13.3757C102.172 13.4723 102.327 13.5206 102.51 13.5206C102.701 13.5206 102.86 13.4702 102.988 13.3693C103.116 13.267 103.212 13.1286 103.278 12.9538C103.344 12.7791 103.378 12.5824 103.378 12.3636C103.378 12.1477 103.345 11.9538 103.28 11.782C103.216 11.6101 103.119 11.4744 102.99 11.375C102.862 11.2756 102.702 11.2259 102.51 11.2259C102.326 11.2259 102.17 11.2734 102.042 11.3686C101.915 11.4638 101.819 11.5966 101.754 11.767C101.689 11.9375 101.656 12.1364 101.656 12.3636ZM106.263 10.7273V11.2386H104.475V10.7273H106.263ZM104.954 9.94318H105.591V13.0391C105.591 13.1626 105.61 13.2557 105.647 13.3182C105.684 13.3793 105.731 13.4212 105.79 13.4439C105.849 13.4652 105.914 13.4759 105.983 13.4759C106.035 13.4759 106.079 13.4723 106.118 13.4652C106.156 13.4581 106.186 13.4524 106.207 13.4482L106.322 13.9744C106.285 13.9886 106.233 14.0028 106.165 14.017C106.096 14.0327 106.011 14.0412 105.909 14.0426C105.741 14.0455 105.585 14.0156 105.44 13.9531C105.295 13.8906 105.178 13.794 105.089 13.6634C104.999 13.5327 104.954 13.3686 104.954 13.1712V9.94318ZM106.967 14V10.7273H107.604V14H106.967ZM107.289 10.2223C107.178 10.2223 107.083 10.1854 107.004 10.1115C106.925 10.0362 106.886 9.94673 106.886 9.84304C106.886 9.73793 106.925 9.64844 107.004 9.57457C107.083 9.49929 107.178 9.46165 107.289 9.46165C107.4 9.46165 107.494 9.49929 107.572 9.57457C107.652 9.64844 107.692 9.73793 107.692 9.84304C107.692 9.94673 107.652 10.0362 107.572 10.1115C107.494 10.1854 107.4 10.2223 107.289 10.2223ZM109.84 14.0661C109.533 14.0661 109.265 13.9957 109.037 13.8551C108.808 13.7145 108.631 13.5178 108.504 13.2649C108.378 13.0121 108.314 12.7166 108.314 12.3786C108.314 12.0391 108.378 11.7422 108.504 11.4879C108.631 11.2337 108.808 11.0362 109.037 10.8956C109.265 10.755 109.533 10.6847 109.84 10.6847C110.147 10.6847 110.415 10.755 110.643 10.8956C110.872 11.0362 111.05 11.2337 111.176 11.4879C111.302 11.7422 111.366 12.0391 111.366 12.3786C111.366 12.7166 111.302 13.0121 111.176 13.2649C111.05 13.5178 110.872 13.7145 110.643 13.8551C110.415 13.9957 110.147 14.0661 109.84 14.0661ZM109.842 13.5312C110.041 13.5312 110.206 13.4787 110.336 13.3736C110.467 13.2685 110.564 13.1286 110.626 12.9538C110.69 12.7791 110.722 12.5866 110.722 12.3764C110.722 12.1676 110.69 11.9759 110.626 11.8011C110.564 11.625 110.467 11.4837 110.336 11.3771C110.206 11.2706 110.041 11.2173 109.842 11.2173C109.642 11.2173 109.476 11.2706 109.344 11.3771C109.213 11.4837 109.116 11.625 109.052 11.8011C108.989 11.9759 108.958 12.1676 108.958 12.3764C108.958 12.5866 108.989 12.7791 109.052 12.9538C109.116 13.1286 109.213 13.2685 109.344 13.3736C109.476 13.4787 109.642 13.5312 109.842 13.5312ZM112.714 12.0568V14H112.077V10.7273H112.688V11.2599H112.729C112.804 11.0866 112.922 10.9474 113.082 10.8423C113.244 10.7372 113.448 10.6847 113.694 10.6847C113.917 10.6847 114.112 10.7315 114.28 10.8253C114.447 10.9176 114.577 11.0554 114.67 11.2386C114.762 11.4219 114.808 11.6484 114.808 11.9183V14H114.171V11.995C114.171 11.7578 114.109 11.5724 113.986 11.4389C113.862 11.304 113.692 11.2365 113.477 11.2365C113.329 11.2365 113.197 11.2685 113.082 11.3324C112.969 11.3963 112.879 11.4901 112.812 11.6136C112.746 11.7358 112.714 11.8835 112.714 12.0568ZM118.115 11.5263L117.538 11.6286C117.513 11.5547 117.475 11.4844 117.423 11.4176C117.371 11.3509 117.302 11.2962 117.214 11.2536C117.126 11.2109 117.016 11.1896 116.884 11.1896C116.703 11.1896 116.553 11.2301 116.432 11.3111C116.311 11.3906 116.251 11.4936 116.251 11.62C116.251 11.7294 116.291 11.8175 116.372 11.8842C116.453 11.951 116.584 12.0057 116.764 12.0483L117.284 12.1676C117.585 12.2372 117.81 12.3445 117.957 12.4893C118.105 12.6342 118.179 12.8224 118.179 13.054C118.179 13.25 118.122 13.4247 118.009 13.5781C117.896 13.7301 117.739 13.8494 117.538 13.9361C117.337 14.0227 117.105 14.0661 116.841 14.0661C116.474 14.0661 116.175 13.9879 115.944 13.8317C115.712 13.674 115.57 13.4503 115.518 13.1605L116.134 13.0668C116.172 13.2273 116.251 13.3487 116.37 13.4311C116.489 13.5121 116.645 13.5526 116.837 13.5526C117.045 13.5526 117.212 13.5092 117.337 13.4226C117.462 13.3345 117.525 13.2273 117.525 13.1009C117.525 12.9986 117.487 12.9126 117.41 12.843C117.335 12.7734 117.219 12.7209 117.062 12.6854L116.509 12.5639C116.203 12.4943 115.977 12.3835 115.831 12.2315C115.686 12.0795 115.614 11.8871 115.614 11.6541C115.614 11.4609 115.668 11.2919 115.776 11.147C115.884 11.0021 116.033 10.8892 116.223 10.8082C116.413 10.7259 116.631 10.6847 116.877 10.6847C117.231 10.6847 117.509 10.7614 117.712 10.9148C117.915 11.0668 118.05 11.2706 118.115 11.5263Z" fill="#6F6F6F"/>
<path d="M8.4794 36V31.6364H11.2152V32.2031H9.13778V33.5327H11.0724V34.0973H9.13778V35.4332H11.2408V36H8.4794ZM12.6806 34.0568V36H12.0435V32.7273H12.655V33.2599H12.6955C12.7708 33.0866 12.8887 32.9474 13.0492 32.8423C13.2111 32.7372 13.415 32.6847 13.6607 32.6847C13.8837 32.6847 14.079 32.7315 14.2466 32.8253C14.4142 32.9176 14.5442 33.0554 14.6365 33.2386C14.7289 33.4219 14.775 33.6484 14.775 33.9183V36H14.138V33.995C14.138 33.7578 14.0762 33.5724 13.9526 33.4389C13.829 33.304 13.6593 33.2365 13.4434 33.2365C13.2956 33.2365 13.1642 33.2685 13.0492 33.3324C12.9355 33.3963 12.8453 33.4901 12.7786 33.6136C12.7132 33.7358 12.6806 33.8835 12.6806 34.0568ZM17.1571 32.7273V33.2386H15.3695V32.7273H17.1571ZM15.8489 31.9432H16.486V35.0391C16.486 35.1626 16.5044 35.2557 16.5414 35.3182C16.5783 35.3793 16.6259 35.4212 16.6841 35.4439C16.7438 35.4652 16.8084 35.4759 16.878 35.4759C16.9292 35.4759 16.9739 35.4723 17.0123 35.4652C17.0506 35.4581 17.0804 35.4524 17.1017 35.4482L17.2168 35.9744C17.1799 35.9886 17.1273 36.0028 17.0591 36.017C16.9909 36.0327 16.9057 36.0412 16.8034 36.0426C16.6358 36.0455 16.4796 36.0156 16.3347 35.9531C16.1898 35.8906 16.0726 35.794 15.9831 35.6634C15.8936 35.5327 15.8489 35.3686 15.8489 35.1712V31.9432ZM19.2372 36.0661C18.9148 36.0661 18.6371 35.9972 18.4041 35.8594C18.1726 35.7202 17.9936 35.5249 17.8672 35.2734C17.7422 35.0206 17.6797 34.7244 17.6797 34.3849C17.6797 34.0497 17.7422 33.7543 17.8672 33.4986C17.9936 33.2429 18.1697 33.0433 18.3956 32.8999C18.6229 32.7564 18.8885 32.6847 19.1925 32.6847C19.3771 32.6847 19.5561 32.7152 19.7294 32.7763C19.9027 32.8374 20.0582 32.9332 20.196 33.0639C20.3338 33.1946 20.4425 33.3643 20.522 33.5732C20.6016 33.7805 20.6413 34.0327 20.6413 34.3295V34.5554H18.0398V34.0781H20.017C20.017 33.9105 19.983 33.7621 19.9148 33.6328C19.8466 33.5021 19.7507 33.3991 19.6271 33.3239C19.505 33.2486 19.3615 33.2109 19.1967 33.2109C19.0178 33.2109 18.8615 33.255 18.728 33.343C18.5959 33.4297 18.4936 33.5433 18.4212 33.6839C18.3501 33.8232 18.3146 33.9744 18.3146 34.1378V34.5107C18.3146 34.7294 18.353 34.9155 18.4297 35.0689C18.5078 35.2223 18.6165 35.3395 18.7557 35.4205C18.8949 35.5 19.0575 35.5398 19.2436 35.5398C19.3643 35.5398 19.4744 35.5227 19.5739 35.4886C19.6733 35.4531 19.7592 35.4006 19.8317 35.331C19.9041 35.2614 19.9595 35.1754 19.9979 35.0732L20.6009 35.1818C20.5526 35.3594 20.4659 35.5149 20.3409 35.6484C20.2173 35.7805 20.0618 35.8835 19.8743 35.9574C19.6882 36.0298 19.4759 36.0661 19.2372 36.0661ZM21.3482 36V32.7273H21.964V33.2472H21.998C22.0577 33.071 22.1628 32.9325 22.3134 32.8317C22.4654 32.7294 22.6373 32.6783 22.829 32.6783C22.8688 32.6783 22.9157 32.6797 22.9696 32.6825C23.025 32.6854 23.0684 32.6889 23.0996 32.6932V33.3026C23.074 33.2955 23.0286 33.2876 22.9632 33.2791C22.8979 33.2692 22.8326 33.2642 22.7672 33.2642C22.6167 33.2642 22.4824 33.2962 22.3645 33.3601C22.248 33.4226 22.1557 33.5099 22.0875 33.6222C22.0194 33.733 21.9853 33.8594 21.9853 34.0014V36H21.3482ZM25.372 32.7273V33.2386H23.5843V32.7273H25.372ZM24.0637 31.9432H24.7008V35.0391C24.7008 35.1626 24.7193 35.2557 24.7562 35.3182C24.7931 35.3793 24.8407 35.4212 24.899 35.4439C24.9586 35.4652 25.0233 35.4759 25.0929 35.4759C25.144 35.4759 25.1887 35.4723 25.2271 35.4652C25.2654 35.4581 25.2953 35.4524 25.3166 35.4482L25.4316 35.9744C25.3947 35.9886 25.3422 36.0028 25.274 36.017C25.2058 36.0327 25.1206 36.0412 25.0183 36.0426C24.8507 36.0455 24.6944 36.0156 24.5495 35.9531C24.4047 35.8906 24.2875 35.794 24.198 35.6634C24.1085 35.5327 24.0637 35.3686 24.0637 35.1712V31.9432ZM27.0291 36.0724C26.8217 36.0724 26.6342 36.0341 26.4666 35.9574C26.299 35.8793 26.1662 35.7663 26.0682 35.6186C25.9716 35.4709 25.9233 35.2898 25.9233 35.0753C25.9233 34.8906 25.9588 34.7386 26.0298 34.6193C26.1009 34.5 26.1967 34.4055 26.3175 34.3359C26.4382 34.2663 26.5732 34.2138 26.7223 34.1783C26.8714 34.1428 27.0234 34.1158 27.1783 34.0973C27.3743 34.0746 27.5334 34.0561 27.6555 34.0419C27.7777 34.0263 27.8665 34.0014 27.9219 33.9673C27.9773 33.9332 28.005 33.8778 28.005 33.8011V33.7862C28.005 33.6001 27.9524 33.456 27.8473 33.3537C27.7436 33.2514 27.5888 33.2003 27.3828 33.2003C27.1683 33.2003 26.9993 33.2479 26.8757 33.343C26.7536 33.4368 26.669 33.5412 26.6222 33.6562L26.0234 33.5199C26.0945 33.321 26.1982 33.1605 26.3345 33.0384C26.4723 32.9148 26.6307 32.8253 26.8097 32.7699C26.9886 32.7131 27.1768 32.6847 27.3743 32.6847C27.505 32.6847 27.6435 32.7003 27.7898 32.7315C27.9375 32.7614 28.0753 32.8168 28.2031 32.8977C28.3324 32.9787 28.4382 33.0945 28.5206 33.245C28.603 33.3942 28.6442 33.5881 28.6442 33.8267V36H28.022V35.5526H27.9964C27.9553 35.6349 27.8935 35.7159 27.8111 35.7955C27.7287 35.875 27.6229 35.9411 27.4936 35.9936C27.3643 36.0462 27.2095 36.0724 27.0291 36.0724ZM27.1676 35.5611C27.3438 35.5611 27.4943 35.5263 27.6193 35.4567C27.7457 35.3871 27.8416 35.2962 27.907 35.1839C27.9737 35.0703 28.0071 34.9489 28.0071 34.8196V34.3977C27.9844 34.4205 27.9403 34.4418 27.875 34.4616C27.8111 34.4801 27.7379 34.4964 27.6555 34.5107C27.5732 34.5234 27.4929 34.5355 27.4148 34.5469C27.3366 34.5568 27.2713 34.5653 27.2188 34.5724C27.0952 34.5881 26.9822 34.6143 26.88 34.6513C26.7791 34.6882 26.6982 34.7415 26.6371 34.8111C26.5774 34.8793 26.5476 34.9702 26.5476 35.0838C26.5476 35.2415 26.6058 35.3608 26.7223 35.4418C26.8388 35.5213 26.9872 35.5611 27.1676 35.5611ZM29.4927 36V32.7273H30.1298V36H29.4927ZM29.8145 32.2223C29.7037 32.2223 29.6085 32.1854 29.5289 32.1115C29.4508 32.0362 29.4118 31.9467 29.4118 31.843C29.4118 31.7379 29.4508 31.6484 29.5289 31.5746C29.6085 31.4993 29.7037 31.4616 29.8145 31.4616C29.9252 31.4616 30.0197 31.4993 30.0978 31.5746C30.1774 31.6484 30.2172 31.7379 30.2172 31.843C30.2172 31.9467 30.1774 32.0362 30.0978 32.1115C30.0197 32.1854 29.9252 32.2223 29.8145 32.2223ZM31.6239 34.0568V36H30.9869V32.7273H31.5984V33.2599H31.6388C31.7141 33.0866 31.832 32.9474 31.9925 32.8423C32.1545 32.7372 32.3583 32.6847 32.604 32.6847C32.8271 32.6847 33.0224 32.7315 33.19 32.8253C33.3576 32.9176 33.4876 33.0554 33.5799 33.2386C33.6722 33.4219 33.7184 33.6484 33.7184 33.9183V36H33.0813V33.995C33.0813 33.7578 33.0195 33.5724 32.896 33.4389C32.7724 33.304 32.6026 33.2365 32.3867 33.2365C32.239 33.2365 32.1076 33.2685 31.9925 33.3324C31.8789 33.3963 31.7887 33.4901 31.7219 33.6136C31.6566 33.7358 31.6239 33.8835 31.6239 34.0568ZM34.5728 36V32.7273H35.1843V33.2599H35.2248C35.293 33.0795 35.4045 32.9389 35.5593 32.8381C35.7141 32.7358 35.8995 32.6847 36.1154 32.6847C36.3342 32.6847 36.5174 32.7358 36.6651 32.8381C36.8143 32.9403 36.9244 33.081 36.9954 33.2599H37.0295C37.1076 33.0852 37.2319 32.946 37.4023 32.8423C37.5728 32.7372 37.7759 32.6847 38.0117 32.6847C38.3086 32.6847 38.5508 32.7777 38.7383 32.9638C38.9272 33.1499 39.0217 33.4304 39.0217 33.8054V36H38.3846V33.8651C38.3846 33.6435 38.3242 33.483 38.2035 33.3835C38.0827 33.2841 37.9386 33.2344 37.771 33.2344C37.5636 33.2344 37.4023 33.2983 37.2873 33.4261C37.1722 33.5526 37.1147 33.7152 37.1147 33.9141V36H36.4798V33.8246C36.4798 33.647 36.4244 33.5043 36.3136 33.3963C36.2028 33.2884 36.0586 33.2344 35.881 33.2344C35.7603 33.2344 35.6488 33.2663 35.5465 33.3303C35.4457 33.3928 35.364 33.4801 35.3015 33.5923C35.2404 33.7045 35.2099 33.8345 35.2099 33.9822V36H34.5728ZM41.286 36.0661C40.9636 36.0661 40.6859 35.9972 40.4529 35.8594C40.2214 35.7202 40.0424 35.5249 39.916 35.2734C39.791 35.0206 39.7285 34.7244 39.7285 34.3849C39.7285 34.0497 39.791 33.7543 39.916 33.4986C40.0424 33.2429 40.2186 33.0433 40.4444 32.8999C40.6717 32.7564 40.9373 32.6847 41.2413 32.6847C41.426 32.6847 41.6049 32.7152 41.7782 32.7763C41.9515 32.8374 42.1071 32.9332 42.2449 33.0639C42.3826 33.1946 42.4913 33.3643 42.5708 33.5732C42.6504 33.7805 42.6902 34.0327 42.6902 34.3295V34.5554H40.0886V34.0781H42.0659C42.0659 33.9105 42.0318 33.7621 41.9636 33.6328C41.8954 33.5021 41.7995 33.3991 41.676 33.3239C41.5538 33.2486 41.4103 33.2109 41.2456 33.2109C41.0666 33.2109 40.9103 33.255 40.7768 33.343C40.6447 33.4297 40.5424 33.5433 40.47 33.6839C40.399 33.8232 40.3635 33.9744 40.3635 34.1378V34.5107C40.3635 34.7294 40.4018 34.9155 40.4785 35.0689C40.5566 35.2223 40.6653 35.3395 40.8045 35.4205C40.9437 35.5 41.1064 35.5398 41.2924 35.5398C41.4132 35.5398 41.5233 35.5227 41.6227 35.4886C41.7221 35.4531 41.8081 35.4006 41.8805 35.331C41.9529 35.2614 42.0083 35.1754 42.0467 35.0732L42.6497 35.1818C42.6014 35.3594 42.5147 35.5149 42.3897 35.6484C42.2662 35.7805 42.1106 35.8835 41.9231 35.9574C41.737 36.0298 41.5247 36.0661 41.286 36.0661ZM44.0341 34.0568V36H43.397V32.7273H44.0085V33.2599H44.049C44.1243 33.0866 44.2422 32.9474 44.4027 32.8423C44.5646 32.7372 44.7685 32.6847 45.0142 32.6847C45.2372 32.6847 45.4325 32.7315 45.6001 32.8253C45.7678 32.9176 45.8977 33.0554 45.9901 33.2386C46.0824 33.4219 46.1286 33.6484 46.1286 33.9183V36H45.4915V33.995C45.4915 33.7578 45.4297 33.5724 45.3061 33.4389C45.1825 33.304 45.0128 33.2365 44.7969 33.2365C44.6491 33.2365 44.5178 33.2685 44.4027 33.3324C44.2891 33.3963 44.1989 33.4901 44.1321 33.6136C44.0668 33.7358 44.0341 33.8835 44.0341 34.0568ZM48.5107 32.7273V33.2386H46.723V32.7273H48.5107ZM47.2024 31.9432H47.8395V35.0391C47.8395 35.1626 47.858 35.2557 47.8949 35.3182C47.9318 35.3793 47.9794 35.4212 48.0376 35.4439C48.0973 35.4652 48.1619 35.4759 48.2315 35.4759C48.2827 35.4759 48.3274 35.4723 48.3658 35.4652C48.4041 35.4581 48.4339 35.4524 48.4553 35.4482L48.5703 35.9744C48.5334 35.9886 48.4808 36.0028 48.4126 36.017C48.3445 36.0327 48.2592 36.0412 48.157 36.0426C47.9893 36.0455 47.8331 36.0156 47.6882 35.9531C47.5433 35.8906 47.4261 35.794 47.3366 35.6634C47.2472 35.5327 47.2024 35.3686 47.2024 35.1712V31.9432Z" fill="#6F6F6F"/>
<path d="M8.4794 25V20.6364H9.13778V22.5327H11.3132V20.6364H11.9737V25H11.3132V23.0973H9.13778V25H8.4794ZM14.2599 25.0661C13.9531 25.0661 13.6854 24.9957 13.4567 24.8551C13.228 24.7145 13.0504 24.5178 12.924 24.2649C12.7976 24.0121 12.7344 23.7166 12.7344 23.3786C12.7344 23.0391 12.7976 22.7422 12.924 22.4879C13.0504 22.2337 13.228 22.0362 13.4567 21.8956C13.6854 21.755 13.9531 21.6847 14.2599 21.6847C14.5668 21.6847 14.8345 21.755 15.0632 21.8956C15.2919 22.0362 15.4695 22.2337 15.5959 22.4879C15.7223 22.7422 15.7855 23.0391 15.7855 23.3786C15.7855 23.7166 15.7223 24.0121 15.5959 24.2649C15.4695 24.5178 15.2919 24.7145 15.0632 24.8551C14.8345 24.9957 14.5668 25.0661 14.2599 25.0661ZM14.2621 24.5312C14.4609 24.5312 14.6257 24.4787 14.7564 24.3736C14.8871 24.2685 14.9837 24.1286 15.0462 23.9538C15.1101 23.7791 15.142 23.5866 15.142 23.3764C15.142 23.1676 15.1101 22.9759 15.0462 22.8011C14.9837 22.625 14.8871 22.4837 14.7564 22.3771C14.6257 22.2706 14.4609 22.2173 14.2621 22.2173C14.0618 22.2173 13.8956 22.2706 13.7635 22.3771C13.6328 22.4837 13.5355 22.625 13.4716 22.8011C13.4091 22.9759 13.3778 23.1676 13.3778 23.3764C13.3778 23.5866 13.4091 23.7791 13.4716 23.9538C13.5355 24.1286 13.6328 24.2685 13.7635 24.3736C13.8956 24.4787 14.0618 24.5312 14.2621 24.5312ZM18.0243 21.7273V22.2386H16.2367V21.7273H18.0243ZM16.7161 20.9432H17.3532V24.0391C17.3532 24.1626 17.3716 24.2557 17.4086 24.3182C17.4455 24.3793 17.4931 24.4212 17.5513 24.4439C17.611 24.4652 17.6756 24.4759 17.7452 24.4759C17.7963 24.4759 17.8411 24.4723 17.8794 24.4652C17.9178 24.4581 17.9476 24.4524 17.9689 24.4482L18.084 24.9744C18.0471 24.9886 17.9945 25.0028 17.9263 25.017C17.8581 25.0327 17.7729 25.0412 17.6706 25.0426C17.503 25.0455 17.3468 25.0156 17.2019 24.9531C17.057 24.8906 16.9398 24.794 16.8503 24.6634C16.7608 24.5327 16.7161 24.3686 16.7161 24.1712V20.9432ZM20.1044 25.0661C19.782 25.0661 19.5043 24.9972 19.2713 24.8594C19.0398 24.7202 18.8608 24.5249 18.7344 24.2734C18.6094 24.0206 18.5469 23.7244 18.5469 23.3849C18.5469 23.0497 18.6094 22.7543 18.7344 22.4986C18.8608 22.2429 19.0369 22.0433 19.2628 21.8999C19.4901 21.7564 19.7557 21.6847 20.0597 21.6847C20.2443 21.6847 20.4233 21.7152 20.5966 21.7763C20.7699 21.8374 20.9254 21.9332 21.0632 22.0639C21.201 22.1946 21.3097 22.3643 21.3892 22.5732C21.4688 22.7805 21.5085 23.0327 21.5085 23.3295V23.5554H18.907V23.0781H20.8842C20.8842 22.9105 20.8501 22.7621 20.782 22.6328C20.7138 22.5021 20.6179 22.3991 20.4943 22.3239C20.3722 22.2486 20.2287 22.2109 20.0639 22.2109C19.8849 22.2109 19.7287 22.255 19.5952 22.343C19.4631 22.4297 19.3608 22.5433 19.2884 22.6839C19.2173 22.8232 19.1818 22.9744 19.1818 23.1378V23.5107C19.1818 23.7294 19.2202 23.9155 19.2969 24.0689C19.375 24.2223 19.4837 24.3395 19.6229 24.4205C19.7621 24.5 19.9247 24.5398 20.1108 24.5398C20.2315 24.5398 20.3416 24.5227 20.4411 24.4886C20.5405 24.4531 20.6264 24.4006 20.6989 24.331C20.7713 24.2614 20.8267 24.1754 20.8651 24.0732L21.468 24.1818C21.4197 24.3594 21.3331 24.5149 21.2081 24.6484C21.0845 24.7805 20.929 24.8835 20.7415 24.9574C20.5554 25.0298 20.343 25.0661 20.1044 25.0661ZM22.8525 20.6364V25H22.2154V20.6364H22.8525ZM26.1619 22.5263L25.5845 22.6286C25.5604 22.5547 25.522 22.4844 25.4695 22.4176C25.4183 22.3509 25.3487 22.2962 25.2607 22.2536C25.1726 22.2109 25.0625 22.1896 24.9304 22.1896C24.75 22.1896 24.5994 22.2301 24.4787 22.3111C24.358 22.3906 24.2976 22.4936 24.2976 22.62C24.2976 22.7294 24.3381 22.8175 24.419 22.8842C24.5 22.951 24.6307 23.0057 24.8111 23.0483L25.331 23.1676C25.6321 23.2372 25.8565 23.3445 26.0043 23.4893C26.152 23.6342 26.2259 23.8224 26.2259 24.054C26.2259 24.25 26.169 24.4247 26.0554 24.5781C25.9432 24.7301 25.7862 24.8494 25.5845 24.9361C25.3842 25.0227 25.152 25.0661 24.8878 25.0661C24.5213 25.0661 24.2223 24.9879 23.9908 24.8317C23.7592 24.674 23.6172 24.4503 23.5646 24.1605L24.1804 24.0668C24.2188 24.2273 24.2976 24.3487 24.4169 24.4311C24.5362 24.5121 24.6918 24.5526 24.8835 24.5526C25.0923 24.5526 25.2592 24.5092 25.3842 24.4226C25.5092 24.3345 25.5717 24.2273 25.5717 24.1009C25.5717 23.9986 25.5334 23.9126 25.4567 23.843C25.3814 23.7734 25.2656 23.7209 25.1094 23.6854L24.5554 23.5639C24.25 23.4943 24.0241 23.3835 23.8778 23.2315C23.733 23.0795 23.6605 22.8871 23.6605 22.6541C23.6605 22.4609 23.7145 22.2919 23.8224 22.147C23.9304 22.0021 24.0795 21.8892 24.2699 21.8082C24.4602 21.7259 24.6783 21.6847 24.924 21.6847C25.2777 21.6847 25.5561 21.7614 25.7592 21.9148C25.9624 22.0668 26.0966 22.2706 26.1619 22.5263Z" fill="#6F6F6F"/>
<path d="M8.2642 10.2031V9.63636H11.6413V10.2031H10.2798V14H9.62358V10.2031H8.2642ZM11.9966 14V10.7273H12.6124V11.2472H12.6465C12.7061 11.071 12.8113 10.9325 12.9618 10.8317C13.1138 10.7294 13.2857 10.6783 13.4775 10.6783C13.5172 10.6783 13.5641 10.6797 13.6181 10.6825C13.6735 10.6854 13.7168 10.6889 13.748 10.6932V11.3026C13.7225 11.2955 13.677 11.2876 13.6117 11.2791C13.5463 11.2692 13.481 11.2642 13.4157 11.2642C13.2651 11.2642 13.1309 11.2962 13.013 11.3601C12.8965 11.4226 12.8042 11.5099 12.736 11.6222C12.6678 11.733 12.6337 11.8594 12.6337 12.0014V14H11.9966ZM15.2225 14.0724C15.0151 14.0724 14.8276 14.0341 14.66 13.9574C14.4924 13.8793 14.3596 13.7663 14.2615 13.6186C14.165 13.4709 14.1167 13.2898 14.1167 13.0753C14.1167 12.8906 14.1522 12.7386 14.2232 12.6193C14.2942 12.5 14.3901 12.4055 14.5108 12.3359C14.6316 12.2663 14.7665 12.2138 14.9157 12.1783C15.0648 12.1428 15.2168 12.1158 15.3716 12.0973C15.5676 12.0746 15.7267 12.0561 15.8489 12.0419C15.9711 12.0263 16.0598 12.0014 16.1152 11.9673C16.1706 11.9332 16.1983 11.8778 16.1983 11.8011V11.7862C16.1983 11.6001 16.1458 11.456 16.0407 11.3537C15.937 11.2514 15.7821 11.2003 15.5762 11.2003C15.3617 11.2003 15.1926 11.2479 15.0691 11.343C14.9469 11.4368 14.8624 11.5412 14.8155 11.6562L14.2168 11.5199C14.2878 11.321 14.3915 11.1605 14.5279 11.0384C14.6657 10.9148 14.824 10.8253 15.003 10.7699C15.182 10.7131 15.3702 10.6847 15.5676 10.6847C15.6983 10.6847 15.8368 10.7003 15.9831 10.7315C16.1309 10.7614 16.2686 10.8168 16.3965 10.8977C16.5257 10.9787 16.6316 11.0945 16.714 11.245C16.7963 11.3942 16.8375 11.5881 16.8375 11.8267V14H16.2154V13.5526H16.1898C16.1486 13.6349 16.0868 13.7159 16.0044 13.7955C15.9221 13.875 15.8162 13.9411 15.687 13.9936C15.5577 14.0462 15.4029 14.0724 15.2225 14.0724ZM15.361 13.5611C15.5371 13.5611 15.6877 13.5263 15.8127 13.4567C15.9391 13.3871 16.035 13.2962 16.1003 13.1839C16.1671 13.0703 16.2005 12.9489 16.2005 12.8196V12.3977C16.1777 12.4205 16.1337 12.4418 16.0684 12.4616C16.0044 12.4801 15.9313 12.4964 15.8489 12.5107C15.7665 12.5234 15.6863 12.5355 15.6081 12.5469C15.53 12.5568 15.4647 12.5653 15.4121 12.5724C15.2885 12.5881 15.1756 12.6143 15.0733 12.6513C14.9725 12.6882 14.8915 12.7415 14.8304 12.8111C14.7708 12.8793 14.7409 12.9702 14.7409 13.0838C14.7409 13.2415 14.7992 13.3608 14.9157 13.4418C15.0321 13.5213 15.1806 13.5611 15.361 13.5611ZM20.3686 10.7273L19.1818 14H18.5L17.3111 10.7273H17.995L18.8239 13.2457H18.858L19.6847 10.7273H20.3686ZM22.2665 14.0661C21.9441 14.0661 21.6664 13.9972 21.4334 13.8594C21.2019 13.7202 21.0229 13.5249 20.8965 13.2734C20.7715 13.0206 20.709 12.7244 20.709 12.3849C20.709 12.0497 20.7715 11.7543 20.8965 11.4986C21.0229 11.2429 21.199 11.0433 21.4249 10.8999C21.6522 10.7564 21.9178 10.6847 22.2218 10.6847C22.4064 10.6847 22.5854 10.7152 22.7587 10.7763C22.932 10.8374 23.0875 10.9332 23.2253 11.0639C23.3631 11.1946 23.4718 11.3643 23.5513 11.5732C23.6309 11.7805 23.6706 12.0327 23.6706 12.3295V12.5554H21.0691V12.0781H23.0463C23.0463 11.9105 23.0123 11.7621 22.9441 11.6328C22.8759 11.5021 22.78 11.3991 22.6564 11.3239C22.5343 11.2486 22.3908 11.2109 22.226 11.2109C22.0471 11.2109 21.8908 11.255 21.7573 11.343C21.6252 11.4297 21.5229 11.5433 21.4505 11.6839C21.3794 11.8232 21.3439 11.9744 21.3439 12.1378V12.5107C21.3439 12.7294 21.3823 12.9155 21.459 13.0689C21.5371 13.2223 21.6458 13.3395 21.785 13.4205C21.9242 13.5 22.0868 13.5398 22.2729 13.5398C22.3936 13.5398 22.5037 13.5227 22.6032 13.4886C22.7026 13.4531 22.7885 13.4006 22.861 13.331C22.9334 13.2614 22.9888 13.1754 23.0272 13.0732L23.6301 13.1818C23.5819 13.3594 23.4952 13.5149 23.3702 13.6484C23.2466 13.7805 23.0911 13.8835 22.9036 13.9574C22.7175 14.0298 22.5051 14.0661 22.2665 14.0661ZM25.0146 9.63636V14H24.3775V9.63636H25.0146Z" fill="#6F6F6F"/>
<path d="M130.398 20.6364V25H129.737V21.2969H129.711L128.667 21.9787V21.348L129.756 20.6364H130.398ZM133.097 25.0724C132.76 25.071 132.473 24.9822 132.234 24.8061C131.996 24.63 131.813 24.3736 131.687 24.0369C131.56 23.7003 131.497 23.2947 131.497 22.8203C131.497 22.3473 131.56 21.9432 131.687 21.608C131.814 21.2727 131.998 21.017 132.236 20.8409C132.476 20.6648 132.763 20.5767 133.097 20.5767C133.431 20.5767 133.717 20.6655 133.956 20.843C134.194 21.0192 134.377 21.2749 134.503 21.6101C134.631 21.9439 134.695 22.3473 134.695 22.8203C134.695 23.2962 134.632 23.7024 134.506 24.0391C134.379 24.3743 134.197 24.6307 133.958 24.8082C133.719 24.9844 133.432 25.0724 133.097 25.0724ZM133.097 24.5036C133.393 24.5036 133.623 24.3594 133.79 24.071C133.957 23.7827 134.041 23.3658 134.041 22.8203C134.041 22.4581 134.003 22.152 133.926 21.902C133.851 21.6506 133.742 21.4602 133.6 21.331C133.459 21.2003 133.292 21.1349 133.097 21.1349C132.803 21.1349 132.572 21.2798 132.405 21.5696C132.237 21.8594 132.153 22.2763 132.151 22.8203C132.151 23.1839 132.189 23.4915 132.264 23.7429C132.341 23.9929 132.449 24.1825 132.59 24.3118C132.731 24.4396 132.9 24.5036 133.097 24.5036ZM137.729 24.1818V23.9517C137.729 23.7869 137.763 23.6364 137.831 23.5C137.901 23.3622 138.001 23.2521 138.134 23.1697C138.267 23.0859 138.428 23.044 138.617 23.044C138.81 23.044 138.972 23.0852 139.103 23.1676C139.234 23.25 139.332 23.3601 139.399 23.4979C139.467 23.6357 139.501 23.7869 139.501 23.9517V24.1818C139.501 24.3466 139.467 24.4979 139.399 24.6357C139.331 24.772 139.231 24.8821 139.099 24.9659C138.968 25.0483 138.808 25.0895 138.617 25.0895C138.425 25.0895 138.263 25.0483 138.131 24.9659C137.999 24.8821 137.899 24.772 137.831 24.6357C137.763 24.4979 137.729 24.3466 137.729 24.1818ZM138.225 23.9517V24.1818C138.225 24.304 138.254 24.4148 138.312 24.5142C138.371 24.6136 138.472 24.6634 138.617 24.6634C138.761 24.6634 138.861 24.6136 138.918 24.5142C138.974 24.4148 139.003 24.304 139.003 24.1818V23.9517C139.003 23.8295 138.975 23.7187 138.92 23.6193C138.866 23.5199 138.765 23.4702 138.617 23.4702C138.475 23.4702 138.374 23.5199 138.315 23.6193C138.255 23.7187 138.225 23.8295 138.225 23.9517ZM135.534 21.6847V21.4545C135.534 21.2898 135.568 21.1385 135.636 21.0007C135.706 20.8629 135.807 20.7528 135.939 20.6705C136.072 20.5881 136.234 20.5469 136.423 20.5469C136.616 20.5469 136.778 20.5881 136.908 20.6705C137.039 20.7528 137.138 20.8629 137.205 21.0007C137.271 21.1385 137.305 21.2898 137.305 21.4545V21.6847C137.305 21.8494 137.271 22.0007 137.202 22.1385C137.136 22.2749 137.036 22.3849 136.904 22.4688C136.773 22.5511 136.613 22.5923 136.423 22.5923C136.229 22.5923 136.067 22.5511 135.935 22.4688C135.804 22.3849 135.705 22.2749 135.636 22.1385C135.568 22.0007 135.534 21.8494 135.534 21.6847ZM136.033 21.4545V21.6847C136.033 21.8068 136.061 21.9176 136.118 22.017C136.176 22.1165 136.278 22.1662 136.423 22.1662C136.565 22.1662 136.664 22.1165 136.721 22.017C136.779 21.9176 136.808 21.8068 136.808 21.6847V21.4545C136.808 21.3324 136.781 21.2216 136.725 21.1222C136.67 21.0227 136.569 20.973 136.423 20.973C136.281 20.973 136.18 21.0227 136.12 21.1222C136.062 21.2216 136.033 21.3324 136.033 21.4545ZM135.737 25L138.737 20.6364H139.246L136.246 25H135.737Z" fill="black"/>
<path d="M128.051 14V13.5227L129.527 11.9929C129.685 11.8267 129.815 11.6811 129.917 11.5561C130.021 11.4297 130.098 11.3097 130.149 11.196C130.2 11.0824 130.226 10.9616 130.226 10.8338C130.226 10.6889 130.192 10.5639 130.124 10.4588C130.056 10.3523 129.963 10.2706 129.845 10.2138C129.727 10.1555 129.594 10.1264 129.446 10.1264C129.29 10.1264 129.154 10.1584 129.037 10.2223C128.921 10.2862 128.831 10.3764 128.769 10.4929C128.706 10.6094 128.675 10.7457 128.675 10.902H128.046C128.046 10.6364 128.107 10.4041 128.23 10.2053C128.352 10.0064 128.519 9.85227 128.732 9.7429C128.945 9.6321 129.188 9.5767 129.459 9.5767C129.733 9.5767 129.975 9.63139 130.183 9.74077C130.394 9.84872 130.558 9.99645 130.676 10.1839C130.794 10.37 130.852 10.5803 130.852 10.8146C130.852 10.9766 130.822 11.1349 130.761 11.2898C130.701 11.4446 130.597 11.6172 130.448 11.8075C130.298 11.9964 130.091 12.2259 129.825 12.4957L128.958 13.4034V13.4354H130.923V14H128.051ZM133.171 14.0597C132.904 14.0597 132.664 14.0085 132.45 13.9062C132.239 13.8026 132.07 13.6605 131.943 13.4801C131.817 13.2997 131.749 13.0938 131.741 12.8622H132.38C132.396 13.0497 132.479 13.2038 132.629 13.3246C132.78 13.4453 132.96 13.5057 133.171 13.5057C133.338 13.5057 133.487 13.4673 133.616 13.3906C133.747 13.3125 133.849 13.2053 133.923 13.0689C133.998 12.9325 134.036 12.777 134.036 12.6023C134.036 12.4247 133.997 12.2663 133.921 12.1271C133.844 11.9879 133.738 11.8786 133.603 11.799C133.47 11.7195 133.316 11.679 133.143 11.6776C133.011 11.6776 132.878 11.7003 132.744 11.7457C132.611 11.7912 132.503 11.8509 132.421 11.9247L131.818 11.8352L132.063 9.63636H134.462V10.201H132.61L132.472 11.4219H132.497C132.583 11.3395 132.695 11.2706 132.836 11.2152C132.978 11.1598 133.13 11.1321 133.292 11.1321C133.558 11.1321 133.794 11.1953 134.002 11.3217C134.21 11.4482 134.374 11.6207 134.494 11.8395C134.615 12.0568 134.674 12.3068 134.673 12.5895C134.674 12.8722 134.61 13.1243 134.481 13.3459C134.353 13.5675 134.176 13.7422 133.948 13.87C133.722 13.9964 133.463 14.0597 133.171 14.0597ZM137.729 13.1818V12.9517C137.729 12.7869 137.763 12.6364 137.831 12.5C137.901 12.3622 138.001 12.2521 138.134 12.1697C138.267 12.0859 138.428 12.044 138.617 12.044C138.81 12.044 138.972 12.0852 139.103 12.1676C139.234 12.25 139.332 12.3601 139.399 12.4979C139.467 12.6357 139.501 12.7869 139.501 12.9517V13.1818C139.501 13.3466 139.467 13.4979 139.399 13.6357C139.331 13.772 139.231 13.8821 139.099 13.9659C138.968 14.0483 138.808 14.0895 138.617 14.0895C138.425 14.0895 138.263 14.0483 138.131 13.9659C137.999 13.8821 137.899 13.772 137.831 13.6357C137.763 13.4979 137.729 13.3466 137.729 13.1818ZM138.225 12.9517V13.1818C138.225 13.304 138.254 13.4148 138.312 13.5142C138.371 13.6136 138.472 13.6634 138.617 13.6634C138.761 13.6634 138.861 13.6136 138.918 13.5142C138.974 13.4148 139.003 13.304 139.003 13.1818V12.9517C139.003 12.8295 138.975 12.7187 138.92 12.6193C138.866 12.5199 138.765 12.4702 138.617 12.4702C138.475 12.4702 138.374 12.5199 138.315 12.6193C138.255 12.7187 138.225 12.8295 138.225 12.9517ZM135.534 10.6847V10.4545C135.534 10.2898 135.568 10.1385 135.636 10.0007C135.706 9.86293 135.807 9.75284 135.939 9.67045C136.072 9.58807 136.234 9.54688 136.423 9.54688C136.616 9.54688 136.778 9.58807 136.908 9.67045C137.039 9.75284 137.138 9.86293 137.205 10.0007C137.271 10.1385 137.305 10.2898 137.305 10.4545V10.6847C137.305 10.8494 137.271 11.0007 137.202 11.1385C137.136 11.2749 137.036 11.3849 136.904 11.4688C136.773 11.5511 136.613 11.5923 136.423 11.5923C136.229 11.5923 136.067 11.5511 135.935 11.4688C135.804 11.3849 135.705 11.2749 135.636 11.1385C135.568 11.0007 135.534 10.8494 135.534 10.6847ZM136.033 10.4545V10.6847C136.033 10.8068 136.061 10.9176 136.118 11.017C136.176 11.1165 136.278 11.1662 136.423 11.1662C136.565 11.1662 136.664 11.1165 136.721 11.017C136.779 10.9176 136.808 10.8068 136.808 10.6847V10.4545C136.808 10.3324 136.781 10.2216 136.725 10.1222C136.67 10.0227 136.569 9.97301 136.423 9.97301C136.281 9.97301 136.18 10.0227 136.12 10.1222C136.062 10.2216 136.033 10.3324 136.033 10.4545ZM135.737 14L138.737 9.63636H139.246L136.246 14H135.737Z" fill="black"/>
<path d="M56.8983 36V35.5227L58.3748 33.9929C58.5325 33.8267 58.6625 33.6811 58.7647 33.5561C58.8684 33.4297 58.9458 33.3097 58.997 33.196C59.0481 33.0824 59.0737 32.9616 59.0737 32.8338C59.0737 32.6889 59.0396 32.5639 58.9714 32.4588C58.9032 32.3523 58.8102 32.2706 58.6923 32.2138C58.5744 32.1555 58.4416 32.1264 58.2939 32.1264C58.1376 32.1264 58.0012 32.1584 57.8848 32.2223C57.7683 32.2862 57.6788 32.3764 57.6163 32.4929C57.5538 32.6094 57.5225 32.7457 57.5225 32.902H56.894C56.894 32.6364 56.9551 32.4041 57.0772 32.2053C57.1994 32.0064 57.367 31.8523 57.5801 31.7429C57.7931 31.6321 58.0353 31.5767 58.3066 31.5767C58.5808 31.5767 58.8223 31.6314 59.0311 31.7408C59.2413 31.8487 59.4054 31.9964 59.5233 32.1839C59.6412 32.37 59.7001 32.5803 59.7001 32.8146C59.7001 32.9766 59.6696 33.1349 59.6085 33.2898C59.5488 33.4446 59.4444 33.6172 59.2953 33.8075C59.1461 33.9964 58.9387 34.2259 58.6731 34.4957L57.8059 35.4034V35.4354H59.7704V36H56.8983ZM62.0971 36.0724C61.7605 36.071 61.4728 35.9822 61.2342 35.8061C60.9956 35.63 60.813 35.3736 60.6866 35.0369C60.5602 34.7003 60.497 34.2947 60.497 33.8203C60.497 33.3473 60.5602 32.9432 60.6866 32.608C60.8145 32.2727 60.9977 32.017 61.2363 31.8409C61.4764 31.6648 61.7633 31.5767 62.0971 31.5767C62.4309 31.5767 62.7172 31.6655 62.9558 31.843C63.1944 32.0192 63.377 32.2749 63.5034 32.6101C63.6312 32.9439 63.6951 33.3473 63.6951 33.8203C63.6951 34.2962 63.6319 34.7024 63.5055 35.0391C63.3791 35.3743 63.1966 35.6307 62.9579 35.8082C62.7193 35.9844 62.4324 36.0724 62.0971 36.0724ZM62.0971 35.5036C62.3926 35.5036 62.6234 35.3594 62.7896 35.071C62.9572 34.7827 63.041 34.3658 63.041 33.8203C63.041 33.4581 63.0027 33.152 62.926 32.902C62.8507 32.6506 62.742 32.4602 62.6 32.331C62.4593 32.2003 62.2917 32.1349 62.0971 32.1349C61.8031 32.1349 61.5723 32.2798 61.4047 32.5696C61.237 32.8594 61.1525 33.2763 61.1511 33.8203C61.1511 34.1839 61.1887 34.4915 61.264 34.7429C61.3407 34.9929 61.4494 35.1825 61.59 35.3118C61.7306 35.4396 61.8997 35.5036 62.0971 35.5036ZM66.7287 35.1818V34.9517C66.7287 34.7869 66.7628 34.6364 66.831 34.5C66.9006 34.3622 67.0014 34.2521 67.1335 34.1697C67.267 34.0859 67.4283 34.044 67.6172 34.044C67.8104 34.044 67.9723 34.0852 68.103 34.1676C68.2337 34.25 68.3324 34.3601 68.3991 34.4979C68.4673 34.6357 68.5014 34.7869 68.5014 34.9517V35.1818C68.5014 35.3466 68.4673 35.4979 68.3991 35.6357C68.331 35.772 68.2308 35.8821 68.0987 35.9659C67.968 36.0483 67.8075 36.0895 67.6172 36.0895C67.4254 36.0895 67.2635 36.0483 67.1314 35.9659C66.9993 35.8821 66.8991 35.772 66.831 35.6357C66.7628 35.4979 66.7287 35.3466 66.7287 35.1818ZM67.2251 34.9517V35.1818C67.2251 35.304 67.2543 35.4148 67.3125 35.5142C67.3707 35.6136 67.4723 35.6634 67.6172 35.6634C67.7607 35.6634 67.8608 35.6136 67.9176 35.5142C67.9744 35.4148 68.0028 35.304 68.0028 35.1818V34.9517C68.0028 34.8295 67.9751 34.7187 67.9197 34.6193C67.8658 34.5199 67.7649 34.4702 67.6172 34.4702C67.4751 34.4702 67.3743 34.5199 67.3146 34.6193C67.255 34.7187 67.2251 34.8295 67.2251 34.9517ZM64.5341 32.6847V32.4545C64.5341 32.2898 64.5682 32.1385 64.6364 32.0007C64.706 31.8629 64.8068 31.7528 64.9389 31.6705C65.0724 31.5881 65.2337 31.5469 65.4226 31.5469C65.6158 31.5469 65.7777 31.5881 65.9084 31.6705C66.0391 31.7528 66.1378 31.8629 66.2045 32.0007C66.2713 32.1385 66.3047 32.2898 66.3047 32.4545V32.6847C66.3047 32.8494 66.2706 33.0007 66.2024 33.1385C66.1357 33.2749 66.0362 33.3849 65.9041 33.4688C65.7734 33.5511 65.6129 33.5923 65.4226 33.5923C65.2294 33.5923 65.0668 33.5511 64.9347 33.4688C64.804 33.3849 64.7045 33.2749 64.6364 33.1385C64.5682 33.0007 64.5341 32.8494 64.5341 32.6847ZM65.0327 32.4545V32.6847C65.0327 32.8068 65.0611 32.9176 65.1179 33.017C65.1761 33.1165 65.2777 33.1662 65.4226 33.1662C65.5646 33.1662 65.6641 33.1165 65.7209 33.017C65.7791 32.9176 65.8082 32.8068 65.8082 32.6847V32.4545C65.8082 32.3324 65.7805 32.2216 65.7251 32.1222C65.6697 32.0227 65.5689 31.973 65.4226 31.973C65.2805 31.973 65.1797 32.0227 65.12 32.1222C65.0618 32.2216 65.0327 32.3324 65.0327 32.4545ZM64.7365 36L67.7365 31.6364H68.2457L65.2457 36H64.7365Z" fill="black"/>
<path d="M56.8983 25V24.5227L58.3748 22.9929C58.5325 22.8267 58.6625 22.6811 58.7647 22.5561C58.8684 22.4297 58.9458 22.3097 58.997 22.196C59.0481 22.0824 59.0737 21.9616 59.0737 21.8338C59.0737 21.6889 59.0396 21.5639 58.9714 21.4588C58.9032 21.3523 58.8102 21.2706 58.6923 21.2138C58.5744 21.1555 58.4416 21.1264 58.2939 21.1264C58.1376 21.1264 58.0012 21.1584 57.8848 21.2223C57.7683 21.2862 57.6788 21.3764 57.6163 21.4929C57.5538 21.6094 57.5225 21.7457 57.5225 21.902H56.894C56.894 21.6364 56.9551 21.4041 57.0772 21.2053C57.1994 21.0064 57.367 20.8523 57.5801 20.7429C57.7931 20.6321 58.0353 20.5767 58.3066 20.5767C58.5808 20.5767 58.8223 20.6314 59.0311 20.7408C59.2413 20.8487 59.4054 20.9964 59.5233 21.1839C59.6412 21.37 59.7001 21.5803 59.7001 21.8146C59.7001 21.9766 59.6696 22.1349 59.6085 22.2898C59.5488 22.4446 59.4444 22.6172 59.2953 22.8075C59.1461 22.9964 58.9387 23.2259 58.6731 23.4957L57.8059 24.4034V24.4354H59.7704V25H56.8983ZM62.0971 25.0724C61.7605 25.071 61.4728 24.9822 61.2342 24.8061C60.9956 24.63 60.813 24.3736 60.6866 24.0369C60.5602 23.7003 60.497 23.2947 60.497 22.8203C60.497 22.3473 60.5602 21.9432 60.6866 21.608C60.8145 21.2727 60.9977 21.017 61.2363 20.8409C61.4764 20.6648 61.7633 20.5767 62.0971 20.5767C62.4309 20.5767 62.7172 20.6655 62.9558 20.843C63.1944 21.0192 63.377 21.2749 63.5034 21.6101C63.6312 21.9439 63.6951 22.3473 63.6951 22.8203C63.6951 23.2962 63.6319 23.7024 63.5055 24.0391C63.3791 24.3743 63.1966 24.6307 62.9579 24.8082C62.7193 24.9844 62.4324 25.0724 62.0971 25.0724ZM62.0971 24.5036C62.3926 24.5036 62.6234 24.3594 62.7896 24.071C62.9572 23.7827 63.041 23.3658 63.041 22.8203C63.041 22.4581 63.0027 22.152 62.926 21.902C62.8507 21.6506 62.742 21.4602 62.6 21.331C62.4593 21.2003 62.2917 21.1349 62.0971 21.1349C61.8031 21.1349 61.5723 21.2798 61.4047 21.5696C61.237 21.8594 61.1525 22.2763 61.1511 22.8203C61.1511 23.1839 61.1887 23.4915 61.264 23.7429C61.3407 23.9929 61.4494 24.1825 61.59 24.3118C61.7306 24.4396 61.8997 24.5036 62.0971 24.5036ZM66.7287 24.1818V23.9517C66.7287 23.7869 66.7628 23.6364 66.831 23.5C66.9006 23.3622 67.0014 23.2521 67.1335 23.1697C67.267 23.0859 67.4283 23.044 67.6172 23.044C67.8104 23.044 67.9723 23.0852 68.103 23.1676C68.2337 23.25 68.3324 23.3601 68.3991 23.4979C68.4673 23.6357 68.5014 23.7869 68.5014 23.9517V24.1818C68.5014 24.3466 68.4673 24.4979 68.3991 24.6357C68.331 24.772 68.2308 24.8821 68.0987 24.9659C67.968 25.0483 67.8075 25.0895 67.6172 25.0895C67.4254 25.0895 67.2635 25.0483 67.1314 24.9659C66.9993 24.8821 66.8991 24.772 66.831 24.6357C66.7628 24.4979 66.7287 24.3466 66.7287 24.1818ZM67.2251 23.9517V24.1818C67.2251 24.304 67.2543 24.4148 67.3125 24.5142C67.3707 24.6136 67.4723 24.6634 67.6172 24.6634C67.7607 24.6634 67.8608 24.6136 67.9176 24.5142C67.9744 24.4148 68.0028 24.304 68.0028 24.1818V23.9517C68.0028 23.8295 67.9751 23.7187 67.9197 23.6193C67.8658 23.5199 67.7649 23.4702 67.6172 23.4702C67.4751 23.4702 67.3743 23.5199 67.3146 23.6193C67.255 23.7187 67.2251 23.8295 67.2251 23.9517ZM64.5341 21.6847V21.4545C64.5341 21.2898 64.5682 21.1385 64.6364 21.0007C64.706 20.8629 64.8068 20.7528 64.9389 20.6705C65.0724 20.5881 65.2337 20.5469 65.4226 20.5469C65.6158 20.5469 65.7777 20.5881 65.9084 20.6705C66.0391 20.7528 66.1378 20.8629 66.2045 21.0007C66.2713 21.1385 66.3047 21.2898 66.3047 21.4545V21.6847C66.3047 21.8494 66.2706 22.0007 66.2024 22.1385C66.1357 22.2749 66.0362 22.3849 65.9041 22.4688C65.7734 22.5511 65.6129 22.5923 65.4226 22.5923C65.2294 22.5923 65.0668 22.5511 64.9347 22.4688C64.804 22.3849 64.7045 22.2749 64.6364 22.1385C64.5682 22.0007 64.5341 21.8494 64.5341 21.6847ZM65.0327 21.4545V21.6847C65.0327 21.8068 65.0611 21.9176 65.1179 22.017C65.1761 22.1165 65.2777 22.1662 65.4226 22.1662C65.5646 22.1662 65.6641 22.1165 65.7209 22.017C65.7791 21.9176 65.8082 21.8068 65.8082 21.6847V21.4545C65.8082 21.3324 65.7805 21.2216 65.7251 21.1222C65.6697 21.0227 65.5689 20.973 65.4226 20.973C65.2805 20.973 65.1797 21.0227 65.12 21.1222C65.0618 21.2216 65.0327 21.3324 65.0327 21.4545ZM64.7365 25L67.7365 20.6364H68.2457L65.2457 25H64.7365Z" fill="black"/>
<path d="M57.0506 14V13.5227L58.5272 11.9929C58.6848 11.8267 58.8148 11.6811 58.9171 11.5561C59.0208 11.4297 59.0982 11.3097 59.1493 11.196C59.2005 11.0824 59.226 10.9616 59.226 10.8338C59.226 10.6889 59.1919 10.5639 59.1238 10.4588C59.0556 10.3523 58.9625 10.2706 58.8446 10.2138C58.7267 10.1555 58.5939 10.1264 58.4462 10.1264C58.29 10.1264 58.1536 10.1584 58.0371 10.2223C57.9206 10.2862 57.8311 10.3764 57.7686 10.4929C57.7061 10.6094 57.6749 10.7457 57.6749 10.902H57.0463C57.0463 10.6364 57.1074 10.4041 57.2296 10.2053C57.3517 10.0064 57.5194 9.85227 57.7324 9.7429C57.9455 9.6321 58.1877 9.5767 58.459 9.5767C58.7331 9.5767 58.9746 9.63139 59.1834 9.74077C59.3936 9.84872 59.5577 9.99645 59.6756 10.1839C59.7935 10.37 59.8525 10.5803 59.8525 10.8146C59.8525 10.9766 59.8219 11.1349 59.7608 11.2898C59.7012 11.4446 59.5968 11.6172 59.4476 11.8075C59.2985 11.9964 59.0911 12.2259 58.8255 12.4957L57.9583 13.4034V13.4354H59.9228V14H57.0506ZM62.1706 14.0597C61.9036 14.0597 61.6635 14.0085 61.4505 13.9062C61.2388 13.8026 61.0698 13.6605 60.9434 13.4801C60.8169 13.2997 60.7495 13.0938 60.7409 12.8622H61.3801C61.3958 13.0497 61.4789 13.2038 61.6294 13.3246C61.78 13.4453 61.9604 13.5057 62.1706 13.5057C62.3382 13.5057 62.4867 13.4673 62.6159 13.3906C62.7466 13.3125 62.8489 13.2053 62.9228 13.0689C62.998 12.9325 63.0357 12.777 63.0357 12.6023C63.0357 12.4247 62.9973 12.2663 62.9206 12.1271C62.8439 11.9879 62.7381 11.8786 62.6032 11.799C62.4696 11.7195 62.3162 11.679 62.1429 11.6776C62.0108 11.6776 61.878 11.7003 61.7445 11.7457C61.611 11.7912 61.503 11.8509 61.4206 11.9247L60.8176 11.8352L61.0627 9.63636H63.4618V10.201H61.6103L61.4718 11.4219H61.4973C61.5826 11.3395 61.6955 11.2706 61.8361 11.2152C61.9782 11.1598 62.1301 11.1321 62.2921 11.1321C62.5577 11.1321 62.7942 11.1953 63.0016 11.3217C63.2104 11.4482 63.3745 11.6207 63.4938 11.8395C63.6145 12.0568 63.6742 12.3068 63.6728 12.5895C63.6742 12.8722 63.6103 13.1243 63.481 13.3459C63.3532 13.5675 63.1756 13.7422 62.9483 13.87C62.7225 13.9964 62.4632 14.0597 62.1706 14.0597ZM66.7287 13.1818V12.9517C66.7287 12.7869 66.7628 12.6364 66.831 12.5C66.9006 12.3622 67.0014 12.2521 67.1335 12.1697C67.267 12.0859 67.4283 12.044 67.6172 12.044C67.8104 12.044 67.9723 12.0852 68.103 12.1676C68.2337 12.25 68.3324 12.3601 68.3991 12.4979C68.4673 12.6357 68.5014 12.7869 68.5014 12.9517V13.1818C68.5014 13.3466 68.4673 13.4979 68.3991 13.6357C68.331 13.772 68.2308 13.8821 68.0987 13.9659C67.968 14.0483 67.8075 14.0895 67.6172 14.0895C67.4254 14.0895 67.2635 14.0483 67.1314 13.9659C66.9993 13.8821 66.8991 13.772 66.831 13.6357C66.7628 13.4979 66.7287 13.3466 66.7287 13.1818ZM67.2251 12.9517V13.1818C67.2251 13.304 67.2543 13.4148 67.3125 13.5142C67.3707 13.6136 67.4723 13.6634 67.6172 13.6634C67.7607 13.6634 67.8608 13.6136 67.9176 13.5142C67.9744 13.4148 68.0028 13.304 68.0028 13.1818V12.9517C68.0028 12.8295 67.9751 12.7187 67.9197 12.6193C67.8658 12.5199 67.7649 12.4702 67.6172 12.4702C67.4751 12.4702 67.3743 12.5199 67.3146 12.6193C67.255 12.7187 67.2251 12.8295 67.2251 12.9517ZM64.5341 10.6847V10.4545C64.5341 10.2898 64.5682 10.1385 64.6364 10.0007C64.706 9.86293 64.8068 9.75284 64.9389 9.67045C65.0724 9.58807 65.2337 9.54688 65.4226 9.54688C65.6158 9.54688 65.7777 9.58807 65.9084 9.67045C66.0391 9.75284 66.1378 9.86293 66.2045 10.0007C66.2713 10.1385 66.3047 10.2898 66.3047 10.4545V10.6847C66.3047 10.8494 66.2706 11.0007 66.2024 11.1385C66.1357 11.2749 66.0362 11.3849 65.9041 11.4688C65.7734 11.5511 65.6129 11.5923 65.4226 11.5923C65.2294 11.5923 65.0668 11.5511 64.9347 11.4688C64.804 11.3849 64.7045 11.2749 64.6364 11.1385C64.5682 11.0007 64.5341 10.8494 64.5341 10.6847ZM65.0327 10.4545V10.6847C65.0327 10.8068 65.0611 10.9176 65.1179 11.017C65.1761 11.1165 65.2777 11.1662 65.4226 11.1662C65.5646 11.1662 65.6641 11.1165 65.7209 11.017C65.7791 10.9176 65.8082 10.8068 65.8082 10.6847V10.4545C65.8082 10.3324 65.7805 10.2216 65.7251 10.1222C65.6697 10.0227 65.5689 9.97301 65.4226 9.97301C65.2805 9.97301 65.1797 10.0227 65.12 10.1222C65.0618 10.2216 65.0327 10.3324 65.0327 10.4545ZM64.7365 14L67.7365 9.63636H68.2457L65.2457 14H64.7365Z" fill="black"/>
</svg>
