<svg width="72" height="64" viewBox="0 0 72 64" fill="none" xmlns="http://www.w3.org/2000/svg">
<path d="M71.0981 21.3333C70.9807 19.3055 68.5689 17.7209 63.7452 16.512C63.9076 16.1564 63.9988 15.7867 64 15.4027V7.11111H63.9799C63.5556 0.203852 35.251 0 32 0C28.749 0 0.444444 0.203852 0.0201481 7.11111H0V7.26518V15.4062C0.00592593 17.6581 2.912 19.4204 7.23556 20.7324C7.1763 20.9292 7.14074 21.1295 7.12889 21.3333H7.11111V21.4874V29.6142C2.45333 30.8136 0.126815 32.3757 0.0118519 34.3704H0V34.5244V42.6655C0.00355556 44.2335 1.41748 45.5633 3.73096 46.6714C3.64326 46.912 3.58874 47.1573 3.57333 47.4086H3.55556V47.5627V55.7037C3.56504 59.6456 12.4409 62.093 22.3028 63.2356C22.3751 63.2498 22.4415 63.2794 22.5185 63.2794C22.541 63.2794 22.56 63.2676 22.5825 63.2664C24.4836 63.4809 26.4154 63.648 28.3271 63.7677C28.3674 63.7724 28.403 63.7914 28.4444 63.7914C28.467 63.7914 28.4847 63.7796 28.5061 63.7784C30.9333 63.9253 33.3215 64 35.5556 64C37.7896 64 40.1778 63.9253 42.605 63.7772C42.6264 63.7784 42.6453 63.7902 42.6667 63.7902C42.7082 63.7902 42.7437 63.7701 42.784 63.7665C44.6957 63.6468 46.6276 63.4809 48.5286 63.2652C48.5511 63.2652 48.5701 63.277 48.5926 63.277C48.6696 63.277 48.736 63.2474 48.8083 63.2332C58.6702 62.0907 67.5449 59.6421 67.5556 55.699V47.4074H67.5366C67.4536 45.9544 66.2151 44.7419 63.7689 43.7286C63.9182 43.3861 64 43.0305 64 42.6619V34.9156C68.2548 33.6071 71.1052 31.8566 71.1111 29.6249V21.3333H71.0981ZM61.5016 43.0471L61.0975 43.4015C60.4753 43.9502 59.4382 44.5037 58.0741 45.037V39.3861C59.4833 38.8954 60.6827 38.3514 61.6296 37.7553V42.6596C61.6296 42.7816 61.5846 42.912 61.5016 43.0471ZM34.9938 48.5547C34.8207 48.5594 34.6465 48.5618 34.4723 48.5653C34.0492 48.5736 33.6154 48.576 33.1864 48.5796V42.6596C33.5123 42.656 33.8382 42.6513 34.1642 42.6453C34.227 42.6441 34.2898 42.643 34.3526 42.6418C35.5461 42.6193 36.7396 42.5825 37.9271 42.528V48.4456C37.6735 48.4587 37.4187 48.4705 37.1615 48.4812C36.448 48.5132 35.7274 48.5369 34.9938 48.5547ZM29.8181 48.5713C29.2753 48.5618 28.7348 48.5487 28.1979 48.5322C28.1316 48.5298 28.0652 48.5274 27.9988 48.525C27.3529 48.5037 26.7117 48.4764 26.0753 48.4456V42.5292C27.2628 42.5849 28.4563 42.6216 29.6498 42.643C29.7126 42.6441 29.7754 42.6453 29.837 42.6465C30.163 42.6524 30.4889 42.6572 30.8148 42.6607V48.5843C30.5849 48.5819 30.355 48.5819 30.1262 48.5784C30.0219 48.576 29.9212 48.5724 29.8181 48.5713ZM8.41126 45.869C8.37215 45.8572 8.33541 45.8465 8.2963 45.8359V40.1102C9.40326 40.4089 10.5932 40.6815 11.8519 40.9292V46.7141C10.7639 46.483 9.76 46.24 8.84622 45.9911C8.70163 45.9496 8.5523 45.9105 8.41126 45.869ZM33.3926 55.6836C33.7185 55.6895 34.0444 55.6942 34.3704 55.6978V61.6225C32.7324 61.6071 31.1514 61.5597 29.6296 61.485V55.5674C30.8172 55.6231 32.0107 55.6599 33.2042 55.6812C33.267 55.6812 33.3298 55.6824 33.3926 55.6836ZM37.907 55.68C39.1004 55.6575 40.2939 55.6207 41.4815 55.5662V61.4839C39.9597 61.5585 38.3787 61.6059 36.7407 61.6213V55.6966C37.0667 55.693 37.3926 55.6883 37.7185 55.6824C37.7813 55.6824 37.8442 55.6812 37.907 55.68ZM47.4074 55.1443V61.0299C46.2684 61.1496 45.0833 61.2551 43.8519 61.3416V55.4311C45.0536 55.3529 46.2412 55.2569 47.4074 55.1443ZM49.7778 54.8883C50.9997 54.7413 52.1861 54.5742 53.3333 54.3881V60.2074C52.2169 60.4041 51.0305 60.5855 49.7778 60.7502V54.8883ZM55.7037 53.965C56.9624 53.7173 58.1523 53.4447 59.2593 53.1461V58.8717C58.2033 59.1763 57.0145 59.4714 55.7037 59.7499V53.965ZM15.4074 53.965V59.7499C14.0966 59.4714 12.9079 59.1763 11.8519 58.8717V53.1461C12.9588 53.4447 14.1487 53.7185 15.4074 53.965ZM17.7778 54.3893C18.925 54.5754 20.1114 54.7425 21.3333 54.8895V60.7514C20.0806 60.5867 18.8942 60.4053 17.7778 60.2086V54.3893ZM23.7037 55.1443C24.8699 55.2569 26.0575 55.3529 27.2593 55.4323V61.3428C26.0279 61.2563 24.8427 61.1508 23.7037 61.0311V55.1443ZM20.7633 48.0569C20.6424 48.045 20.5227 48.032 20.403 48.0201C20.3176 48.0119 20.2335 48.0012 20.1481 47.9929V42.1084C21.3144 42.221 22.5019 42.317 23.7037 42.3964V48.3022C22.7082 48.2311 21.7244 48.1505 20.7633 48.0569ZM17.7778 41.8513V47.7132C16.525 47.5484 15.3387 47.3671 14.2222 47.1704V41.3511C15.3695 41.5372 16.5559 41.7055 17.7778 41.8513ZM41.0856 48.2465C40.8249 48.2667 40.5618 48.2868 40.2963 48.3058V42.3953C41.4981 42.3159 42.6856 42.221 43.8519 42.1073V47.9929C43.1194 48.0699 42.3704 48.1422 41.6012 48.205C41.4293 48.2204 41.2575 48.2335 41.0856 48.2465ZM46.2222 47.7132V41.8513C47.4442 41.7043 48.6305 41.5372 49.7778 41.3511V47.1704C48.6613 47.3671 47.475 47.5496 46.2222 47.7132ZM52.1482 40.928C53.4068 40.6803 54.5967 40.4077 55.7037 40.109V45.8347C54.6477 46.1393 53.459 46.4344 52.1482 46.7129V40.928ZM35.9407 35.5141C35.0495 35.4916 34.1784 35.4572 33.3227 35.4157C33.2764 35.4133 33.2302 35.411 33.1852 35.4098V29.4921C34.3727 29.5479 35.5662 29.5846 36.7597 29.6059C36.8225 29.6071 36.8853 29.6083 36.947 29.6095C37.2729 29.6154 37.5988 29.6201 37.9247 29.6237V35.5413C37.3476 35.5354 36.7656 35.533 36.2027 35.52C36.1161 35.5176 36.0273 35.5164 35.9407 35.5141ZM8.2963 18.5766V12.851C9.40326 13.1496 10.5932 13.4222 11.8519 13.6699V19.4548C11.7061 19.424 11.5556 19.3932 11.4133 19.3624C10.7828 19.2237 10.1677 19.0791 9.57985 18.9262C9.13185 18.8113 8.70637 18.6939 8.2963 18.5766ZM29.837 15.3873C30.163 15.3932 30.4889 15.3979 30.8148 15.4015V21.3191C29.2196 21.3037 27.6338 21.2622 26.0741 21.184V15.2711C27.2616 15.3268 28.4551 15.3636 29.6486 15.3849C29.7114 15.3849 29.7742 15.3861 29.837 15.3873ZM34.3514 15.3837C35.5449 15.3612 36.7384 15.3244 37.9259 15.2699V21.1828C37.7244 21.1923 37.5313 21.2065 37.3286 21.216C37.312 21.2172 37.2954 21.2172 37.2776 21.2184C36.4824 21.2539 35.6717 21.28 34.8504 21.299C34.7224 21.3025 34.5944 21.3037 34.4664 21.3073C34.0444 21.3156 33.613 21.3167 33.1852 21.3215V15.4015C33.5111 15.3979 33.837 15.3932 34.163 15.3873C34.2258 15.3861 34.2886 15.3849 34.3514 15.3837ZM61.3582 15.9787L61.325 15.9716L60.8936 16.307C60.2679 16.7941 59.3067 17.2871 58.0741 17.7636V12.1256C59.4833 11.635 60.6827 11.091 61.6296 10.4948V15.3991C61.6296 15.5793 61.5348 15.7736 61.3582 15.9787ZM46.2222 20.4468V14.592C47.4442 14.445 48.6305 14.2779 49.7778 14.0919V19.9016C48.6542 20.1007 47.4714 20.2833 46.2222 20.4468ZM52.1482 19.4453V13.6699C53.4068 13.4222 54.5967 13.1496 55.7037 12.851V18.5636C54.6418 18.8729 53.4459 19.168 52.1482 19.4453ZM43.8519 14.848V20.7265C42.707 20.8474 41.5218 20.9529 40.2963 21.0406V15.136C41.4981 15.0566 42.6856 14.9606 43.8519 14.848ZM20.1481 20.7289V14.848C21.3144 14.9606 22.5019 15.0566 23.7037 15.136V21.0359C22.4972 20.9493 21.3073 20.851 20.1481 20.7289ZM17.7778 14.592V20.448C17.5431 20.4172 17.299 20.3923 17.0667 20.3603C16.915 20.339 16.7704 20.3164 16.621 20.2951C15.936 20.1967 15.2664 20.0913 14.6098 19.981C14.4782 19.9585 14.3514 19.9348 14.2222 19.9123V14.093C15.3695 14.2779 16.5559 14.4462 17.7778 14.592ZM30.5209 35.2462C30.3609 35.2344 30.1997 35.2225 30.0409 35.2107C29.2824 35.1514 28.5416 35.0862 27.8187 35.0139C27.6634 34.9985 27.5082 34.9819 27.3541 34.9665C27.3221 34.963 27.2913 34.9582 27.2593 34.9559V29.0702C28.4255 29.1828 29.613 29.2788 30.8148 29.3582V35.2652C30.7188 35.2581 30.6169 35.2533 30.5209 35.2462ZM22.6904 34.3609C22.221 34.2862 21.7801 34.2056 21.3333 34.1274V28.3153C22.4806 28.5013 23.667 28.6684 24.8889 28.8154V34.6773C24.1636 34.5813 23.4536 34.4818 22.7722 34.3751C22.7449 34.3692 22.7176 34.3644 22.6904 34.3609ZM18.963 27.891V33.6664C17.6533 33.3855 16.4658 33.0868 15.4074 32.7763V27.072C16.5144 27.3707 17.7043 27.6444 18.963 27.891ZM13.037 26.3479V31.9787C11.1739 31.2593 9.97215 30.5244 9.58104 29.8702L9.50163 29.7375C9.49452 29.7007 9.48267 29.6616 9.48148 29.6249V24.717C10.4284 25.3132 11.6279 25.8572 13.037 26.3479ZM41.4625 29.6059C42.656 29.5834 43.8495 29.5467 45.037 29.4921V35.4039C43.4797 35.4809 41.8963 35.5236 40.2963 35.5401V29.6237C40.6222 29.6201 40.9482 29.6154 41.2741 29.6095C41.3369 29.6083 41.3997 29.6071 41.4625 29.6059ZM56.7787 34.1535C56.2584 34.2436 55.7333 34.3324 55.1941 34.4142C54.8847 34.4616 54.5683 34.5067 54.2507 34.5517C53.9508 34.5944 53.6391 34.6311 53.3345 34.6702V28.8142C54.5564 28.6673 55.7428 28.5001 56.8901 28.3141V34.1333C56.8522 34.1404 56.8154 34.1476 56.7787 34.1535ZM48.7538 35.1656C48.3117 35.2024 47.8554 35.2261 47.4074 35.2581V29.3582C48.6092 29.2788 49.7967 29.184 50.963 29.0702V34.9499C50.2744 35.0222 49.587 35.0945 48.8794 35.1538C48.8367 35.1573 48.7964 35.1621 48.7538 35.1656ZM62.2981 32.9434C61.7079 33.1082 61.0833 33.2622 60.4456 33.4127C60.1505 33.4815 59.8495 33.5502 59.5413 33.6166C59.4501 33.6367 59.3529 33.6545 59.2605 33.6747V27.8921C60.5191 27.6444 61.709 27.3719 62.816 27.0732V32.7988C62.6453 32.8462 62.4735 32.8948 62.2981 32.9434ZM68.7277 21.4104C68.6187 22.2151 66.7947 23.2853 63.539 24.2916C59.3458 25.587 52.7846 26.7733 44.4693 27.1407C44.0439 27.1585 43.6196 27.1763 43.1858 27.1905C42.8314 27.2024 42.4759 27.213 42.1144 27.2225C41.133 27.2439 40.1375 27.2593 39.1111 27.2593C38.0847 27.2593 37.0892 27.2439 36.1079 27.2213C35.7476 27.213 35.392 27.2012 35.0364 27.1893C34.6015 27.1763 34.1772 27.1573 33.7529 27.1396C25.4376 26.7721 18.8753 25.5858 14.6833 24.2904C11.4536 23.2924 9.63319 22.2305 9.49807 21.4293C9.504 21.4068 9.504 21.3879 9.51822 21.3594C9.59882 21.3796 9.68889 21.3961 9.77067 21.4163C10.2341 21.5265 10.7093 21.6332 11.1929 21.7351C13.5479 22.2424 16.1576 22.6584 18.9381 22.976C18.9476 22.976 18.9547 22.9807 18.963 22.9807C18.9653 22.9807 18.9689 22.9796 18.9689 22.9796C20.8628 23.1953 22.8279 23.3647 24.845 23.4844C24.8604 23.4844 24.8735 23.4927 24.8889 23.4927C24.8972 23.4927 24.9031 23.488 24.9114 23.488C26.3633 23.5733 27.8341 23.6361 29.3227 23.6693C30.2341 23.6919 31.1289 23.7037 32 23.7037C32.6222 23.7037 33.2599 23.6966 33.9034 23.6847C42.515 23.552 50.496 22.528 56.0498 20.941C56.3058 20.8687 56.5559 20.7941 56.8024 20.7194C56.9529 20.6732 57.107 20.6281 57.2527 20.5819C57.6818 20.4444 58.093 20.3034 58.4901 20.1564C58.5588 20.1304 58.624 20.1043 58.6927 20.0782C59.0282 19.9514 59.3505 19.8199 59.6587 19.6859C59.7476 19.6468 59.8388 19.6089 59.9253 19.5698C60.2536 19.4216 60.5713 19.2699 60.8652 19.1123C60.9979 19.0424 61.1129 18.9701 61.2373 18.899C61.3796 18.8172 61.5218 18.7342 61.6533 18.6501C61.728 18.6027 61.8169 18.5576 61.888 18.5102C67.1941 19.661 68.5926 20.9197 68.7277 21.4104ZM32 2.37037C51.5425 2.37037 61.427 5.44711 61.6119 7.21304C61.4684 8.01422 59.6492 9.07259 56.4279 10.0681C52.2347 11.3636 45.6735 12.5499 37.3582 12.9173C36.9327 12.9351 36.5084 12.9529 36.0747 12.9671C35.7203 12.979 35.3647 12.9896 35.0033 12.9991C34.0219 13.0216 33.0264 13.037 32 13.037C30.9736 13.037 29.9781 13.0216 28.9967 12.9991C28.6364 12.9908 28.2809 12.979 27.9253 12.9671C27.4904 12.9541 27.0661 12.9351 26.6418 12.9173C18.3265 12.5499 11.7641 11.3636 7.57215 10.0681C4.34963 9.07259 2.53156 8.01422 2.38815 7.21304C2.57304 5.44711 12.4575 2.37037 32 2.37037ZM2.37037 15.4027V10.4948C3.31733 11.091 4.51674 11.635 5.92593 12.1256V17.8003C3.62074 16.9363 2.37274 16.0699 2.37037 15.4027ZM8.11141 31.8044C8.12919 31.8234 8.15645 31.84 8.17422 31.859C9.79674 33.4969 13.1567 34.784 17.3393 35.744C17.4353 35.7665 17.5372 35.7878 17.6344 35.8104C17.9413 35.8791 18.253 35.9467 18.5683 36.0119C22.4095 36.8296 26.995 37.421 31.9905 37.7138C31.9941 37.7138 31.9964 37.715 31.9988 37.715C32.0012 37.715 32.0036 37.7138 32.0036 37.7138C33.6083 37.8074 35.2498 37.8726 36.9256 37.901C37.6676 37.9164 38.3976 37.9259 39.1111 37.9259C39.9289 37.9259 40.768 37.9164 41.6213 37.8963C43.1716 37.8643 44.6993 37.8003 46.2056 37.7126C46.2116 37.7126 46.2163 37.7161 46.2222 37.7161C46.2329 37.7161 46.2412 37.7102 46.2519 37.7102C51.2604 37.4151 55.9597 36.8178 59.9336 35.9585C59.0732 36.4089 57.8951 36.8747 56.4279 37.3286C52.0012 38.6963 44.9316 39.9419 35.9467 40.2311C35.68 40.2394 35.4169 40.2489 35.1467 40.256C34.8563 40.2631 34.5612 40.2679 34.2661 40.2738C33.5206 40.2856 32.7704 40.2963 32 40.2963C30.9736 40.2963 29.9781 40.2809 28.9967 40.2584C28.6364 40.2501 28.2809 40.2382 27.9253 40.2264C27.4904 40.2133 27.0661 40.1944 26.6418 40.1766C18.3265 39.8092 11.7641 38.6228 7.57215 37.3274C4.31289 36.32 2.48889 35.2486 2.38341 34.4439C2.51496 33.9982 3.71319 32.883 8.11141 31.8044ZM2.37037 42.6619V37.7541C3.31733 38.3502 4.51674 38.8942 5.92593 39.3849V45.037L5.24919 44.7739L5.23496 44.7882C3.37422 44.0166 2.37274 43.2593 2.37037 42.6619ZM5.92593 55.699V50.7911C6.87289 51.3873 8.0723 51.9313 9.48148 52.4219V58.0966C7.1763 57.2326 5.9283 56.3662 5.92593 55.699ZM61.6296 58.0966V52.4231C63.0388 51.9324 64.2382 51.3884 65.1852 50.7923V55.6966C65.184 56.3638 63.9348 57.2314 61.6296 58.0966ZM65.1698 47.4987C65.0406 48.301 63.2201 49.3653 59.9834 50.3656C55.7902 51.661 49.229 52.8474 40.9138 53.2148C40.4883 53.2326 40.064 53.2504 39.6302 53.2646C39.2759 53.2764 38.9203 53.2871 38.5588 53.2966C37.5775 53.3179 36.5819 53.3333 35.5556 53.3333C34.5292 53.3333 33.5324 53.3179 32.5499 53.2954C32.1932 53.2871 31.8412 53.2753 31.4892 53.2634C31.0519 53.2492 30.6252 53.2314 30.1973 53.2136C21.8821 52.8462 15.3209 51.6599 11.1277 50.3644C7.99289 49.3961 6.18193 48.3674 5.95437 47.5733C6.30756 47.6966 6.67378 47.8163 7.04948 47.9336C7.08741 47.9455 7.12533 47.9573 7.16326 47.968C7.48326 48.0664 7.81037 48.1612 8.14578 48.2536C8.27259 48.2892 8.40059 48.3247 8.52978 48.3591C8.71941 48.4101 8.91378 48.4587 9.10815 48.5084C13.4246 49.6142 18.9345 50.3976 24.883 50.7496C24.8853 50.7496 24.8865 50.7508 24.8889 50.7508L24.8924 50.7496C26.7295 50.8587 28.6056 50.9262 30.5019 50.9487C31.0068 50.9582 31.5082 50.963 32 50.963C32.653 50.963 33.3215 50.9547 33.9982 50.9428C35.7274 50.9144 37.4341 50.8504 39.1028 50.7508C39.1064 50.7508 39.1087 50.7532 39.1123 50.7532C39.1182 50.7532 39.1218 50.7496 39.1277 50.7496C41.1603 50.6276 43.1277 50.4533 45.0181 50.2364C45.0252 50.2364 45.0311 50.24 45.0382 50.24C45.0643 50.24 45.0856 50.227 45.1117 50.2246C47.2166 49.9816 49.2124 49.683 51.0649 49.3357C51.4465 49.2658 51.8222 49.1935 52.1944 49.1188C52.2773 49.1022 52.3603 49.0856 52.4433 49.0679C55.9431 48.3496 58.9724 47.4193 61.0513 46.2661C61.165 46.2044 61.2717 46.1404 61.3796 46.0776C61.5111 45.9994 61.6367 45.92 61.7588 45.8394C61.8726 45.7659 62.0042 45.6948 62.1085 45.6201C64.448 46.4545 65.0927 47.2012 65.1698 47.4987ZM65.1852 32.0225V26.349C66.5944 25.8584 67.7938 25.3144 68.7407 24.7182V29.6225C68.7396 30.2898 67.4904 31.1573 65.1852 32.0225Z" fill="#ED3B41"/>
</svg>
