<svg width="65" height="64" viewBox="0 0 65 64" fill="none" xmlns="http://www.w3.org/2000/svg">
<path d="M44.8179 25.6103C44.1048 25.6128 43.3923 25.6548 42.6837 25.7362V3.2013C42.6837 2.35227 42.3465 1.53801 41.7461 0.937653C41.1458 0.337297 40.3315 2.00464e-05 39.4825 2.00464e-05H9.42245C9.00004 -0.00147852 8.58156 0.0810556 8.19135 0.242819C7.80114 0.404582 7.447 0.642343 7.14954 0.942263L0.942263 7.14954C0.642343 7.447 0.404582 7.80114 0.242819 8.19135C0.0810556 8.58156 -0.00147852 9.00004 2.00464e-05 9.42245V54.4218C2.00464e-05 55.2708 0.337297 56.0851 0.937653 56.6854C1.53801 57.2858 2.35227 57.6231 3.2013 57.6231H30.5424C32.68 60.0059 35.3796 61.8162 38.3956 62.8893C41.4115 63.9624 44.6479 64.2642 47.8102 63.7673C50.9725 63.2703 53.9603 61.9904 56.5017 60.0439C59.0431 58.0974 61.0573 55.5463 62.361 52.6227C63.6648 49.6991 64.2166 46.4958 63.9664 43.3045C63.7161 40.1131 62.6717 37.0351 60.9281 34.3504C59.1846 31.6658 56.7973 29.4598 53.9836 27.9333C51.1699 26.4068 48.0191 25.6082 44.8179 25.6103ZM7.46967 3.64308V6.40258C7.46967 6.68559 7.35725 6.95701 7.15713 7.15713C6.95701 7.35725 6.68559 7.46967 6.40258 7.46967H3.64308L7.46967 3.64308ZM3.2013 55.4889C2.91829 55.4889 2.64687 55.3764 2.44675 55.1763C2.24663 54.9762 2.13421 54.7048 2.13421 54.4218V9.60386H6.40258C7.25161 9.60386 8.06587 9.26658 8.66623 8.66623C9.26658 8.06587 9.60386 7.25161 9.60386 6.40258V2.13421H39.4825C39.7655 2.13421 40.0369 2.24663 40.237 2.44675C40.4371 2.64687 40.5496 2.91829 40.5496 3.2013V26.1054C39.1195 26.4332 37.7323 26.9256 36.4156 27.5726C37.6025 24.3687 37.6583 20.8554 36.5739 17.6154C35.4894 14.3754 33.3299 11.6035 30.4536 9.75954C27.5772 7.91558 24.1569 7.11038 20.7601 7.47751C17.3632 7.84464 14.1939 9.36203 11.778 11.778C9.36203 14.1939 7.84463 17.3632 7.47751 20.7601C7.11038 24.1569 7.91558 27.5772 9.75954 30.4536C11.6035 33.3299 14.3754 35.4894 17.6154 36.5739C20.8554 37.6583 24.3687 37.6025 27.5726 36.4156C26.0896 39.4268 25.4276 42.776 25.6534 46.125C25.8791 49.4739 26.9847 52.704 28.8585 55.4889H3.2013ZM29.8391 32.8249C27.527 34.4823 24.7271 35.3189 21.8847 35.2017C19.0423 35.0846 16.3207 34.0203 14.1529 32.1782L22.8508 23.4761H35.1682C34.9771 25.7707 34.1656 27.9702 32.8206 29.8391C31.721 30.7228 30.7212 31.724 29.8391 32.8249ZM23.4761 9.65828C26.4892 9.9137 29.3148 11.2267 31.453 13.3649C33.5913 15.5031 34.9043 18.3288 35.1597 21.3419H23.4761V9.65828ZM21.3419 20.6824L11.4883 15.7557C12.5358 14.0362 13.9739 12.5881 15.686 11.5286C17.398 10.4692 19.3358 9.82843 21.3419 9.65828V20.6824ZM10.5269 17.6615L20.6077 22.7014L12.6397 30.6693C11.1339 28.9005 10.1409 26.7532 9.76845 24.4602C9.39601 22.1672 9.6583 19.816 10.5269 17.6615ZM44.8179 61.8914C41.4411 61.8914 38.1401 60.8901 35.3324 59.014C32.5247 57.138 30.3363 54.4715 29.0441 51.3517C27.7518 48.2319 27.4137 44.799 28.0725 41.4871C28.7313 38.1751 30.3574 35.1329 32.7452 32.7452C35.1329 30.3574 38.1751 28.7313 41.4871 28.0725C44.799 27.4137 48.2319 27.7518 51.3517 29.0441C54.4714 30.3363 57.138 32.5247 59.014 35.3324C60.8901 38.1401 61.8914 41.4411 61.8914 44.8179C61.8861 49.3445 60.0855 53.6841 56.8848 56.8848C53.684 60.0855 49.3445 61.8861 44.8179 61.8914Z" fill="#ED3B41"/>
<path d="M45 31C42.2311 31 39.5243 31.8211 37.222 33.3594C34.9197 34.8978 33.1253 37.0843 32.0657 39.6424C31.0061 42.2006 30.7288 45.0155 31.269 47.7313C31.8092 50.447 33.1426 52.9416 35.1005 54.8995C37.0584 56.8574 39.553 58.1908 42.2687 58.731C44.9845 59.2712 47.7994 58.9939 50.3576 57.9343C52.9157 56.8747 55.1022 55.0803 56.6406 52.778C58.1789 50.4757 59 47.7689 59 45C58.996 41.2882 57.5198 37.7295 54.8951 35.1049C52.2705 32.4802 48.7118 31.004 45 31ZM45 57C42.6266 57 40.3066 56.2962 38.3332 54.9776C36.3598 53.659 34.8217 51.7849 33.9135 49.5922C33.0052 47.3995 32.7676 44.9867 33.2306 42.6589C33.6936 40.3311 34.8365 38.1929 36.5147 36.5147C38.193 34.8365 40.3311 33.6936 42.6589 33.2306C44.9867 32.7676 47.3995 33.0052 49.5922 33.9134C51.7849 34.8217 53.6591 36.3598 54.9776 38.3332C56.2962 40.3065 57 42.6266 57 45C56.9966 48.1815 55.7312 51.2318 53.4815 53.4815C51.2318 55.7312 48.1815 56.9966 45 57Z" fill="#ED3B41"/>
<path d="M40.7923 38C40.3519 38 40.0018 38.3056 40.0018 38.6901C40.0018 39.0746 40.3519 39.3803 40.7923 39.3803H43.491C45.0154 39.3803 46.2913 40.2972 46.6414 41.5296H40.7923C40.3519 41.5296 40.0018 41.8352 40.0018 42.2197C40.0018 42.6042 40.3519 42.9099 40.7923 42.9099H46.6414C46.2913 44.1423 45.0041 45.0592 43.491 45.0592H40.7923C40.4648 45.0592 40.1825 45.2268 40.0583 45.493C39.9341 45.7592 40.0131 46.0549 40.2502 46.2521L46.9914 51.8127C47.1495 51.9408 47.3415 52 47.5334 52C47.748 52 47.9512 51.931 48.1093 51.7831C48.4142 51.507 48.3916 51.0732 48.0754 50.807L42.7796 46.4394H43.491C45.8848 46.4394 47.8835 44.9113 48.2561 42.9099H50.2096C50.65 42.9099 51 42.6042 51 42.2197C51 41.8352 50.65 41.5296 50.2096 41.5296H48.2561C48.098 40.7113 47.6802 39.9718 47.0592 39.3803H50.2096C50.65 39.3803 51 39.0746 51 38.6901C51 38.3056 50.65 38 50.2096 38H43.4797H40.7923Z" fill="#ED3B41"/>
<path d="M22.4089 49.0863H18.1405V41.6167C18.1405 41.3337 18.0281 41.0623 17.828 40.8621C17.6279 40.662 17.3565 40.5496 17.0734 40.5496C16.7904 40.5496 16.519 40.662 16.3189 40.8621C16.1188 41.0623 16.0063 41.3337 16.0063 41.6167V49.0863H13.8722V45.8851C13.8722 45.602 13.7597 45.3306 13.5596 45.1305C13.3595 44.9304 13.0881 44.818 12.8051 44.818C12.5221 44.818 12.2506 44.9304 12.0505 45.1305C11.8504 45.3306 11.738 45.602 11.738 45.8851V49.0863H9.60379V39.4825C9.60379 39.1995 9.49136 38.9281 9.29125 38.7279C9.09113 38.5278 8.81971 38.4154 8.5367 38.4154C8.25369 38.4154 7.98227 38.5278 7.78215 38.7279C7.58203 38.9281 7.4696 39.1995 7.4696 39.4825V50.1534C7.4696 50.4364 7.58203 50.7079 7.78215 50.908C7.98227 51.1081 8.25369 51.2205 8.5367 51.2205H22.4089C22.6919 51.2205 22.9633 51.1081 23.1635 50.908C23.3636 50.7079 23.476 50.4364 23.476 50.1534C23.476 49.8704 23.3636 49.599 23.1635 49.3989C22.9633 49.1988 22.6919 49.0863 22.4089 49.0863Z" fill="#ED3B41"/>
<path d="M49.0863 23.4761C49.3693 23.4761 49.6407 23.3637 49.8409 23.1636C50.041 22.9634 50.1534 22.692 50.1534 22.409V10.0457L51.5332 11.4254C51.7344 11.6198 52.004 11.7273 52.2838 11.7249C52.5635 11.7225 52.8312 11.6103 53.029 11.4124C53.2269 11.2146 53.3391 10.9469 53.3415 10.6671C53.344 10.3873 53.2364 10.1178 53.042 9.91654L49.8408 6.71526C49.6406 6.51521 49.3693 6.40283 49.0863 6.40283C48.8034 6.40283 48.532 6.51521 48.3319 6.71526L45.1306 9.91654C44.9362 10.1178 44.8287 10.3873 44.8311 10.6671C44.8335 10.9469 44.9458 11.2146 45.1436 11.4124C45.3414 11.6103 45.6091 11.7225 45.8889 11.7249C46.1687 11.7273 46.4382 11.6198 46.6395 11.4254L48.0192 10.0457V22.409C48.0192 22.692 48.1316 22.9634 48.3318 23.1636C48.5319 23.3637 48.8033 23.4761 49.0863 23.4761Z" fill="#ED3B41"/>
<path d="M54.06 24.7565C54.2153 24.8408 54.3892 24.8848 54.5658 24.8846C54.7585 24.8848 54.9476 24.8328 55.1132 24.7341C55.2787 24.6355 55.4144 24.4939 55.5059 24.3243L61.3749 13.44L61.9341 15.3106C62 15.5305 62.135 15.7233 62.3192 15.8604C62.5034 15.9974 62.7268 16.0715 62.9564 16.0714C63.0598 16.0717 63.1626 16.0566 63.2616 16.0266C63.5326 15.9456 63.7605 15.7603 63.8949 15.5114C64.0294 15.2624 64.0595 14.9703 63.9786 14.6992L62.6843 10.3657C62.6033 10.0948 62.4181 9.86722 62.1694 9.73277C61.9207 9.59833 61.6288 9.56806 61.3579 9.64861L57.0201 10.9451C56.7544 11.0306 56.5327 11.2167 56.4026 11.4637C56.2726 11.7107 56.2444 11.9988 56.3243 12.2663C56.4041 12.5337 56.5856 12.7593 56.8298 12.8945C57.074 13.0297 57.3614 13.0639 57.6305 12.9897L59.5001 12.4305L53.631 23.3149C53.4977 23.5631 53.468 23.854 53.5483 24.1241C53.6287 24.3942 53.8127 24.6215 54.06 24.7565Z" fill="#ED3B41"/>
</svg>
