<svg width="50" height="50" viewBox="0 0 50 50" fill="none" xmlns="http://www.w3.org/2000/svg">
<path d="M24.9994 16.7555C23.3689 16.7555 21.775 17.239 20.4193 18.1449C19.0636 19.0507 18.0069 20.3383 17.383 21.8446C16.759 23.351 16.5957 25.0086 16.9138 26.6078C17.2319 28.207 18.0171 29.6759 19.1701 30.8289C20.323 31.9818 21.7919 32.767 23.3911 33.0851C24.9903 33.4032 26.6479 33.2399 28.1543 32.616C29.6607 31.992 30.9482 30.9353 31.8541 29.5796C32.7599 28.2239 33.2434 26.63 33.2434 24.9995C33.2409 22.8138 32.3716 20.7184 30.8261 19.1729C29.2806 17.6274 27.1851 16.758 24.9994 16.7555ZM24.9994 31.876C23.6394 31.876 22.3099 31.4727 21.1791 30.7171C20.0482 29.9615 19.1668 28.8875 18.6464 27.631C18.1259 26.3745 17.9897 24.9919 18.2551 23.658C18.5204 22.324 19.1753 21.0988 20.137 20.1371C21.0987 19.1754 22.324 18.5205 23.6579 18.2551C24.9918 17.9898 26.3745 18.126 27.631 18.6464C28.8875 19.1669 29.9614 20.0483 30.717 21.1791C31.4726 22.3099 31.8759 23.6394 31.8759 24.9995C31.8738 26.8226 31.1487 28.5704 29.8595 29.8596C28.5704 31.1487 26.8226 31.8739 24.9994 31.876ZM46.5779 21.576C45.7895 21.577 45.0254 21.8498 44.4146 22.3485C43.8039 22.8471 43.3837 23.5411 43.2249 24.3135H39.1809C39.1514 23.6838 39.0802 23.0568 38.9679 22.4365C38.9448 22.31 38.8866 22.1926 38.8 22.0977C38.7133 22.0027 38.6018 21.9341 38.4779 21.8995L36.0539 21.2285C35.8937 20.7568 35.7026 20.2961 35.4819 19.8495L36.7199 17.6635C36.7833 17.5517 36.8139 17.4242 36.8082 17.2958C36.8024 17.1674 36.7606 17.0432 36.6874 16.9375C36.328 16.4184 35.9348 15.9235 35.5104 15.456L38.3699 12.5965C38.8151 12.891 39.323 13.0772 39.853 13.1404C40.383 13.2036 40.9204 13.142 41.4223 12.9604C41.9242 12.7789 42.3767 12.4824 42.7437 12.0948C43.1106 11.7072 43.3818 11.2391 43.5355 10.728C43.6893 10.2169 43.7214 9.67691 43.6293 9.15118C43.5371 8.62545 43.3233 8.12855 43.0049 7.70019C42.6865 7.27183 42.2723 6.92388 41.7954 6.68415C41.3185 6.44441 40.7922 6.31953 40.2584 6.31949C39.6403 6.32001 39.0339 6.4879 38.5035 6.80533C37.9731 7.12276 37.5386 7.57788 37.246 8.12239C36.9535 8.66689 36.8138 9.28045 36.8419 9.89793C36.8699 10.5154 37.0647 11.1138 37.4054 11.6295L34.5459 14.489C34.0786 14.0652 33.5837 13.6728 33.0644 13.3145C32.959 13.2413 32.835 13.1994 32.7067 13.1935C32.5784 13.1877 32.4511 13.2182 32.3394 13.2815L30.1494 14.518C29.7019 14.2981 29.2408 14.1069 28.7689 13.9455L28.0994 11.5235C28.0652 11.4001 27.997 11.2888 27.9026 11.2022C27.8082 11.1157 27.6914 11.0574 27.5654 11.034C26.9443 10.92 26.3162 10.8481 25.6854 10.819V6.77399C26.5163 6.60453 27.2546 6.1326 27.7573 5.44969C28.2599 4.76678 28.4911 3.92155 28.4059 3.07789C28.3207 2.23423 27.9253 1.45224 27.2964 0.883555C26.6674 0.314869 25.8496 0 25.0017 0C24.1537 0 23.336 0.314869 22.707 0.883555C22.078 1.45224 21.6826 2.23423 21.5975 3.07789C21.5123 3.92155 21.7435 4.76678 22.2461 5.44969C22.7488 6.1326 23.4871 6.60453 24.3179 6.77399V10.819C23.6873 10.8482 23.0594 10.92 22.4384 11.034C22.3125 11.0574 22.1956 11.1158 22.1012 11.2024C22.0068 11.2891 21.9386 11.4005 21.9044 11.524L21.2329 13.9455C20.7612 14.1067 20.3002 14.2979 19.8529 14.518L17.6649 13.2815C17.5533 13.2182 17.426 13.1877 17.2978 13.1935C17.1695 13.1992 17.0455 13.241 16.9399 13.314C16.4205 13.6723 15.9256 14.0648 15.4584 14.489L12.5964 11.6295C12.9374 11.1136 13.1323 10.515 13.1603 9.8973C13.1884 9.27957 13.0486 8.66577 12.7558 8.12112C12.463 7.57648 12.0281 7.12132 11.4973 6.80401C10.9666 6.4867 10.3598 6.31909 9.74144 6.31899H9.73894C9.20578 6.31998 8.68024 6.44556 8.20423 6.6857C7.72822 6.92583 7.31492 7.27389 6.99729 7.7021C6.67966 8.13031 6.4665 8.62682 6.3748 9.15203C6.28311 9.67724 6.31542 10.2166 6.46916 10.7271C6.6229 11.2376 6.89382 11.7051 7.2603 12.0924C7.62678 12.4796 8.07868 12.7758 8.57995 12.9574C9.08122 13.139 9.618 13.2009 10.1475 13.1383C10.6769 13.0756 11.1844 12.8901 11.6294 12.5965L14.4889 15.456C14.0648 15.9232 13.6722 16.4181 13.3139 16.9375C13.2409 17.0431 13.1992 17.1671 13.1934 17.2953C13.1877 17.4235 13.2182 17.5508 13.2814 17.6625L14.5174 19.8495C14.2972 20.2969 14.106 20.758 13.9449 21.23L11.5239 21.9015C11.4 21.9358 11.2883 22.0043 11.2015 22.0992C11.1148 22.1941 11.0565 22.3115 11.0334 22.438C10.9208 23.0583 10.849 23.6853 10.8184 24.315H6.77394C6.60442 23.4842 6.13246 22.7459 5.44953 22.2433C4.76661 21.7407 3.9214 21.5096 3.07776 21.5948C2.23412 21.68 1.45217 22.0754 0.883512 22.7044C0.314852 23.3333 0 24.1511 0 24.999C0 25.8469 0.314852 26.6646 0.883512 27.2936C1.45217 27.9226 2.23412 28.318 3.07776 28.4032C3.9214 28.4884 4.76661 28.2573 5.44953 27.7547C6.13246 27.2521 6.60442 26.5138 6.77394 25.683H10.8184C10.849 26.3127 10.9208 26.9397 11.0334 27.56C11.0564 27.6866 11.1146 27.8041 11.2014 27.8991C11.2882 27.9941 11.4 28.0627 11.5239 28.097L13.9449 28.768C14.106 29.2403 14.2972 29.7017 14.5174 30.1495L13.2814 32.337C13.2182 32.4487 13.1877 32.5759 13.1934 32.7042C13.1992 32.8324 13.2409 32.9564 13.3139 33.062C13.6724 33.5815 14.0649 34.0766 14.4889 34.544L11.6304 37.4045C11.0707 37.0327 10.4134 36.835 9.74144 36.8365H9.73894C8.83846 36.8474 7.97857 37.2127 7.34565 37.8533C6.71273 38.494 6.3578 39.3582 6.3578 40.2588C6.3578 41.1593 6.71273 42.0235 7.34565 42.6642C7.97857 43.3048 8.83846 43.6701 9.73894 43.681H9.74144C10.3599 43.6813 10.9669 43.5141 11.4979 43.197C12.0289 42.88 12.4642 42.425 12.7573 41.8804C13.0504 41.3358 13.1905 40.722 13.1628 40.1042C13.135 39.4863 12.9403 38.8876 12.5994 38.3715L15.4584 35.5105C15.9257 35.9344 16.4207 36.3267 16.9399 36.685C17.0455 36.758 17.1695 36.7998 17.2978 36.8055C17.426 36.8113 17.5533 36.7808 17.6649 36.7175L19.8494 35.481C20.2967 35.7013 20.7576 35.8925 21.2294 36.0535L21.9009 38.4755C21.9351 38.5989 22.0033 38.7103 22.0978 38.7968C22.1922 38.8834 22.309 38.9416 22.4349 38.965C23.0558 39.0796 23.6838 39.1517 24.3144 39.181V43.225C23.4835 43.3945 22.745 43.8664 22.2423 44.5494C21.7395 45.2325 21.5083 46.0778 21.5935 46.9216C21.6786 47.7654 22.0741 48.5475 22.7032 49.1163C23.3322 49.6851 24.1501 50 24.9982 50C25.8463 50 26.6641 49.6851 27.2932 49.1163C27.9223 48.5475 28.3177 47.7654 28.4029 46.9216C28.4881 46.0778 28.2569 45.2325 27.7541 44.5494C27.2514 43.8664 26.5129 43.3945 25.6819 43.225V39.181C26.3128 39.1517 26.9409 39.0796 27.5619 38.965C27.6878 38.9416 27.8046 38.8834 27.899 38.797C27.9934 38.7105 28.0616 38.5993 28.0959 38.476L28.7699 36.0535C29.2415 35.8923 29.7023 35.7011 30.1494 35.481L32.3374 36.7175C32.4492 36.7807 32.5765 36.8111 32.7047 36.8053C32.8329 36.7994 32.9569 36.7576 33.0624 36.6845C33.5809 36.3264 34.075 35.9342 34.5414 35.5105L37.4014 38.371C37.0613 38.8866 36.867 39.4845 36.839 40.1016C36.8111 40.7186 36.9506 41.3317 37.2427 41.8759C37.5348 42.4201 37.9687 42.8751 38.4984 43.1928C39.028 43.5105 39.6338 43.679 40.2514 43.6805C40.7013 43.6817 41.147 43.5935 41.5626 43.4212C41.9782 43.2488 42.3554 42.9957 42.6724 42.6765C43.1507 42.1978 43.4763 41.588 43.608 40.9243C43.7398 40.2606 43.6718 39.5727 43.4127 38.9476C43.1536 38.3225 42.715 37.7883 42.1523 37.4124C41.5896 37.0366 40.9281 36.836 40.2514 36.836C39.5807 36.8348 38.9246 37.0322 38.3659 37.4035L35.5059 34.5435C35.9303 34.076 36.3235 33.5811 36.6829 33.062C36.7561 32.9563 36.7979 32.8321 36.8037 32.7037C36.8094 32.5753 36.7788 32.4478 36.7154 32.336L35.4819 30.1495C35.7027 29.702 35.8938 29.2405 36.0539 28.768L38.4779 28.0995C38.6018 28.0651 38.7135 27.9965 38.8002 27.9015C38.8869 27.8065 38.945 27.689 38.9679 27.5625C39.0802 26.9422 39.1514 26.3152 39.1809 25.6855H43.2249C43.3543 26.32 43.661 26.9047 44.1094 27.3719C44.5579 27.839 45.1297 28.1693 45.7583 28.3244C46.387 28.4795 47.0468 28.453 47.661 28.2481C48.2753 28.0431 48.8188 27.6681 49.2284 27.1666C49.638 26.6651 49.8969 26.0576 49.975 25.4148C50.0531 24.772 49.9473 24.1202 49.6697 23.5352C49.3921 22.9502 48.9543 22.4559 48.407 22.1098C47.8597 21.7637 47.2255 21.58 46.5779 21.58V21.576ZM38.8069 8.28899C38.9969 8.09799 39.2229 7.9466 39.4718 7.8436C39.7207 7.7406 39.9876 7.68805 40.2569 7.68899C40.7336 7.68774 41.1959 7.85189 41.565 8.15344C41.9341 8.45498 42.1872 8.87524 42.281 9.34253C42.3749 9.80983 42.3037 10.2952 42.0796 10.7159C41.8556 11.1366 41.4925 11.4665 41.0524 11.6494C40.6122 11.8323 40.1223 11.8568 39.6661 11.7188C39.2099 11.5807 38.8157 11.2887 38.5507 10.8925C38.2858 10.4963 38.1665 10.0205 38.2132 9.54614C38.26 9.07181 38.4698 8.62838 38.8069 8.29149V8.28899ZM22.9454 3.42098C22.9454 3.01474 23.0659 2.61762 23.2916 2.27984C23.5173 1.94206 23.8381 1.6788 24.2134 1.52334C24.5887 1.36787 25.0017 1.3272 25.4002 1.40645C25.7986 1.48571 26.1646 1.68133 26.4518 1.96859C26.7391 2.25584 26.9347 2.62183 27.014 3.02027C27.0932 3.41871 27.0526 3.8317 26.8971 4.20702C26.7416 4.58234 26.4784 4.90313 26.1406 5.12882C25.8028 5.35452 25.4057 5.47499 24.9994 5.47499C24.4549 5.47432 23.9328 5.25771 23.5478 4.87265C23.1627 4.4876 22.9461 3.96554 22.9454 3.42098ZM8.28994 11.196C7.90556 10.81 7.68975 10.2875 7.68975 9.74274C7.68975 9.19801 7.90556 8.67547 8.28994 8.28949C8.47985 8.09844 8.70583 7.94702 8.95474 7.84402C9.20366 7.74102 9.47055 7.6885 9.73994 7.68949C10.0779 7.68921 10.4107 7.77227 10.7088 7.93132C11.007 8.09037 11.2613 8.32049 11.4493 8.60131C11.6373 8.88214 11.7532 9.20498 11.7866 9.54126C11.82 9.87754 11.77 10.2169 11.6409 10.5292C11.5119 10.8415 11.3078 11.1172 11.0468 11.3318C10.7857 11.5465 10.4758 11.6934 10.1444 11.7596C9.81304 11.8259 9.47044 11.8094 9.14697 11.7116C8.82349 11.6138 8.52912 11.4377 8.28994 11.199V11.196ZM3.42093 27.0535C3.01469 27.0535 2.61757 26.933 2.27979 26.7073C1.94201 26.4816 1.67875 26.1608 1.52328 25.7855C1.36782 25.4102 1.32715 24.9972 1.4064 24.5988C1.48565 24.2003 1.68128 23.8344 1.96854 23.5471C2.25579 23.2598 2.62178 23.0642 3.02022 22.985C3.41866 22.9057 3.83165 22.9464 4.20697 23.1018C4.58229 23.2573 4.90308 23.5206 5.12877 23.8583C5.35447 24.1961 5.47494 24.5932 5.47494 24.9995C5.47427 25.544 5.25766 26.0661 4.8726 26.4512C4.48755 26.8362 3.96549 27.0528 3.42093 27.0535ZM11.1954 41.7095C11.005 41.9012 10.7784 42.0532 10.5289 42.1568C10.2793 42.2604 10.0117 42.3135 9.74144 42.313C9.47209 42.3138 9.20526 42.2611 8.95637 42.1582C8.70749 42.0552 8.48149 41.9039 8.29144 41.713C8.0047 41.4258 7.80946 41.0601 7.73035 40.662C7.65123 40.2639 7.69179 39.8513 7.8469 39.4763C8.002 39.1013 8.26472 38.7806 8.60189 38.5547C8.93906 38.3288 9.33558 38.2078 9.74144 38.207C10.1476 38.207 10.5447 38.3274 10.8825 38.553C11.2203 38.7786 11.4836 39.0993 11.6392 39.4745C11.7948 39.8497 11.8357 40.2626 11.7567 40.661C11.6777 41.0595 11.4824 41.4255 11.1954 41.713V41.7095ZM27.0534 46.578C27.0534 46.9842 26.933 47.3814 26.7073 47.7191C26.4816 48.0569 26.1608 48.3202 25.7855 48.4757C25.4102 48.6311 24.9972 48.6718 24.5987 48.5925C24.2003 48.5133 23.8343 48.3177 23.547 48.0304C23.2598 47.7431 23.0642 47.3772 22.9849 46.9787C22.9057 46.5803 22.9463 46.1673 23.1018 45.792C23.2573 45.4167 23.5205 45.0959 23.8583 44.8702C24.1961 44.6445 24.5932 44.524 24.9994 44.524C25.544 44.5247 26.0661 44.7413 26.4511 45.1263C26.8362 45.5114 27.0528 46.0334 27.0534 46.578ZM40.2569 38.2035C40.7963 38.2119 41.3108 38.4321 41.6893 38.8165C42.0678 39.2009 42.2799 39.7188 42.2799 40.2583C42.2799 40.7977 42.0678 41.3156 41.6893 41.7C41.3108 42.0844 40.7963 42.3046 40.2569 42.313C39.7175 42.3046 39.2031 42.0844 38.8246 41.7C38.4461 41.3156 38.234 40.7977 38.234 40.2583C38.234 39.7188 38.4461 39.2009 38.8246 38.8165C39.2031 38.4321 39.7175 38.2119 40.2569 38.2035ZM37.6914 26.896L35.3334 27.5495C35.2225 27.5802 35.1211 27.6385 35.0386 27.7189C34.9562 27.7994 34.8954 27.8993 34.8619 28.0095C34.67 28.6437 34.4158 29.2574 34.1029 29.8415C34.0481 29.9433 34.0199 30.0573 34.0211 30.1729C34.0224 30.2885 34.0529 30.4019 34.1099 30.5025L35.3149 32.6305C34.5584 33.6525 33.6544 34.5565 32.6324 35.313L30.5039 34.1095C30.4044 34.0533 30.2923 34.0229 30.178 34.0212C30.0636 34.0194 29.9507 34.0464 29.8494 34.0995C29.2634 34.4114 28.6487 34.6662 28.0139 34.8605C27.9038 34.8939 27.804 34.9546 27.7236 35.0369C27.6433 35.1193 27.5851 35.2206 27.5544 35.3315L26.8984 37.6885C25.6411 37.8747 24.3632 37.8747 23.1059 37.6885L22.4494 35.3335C22.4187 35.2224 22.3603 35.121 22.2798 35.0385C22.1993 34.9561 22.0992 34.8954 21.9889 34.862C21.3543 34.6676 20.7399 34.4122 20.1544 34.0995C20.0531 34.0463 19.9401 34.0193 19.8257 34.0211C19.7112 34.0228 19.5991 34.0532 19.4994 34.1095L17.3709 35.3125C16.348 34.5571 15.4438 33.6529 14.6884 32.63L15.8894 30.4995C15.946 30.3993 15.9764 30.2864 15.9778 30.1713C15.9792 30.0562 15.9516 29.9426 15.8974 29.841C15.5847 29.2559 15.33 28.6417 15.1369 28.007C15.1035 27.8968 15.0427 27.7969 14.9603 27.7164C14.8778 27.636 14.7764 27.5777 14.6654 27.547L12.3099 26.894C12.1213 25.6367 12.1213 24.3583 12.3099 23.101L14.6654 22.4495C14.7764 22.4187 14.8778 22.3605 14.9603 22.28C15.0427 22.1996 15.1035 22.0997 15.1369 21.9895C15.3307 21.3549 15.5861 20.7408 15.8994 20.156C15.9529 20.0545 15.98 19.9412 15.9783 19.8265C15.9765 19.7117 15.946 19.5993 15.8894 19.4995L14.6864 17.371C15.4418 16.3481 16.346 15.4439 17.3689 14.6885L19.4994 15.8895C19.5995 15.9459 19.712 15.9762 19.8269 15.9777C19.9417 15.9792 20.055 15.9518 20.1564 15.898C20.7422 15.586 21.3567 15.3314 21.9914 15.1375C22.1018 15.1041 22.2019 15.0433 22.2824 14.9607C22.3629 14.8782 22.4213 14.7766 22.4519 14.6655L23.1054 12.309C24.3627 12.1227 25.6406 12.1227 26.8979 12.309L27.5539 14.666C27.5846 14.7769 27.6428 14.8782 27.7231 14.9606C27.8035 15.0429 27.9033 15.1036 28.0134 15.137C28.6485 15.3317 29.2633 15.587 29.8494 15.8995C29.9509 15.9533 30.0642 15.9807 30.179 15.9792C30.2938 15.9777 30.4064 15.9474 30.5064 15.891L32.6349 14.688C33.6568 15.4446 34.5608 16.3486 35.3174 17.3705L34.1124 19.4985C34.0554 19.5991 34.0249 19.7125 34.0236 19.8281C34.0224 19.9437 34.0506 20.0577 34.1054 20.1595C34.4183 20.7436 34.6725 21.3573 34.8644 21.9915C34.8979 22.1017 34.9587 22.2016 35.0411 22.282C35.1236 22.3625 35.225 22.4207 35.3359 22.4515L37.6939 23.1045C37.8793 24.362 37.8793 25.64 37.6939 26.8975L37.6914 26.896ZM46.5779 27.0535C46.1717 27.0535 45.7746 26.933 45.4368 26.7073C45.099 26.4816 44.8358 26.1608 44.6803 25.7855C44.5248 25.4102 44.4842 24.9972 44.5634 24.5988C44.6427 24.2003 44.8383 23.8344 45.1255 23.5471C45.4128 23.2598 45.7788 23.0642 46.1772 22.985C46.5757 22.9057 46.9887 22.9464 47.364 23.1018C47.7393 23.2573 48.0601 23.5206 48.2858 23.8583C48.5115 24.1961 48.632 24.5932 48.632 24.9995C48.6313 25.544 48.4147 26.0661 48.0296 26.4512C47.6446 26.8362 47.1225 27.0528 46.5779 27.0535ZM24.9994 20.922C24.193 20.922 23.4046 21.1611 22.7341 21.6092C22.0636 22.0572 21.5409 22.694 21.2323 23.4391C20.9237 24.1842 20.843 25.004 21.0003 25.795C21.1576 26.5859 21.546 27.3125 22.1162 27.8827C22.6865 28.453 23.413 28.8413 24.204 28.9986C24.9949 29.156 25.8148 29.0752 26.5598 28.7666C27.3049 28.458 27.9417 27.9354 28.3898 27.2648C28.8378 26.5943 29.0769 25.8059 29.0769 24.9995C29.0758 23.9184 28.6458 22.882 27.8814 22.1176C27.1169 21.3532 26.0805 20.9232 24.9994 20.922ZM24.9994 27.7095C24.4635 27.7095 23.9395 27.5506 23.4938 27.2528C23.0482 26.955 22.7008 26.5318 22.4957 26.0366C22.2906 25.5414 22.2369 24.9965 22.3415 24.4708C22.4461 23.9451 22.7042 23.4622 23.0832 23.0832C23.4622 22.7042 23.9451 22.4461 24.4707 22.3416C24.9964 22.237 25.5413 22.2907 26.0365 22.4958C26.5317 22.7009 26.9549 23.0482 27.2527 23.4939C27.5505 23.9396 27.7094 24.4635 27.7094 24.9995C27.7086 25.718 27.4229 26.4068 26.9148 26.9149C26.4068 27.4229 25.7179 27.7087 24.9994 27.7095Z" fill="#ED3B41"/>
</svg>
