<svg width="47" height="50" viewBox="0 0 47 50" fill="none" xmlns="http://www.w3.org/2000/svg">
<path d="M30.08 0H26.32H25.38H10.34H9.4H5.64C2.52954 0 0 2.2425 0 5V45C0 47.7575 2.52954 50 5.64 50H30.08C33.1905 50 35.72 47.7575 35.72 45V40H42.3C44.8916 40 47 38.1308 47 35.8333V34.1667C47 33.7067 46.5789 33.3333 46.06 33.3333H41.36V15.8333C41.36 13.5358 39.2516 11.6667 36.66 11.6667H35.72V5C35.72 2.2425 33.1905 0 30.08 0ZM22.733 1.66667C22.6277 1.92833 22.56 2.20667 22.56 2.5C22.56 2.95917 22.1379 3.33333 21.62 3.33333H14.1C13.5821 3.33333 13.16 2.95917 13.16 2.5C13.16 2.20667 13.0923 1.92833 12.987 1.66667H22.733ZM33.84 45C33.84 46.8383 32.1536 48.3333 30.08 48.3333H5.64C3.56636 48.3333 1.88 46.8383 1.88 45V5C1.88 3.16167 3.56636 1.66667 5.64 1.66667H9.4H10.34C10.8579 1.66667 11.28 2.04083 11.28 2.5C11.28 3.87833 12.5452 5 14.1 5H21.62C23.1748 5 24.44 3.87833 24.44 2.5C24.44 2.04083 24.8621 1.66667 25.38 1.66667H26.32H30.08C32.1536 1.66667 33.84 3.16167 33.84 5V11.6667H17.86C15.5908 11.6667 13.692 13.1008 13.2549 15H7.46C6.94112 15 6.52 15.3733 6.52 15.8333V30.8333C6.52 31.2933 6.94112 31.6667 7.46 31.6667H17.8V30H8.4V16.6667H17.8V15H15.213C15.6021 14.0325 16.6361 13.3333 17.86 13.3333C19.4148 13.3333 20.68 14.455 20.68 15.8333V36.6667C20.68 38.505 22.3664 40 24.44 40H33.84V45ZM45.12 35.8333C45.12 37.2117 43.8548 38.3333 42.3 38.3333H27.6952C28.0167 37.8425 28.2 37.2733 28.2 36.6667V35H45.12V35.8333ZM39.48 15.8333V33.3333H27.26C26.7411 33.3333 26.32 33.7067 26.32 34.1667V36.6667C26.32 37.5858 25.4768 38.3333 24.44 38.3333C23.4032 38.3333 22.56 37.5858 22.56 36.6667V15.8333C22.56 14.8917 22.1925 14.0317 21.5956 13.3333H36.66C38.2148 13.3333 39.48 14.455 39.48 15.8333Z" fill="#ED3B41"/>
<path d="M30.8473 29.1811C30.0057 29.1776 29.2866 28.9556 28.69 28.5153C28.0934 28.0749 27.6371 27.4339 27.321 26.5923C27.005 25.7507 26.8469 24.7369 26.8469 23.5508C26.8469 22.3683 27.005 21.358 27.321 20.5199C27.6406 19.6818 28.0987 19.0426 28.6953 18.6023C29.2955 18.1619 30.0128 17.9418 30.8473 17.9418C31.6818 17.9418 32.3974 18.1637 32.994 18.6076C33.5906 19.0479 34.0469 19.6871 34.3629 20.5252C34.6825 21.3597 34.8423 22.3683 34.8423 23.5508C34.8423 24.7404 34.6843 25.756 34.3683 26.5977C34.0522 27.4357 33.5959 28.0767 32.9993 28.5206C32.4027 28.9609 31.6854 29.1811 30.8473 29.1811ZM30.8473 27.7589C31.5859 27.7589 32.163 27.3984 32.5785 26.6776C32.9975 25.9567 33.207 24.9144 33.207 23.5508C33.207 22.6452 33.1112 21.88 32.9194 21.255C32.7312 20.6264 32.4595 20.1506 32.1044 19.8274C31.7528 19.5007 31.3338 19.3374 30.8473 19.3374C30.1122 19.3374 29.5352 19.6996 29.1161 20.424C28.6971 21.1484 28.4858 22.1907 28.4822 23.5508C28.4822 24.4599 28.5763 25.2287 28.7646 25.8572C28.9563 26.4822 29.228 26.9563 29.5795 27.2795C29.9311 27.5991 30.3537 27.7589 30.8473 27.7589Z" fill="#ED3B41"/>
<path d="M17.8 35H6.45996V36.6667H17.8V35Z" fill="#ED3B41"/>
<path d="M17.8 40H6.45996V41.6667H17.8V40Z" fill="#ED3B41"/>
<path d="M29.56 7.5H7V9.16667H29.56V7.5Z" fill="#ED3B41"/>
</svg>
