<?xml version="1.0" encoding="utf-8"?>
<!-- Generator: Adobe Illustrator 27.4.1, SVG Export Plug-In . SVG Version: 6.00 Build 0)  -->
<svg version="1.1" id="Ebene_1" xmlns="http://www.w3.org/2000/svg" xmlns:xlink="http://www.w3.org/1999/xlink" x="0px" y="0px"
	 viewBox="0 0 52.482 48" style="enable-background:new 0 0 52.482 48;" xml:space="preserve">
<style type="text/css">
	.st0{fill:none;stroke:#000000;stroke-width:2;stroke-linecap:round;stroke-linejoin:round;}
</style>
<g id="Gruppe_2022" transform="translate(0 0)">
	<g id="Gruppe_2019">
		<g>
			<g id="Gruppe_2018">
				<path id="Pfad_789" class="st0" d="M36.182,12.007h15.333v35.048H1.133V12.007h15.334"/>
				<line id="Linie_351" class="st0" x1="1.133" y1="20.77" x2="51.515" y2="20.77"/>
			</g>
		</g>
	</g>
	<line id="Linie_352" class="st0" x1="27.42" y1="29.532" x2="36.182" y2="29.532"/>
	<line id="Linie_353" class="st0" x1="27.42" y1="33.912" x2="40.562" y2="33.912"/>
	<line id="Linie_354" class="st0" x1="27.42" y1="38.294" x2="38.372" y2="38.294"/>
	<g id="Gruppe_2021">
		<g>
			<g id="Gruppe_2020">
				<path id="Pfad_790" class="st0" d="M26.324,1.055c-3.024,0-5.476,2.452-5.476,5.476v9.858H31.8V6.531
					C31.8,3.507,29.348,1.055,26.324,1.055z"/>
				<circle id="Ellipse_98" class="st0" cx="15.371" cy="30.626" r="3.286"/>
				<path id="Pfad_791" class="st0" d="M20.848,40.484H9.895c0-3.629,2.452-6.578,5.476-6.578S20.848,36.855,20.848,40.484z"/>
			</g>
		</g>
	</g>
</g>
</svg>
