<?xml version="1.0" encoding="utf-8"?>
<!-- Generator: Adobe Illustrator 27.4.1, SVG Export Plug-In . SVG Version: 6.00 Build 0)  -->
<svg version="1.1" id="Ebene_1" xmlns="http://www.w3.org/2000/svg" xmlns:xlink="http://www.w3.org/1999/xlink" x="0px" y="0px"
	 viewBox="0 0 74.054 48" style="enable-background:new 0 0 74.054 48;" xml:space="preserve">
<style type="text/css">
	.st0{fill:none;stroke:#000000;stroke-width:2;stroke-linejoin:round;}
	.st1{fill:none;stroke:#000000;stroke-width:2;stroke-linecap:round;stroke-linejoin:round;}
</style>
<g id="Gruppe_2024" transform="translate(0 0)">
	<g>
		<g id="Gruppe_2023">
			<path id="Pfad_792" class="st0" d="M1.06,20.844v7.178c0,2.365,0.502,4.306,2.871,4.306v14.356h8.613V32.329
				c2.367,0,2.868-1.943,2.871-4.306v-7.178L1.06,20.844L1.06,20.844z"/>
			<circle id="Ellipse_99" class="st0" cx="8.238" cy="10.795" r="4.306"/>
			<path id="Pfad_793" class="st0" d="M58.681,20.844v7.178c0,2.365,0.502,4.306,2.879,4.306v14.356h8.598V32.329
				c2.367,0,2.868-1.943,2.879-4.306v-7.178L58.681,20.844L58.681,20.844z"/>
			<circle id="Ellipse_100" class="st0" cx="65.859" cy="10.798" r="4.306"/>
			<line id="Linie_355" class="st1" x1="22.274" y1="7.246" x2="35.912" y2="7.246"/>
			<line id="Linie_356" class="st1" x1="38.942" y1="14.822" x2="52.58" y2="14.822"/>
			<path id="Pfad_794" class="st1" d="M28.335,13.307l-6.061-6.061l6.061-6.061"/>
			<path id="Pfad_795" class="st1" d="M46.519,20.884l6.061-6.061l-6.061-6.061"/>
		</g>
	</g>
</g>
</svg>
