<?xml version="1.0" encoding="utf-8"?>
<!-- Generator: Adobe Illustrator 27.4.1, SVG Export Plug-In . SVG Version: 6.00 Build 0)  -->
<svg version="1.1" id="Ebene_1" xmlns="http://www.w3.org/2000/svg" xmlns:xlink="http://www.w3.org/1999/xlink" x="0px" y="0px"
	 viewBox="0 0 42.657 48" style="enable-background:new 0 0 42.657 48;" xml:space="preserve">
<style type="text/css">
	.st0{fill:none;stroke:#000000;stroke-width:2;stroke-linecap:round;stroke-miterlimit:10;}
</style>
<g>
	<g>
		<g id="Gruppe_1929_00000041992925193099641980000000977489551401254326_" transform="translate(0 0)">
			<path id="Pfad_757_00000095318631846410134840000010897969694987734446_" d="M25.825,14.743c-0.074,0.13-0.175,0.241-0.298,0.326
				c-0.12,0.07-0.257,0.104-0.396,0.098c-0.195-0.004-0.386-0.053-0.56-0.142c-0.192-0.095-0.417-0.201-0.672-0.319
				c-0.282-0.128-0.572-0.234-0.87-0.318c-0.376-0.102-0.765-0.15-1.155-0.142c-0.354-0.003-0.706,0.045-1.047,0.142
				c-0.273,0.075-0.53,0.2-0.757,0.367c-0.194,0.145-0.354,0.331-0.467,0.545c-0.108,0.205-0.164,0.433-0.164,0.665
				c-0.001,0.299,0.119,0.585,0.333,0.793c0.262,0.256,0.56,0.473,0.884,0.644c0.406,0.221,0.824,0.417,1.253,0.588
				c0.467,0.19,0.946,0.39,1.438,0.601s0.971,0.444,1.437,0.701c0.45,0.243,0.871,0.538,1.253,0.879
				c0.363,0.324,0.663,0.713,0.884,1.146c0.23,0.466,0.344,0.981,0.333,1.501c0.009,0.726-0.174,1.442-0.531,2.075
				c-0.403,0.661-0.999,1.182-1.709,1.492c0.417,0.34,0.769,0.753,1.041,1.217c0.28,0.506,0.42,1.079,0.404,1.657
				c0.007,0.663-0.121,1.32-0.376,1.932c-0.249,0.588-0.629,1.111-1.111,1.529c-0.534,0.452-1.153,0.794-1.82,1.005
				c-1.285,0.386-2.642,0.463-3.963,0.225c-0.468-0.087-0.927-0.212-1.374-0.374c-0.422-0.153-0.829-0.344-1.217-0.57
				c-0.352-0.203-0.681-0.441-0.984-0.712l0.822-1.33c0.09-0.147,0.212-0.272,0.356-0.366c0.162-0.091,0.346-0.134,0.531-0.127
				c0.219,0.001,0.433,0.064,0.617,0.184c0.19,0.122,0.419,0.254,0.686,0.396c0.304,0.16,0.621,0.292,0.948,0.397
				c0.45,0.134,0.918,0.196,1.387,0.184c0.638,0.039,1.271-0.13,1.805-0.481c0.424-0.308,0.665-0.808,0.644-1.331
				c0.008-0.356-0.113-0.702-0.339-0.977c-0.255-0.296-0.563-0.543-0.907-0.729c-0.411-0.227-0.84-0.421-1.281-0.58
				c-0.475-0.175-0.961-0.361-1.458-0.56c-0.497-0.198-0.983-0.418-1.458-0.658c-0.461-0.23-0.892-0.517-1.281-0.854
				c-0.377-0.328-0.684-0.727-0.906-1.175c-0.529-1.171-0.437-2.529,0.246-3.617c0.447-0.634,1.07-1.124,1.791-1.41
				c-0.433-0.365-0.793-0.809-1.061-1.309c-0.289-0.567-0.431-1.198-0.411-1.834c-0.003-0.582,0.116-1.158,0.347-1.692
				c0.237-0.542,0.592-1.023,1.041-1.408c0.502-0.429,1.082-0.758,1.709-0.97c0.762-0.253,1.562-0.375,2.365-0.36
				c0.936-0.012,1.866,0.156,2.74,0.494c0.763,0.291,1.458,0.735,2.045,1.303L25.825,14.743z M18.549,22.104
				c-0.005,0.383,0.143,0.753,0.411,1.027c0.311,0.316,0.672,0.579,1.068,0.779c0.48,0.249,0.974,0.471,1.479,0.665
				c0.547,0.212,1.091,0.441,1.627,0.686c0.337-0.153,0.622-0.4,0.822-0.712c0.169-0.285,0.257-0.61,0.255-0.941
				c0.01-0.39-0.132-0.768-0.396-1.055c-0.301-0.315-0.65-0.58-1.034-0.786c-0.464-0.253-0.944-0.475-1.437-0.665
				c-0.533-0.208-1.065-0.434-1.593-0.679c-0.36,0.173-0.675,0.428-0.92,0.743c-0.192,0.276-0.292,0.605-0.285,0.941"/>
		</g>
	</g>
	<path class="st0" d="M10.532,6.007c-3.711,0-7.381-3.211-8.744-4.364C1.567,1.457,1.233,1.618,1.233,1.907v9.042
		c0,28.354,18.944,35.888,20.141,35.888c1.196,0,20.113-7.533,20.113-35.888v-9.05c0-0.289-0.335-0.45-0.555-0.264
		c-1.363,1.152-5.033,4.372-8.744,4.372c-6.094,0-9.691-3.887-10.843-4.671c-0.135-0.092-0.301-0.091-0.434,0.004
		C19.802,2.132,16.433,6.007,10.532,6.007z"/>
</g>
</svg>
