<?xml version="1.0" encoding="utf-8"?>
<!-- Generator: Adobe Illustrator 27.4.1, SVG Export Plug-In . SVG Version: 6.00 Build 0)  -->
<svg version="1.1" id="Ebene_1" xmlns="http://www.w3.org/2000/svg" xmlns:xlink="http://www.w3.org/1999/xlink" x="0px" y="0px"
	 viewBox="0 0 48 48" style="enable-background:new 0 0 48 48;" xml:space="preserve">
<style type="text/css">
	.st0{clip-path:url(#SVGID_00000129189674787060393370000017250587513050615718_);}
	.st1{fill:#002395;}
	.st2{fill:#FECB00;}
	.st3{fill:#FFFFFF;}
</style>
<g id="Gruppe_1889" transform="translate(-13.509 -3.012)">
	<g>
		<defs>
			<path id="SVGID_1_" d="M13.493,27.017c0,13.255,10.745,24,24,24s24-10.745,24-24s-10.745-24-24-24c0,0,0,0,0,0
				C24.238,3.017,13.493,13.763,13.493,27.017"/>
		</defs>
		<clipPath id="SVGID_00000168808299347758532130000003879654614060746165_">
			<use xlink:href="#SVGID_1_"  style="overflow:visible;"/>
		</clipPath>
		<g id="Gruppe_1889-2" style="clip-path:url(#SVGID_00000168808299347758532130000003879654614060746165_);">
			<rect id="Rechteck_789" x="-18.928" y="1.397" class="st1" width="105.571" height="52.786"/>
			<path id="Pfad_664" class="st2" d="M9.048,1.397h52.786v52.786L9.048,1.397z"/>
			<path id="Pfad_665" class="st3" d="M12.752,15.915l2.947,2.141l-1.126-3.463l2.947-2.143h-3.653l-1.116-3.461l-1.126,3.466H7.973
				l2.947,2.141l-1.126,3.466L12.752,15.915z"/>
			<path id="Pfad_666" class="st3" d="M19.342,22.513l2.947,2.141l-1.138-3.463l2.947-2.143h-3.631l-1.126-3.466l-1.126,3.466
				h-3.646l2.947,2.143l-1.126,3.463L19.342,22.513z"/>
			<path id="Pfad_667" class="st3" d="M25.94,29.11l2.947,2.141l-1.126-3.463l2.947-2.143h-3.643l-1.126-3.456l-1.126,3.466h-3.643
				l2.947,2.141l-1.126,3.466L25.94,29.11z"/>
			<path id="Pfad_668" class="st3" d="M32.537,35.71l2.947,2.141l-1.133-3.463l2.947-2.143h-3.636l-1.126-3.466l-1.126,3.466h-3.643
				l2.947,2.143l-1.126,3.463L32.537,35.71z"/>
			<path id="Pfad_669" class="st3" d="M39.135,42.308l2.947,2.141l-1.126-3.463l2.947-2.143H40.26l-1.126-3.454l-1.126,3.463h-3.643
				l2.947,2.143l-1.126,3.463L39.135,42.308z"/>
			<path id="Pfad_670" class="st3" d="M45.732,48.905l2.947,2.141l-1.128-3.463l2.947-2.143h-3.641l-1.126-3.466l-1.126,3.466
				h-3.643l2.947,2.141l-1.126,3.466L45.732,48.905z"/>
			<path id="Pfad_671" class="st3" d="M54.154,54.181l2.947-2.141h-3.643l-1.126-3.466l-1.126,3.466h-3.655l2.947,2.141
				l-1.126,3.466l2.947-2.143l2.947,2.143L54.154,54.181z"/>
		</g>
	</g>
</g>
</svg>
