<?xml version="1.0" encoding="utf-8"?>
<!-- Generator: Adobe Illustrator 27.4.1, SVG Export Plug-In . SVG Version: 6.00 Build 0)  -->
<svg version="1.1" id="Ebene_1" xmlns="http://www.w3.org/2000/svg" xmlns:xlink="http://www.w3.org/1999/xlink" x="0px" y="0px"
	 viewBox="0 0 48 48" style="enable-background:new 0 0 48 48;" xml:space="preserve">
<style type="text/css">
	.st0{clip-path:url(#SVGID_00000142856418362787885510000008511785165705579152_);}
	.st1{fill:#497A33;}
	.st2{fill:#DE1C29;}
	.st3{fill:#FAFAFA;}
	.st4{fill:none;stroke:#FFFFFF;stroke-width:0.057;stroke-miterlimit:2.5;}
</style>
<g id="Gruppe_853_00000013877233207262792820000016700448529603958663_" transform="translate(0 19.803) rotate(-90)">
	<g>
		<defs>
			<path id="SVGID_1_" d="M-28.202,23.984c0,13.255,10.745,24,24,24s24-10.745,24-24s-10.745-24-24-24c0,0,0,0,0,0
				C-17.457-0.016-28.202,10.729-28.202,23.984"/>
		</defs>
		<clipPath id="SVGID_00000017510521854705406050000002131961969603425197_">
			<use xlink:href="#SVGID_1_"  style="overflow:visible;"/>
		</clipPath>
		
			<g id="Gruppe_401_00000070797559365920126430000010802174650555754684_" transform="translate(0 0)" style="clip-path:url(#SVGID_00000017510521854705406050000002131961969603425197_);">
			
				<rect id="Rechteck_135_00000084515231694243994500000001150271336646000045_" x="-10.595" y="-28.537" transform="matrix(-2.535182e-06 -1 1 -2.535182e-06 -10.4558 5.4182)" class="st1" width="16.153" height="72.948"/>
			
				<rect id="Rechteck_136_00000154388196717073159940000002907894427551903890_" x="-10.595" y="3.769" transform="matrix(-2.535182e-06 -1 1 -2.535182e-06 -42.7613 37.7238)" class="st2" width="16.153" height="72.948"/>
			<path id="Pfad_661_00000015341775220039051870000016371479298388124835_" class="st3" d="M-38.993,16.013h72.948v16.153h-72.948
				V16.013z"/>
			
				<rect id="Rechteck_138_00000034062300115037659100000003931408596547624889_" x="-10.595" y="-12.384" transform="matrix(-2.535182e-06 -1 1 -2.535182e-06 -26.6085 21.571)" class="st4" width="16.153" height="72.948"/>
		</g>
	</g>
</g>
</svg>
