<?xml version="1.0" encoding="utf-8"?>
<!-- Generator: Adobe Illustrator 27.4.1, SVG Export Plug-In . SVG Version: 6.00 Build 0)  -->
<svg version="1.1" id="Ebene_1" xmlns="http://www.w3.org/2000/svg" xmlns:xlink="http://www.w3.org/1999/xlink" x="0px" y="0px"
	 viewBox="0 0 196 322" style="enable-background:new 0 0 196 322;" xml:space="preserve">
<style type="text/css">
	.st0{clip-path:url(#SVGID_00000048471130285540097740000009755585866432226709_);}
	.st1{fill:url(#Rechteck_731_00000176746088119093950670000016186358738985025970_);}
	.st2{clip-path:url(#SVGID_00000008107480553283895470000016254573214331740091_);}
	.st3{fill:url(#Rechteck_732_00000170990830724696151030000016542604372851937452_);}
	.st4{clip-path:url(#SVGID_00000059280023578990442640000005357583435824934061_);}
	.st5{fill:#1A305D;}
	.st6{fill:#F9AA8F;}
	.st7{fill:#40D3BA;}
	.st8{clip-path:url(#SVGID_00000107549690510711440030000014134272820627758493_);}
	.st9{fill:url(#Rechteck_734_00000039111184272884819130000002011260208912874416_);}
	.st10{clip-path:url(#SVGID_00000126321195499553707210000014933136806894023049_);}
	.st11{fill:none;stroke:#345082;stroke-width:3;stroke-linecap:round;stroke-miterlimit:10;}
	.st12{clip-path:url(#SVGID_00000059289904517054695180000007956980672502809528_);}
	.st13{fill:url(#Rechteck_736_00000179635251658064749810000000625320012296466362_);}
	.st14{clip-path:url(#SVGID_00000138550429912613509930000010533782895824855710_);}
	.st15{fill:#5858A5;}
	.st16{fill:#6161AD;}
	.st17{clip-path:url(#SVGID_00000079471740737287444300000004684624285357720490_);}
	.st18{fill:url(#Rechteck_738_00000087405744497920956990000009901792431324562846_);}
	.st19{clip-path:url(#SVGID_00000088097025022479585900000003743504730618344083_);}
	.st20{fill:#FDC781;}
	.st21{clip-path:url(#SVGID_00000134953750213731947750000014185265739298423732_);}
	.st22{fill:url(#Rechteck_740_00000078005563052448772250000015900510742284710070_);}
</style>
<g id="Gruppe_1674">
	<g>
		<defs>
			<path id="SVGID_1_" d="M120.992,219.551c-7.227-0.063-13.138,5.745-13.201,12.972c-0.063,7.227,5.745,13.138,12.972,13.201
				c0.076,0.001,0.152,0.001,0.228,0h43.344c7.227,0.063,13.138-5.745,13.201-12.972c0.063-7.227-5.745-13.138-12.972-13.201
				c-0.076-0.001-0.152-0.001-0.228,0H120.992z"/>
		</defs>
		<clipPath id="SVGID_00000088101827216415923510000015972800053396878464_">
			<use xlink:href="#SVGID_1_"  style="overflow:visible;"/>
		</clipPath>
		<g id="Gruppe_1673" style="clip-path:url(#SVGID_00000088101827216415923510000015972800053396878464_);">
			
				<linearGradient id="Rechteck_731_00000109020800286603235620000003124979108957707397_" gradientUnits="userSpaceOnUse" x1="-92.9044" y1="256.3309" x2="-92.8904" y2="256.3309" gradientTransform="matrix(69.524 0 0 -26.173 6459.645 6941.585)">
				<stop  offset="0" style="stop-color:#FFFFFF"/>
				<stop  offset="0.84" style="stop-color:#CDDFEC"/>
				<stop  offset="1" style="stop-color:#CDDFEC"/>
			</linearGradient>
			
				<rect id="Rechteck_731" x="107.902" y="219.551" style="fill:url(#Rechteck_731_00000109020800286603235620000003124979108957707397_);" width="69.524" height="26.173"/>
		</g>
	</g>
</g>
<g id="Gruppe_1676">
	<g>
		<defs>
			<path id="SVGID_00000075856379287287250330000009584111879940080292_" d="M139.143,245.724v61.6
				c0.001,4.345-3.521,7.867-7.866,7.868c-0.001,0-0.001,0-0.002,0h-5.922c-2.223,0-4.025,1.802-4.025,4.025v1.848h42.7v-1.848
				c0-2.223-1.802-4.025-4.025-4.025h-5.97c-4.345,0.012-7.878-3.501-7.89-7.846c0-0.007,0-0.015,0-0.022v-61.6H139.143z"/>
		</defs>
		<clipPath id="SVGID_00000020358281088619830570000002114320005643528099_">
			<use xlink:href="#SVGID_00000075856379287287250330000009584111879940080292_"  style="overflow:visible;"/>
		</clipPath>
		<g id="Gruppe_1675" style="clip-path:url(#SVGID_00000020358281088619830570000002114320005643528099_);">
			
				<linearGradient id="Rechteck_732_00000146474186488981075490000002891236472684661181_" gradientUnits="userSpaceOnUse" x1="-91.2739" y1="259.7043" x2="-91.2509" y2="259.7043" gradientTransform="matrix(42.7 0 0 -75.341 3897.967 19849.7754)">
				<stop  offset="0" style="stop-color:#FFFFFF"/>
				<stop  offset="0.84" style="stop-color:#CDDFEC"/>
				<stop  offset="1" style="stop-color:#CDDFEC"/>
			</linearGradient>
			
				<rect id="Rechteck_732" x="121.328" y="245.724" style="fill:url(#Rechteck_732_00000146474186488981075490000002891236472684661181_);" width="42.7" height="75.341"/>
		</g>
	</g>
</g>
<g id="Gruppe_1678">
	<g>
		<defs>
			<rect id="SVGID_00000145755794802363272030000004364449729697773460_" x="0.561" y="-0.208" width="195.001" height="321.273"/>
		</defs>
		<clipPath id="SVGID_00000033349077292258167800000012646885170379064964_">
			<use xlink:href="#SVGID_00000145755794802363272030000004364449729697773460_"  style="overflow:visible;"/>
		</clipPath>
		<g id="Gruppe_1677" style="clip-path:url(#SVGID_00000033349077292258167800000012646885170379064964_);">
			<path id="Pfad_572" class="st5" d="M49.753,28.627L3.504,54.163c-2.756,1.522-3.755,4.99-2.233,7.745
				c0.011,0.02,0.022,0.04,0.033,0.06l24.5,43.071c1.549,2.741,5.026,3.707,7.767,2.159c0.034-0.019,0.068-0.039,0.101-0.059
				L79.09,80.147c2.66-1.585,3.567-5.004,2.044-7.7L57.453,30.792c-1.543-2.705-4.972-3.672-7.7-2.17"/>
			<path id="Pfad_573" class="st6" d="M77.438,73.792c0,0-6.839-8.505-3.71-17.353s3.773-0.931,3.71,1.225s1.123,3.673,5.054,9.189
				s-3.556,9.905-3.556,9.905L77.438,73.792z"/>
			<path id="Pfad_574" class="st7" d="M123.904,66.511c0,0-19.187,34.727-41.412,0.343l-4.536,9.87
				c-1.721,3.716-1.178,8.088,1.4,11.27c6.622,8.12,22.757,21.2,56.07,16.675C205.937,95.069,123.904,66.511,123.904,66.511"/>
		</g>
	</g>
</g>
<g id="Gruppe_1680">
	<g>
		<defs>
			<path id="SVGID_00000154405778457499836550000014985937052822898091_" d="M82.493,66.854l-4.532,9.869
				c-1.722,3.716-1.179,8.089,1.4,11.271c6.622,8.12,22.757,21.2,56.07,16.674c70.511-9.6-11.522-38.157-11.522-38.157
				s-19.187,34.727-41.411,0.343"/>
		</defs>
		<clipPath id="SVGID_00000074409661907248212310000014766727709954235556_">
			<use xlink:href="#SVGID_00000154405778457499836550000014985937052822898091_"  style="overflow:visible;"/>
		</clipPath>
		<g id="Gruppe_1679" style="clip-path:url(#SVGID_00000074409661907248212310000014766727709954235556_);">
			
				<linearGradient id="Rechteck_734_00000151518676825322611830000002433497986935940015_" gradientUnits="userSpaceOnUse" x1="-94.0922" y1="258.3305" x2="-94.0852" y2="258.3305" gradientTransform="matrix(129.14 0 0 -42.686 12151.6758 11114.9512)">
				<stop  offset="0" style="stop-color:#40D3BA"/>
				<stop  offset="0.35" style="stop-color:#34C5AC"/>
				<stop  offset="1" style="stop-color:#15A189"/>
			</linearGradient>
			
				<rect id="Rechteck_734" x="76.797" y="66.511" style="fill:url(#Rechteck_734_00000151518676825322611830000002433497986935940015_);" width="129.14" height="42.686"/>
		</g>
	</g>
</g>
<g id="Gruppe_1682">
	<g>
		<defs>
			<rect id="SVGID_00000039818571536863181110000012281428983291967925_" x="0.561" y="-0.208" width="195.001" height="321.273"/>
		</defs>
		<clipPath id="SVGID_00000163757100650449266410000006061304205350184105_">
			<use xlink:href="#SVGID_00000039818571536863181110000012281428983291967925_"  style="overflow:visible;"/>
		</clipPath>
		<g id="Gruppe_1681" style="clip-path:url(#SVGID_00000163757100650449266410000006061304205350184105_);">
			<line id="Linie_117" class="st11" x1="31.42" y1="52.329" x2="15.502" y2="61.121"/>
			<line id="Linie_118" class="st11" x1="34.71" y1="59.104" x2="18.792" y2="67.896"/>
			<line id="Linie_119" class="st11" x1="38.007" y1="65.874" x2="22.082" y2="74.673"/>
			<path id="Pfad_576" class="st6" d="M37.629,103.603c0,0-1.668-7.448-6.874-6.411c-9.7,1.939-17-15.589-14.308,3.437
				c1.848,13.075,17.114,13.299,17.114,13.299L37.629,103.603z"/>
			<path id="Pfad_577" class="st6" d="M154.753,52.447c-2.067-4.656-2.21-9.939-0.4-14.7c1.247-3.516,1.666-7.272,1.225-10.976
				c-1.4-12.362-11.676-21.329-22.876-20.034c-8.54,0.987-15.169,7.665-17.206,16.261c0,0-4.053,16.541-1.253,16.667h0.98
				c1.344,0.012,2.587,0.719,3.283,1.869c2.803,4.632,7.271,8.018,12.488,9.464c1.546,0.395,2.48,1.969,2.085,3.515
				c-0.061,0.239-0.152,0.469-0.272,0.685c-1.358,2.282-3.311,3.5-2.9,5.817c3.612,20.454,30.968,11.9,34.125,2.24
				c-4.024-2.687-7.234-6.425-9.282-10.808"/>
		</g>
	</g>
</g>
<g id="Gruppe_1684">
	<g>
		<defs>
			<path id="SVGID_00000062153916094525660680000014349256734352190885_" d="M115.54,22.978l-0.155,0.643
				c0.863,0.6,1.848,1.002,2.884,1.177c1.652,0.181-0.735,6.433-1.652,11.486c-0.455,2.52-1.281,3.256-1.994,3.367h0.643
				c1.344,0.013,2.586,0.72,3.283,1.87c0.469,0.75,0.981,1.471,1.533,2.162c-0.132-0.335-3.941-9.925,2.051-15.126
				c6.1-5.292,10.752,15.9,8.911,19.208c-0.813,1.626-2.791,2.285-4.417,1.471c-0.118-0.059-0.233-0.125-0.343-0.198
				c1.49,0.853,3.086,1.508,4.746,1.947c0.117,0.03,0.231,0.067,0.343,0.111c0.61,0.162,1.26,0.308,1.96,0.434
				c4.69,0.827,4.41,6.252,4.41,6.252l13.762,0.02l2.254-8.1c-1.026-3.951-0.813-8.122,0.609-11.949
				c0.645-1.809,1.068-3.689,1.26-5.6l-24.675-16.077l-11.585-1.4c-1.822,2.48-3.124,5.304-3.828,8.3"/>
		</defs>
		<clipPath id="SVGID_00000029023450300591733730000006097973192270225298_">
			<use xlink:href="#SVGID_00000062153916094525660680000014349256734352190885_"  style="overflow:visible;"/>
		</clipPath>
		<g id="Gruppe_1683" style="clip-path:url(#SVGID_00000029023450300591733730000006097973192270225298_);">
			
				<linearGradient id="Rechteck_736_00000101805211669674273070000000873996059231006872_" gradientUnits="userSpaceOnUse" x1="-98.5215" y1="254.8479" x2="-98.5025" y2="254.8479" gradientTransform="matrix(16.7788 -51.084 -49.7976 -16.3563 14437.0205 -700.4166)">
				<stop  offset="0" style="stop-color:#F78E6B"/>
				<stop  offset="1" style="stop-color:#F9AA8F"/>
			</linearGradient>
			<polygon id="Rechteck_736" style="fill:url(#Rechteck_736_00000101805211669674273070000000873996059231006872_);" points="
				101.837,53.602 118.615,2.518 168.413,18.874 151.634,69.958 			"/>
		</g>
	</g>
</g>
<g id="Gruppe_1686">
	<g>
		<defs>
			<rect id="SVGID_00000136404947564294142630000000694259877891307431_" x="0.561" y="-0.208" width="195.001" height="321.273"/>
		</defs>
		<clipPath id="SVGID_00000021094878581408053020000016298314474306051741_">
			<use xlink:href="#SVGID_00000136404947564294142630000000694259877891307431_"  style="overflow:visible;"/>
		</clipPath>
		<g id="Gruppe_1685" style="clip-path:url(#SVGID_00000021094878581408053020000016298314474306051741_);">
			<path id="Pfad_579" class="st15" d="M194.387,176.257c0,0-158.826-20.048-172.977,121.968l9.338-0.07
				c0,0,27.818-58.464,89.782-66.731C152.912,227.105,154.536,236.758,194.387,176.257"/>
			<path id="Pfad_580" class="st16" d="M82.975,298.224h9.6c-2.87-8.925-13.188-41.447-17.682-61.467
				c-3.654-16.289,106.8,18.284,119.5-52.325c0-0.007-235.956-42.455-111.412,113.792"/>
			<path id="Pfad_581" class="st7" d="M173.128,83.164c-0.56-1.645-2.387-6.937-4.9-13.069c-0.371-1.022-0.784-1.988-1.218-2.912
				c-4.683-10.927-11.116-22.974-16.177-21.511c-16.044,4.725-22.533,14.287-23.478,15.813c-0.14,0.224-0.28,0.441-0.427,0.658
				c-0.455,0.7-0.952,1.344-1.449,1.995c-4.767,6.3-8.239,15.176-9.1,16.849c0,0,9.695-7.763,4.746,12.362
				c-5.873,23.891-13.545,44.989-18.984,72.016c-3.983,19.8-4.9,24.549-4.9,33.285c0,30.723,30.422,5.6,76.3,5.6
				C214.449,204.285,188.731,123.736,173.128,83.164"/>
		</g>
	</g>
</g>
<g id="Gruppe_1688">
	<g>
		<defs>
			<path id="SVGID_00000020390418488583847860000009972757921607497345_" d="M107.937,140.717c0.119-0.063,29.7-16.8,40.7-1.869
				s-13.629,39.417-49.7,42.623c-1.164,5.649-1.751,11.403-1.75,17.171c0,30.723,30.422,5.6,76.3,5.6
				c40.958,0.042,15.239-80.507-0.364-121.079c-0.56-1.645-2.387-6.937-4.9-13.068c-0.371-1.023-0.784-1.988-1.217-2.913
				l-0.456-1.056l-9.618-2.268L107.937,140.717z"/>
		</defs>
		<clipPath id="SVGID_00000041281551955623949110000017359360842284611480_">
			<use xlink:href="#SVGID_00000020390418488583847860000009972757921607497345_"  style="overflow:visible;"/>
		</clipPath>
		<g id="Gruppe_1687" style="clip-path:url(#SVGID_00000041281551955623949110000017359360842284611480_);">
			
				<linearGradient id="Rechteck_738_00000118363427060017801220000010981374941247666105_" gradientUnits="userSpaceOnUse" x1="-96.8249" y1="259.0921" x2="-96.8199" y2="259.0921" gradientTransform="matrix(27.3822 -179.2365 -139.2909 -21.2797 38872.832 -11541.127)">
				<stop  offset="0" style="stop-color:#40D3BA"/>
				<stop  offset="0.35" style="stop-color:#34C5AC"/>
				<stop  offset="1" style="stop-color:#15A189"/>
			</linearGradient>
			<polygon id="Rechteck_738" style="fill:url(#Rechteck_738_00000118363427060017801220000010981374941247666105_);" points="
				72.485,225.591 99.867,46.354 239.158,67.634 211.775,246.87 			"/>
		</g>
	</g>
</g>
<g id="Gruppe_1690">
	<g>
		<defs>
			<rect id="SVGID_00000036961165074508707530000008706908017549660832_" x="0.561" y="-0.208" width="195.001" height="321.273"/>
		</defs>
		<clipPath id="SVGID_00000120544854200200264990000002023340389031567502_">
			<use xlink:href="#SVGID_00000036961165074508707530000008706908017549660832_"  style="overflow:visible;"/>
		</clipPath>
		<g id="Gruppe_1689" style="clip-path:url(#SVGID_00000120544854200200264990000002023340389031567502_);">
			<path id="Pfad_583" class="st7" d="M117.128,79.517c-11.2,21.357-37.6,61.383-79.506,23.961l-6.72,7.637
				c-2.186,2.463-2.107,6.193,0.182,8.561c15.183,15.736,72.377,63.952,128.856-32.361c15.057-25.683-6.195-25.76-22.148-22.918
				C128.939,65.977,121.312,71.557,117.128,79.517"/>
			<path id="Pfad_584" class="st20" d="M111.598,13.919c-0.916,1.769-0.384,3.943,1.246,5.089c2.6,1.841,6.881,4.144,11.312,3.458
				c5.978-0.931,7.364,6.041,8.015,9.3c0.183,0.921,1.078,1.519,1.999,1.335c0.738-0.147,1.291-0.761,1.361-1.51
				c0.07-3.095,2.093-5.806,5.04-6.755c5.88-1.96,7.546,7.742,3.675,13.727c-4.046,6.251,4.69,0.917,9.247,2.436
				c2.625,0.875,14.644-36.015-11.088-40.544c-19.53-3.5-27.909,7.812-30.807,13.468"/>
			<path id="Pfad_585" class="st7" d="M21.41,298.224l-0.7,17.136l-9.31,5.705h16.422c0,0,0.245-17.99,2.912-22.911"/>
			<path id="Pfad_586" class="st7" d="M82.975,298.224l9.686,17.129l-5.754,5.712h13.72l-8.05-22.841"/>
		</g>
	</g>
</g>
<g id="Gruppe_1692">
	<g>
		<defs>
			<path id="SVGID_00000098920961458438447260000016367063931393012382_" d="M131.885,15.508c-0.554,4.55-3.235,6.3-5.9,6.916
				c4.438,0.616,5.593,6.434,6.174,9.317c0.175,0.922,1.064,1.529,1.987,1.354c0.764-0.145,1.332-0.788,1.38-1.564
				c0.07-3.095,2.093-5.806,5.04-6.755c5.88-1.96,7.546,7.742,3.675,13.727c-2.542,3.928-0.039,3.282,3.305,2.636
				c1.977-0.382,4.248-0.764,5.942-0.2c1.141,0.378,4.06-6.376,4.9-14.511c-1.288,7.273-8.162,6.342-8.049-4.5
				c0.07-6.872-6.893-11.455-12.3-11.456c-3.126,0-5.731,1.531-6.159,5.036"/>
		</defs>
		<clipPath id="SVGID_00000028306495163091785760000005479061449328812733_">
			<use xlink:href="#SVGID_00000098920961458438447260000016367063931393012382_"  style="overflow:visible;"/>
		</clipPath>
		<g id="Gruppe_1691" style="clip-path:url(#SVGID_00000028306495163091785760000005479061449328812733_);">
			
				<linearGradient id="Rechteck_740_00000071548634175829351940000015036739882504695972_" gradientUnits="userSpaceOnUse" x1="-92.2154" y1="255.9791" x2="-92.1904" y2="255.9791" gradientTransform="matrix(38.4059 -10.9996 -10.9157 -38.1127 6341.8384 8807.1514)">
				<stop  offset="0" style="stop-color:#FFD087"/>
				<stop  offset="0.76" style="stop-color:#FFC770"/>
				<stop  offset="1" style="stop-color:#FFC770"/>
			</linearGradient>
			<polygon id="Rechteck_740" style="fill:url(#Rechteck_740_00000071548634175829351940000015036739882504695972_);" points="
				117.531,12.895 155.936,1.895 166.852,40.008 128.446,51.007 			"/>
		</g>
	</g>
</g>
</svg>
