<?xml version="1.0" encoding="utf-8"?>
<!-- Generator: Adobe Illustrator 27.4.1, SVG Export Plug-In . SVG Version: 6.00 Build 0)  -->
<svg version="1.1" id="Ebene_1" xmlns="http://www.w3.org/2000/svg" xmlns:xlink="http://www.w3.org/1999/xlink" x="0px" y="0px"
	 viewBox="0 0 72.142 48" style="enable-background:new 0 0 72.142 48;" xml:space="preserve">
<style type="text/css">
	.st0{fill:none;stroke:#000000;stroke-width:2;stroke-linecap:round;stroke-linejoin:round;}
</style>
<g>
	<g id="Gruppe_1944-2">
		<path id="Rechteck_840" class="st0" d="M5.677,1.29h60.738c2.516,0,4.555,2.039,4.555,4.555v36.443
			c0,2.516-2.039,4.555-4.555,4.555H5.677c-2.516,0-4.555-2.039-4.555-4.555V5.846C1.122,3.33,3.162,1.29,5.677,1.29z"/>
		<path id="Pfad_763" class="st0" d="M60.342,46.844h-48.59l9.111-9.111h30.369L60.342,46.844z"/>
		<circle id="Ellipse_102" class="st0" cx="16.307" cy="24.067" r="6.074"/>
		<rect id="Rechteck_841" x="28.454" y="19.512" class="st0" width="15.184" height="6.074"/>
		<line id="Linie_279" class="st0" x1="16.307" y1="21.03" x2="16.307" y2="17.993"/>
		<line id="Linie_280" class="st0" x1="13.27" y1="24.067" x2="10.233" y2="24.067"/>
		<line id="Linie_281" class="st0" x1="16.307" y1="27.104" x2="16.307" y2="30.141"/>
		<line id="Linie_282" class="st0" x1="19.343" y1="24.067" x2="22.38" y2="24.067"/>
		<circle id="Ellipse_103" class="st0" cx="55.786" cy="24.067" r="6.074"/>
		<line id="Linie_283" class="st0" x1="55.786" y1="21.03" x2="55.786" y2="17.993"/>
		<line id="Linie_284" class="st0" x1="52.749" y1="24.067" x2="49.712" y2="24.067"/>
		<line id="Linie_285" class="st0" x1="55.786" y1="27.104" x2="55.786" y2="30.141"/>
		<line id="Linie_286" class="st0" x1="58.823" y1="24.067" x2="61.86" y2="24.067"/>
		<line id="Linie_287" class="st0" x1="10.233" y1="7.364" x2="61.86" y2="7.364"/>
	</g>
</g>
</svg>
