<?xml version="1.0" encoding="utf-8"?>
<!-- Generator: Adobe Illustrator 27.4.1, SVG Export Plug-In . SVG Version: 6.00 Build 0)  -->
<svg version="1.1" id="Ebene_1" xmlns="http://www.w3.org/2000/svg" xmlns:xlink="http://www.w3.org/1999/xlink" x="0px" y="0px"
	 viewBox="0 0 47.64 48" style="enable-background:new 0 0 47.64 48;" xml:space="preserve">
<style type="text/css">
	.st0{fill:none;stroke:#000000;stroke-width:2;stroke-linejoin:round;}
</style>
<g id="Gruppe_1695" transform="translate(0 0)">
	<g>
		<g id="Gruppe_1356" transform="translate(0 0)">
			<path id="Pfad_431" class="st0" d="M19.896,29.856c0,0-2.959-0.972-2.959-5.879c-1.629,0-1.629-3.92,0-3.92
				c0-0.656-2.957-7.84,1.972-6.859c0.987-3.92,11.829-3.92,12.823,0c0.684,2.721-0.987,6.378-0.987,6.859
				c1.629,0,1.629,3.92,0,3.92c0,4.899-2.957,5.879-2.957,5.879v4.894c4.882,1.821,9.723,3.325,12.197,5.048
				c8.794-8.914,8.698-23.27-0.216-32.064S16.498-0.964,7.704,7.95c-8.72,8.839-8.709,23.047,0.024,31.872
				c2.622-1.804,7.791-3.422,12.174-5.07L19.896,29.856z"/>
			<path id="Pfad_432" class="st0" d="M7.938,39.827c8.096,8.776,21.774,9.328,30.551,1.231c0,0,0.001-0.001,0.001-0.001
				c0.432-0.401,0.85-0.819,1.253-1.256"/>
		</g>
	</g>
</g>
</svg>
