<?xml version="1.0" encoding="utf-8"?>
<!-- Generator: Adobe Illustrator 27.4.1, SVG Export Plug-In . SVG Version: 6.00 Build 0)  -->
<svg version="1.1" id="Ebene_1" xmlns="http://www.w3.org/2000/svg" xmlns:xlink="http://www.w3.org/1999/xlink" x="0px" y="0px"
	 viewBox="0 0 41.977 48" style="enable-background:new 0 0 41.977 48;" xml:space="preserve">
<style type="text/css">
	.st0{fill:none;stroke:#000000;stroke-width:2;stroke-linecap:round;stroke-linejoin:round;}
</style>
<g id="Gruppe_1916" transform="translate(2.75 2)">
	<g>
		<g id="Gruppe_1916-2">
			<circle id="Ellipse_98_00000015320337000290058860000014109973451130584473_" class="st0" cx="34.127" cy="19.1" r="3.966"/>
			<path id="Pfad_723" class="st0" d="M2.401,2.244c-2.19,0-3.966,1.776-3.966,3.966l0,0v9.912c0.001,5.474,4.439,9.912,9.913,9.911
				c5.473-0.001,9.91-4.438,9.911-9.911V6.21c0-2.19-1.775-3.965-3.965-3.966"/>
			<path id="Pfad_724" class="st0" d="M8.348,26.04v14.868c0.04,2.19,1.848,3.933,4.038,3.893c2.133-0.039,3.853-1.759,3.893-3.893
				v-9.912c0.001-2.737,2.221-4.955,4.958-4.954c2.736,0.001,4.953,2.219,4.954,4.954v5.946c0.04,2.19,1.848,3.933,4.038,3.893
				c2.133-0.039,3.853-1.759,3.893-3.893V23.066"/>
			<path id="Pfad_725" class="st0" d="M5.375,2.244c0.034,1.608-1.241,2.939-2.849,2.974c-0.002,0-0.003,0-0.005,0H2.401V-0.73
				C4.009-0.764,5.34,0.512,5.375,2.119C5.377,2.16,5.377,2.202,5.375,2.244z"/>
			<path id="Pfad_726" class="st0" d="M11.322,2.244c-0.034-1.608,1.241-2.939,2.849-2.974c0.001,0,0.002,0,0.003,0h0.125v5.947
				c-1.608,0.034-2.939-1.241-2.974-2.849C11.321,2.327,11.32,2.286,11.322,2.244z"/>
		</g>
	</g>
</g>
</svg>
