<?xml version="1.0" encoding="utf-8"?>
<!-- Generator: Adobe Illustrator 27.4.1, SVG Export Plug-In . SVG Version: 6.00 Build 0)  -->
<svg version="1.1" id="Ebene_1" xmlns="http://www.w3.org/2000/svg" xmlns:xlink="http://www.w3.org/1999/xlink" x="0px" y="0px"
	 viewBox="0 0 48 48" style="enable-background:new 0 0 48 48;" xml:space="preserve">
<style type="text/css">
	.st0{fill:#DADADA;}
	.st1{fill:none;stroke:#1D1D1B;stroke-width:2;stroke-linecap:round;stroke-linejoin:round;}
	.st2{fill:none;stroke:#1D1D1B;stroke-width:2;stroke-miterlimit:10;}
</style>
<g>
	<g id="Gruppe_1749">
		<path id="Pfad_626" class="st0" d="M23.91,24.171c0.005-9.955,0.01-19.972,0.018-19.972c10.927,0.006,19.78,8.868,19.774,19.795"
			/>
		<circle id="Ellipse_59" class="st1" cx="23.918" cy="23.984" r="22.902"/>
		<line id="Linie_142" class="st1" x1="23.553" y1="41.943" x2="23.551" y2="46.826"/>
		<line id="Linie_143" class="st1" x1="23.574" y1="1.61" x2="23.571" y2="6.492"/>
		<line id="Linie_144" class="st1" x1="6.249" y1="14.24" x2="3.975" y2="12.928"/>
		<line id="Linie_145" class="st1" x1="43.15" y1="35.509" x2="40.876" y2="34.198"/>
		<line id="Linie_146" class="st1" x1="13.216" y1="7.122" x2="11.857" y2="4.876"/>
		<line id="Linie_147" class="st1" x1="35.267" y1="43.56" x2="33.908" y2="41.313"/>
		<line id="Linie_148" class="st1" x1="13.583" y1="41.532" x2="12.272" y2="43.806"/>
		<line id="Linie_149" class="st1" x1="34.852" y1="4.631" x2="33.541" y2="6.905"/>
		<line id="Linie_150" class="st1" x1="6.466" y1="34.564" x2="4.219" y2="35.924"/>
		<line id="Linie_151" class="st1" x1="42.905" y1="12.513" x2="40.659" y2="13.873"/>
		<line id="Linie_152" class="st1" x1="5.838" y1="24.209" x2="1.54" y2="24.207"/>
		<line id="Linie_153" class="st1" x1="46.171" y1="24.23" x2="41.288" y2="24.228"/>
		<circle id="Ellipse_60" class="st2" cx="23.918" cy="23.984" r="1.805"/>
	</g>
</g>
</svg>
