<?xml version="1.0" encoding="utf-8"?>
<!-- Generator: Adobe Illustrator 27.4.1, SVG Export Plug-In . SVG Version: 6.00 Build 0)  -->
<svg version="1.1" id="Ebene_1" xmlns="http://www.w3.org/2000/svg" xmlns:xlink="http://www.w3.org/1999/xlink" x="0px" y="0px"
	 viewBox="0 0 36.978 48" style="enable-background:new 0 0 36.978 48;" xml:space="preserve">
<style type="text/css">
	.st0{fill:none;stroke:#000000;stroke-width:2;stroke-linejoin:round;}
</style>
<g>
	<g id="Gruppe_1948">
		<path id="Pfad_775" class="st0" d="M13.426,40.637c-0.11,3.306-2.765,5.961-6.071,6.071c-3.353,0.001-6.072-2.716-6.073-6.069
			c-0.001-3.353,2.716-6.072,6.069-6.073c0.001,0,0.003,0,0.004,0h6.071V40.637z"/>
		<path id="Pfad_776" class="st0" d="M35.689,32.541c-0.11,3.306-2.765,5.961-6.071,6.071c-3.353,0.001-6.072-2.716-6.073-6.069
			c-0.001-3.353,2.716-6.072,6.069-6.073c0.001,0,0.003,0,0.004,0h6.071V32.541z"/>
		<path id="Pfad_777" class="st0" d="M13.426,34.564V10.277L35.689,1.17v25.298"/>
		<line id="Linie_288" class="st0" x1="13.426" y1="17.362" x2="35.689" y2="8.254"/>
	</g>
</g>
</svg>
