<?xml version="1.0" encoding="utf-8"?>
<!-- Generator: Adobe Illustrator 27.4.1, SVG Export Plug-In . SVG Version: 6.00 Build 0)  -->
<svg version="1.1" id="Ebene_1" xmlns="http://www.w3.org/2000/svg" xmlns:xlink="http://www.w3.org/1999/xlink" x="0px" y="0px"
	 viewBox="0 0 52.356 48" style="enable-background:new 0 0 52.356 48;" xml:space="preserve">
<style type="text/css">
	.st0{fill:none;stroke:#000000;stroke-width:2;stroke-linecap:round;stroke-linejoin:round;}
</style>
<g>
	<g id="Gruppe_1982-2">
		<path id="Rechteck_796" class="st0" d="M4.518,1.221h43.185c1.873,0,3.391,1.518,3.391,3.391v32.323
			c0,1.873-1.518,3.391-3.391,3.391H4.518c-1.873,0-3.391-1.518-3.391-3.391V4.612C1.127,2.739,2.645,1.221,4.518,1.221z"/>
		<line id="Linie_341" class="st0" x1="10.903" y1="46.845" x2="41.318" y2="46.845"/>
		<path id="Pfad_717" class="st0" d="M33.715,46.845H18.506l2.172-6.517h10.864L33.715,46.845z"/>
		<rect id="Rechteck_797" x="5.472" y="5.567" class="st0" width="41.277" height="26.069"/>
		<path id="Pfad_718" class="st0" d="M27.196,35.981c0,0.6-0.486,1.086-1.086,1.086c-0.6,0-1.086-0.486-1.086-1.086
			c0-0.6,0.486-1.086,1.086-1.086h0C26.71,34.895,27.196,35.381,27.196,35.981z"/>
	</g>
</g>
</svg>
