<?xml version="1.0" encoding="utf-8"?>
<!-- Generator: Adobe Illustrator 27.4.1, SVG Export Plug-In . SVG Version: 6.00 Build 0)  -->
<svg version="1.1" id="Ebene_1" xmlns="http://www.w3.org/2000/svg" xmlns:xlink="http://www.w3.org/1999/xlink" x="0px" y="0px"
	 viewBox="0 0 45.575 48" style="enable-background:new 0 0 45.575 48;" xml:space="preserve">
<style type="text/css">
	.st0{fill:none;stroke:#000000;stroke-width:3;stroke-linecap:round;stroke-linejoin:round;}
</style>
<g id="Gruppe_1909" transform="translate(0 0)">
	<g>
		<g id="Gruppe_602" transform="translate(0 0)">
			<path id="Pfad_316" class="st0" d="M37.383,37.179H7.207c-0.515,0.002-0.934-0.414-0.936-0.929c0,0,0,0,0,0V11.982
				c0-8.786,7.174-10.335,16.024-10.335S38.32,3.196,38.32,11.982V36.25c-0.002,0.515-0.421,0.931-0.936,0.929
				C37.384,37.179,37.384,37.179,37.383,37.179z"/>
			<line id="Linie_75" class="st0" x1="7.335" y1="10.854" x2="37.837" y2="10.854"/>
			<line id="Linie_76" class="st0" x1="7.335" y1="22.423" x2="37.837" y2="22.423"/>
			<line id="Linie_77" class="st0" x1="16.802" y1="6.647" x2="27.319" y2="6.647"/>
			<circle id="Ellipse_28" class="st0" cx="13.553" cy="29.994" r="2.306"/>
			<circle id="Ellipse_29" class="st0" cx="31.038" cy="29.994" r="2.306"/>
			<line id="Linie_78" class="st0" x1="10.491" y1="37.819" x2="1.55" y2="46.233"/>
			<line id="Linie_79" class="st0" x1="35.032" y1="37.819" x2="43.973" y2="46.233"/>
			<line id="Linie_80" class="st0" x1="5.887" y1="42.406" x2="39.94" y2="42.406"/>
		</g>
	</g>
</g>
</svg>
