<?xml version="1.0" encoding="utf-8"?>
<!-- Generator: Adobe Illustrator 27.4.1, SVG Export Plug-In . SVG Version: 6.00 Build 0)  -->
<svg version="1.1" id="Ebene_1" xmlns="http://www.w3.org/2000/svg" xmlns:xlink="http://www.w3.org/1999/xlink" x="0px" y="0px"
	 viewBox="0 0 57.801 48" style="enable-background:new 0 0 57.801 48;" xml:space="preserve">
<style type="text/css">
	.st0{fill:none;stroke:#000000;stroke-width:2;stroke-linecap:round;stroke-linejoin:round;}
</style>
<g>
	<g id="Gruppe_1919-2">
		<line id="Linie_262" class="st0" x1="29.003" y1="8.596" x2="29.003" y2="46.767"/>
		<line id="Linie_263" class="st0" x1="21.616" y1="46.765" x2="36.32" y2="46.765"/>
		<path id="Pfad_747" class="st0" d="M32.7,4.902c0.006,2.044-1.647,3.706-3.691,3.711c-2.044,0.006-3.706-1.647-3.711-3.691
			c-0.006-2.044,1.647-3.706,3.691-3.711c0.005,0,0.01,0,0.016,0c2.039-0.005,3.697,1.645,3.701,3.684c0,0.002,0,0.005,0,0.007H32.7
			z"/>
		<path id="Pfad_748" class="st0" d="M1.164,23.934l8.855-20.241l8.826,20.241"/>
		<line id="Linie_264" class="st0" x1="25.476" y1="3.692" x2="6.227" y2="3.692"/>
		<path id="Pfad_749" class="st0" d="M18.881,23.938c0,4.892-3.966,8.858-8.858,8.858s-8.858-3.966-8.858-8.858l0,0H18.881z"/>
		<path id="Pfad_750" class="st0" d="M56.839,23.934L47.986,3.693L39.16,23.934"/>
		<line id="Linie_265" class="st0" x1="32.53" y1="3.692" x2="51.78" y2="3.692"/>
		<path id="Pfad_751" class="st0" d="M39.127,23.938c0.001,4.892,3.968,8.857,8.86,8.856c4.89-0.001,8.855-3.965,8.856-8.856H39.127
			z"/>
	</g>
</g>
</svg>
