<?xml version="1.0" encoding="utf-8"?>
<!-- Generator: Adobe Illustrator 27.4.1, SVG Export Plug-In . SVG Version: 6.00 Build 0)  -->
<svg version="1.1" id="Ebene_1" xmlns="http://www.w3.org/2000/svg" xmlns:xlink="http://www.w3.org/1999/xlink" x="0px" y="0px"
	 viewBox="0 0 50.322 48" style="enable-background:new 0 0 50.322 48;" xml:space="preserve">
<style type="text/css">
	.st0{fill:none;stroke:#000000;stroke-width:2;stroke-linejoin:round;}
	.st1{fill:none;stroke:#000000;stroke-width:2;stroke-linecap:round;stroke-linejoin:round;}
</style>
<g>
	<g id="Gruppe_1947">
		<path id="Pfad_770" class="st0" d="M44.881,7.439h4.146v39.392H1.343V7.439h35.245"/>
		<path id="Pfad_771" class="st1" d="M26.218,41.802c-8.1,2.859-16.983-1.389-19.842-9.489s1.389-16.983,9.489-19.842
			s16.983,1.389,19.842,9.489c0.013,0.038,0.026,0.075,0.039,0.113"/>
		<circle id="Ellipse_105" class="st1" cx="21.04" cy="27.135" r="5.183"/>
		<circle id="Ellipse_106" class="st1" cx="21.038" cy="27.135" r="1.037"/>
		<path id="Pfad_772" class="st1" d="M40.735,11.586v13.477l-5.733,6.868"/>
		<path id="Pfad_773" class="st1" d="M40.735,1.22c-2.29,0-4.146,1.856-4.146,4.146v6.22h8.292v-6.22
			C44.881,3.076,43.025,1.22,40.735,1.22C40.735,1.22,40.735,1.22,40.735,1.22z"/>
		<path id="Pfad_774" class="st0" d="M32.876,29.837l4.158,4.158L34.2,36.83c-0.433,0.433-2.361,2.839-4.651,0.608
			c-1.195-1.243-1.156-3.22,0.087-4.416c0.094-0.091,0.194-0.175,0.299-0.254L32.876,29.837z"/>
	</g>
</g>
</svg>
