<?xml version="1.0" encoding="utf-8"?>
<!-- Generator: Adobe Illustrator 27.4.1, SVG Export Plug-In . SVG Version: 6.00 Build 0)  -->
<svg version="1.1" id="Ebene_1" xmlns="http://www.w3.org/2000/svg" xmlns:xlink="http://www.w3.org/1999/xlink" x="0px" y="0px"
	 viewBox="0 0 55.153 48" style="enable-background:new 0 0 55.153 48;" xml:space="preserve">
<style type="text/css">
	.st0{fill:none;stroke:#000000;stroke-width:2;stroke-linecap:round;stroke-linejoin:round;}
</style>
<g id="Gruppe_1812" transform="translate(0 7)">
	<g>
		<g id="Gruppe_1747" transform="translate(0 -7)">
			<path id="Pfad_624" class="st0" d="M48.277,3.158c3.267,0.718,5.634,3.557,5.751,6.901v4.594
				c-0.019,2.533-2.068,4.582-4.602,4.602h-6.901c-2.533-0.02-4.582-2.068-4.602-4.602V11.21c-6.885-0.678-13.819-0.678-20.704,0
				v3.443c-0.019,2.533-2.068,4.582-4.602,4.602H5.718c-2.533-0.019-4.582-2.068-4.602-4.602v-4.594
				C1.234,6.716,3.6,3.876,6.868,3.158C20.53,0.368,34.615,0.368,48.277,3.158z"/>
			<path id="Pfad_625" class="st0" d="M49.427,46.867H5.718v-6.901c0.029-10.152,8.251-18.375,18.403-18.405h6.901
				c10.153,0.029,18.376,8.252,18.405,18.405V46.867z"/>
			<line id="Linie_140" class="st0" x1="24.121" y1="16.96" x2="24.121" y2="21.562"/>
			<line id="Linie_141" class="st0" x1="31.024" y1="16.96" x2="31.024" y2="21.562"/>
			<circle id="Ellipse_58" class="st0" cx="27.572" cy="34.214" r="8.052"/>
		</g>
	</g>
</g>
</svg>
