<?xml version="1.0" encoding="utf-8"?>
<!-- Generator: Adobe Illustrator 27.4.1, SVG Export Plug-In . SVG Version: 6.00 Build 0)  -->
<svg version="1.1" id="Ebene_1" xmlns="http://www.w3.org/2000/svg" xmlns:xlink="http://www.w3.org/1999/xlink" x="0px" y="0px"
	 viewBox="0 0 44.781 48" style="enable-background:new 0 0 44.781 48;" xml:space="preserve">
<style type="text/css">
	.st0{fill:none;stroke:#000000;stroke-width:2;stroke-linejoin:round;}
	.st1{fill:none;stroke:#000000;stroke-width:2;}
</style>
<g id="Gruppe_1915" transform="translate(0 0)">
	<g>
		<g id="Gruppe_1916_00000054966270908621375920000003945008944316983718_">
			<path id="Pfad_718_00000169537236213665747780000018173510038418216348_" class="st0" d="M7.801,17.794V1.214h19.763v9.922"/>
			<path id="Pfad_719_00000145758994601359354080000000185601053782498438_" class="st0" d="M25.225,26.348v9.414h7.744
				c4.51,0,8.301,3.5,9.375,8.235c0.149,0.651,0.024,1.335-0.347,1.891c-0.336,0.52-0.91,0.839-1.529,0.85H9.735
				c-1.139-0.075-2.004-1.056-1.937-2.196V31.916"/>
			<path id="Pfad_720_00000000938268540069651870000004411247296904989625_" class="st1" d="M43.776,23.244l-3.938-13.025
				c-0.488-1.743-2.998-2.413-5.61-1.507L1.218,19.192v15.365l32.923-11.068"/>
			<path id="Pfad_721_00000037650188174082143480000017220417753080927417_" class="st0" d="M43.776,23.244l-3.938-13.025
				c-0.488-1.743-2.998-2.413-5.61-1.507L1.218,19.192v15.365l32.923-11.068"/>
			<path id="Pfad_722_00000072281425705906603700000010420763736792593304_" class="st0" d="M33.193,26.366
				c0.546,1.743,3.33,2.413,6.224,1.505c2.894-0.907,4.797-3.041,4.254-4.784c-0.543-1.743-3.33-2.413-6.222-1.505
				C34.557,22.489,32.657,24.63,33.193,26.366z"/>
			<line id="Linie_253" class="st0" x1="25.223" y1="35.825" x2="7.797" y2="32.558"/>
			<line id="Linie_254" class="st0" x1="27.564" y1="10.32" x2="7.806" y2="4.831"/>
			<line id="Linie_255" class="st0" x1="8.421" y1="32.242" x2="18.785" y2="46.788"/>
			<line id="Linie_256" class="st0" x1="25.071" y1="35.762" x2="22.879" y2="46.788"/>
			<line id="Linie_257" class="st0" x1="34.916" y1="35.762" x2="32.724" y2="46.788"/>
		</g>
	</g>
</g>
</svg>
