<?xml version="1.0" encoding="utf-8"?>
<!-- Generator: Adobe Illustrator 27.4.1, SVG Export Plug-In . SVG Version: 6.00 Build 0)  -->
<svg version="1.1" id="Ebene_1" xmlns="http://www.w3.org/2000/svg" xmlns:xlink="http://www.w3.org/1999/xlink" x="0px" y="0px"
	 viewBox="0 0 78.702 48" style="enable-background:new 0 0 78.702 48;" xml:space="preserve">
<g id="Gruppe_1694" transform="translate(0 0)">
	<g>
		<g id="Gruppe_1353" transform="translate(0 0)">
			<path id="Pfad_423" d="M35.264,40.903c-3.18-2.3-5.914-5.161-8.066-8.443c-5.521-8.394-4.74-16.813-2.173-20.994
				c1.564-1.593,3.348-2.953,5.298-4.038c2.259-1.321,4.762-2.17,7.358-2.496c-2.918,1.203-5.323,3.388-6.802,6.176
				c-1.149,2.283-1.671,4.831-1.512,7.382c0.339,3.61,1.54,7.086,3.502,10.136c3.414,5.367,8.8,9.178,14.998,10.611
				c3.829,0.751,7.716,1.163,11.616,1.232c4.137,0.231,12.603,0.28,14.065,0.28h1.584l3.601,6.905c0,0-12.272,0.049-17.993-0.257
				c-9.25-0.505-17.84-0.931-25.48-6.503L35.264,40.903z"/>
			<path id="Pfad_424" d="M42.245,46.478c-1.887,0.48-3.827,0.726-5.774,0.732c-5.192-0.272-10.154-2.226-14.138-5.567
				c-4.828-3.504-8.144-8.712-9.274-14.57c-0.128-0.656-0.201-1.311-0.301-2.244c-0.446-4.658,0.576-9.339,2.924-13.387
				c2.631-4.534,6.729-8.037,11.618-9.93c4.342-1.601,9.077-1.796,13.536-0.556c6.183,1.709,11.581,5.51,15.273,10.755
				c-3.694-4.399-8.936-7.211-14.645-7.855c-0.428-0.029-0.857-0.052-1.267-0.052c-4.54-0.033-8.969,1.408-12.621,4.107
				c-2.342,1.657-4.358,3.733-5.947,6.123c-2.45,3.797-3.784,8.205-3.85,12.724c-0.027,4.396,1.292,8.695,3.78,12.32
				c3.918,2.423,8.577,3.356,13.126,2.631c2.662,1.999,5.668,3.494,8.869,4.409l-1.313,0.353L42.245,46.478z"/>
			<path id="Pfad_425" d="M30.269,47.203H0.103l3.049-5.415h17.666c1.346,1.111,2.775,2.117,4.276,3.009
				c1.636,0.98,3.368,1.79,5.169,2.417L30.269,47.203z"/>
			<path id="Pfad_426" d="M59.889,23.891c0.453,6.05-3.484,12.755-5.469,15.297c-1.235-0.1-3.201-0.325-5.014-0.656
				c-1.32-0.261-2.618-0.623-3.882-1.083c3.596-3.018,6.233-7.021,7.586-11.517c2.165-6.495,0.618-13.654-4.037-18.675
				c6.308,3.222,10.426,9.556,10.81,16.629"/>
		</g>
	</g>
</g>
</svg>
