<?xml version="1.0" encoding="utf-8"?>
<!-- Generator: Adobe Illustrator 27.4.1, SVG Export Plug-In . SVG Version: 6.00 Build 0)  -->
<svg version="1.1" id="Ebene_1" xmlns="http://www.w3.org/2000/svg" xmlns:xlink="http://www.w3.org/1999/xlink" x="0px" y="0px"
	 viewBox="0 0 37.232 48" style="enable-background:new 0 0 37.232 48;" xml:space="preserve">
<style type="text/css">
	.st0{fill:none;stroke:#000000;stroke-width:3;stroke-linecap:round;stroke-linejoin:round;}
	.st1{fill:none;stroke:#000000;stroke-width:3;stroke-linejoin:round;}
</style>
<g>
	<g id="Gruppe_1736">
		<line id="Linie_135" class="st0" x1="18.408" y1="42.131" x2="35.651" y2="42.131"/>
		<path id="Pfad_594" class="st0" d="M31.342,37.819l4.311,4.311l-4.311,4.312"/>
		<path id="Pfad_595" class="st0" d="M24.012,37.296v-4.065l-4.065-6.097v-6.093l4.065,4.065l5.369-3.066
			c0.912-0.489,1.256-1.625,0.767-2.537c-0.489-0.912-1.625-1.256-2.537-0.767l-2.583,1.292l-2.857-4.292
			c-0.754-1.13-2.023-1.809-3.382-1.81H9.437c-1.077,0.001-2.11,0.429-2.871,1.191l-4.909,4.906v6.097
			c0,1.122,0.91,2.032,2.032,2.032s2.032-0.91,2.032-2.032v-3.896l4.065-3.217v7.722l-3.048,17.68h4.065l4.065-14.231l3.048,5.081
			v3.048"/>
		<circle id="Ellipse_57" class="st1" cx="14.867" cy="5.797" r="4.065"/>
	</g>
</g>
</svg>
