<svg xmlns="http://www.w3.org/2000/svg" xmlns:xlink="http://www.w3.org/1999/xlink" width="1956" height="29" viewBox="0 0 1956 29">
  <defs>
    <clipPath id="clip-path">
      <path id="Path_2" data-name="Path 2" d="M-.235,9.731h841v-29h-841Z" transform="translate(0 19.269)" fill="#fff"/>
    </clipPath>
    <clipPath id="clip-path-11">
      <path id="Path_2-2" data-name="Path 2" d="M841,9.731H0v-29H841Z" transform="translate(0 19.269)" fill="#fff"/>
    </clipPath>
    <clipPath id="clip-path-21">
      <path id="Path_2-3" data-name="Path 2" d="M840.382,9.731H.382v-29h840Z" transform="translate(0 19.269)" fill="#fff"/>
    </clipPath>
  </defs>
  <g id="after_banner_shap_top" transform="translate(18 -855)">
    <g id="Group_92" data-name="Group 92" transform="translate(-17.765 874.269)">
      <g id="Group_2" data-name="Group 2" transform="translate(0 -19.269)" clip-path="url(#clip-path)">
        <g id="Group_1" data-name="Group 1" transform="translate(839.513 3.654)">
          <path id="Path_1" data-name="Path 1" d="M-.3.2C.938.343.51-.513.7-.8-1.38-.447-.251.615-.3.2" transform="translate(0.555 1.142)" fill="#fff"/>
        </g>
      </g>
      <g id="Group_3" data-name="Group 3" transform="translate(781.553 -10.833)">
        <path id="Path_3" data-name="Path 3" d="M.731.137l1-1-7,2Z" transform="translate(5.48 0.427)" fill="#fff"/>
      </g>
      <g id="Group_14" data-name="Group 14" transform="translate(0 -19.269)" clip-path="url(#clip-path)">
        <g id="Group_4" data-name="Group 4" transform="translate(800.13 7.918)">
          <path id="Path_4" data-name="Path 4" d="M-.365.4c1.812,2.7,7.586-.96,11,0v1l2-2c-4.149.344-10.078,1.753-13,1" transform="translate(0 0.682)" fill="#fff"/>
        </g>
        <g id="Group_5" data-name="Group 5" transform="translate(789.614 3.113)">
          <path id="Path_5" data-name="Path 5" d="M-.466-.113c.631,1.051-1.593.577,3,0-.231-.114-.865.086-1,0a14.058,14.058,0,0,1-2,0" transform="translate(0.616)" fill="#fff"/>
        </g>
        <g id="Group_6" data-name="Group 6" transform="translate(791.545 2.766)">
          <path id="Path_6" data-name="Path 6" d="M-.437-.036c2.018-.076-1.32-.883,0,0" transform="translate(0.657 0.271)" fill="#fff"/>
        </g>
        <g id="Group_7" data-name="Group 7" transform="translate(781.249 1.629)">
          <path id="Path_7" data-name="Path 7" d="M-1.156.952l2-1c-.555-.621-2.879-.55-2-1-2.727.513-1.55.981,0,2" transform="translate(2.672 1.419)" fill="#fff"/>
        </g>
        <g id="Group_8" data-name="Group 8" transform="translate(780.025 5.162)">
          <path id="Path_8" data-name="Path 8" d="M-.26.451l2-1C1.5-.809.512-.3-.26.451" transform="translate(0 0.387)" fill="#fff"/>
        </g>
        <g id="Group_9" data-name="Group 9" transform="translate(781.402 4.513)">
          <path id="Path_9" data-name="Path 9" d="M-2.66.487h-3c.385.436.085,1.613,1,0-.239.8.758.566,2,0" transform="translate(6.023)" fill="#fff"/>
        </g>
        <g id="Group_10" data-name="Group 10" transform="translate(785.977 4.874)">
          <path id="Path_10" data-name="Path 10" d="M-.213.093c1.491.588,3.668,1.066,1,2,5.085-.371,4.085-2.379-1-2" transform="translate(0 0.033)" fill="#fff"/>
        </g>
        <g id="Group_11" data-name="Group 11" transform="translate(799.148 11.428)">
          <path id="Path_11" data-name="Path 11" d="M-.391.364l2,1,2-1c-.861.45-4.124-.846-4,0" transform="translate(0.008 0.208)" fill="#fff"/>
        </g>
        <g id="Group_12" data-name="Group 12" transform="translate(765.969 2.38)">
          <path id="Path_12" data-name="Path 12" d="M-.241-.38c-.166.574.8,2.266,1,3l2-1c-1.009-.394-2.866-1.149-3-2" transform="translate(0.036)" fill="#fff"/>
        </g>
        <g id="Group_13" data-name="Group 13" transform="translate(764.141 4.645)">
          <path id="Path_13" data-name="Path 13" d="M-3.434.355l-3,1c2.624.117,3.166-.367,3-1" transform="translate(6.057)" fill="#fff"/>
        </g>
      </g>
      <g id="Group_15" data-name="Group 15" transform="translate(688.282 -12.486)">
        <path id="Path_15" data-name="Path 15" d="M.565-.151l12-1-14,1Z" transform="translate(1.918 1.368)" fill="#fff"/>
      </g>
      <g id="Group_16" data-name="Group 16" transform="translate(626.56 -18.5)">
        <path id="Path_16" data-name="Path 16" d="M.521.353l4-1-7,1Z" transform="translate(2.683 0.878)" fill="#fff"/>
      </g>
      <g id="Group_24" data-name="Group 24" transform="translate(0 -19.269)" clip-path="url(#clip-path)">
        <g id="Group_17" data-name="Group 17" transform="translate(741.637 0)">
          <path id="Path_17" data-name="Path 17" d="M-5.6,1.322c1.232-1.1-2.3-2.322-1-3a12.537,12.537,0,0,0-5,2c1.651-.474,3.723.1,6,1" transform="translate(11.729 1.678)" fill="#fff"/>
        </g>
        <g id="Group_18" data-name="Group 18" transform="translate(739.028 1.993)">
          <path id="Path_18" data-name="Path 18" d="M-.263.189a17.216,17.216,0,0,0,3-1,9.62,9.62,0,0,0-3,1" transform="translate(0 0.818)" fill="#fff"/>
        </g>
        <g id="Group_19" data-name="Group 19" transform="translate(756.825 3.707)">
          <path id="Path_19" data-name="Path 19" d="M-2.828.21c-.227-.347-.352-.615-2-1l1,1c.353.009.6-.008,1,0" transform="translate(4.767 1.083)" fill="#fff"/>
        </g>
        <g id="Group_20" data-name="Group 20" transform="translate(755.485 5.232)">
          <path id="Path_20" data-name="Path 20" d="M-2.95-.326h0c-1.254-.035-1.628.018-2,0a15.372,15.372,0,0,1,2,0" transform="translate(5.23 0.094)" fill="#fff"/>
        </g>
        <g id="Group_21" data-name="Group 21" transform="translate(759.137 5.347)">
          <path id="Path_21" data-name="Path 21" d="M.027-.352c-.107,0-.894,0-1,0,.112.159.887.2,1,0" transform="translate(0.601 0.005)" fill="#fff"/>
        </g>
        <g id="Group_22" data-name="Group 22" transform="translate(768.544 7.282)">
          <path id="Path_22" data-name="Path 22" d="M-3.6-.282c-1.726.9-5.482,2.622-2,4,1.239-1.105-.6-2.642,2-4" transform="translate(6.818)" fill="#fff"/>
        </g>
        <g id="Group_23" data-name="Group 23" transform="translate(760.863 6.246)">
          <path id="Path_23" data-name="Path 23" d="M-.1.009l3,1c-.062-.427-.855-1.552,0-2Z" transform="translate(0 0.745)" fill="#fff"/>
        </g>
      </g>
      <g id="Group_25" data-name="Group 25" transform="translate(640.962 -11.995)">
        <path id="Path_25" data-name="Path 25" d="M-.2.3l4-1H.8Z" transform="translate(0 0.428)" fill="#fff"/>
      </g>
      <g id="Group_39" data-name="Group 39" transform="translate(0 -19.269)" clip-path="url(#clip-path)">
        <g id="Group_26" data-name="Group 26" transform="translate(739.884 4.741)">
          <path id="Path_26" data-name="Path 26" d="M-4.373.258a13.622,13.622,0,0,1-5,1,37.44,37.44,0,0,0,6,0c.247-.509.913-1.058-1-1" transform="translate(9.253 0.002)" fill="#fff"/>
        </g>
        <g id="Group_27" data-name="Group 27" transform="translate(750.705 5.192)">
          <path id="Path_27" data-name="Path 27" d="M-.559-.192c-.093.036.088-.036,0,0,.184.136.032.273,0,0" transform="translate(0.618)" fill="#fff"/>
        </g>
        <g id="Group_28" data-name="Group 28" transform="translate(723.489 5.607)">
          <path id="Path_28" data-name="Path 28" d="M.276.393C.368.482.183.3.276.393.3.3.25.487.276.393Z" fill="#fff"/>
        </g>
        <g id="Group_29" data-name="Group 29" transform="translate(745.199 5.823)">
          <path id="Path_29" data-name="Path 29" d="M-.193-.207c1.342.312,2.236.5,3,0a20.016,20.016,0,0,1-3,0c-.111.229-.432.079,0,0" transform="translate(0.758 0.384)" fill="#fff"/>
        </g>
        <g id="Group_30" data-name="Group 30" transform="translate(734.453 3.868)">
          <path id="Path_30" data-name="Path 30" d="M.311.054a13.382,13.382,0,0,0,2,1C1.628.542.559-.367.311.054" transform="translate(0 0.078)" fill="#fff"/>
        </g>
        <g id="Group_31" data-name="Group 31" transform="translate(750.116 4.569)">
          <path id="Path_31" data-name="Path 31" d="M-.634.254c.067-.026.927.017,1,0-.439-.348-1.184-.25-1,0" transform="translate(0.282 0.177)" fill="#fff"/>
        </g>
        <g id="Group_32" data-name="Group 32" transform="translate(748.475 4.837)">
          <path id="Path_32" data-name="Path 32" d="M-2.377.163c-.691.233-.454.646-1,1,.817-.127,1.344-.762,2-1-.166-.115-.88.159-1,0" transform="translate(3.667)" fill="#fff"/>
        </g>
        <g id="Group_33" data-name="Group 33" transform="translate(715.097 5.901)">
          <path id="Path_33" data-name="Path 33" d="M-3.394,3.443c.237-1.5,3.956-2.607,7-1,3-1.124.616-6.246-2-9-.093.654.083,1.116-3,2,1.079.818,6.6,1.646,4,3-4.085.772-3.014-.207-5-1,1.688,1.867-5.89,2.256-5,5l4-1c.067.427-.995,1.611,0,2" transform="translate(7.061 6.656)" fill="#fff"/>
        </g>
        <g id="Group_34" data-name="Group 34" transform="translate(723.813 3.837)">
          <path id="Path_34" data-name="Path 34" d="M-6.035.7h1c-1.446-.26-2.094-.828-4-2-2.111.73-2.854,1.5-3,2Z" transform="translate(11.987 1.464)" fill="#fff"/>
        </g>
        <g id="Group_35" data-name="Group 35" transform="translate(730.896 4.875)">
          <path id="Path_35" data-name="Path 35" d="M-5.877.473c-.991,1.629-3.866,2.237-2,4,3.723-.112,1.776-1.293,4-2-6.008.4,2.341-1.076-2-2a14.367,14.367,0,0,1,3,0,25.58,25.58,0,0,1-3-1c.055.036-.045-.038,0,0h0c.259.2.292.118,0,0-.02.02.032-.006,0,0-.041.227.119.809,0,1-1.74-.336-.546-.808,0-1,.019-.079-.006.085,0,0-.006-.009.008,0,0,0l-6,1a28.017,28.017,0,0,0,6,0" transform="translate(11.746 0.652)" fill="#fff"/>
        </g>
        <g id="Group_36" data-name="Group 36" transform="translate(766.282 13.657)">
          <path id="Path_36" data-name="Path 36" d="M-.58.093c-.187-.144.014.118,0,0-.389.2-.729-.042,0,0" transform="translate(1.063 0.25)" fill="#fff"/>
        </g>
        <g id="Group_37" data-name="Group 37" transform="translate(761.339 9.102)">
          <path id="Path_37" data-name="Path 37" d="M-2.723,1.29c.438-.227.578-1.17,2-1,1.234.489-.065,1.464,0,2,.857-.432,2.689-1.208,0-2h0c-2.423-.559-5.423-2.777-5-3a11.321,11.321,0,0,0,3,4" transform="translate(6.148 2.608)" fill="#fff"/>
        </g>
        <g id="Group_38" data-name="Group 38" transform="translate(745.272 9.872)">
          <path id="Path_38" data-name="Path 38" d="M-4.841.128l-5,1,2,1v-1c2.85.332,2.645-.349,3-1" transform="translate(10.334)" fill="#fff"/>
        </g>
      </g>
      <g id="Group_40" data-name="Group 40" transform="translate(546.124 -16.851)">
        <path id="Path_40" data-name="Path 40" d="M1.041.446l1-2-7,2Z" transform="translate(4.599 1.136)" fill="#fff"/>
      </g>
      <g id="Group_41" data-name="Group 41" transform="translate(531.987 -16.513)">
        <path id="Path_41" data-name="Path 41" d="M-.222-.352l4,1v-1Z" transform="translate(0 0.596)" fill="#fff"/>
      </g>
      <g id="Group_71" data-name="Group 71" transform="translate(0 -19.269)" clip-path="url(#clip-path)">
        <g id="Group_42" data-name="Group 42" transform="translate(347.371 23.569)">
          <path id="Path_42" data-name="Path 42" d="M-1.643.431h-1c.7-.13.672.151,1,0" transform="translate(3.036)" fill="#fff"/>
        </g>
        <g id="Group_43" data-name="Group 43" transform="translate(359.268 22.933)">
          <path id="Path_43" data-name="Path 43" d="M0,.58v-1c-.494.407-.435.968,0,1" transform="translate(0.492 0.487)" fill="#fff"/>
        </g>
        <g id="Group_44" data-name="Group 44" transform="translate(552.132 2.677)">
          <path id="Path_44" data-name="Path 44" d="M-4.237.676c-2.145-1.4-5.259-3.684-5-2l1,2a8.293,8.293,0,0,1,4,0" transform="translate(8.87 1.647)" fill="#fff"/>
        </g>
        <g id="Group_45" data-name="Group 45" transform="translate(446.878 13.895)">
          <path id="Path_45" data-name="Path 45" d="M-.113.4c.2.159.789-.168,1,0,.521-.56.563-.512,1-1-.624.336-1.256.623-2,1" transform="translate(0 0.707)" fill="#fff"/>
        </g>
        <g id="Group_46" data-name="Group 46" transform="translate(442.536 20.696)">
          <path id="Path_46" data-name="Path 46" d="M-2.6.605l-3-1a13.869,13.869,0,0,0,3,1" transform="translate(5.831 0.699)" fill="#fff"/>
        </g>
        <g id="Group_47" data-name="Group 47" transform="translate(288.893 25.309)">
          <path id="Path_47" data-name="Path 47" d="M-1.671-.309l-2,2c2.688-.009,1.787-1.181,2-2" transform="translate(3.543)" fill="#fff"/>
        </g>
        <g id="Group_48" data-name="Group 48" transform="translate(645.073 4.618)">
          <path id="Path_48" data-name="Path 48" d="M-4.832.729a19.524,19.524,0,0,0-5-1c2.231.94,4.411,2.364,5,1" transform="translate(9.523 0.653)" fill="#fff"/>
        </g>
        <g id="Group_49" data-name="Group 49" transform="translate(351.779 6.161)">
          <path id="Path_49" data-name="Path 49" d="M-1.614-.161c-.9.3-1.027.635-1,1,.928-.28,1.193-.6,1-1" transform="translate(2.6)" fill="#fff"/>
        </g>
        <g id="Group_50" data-name="Group 50" transform="translate(639.726 3.922)">
          <path id="Path_50" data-name="Path 50" d="M.038.615c.326.164.668-.139,1,0a14.06,14.06,0,0,1,4,0c-1.648-.7-3.187-1.139-5,0" transform="translate(0 0.464)" fill="#fff"/>
        </g>
        <g id="Group_51" data-name="Group 51" transform="translate(78.932 23.754)">
          <path id="Path_51" data-name="Path 51" d="M-.166.117c-.153-.074-.861.086-1,0-.047.221.688.036,1,0" transform="translate(0.998 0.129)" fill="#fff"/>
        </g>
        <g id="Group_52" data-name="Group 52" transform="translate(17.889 7.201)">
          <path id="Path_52" data-name="Path 52" d="M-.125-.33c.606-.1,2.068.023,3,0a8.509,8.509,0,0,0-3,0" transform="translate(0 0.129)" fill="#fff"/>
        </g>
        <g id="Group_53" data-name="Group 53" transform="translate(690.195 4.177)">
          <path id="Path_53" data-name="Path 53" d="M-.43-.25c1.382-.108.219-.182,0,0" transform="translate(0 0.073)" fill="#fff"/>
        </g>
        <g id="Group_54" data-name="Group 54" transform="translate(696.361 10.775)">
          <path id="Path_54" data-name="Path 54" d="M-.734.225c-.293.185.035.621,0,1,.113-.4-.246-.849,0-1" transform="translate(1.138)" fill="#fff"/>
        </g>
        <g id="Group_55" data-name="Group 55" transform="translate(625.847 14.827)">
          <path id="Path_55" data-name="Path 55" d="M-.329.169h0c.411.321.221.254,0,0" transform="translate(0.247 0.004)" fill="#fff"/>
        </g>
        <g id="Group_56" data-name="Group 56" transform="translate(690.506 4.546)">
          <path id="Path_56" data-name="Path 56" d="M-1.385.132c-.518-.2-1.35.118-2,0,.286.127,1.056-.2,2,0" transform="translate(3.643 0.322)" fill="#fff"/>
        </g>
        <g id="Group_57" data-name="Group 57" transform="translate(691.994 4.11)">
          <path id="Path_57" data-name="Path 57" d="M-.229-.208c.476.074.643-.044,1,0,.174-.274.228-.286-1,0" transform="translate(0 0.098)" fill="#fff"/>
        </g>
        <g id="Group_58" data-name="Group 58" transform="translate(688.27 4.288)">
          <path id="Path_58" data-name="Path 58" d="M.495-.346c.79-.026,1.29.882,2,1-.271-.111-1.073-.945-1-1-.4.026-.052-.03-1,0" transform="translate(0 0.058)" fill="#fff"/>
        </g>
        <g id="Group_59" data-name="Group 59" transform="translate(191.471 19.403)">
          <path id="Path_59" data-name="Path 59" d="M-.984.494c-.091-.051.1-.929,0-1-1.393.681-1.078,1.416,0,1" transform="translate(2.278 0.103)" fill="#fff"/>
        </g>
        <g id="Group_60" data-name="Group 60" transform="translate(520.434 22.071)">
          <path id="Path_60" data-name="Path 60" d="M.236-.161c.065-.017-.059.02,0,0-.065-.017.058.018,0,0Z" transform="translate(0.095 0.09)" fill="#fff"/>
        </g>
        <g id="Group_61" data-name="Group 61" transform="translate(515.518 17.34)">
          <path id="Path_61" data-name="Path 61" d="M.246,1.639c2.113-2.041,3.4-1.433,5-1l-2-5Z" transform="translate(0 4.021)" fill="#fff"/>
        </g>
        <g id="Group_62" data-name="Group 62" transform="translate(3.744 2.014)">
          <path id="Path_62" data-name="Path 62" d="M-338.876,7.439l3,2c-4.206,2.426-7.271.927-4,3,.493-5.136,13.515.13,14-5l2,1c-.658-.05-.35.051-1,0,4.467,2.461,3.244-3.731,9-3,2.006.394,3.368,1.391,2,2l5-2c1.3.1.294,1.1-1,1h7a29.552,29.552,0,0,1,4-3c1.732.736-.443,1.359,0,2l4-2c1.537,1.331-2.393,3.189-5,3,3.525,5.127,3.392-2,11,1l-3,1c2.3,2.913,4.971,2.183,9,4-.956-.949-8.1-4.72-4-6,1.155.388,2.79.034,5-1,.021,1.826,1.3,2.1,4,2v2c2.919-.7,3.282-1.91,5-3,3.253.239,3.234,2.421,4,4,5.21.383-3.167-3.544,3-4,4.334.925,7.816.448,13-1,3.033.833-1.088,1.308,0,2l3-2c.658.047.108.7,0,1,2.265-.748.438-2.343,4-3,.96-2.665,7.592,4.025,12,1,1.086.686-1.332,1.063-1,2,6.048-1.985,6.034-1.327,11-4l4,2c-3.108-1.817.522-4.234,4-6a25.792,25.792,0,0,0-3-2l6-1c.67.4-.091.99-1,2,.378-.2.721-.817,1-1,1.985.893,1.423,2.648,0,4-.676-.477-1.348-1.494-2-2-1.371,1.47-3.286,3.584-3,5a5.4,5.4,0,0,1,2-1,.728.728,0,0,0,0,1c.189.254.092-.382,1-1l2,3v-1l7,2c5.2-2.715,9.752-6.887,18-8-2.046,1.978.111,2.656,0,5-2.25-2.48-6.726,1.5-11,1,2.23.26,1.567,1.609,1,2l8-2c-.172,1.916,1.009,1.207,3,2-1.505-3.787,5.9-2.839,9-4,.193,1.272-.215,2.306-4,2,4.176,2.85,4.9-4.421,9-2-.924.032-.635.353-1,1,2.158-1.131,7.241-.107,6,1h-1c6.135.45,18.085.216,19-3a15.651,15.651,0,0,1-1,4l11-11c-.964,2.762,3.087,9.44-2,11a8.694,8.694,0,0,0,6,0c-1-.394-2.362-3.747-1-4,3.737,3.075,2.393,1.377,7,4-1.494-.594.64-5.138,3-5-.368.648-.137,4.549-1,5l6-4c-1.466.766-.314,3.8,1,5-.61-.833,5.434-.578,7-1l-3-1c6.634.642,6.419-6.223,13-6-.8.878-1.347,5.465,2,6,1.534-2.177,6.178-10.325,12-12l1,1,5-1a92.719,92.719,0,0,1-15,13c2.482.986,1.282,1.114,5,1,1.313,1.167-2.906,1.932-4,2l9,1c-.385-2.544,6.331-2.883,6-5l-9,3c-.381-2.538,5.868-7.448,12-7,1.56,1.012-2.128,4.154-2,5,.8-.875,6.436-1.619,7-1l-3,2c3.414.955,5.9-3.426,10-1,1.416.162,3.755,3.5,4,2-2.309-2.9-2.539-11.821-1-14,.5.2,7.383,2.568,9,4,2.332,2.274-2.985,5.047-1,7,.085-.694,1.464-1.724,2-2,1.487.594-1.231,2.313,2,2,.539-2.579,7.045.4,2-2,3.161-.737,3.288.112,7,0-1.181-1.666,2.833-5.266,6-6-.187.656.656,1.609,1,2,6.479.232,9.958.977,16,1,.557.624,3.241,1.892,2,3,.869-.456,2.136-1.938,4-2,3.607,2.229-3.75.323-1,3,.235-1.5,4.346-2.064,7-3-.817-2.314-6.343.066-9,1-.013-3.191,4.685-6.525,11-8,5.018-.792,2.129,1.454,3,1,9.427.557,8.172-5.3,16-3,3.106,2.032.311,4.534,1,6-4.089.771-6.229-1.082-9-1h3c-1.3.675-3.513,1.589-5,1,2.6,1.826,15.727.315,23,2,1.292-.681,3.055-1.182,2-2h-2c-2.115-1.64,4.912-2.234,2-3,3.087-1.152,5.654-2.927,10-2l1,2c-.093-.677-2.779-.706-4,0,1.812-1.027,7.015,3.036,9,0l-3-2c3.1-1.166,7.149-3.731,11-3-1.752-2.29-1.263.679-4-2,2.373,3.333-9.811-.5-6,3-2.808-3.109-5.329-1.35-9-4,.113.763,1.233,1.376-2,1-.146.223.219.833,0,1-.1-.021.085.024,0,0h0c-.141.114-.219.108,0,0,.77.335.746.574,1,1-1.605,1.757-6.261,2.091-8,3-1.919-.363,1.047-1.184,0-2l-3,2c-.257-1.7-5.52-3-1-4h-4c-2.395-.952-4.969-1.715-7-1-1.919-.368-4.671,2.33-3,1l-7,1v-1c-6.294-.214-12.8,3.065-20,0a23.2,23.2,0,0,1-8,0l-1-1c-2.72.513-7.831-1.531-9,0-2.935-3.954-13.215-.3-18-1v1c-3.294-.109-6.912,1.229-11,2l1,1c-3.525,1.392-9.425-1.174-15-1,.379-.648,2-.391,3,0-6.661-3.83-13.959,2.789-20,0a5.274,5.274,0,0,1-4,0c.14,0-.108.053,0,0-.154-.021.235,0,0,0-.665-.291-1.258-.727-2-1,.63.412.475.843,1,1a23.145,23.145,0,0,0-4,1l-1-2c-.141.024.146-.032,0,0-1.694-.672-1.9.63-1,2a7.018,7.018,0,0,0-2,1c-1.375-2.939-5.122,1.136-7-2-1.164,1.529-8.081,1.784-9,5-.059-.419-.932-.973,0-1-1.924-.366-3.274-.907-5,0l-1-2-4,3c-2.553-1.411-3.534-2.218-1-4-6.12,2.741-5.8,1.285-11,4l1-2c-1.861.056-4.878,2.239-6,1-4.162-2.844-21.318-.356-32-3,2.072,4.406-4.577-2.416-5,1-.623-1.042-1.73-1.094,0-2-5.452,1.024-8.236-1.882-12,1-.624-1.048.555-1.382,0-2-.437.224-1.432.622-2,0s1.137-.546,2-1c-5.569.176-6.6,2.985-7,6-2.823-1.428-3.962-.978-6,1-.983-.986-2.461-1.646,1-2-1.947-.144-11.8-1.417-12,1-.61-.612-3.487-.279-4,0a72.549,72.549,0,0,0-9,0h2c-1.694,2.916-3.542.65-7,1h0c-7.929-2.1-4.177.4-12-2l1,2c-.729,3.9-7.46-2.492-12-1l2,1c-2.479,1.334-6.509-5.512-9-6-.543-.339.243.25,1,0-6.519-2.3-1.143,2.449-6,3-.9-1.281,1.27-3.762-2-4-1.629-1.037-9.539,4.458-14,2,.983.987,2.256,2.257,0,3-3.459.353-8.877-4.113-12-1-.439-.27-.982-.755-1-1-2.644.8-8.407,1.313-10,3-2.443-6.264-17.059,2.777-17-3l-8,1,1-1c-5.2-.382-7.173,1.613-9,3a1.639,1.639,0,0,1-1-2c-7.6-1.164-7.632-.879-14,2l-1-2c-1.726,1.09-10.55-2.185-18,0,.073-.212-.592-.735,0-1-8.381,2.2-19.929-5.825-23,1l-5,2c7.156.53-.943,2.866,2,4-2.814.4-7.458-1.649-4-2h0c1.271-3.557-8.192-1.579-8-4-14.08.174-27.811-.847-41-1l1,2h-4c-1.207-.644-2.282-2.115,1-2-1.726-1.567-4.906,1.4-5,2-6.426-1.121,1.971-2.933,0-3h-2c-2.169,1.13-2.055,2.138-6,2-2.5-.553-1.017-.892-2-1,.006-.2-.819-.209-2,0l-6-1,3,2c-2.57,1.077-5.674.526-3,3-3.926-3.814-21.59-1.817-24-3a26.416,26.416,0,0,1-12,2c1.094.454,1.795,2.3-2,2,1.388-5.067-6.933-2.357-10-6,2.741,2.417-10.3.569-6,4-3.167-.41-.6-1.807-3-3-7.536,1.962-16.685-.663-26,0-.145.663,2,1.01,0,2l-5-3c-1.839.327-1.639,4.308-5,2,.474.559,1.234.786,0,1-18.249-3.24-37.467,3.089-56-3,2.51,1.289.917.952-1,1,1.246.307-.244,2.1,0,3l-8-3c-1.414,2.5-8.19.609-9,3l2-1c-3.267,2.824,5.478,6.376,5,10,3.659-3.21,9,4.594,15,0,1.325.739-.709,2.16,0,3a7.01,7.01,0,0,1,7-2l-1,1c9.567-.379,14.252.981,25,2l-1-2a10.967,10.967,0,0,1,4,1c2.651-2.717-6.415,0-4-3,3.064,3.645,15.93-.141,18,4,3.553.023-1.552-2.024,2-2l1,1,1-1c2.33.239,3.913,2.051,4,3a6.861,6.861,0,0,0-2,0c3.021,1.32,7.963-.432,9,0l-3-1c9.7-1.049,21.632.279,31-2h-1c7.154-1.564,6.146.724,14,0h-1a12.258,12.258,0,0,1,6-1c-1.983.99,3.6,1.905,1,3,7.757-1.679,3.876-1.859,9-5l1,2c1.746-1.267,2.077-2.635,6-3-3.217,1.2,2.6,2.409-1,4,8.231,3.066,12.224-2.485,16,2,3.78-3.881-7.117-2.169-5-3-1.773-1.267,3.417-3.389,6-3,2.63.086,4.385,5.074,11,5-.658-.018-.343.017-1,0,2.475.989,3.964-1.608,7,0,1.7-2.347,4.509.992,5-2h-6c3.44-.783,6.333-3.7,12-2a8.165,8.165,0,0,1-3,2c1.657.883,3.283-.907,5,0-.489,3-7.314.715-11,3,1.779,1.264,6.852-2.244,5,1,2.662-4.125,6.52.15,11-3l-1,2a12.255,12.255,0,0,1,4-1l-2,2c3.626-1.985,6.522,2.081,10,1-7.283.056-1.921-2.69-5-4,8.983-2.4,5.943,4.862,16,4-1.362.253-5.129-1.17-3-2a12.092,12.092,0,0,1,5,2c6.664-.373-.836-1.9,2-3,2.268,2.187,3.079-.3,6-1v2c7.593,1.171,2.164-4.414,9-3l-3,3,4-1-1,2c3.877-1.538,5.2-.581,9,0-.883-1.286.637-3.942,4-4,2.294,1.084-1.767,2.26,3,2-1.076,1.142-1.926,2.681-4,1-.213.6-.781.412-1,1,2.471,1.246,6.274,1.017,8,1a5.848,5.848,0,0,1-2-1l7-2c1.088.684-.145,1.462-1,2,1.4-.2,1.942-1.843,4-2-.533,1.482-.087,3.3-3,4l7-2c.44.645,2.855,2.455,2,3,3.651.872,9.161-3.149,14-2a3.912,3.912,0,0,1,2-1c4.548.336,8.609,2.032,14,0l3,3c4.222-.6-4.03-3,3-4,4.977-.848,1.254,2.26,3,3,2.475-1.34,7.428-4.164,12-2-1.514.5-2.586-.2-4,0m52-1c-1.009.383-3.262,1.077-4,0,1.149-2.09,2.28-.6,4,0m79-5c-.75.6-1.69.69-3,0a4.955,4.955,0,0,1,3,0m220-12c-.043.029.035-.038,0,0-2.25-.71-1.56-.342,0,0m5,1c.469-.254.2-.746,0-1-.326.462-.8.13-2,0,.332.479.6,1.409,2,1m-502,0,1,1c-2.054.527-1.569-.473-1-1" transform="translate(658.897 14.547)" fill="#fff"/>
        </g>
        <g id="Group_63" data-name="Group 63" transform="translate(444.876 19.976)">
          <path id="Path_63" data-name="Path 63" d="M-.539.369c-.286-.307-.933-.656-1-1-.4.307.163.67,1,1" transform="translate(1.427 0.655)" fill="#fff"/>
        </g>
        <g id="Group_64" data-name="Group 64" transform="translate(290.611 24.98)">
          <path id="Path_64" data-name="Path 64" d="M-.5.007c-.053-.015.053.011,0,0-.087.109.026-.109,0,0Z" transform="translate(0.655 0.013)" fill="#fff"/>
        </g>
        <g id="Group_65" data-name="Group 65" transform="translate(605.469 21.088)">
          <path id="Path_65" data-name="Path 65" d="M-1.539.29a4.762,4.762,0,0,1-2-1c-.052.447.529.882,2,1" transform="translate(3.834 0.622)" fill="#fff"/>
        </g>
        <g id="Group_66" data-name="Group 66" transform="translate(701.499 3.464)">
          <path id="Path_66" data-name="Path 66" d="M-2.908-.464l-3,1c1.448-.089,1.269.711,2,1-.065-.426.064-1.97,1-2" transform="translate(6.173)" fill="#fff"/>
        </g>
        <g id="Group_67" data-name="Group 67" transform="translate(729.528 13.652)">
          <path id="Path_67" data-name="Path 67" d="M-.724.622c.437-.224.569.227,1,0v-1c-1.863.056-2.927.64-1,1" transform="translate(1.96 0.726)" fill="#fff"/>
        </g>
        <g id="Group_68" data-name="Group 68" transform="translate(707.265 8.819)">
          <path id="Path_68" data-name="Path 68" d="M.5.715c.238,1.534,1.9.283,4,0-.126,0-.875.018-1,0,.618-2.147-.775-.707-3,0" transform="translate(0 0.466)" fill="#fff"/>
        </g>
        <g id="Group_69" data-name="Group 69" transform="translate(711.963 9.74)">
          <path id="Path_69" data-name="Path 69" d="M-.2-.045a9.2,9.2,0,0,1,2,0c.245-.862-.848-.218-2,0" transform="translate(0 0.305)" fill="#fff"/>
        </g>
        <g id="Group_70" data-name="Group 70" transform="translate(683.694 3.695)">
          <path id="Path_70" data-name="Path 70" d="M-1.971,1.082c.994.4.437-2.625,1-2,1.11-1.953-6.444,3.027-1,2" transform="translate(4.042 1.222)" fill="#fff"/>
        </g>
      </g>
      <g id="Group_72" data-name="Group 72" transform="translate(512.634 -6.395)">
        <path id="Path_72" data-name="Path 72" d="M1.158-.125l-2-1-3,1Z" transform="translate(3.973 1.251)" fill="#fff"/>
      </g>
      <g id="Group_75" data-name="Group 75" transform="translate(0 -19.269)" clip-path="url(#clip-path)">
        <g id="Group_73" data-name="Group 73" transform="translate(692.403 12.886)">
          <path id="Path_73" data-name="Path 73" d="M.358-.087l3,1c-.051-.316.477-.859,1-1-2.065-.064-4.079-.562-4,0" transform="translate(0.004 0.201)" fill="#fff"/>
        </g>
        <g id="Group_74" data-name="Group 74" transform="translate(696.653 12.755)">
          <path id="Path_74" data-name="Path 74" d="M.112.038c1.075.036,2.4.309,3,0a14.121,14.121,0,0,0-3,0" transform="translate(0 0.207)" fill="#fff"/>
        </g>
      </g>
      <g id="Group_76" data-name="Group 76" transform="translate(497.887 -4.596)">
        <path id="Path_76" data-name="Path 76" d="M.958-.026h0Z" transform="translate(6.92 0.353)" fill="#fff"/>
      </g>
      <g id="Group_80" data-name="Group 80" transform="translate(0 -19.269)" clip-path="url(#clip-path)">
        <g id="Group_77" data-name="Group 77" transform="translate(652.648 12.824)">
          <path id="Path_77" data-name="Path 77" d="M-3.585.176h-4c-.372.65.639,1.259,2,1,.875-.453,2.561-.372,2-1" transform="translate(7.702)" fill="#fff"/>
        </g>
        <g id="Group_78" data-name="Group 78" transform="translate(665.719 16.572)">
          <path id="Path_78" data-name="Path 78" d="M-1.51.477c-.989-.394-1.443-.376-2-1v2Z" transform="translate(3.555 0.951)" fill="#fff"/>
        </g>
        <g id="Group_79" data-name="Group 79" transform="translate(654.135 18.56)">
          <path id="Path_79" data-name="Path 79" d="M-2.821.44c-.364.651-5.635,1.147-1,1,.371-.647,4.362-.464,1-1" transform="translate(5.451)" fill="#fff"/>
        </g>
      </g>
      <g id="Group_81" data-name="Group 81" transform="translate(600.706 -7.175)">
        <path id="Path_81" data-name="Path 81" d="M.059.344h2v-3Z" transform="translate(0 2.563)" fill="#fff"/>
      </g>
      <g id="Group_84" data-name="Group 84" transform="translate(0 -19.269)" clip-path="url(#clip-path)">
        <g id="Group_82" data-name="Group 82" transform="translate(552.669 21.853)">
          <path id="Path_82" data-name="Path 82" d="M-.81,1.2c4.333.922,1.084-2.151,5-1,1.018-.91-3.043-1.214-2-2-2.616.96-4.2.467-3,3" transform="translate(0.906 1.948)" fill="#fff"/>
        </g>
        <g id="Group_83" data-name="Group 83" transform="translate(555.895 21.266)">
          <path id="Path_83" data-name="Path 83" d="M-.13.347C.289.2.4-.4.87-.653c-.758.241-.779.839-1,1" transform="translate(0 0.387)" fill="#fff"/>
        </g>
      </g>
      <g id="Group_85" data-name="Group 85" transform="translate(12.005 -15.712)">
        <path id="Path_85" data-name="Path 85" d="M1.05.589l2-1h-7Z" transform="translate(3.709 0.854)" fill="#fff"/>
      </g>
      <g id="Group_88" data-name="Group 88" transform="translate(0 -19.269)" clip-path="url(#clip-path)">
        <g id="Group_86" data-name="Group 86" transform="translate(0 5.73)">
          <path id="Path_86" data-name="Path 86" d="M-2.04.649l-1-2-2,2c.63-.109,2.521-.554,3,0" transform="translate(4.805 1.621)" fill="#fff"/>
        </g>
        <g id="Group_87" data-name="Group 87" transform="translate(380.949 26.43)">
          <path id="Path_87" data-name="Path 87" d="M-2.676.66l1-1c-.432-.639-1.693-.9-3-1Z" transform="translate(4.491 0.91)" fill="#fff"/>
        </g>
      </g>
      <g id="Group_89" data-name="Group 89" transform="translate(344.042 5.683)">
        <path id="Path_89" data-name="Path 89" d="M.557.615h1l-3-2Z" transform="translate(1.165 1.433)" fill="#fff"/>
      </g>
      <g id="Group_91" data-name="Group 91" transform="translate(0 -19.269)" clip-path="url(#clip-path)">
        <g id="Group_90" data-name="Group 90" transform="translate(313.566 27.58)">
          <path id="Path_90" data-name="Path 90" d="M.1.613c1.294.092,2.7-1.094,4-1-2.822.4-4.35-1.768-4,1" transform="translate(0.096 0.806)" fill="#fff"/>
        </g>
      </g>
    </g>
    <g id="Group_503" data-name="Group 503" transform="translate(1097 855)">
      <g id="Group_2-2" data-name="Group 2" transform="translate(0 0)" clip-path="url(#clip-path-11)">
        <g id="Group_1-2" data-name="Group 1" transform="translate(0 3.654)">
          <path id="Path_1-2" data-name="Path 1" d="M.445.2c-1.241.139-.813-.717-1-1,2.077.35.948,1.412,1,1" transform="translate(0.555 1.142)" fill="#fff"/>
        </g>
      </g>
      <g id="Group_3-2" data-name="Group 3" transform="translate(51.8 8.436)">
        <path id="Path_3-2" data-name="Path 3" d="M-4.28.137l-1-1,7,2Z" transform="translate(5.48 0.427)" fill="#fff"/>
      </g>
      <g id="Group_14-2" data-name="Group 14" transform="translate(0 0)" clip-path="url(#clip-path-11)">
        <g id="Group_4-2" data-name="Group 4" transform="translate(28.175 7.918)">
          <path id="Path_4-2" data-name="Path 4" d="M12.825.4c-1.812,2.7-7.586-.96-11,0v1l-2-2c4.149.344,10.078,1.753,13,1" transform="translate(0 0.682)" fill="#fff"/>
        </g>
        <g id="Group_5-2" data-name="Group 5" transform="translate(48.469 3.113)">
          <path id="Path_5-2" data-name="Path 5" d="M1.915-.113c-.631,1.051,1.593.577-3,0,.231-.114.865.086,1,0a14.058,14.058,0,0,0,2,0" transform="translate(0.616)" fill="#fff"/>
        </g>
        <g id="Group_6-2" data-name="Group 6" transform="translate(48.235 2.766)">
          <path id="Path_6-2" data-name="Path 6" d="M.108-.036c-2.018-.076,1.32-.883,0,0" transform="translate(0.657 0.271)" fill="#fff"/>
        </g>
        <g id="Group_7-2" data-name="Group 7" transform="translate(55.562 1.629)">
          <path id="Path_7-2" data-name="Path 7" d="M-.234.952l-2-1c.555-.621,2.879-.55,2-1,2.727.513,1.55.981,0,2" transform="translate(2.672 1.419)" fill="#fff"/>
        </g>
        <g id="Group_8-2" data-name="Group 8" transform="translate(59.363 5.162)">
          <path id="Path_8-2" data-name="Path 8" d="M1.637.451l-2-1c.241-.26,1.228.252,2,1" transform="translate(0 0.387)" fill="#fff"/>
        </g>
        <g id="Group_9-2" data-name="Group 9" transform="translate(56.441 4.513)">
          <path id="Path_9-2" data-name="Path 9" d="M-6.464.487h3c-.385.436-.085,1.613-1,0,.239.8-.758.566-2,0" transform="translate(6.023)" fill="#fff"/>
        </g>
        <g id="Group_10-2" data-name="Group 10" transform="translate(50.578 4.874)">
          <path id="Path_10-2" data-name="Path 10" d="M4.422.093c-1.491.588-3.668,1.066-1,2-5.085-.371-4.085-2.379,1-2" transform="translate(0 0.033)" fill="#fff"/>
        </g>
        <g id="Group_11-2" data-name="Group 11" transform="translate(37.896 11.428)">
          <path id="Path_11-2" data-name="Path 11" d="M4.1.364l-2,1-2-1c.861.45,4.124-.846,4,0" transform="translate(0.008 0.208)" fill="#fff"/>
        </g>
        <g id="Group_12-2" data-name="Group 12" transform="translate(71.723 2.38)">
          <path id="Path_12-2" data-name="Path 12" d="M3.241-.38c.166.574-.8,2.266-1,3l-2-1c1.009-.394,2.866-1.149,3-2" transform="translate(0.036)" fill="#fff"/>
        </g>
        <g id="Group_13-2" data-name="Group 13" transform="translate(73.656 4.645)">
          <path id="Path_13-2" data-name="Path 13" d="M-5.714.355l3,1c-2.624.117-3.166-.367-3-1" transform="translate(6.057)" fill="#fff"/>
        </g>
      </g>
      <g id="Group_15-2" data-name="Group 15" transform="translate(138.361 6.783)">
        <path id="Path_15-2" data-name="Path 15" d="M9.721-.151l-12-1,14,1Z" transform="translate(1.918 1.368)" fill="#fff"/>
      </g>
      <g id="Group_16-2" data-name="Group 16" transform="translate(206.926 0.769)">
        <path id="Path_16-2" data-name="Path 16" d="M1.391.353l-4-1,7,1Z" transform="translate(2.683 0.878)" fill="#fff"/>
      </g>
      <g id="Group_24-2" data-name="Group 24" transform="translate(0 0)" clip-path="url(#clip-path-11)">
        <g id="Group_17-2" data-name="Group 17" transform="translate(93.129 0)">
          <path id="Path_17-2" data-name="Path 17" d="M-11.858,1.322c-1.232-1.1,2.3-2.322,1-3a12.537,12.537,0,0,1,5,2c-1.651-.474-3.723.1-6,1" transform="translate(11.729 1.678)" fill="#fff"/>
        </g>
        <g id="Group_18-2" data-name="Group 18" transform="translate(99.127 1.993)">
          <path id="Path_18-2" data-name="Path 18" d="M2.873.189a17.216,17.216,0,0,1-3-1,9.62,9.62,0,0,1,3,1" transform="translate(0 0.818)" fill="#fff"/>
        </g>
        <g id="Group_19-2" data-name="Group 19" transform="translate(81.627 3.707)">
          <path id="Path_19-2" data-name="Path 19" d="M-4.395.21c.227-.347.352-.615,2-1l-1,1c-.353.009-.6-.008-1,0" transform="translate(4.767 1.083)" fill="#fff"/>
        </g>
        <g id="Group_20-2" data-name="Group 20" transform="translate(82.744 5.232)">
          <path id="Path_20-2" data-name="Path 20" d="M-4.974-.326h0c1.254-.035,1.628.018,2,0a15.372,15.372,0,0,0-2,0" transform="translate(5.23 0.094)" fill="#fff"/>
        </g>
        <g id="Group_21-2" data-name="Group 21" transform="translate(81.336 5.347)">
          <path id="Path_21-2" data-name="Path 21" d="M-.937-.352c.107,0,.894,0,1,0-.112.159-.887.2-1,0" transform="translate(0.601 0.005)" fill="#fff"/>
        </g>
        <g id="Group_22-2" data-name="Group 22" transform="translate(68.915 7.282)">
          <path id="Path_22-2" data-name="Path 22" d="M-6.732-.282c1.726.9,5.482,2.622,2,4-1.239-1.105.6-2.642-2-4" transform="translate(6.818)" fill="#fff"/>
        </g>
        <g id="Group_23-2" data-name="Group 23" transform="translate(76.551 6.246)">
          <path id="Path_23-2" data-name="Path 23" d="M3.449.009l-3,1c.062-.427.855-1.552,0-2Z" transform="translate(0 0.745)" fill="#fff"/>
        </g>
      </g>
      <g id="Group_25-2" data-name="Group 25" transform="translate(196.055 7.274)">
        <path id="Path_25-2" data-name="Path 25" d="M3.945.3l-4-1h3Z" transform="translate(0 0.428)" fill="#fff"/>
      </g>
      <g id="Group_39-2" data-name="Group 39" transform="translate(0 0)" clip-path="url(#clip-path-11)">
        <g id="Group_26-2" data-name="Group 26" transform="translate(95.134 4.741)">
          <path id="Path_26-2" data-name="Path 26" d="M-8.387.258a13.622,13.622,0,0,0,5,1,37.44,37.44,0,0,1-6,0c-.247-.509-.913-1.058,1-1" transform="translate(9.253 0.002)" fill="#fff"/>
        </g>
        <g id="Group_27-2" data-name="Group 27" transform="translate(89.755 5.192)">
          <path id="Path_27-2" data-name="Path 27" d="M-.373-.192c.093.036-.088-.036,0,0-.184.136-.032.273,0,0" transform="translate(0.618)" fill="#fff"/>
        </g>
        <g id="Group_28-2" data-name="Group 28" transform="translate(116.952 5.607)">
          <path id="Path_28-2" data-name="Path 28" d="M.048.393c-.092.089.093-.094,0,0C.027.3.075.487.048.393Z" fill="#fff"/>
        </g>
        <g id="Group_29-2" data-name="Group 29" transform="translate(92.29 5.823)">
          <path id="Path_29-2" data-name="Path 29" d="M1.952-.208c-1.342.312-2.236.5-3,0a20.016,20.016,0,0,0,3,0c.111.229.432.079,0,0" transform="translate(0.758 0.384)" fill="#fff"/>
        </g>
        <g id="Group_30-2" data-name="Group 30" transform="translate(103.988 3.868)">
          <path id="Path_30-2" data-name="Path 30" d="M2.012.054a13.382,13.382,0,0,1-2,1c.683-.512,1.753-1.421,2-1" transform="translate(0 0.078)" fill="#fff"/>
        </g>
        <g id="Group_31-2" data-name="Group 31" transform="translate(90.311 4.569)">
          <path id="Path_31-2" data-name="Path 31" d="M.407.254C.34.228-.52.27-.593.254c.439-.348,1.184-.25,1,0" transform="translate(0.282 0.177)" fill="#fff"/>
        </g>
        <g id="Group_32-2" data-name="Group 32" transform="translate(90.06 4.837)">
          <path id="Path_32-2" data-name="Path 32" d="M-2.727.163c.691.233.454.646,1,1-.817-.127-1.344-.762-2-1,.166-.115.88.159,1,0" transform="translate(3.667)" fill="#fff"/>
        </g>
        <g id="Group_33-2" data-name="Group 33" transform="translate(113.925 5.901)">
          <path id="Path_33-2" data-name="Path 33" d="M1.014,3.443c-.237-1.5-3.956-2.607-7-1-3-1.124-.616-6.246,2-9,.093.654-.083,1.116,3,2-1.079.818-6.6,1.646-4,3,4.085.772,3.014-.207,5-1-1.688,1.867,5.89,2.256,5,5l-4-1c-.067.427.995,1.611,0,2" transform="translate(7.061 6.656)" fill="#fff"/>
        </g>
        <g id="Group_34-2" data-name="Group 34" transform="translate(109.869 3.837)">
          <path id="Path_34-2" data-name="Path 34" d="M-10.856.7h-1c1.446-.26,2.094-.828,4-2,2.111.73,2.854,1.5,3,2Z" transform="translate(11.987 1.464)" fill="#fff"/>
        </g>
        <g id="Group_35-2" data-name="Group 35" transform="translate(100.88 4.875)">
          <path id="Path_35-2" data-name="Path 35" d="M-8.626.473c.991,1.629,3.866,2.237,2,4-3.723-.112-1.776-1.293-4-2,6.008.4-2.341-1.076,2-2a14.367,14.367,0,0,0-3,0,25.58,25.58,0,0,0,3-1c-.055.036.045-.038,0,0h0c-.259.2-.292.118,0,0,.02.02-.032-.006,0,0,.041.227-.119.809,0,1,1.74-.336.546-.808,0-1-.019-.079.006.085,0,0,.006-.009-.008,0,0,0l6,1a28.017,28.017,0,0,1-6,0" transform="translate(11.746 0.652)" fill="#fff"/>
        </g>
        <g id="Group_36-2" data-name="Group 36" transform="translate(73.967 13.657)">
          <path id="Path_36-2" data-name="Path 36" d="M-1.031.093c.187-.144-.014.118,0,0,.389.2.729-.042,0,0" transform="translate(1.063 0.25)" fill="#fff"/>
        </g>
        <g id="Group_37-2" data-name="Group 37" transform="translate(72.537 9.102)">
          <path id="Path_37-2" data-name="Path 37" d="M-2.686,1.29c-.438-.227-.578-1.17-2-1-1.234.489.065,1.464,0,2-.857-.432-2.689-1.208,0-2h0c2.423-.559,5.423-2.777,5-3a11.321,11.321,0,0,1-3,4" transform="translate(6.148 2.608)" fill="#fff"/>
        </g>
        <g id="Group_38-2" data-name="Group 38" transform="translate(90.481 9.872)">
          <path id="Path_38-2" data-name="Path 38" d="M-10.815.128l5,1-2,1v-1c-2.85.332-2.645-.349-3-1" transform="translate(10.334)" fill="#fff"/>
        </g>
      </g>
      <g id="Group_40-2" data-name="Group 40" transform="translate(287.537 2.418)">
        <path id="Path_40-2" data-name="Path 40" d="M-3.136.446l-1-2,7,2Z" transform="translate(4.599 1.136)" fill="#fff"/>
      </g>
      <g id="Group_41-2" data-name="Group 41" transform="translate(304.559 2.756)">
        <path id="Path_41-2" data-name="Path 41" d="M4.441-.352l-4,1v-1Z" transform="translate(0 0.596)" fill="#fff"/>
      </g>
      <g id="Group_71-2" data-name="Group 71" transform="translate(0 0)" clip-path="url(#clip-path-11)">
        <g id="Group_42-2" data-name="Group 42" transform="translate(491.921 23.569)">
          <path id="Path_42-2" data-name="Path 42" d="M-2.957.431h1c-.7-.13-.672.151-1,0" transform="translate(3.036)" fill="#fff"/>
        </g>
        <g id="Group_43-2" data-name="Group 43" transform="translate(480.997 22.933)">
          <path id="Path_43-2" data-name="Path 43" d="M-.489.58v-1c.494.407.435.968,0,1" transform="translate(0.492 0.487)" fill="#fff"/>
        </g>
        <g id="Group_44-2" data-name="Group 44" transform="translate(284.331 2.677)">
          <path id="Path_44-2" data-name="Path 44" d="M-9.2.675c2.145-1.4,5.259-3.684,5-2l-1,2a8.293,8.293,0,0,0-4,0" transform="translate(8.87 1.647)" fill="#fff"/>
        </g>
        <g id="Group_45-2" data-name="Group 45" transform="translate(391.811 13.895)">
          <path id="Path_45-2" data-name="Path 45" d="M2.189.4c-.2.159-.789-.168-1,0-.521-.56-.563-.512-1-1,.624.336,1.256.623,2,1" transform="translate(0 0.707)" fill="#fff"/>
        </g>
        <g id="Group_46-2" data-name="Group 46" transform="translate(395.401 20.696)">
          <path id="Path_46-2" data-name="Path 46" d="M-6.232.605l3-1a13.869,13.869,0,0,1-3,1" transform="translate(5.831 0.699)" fill="#fff"/>
        </g>
        <g id="Group_47-2" data-name="Group 47" transform="translate(550.073 25.309)">
          <path id="Path_47-2" data-name="Path 47" d="M-3.616-.309l2,2c-2.688-.009-1.787-1.181-2-2" transform="translate(3.543)" fill="#fff"/>
        </g>
        <g id="Group_48-2" data-name="Group 48" transform="translate(191.073 4.618)">
          <path id="Path_48-2" data-name="Path 48" d="M-9.6.729a19.524,19.524,0,0,1,5-1c-2.231.94-4.411,2.364-5,1" transform="translate(9.523 0.653)" fill="#fff"/>
        </g>
        <g id="Group_49-2" data-name="Group 49" transform="translate(487.686 6.161)">
          <path id="Path_49-2" data-name="Path 49" d="M-2.285-.161c.9.3,1.027.635,1,1-.928-.28-1.193-.6-1-1" transform="translate(2.6)" fill="#fff"/>
        </g>
        <g id="Group_50-2" data-name="Group 50" transform="translate(195.692 3.922)">
          <path id="Path_50-2" data-name="Path 50" d="M5.308.615c-.326.164-.668-.139-1,0a14.06,14.06,0,0,0-4,0c1.648-.7,3.187-1.139,5,0" transform="translate(0 0.464)" fill="#fff"/>
        </g>
        <g id="Group_51-2" data-name="Group 51" transform="translate(761.348 23.754)">
          <path id="Path_51-2" data-name="Path 51" d="M-1.346.117c.153-.074.861.086,1,0,.047.221-.688.036-1,0" transform="translate(0.998 0.129)" fill="#fff"/>
        </g>
        <g id="Group_52-2" data-name="Group 52" transform="translate(820.349 7.201)">
          <path id="Path_52-2" data-name="Path 52" d="M2.651-.33c-.606-.1-2.068.023-3,0a8.509,8.509,0,0,1,3,0" transform="translate(0 0.129)" fill="#fff"/>
        </g>
        <g id="Group_53-2" data-name="Group 53" transform="translate(149.904 4.177)">
          <path id="Path_53-2" data-name="Path 53" d="M1.1-.25c-1.382-.108-.219-.182,0,0" transform="translate(0 0.073)" fill="#fff"/>
        </g>
        <g id="Group_54-2" data-name="Group 54" transform="translate(143.852 10.775)">
          <path id="Path_54-2" data-name="Path 54" d="M-.99.225c.293.185-.035.621,0,1-.113-.4.246-.849,0-1" transform="translate(1.138)" fill="#fff"/>
        </g>
        <g id="Group_55-2" data-name="Group 55" transform="translate(214.621 14.827)">
          <path id="Path_55-2" data-name="Path 55" d="M.132.169h0c-.411.321-.221.254,0,0" transform="translate(0.247 0.004)" fill="#fff"/>
        </g>
        <g id="Group_56-2" data-name="Group 56" transform="translate(148.491 4.546)">
          <path id="Path_56-2" data-name="Path 56" d="M-4.134.132c.518-.2,1.35.118,2,0-.286.127-1.056-.2-2,0" transform="translate(3.643 0.322)" fill="#fff"/>
        </g>
        <g id="Group_57-2" data-name="Group 57" transform="translate(147.504 4.11)">
          <path id="Path_57-2" data-name="Path 57" d="M1.5-.208c-.476.074-.643-.044-1,0-.174-.274-.228-.286,1,0" transform="translate(0 0.098)" fill="#fff"/>
        </g>
        <g id="Group_58-2" data-name="Group 58" transform="translate(150.258 4.288)">
          <path id="Path_58-2" data-name="Path 58" d="M1.742-.346c-.79-.026-1.29.882-2,1,.271-.111,1.073-.945,1-1,.4.026.052-.03,1,0" transform="translate(0 0.058)" fill="#fff"/>
        </g>
        <g id="Group_59-2" data-name="Group 59" transform="translate(648.189 19.403)">
          <path id="Path_59-2" data-name="Path 59" d="M-2.467.494c.091-.051-.1-.929,0-1,1.393.681,1.078,1.416,0,1" transform="translate(2.278 0.103)" fill="#fff"/>
        </g>
        <g id="Group_60-2" data-name="Group 60" transform="translate(320.127 22.071)">
          <path id="Path_60-2" data-name="Path 60" d="M-.222-.161c-.065-.017.059.02,0,0,.065-.017-.058.018,0,0Z" transform="translate(0.095 0.09)" fill="#fff"/>
        </g>
        <g id="Group_61-2" data-name="Group 61" transform="translate(320.331 17.34)">
          <path id="Path_61-2" data-name="Path 61" d="M4.669,1.639c-2.113-2.041-3.4-1.433-5-1l2-5Z" transform="translate(0 4.021)" fill="#fff"/>
        </g>
        <g id="Group_62-2" data-name="Group 62" transform="translate(127.434 2.014)">
          <path id="Path_62-2" data-name="Path 62" d="M-269.331,7.439l-3,2c4.206,2.426,7.271.927,4,3-.493-5.136-13.515.13-14-5l-2,1c.658-.05.35.051,1,0-4.467,2.461-3.244-3.731-9-3-2.006.394-3.368,1.391-2,2l-5-2c-1.3.1-.294,1.1,1,1h-7a29.552,29.552,0,0,0-4-3c-1.732.736.443,1.359,0,2l-4-2c-1.537,1.331,2.393,3.189,5,3-3.525,5.127-3.392-2-11,1l3,1c-2.3,2.913-4.971,2.183-9,4,.956-.949,8.1-4.72,4-6-1.155.388-2.79.034-5-1-.021,1.826-1.3,2.1-4,2v2c-2.919-.7-3.282-1.91-5-3-3.253.239-3.234,2.421-4,4-5.21.383,3.167-3.544-3-4-4.334.925-7.816.448-13-1-3.033.833,1.088,1.308,0,2l-3-2c-.658.047-.108.7,0,1-2.265-.748-.438-2.343-4-3-.96-2.665-7.592,4.025-12,1-1.086.686,1.332,1.063,1,2-6.048-1.985-6.034-1.327-11-4l-4,2c3.108-1.817-.522-4.234-4-6a25.791,25.791,0,0,1,3-2l-6-1c-.67.4.091.99,1,2-.378-.2-.721-.817-1-1-1.985.893-1.423,2.648,0,4,.676-.477,1.348-1.494,2-2,1.371,1.47,3.286,3.584,3,5a5.4,5.4,0,0,0-2-1,.728.728,0,0,1,0,1c-.189.254-.092-.382-1-1l-2,3v-1l-7,2c-5.2-2.715-9.752-6.887-18-8,2.046,1.978-.111,2.656,0,5,2.25-2.48,6.726,1.5,11,1-2.23.26-1.567,1.609-1,2l-8-2c.172,1.916-1.009,1.207-3,2,1.505-3.787-5.9-2.839-9-4-.193,1.272.215,2.306,4,2-4.176,2.85-4.9-4.421-9-2,.924.032.635.353,1,1-2.158-1.131-7.241-.107-6,1h1c-6.135.45-18.085.216-19-3a15.651,15.651,0,0,0,1,4l-11-11c.964,2.762-3.087,9.44,2,11a8.694,8.694,0,0,1-6,0c1-.394,2.362-3.747,1-4-3.737,3.075-2.393,1.377-7,4,1.494-.594-.64-5.138-3-5,.368.648.137,4.549,1,5l-6-4c1.466.766.314,3.8-1,5,.61-.833-5.434-.578-7-1l3-1c-6.634.642-6.419-6.223-13-6,.8.878,1.347,5.465-2,6-1.534-2.177-6.178-10.325-12-12l-1,1-5-1a92.719,92.719,0,0,0,15,13c-2.482.986-1.282,1.114-5,1-1.313,1.167,2.906,1.932,4,2l-9,1c.385-2.544-6.331-2.883-6-5l9,3c.381-2.538-5.868-7.448-12-7-1.56,1.012,2.128,4.154,2,5-.8-.875-6.436-1.619-7-1l3,2c-3.414.955-5.9-3.426-10-1-1.416.162-3.755,3.5-4,2,2.309-2.9,2.539-11.821,1-14-.5.2-7.383,2.568-9,4-2.332,2.274,2.985,5.047,1,7-.085-.694-1.464-1.724-2-2-1.487.594,1.231,2.313-2,2-.539-2.579-7.044.4-2-2-3.161-.737-3.288.112-7,0,1.181-1.666-2.833-5.266-6-6,.187.656-.656,1.609-1,2-6.479.232-9.958.977-16,1-.557.624-3.241,1.892-2,3-.869-.456-2.136-1.938-4-2-3.607,2.229,3.75.323,1,3-.235-1.5-4.346-2.064-7-3,.817-2.314,6.343.066,9,1,.013-3.191-4.685-6.525-11-8-5.018-.792-2.129,1.454-3,1-9.427.557-8.172-5.3-16-3-3.106,2.032-.311,4.534-1,6,4.089.771,6.229-1.082,9-1h-3c1.3.675,3.513,1.589,5,1-2.6,1.826-15.727.315-23,2-1.292-.681-3.055-1.182-2-2h2c2.115-1.64-4.912-2.234-2-3-3.087-1.152-5.654-2.927-10-2l-1,2c.093-.677,2.779-.706,4,0-1.812-1.027-7.015,3.036-9,0l3-2c-3.1-1.166-7.149-3.731-11-3,1.752-2.29,1.263.679,4-2-2.373,3.333,9.811-.5,6,3,2.808-3.109,5.329-1.35,9-4-.113.763-1.233,1.376,2,1,.146.223-.219.833,0,1,.1-.021-.085.024,0,0h0c.141.114.219.108,0,0-.77.335-.746.574-1,1,1.605,1.757,6.261,2.091,8,3,1.919-.363-1.047-1.184,0-2l3,2c.257-1.7,5.52-3,1-4h4c2.395-.952,4.969-1.715,7-1,1.919-.368,4.671,2.33,3,1l7,1v-1c6.294-.214,12.8,3.065,20,0a23.2,23.2,0,0,0,8,0l1-1c2.72.513,7.831-1.531,9,0,2.935-3.954,13.215-.3,18-1v1c3.294-.109,6.912,1.229,11,2l-1,1c3.525,1.392,9.425-1.174,15-1-.379-.648-2-.391-3,0,6.661-3.83,13.959,2.789,20,0a5.274,5.274,0,0,0,4,0c-.14,0,.108.053,0,0,.154-.021-.235,0,0,0,.665-.291,1.258-.727,2-1-.63.412-.475.843-1,1a23.145,23.145,0,0,1,4,1l1-2c.141.024-.146-.032,0,0,1.694-.672,1.9.63,1,2a7.018,7.018,0,0,1,2,1c1.375-2.939,5.122,1.136,7-2,1.164,1.529,8.081,1.784,9,5,.059-.419.932-.973,0-1,1.924-.366,3.274-.907,5,0l1-2,4,3c2.553-1.411,3.534-2.218,1-4,6.12,2.741,5.8,1.285,11,4l-1-2c1.861.056,4.878,2.239,6,1,4.162-2.844,21.318-.356,32-3-2.072,4.406,4.577-2.416,5,1,.623-1.042,1.73-1.094,0-2,5.452,1.024,8.236-1.882,12,1,.624-1.048-.555-1.382,0-2,.437.224,1.432.622,2,0s-1.137-.546-2-1c5.569.176,6.6,2.985,7,6,2.823-1.428,3.962-.978,6,1,.983-.986,2.461-1.646-1-2,1.947-.144,11.8-1.417,12,1,.61-.612,3.487-.279,4,0a72.549,72.549,0,0,1,9,0h-2c1.694,2.916,3.542.65,7,1h0c7.929-2.1,4.177.4,12-2l-1,2c.729,3.9,7.46-2.492,12-1l-2,1c2.479,1.334,6.509-5.512,9-6,.543-.339-.243.25-1,0,6.519-2.3,1.143,2.449,6,3,.9-1.281-1.27-3.762,2-4,1.629-1.037,9.539,4.458,14,2-.983.987-2.256,2.257,0,3,3.459.353,8.877-4.113,12-1,.439-.27.982-.755,1-1,2.644.8,8.407,1.313,10,3,2.443-6.264,17.059,2.777,17-3l8,1-1-1c5.2-.382,7.173,1.613,9,3a1.639,1.639,0,0,0,1-2c7.6-1.164,7.632-.879,14,2l1-2c1.726,1.09,10.55-2.185,18,0-.073-.212.592-.735,0-1,8.381,2.2,19.929-5.825,23,1l5,2c-7.156.53.943,2.866-2,4,2.814.4,7.458-1.649,4-2h0c-1.271-3.557,8.192-1.579,8-4,14.08.174,27.811-.847,41-1l-1,2h4c1.207-.644,2.282-2.115-1-2,1.726-1.567,4.906,1.4,5,2,6.426-1.121-1.971-2.933,0-3h2c2.169,1.13,2.055,2.138,6,2,2.5-.553,1.017-.892,2-1-.006-.2.819-.209,2,0l6-1-3,2c2.57,1.077,5.674.526,3,3,3.926-3.814,21.59-1.817,24-3a26.416,26.416,0,0,0,12,2c-1.094.454-1.795,2.3,2,2-1.388-5.067,6.933-2.357,10-6-2.741,2.417,10.3.569,6,4,3.167-.41.6-1.807,3-3,7.536,1.962,16.685-.663,26,0,.145.663-2,1.01,0,2l5-3c1.839.327,1.639,4.308,5,2-.474.559-1.234.786,0,1,18.249-3.24,37.467,3.089,56-3-2.51,1.289-.917.952,1,1-1.246.307.244,2.1,0,3l8-3c1.414,2.5,8.19.609,9,3l-2-1c3.267,2.824-5.478,6.376-5,10-3.659-3.21-9,4.594-15,0-1.325.739.709,2.16,0,3a7.01,7.01,0,0,0-7-2l1,1c-9.567-.379-14.252.981-25,2l1-2a10.967,10.967,0,0,0-4,1c-2.651-2.717,6.415,0,4-3-3.064,3.645-15.93-.141-18,4-3.553.023,1.552-2.024-2-2l-1,1-1-1c-2.33.239-3.913,2.051-4,3a6.861,6.861,0,0,1,2,0c-3.021,1.32-7.963-.432-9,0l3-1c-9.7-1.049-21.632.279-31-2h1c-7.154-1.564-6.146.724-14,0h1a12.258,12.258,0,0,0-6-1c1.983.99-3.6,1.905-1,3-7.757-1.679-3.876-1.859-9-5l-1,2c-1.746-1.267-2.077-2.635-6-3,3.217,1.2-2.6,2.409,1,4-8.231,3.066-12.224-2.485-16,2-3.78-3.881,7.117-2.169,5-3,1.773-1.267-3.417-3.389-6-3-2.63.086-4.385,5.074-11,5,.658-.018.343.017,1,0-2.475.989-3.964-1.608-7,0-1.7-2.347-4.509.992-5-2h6c-3.44-.783-6.333-3.7-12-2a8.165,8.165,0,0,0,3,2c-1.657.883-3.283-.907-5,0,.489,3,7.314.715,11,3-1.779,1.264-6.852-2.244-5,1-2.662-4.125-6.52.15-11-3l1,2a12.255,12.255,0,0,0-4-1l2,2c-3.626-1.985-6.522,2.081-10,1,7.283.056,1.921-2.69,5-4-8.983-2.4-5.943,4.862-16,4,1.362.253,5.129-1.17,3-2a12.092,12.092,0,0,0-5,2c-6.664-.373.836-1.9-2-3-2.268,2.187-3.079-.3-6-1v2c-7.593,1.171-2.164-4.414-9-3l3,3-4-1,1,2c-3.877-1.538-5.2-.581-9,0,.883-1.286-.637-3.942-4-4-2.294,1.084,1.767,2.26-3,2,1.076,1.142,1.926,2.681,4,1,.213.6.781.412,1,1-2.471,1.246-6.274,1.017-8,1a5.848,5.848,0,0,0,2-1l-7-2c-1.088.684.145,1.462,1,2-1.4-.2-1.942-1.843-4-2,.533,1.482.087,3.3,3,4l-7-2c-.44.645-2.855,2.455-2,3-3.651.872-9.161-3.149-14-2a3.912,3.912,0,0,0-2-1c-4.548.336-8.609,2.032-14,0l-3,3c-4.222-.6,4.03-3-3-4-4.977-.848-1.254,2.26-3,3-2.475-1.34-7.428-4.164-12-2,1.514.5,2.586-.2,4,0m-52-1c1.009.383,3.262,1.077,4,0-1.149-2.09-2.28-.6-4,0m-79-5c.75.6,1.69.69,3,0a4.955,4.955,0,0,0-3,0m-220-12c.043.029-.035-.038,0,0,2.25-.71,1.56-.342,0,0m-5,1c-.469-.254-.2-.746,0-1,.326.462.8.13,2,0-.332.479-.6,1.409-2,1m502,0-1,1c2.054.527,1.569-.473,1-1" transform="translate(658.897 14.547)" fill="#fff"/>
        </g>
        <g id="Group_63-2" data-name="Group 63" transform="translate(395.196 19.976)">
          <path id="Path_63-2" data-name="Path 63" d="M-1.624.369c.286-.307.933-.656,1-1,.4.307-.163.67-1,1" transform="translate(1.427 0.655)" fill="#fff"/>
        </g>
        <g id="Group_64-2" data-name="Group 64" transform="translate(549.836 24.98)">
          <path id="Path_64-2" data-name="Path 64" d="M-.491.007c.053-.015-.053.011,0,0,.087.109-.026-.109,0,0Z" transform="translate(0.655 0.013)" fill="#fff"/>
        </g>
        <g id="Group_65-2" data-name="Group 65" transform="translate(233.436 21.088)">
          <path id="Path_65-2" data-name="Path 65" d="M-4.27.29a4.762,4.762,0,0,0,2-1c.052.447-.529.882-2,1" transform="translate(3.834 0.622)" fill="#fff"/>
        </g>
        <g id="Group_66-2" data-name="Group 66" transform="translate(136.271 3.464)">
          <path id="Path_66-2" data-name="Path 66" d="M-6.444-.464l3,1c-1.448-.089-1.269.711-2,1,.065-.426-.064-1.97-1-2" transform="translate(6.173)" fill="#fff"/>
        </g>
        <g id="Group_67-2" data-name="Group 67" transform="translate(108.927 13.652)">
          <path id="Path_67-2" data-name="Path 67" d="M-.888.622c-.437-.224-.569.227-1,0v-1c1.863.056,2.927.64,1,1" transform="translate(1.96 0.726)" fill="#fff"/>
        </g>
        <g id="Group_68-2" data-name="Group 68" transform="translate(129.288 8.819)">
          <path id="Path_68-2" data-name="Path 68" d="M4.712.715c-.238,1.534-2.9.283-5,0,.126,0,.875.018,1,0-.618-2.147,1.775-.707,4,0" transform="translate(0 0.466)" fill="#fff"/>
        </g>
        <g id="Group_69-2" data-name="Group 69" transform="translate(126.826 9.74)">
          <path id="Path_69-2" data-name="Path 69" d="M2.174-.045a9.2,9.2,0,0,0-2,0c-.245-.862.848-.218,2,0" transform="translate(0 0.305)" fill="#fff"/>
        </g>
        <g id="Group_70-2" data-name="Group 70" transform="translate(153.813 3.695)">
          <path id="Path_70-2" data-name="Path 70" d="M-2.854,1.082c-.994.4-.437-2.625-1-2-1.11-1.953,6.444,3.027,1,2" transform="translate(4.042 1.222)" fill="#fff"/>
        </g>
      </g>
      <g id="Group_72-2" data-name="Group 72" transform="translate(323.403 12.874)">
        <path id="Path_72-2" data-name="Path 72" d="M-4.376-.125l2-1,3,1Z" transform="translate(3.973 1.251)" fill="#fff"/>
      </g>
      <g id="Group_75-2" data-name="Group 75" transform="translate(0 0)" clip-path="url(#clip-path-11)">
        <g id="Group_73-2" data-name="Group 73" transform="translate(144.112 12.886)">
          <path id="Path_73-2" data-name="Path 73" d="M3.884-.087l-3,1c.051-.316-.477-.859-1-1,2.065-.064,4.079-.562,4,0" transform="translate(0.004 0.201)" fill="#fff"/>
        </g>
        <g id="Group_74-2" data-name="Group 74" transform="translate(141.414 12.755)">
          <path id="Path_74-2" data-name="Path 74" d="M2.586.038c-1.075.036-2.4.309-3,0a14.121,14.121,0,0,1,3,0" transform="translate(0 0.207)" fill="#fff"/>
        </g>
      </g>
      <g id="Group_76-2" data-name="Group 76" transform="translate(334.643 14.673)">
        <path id="Path_76-2" data-name="Path 76" d="M-6.563-.026h0Z" transform="translate(6.92 0.353)" fill="#fff"/>
      </g>
      <g id="Group_80-2" data-name="Group 80" transform="translate(0 0)" clip-path="url(#clip-path-11)">
        <g id="Group_77-2" data-name="Group 77" transform="translate(184.249 12.824)">
          <path id="Path_77-2" data-name="Path 77" d="M-7.952.176h4c.372.65-.639,1.259-2,1-.875-.453-2.561-.372-2-1" transform="translate(7.702)" fill="#fff"/>
        </g>
        <g id="Group_78-2" data-name="Group 78" transform="translate(173.321 16.572)">
          <path id="Path_78-2" data-name="Path 78" d="M-3.876.477c.989-.394,1.443-.376,2-1v2Z" transform="translate(3.555 0.951)" fill="#fff"/>
        </g>
        <g id="Group_79-2" data-name="Group 79" transform="translate(182.578 18.56)">
          <path id="Path_79-2" data-name="Path 79" d="M-4.029.44c.364.651,5.635,1.147,1,1-.371-.647-4.362-.464-1-1" transform="translate(5.451)" fill="#fff"/>
        </g>
      </g>
      <g id="Group_81-2" data-name="Group 81" transform="translate(237.776 12.094)">
        <path id="Path_81-2" data-name="Path 81" d="M2.224.344h-2v-3Z" transform="translate(0 2.563)" fill="#fff"/>
      </g>
      <g id="Group_84-2" data-name="Group 84" transform="translate(0 0)" clip-path="url(#clip-path-11)">
        <g id="Group_82-2" data-name="Group 82" transform="translate(282.552 21.853)">
          <path id="Path_82-2" data-name="Path 82" d="M4.542,1.2c-4.333.922-1.084-2.151-5-1-1.018-.91,3.043-1.214,2-2,2.616.96,4.2.467,3,3" transform="translate(0.906 1.948)" fill="#fff"/>
        </g>
        <g id="Group_83-2" data-name="Group 83" transform="translate(283.535 21.266)">
          <path id="Path_83-2" data-name="Path 83" d="M1.465.347c-.42-.151-.528-.75-1-1,.758.241.779.839,1,1" transform="translate(0 0.387)" fill="#fff"/>
        </g>
      </g>
      <g id="Group_85-2" data-name="Group 85" transform="translate(821.92 3.557)">
        <path id="Path_85-2" data-name="Path 85" d="M-1.629.589l-2-1h7Z" transform="translate(3.709 0.854)" fill="#fff"/>
      </g>
      <g id="Group_88-2" data-name="Group 88" transform="translate(0 0)" clip-path="url(#clip-path-11)">
        <g id="Group_86-2" data-name="Group 86" transform="translate(838.435 5.73)">
          <path id="Path_86-2" data-name="Path 86" d="M-5.24.649l1-2,2,2c-.63-.109-2.521-.554-3,0" transform="translate(4.805 1.621)" fill="#fff"/>
        </g>
        <g id="Group_87-2" data-name="Group 87" transform="translate(457.425 26.43)">
          <path id="Path_87-2" data-name="Path 87" d="M-3.916.66l-1-1c.432-.639,1.693-.9,3-1Z" transform="translate(4.491 0.91)" fill="#fff"/>
        </g>
      </g>
      <g id="Group_89-2" data-name="Group 89" transform="translate(493.74 24.952)">
        <path id="Path_89-2" data-name="Path 89" d="M.095.615h-1l3-2Z" transform="translate(1.165 1.433)" fill="#fff"/>
      </g>
      <g id="Group_91-2" data-name="Group 91" transform="translate(0 0)" clip-path="url(#clip-path-11)">
        <g id="Group_90-2" data-name="Group 90" transform="translate(523.035 27.58)">
          <path id="Path_90-2" data-name="Path 90" d="M3.869.613c-1.294.092-2.7-1.094-4-1,2.822.4,4.35-1.768,4,1" transform="translate(0.096 0.806)" fill="#fff"/>
        </g>
      </g>
    </g>
    <g id="Group_504" data-name="Group 504" transform="translate(438.618 855)">
      <g id="Group_2-3" data-name="Group 2" transform="translate(0 0)" clip-path="url(#clip-path-21)">
        <g id="Group_1-3" data-name="Group 1" transform="translate(0 3.654)">
          <path id="Path_1-3" data-name="Path 1" d="M.827.2c-1.241.139-.813-.717-1-1C1.9-.447.775.615.827.2" transform="translate(0.555 1.142)" fill="#fff"/>
        </g>
      </g>
      <g id="Group_3-3" data-name="Group 3" transform="translate(51.8 8.436)">
        <path id="Path_3-3" data-name="Path 3" d="M-4.9.137l-1-1,8,2Z" transform="translate(5.48 0.427)" fill="#fff"/>
      </g>
      <g id="Group_14-3" data-name="Group 14" transform="translate(0 0)" clip-path="url(#clip-path-21)">
        <g id="Group_4-3" data-name="Group 4" transform="translate(28.175 7.918)">
          <path id="Path_4-3" data-name="Path 4" d="M12.207.4c-1.812,2.7-6.586-.96-10,0l-1,1-1-2c4.149.344,9.078,1.753,12,1" transform="translate(0 0.682)" fill="#fff"/>
        </g>
        <g id="Group_5-3" data-name="Group 5" transform="translate(48.469 3.113)">
          <path id="Path_5-3" data-name="Path 5" d="M1.3-.113C.666.938,3.89.464-.7-.113c.231-.114.865.086,1,0a3.057,3.057,0,0,0,1,0" transform="translate(0.616)" fill="#fff"/>
        </g>
        <g id="Group_6-3" data-name="Group 6" transform="translate(48.235 2.766)">
          <path id="Path_6-3" data-name="Path 6" d="M.491-.036c-2.018-.076,1.32-.883,0,0" transform="translate(0.657 0.271)" fill="#fff"/>
        </g>
        <g id="Group_7-3" data-name="Group 7" transform="translate(55.562 1.629)">
          <path id="Path_7-3" data-name="Path 7" d="M.148.952l-3-1c.555-.621,2.879-.55,2-1,2.727.513,2.55.981,1,2" transform="translate(2.672 1.419)" fill="#fff"/>
        </g>
        <g id="Group_8-3" data-name="Group 8" transform="translate(59.363 5.162)">
          <path id="Path_8-3" data-name="Path 8" d="M1.02.451l-1-1c.241-.26.228.252,1,1" transform="translate(0 0.387)" fill="#fff"/>
        </g>
        <g id="Group_9-3" data-name="Group 9" transform="translate(56.441 4.513)">
          <path id="Path_9-3" data-name="Path 9" d="M-6.082.487h3c-.385.436-.085,1.613-1,0,.239.8-.758.566-2,0" transform="translate(6.023)" fill="#fff"/>
        </g>
        <g id="Group_10-3" data-name="Group 10" transform="translate(50.578 4.874)">
          <path id="Path_10-3" data-name="Path 10" d="M3.8.093c-1.491.588-2.668,1.066,0,2-5.085-.371-5.085-2.379,0-2" transform="translate(0 0.033)" fill="#fff"/>
        </g>
        <g id="Group_11-3" data-name="Group 11" transform="translate(37.896 11.428)">
          <path id="Path_11-3" data-name="Path 11" d="M3.479.364l-2,1-1-1c.861.45,3.124-.846,3,0" transform="translate(0.008 0.208)" fill="#fff"/>
        </g>
        <g id="Group_12-3" data-name="Group 12" transform="translate(71.723 2.38)">
          <path id="Path_12-3" data-name="Path 12" d="M2.623-.38c.166.574-.8,2.266-1,3l-2-1c1.009-.394,2.866-1.149,3-2" transform="translate(0.036)" fill="#fff"/>
        </g>
        <g id="Group_13-3" data-name="Group 13" transform="translate(73.656 4.645)">
          <path id="Path_13-3" data-name="Path 13" d="M-6.331.355l3,1c-2.624.117-3.166-.367-3-1" transform="translate(6.057)" fill="#fff"/>
        </g>
      </g>
      <g id="Group_15-3" data-name="Group 15" transform="translate(138.361 6.783)">
        <path id="Path_15-3" data-name="Path 15" d="M10.1-.151l-12-1,14,1Z" transform="translate(1.918 1.368)" fill="#fff"/>
      </g>
      <g id="Group_16-3" data-name="Group 16" transform="translate(206.926 0.769)">
        <path id="Path_16-3" data-name="Path 16" d="M1.773.353l-4-1,7,1Z" transform="translate(2.683 0.878)" fill="#fff"/>
      </g>
      <g id="Group_24-3" data-name="Group 24" transform="translate(0 0)" clip-path="url(#clip-path-21)">
        <g id="Group_17-3" data-name="Group 17" transform="translate(93.129 0)">
          <path id="Path_17-3" data-name="Path 17" d="M-11.475,1.322c-1.232-1.1,1.3-2.322,0-3a17.514,17.514,0,0,1,6,2c-1.651-.474-3.723.1-6,1" transform="translate(11.729 1.678)" fill="#fff"/>
        </g>
        <g id="Group_18-3" data-name="Group 18" transform="translate(99.127 1.993)">
          <path id="Path_18-3" data-name="Path 18" d="M2.255.189a9.971,9.971,0,0,1-2-1,5.1,5.1,0,0,1,2,1" transform="translate(0 0.818)" fill="#fff"/>
        </g>
        <g id="Group_19-3" data-name="Group 19" transform="translate(81.627 3.707)">
          <path id="Path_19-3" data-name="Path 19" d="M-5.012.21c.227-.347,1.352-.615,3-1l-2,1c-.353.009-.6-.008-1,0" transform="translate(4.767 1.083)" fill="#fff"/>
        </g>
        <g id="Group_20-3" data-name="Group 20" transform="translate(82.744 5.232)">
          <path id="Path_20-3" data-name="Path 20" d="M-5.591-.326h0c1.254-.035,2.628.018,3,0-.32.015-1.547-.086-3,0" transform="translate(5.23 0.094)" fill="#fff"/>
        </g>
        <g id="Group_21-3" data-name="Group 21" transform="translate(81.336 5.347)">
          <path id="Path_21-3" data-name="Path 21" d="M-.555-.352c.107,0-.106,0,0,0-.112.159.113.2,0,0" transform="translate(0.601 0.005)" fill="#fff"/>
        </g>
        <g id="Group_22-3" data-name="Group 22" transform="translate(68.915 7.282)">
          <path id="Path_22-3" data-name="Path 22" d="M-6.35-.282c1.726.9,4.482,2.622,1,4-1.239-1.105,1.6-2.642-1-4" transform="translate(6.818)" fill="#fff"/>
        </g>
        <g id="Group_23-3" data-name="Group 23" transform="translate(76.551 6.246)">
          <path id="Path_23-3" data-name="Path 23" d="M3.832.009l-4,1c.062-.427.855-1.552,0-2Z" transform="translate(0 0.745)" fill="#fff"/>
        </g>
      </g>
      <g id="Group_25-3" data-name="Group 25" transform="translate(196.055 7.274)">
        <path id="Path_25-3" data-name="Path 25" d="M3.327.3l-3-1h3Z" transform="translate(0 0.428)" fill="#fff"/>
      </g>
      <g id="Group_39-3" data-name="Group 39" transform="translate(0 0)" clip-path="url(#clip-path-21)">
        <g id="Group_26-3" data-name="Group 26" transform="translate(95.134 4.741)">
          <path id="Path_26-3" data-name="Path 26" d="M-8,.258a8.833,8.833,0,0,0,4,1,26.018,26.018,0,0,1-5,0C-9.252.749-9.918.2-8,.258" transform="translate(9.253 0.002)" fill="#fff"/>
        </g>
        <g id="Group_27-3" data-name="Group 27" transform="translate(89.755 5.192)">
          <path id="Path_27-3" data-name="Path 27" d="M-.991-.192c.093.036.912-.036,1,0-.184.136-1.032.273-1,0" transform="translate(0.618)" fill="#fff"/>
        </g>
        <g id="Group_28-3" data-name="Group 28" transform="translate(116.952 5.607)">
          <path id="Path_28-3" data-name="Path 28" d="M.431.393C.339.482.524.3.431.393.41.3.457.487.431.393Z" fill="#fff"/>
        </g>
        <g id="Group_29-3" data-name="Group 29" transform="translate(92.29 5.823)">
          <path id="Path_29-3" data-name="Path 29" d="M2.334-.208C.992.1.1.291-.666-.208a20.016,20.016,0,0,0,3,0c.111.229.432.079,0,0" transform="translate(0.758 0.384)" fill="#fff"/>
        </g>
        <g id="Group_30-3" data-name="Group 30" transform="translate(103.988 3.868)">
          <path id="Path_30-3" data-name="Path 30" d="M2.394.054a13.382,13.382,0,0,1-2,1c.683-.512,1.753-1.421,2-1" transform="translate(0 0.078)" fill="#fff"/>
        </g>
        <g id="Group_31-3" data-name="Group 31" transform="translate(90.311 4.569)">
          <path id="Path_31-3" data-name="Path 31" d="M-.21.254c-.067-.026.073.017,0,0,.439-.348.184-.25,0,0" transform="translate(0.282 0.177)" fill="#fff"/>
        </g>
        <g id="Group_32-3" data-name="Group 32" transform="translate(90.06 4.837)">
          <path id="Path_32-3" data-name="Path 32" d="M-3.344.163a9.649,9.649,0,0,1,2,1c-.817-.127-1.344-.762-2-1,.166-.115-.12.159,0,0" transform="translate(3.667)" fill="#fff"/>
        </g>
        <g id="Group_33-3" data-name="Group 33" transform="translate(113.925 5.901)">
          <path id="Path_33-3" data-name="Path 33" d="M1.4,3.443c-.237-1.5-3.956-2.607-7-1-3-1.124-.616-6.246,2-9,.093.654-.083,1.116,3,2-1.079.818-6.6,1.646-4,3,4.085.772,3.014-.207,5-1-1.688,1.867,4.89,2.256,4,5l-3-1c-.067.427.995,1.611,0,2" transform="translate(7.061 6.656)" fill="#fff"/>
        </g>
        <g id="Group_34-3" data-name="Group 34" transform="translate(109.869 3.837)">
          <path id="Path_34-3" data-name="Path 34" d="M-10.474.7h-2a14.275,14.275,0,0,0,5-2c2.111.73,2.854,1.5,3,2h-6Z" transform="translate(11.987 1.464)" fill="#fff"/>
        </g>
        <g id="Group_35-3" data-name="Group 35" transform="translate(100.88 4.875)">
          <path id="Path_35-3" data-name="Path 35" d="M-8.244.473c.991,1.629,3.866,2.237,2,4-3.723-.112-2.776-1.293-5-2,6.008.4-1.341-1.076,3-2-1.181-.277-3,.068-4,0,1.082-.2,3.017-.7,4-1-.055.036-.955-.038-1,0h0c-.259.2-.292.118,0,0,.02.02.968-.006,1,0,.041.227-.119.809,0,1,1.74-.336.546-.808,0-1-.019-.079-.994.085-1,0,.006-.009-.008,0,0,0l6,1a19.15,19.15,0,0,1-5,0" transform="translate(11.746 0.652)" fill="#fff"/>
        </g>
        <g id="Group_36-3" data-name="Group 36" transform="translate(73.967 13.657)">
          <path id="Path_36-3" data-name="Path 36" d="M-.648.093c.187-.144-.014.118,0,0,.389.2.729-.042,0,0" transform="translate(1.063 0.25)" fill="#fff"/>
        </g>
        <g id="Group_37-3" data-name="Group 37" transform="translate(72.537 9.102)">
          <path id="Path_37-3" data-name="Path 37" d="M-2.3,1.29c-.438-.227-.578-1.17-2-1-1.234.489.065,1.464,0,2-.857-.432-3.689-1.208-1-2h1c2.423-.559,5.423-2.777,5-3a11.321,11.321,0,0,1-3,4" transform="translate(6.148 2.608)" fill="#fff"/>
        </g>
        <g id="Group_38-3" data-name="Group 38" transform="translate(90.481 9.872)">
          <path id="Path_38-3" data-name="Path 38" d="M-10.433.128l5,1-2,1v-1c-2.85.332-2.645-.349-3-1" transform="translate(10.334)" fill="#fff"/>
        </g>
      </g>
      <g id="Group_40-3" data-name="Group 40" transform="translate(287.537 2.418)">
        <path id="Path_40-3" data-name="Path 40" d="M-2.753.446l-2-2,7,2Z" transform="translate(4.599 1.136)" fill="#fff"/>
      </g>
      <g id="Group_41-3" data-name="Group 41" transform="translate(304.559 2.756)">
        <path id="Path_41-3" data-name="Path 41" d="M3.823-.352l-3,1-1-1Z" transform="translate(0 0.596)" fill="#fff"/>
      </g>
      <g id="Group_71-3" data-name="Group 71" transform="translate(0 0)" clip-path="url(#clip-path-21)">
        <g id="Group_42-3" data-name="Group 42" transform="translate(491.921 23.569)">
          <path id="Path_42-3" data-name="Path 42" d="M-2.574.431h1c-.7-.13-.672.151-1,0" transform="translate(3.036)" fill="#fff"/>
        </g>
        <g id="Group_43-3" data-name="Group 43" transform="translate(480.997 22.933)">
          <path id="Path_43-3" data-name="Path 43" d="M-.107.58v-1c.494.407.435.968,0,1" transform="translate(0.492 0.487)" fill="#fff"/>
        </g>
        <g id="Group_44-3" data-name="Group 44" transform="translate(284.331 2.677)">
          <path id="Path_44-3" data-name="Path 44" d="M-8.818.675c2.145-1.4,4.259-3.684,4-2v2a8.293,8.293,0,0,0-4,0" transform="translate(8.87 1.647)" fill="#fff"/>
        </g>
        <g id="Group_45-3" data-name="Group 45" transform="translate(391.811 13.895)">
          <path id="Path_45-3" data-name="Path 45" d="M2.572.4c-.2.159-.789-.168-1,0-.521-.56-1.563-.512-2-1,.624.336,2.256.623,3,1" transform="translate(0 0.707)" fill="#fff"/>
        </g>
        <g id="Group_46-3" data-name="Group 46" transform="translate(395.401 20.696)">
          <path id="Path_46-3" data-name="Path 46" d="M-5.849.605l3-1a13.869,13.869,0,0,1-3,1" transform="translate(5.831 0.699)" fill="#fff"/>
        </g>
        <g id="Group_47-3" data-name="Group 47" transform="translate(550.073 25.309)">
          <path id="Path_47-3" data-name="Path 47" d="M-3.233-.309l1,2c-2.688-.009-.787-1.181-1-2" transform="translate(3.543)" fill="#fff"/>
        </g>
        <g id="Group_48-3" data-name="Group 48" transform="translate(191.073 4.618)">
          <path id="Path_48-3" data-name="Path 48" d="M-9.214.729a13.692,13.692,0,0,1,4-1c-2.231.94-3.411,2.364-4,1" transform="translate(9.523 0.653)" fill="#fff"/>
        </g>
        <g id="Group_49-3" data-name="Group 49" transform="translate(487.686 6.161)">
          <path id="Path_49-3" data-name="Path 49" d="M-2.9-.161c.9.3,2.027.635,2,1-.928-.28-2.193-.6-2-1" transform="translate(2.6)" fill="#fff"/>
        </g>
        <g id="Group_50-3" data-name="Group 50" transform="translate(195.692 3.922)">
          <path id="Path_50-3" data-name="Path 50" d="M5.691.615c-.326.164-.668-.139-1,0a21.953,21.953,0,0,0-5,0c1.648-.7,4.187-1.139,6,0" transform="translate(0 0.464)" fill="#fff"/>
        </g>
        <g id="Group_51-3" data-name="Group 51" transform="translate(761.348 23.754)">
          <path id="Path_51-3" data-name="Path 51" d="M-.964.117c.153-.074-.139.086,0,0,.047.221.312.036,0,0" transform="translate(0.998 0.129)" fill="#fff"/>
        </g>
        <g id="Group_52-3" data-name="Group 52" transform="translate(820.349 7.201)">
          <path id="Path_52-3" data-name="Path 52" d="M2.033-.33a16.7,16.7,0,0,0-2,0,3.6,3.6,0,0,1,2,0" transform="translate(0 0.129)" fill="#fff"/>
        </g>
        <g id="Group_53-3" data-name="Group 53" transform="translate(149.904 4.177)">
          <path id="Path_53-3" data-name="Path 53" d="M.478-.25C-.9-.357.259-.432.478-.25" transform="translate(0 0.073)" fill="#fff"/>
        </g>
        <g id="Group_54-3" data-name="Group 54" transform="translate(143.852 10.775)">
          <path id="Path_54-3" data-name="Path 54" d="M-1.607.225c.293.185.965.621,1,1-.113-.4-.754-.849-1-1" transform="translate(1.138)" fill="#fff"/>
        </g>
        <g id="Group_55-3" data-name="Group 55" transform="translate(214.621 14.827)">
          <path id="Path_55-3" data-name="Path 55" d="M-.486.169h1C.1.49-.707.423-.486.169" transform="translate(0.247 0.004)" fill="#fff"/>
        </g>
        <g id="Group_56-3" data-name="Group 56" transform="translate(148.491 4.546)">
          <path id="Path_56-3" data-name="Path 56" d="M-3.752.132c.518-.2,1.35.118,2,0-.286.127-1.056-.2-2,0" transform="translate(3.643 0.322)" fill="#fff"/>
        </g>
        <g id="Group_57-3" data-name="Group 57" transform="translate(147.504 4.11)">
          <path id="Path_57-3" data-name="Path 57" d="M.878-.208c-.476.074-.643-.044-1,0-.174-.274-.228-.286,1,0" transform="translate(0 0.098)" fill="#fff"/>
        </g>
        <g id="Group_58-3" data-name="Group 58" transform="translate(150.258 4.288)">
          <path id="Path_58-3" data-name="Path 58" d="M2.124-.346c-.79-.026-1.29.882-2,1C.4.544.2-.291.124-.346c.4.026,1.052-.03,2,0" transform="translate(0 0.058)" fill="#fff"/>
        </g>
        <g id="Group_59-3" data-name="Group 59" transform="translate(648.189 19.403)">
          <path id="Path_59-3" data-name="Path 59" d="M-2.085.494c.091-.051-.1-.929,0-1,1.393.681,1.078,1.416,0,1" transform="translate(2.278 0.103)" fill="#fff"/>
        </g>
        <g id="Group_60-3" data-name="Group 60" transform="translate(320.127 22.071)">
          <path id="Path_60-3" data-name="Path 60" d="M.16-.161c-.065-.017.059.02,0,0,.065-.017-.058.018,0,0Z" transform="translate(0.095 0.09)" fill="#fff"/>
        </g>
        <g id="Group_61-3" data-name="Group 61" transform="translate(320.331 17.34)">
          <path id="Path_61-3" data-name="Path 61" d="M5.051,1.639C2.938-.4,1.652.206.051.639l2-5Z" transform="translate(0 4.021)" fill="#fff"/>
        </g>
        <g id="Group_62-3" data-name="Group 62" transform="translate(127.434 2.014)">
          <path id="Path_62-3" data-name="Path 62" d="M-268.949,7.439l-3,2c4.206,2.426,7.271.927,4,3-.493-5.136-13.515.13-14-5l-3,1c.658-.05,1.35.051,2,0-4.467,2.461-3.244-3.731-9-3-2.006.394-3.368,1.391-2,2l-5-2c-1.3.1-1.294,1.1,0,1h-6a39.2,39.2,0,0,0-5-3c-1.732.736,1.443,1.359,1,2l-4-2c-1.537,1.331,1.393,3.189,4,3-3.525,5.127-3.392-2-11,1l4,1c-2.3,2.913-4.971,2.183-9,4,.956-.949,8.1-4.72,4-6-1.155.388-2.79.034-5-1-.021,1.826-2.3,2.1-5,2v2c-2.919-.7-2.282-1.91-4-3-3.253.239-4.234,2.421-5,4-5.21.383,4.167-3.544-2-4-4.334.925-7.816.448-13-1-3.033.833,1.088,1.308,0,2l-3-2c-.658.047-.108.7,0,1-2.265-.748-.438-2.343-4-3-.96-2.665-7.592,4.025-12,1-1.086.686.332,1.063,0,2-6.048-1.985-5.034-1.327-10-4l-4,2c3.108-1.817-.522-4.234-4-6,1.1-.877,1.368-1.635,2-2l-5-1c-.67.4-.909.99,0,2-.378-.2-.721-.817-1-1-1.985.893-.423,2.648,1,4,.676-.477,1.348-1.494,2-2,1.371,1.47,2.286,3.584,2,5a5.4,5.4,0,0,0-2-1c.359.4,1.165.758,1,1-.189.254-1.092-.382-2-1l-1,3v-1l-8,2c-5.2-2.715-9.752-6.887-18-8,2.046,1.978.889,2.656,1,5,2.25-2.48,6.726,1.5,11,1-2.23.26-2.567,1.609-2,2l-7-2c.172,1.916-2.009,1.207-4,2,1.505-3.787-5.9-2.839-9-4-.193,1.272,1.215,2.306,5,2-4.176,2.85-5.9-4.421-10-2a2.224,2.224,0,0,1,2,1c-2.158-1.131-7.241-.107-6,1h1c-6.135.45-19.085.216-20-3a15.651,15.651,0,0,0,1,4l-11-11c.964,2.762-2.087,9.44,3,11a11.858,11.858,0,0,1-7,0c1-.394,3.362-3.747,2-4-3.737,3.075-3.393,1.377-8,4,1.494-.594.36-5.138-2-5,.368.648-.863,4.549,0,5l-5-4c1.466.766.314,3.8-1,5,.61-.833-5.434-.578-7-1l2-1c-6.634.642-6.419-6.223-13-6,.8.878,2.347,5.465-1,6-1.534-2.177-7.178-10.325-13-12l-1,1-4-1a92.719,92.719,0,0,0,15,13c-2.482.986-1.282,1.114-5,1-1.313,1.167,1.906,1.932,3,2l-8,1c.385-2.544-7.331-2.883-7-5l10,3c.381-2.538-5.868-7.448-12-7-1.56,1.012,1.128,4.154,1,5-.8-.875-5.436-1.619-6-1l2,2c-3.414.955-4.9-3.426-9-1-1.416.162-4.755,3.5-5,2,2.309-2.9,2.539-11.821,1-14-.5.2-7.383,2.568-9,4-2.332,2.274,3.985,5.047,2,7-.085-.694-1.464-1.724-2-2-1.487.594.231,2.313-3,2-.539-2.579-6.044.4-1-2-3.161-.737-3.288.112-7,0,1.181-1.666-3.833-5.266-7-6,.187.656-.656,1.609-1,2-6.479.232-9.958.977-16,1-.557.624-3.241,1.892-2,3-.869-.456-1.136-1.938-3-2-3.607,2.229,3.75.323,1,3-.235-1.5-4.346-2.064-7-3,.817-2.314,5.343.066,8,1,.013-3.191-4.685-6.525-11-8-5.018-.792-2.129,1.454-3,1-9.427.557-7.172-5.3-15-3-3.106,2.032-.311,4.534-1,6,4.089.771,6.229-1.082,9-1h-4c1.3.675,4.513,1.589,6,1-2.6,1.826-15.727.315-23,2-1.292-.681-4.055-1.182-3-2h3c2.115-1.64-4.912-2.234-2-3-3.087-1.152-6.654-2.927-11-2l-1,2c.093-.677,2.779-.706,4,0-1.812-1.027-6.015,3.036-8,0l3-2c-3.1-1.166-7.149-3.731-11-3,1.752-2.29,1.263.679,4-2-2.373,3.333,9.811-.5,6,3,2.808-3.109,4.329-1.35,8-4-.113.763-1.233,1.376,2,1a7.334,7.334,0,0,0,1,1c.1-.021-.085.024,0,0h0c.141.114.219.108,0,0-.77.335-1.746.574-2,1,1.605,1.757,7.261,2.091,9,3,1.919-.363-1.047-1.184,0-2l3,2c.257-1.7,4.52-3,0-4h4c2.395-.952,5.969-1.715,8-1,1.919-.368,4.671,2.33,3,1l6,1,1-1c6.294-.214,12.8,3.065,20,0a23.2,23.2,0,0,0,8,0v-1c2.72.513,8.831-1.531,10,0,2.935-3.954,13.215-.3,18-1v1c3.294-.109,5.912,1.229,10,2v1c3.525,1.392,9.425-1.174,15-1-.379-.648-2-.391-3,0,6.661-3.83,13.959,2.789,20,0a5.274,5.274,0,0,0,4,0,6.676,6.676,0,0,1-1,0c.154-.021.765,0,1,0,.665-.291,1.258-.727,2-1a9.224,9.224,0,0,1-2,1,31.608,31.608,0,0,1,5,1l1-2c.141.024-.146-.032,0,0,1.694-.672.9.63,0,2a15.653,15.653,0,0,1,3,1c1.375-2.939,4.122,1.136,6-2,1.164,1.529,9.081,1.784,10,5,.059-.419-.068-.973-1-1,1.924-.366,4.274-.907,6,0l1-2,4,3c2.553-1.411,3.534-2.218,1-4,6.12,2.741,4.8,1.285,10,4v-2c1.861.056,4.878,2.239,6,1,4.162-2.844,20.318-.356,31-3-2.072,4.406,5.577-2.416,6,1,.623-1.042,1.73-1.094,0-2,5.452,1.024,8.236-1.882,12,1,.624-1.048-1.555-1.382-1-2,.437.224,2.432.622,3,0s-1.137-.546-2-1c5.569.176,5.6,2.985,6,6,2.823-1.428,4.962-.978,7,1,.983-.986,2.461-1.646-1-2,1.947-.144,11.8-1.417,12,1,.61-.612,2.487-.279,3,0a72.549,72.549,0,0,1,9,0h-1c1.694,2.916,3.542.65,7,1h0c7.929-2.1,3.177.4,11-2v2c.729,3.9,6.46-2.492,11-1l-1,1c2.479,1.334,6.509-5.512,9-6,.543-.339-1.243.25-2,0,6.519-2.3,1.143,2.449,6,3,.9-1.281-1.27-3.762,2-4,1.629-1.037,9.539,4.458,14,2-.983.987-1.256,2.257,1,3,3.459.353,8.877-4.113,12-1,.439-.27.982-.755,1-1,2.644.8,8.407,1.313,10,3,2.443-6.264,16.059,2.777,16-3l8,1v-1c5.2-.382,7.173,1.613,9,3,1.2-.394.1-1.7,0-2,7.6-1.164,8.632-.879,15,2l1-2c1.726,1.09,10.55-2.185,18,0a2,2,0,0,0-1-1c8.381,2.2,19.929-5.825,23,1l6,2c-7.156.53.943,2.866-2,4,2.814.4,7.458-1.649,4-2h-1c-1.271-3.557,9.192-1.579,9-4,14.08.174,27.811-.847,41-1l-2,2h5c1.207-.644,1.282-2.115-2-2,1.726-1.567,5.906,1.4,6,2,6.426-1.121-2.971-2.933-1-3h2c2.169,1.13,3.055,2.138,7,2,2.5-.553,1.017-.892,2-1-.006-.2.819-.209,2,0l5-1-2,2c2.57,1.077,5.674.526,3,3,3.926-3.814,21.59-1.817,24-3a22.284,22.284,0,0,0,11,2c-1.094.454-1.795,2.3,2,2-1.388-5.067,6.933-2.357,10-6-2.741,2.417,11.3.569,7,4,3.167-.41.6-1.807,3-3,7.536,1.962,15.685-.663,25,0,.145.663-1,1.01,1,2l5-3c1.839.327,1.639,4.308,5,2-.474.559-1.234.786,0,1,18.249-3.24,37.467,3.089,56-3-2.51,1.289-.917.952,1,1-1.246.307.244,2.1,0,3l8-3c1.414,2.5,8.19.609,9,3l-3-1c3.267,2.824-4.478,6.376-4,10-3.659-3.21-10,4.594-16,0-1.325.739,1.709,2.16,1,3a7.01,7.01,0,0,0-7-2v1c-9.567-.379-13.252.981-24,2l1-2a10.967,10.967,0,0,0-4,1c-2.651-2.717,6.415,0,4-3-3.064,3.645-15.93-.141-18,4-3.553.023.552-2.024-3-2l-1,1-1-1a3.186,3.186,0,0,0-3,3,6.861,6.861,0,0,1,2,0c-3.021,1.32-8.963-.432-10,0l4-1c-9.7-1.049-21.632.279-31-2h1c-7.154-1.564-6.146.724-14,0h0a8.563,8.563,0,0,0-5-1c1.983.99-4.6,1.905-2,3-7.757-1.679-3.876-1.859-9-5l-1,2c-1.746-1.267-2.077-2.635-6-3,3.217,1.2-1.6,2.409,2,4-8.231,3.066-12.224-2.485-16,2-3.78-3.881,7.117-2.169,5-3,1.773-1.267-3.417-3.389-6-3-2.63.086-4.385,5.074-11,5,.658-.018.343.017,1,0-2.475.989-4.964-1.608-8,0-1.7-2.347-3.509.992-4-2h6c-3.44-.783-6.333-3.7-12-2a8.165,8.165,0,0,0,3,2c-1.657.883-3.283-.907-5,0,.489,3,7.314.715,11,3-1.779,1.264-6.852-2.244-5,1-2.662-4.125-6.52.15-11-3v2a6.7,6.7,0,0,0-3-1l2,2c-3.626-1.985-6.522,2.081-10,1,7.283.056.921-2.69,4-4-8.983-2.4-4.943,4.862-15,4,1.362.253,5.129-1.17,3-2-1.914.369-4.825,1.058-6,2-6.664-.373,1.836-1.9-1-3-2.268,2.187-4.079-.3-7-1v2c-7.593,1.171-1.164-4.414-8-3l2,3-3-1,1,2c-3.877-1.538-5.2-.581-9,0,.883-1.286-.637-3.942-4-4-2.294,1.084.767,2.26-4,2,1.076,1.142,2.926,2.681,5,1,.213.6.781.412,1,1-2.471,1.246-6.274,1.017-8,1a5.848,5.848,0,0,0,2-1l-7-2c-1.088.684.145,1.462,1,2-1.4-.2-2.942-1.843-5-2,.533,1.482,1.087,3.3,4,4l-7-2c-.44.645-3.855,2.455-3,3-3.651.872-8.161-3.149-13-2a3.912,3.912,0,0,0-2-1c-4.548.336-8.609,2.032-14,0l-3,3c-4.222-.6,4.03-3-3-4-4.977-.848-2.254,2.26-4,3-2.475-1.34-6.428-4.164-11-2,1.514.5,2.586-.2,4,0m-52-1c1.009.383,3.262,1.077,4,0-1.149-2.09-2.28-.6-4,0m-79-5c.75.6,1.69.69,3,0a4.955,4.955,0,0,0-3,0m-221-12c.043.029-.035-.038,0,0,2.25-.71,1.56-.342,0,0m-4,1c-.469-.254-1.2-.746-1-1,.326.462,1.8.13,3,0-.332.479-.6,1.409-2,1m502,0-1,1c2.054.527,1.569-.473,1-1" transform="translate(658.897 14.547)" fill="#fff"/>
        </g>
        <g id="Group_63-3" data-name="Group 63" transform="translate(395.196 19.976)">
          <path id="Path_63-3" data-name="Path 63" d="M-1.241.369c.286-.307-.067-.656,0-1,.4.307.837.67,0,1" transform="translate(1.427 0.655)" fill="#fff"/>
        </g>
        <g id="Group_64-3" data-name="Group 64" transform="translate(549.836 24.98)">
          <path id="Path_64-3" data-name="Path 64" d="M-1.109.007c.053-.015.947.011,1,0,.087.109-.026-.109,0,0Z" transform="translate(0.655 0.013)" fill="#fff"/>
        </g>
        <g id="Group_65-3" data-name="Group 65" transform="translate(233.436 21.088)">
          <path id="Path_65-3" data-name="Path 65" d="M-3.888.29a4.762,4.762,0,0,0,2-1c.052.447-.529.882-2,1" transform="translate(3.834 0.622)" fill="#fff"/>
        </g>
        <g id="Group_66-3" data-name="Group 66" transform="translate(136.271 3.464)">
          <path id="Path_66-3" data-name="Path 66" d="M-6.062-.464l3,1c-1.448-.089-2.269.711-3,1,.065-.426.936-1.97,0-2" transform="translate(6.173)" fill="#fff"/>
        </g>
        <g id="Group_67-3" data-name="Group 67" transform="translate(108.927 13.652)">
          <path id="Path_67-3" data-name="Path 67" d="M-.505.622c-.437-.224-.569.227-1,0v-1c1.863.056,2.927.64,1,1" transform="translate(1.96 0.726)" fill="#fff"/>
        </g>
        <g id="Group_68-3" data-name="Group 68" transform="translate(129.288 8.819)">
          <path id="Path_68-3" data-name="Path 68" d="M4.095.715c-.238,1.534-1.9.283-4,0,.126,0-.125.018,0,0-.618-2.147,1.775-.707,4,0" transform="translate(0 0.466)" fill="#fff"/>
        </g>
        <g id="Group_69-3" data-name="Group 69" transform="translate(126.826 9.74)">
          <path id="Path_69-3" data-name="Path 69" d="M1.556-.045a9.2,9.2,0,0,0-2,0c-.245-.862.848-.218,2,0" transform="translate(0 0.305)" fill="#fff"/>
        </g>
        <g id="Group_70-3" data-name="Group 70" transform="translate(153.813 3.695)">
          <path id="Path_70-3" data-name="Path 70" d="M-2.472,1.082c-.994.4-.437-2.625-1-2-1.11-1.953,6.444,3.027,1,2" transform="translate(4.042 1.222)" fill="#fff"/>
        </g>
      </g>
      <g id="Group_72-3" data-name="Group 72" transform="translate(323.403 12.874)">
        <path id="Path_72-3" data-name="Path 72" d="M-3.994-.125l2-1,3,1Z" transform="translate(3.973 1.251)" fill="#fff"/>
      </g>
      <g id="Group_75-3" data-name="Group 75" transform="translate(0 0)" clip-path="url(#clip-path-21)">
        <g id="Group_73-3" data-name="Group 73" transform="translate(144.112 12.886)">
          <path id="Path_73-3" data-name="Path 73" d="M4.267-.087l-3,1c.051-.316-.477-.859-1-1,2.065-.064,4.079-.562,4,0" transform="translate(0.004 0.201)" fill="#fff"/>
        </g>
        <g id="Group_74-3" data-name="Group 74" transform="translate(141.414 12.755)">
          <path id="Path_74-3" data-name="Path 74" d="M2.968.038c-1.075.036-2.4.309-3,0a14.121,14.121,0,0,1,3,0" transform="translate(0 0.207)" fill="#fff"/>
        </g>
      </g>
      <g id="Group_76-3" data-name="Group 76" transform="translate(334.643 14.673)">
        <path id="Path_76-3" data-name="Path 76" d="M-7.18-.026h0Z" transform="translate(6.92 0.353)" fill="#fff"/>
      </g>
      <g id="Group_80-3" data-name="Group 80" transform="translate(0 0)" clip-path="url(#clip-path-21)">
        <g id="Group_77-3" data-name="Group 77" transform="translate(184.249 12.824)">
          <path id="Path_77-3" data-name="Path 77" d="M-7.569.176h4c.372.65-.639,1.259-2,1-.875-.453-2.561-.372-2-1" transform="translate(7.702)" fill="#fff"/>
        </g>
        <g id="Group_78-3" data-name="Group 78" transform="translate(173.321 16.572)">
          <path id="Path_78-3" data-name="Path 78" d="M-3.494.477c.989-.394,1.443-.376,2-1v2Z" transform="translate(3.555 0.951)" fill="#fff"/>
        </g>
        <g id="Group_79-3" data-name="Group 79" transform="translate(182.578 18.56)">
          <path id="Path_79-3" data-name="Path 79" d="M-3.646.44c.364.651,4.635,1.147,0,1-.371-.647-3.362-.464,0-1" transform="translate(5.451)" fill="#fff"/>
        </g>
      </g>
      <g id="Group_81-3" data-name="Group 81" transform="translate(237.776 12.094)">
        <path id="Path_81-3" data-name="Path 81" d="M2.606.344h-3l1-3Z" transform="translate(0 2.563)" fill="#fff"/>
      </g>
      <g id="Group_84-3" data-name="Group 84" transform="translate(0 0)" clip-path="url(#clip-path-21)">
        <g id="Group_82-3" data-name="Group 82" transform="translate(282.552 21.853)">
          <path id="Path_82-3" data-name="Path 82" d="M3.924,1.2c-4.333.922-1.084-2.151-5-1-1.018-.91,3.043-1.214,2-2,2.616.96,4.2.467,3,3" transform="translate(0.906 1.948)" fill="#fff"/>
        </g>
        <g id="Group_83-3" data-name="Group 83" transform="translate(283.535 21.266)">
          <path id="Path_83-3" data-name="Path 83" d="M.848.347C.428.2.32-.4-.152-.653c.758.241.779.839,1,1" transform="translate(0 0.387)" fill="#fff"/>
        </g>
      </g>
      <g id="Group_85-3" data-name="Group 85" transform="translate(821.92 3.557)">
        <path id="Path_85-3" data-name="Path 85" d="M-1.247.589l-2-1h6Z" transform="translate(3.709 0.854)" fill="#fff"/>
      </g>
      <g id="Group_88-3" data-name="Group 88" transform="translate(0 0)" clip-path="url(#clip-path-21)">
        <g id="Group_86-3" data-name="Group 86" transform="translate(838.435 5.73)">
          <path id="Path_86-3" data-name="Path 86" d="M-4.857.649l1-2,1,2c-.63-.109-1.521-.554-2,0" transform="translate(4.805 1.621)" fill="#fff"/>
        </g>
        <g id="Group_87-3" data-name="Group 87" transform="translate(457.425 26.43)">
          <path id="Path_87-3" data-name="Path 87" d="M-4.533.66v-1c.432-.639.693-.9,2-1Z" transform="translate(4.491 0.91)" fill="#fff"/>
        </g>
      </g>
      <g id="Group_89-3" data-name="Group 89" transform="translate(493.74 24.952)">
        <path id="Path_89-3" data-name="Path 89" d="M.477.615h-2l3-2Z" transform="translate(1.165 1.433)" fill="#fff"/>
      </g>
      <g id="Group_91-3" data-name="Group 91" transform="translate(0 0)" clip-path="url(#clip-path-21)">
        <g id="Group_90-3" data-name="Group 90" transform="translate(523.035 27.58)">
          <path id="Path_90-3" data-name="Path 90" d="M4.251.613c-1.294.092-2.7-1.094-4-1,2.822.4,4.35-1.768,4,1" transform="translate(0.096 0.806)" fill="#fff"/>
        </g>
      </g>
    </g>
  </g>
</svg>
