<svg xmlns="http://www.w3.org/2000/svg" xmlns:xlink="http://www.w3.org/1999/xlink" width="1956" height="30" viewBox="0 0 1956 30">
  <defs>
    <clipPath id="clip-path">
      <path id="Path_2" data-name="Path 2" d="M-.235-19.68h841v30h-841Z" transform="translate(0 19.269)" fill="#28292c"/>
    </clipPath>
    <clipPath id="clip-path-11">
      <path id="Path_2-2" data-name="Path 2" d="M841-19.68H0v30H841Z" transform="translate(0 19.269)" fill="#28292c"/>
    </clipPath>
    <clipPath id="clip-path-21">
      <path id="Path_2-3" data-name="Path 2" d="M840.382-19.68H.382v30h840Z" transform="translate(0 19.269)" fill="#28292c"/>
    </clipPath>
  </defs>
  <g id="after_banner_shap_bottom" transform="translate(0.235 0.411)">
    <g id="Group_92" data-name="Group 92" transform="translate(0 0)">
      <g id="Group_2" data-name="Group 2" transform="translate(0 0)" clip-path="url(#clip-path)">
        <g id="Group_1" data-name="Group 1" transform="translate(839.513 23.733)">
          <path id="Path_1" data-name="Path 1" d="M-.3-1.286C.938-1.425.51.431.7.714c-2.077-.35-.948-2.412-1-2" transform="translate(0.555 1.142)" fill="#28292c"/>
        </g>
      </g>
      <g id="Group_3" data-name="Group 3" transform="translate(781.553 19.496)">
        <path id="Path_3" data-name="Path 3" d="M.731.666h1l-7-1Z" transform="translate(5.48 0.427)" fill="#28292c"/>
      </g>
      <g id="Group_14" data-name="Group 14" transform="translate(0 0)" clip-path="url(#clip-path)">
        <g id="Group_4" data-name="Group 4" transform="translate(800.13 19.088)">
          <path id="Path_4" data-name="Path 4" d="M-.365.819c1.812-2.7,7.586-.04,11-1v-1l2,3c-4.149-.344-10.078-1.753-13-1" transform="translate(0 0.682)" fill="#28292c"/>
        </g>
        <g id="Group_5" data-name="Group 5" transform="translate(789.614 25.288)">
          <path id="Path_5" data-name="Path 5" d="M-.466.3c.631-1.051-1.593-.577,3,0-.231.114-.865-.086-1,0a14.058,14.058,0,0,0-2,0" transform="translate(0.616 0)" fill="#28292c"/>
        </g>
        <g id="Group_6" data-name="Group 6" transform="translate(791.545 26.002)">
          <path id="Path_6" data-name="Path 6" d="M-.437-.684c2.018.076-1.32.883,0,0" transform="translate(0.657 0.271)" fill="#28292c"/>
        </g>
        <g id="Group_7" data-name="Group 7" transform="translate(781.249 25.4)">
          <path id="Path_7" data-name="Path 7" d="M-1.156-1.23l2,1c-.555.621-2.879.55-2,1-2.727-.513-1.55-.981,0-2" transform="translate(2.672 1.419)" fill="#28292c"/>
        </g>
        <g id="Group_8" data-name="Group 8" transform="translate(780.025 23.431)">
          <path id="Path_8" data-name="Path 8" d="M-.26-.228h2a1.472,1.472,0,0,1-2,0" transform="translate(0 0.387)" fill="#28292c"/>
        </g>
        <g id="Group_9" data-name="Group 9" transform="translate(781.402 23.196)">
          <path id="Path_9" data-name="Path 9" d="M-2.66,1.393l-3-1c.385-.436.085-.613,1,1-.239-.8.758-.566,2,0" transform="translate(6.023 0)" fill="#28292c"/>
        </g>
        <g id="Group_10" data-name="Group 10" transform="translate(785.977 22.363)">
          <path id="Path_10" data-name="Path 10" d="M-.213,2.193c1.491-.588,3.668-1.066,1-2,5.085.371,4.085,2.379-1,2" transform="translate(0 0.033)" fill="#28292c"/>
        </g>
        <g id="Group_11" data-name="Group 11" transform="translate(799.148 16.645)">
          <path id="Path_11" data-name="Path 11" d="M-.391.736l2-1,2,1c-.861-.45-4.124.846-4,0" transform="translate(0.008 0.208)" fill="#28292c"/>
        </g>
        <g id="Group_12" data-name="Group 12" transform="translate(765.969 24.533)">
          <path id="Path_12" data-name="Path 12" d="M-.241,2.056c-.166-.574.8-1.266,1-2l2,1c-1.009.394-2.866.149-3,1" transform="translate(0.036 0)" fill="#28292c"/>
        </g>
        <g id="Group_13" data-name="Group 13" transform="translate(764.141 23.529)">
          <path id="Path_13" data-name="Path 13" d="M-3.434,1.06l-3-1c2.624-.117,3.166.367,3,1" transform="translate(6.057 0)" fill="#28292c"/>
        </g>
      </g>
      <g id="Group_15" data-name="Group 15" transform="translate(688.282 20.745)">
        <path id="Path_15" data-name="Path 15" d="M.565-1.525l12,2-14-2Z" transform="translate(1.918 1.368)" fill="#28292c"/>
      </g>
      <g id="Group_16" data-name="Group 16" transform="translate(626.56 26.831)">
        <path id="Path_16" data-name="Path 16" d="M.521-.12l4,1-7-2Z" transform="translate(2.683 0.878)" fill="#28292c"/>
      </g>
      <g id="Group_24" data-name="Group 24" transform="translate(0 0)" clip-path="url(#clip-path)">
        <g id="Group_17" data-name="Group 17" transform="translate(741.637 26.637)">
          <path id="Path_17" data-name="Path 17" d="M-5.6-1.726c1.232,1.1-2.3,2.322-1,3a12.537,12.537,0,0,1-5-2c1.651.474,3.723-.1,6-1" transform="translate(11.729 1.678)" fill="#28292c"/>
        </g>
        <g id="Group_18" data-name="Group 18" transform="translate(739.028 25.947)">
          <path id="Path_18" data-name="Path 18" d="M-.263-1.176c.825.263,2.07,1.5,3,2a14.106,14.106,0,0,1-3-2" transform="translate(0 0.818)" fill="#28292c"/>
        </g>
        <g id="Group_19" data-name="Group 19" transform="translate(756.825 23.831)">
          <path id="Path_19" data-name="Path 19" d="M-2.828-1.325c-.227.347-.352,1.615-2,2l1-2c.353-.009.6.008,1,0" transform="translate(4.767 1.083)" fill="#28292c"/>
        </g>
        <g id="Group_20" data-name="Group 20" transform="translate(755.485 23.803)">
          <path id="Path_20" data-name="Path 20" d="M-2.95-.308h0c-1.254.035-1.628-.018-2,0a15.372,15.372,0,0,0,2,0" transform="translate(5.23 0.094)" fill="#28292c"/>
        </g>
        <g id="Group_21" data-name="Group 21" transform="translate(759.137 23.69)">
          <path id="Path_21" data-name="Path 21" d="M.027-.106c-.107,0-.894,0-1,0,.112-.159.887-.2,1,0" transform="translate(0.601 0.005)" fill="#28292c"/>
        </g>
        <g id="Group_22" data-name="Group 22" transform="translate(768.544 18.647)">
          <path id="Path_22" data-name="Path 22" d="M-3.6,2.942c-1.726-.9-5.482-1.622-2-3,1.239,1.105-.6,1.642,2,3" transform="translate(6.818 0)" fill="#28292c"/>
        </g>
        <g id="Group_23" data-name="Group 23" transform="translate(760.863 21.434)">
          <path id="Path_23" data-name="Path 23" d="M-.1-.59h3c-.062.427-.855.552,0,1Z" transform="translate(0 0.745)" fill="#28292c"/>
        </g>
      </g>
      <g id="Group_25" data-name="Group 25" transform="translate(640.962 21.395)">
        <path id="Path_25" data-name="Path 25" d="M-.2-.234h0Z" transform="translate(0 0.428)" fill="#28292c"/>
      </g>
      <g id="Group_39" data-name="Group 39" transform="translate(0 0)" clip-path="url(#clip-path)">
        <g id="Group_26" data-name="Group 26" transform="translate(739.884 23.073)">
          <path id="Path_26" data-name="Path 26" d="M-4.373,1.514a13.622,13.622,0,0,0-5-1,39.661,39.661,0,0,1,6-1c.247.509.913,2.058-1,2" transform="translate(9.253 0.002)" fill="#28292c"/>
        </g>
        <g id="Group_27" data-name="Group 27" transform="translate(750.705 23.786)">
          <path id="Path_27" data-name="Path 27" d="M-.559-.2c-.093-.036.088.036,0,0,.184-.136.032-.273,0,0" transform="translate(0.618 0)" fill="#28292c"/>
        </g>
        <g id="Group_28" data-name="Group 28" transform="translate(723.489 23.277)">
          <path id="Path_28" data-name="Path 28" d="M.276.312c.092-.089-.093.094,0,0C.3.406.25.218.276.312Z" transform="translate(0 0)" fill="#28292c"/>
        </g>
        <g id="Group_29" data-name="Group 29" transform="translate(745.199 22.662)">
          <path id="Path_29" data-name="Path 29" d="M-.193-.457c1.342-.312,2.236.5,3,1-1-.162-1.859-.988-3-1-.111-.229-.432-.079,0,0" transform="translate(0.758 0.384)" fill="#28292c"/>
        </g>
        <g id="Group_30" data-name="Group 30" transform="translate(734.453 24.303)">
          <path id="Path_30" data-name="Path 30" d="M.311,1.208a13.382,13.382,0,0,1,2-1c-.683.512-1.753,1.421-2,1" transform="translate(0 0.078)" fill="#28292c"/>
        </g>
        <g id="Group_31" data-name="Group 31" transform="translate(750.116 24.341)">
          <path id="Path_31" data-name="Path 31" d="M-.634.071c.067.026.927-.017,1,0-.439.348-1.184.25-1,0" transform="translate(0.282 0.177)" fill="#28292c"/>
        </g>
        <g id="Group_32" data-name="Group 32" transform="translate(748.475 23.355)">
          <path id="Path_32" data-name="Path 32" d="M-2.377,1.234c-.691-.233-.454-.646-1-1,.817.127,1.344-.238,2,0a10.489,10.489,0,0,0-1,1" transform="translate(3.667 0)" fill="#28292c"/>
        </g>
        <g id="Group_33" data-name="Group 33" transform="translate(715.097 13.199)">
          <path id="Path_33" data-name="Path 33" d="M-3.394-6.266c.237,1.5,3.956,2.607,7,1,3,1.124.616,6.246-2,9-.093-.654.083-1.116-3-2,1.079-.818,6.6-2.646,4-4-4.085-.772-3.014,1.207-5,2,1.688-1.867-5.89-3.256-5-6l4,1c.067-.427-.995-.611,0-1" transform="translate(7.061 6.656)" fill="#28292c"/>
        </g>
        <g id="Group_34" data-name="Group 34" transform="translate(723.813 23.124)">
          <path id="Path_34" data-name="Path 34" d="M-6.035-1h1c-1.446.26-2.094.828-4,2-2.111-.73-2.854-1.5-3-2Z" transform="translate(11.987 1.464)" fill="#28292c"/>
        </g>
        <g id="Group_35" data-name="Group 35" transform="translate(730.896 19.23)">
          <path id="Path_35" data-name="Path 35" d="M-5.877,3.707c-.991-1.629-3.866-2.237-2-4,3.723.112,1.776,1.293,4,2-6.008-.4,2.341,1.076-2,2a14.367,14.367,0,0,0,3,0,25.58,25.58,0,0,0-3,1c.055-.036-.045.038,0,0h0c.259-.2.292-1.118,0-1-.02-.02.032.006,0,0-.041-.227.119.191,0,0-1.74.336-.546-.192,0,0,.019.079-.006.915,0,1-.006.009.008,0,0,0l-6-1a28.017,28.017,0,0,1,6,0" transform="translate(11.746 0.652)" fill="#28292c"/>
        </g>
        <g id="Group_36" data-name="Group 36" transform="translate(766.282 15.143)">
          <path id="Path_36" data-name="Path 36" d="M-.58.2c-.187.144.014-.118,0,0C-.97,0-1.31.239-.58.2" transform="translate(1.063 0.25)" fill="#28292c"/>
        </g>
        <g id="Group_37" data-name="Group 37" transform="translate(761.339 15.521)">
          <path id="Path_37" data-name="Path 37" d="M-2.723-1.54c.438.227.578.17,2,0,1.234-.489-.065-.464,0-1,.857.432,2.689,1.208,0,2h0c-2.423.559-5.423,1.777-5,2,.707-1.466,1.388-1.561,3-3" transform="translate(6.148 2.608)" fill="#28292c"/>
        </g>
        <g id="Group_38" data-name="Group 38" transform="translate(745.272 17.095)">
          <path id="Path_38" data-name="Path 38" d="M-4.841,2.494l-5-1,2-1h0c2.85-.332,2.645,1.349,3,2" transform="translate(10.334 0)" fill="#28292c"/>
        </g>
      </g>
      <g id="Group_40" data-name="Group 40" transform="translate(546.124 24.851)">
        <path id="Path_40" data-name="Path 40" d="M1.041-.4l1,1-7-2Z" transform="translate(4.599 1.136)" fill="#28292c"/>
      </g>
      <g id="Group_41" data-name="Group 41" transform="translate(531.987 25.247)">
        <path id="Path_41" data-name="Path 41" d="M-.222-.254h4v1Z" transform="translate(0 0.596)" fill="#28292c"/>
      </g>
      <g id="Group_71" data-name="Group 71" transform="translate(0 0)" clip-path="url(#clip-path)">
        <g id="Group_42" data-name="Group 42" transform="translate(347.371 5.185)">
          <path id="Path_42" data-name="Path 42" d="M-1.643.4h-1c.7.13.672-.151,1,0" transform="translate(3.036 0)" fill="#28292c"/>
        </g>
        <g id="Group_43" data-name="Group 43" transform="translate(359.268 5.507)">
          <path id="Path_43" data-name="Path 43" d="M0-.405v1c-.494-.407-.435-.968,0-1" transform="translate(0.492 0.487)" fill="#28292c"/>
        </g>
        <g id="Group_44" data-name="Group 44" transform="translate(552.132 24.006)">
          <path id="Path_44" data-name="Path 44" d="M-4.237-2.065c-2.145,1.4-5.259,3.684-5,2l1-1c1.5.294,3.024-.647,4-1" transform="translate(8.87 1.647)" fill="#28292c"/>
        </g>
        <g id="Group_45" data-name="Group 45" transform="translate(446.878 13.714)">
          <path id="Path_45" data-name="Path 45" d="M-.113.168c.2-.159.789-.832,1-1,.521.56.563,1.512,1,2C1.263.832.63.545-.113.168" transform="translate(0 0.707)" fill="#28292c"/>
        </g>
        <g id="Group_46" data-name="Group 46" transform="translate(442.536 7.424)">
          <path id="Path_46" data-name="Path 46" d="M-2.6-.534l-3,1a13.869,13.869,0,0,1,3-1" transform="translate(5.831 0.699)" fill="#28292c"/>
        </g>
        <g id="Group_47" data-name="Group 47" transform="translate(288.893 2.199)">
          <path id="Path_47" data-name="Path 47" d="M-1.671,1.39l-2-1c2.688.009,1.787.181,2,1" transform="translate(3.543 0)" fill="#28292c"/>
        </g>
        <g id="Group_48" data-name="Group 48" transform="translate(645.073 23.005)">
          <path id="Path_48" data-name="Path 48" d="M-4.832-.069a19.524,19.524,0,0,1-5,1c2.231-.94,4.411-2.364,5-1" transform="translate(9.523 0.653)" fill="#28292c"/>
        </g>
        <g id="Group_49" data-name="Group 49" transform="translate(351.779 22.02)">
          <path id="Path_49" data-name="Path 49" d="M-1.614.568c-.9-.3-1.027-.635-1-1,.928.28,1.193.6,1,1" transform="translate(2.6 0)" fill="#28292c"/>
        </g>
        <g id="Group_50" data-name="Group 50" transform="translate(639.726 24.168)">
          <path id="Path_50" data-name="Path 50" d="M.038-.043c.326-.164.668.139,1,0a14.06,14.06,0,0,0,4,0c-1.648.7-3.187,1.139-5,0" transform="translate(0 0.464)" fill="#28292c"/>
        </g>
        <g id="Group_51" data-name="Group 51" transform="translate(78.932 5.212)">
          <path id="Path_51" data-name="Path 51" d="M-.166.248c-.153.074-.861-.086-1,0-.047-.221.688-.036,1,0" transform="translate(0.998 0.129)" fill="#28292c"/>
        </g>
        <g id="Group_52" data-name="Group 52" transform="translate(17.889 21.782)">
          <path id="Path_52" data-name="Path 52" d="M-.125-.322c.606.1,2.068-.023,3,0a8.509,8.509,0,0,1-3,0" transform="translate(0 0.129)" fill="#28292c"/>
        </g>
        <g id="Group_53" data-name="Group 53" transform="translate(690.195 24.891)">
          <path id="Path_53" data-name="Path 53" d="M-.43-.375c1.382.108.219.182,0,0" transform="translate(0 0.073)" fill="#28292c"/>
        </g>
        <g id="Group_54" data-name="Group 54" transform="translate(696.361 17.605)">
          <path id="Path_54" data-name="Path 54" d="M-.734.984c-.293-.185.035-.621,0-1,.113.4-.246.849,0,1" transform="translate(1.138 0)" fill="#28292c"/>
        </g>
        <g id="Group_55" data-name="Group 55" transform="translate(625.847 14.132)">
          <path id="Path_55" data-name="Path 55" d="M-.329.453h0c.411-.321.221-.254,0,0" transform="translate(0.247 0.004)" fill="#28292c"/>
        </g>
        <g id="Group_56" data-name="Group 56" transform="translate(690.506 24.145)">
          <path id="Path_56" data-name="Path 56" d="M-1.385.122c-.518.2-1.35-.118-2,0,.286-.127,1.056.2,2,0" transform="translate(3.643 0.322)" fill="#28292c"/>
        </g>
        <g id="Group_57" data-name="Group 57" transform="translate(691.994 24.761)">
          <path id="Path_57" data-name="Path 57" d="M-.229-.27c.476-.074.643.044,1,0,.174.274.228.286-1,0" transform="translate(0 0.098)" fill="#28292c"/>
        </g>
        <g id="Group_58" data-name="Group 58" transform="translate(688.27 24.633)">
          <path id="Path_58" data-name="Path 58" d="M.494-.1a9.287,9.287,0,0,0,2,0c-.271.111-1.073-.055-1,0-.4-.026-.052.03-1,0" transform="translate(0 0.058)" fill="#28292c"/>
        </g>
        <g id="Group_59" data-name="Group 59" transform="translate(191.471 9.285)">
          <path id="Path_59" data-name="Path 59" d="M-.984.2c-.091.051.1-.071,0,0-1.393-.681-1.078-.416,0,0" transform="translate(2.278 0.103)" fill="#28292c"/>
        </g>
        <g id="Group_60" data-name="Group 60" transform="translate(520.434 6.971)">
          <path id="Path_60" data-name="Path 60" d="M.236-.472c.065.017-.059-.02,0,0-.065.017.058.982,0,1Z" transform="translate(0.095 0.09)" fill="#28292c"/>
        </g>
        <g id="Group_61" data-name="Group 61" transform="translate(515.518 5.749)">
          <path id="Path_61" data-name="Path 61" d="M.246-4.181c2.113,2.041,3.4,2.433,5,2l-2,4Z" transform="translate(0 4.021)" fill="#28292c"/>
        </g>
        <g id="Group_62" data-name="Group 62" transform="translate(3.744 0)">
          <path id="Path_62" data-name="Path 62" d="M-338.876-8.958l3-2c-4.206-2.426-7.271-1.927-4-4,.493,5.136,13.515.87,14,6l2-1c-.658.05-.35-.051-1,0,4.467-2.461,3.244,3.731,9,3,2.006-.394,3.368-1.391,2-2l5,1c1.3-.1.294-1.1-1-1l7,1h0a22.831,22.831,0,0,0,4,2c1.732-.736-.443-.359,0-1l4,1c1.537-1.331-2.393-2.189-5-2,3.525-5.127,3.392,1,11-2h-3c2.3-2.913,4.971-2.183,9-4-.956.949-8.1,4.72-4,6a5.994,5.994,0,0,1,5,0c.021-1.826,1.3-1.1,4-1v-3c2.919.7,3.282,1.91,5,3,3.253-.239,3.234-1.421,4-3,5.21-.383-3.167,2.544,3,3,4.334-.925,7.816.552,13,2,3.033-.833-1.088-1.308,0-2l3,2c.658-.047.108-.7,0-1,2.265.748.438,2.343,4,3,.96,2.665,7.592-4.025,12-1,1.086-.686-1.332-2.063-1-3,6.048,1.985,6.034,1.327,11,4l4-1c-3.108,1.817.522,4.234,4,6a25.792,25.792,0,0,1-3,2l6,1c.67-.4-.091-.99-1-2,.378.2.721-.183,1,0,1.985-.893,1.423-1.648,0-3-.676.477-1.348.494-2,1-1.371-1.47-3.286-2.584-3-4,.361.279,1.236-.135,2,0a.728.728,0,0,1,0-1c.189-.254.092.382,1,1l2-3v2l7-2c5.2,2.715,9.752,6.887,18,8-2.046-1.978.111-3.656,0-6-2.25,2.48-6.726-.5-11,0,2.23-.26,1.567-1.609,1-2l8,2c-.172-1.916,1.009-1.207,3-2-1.505,3.787,5.9,1.839,9,3,.193-1.272-.215-2.306-4-2,4.176-2.85,4.9,4.421,9,2-.924-.032-.635.647-1,0,2.158,1.131,7.241.107,6-1h-1c6.135-.45,18.085-.216,19,3a15.651,15.651,0,0,0-1-4l11,10c-.964-2.762,3.087-9.44-2-11,1.46-.392,2.921.025,6,1-1,.394-2.362,3.747-1,4,3.737-3.075,2.393-1.377,7-4-1.494.594.64,4.138,3,4-.368-.648-.137-3.549-1-4l6,4c-1.466-.766-.314-3.8,1-5-.61.833,5.434-.422,7,0l-3,1c6.634-.642,6.419,6.223,13,6-.8-.878-1.347-5.465,2-6,1.534,2.177,6.178,10.325,12,12l1-1,5,2a92.719,92.719,0,0,0-15-13c2.482-.986,1.282-2.114,5-2,1.313-1.167-2.906-1.932-4-2h9c-.385,2.544,6.331,1.883,6,4l-9-2c-.381,2.538,5.868,7.448,12,7,1.56-1.012-2.128-5.154-2-6,.8.875,6.436,1.619,7,1l-3-1c3.414-.955,5.9,3.426,10,1,1.416-.162,3.755-3.5,4-2-2.309,2.9-2.539,11.821-1,14,.5-.2,7.383-2.568,9-4,2.332-2.274-2.985-5.047-1-7,.085.694,1.464.724,2,1,1.487-.594-1.231-2.313,2-2,.539,2.579,7.045.6,2,3,3.161.737,3.288-1.112,7-1-1.181,1.666,2.833,6.266,6,7-.187-.656.656-1.609,1-2,6.479-.232,9.958-1.977,16-2,.557-.624,3.241-.892,2-2a8.986,8.986,0,0,0,4,1c3.607-2.229-3.75-.323-1-3,.235,1.5,4.346,2.064,7,3-.817,2.314-6.343.934-9,0-.013,3.191,4.685,6.525,11,8,5.018.792,2.129-2.454,3-2,9.427-.557,8.172,5.3,16,3,3.106-2.032.311-3.534,1-5-4.089-.771-6.229,1.082-9,1l3-1a6.823,6.823,0,0,0-5,0c2.6-1.826,15.727-1.315,23-3,1.292.681,3.055,2.182,2,3l-2-1c-2.115,1.64,4.912,2.234,2,3,3.087,1.152,5.654,2.927,10,2l1-2c-.093.677-2.779,1.706-4,1,1.812,1.027,7.015-3.036,9,0l-3,1c3.1,1.166,7.149,3.731,11,3-1.752,2.29-1.263.321-4,3,2.373-3.333-9.811-.5-6-4-2.808,3.109-5.329,1.35-9,4,.113-.763,1.233-1.376-2-1-.146-.223.219-.833,0-1-.1.021.085.976,0,1,.065-.029-.066-.971,0-1-.141-.114-.219-.108,0,0,.77-.335.746-.574,1-1-1.605-1.757-6.261-1.091-8-2-1.919.363,1.047.184,0,1l-3-1c-.257,1.7-5.52,3-1,4h-4c-2.395.952-4.969,1.715-7,1-1.919.368-4.671-2.33-3-1l-7-1h0c-6.294.214-12.8-2.065-20,1-2.119-.429-4.455-1.482-8-1l-1,2c-2.72-.513-7.831,1.531-9,0-2.935,3.954-13.215.3-18,1v-2a50.541,50.541,0,0,1-11-1l1-2c-3.525-1.392-9.425,1.174-15,1,.379.648,2,.391,3,0-6.661,3.83-13.959-2.789-20,0a5.274,5.274,0,0,0-4,0c.14,0-.108-.053,0,0-.154.021.235,1,0,1-.665.291-1.258-.273-2,0,.63-.412.475.157,1,0a23.145,23.145,0,0,1-4-1l-1,2c-.141-.024.146.032,0,0-1.694.672-1.9-1.63-1-3a7.018,7.018,0,0,1-2-1c-1.375,2.939-5.122-1.136-7,2-1.164-1.529-8.081-.784-9-4-.059.419-.932.973,0,1-1.924.366-3.274.907-5,0l-1,2-4-3c-2.553,1.411-3.534,2.218-1,4-6.12-2.741-5.8-1.285-11-4l1,1c-1.861-.056-4.878-1.239-6,0-4.162,2.844-21.318.356-32,3,2.072-4.406-4.577,1.416-5-2-.623,1.042-1.73,2.094,0,3-5.452-1.024-8.236,1.882-12-1-.624,1.048.555,1.382,0,2-.437-.224-1.432-1.622-2-1s1.137,1.546,2,2c-5.569-.176-6.6-3.985-7-7-2.823,1.428-3.962,1.978-6,0-.983.986-2.461,1.646,1,2-1.947.144-11.8,1.417-12-1-.61.612-3.487.279-4,0a72.549,72.549,0,0,1-9,0h2c-1.694-2.916-3.542-.65-7-1h0c-7.929,2.1-4.177-1.4-12,1l1-1c-.729-3.9-7.46,1.492-12,0l2-1c-2.479-1.334-6.509,5.512-9,6-.543.339.243.75,1,1-6.519,2.3-1.143-2.449-6-3-.9,1.281,1.27,2.762-2,3-1.629,1.037-9.539-3.458-14-1,.983-.987,2.256-2.257,0-3-3.459-.353-8.877,4.113-12,1-.439.27-.982-.245-1,0-2.644-.8-8.407-1.313-10-3-2.443,6.264-17.059-2.777-17,3h-7c-5.2.382-7.173-.613-9-2-1.2.394-1.1.7-1,1-7.6,1.164-7.632.879-14-2l-1,2c-1.726-1.09-10.55,3.185-18,1,.073.212-.592.735,0,1-8.381-2.2-19.929,4.825-23-2l-5-2c7.156-.53-.943-2.866,2-4-2.814-.4-7.458,2.649-4,3v-1c1.271,3.557-8.192,1.579-8,4-14.08-.174-27.811,1.847-41,2l1-3h-4c-1.207.644-2.282,3.115,1,3-1.726,1.567-4.906-1.4-5-2-6.426,1.121,1.971,2.933,0,3h-2v-1c-2.169-1.13-2.055-2.138-6-2-2.5.553-1.017,1.892-2,2,.006.2-.819.209-2,0h-6l3-2c-2.57-1.077-5.674.474-3-2-3.926,3.814-21.59.817-24,2-3.6-1.591-7.6-1.192-12-1,1.094-.454,1.795-3.3-2-3,1.388,5.067-6.933,2.357-10,6,2.741-2.417-10.3-.569-6-4-3.167.41-.6,1.807-3,3-7.536-1.962-16.685,1.663-26,1-.145-.663,2-2.01,0-3l-5,3c-1.839-.327-1.639-3.308-5-1,.474-.559,1.234-1.786,0-2-18.249,3.24-37.467-2.089-56,4,2.51-1.289.917-1.952-1-2,1.246-.307-.244-1.1,0-2l-8,2c-1.414-2.5-8.19.391-9-2h2c-3.267-2.824,5.478-6.376,5-10,3.659,3.21,9-4.594,15,0,1.325-.739-.709-1.16,0-2,1.521,1.554,3.594,1.7,7,1h-1c9.567.379,14.252-.981,25-2l-1,2c2.309-.241,2.919-1.552,4-2,2.651,2.717-6.415,0-4,3,3.064-3.645,15.93.141,18-4,3.553-.023-1.552,2.024,2,2l1-1,1,2c2.33-.239,3.913-2.051,4-3a6.861,6.861,0,0,1-2,0c3.021-1.32,7.963.432,9,0h-3c9.7,1.049,21.632-.279,31,2l-1,1c7.154,1.564,6.146-.724,14,0h-1a12.258,12.258,0,0,0,6,1c-1.983-.99,3.6-1.905,1-3,7.757,1.679,3.876.859,9,4l1-1c1.746,1.267,2.077,1.635,6,2-3.217-1.2,2.6-2.409-1-4,8.231-3.066,12.224,3.485,16-1,3.78,3.881-7.117,2.169-5,3-1.773,1.267,3.417,3.389,6,3,2.63-.086,4.385-5.074,11-5-.658.018-.343-1.017-1-1,2.475-.989,3.964,1.608,7,0,1.7,2.347,4.509.008,5,3l-6-1c3.44.783,6.333,4.7,12,3a8.165,8.165,0,0,0-3-2c1.657-.883,3.283.907,5,0-.489-3-7.314-.715-11-3,1.779-1.264,6.852,2.244,5-1,2.662,4.125,6.52-1.15,11,2l-1-1a12.255,12.255,0,0,0,4,1l-2-3c3.626,1.985,6.522-1.081,10,0-7.283-.056-1.921,1.69-5,3,8.983,2.4,5.943-4.862,16-4-1.362-.253-5.129,1.17-3,2a12.092,12.092,0,0,0,5-2c6.664.373-.836,1.9,2,3,2.268-2.187,3.079,1.3,6,2v-2c7.593-1.171,2.164,3.414,9,2l-3-2h4l-1-2c3.877,1.538,5.2,1.581,9,1-.883,1.286.637,2.942,4,3,2.294-1.084-1.767-1.26,3-1-1.076-1.142-1.926-2.681-4-1-.213-.6-.781-1.412-1-2,2.471-1.246,6.274-.017,8,0-.664.068-1.593-.26-2,0l7,3c1.088-.684-.145-1.462-1-2,1.4.2,1.942.843,4,1-.533-1.482-.087-2.3-3-3l7,1c.44-.645,2.855-1.455,2-2,3.651-.872,9.161,3.149,14,2,.252.288.971-.214,2,0,4.548-.336,8.609-2.032,14,0l3-2c4.222.6-4.03,3,3,4,4.977.848,1.254-2.26,3-3,2.475,1.34,7.428,4.164,12,2-1.514-.5-2.586.2-4,0m52,1c-1.009-.383-3.262-2.077-4-1,1.149,2.09,2.28,1.6,4,1m79,4c-.75-.6-1.69.31-3,1,.951.15,1.807-.532,3-1m220,13c-.043-.029.035.038,0,0-2.25.71-1.56.342,0,0m5-1c.469.254.2.746,0,1a1.943,1.943,0,0,0-2-1c.332-.479.6-.409,2,0m-502-1h1c-2.054-.527-1.569-.527-1,0" transform="translate(658.897 14.547)" fill="#28292c"/>
        </g>
        <g id="Group_63" data-name="Group 63" transform="translate(444.876 8.21)">
          <path id="Path_63" data-name="Path 63" d="M-.539-.276c-.286.307-.933.656-1,1-.4-.307.163-.67,1-1" transform="translate(1.427 0.655)" fill="#28292c"/>
        </g>
        <g id="Group_64" data-name="Group 64" transform="translate(290.611 3.869)">
          <path id="Path_64" data-name="Path 64" d="M-.5.707c-.053.015.053-.011,0,0-.087-.109.026-.891,0-1Z" transform="translate(0.655 0.013)" fill="#28292c"/>
        </g>
        <g id="Group_65" data-name="Group 65" transform="translate(605.469 7.148)">
          <path id="Path_65" data-name="Path 65" d="M-1.539-.182a4.762,4.762,0,0,0-2,1c-.052-.447.529-.882,2-1" transform="translate(3.834 0.622)" fill="#28292c"/>
        </g>
        <g id="Group_66" data-name="Group 66" transform="translate(701.499 24.642)">
          <path id="Path_66" data-name="Path 66" d="M-2.908.947h-3c1.448.089,1.269-.711,2-1-.065.426.064.97,1,1" transform="translate(6.173 0)" fill="#28292c"/>
        </g>
        <g id="Group_67" data-name="Group 67" transform="translate(729.528 14.426)">
          <path id="Path_67" data-name="Path 67" d="M-.724-.563c.437.224.569-.227,1,0v1c-1.863-.056-2.927-.64-1-1" transform="translate(1.96 0.726)" fill="#28292c"/>
        </g>
        <g id="Group_68" data-name="Group 68" transform="translate(707.265 18.605)">
          <path id="Path_68" data-name="Path 68" d="M.5.519c.238-1.534,1.9-1.283,4-1-.126,0-.875-.018-1,0,.618,2.147-.775,1.707-3,1" transform="translate(0 0.466)" fill="#28292c"/>
        </g>
        <g id="Group_69" data-name="Group 69" transform="translate(711.963 18.976)">
          <path id="Path_69" data-name="Path 69" d="M-.2-.692a9.2,9.2,0,0,0,2,0c.245.862-.848.218-2,0" transform="translate(0 0.305)" fill="#28292c"/>
        </g>
        <g id="Group_70" data-name="Group 70" transform="translate(683.694 23.471)">
          <path id="Path_70" data-name="Path 70" d="M-1.971-1.1c.994-.4.437,1.625,1,1,1.11,1.953-6.444-2.027-1-1" transform="translate(4.042 1.222)" fill="#28292c"/>
        </g>
      </g>
      <g id="Group_72" data-name="Group 72" transform="translate(512.634 14.815)">
        <path id="Path_72" data-name="Path 72" d="M1.158-1.477l-2,2-3-1Z" transform="translate(3.973 1.251)" fill="#28292c"/>
      </g>
      <g id="Group_75" data-name="Group 75" transform="translate(0 0)" clip-path="url(#clip-path)">
        <g id="Group_73" data-name="Group 73" transform="translate(692.403 15.464)">
          <path id="Path_73" data-name="Path 73" d="M.358-.076h3c-.051.316.477.859,1,1-2.065.064-4.079-.438-4-1" transform="translate(0.004 0.201)" fill="#28292c"/>
        </g>
        <g id="Group_74" data-name="Group 74" transform="translate(696.653 16.099)">
          <path id="Path_74" data-name="Path 74" d="M.111.283c1.075-.036,2.4-.309,3,0a14.121,14.121,0,0,1-3,0" transform="translate(0 0.207)" fill="#28292c"/>
        </g>
      </g>
      <g id="Group_76" data-name="Group 76" transform="translate(497.887 14.085)">
        <path id="Path_76" data-name="Path 76" d="M.958-.849l-2,1h-6Z" transform="translate(6.92 0.353)" fill="#28292c"/>
      </g>
      <g id="Group_80" data-name="Group 80" transform="translate(0 0)" clip-path="url(#clip-path)">
        <g id="Group_77" data-name="Group 77" transform="translate(652.648 14.943)">
          <path id="Path_77" data-name="Path 77" d="M-3.585,1.646l-4-1c-.372-.65.639-1.259,2-1,.875.453,2.561,1.372,2,2" transform="translate(7.702 0)" fill="#28292c"/>
        </g>
        <g id="Group_78" data-name="Group 78" transform="translate(665.719 10.257)">
          <path id="Path_78" data-name="Path 78" d="M-1.51.381c-.989.394-1.443.376-2,1v-2Z" transform="translate(3.555 0.951)" fill="#28292c"/>
        </g>
        <g id="Group_79" data-name="Group 79" transform="translate(654.135 8.882)">
          <path id="Path_79" data-name="Path 79" d="M-2.821,1.707c-.364-.651-5.635-2.147-1-2,.371.647,4.362,1.464,1,2" transform="translate(5.451 0)" fill="#28292c"/>
        </g>
      </g>
      <g id="Group_81" data-name="Group 81" transform="translate(600.706 14.034)">
        <path id="Path_81" data-name="Path 81" d="M.059-3.008h2v3Z" transform="translate(0 2.563)" fill="#28292c"/>
      </g>
      <g id="Group_84" data-name="Group 84" transform="translate(0 0)" clip-path="url(#clip-path)">
        <g id="Group_82" data-name="Group 82" transform="translate(552.669 4.21)">
          <path id="Path_82" data-name="Path 82" d="M-.81-1.569c4.333-.922,1.084,2.151,5,1,1.018.91-3.043,1.214-2,2-2.616-.96-4.2-.467-3-3" transform="translate(0.906 1.948)" fill="#28292c"/>
        </g>
        <g id="Group_83" data-name="Group 83" transform="translate(555.895 7.326)">
          <path id="Path_83" data-name="Path 83" d="M-.13-.124c.42.151.528-.25,1,0-.758-.241-.779.161-1,0" transform="translate(0 0.387)" fill="#28292c"/>
        </g>
      </g>
      <g id="Group_85" data-name="Group 85" transform="translate(12.005 24.605)">
        <path id="Path_85" data-name="Path 85" d="M1.05-.87h2l-7,1Z" transform="translate(3.709 0.854)" fill="#28292c"/>
      </g>
      <g id="Group_88" data-name="Group 88" transform="translate(0 0)" clip-path="url(#clip-path)">
        <g id="Group_86" data-name="Group 86" transform="translate(0 20.993)">
          <path id="Path_86" data-name="Path 86" d="M-2.04-2.025l-1,3-2-2a5.049,5.049,0,0,0,3-1" transform="translate(4.805 1.621)" fill="#28292c"/>
        </g>
        <g id="Group_87" data-name="Group 87" transform="translate(380.949 1.37)">
          <path id="Path_87" data-name="Path 87" d="M-2.676-.691h1c-.432.639-1.693.9-3,1Z" transform="translate(4.491 0.91)" fill="#28292c"/>
        </g>
      </g>
      <g id="Group_89" data-name="Group 89" transform="translate(344.042 2.481)">
        <path id="Path_89" data-name="Path 89" d="M.557-1.325h1l-3,2Z" transform="translate(1.165 1.433)" fill="#28292c"/>
      </g>
      <g id="Group_91" data-name="Group 91" transform="translate(0 0)" clip-path="url(#clip-path)">
        <g id="Group_90" data-name="Group 90" transform="translate(313.566 0.365)">
          <path id="Path_90" data-name="Path 90" d="M.1-.583c1.294-.092,2.7.094,4,0-2.822-.4-4.35,2.768-4,0" transform="translate(0.096 0.806)" fill="#28292c"/>
        </g>
      </g>
    </g>
    <g id="Group_503" data-name="Group 503" transform="translate(1114.765 0)">
      <g id="Group_2-2" data-name="Group 2" transform="translate(0 0)" clip-path="url(#clip-path-11)">
        <g id="Group_1-2" data-name="Group 1" transform="translate(0 23.733)">
          <path id="Path_1-2" data-name="Path 1" d="M.445-1.286c-1.241-.139-.813,1.717-1,2,2.077-.35.948-2.412,1-2" transform="translate(0.555 1.142)" fill="#28292c"/>
        </g>
      </g>
      <g id="Group_3-2" data-name="Group 3" transform="translate(51.8 19.496)">
        <path id="Path_3-2" data-name="Path 3" d="M-4.28.666h-1l7-1Z" transform="translate(5.48 0.427)" fill="#28292c"/>
      </g>
      <g id="Group_14-2" data-name="Group 14" transform="translate(0 0)" clip-path="url(#clip-path-11)">
        <g id="Group_4-2" data-name="Group 4" transform="translate(28.175 19.088)">
          <path id="Path_4-2" data-name="Path 4" d="M12.825.819c-1.812-2.7-7.586-.04-11-1v-1l-2,3c4.149-.344,10.078-1.753,13-1" transform="translate(0 0.682)" fill="#28292c"/>
        </g>
        <g id="Group_5-2" data-name="Group 5" transform="translate(48.469 25.288)">
          <path id="Path_5-2" data-name="Path 5" d="M1.915.3c-.631-1.051,1.593-.577-3,0,.231.114.865-.086,1,0a14.058,14.058,0,0,1,2,0" transform="translate(0.616 0)" fill="#28292c"/>
        </g>
        <g id="Group_6-2" data-name="Group 6" transform="translate(48.235 26.002)">
          <path id="Path_6-2" data-name="Path 6" d="M.108-.684c-2.018.076,1.32.883,0,0" transform="translate(0.657 0.271)" fill="#28292c"/>
        </g>
        <g id="Group_7-2" data-name="Group 7" transform="translate(55.562 25.4)">
          <path id="Path_7-2" data-name="Path 7" d="M-.234-1.23l-2,1c.555.621,2.879.55,2,1,2.727-.513,1.55-.981,0-2" transform="translate(2.672 1.419)" fill="#28292c"/>
        </g>
        <g id="Group_8-2" data-name="Group 8" transform="translate(59.363 23.431)">
          <path id="Path_8-2" data-name="Path 8" d="M1.637-.228h-2a1.472,1.472,0,0,0,2,0" transform="translate(0 0.387)" fill="#28292c"/>
        </g>
        <g id="Group_9-2" data-name="Group 9" transform="translate(56.441 23.196)">
          <path id="Path_9-2" data-name="Path 9" d="M-6.464,1.393l3-1c-.385-.436-.085-.613-1,1,.239-.8-.758-.566-2,0" transform="translate(6.023 0)" fill="#28292c"/>
        </g>
        <g id="Group_10-2" data-name="Group 10" transform="translate(50.578 22.363)">
          <path id="Path_10-2" data-name="Path 10" d="M4.422,2.193c-1.491-.588-3.668-1.066-1-2-5.085.371-4.085,2.379,1,2" transform="translate(0 0.033)" fill="#28292c"/>
        </g>
        <g id="Group_11-2" data-name="Group 11" transform="translate(37.896 16.645)">
          <path id="Path_11-2" data-name="Path 11" d="M4.1.736l-2-1-2,1c.861-.45,4.124.846,4,0" transform="translate(0.008 0.208)" fill="#28292c"/>
        </g>
        <g id="Group_12-2" data-name="Group 12" transform="translate(71.723 24.533)">
          <path id="Path_12-2" data-name="Path 12" d="M3.241,2.056c.166-.574-.8-1.266-1-2l-2,1c1.009.394,2.866.149,3,1" transform="translate(0.036 0)" fill="#28292c"/>
        </g>
        <g id="Group_13-2" data-name="Group 13" transform="translate(73.656 23.529)">
          <path id="Path_13-2" data-name="Path 13" d="M-5.714,1.06l3-1c-2.624-.117-3.166.367-3,1" transform="translate(6.057 0)" fill="#28292c"/>
        </g>
      </g>
      <g id="Group_15-2" data-name="Group 15" transform="translate(138.361 20.745)">
        <path id="Path_15-2" data-name="Path 15" d="M9.721-1.525l-12,2,14-2Z" transform="translate(1.918 1.368)" fill="#28292c"/>
      </g>
      <g id="Group_16-2" data-name="Group 16" transform="translate(206.926 26.831)">
        <path id="Path_16-2" data-name="Path 16" d="M1.391-.12l-4,1,7-2Z" transform="translate(2.683 0.878)" fill="#28292c"/>
      </g>
      <g id="Group_24-2" data-name="Group 24" transform="translate(0 0)" clip-path="url(#clip-path-11)">
        <g id="Group_17-2" data-name="Group 17" transform="translate(93.129 26.637)">
          <path id="Path_17-2" data-name="Path 17" d="M-11.858-1.726c-1.232,1.1,2.3,2.322,1,3a12.537,12.537,0,0,0,5-2c-1.651.474-3.723-.1-6-1" transform="translate(11.729 1.678)" fill="#28292c"/>
        </g>
        <g id="Group_18-2" data-name="Group 18" transform="translate(99.127 25.947)">
          <path id="Path_18-2" data-name="Path 18" d="M2.873-1.176c-.825.263-2.07,1.5-3,2a14.106,14.106,0,0,0,3-2" transform="translate(0 0.818)" fill="#28292c"/>
        </g>
        <g id="Group_19-2" data-name="Group 19" transform="translate(81.627 23.831)">
          <path id="Path_19-2" data-name="Path 19" d="M-4.395-1.325c.227.347.352,1.615,2,2l-1-2c-.353-.009-.6.008-1,0" transform="translate(4.767 1.083)" fill="#28292c"/>
        </g>
        <g id="Group_20-2" data-name="Group 20" transform="translate(82.744 23.803)">
          <path id="Path_20-2" data-name="Path 20" d="M-4.974-.308h0c1.254.035,1.628-.018,2,0a15.372,15.372,0,0,1-2,0" transform="translate(5.23 0.094)" fill="#28292c"/>
        </g>
        <g id="Group_21-2" data-name="Group 21" transform="translate(81.336 23.69)">
          <path id="Path_21-2" data-name="Path 21" d="M-.937-.106c.107,0,.894,0,1,0-.112-.159-.887-.2-1,0" transform="translate(0.601 0.005)" fill="#28292c"/>
        </g>
        <g id="Group_22-2" data-name="Group 22" transform="translate(68.915 18.647)">
          <path id="Path_22-2" data-name="Path 22" d="M-6.732,2.942c1.726-.9,5.482-1.622,2-3-1.239,1.105.6,1.642-2,3" transform="translate(6.818 0)" fill="#28292c"/>
        </g>
        <g id="Group_23-2" data-name="Group 23" transform="translate(76.551 21.434)">
          <path id="Path_23-2" data-name="Path 23" d="M3.449-.59h-3c.062.427.855.552,0,1Z" transform="translate(0 0.745)" fill="#28292c"/>
        </g>
      </g>
      <g id="Group_25-2" data-name="Group 25" transform="translate(196.055 21.395)">
        <path id="Path_25-2" data-name="Path 25" d="M3.945-.234h0Z" transform="translate(0 0.428)" fill="#28292c"/>
      </g>
      <g id="Group_39-2" data-name="Group 39" transform="translate(0 0)" clip-path="url(#clip-path-11)">
        <g id="Group_26-2" data-name="Group 26" transform="translate(95.134 23.073)">
          <path id="Path_26-2" data-name="Path 26" d="M-8.387,1.514a13.622,13.622,0,0,1,5-1,39.662,39.662,0,0,0-6-1c-.247.509-.913,2.058,1,2" transform="translate(9.253 0.002)" fill="#28292c"/>
        </g>
        <g id="Group_27-2" data-name="Group 27" transform="translate(89.755 23.786)">
          <path id="Path_27-2" data-name="Path 27" d="M-.373-.2c.093-.036-.088.036,0,0-.184-.136-.032-.273,0,0" transform="translate(0.618 0)" fill="#28292c"/>
        </g>
        <g id="Group_28-2" data-name="Group 28" transform="translate(116.952 23.277)">
          <path id="Path_28-2" data-name="Path 28" d="M.048.312c-.092-.089.093.094,0,0-.021.094.026-.094,0,0Z" transform="translate(0 0)" fill="#28292c"/>
        </g>
        <g id="Group_29-2" data-name="Group 29" transform="translate(92.29 22.662)">
          <path id="Path_29-2" data-name="Path 29" d="M1.952-.457c-1.342-.312-2.236.5-3,1,1-.162,1.859-.988,3-1,.111-.229.432-.079,0,0" transform="translate(0.758 0.384)" fill="#28292c"/>
        </g>
        <g id="Group_30-2" data-name="Group 30" transform="translate(103.988 24.303)">
          <path id="Path_30-2" data-name="Path 30" d="M2.012,1.208a13.382,13.382,0,0,0-2-1c.683.512,1.753,1.421,2,1" transform="translate(0 0.078)" fill="#28292c"/>
        </g>
        <g id="Group_31-2" data-name="Group 31" transform="translate(90.311 24.341)">
          <path id="Path_31-2" data-name="Path 31" d="M.407.071C.34.1-.52.054-.593.071c.439.348,1.184.25,1,0" transform="translate(0.282 0.177)" fill="#28292c"/>
        </g>
        <g id="Group_32-2" data-name="Group 32" transform="translate(90.06 23.355)">
          <path id="Path_32-2" data-name="Path 32" d="M-2.727,1.234c.691-.233.454-.646,1-1-.817.127-1.344-.238-2,0a10.489,10.489,0,0,1,1,1" transform="translate(3.667 0)" fill="#28292c"/>
        </g>
        <g id="Group_33-2" data-name="Group 33" transform="translate(113.925 13.199)">
          <path id="Path_33-2" data-name="Path 33" d="M1.014-6.266c-.237,1.5-3.956,2.607-7,1-3,1.124-.616,6.246,2,9,.093-.654-.083-1.116,3-2-1.079-.818-6.6-2.646-4-4,4.085-.772,3.014,1.207,5,2-1.688-1.867,5.89-3.256,5-6l-4,1c-.067-.427.995-.611,0-1" transform="translate(7.061 6.656)" fill="#28292c"/>
        </g>
        <g id="Group_34-2" data-name="Group 34" transform="translate(109.869 23.124)">
          <path id="Path_34-2" data-name="Path 34" d="M-10.856-1h-1c1.446.26,2.094.828,4,2C-5.745.271-5-.5-4.856-1Z" transform="translate(11.987 1.464)" fill="#28292c"/>
        </g>
        <g id="Group_35-2" data-name="Group 35" transform="translate(100.88 19.23)">
          <path id="Path_35-2" data-name="Path 35" d="M-8.626,3.707c.991-1.629,3.866-2.237,2-4-3.723.112-1.776,1.293-4,2,6.008-.4-2.341,1.076,2,2a14.367,14.367,0,0,1-3,0,25.58,25.58,0,0,1,3,1c-.055-.036.045.038,0,0h0c-.259-.2-.292-1.118,0-1,.02-.02-.032.006,0,0,.041-.227-.119.191,0,0,1.74.336.546-.192,0,0-.019.079.006.915,0,1,.006.009-.008,0,0,0l6-1a28.017,28.017,0,0,0-6,0" transform="translate(11.746 0.652)" fill="#28292c"/>
        </g>
        <g id="Group_36-2" data-name="Group 36" transform="translate(73.967 15.143)">
          <path id="Path_36-2" data-name="Path 36" d="M-1.031.2c.187.144-.014-.118,0,0,.389-.2.729.042,0,0" transform="translate(1.063 0.25)" fill="#28292c"/>
        </g>
        <g id="Group_37-2" data-name="Group 37" transform="translate(72.537 15.521)">
          <path id="Path_37-2" data-name="Path 37" d="M-2.686-1.54c-.438.227-.578.17-2,0-1.234-.489.065-.464,0-1-.857.432-2.689,1.208,0,2h0c2.423.559,5.423,1.777,5,2-.707-1.466-1.388-1.561-3-3" transform="translate(6.148 2.608)" fill="#28292c"/>
        </g>
        <g id="Group_38-2" data-name="Group 38" transform="translate(90.481 17.095)">
          <path id="Path_38-2" data-name="Path 38" d="M-10.815,2.494l5-1-2-1h0c-2.85-.332-2.645,1.349-3,2" transform="translate(10.334)" fill="#28292c"/>
        </g>
      </g>
      <g id="Group_40-2" data-name="Group 40" transform="translate(287.537 24.851)">
        <path id="Path_40-2" data-name="Path 40" d="M-3.136-.4l-1,1,7-2Z" transform="translate(4.599 1.136)" fill="#28292c"/>
      </g>
      <g id="Group_41-2" data-name="Group 41" transform="translate(304.559 25.247)">
        <path id="Path_41-2" data-name="Path 41" d="M4.441-.254h-4v1Z" transform="translate(0 0.596)" fill="#28292c"/>
      </g>
      <g id="Group_71-2" data-name="Group 71" transform="translate(0 0)" clip-path="url(#clip-path-11)">
        <g id="Group_42-2" data-name="Group 42" transform="translate(491.921 5.185)">
          <path id="Path_42-2" data-name="Path 42" d="M-2.957.4h1c-.7.13-.672-.151-1,0" transform="translate(3.036 0)" fill="#28292c"/>
        </g>
        <g id="Group_43-2" data-name="Group 43" transform="translate(480.997 5.507)">
          <path id="Path_43-2" data-name="Path 43" d="M-.489-.405v1c.494-.407.435-.968,0-1" transform="translate(0.492 0.487)" fill="#28292c"/>
        </g>
        <g id="Group_44-2" data-name="Group 44" transform="translate(284.331 24.006)">
          <path id="Path_44-2" data-name="Path 44" d="M-9.2-2.065c2.145,1.4,5.259,3.684,5,2l-1-1c-1.5.294-3.024-.647-4-1" transform="translate(8.87 1.647)" fill="#28292c"/>
        </g>
        <g id="Group_45-2" data-name="Group 45" transform="translate(391.811 13.714)">
          <path id="Path_45-2" data-name="Path 45" d="M2.189.168c-.2-.159-.789-.832-1-1-.521.56-.563,1.512-1,2,.624-.336,1.256-.623,2-1" transform="translate(0 0.707)" fill="#28292c"/>
        </g>
        <g id="Group_46-2" data-name="Group 46" transform="translate(395.401 7.424)">
          <path id="Path_46-2" data-name="Path 46" d="M-6.232-.534l3,1a13.869,13.869,0,0,0-3-1" transform="translate(5.831 0.699)" fill="#28292c"/>
        </g>
        <g id="Group_47-2" data-name="Group 47" transform="translate(550.073 2.199)">
          <path id="Path_47-2" data-name="Path 47" d="M-3.616,1.39l2-1C-4.3.4-3.4.57-3.616,1.39" transform="translate(3.543 0)" fill="#28292c"/>
        </g>
        <g id="Group_48-2" data-name="Group 48" transform="translate(191.073 23.005)">
          <path id="Path_48-2" data-name="Path 48" d="M-9.6-.069a19.524,19.524,0,0,0,5,1c-2.231-.94-4.411-2.364-5-1" transform="translate(9.523 0.653)" fill="#28292c"/>
        </g>
        <g id="Group_49-2" data-name="Group 49" transform="translate(487.686 22.02)">
          <path id="Path_49-2" data-name="Path 49" d="M-2.285.568c.9-.3,1.027-.635,1-1-.928.28-1.193.6-1,1" transform="translate(2.6 0)" fill="#28292c"/>
        </g>
        <g id="Group_50-2" data-name="Group 50" transform="translate(195.692 24.168)">
          <path id="Path_50-2" data-name="Path 50" d="M5.308-.043c-.326-.164-.668.139-1,0a14.06,14.06,0,0,1-4,0c1.648.7,3.187,1.139,5,0" transform="translate(0 0.464)" fill="#28292c"/>
        </g>
        <g id="Group_51-2" data-name="Group 51" transform="translate(761.348 5.212)">
          <path id="Path_51-2" data-name="Path 51" d="M-1.346.248c.153.074.861-.086,1,0,.047-.221-.688-.036-1,0" transform="translate(0.998 0.129)" fill="#28292c"/>
        </g>
        <g id="Group_52-2" data-name="Group 52" transform="translate(820.349 21.781)">
          <path id="Path_52-2" data-name="Path 52" d="M2.651-.321c-.606.1-2.068-.023-3,0a8.509,8.509,0,0,0,3,0" transform="translate(0 0.129)" fill="#28292c"/>
        </g>
        <g id="Group_53-2" data-name="Group 53" transform="translate(149.904 24.891)">
          <path id="Path_53-2" data-name="Path 53" d="M1.1-.375c-1.382.108-.219.182,0,0" transform="translate(0 0.073)" fill="#28292c"/>
        </g>
        <g id="Group_54-2" data-name="Group 54" transform="translate(143.852 17.605)">
          <path id="Path_54-2" data-name="Path 54" d="M-.99.984c.293-.185-.035-.621,0-1-.113.4.246.849,0,1" transform="translate(1.138 0)" fill="#28292c"/>
        </g>
        <g id="Group_55-2" data-name="Group 55" transform="translate(214.621 14.132)">
          <path id="Path_55-2" data-name="Path 55" d="M.132.453h0C-.279.132-.089.2.132.453" transform="translate(0.247 0.004)" fill="#28292c"/>
        </g>
        <g id="Group_56-2" data-name="Group 56" transform="translate(148.491 24.145)">
          <path id="Path_56-2" data-name="Path 56" d="M-4.134.122c.518.2,1.35-.118,2,0-.286-.127-1.056.2-2,0" transform="translate(3.643 0.322)" fill="#28292c"/>
        </g>
        <g id="Group_57-2" data-name="Group 57" transform="translate(147.504 24.761)">
          <path id="Path_57-2" data-name="Path 57" d="M1.5-.27c-.476-.074-.643.044-1,0-.174.274-.228.286,1,0" transform="translate(0 0.098)" fill="#28292c"/>
        </g>
        <g id="Group_58-2" data-name="Group 58" transform="translate(150.258 24.633)">
          <path id="Path_58-2" data-name="Path 58" d="M1.742-.1a9.287,9.287,0,0,1-2,0c.271.111,1.073-.055,1,0,.4-.026.052.03,1,0" transform="translate(0 0.058)" fill="#28292c"/>
        </g>
        <g id="Group_59-2" data-name="Group 59" transform="translate(648.189 9.285)">
          <path id="Path_59-2" data-name="Path 59" d="M-2.467.2c.091.051-.1-.071,0,0,1.393-.681,1.078-.416,0,0" transform="translate(2.278 0.103)" fill="#28292c"/>
        </g>
        <g id="Group_60-2" data-name="Group 60" transform="translate(320.127 6.971)">
          <path id="Path_60-2" data-name="Path 60" d="M-.222-.472c-.065.017.059-.02,0,0,.065.017-.058.982,0,1Z" transform="translate(0.095 0.09)" fill="#28292c"/>
        </g>
        <g id="Group_61-2" data-name="Group 61" transform="translate(320.331 5.749)">
          <path id="Path_61-2" data-name="Path 61" d="M4.669-4.181c-2.113,2.041-3.4,2.433-5,2l2,4Z" transform="translate(0 4.021)" fill="#28292c"/>
        </g>
        <g id="Group_62-2" data-name="Group 62" transform="translate(127.434 0)">
          <path id="Path_62-2" data-name="Path 62" d="M-269.331-8.958l-3-2c4.206-2.426,7.271-1.927,4-4-.493,5.136-13.515.87-14,6l-2-1c.658.05.35-.051,1,0-4.467-2.461-3.244,3.731-9,3-2.006-.394-3.368-1.391-2-2l-5,1c-1.3-.1-.294-1.1,1-1l-7,1h0a22.831,22.831,0,0,1-4,2c-1.732-.736.443-.359,0-1l-4,1c-1.537-1.331,2.393-2.189,5-2-3.525-5.127-3.392,1-11-2h3c-2.3-2.913-4.971-2.183-9-4,.956.949,8.1,4.72,4,6a5.994,5.994,0,0,0-5,0c-.021-1.826-1.3-1.1-4-1v-3c-2.919.7-3.282,1.91-5,3-3.253-.239-3.234-1.421-4-3-5.21-.383,3.167,2.544-3,3-4.334-.925-7.816.552-13,2-3.033-.833,1.088-1.308,0-2l-3,2c-.658-.047-.108-.7,0-1-2.265.748-.438,2.343-4,3-.96,2.665-7.592-4.025-12-1-1.086-.686,1.332-2.063,1-3-6.048,1.985-6.034,1.327-11,4l-4-1c3.108,1.817-.522,4.234-4,6a25.791,25.791,0,0,0,3,2l-6,1c-.67-.4.091-.99,1-2-.378.2-.721-.183-1,0-1.985-.893-1.423-1.648,0-3,.676.477,1.348.494,2,1,1.371-1.47,3.286-2.584,3-4-.361.279-1.236-.135-2,0a.728.728,0,0,0,0-1c-.189-.254-.092.382-1,1l-2-3v2l-7-2c-5.2,2.715-9.752,6.887-18,8,2.046-1.978-.111-3.656,0-6,2.25,2.48,6.726-.5,11,0-2.23-.26-1.567-1.609-1-2l-8,2c.172-1.916-1.009-1.207-3-2,1.505,3.787-5.9,1.839-9,3-.193-1.272.215-2.306,4-2-4.176-2.85-4.9,4.421-9,2,.924-.032.635.647,1,0-2.158,1.131-7.241.107-6-1h1c-6.135-.45-18.085-.216-19,3a15.651,15.651,0,0,1,1-4l-11,10c.964-2.762-3.087-9.44,2-11-1.46-.392-2.921.025-6,1,1,.394,2.362,3.747,1,4-3.737-3.075-2.393-1.377-7-4,1.494.594-.64,4.138-3,4,.368-.648.137-3.549,1-4l-6,4c1.466-.766.314-3.8-1-5,.61.833-5.434-.422-7,0l3,1c-6.634-.642-6.419,6.223-13,6,.8-.878,1.347-5.465-2-6-1.534,2.177-6.178,10.325-12,12l-1-1-5,2a92.719,92.719,0,0,1,15-13c-2.482-.986-1.282-2.114-5-2-1.313-1.167,2.906-1.932,4-2h-9c.385,2.544-6.331,1.883-6,4l9-2c.381,2.538-5.868,7.448-12,7-1.56-1.012,2.128-5.154,2-6-.8.875-6.436,1.619-7,1l3-1c-3.414-.955-5.9,3.426-10,1-1.416-.162-3.755-3.5-4-2,2.309,2.9,2.539,11.821,1,14-.5-.2-7.383-2.568-9-4-2.332-2.274,2.985-5.047,1-7-.085.694-1.464.724-2,1-1.487-.594,1.231-2.313-2-2-.539,2.579-7.044.6-2,3-3.161.737-3.288-1.112-7-1,1.181,1.666-2.833,6.266-6,7,.187-.656-.656-1.609-1-2-6.479-.232-9.958-1.977-16-2-.557-.624-3.241-.892-2-2a8.986,8.986,0,0,1-4,1c-3.607-2.229,3.75-.323,1-3-.235,1.5-4.346,2.064-7,3,.817,2.314,6.343.934,9,0,.013,3.191-4.685,6.525-11,8-5.018.792-2.129-2.454-3-2-9.427-.557-8.172,5.3-16,3-3.106-2.032-.311-3.534-1-5,4.089-.771,6.229,1.082,9,1l-3-1a6.823,6.823,0,0,1,5,0c-2.6-1.826-15.727-1.315-23-3-1.292.681-3.055,2.182-2,3l2-1c2.115,1.64-4.912,2.234-2,3-3.087,1.152-5.654,2.927-10,2l-1-2c.093.677,2.779,1.706,4,1-1.812,1.027-7.015-3.036-9,0l3,1c-3.1,1.166-7.149,3.731-11,3,1.752,2.29,1.263.321,4,3-2.373-3.333,9.811-.5,6-4,2.808,3.109,5.329,1.35,9,4-.113-.763-1.233-1.376,2-1,.146-.223-.219-.833,0-1,.1.021-.085.976,0,1-.065-.029.066-.971,0-1,.141-.114.219-.108,0,0-.77-.335-.746-.574-1-1,1.605-1.757,6.261-1.091,8-2,1.919.363-1.047.184,0,1l3-1c.257,1.7,5.52,3,1,4h4c2.395.952,4.969,1.715,7,1,1.919.368,4.671-2.33,3-1l7-1h0c6.294.214,12.8-2.065,20,1,2.12-.429,4.455-1.482,8-1l1,2c2.72-.513,7.831,1.531,9,0,2.935,3.954,13.215.3,18,1v-2a50.54,50.54,0,0,0,11-1l-1-2c3.525-1.392,9.425,1.174,15,1-.379.648-2,.391-3,0,6.661,3.83,13.959-2.789,20,0a5.274,5.274,0,0,1,4,0c-.14,0,.108-.053,0,0,.154.021-.235,1,0,1,.665.291,1.258-.273,2,0-.63-.412-.475.157-1,0a23.145,23.145,0,0,0,4-1l1,2c.141-.024-.146.032,0,0,1.694.672,1.9-1.63,1-3a7.018,7.018,0,0,0,2-1c1.375,2.939,5.122-1.136,7,2,1.164-1.529,8.081-.784,9-4,.059.419.932.973,0,1,1.924.366,3.274.907,5,0l1,2,4-3c2.553,1.411,3.534,2.218,1,4,6.12-2.741,5.8-1.285,11-4l-1,1c1.861-.056,4.878-1.239,6,0,4.162,2.844,21.318.356,32,3-2.072-4.406,4.577,1.416,5-2,.623,1.042,1.73,2.094,0,3,5.452-1.024,8.236,1.882,12-1,.624,1.048-.555,1.382,0,2,.437-.224,1.432-1.622,2-1s-1.137,1.546-2,2c5.569-.176,6.6-3.985,7-7,2.823,1.428,3.962,1.978,6,0,.983.986,2.461,1.646-1,2,1.947.144,11.8,1.417,12-1,.61.612,3.487.279,4,0a72.549,72.549,0,0,0,9,0h-2c1.694-2.916,3.542-.65,7-1h0c7.929,2.1,4.177-1.4,12,1l-1-1c.729-3.9,7.46,1.492,12,0l-2-1c2.479-1.334,6.509,5.512,9,6,.543.339-.243.75-1,1,6.519,2.3,1.143-2.449,6-3,.9,1.281-1.27,2.762,2,3,1.629,1.037,9.539-3.458,14-1-.983-.987-2.256-2.257,0-3,3.459-.353,8.877,4.113,12,1,.439.27.982-.245,1,0,2.644-.8,8.407-1.313,10-3,2.443,6.264,17.059-2.777,17,3h7c5.2.382,7.173-.613,9-2,1.2.394,1.1.7,1,1,7.6,1.164,7.632.879,14-2l1,2c1.726-1.09,10.55,3.185,18,1-.073.212.592.735,0,1,8.381-2.2,19.929,4.825,23-2l5-2c-7.156-.53.943-2.866-2-4,2.814-.4,7.458,2.649,4,3v-1c-1.271,3.557,8.192,1.579,8,4,14.08-.174,27.811,1.847,41,2l-1-3h4c1.207.644,2.282,3.115-1,3,1.726,1.567,4.906-1.4,5-2,6.426,1.121-1.971,2.933,0,3h2v-1c2.169-1.13,2.055-2.138,6-2,2.5.553,1.017,1.892,2,2-.006.2.819.209,2,0h6l-3-2c2.57-1.077,5.674.474,3-2,3.926,3.814,21.59.817,24,2,3.6-1.591,7.6-1.192,12-1-1.094-.454-1.795-3.3,2-3-1.388,5.067,6.933,2.357,10,6-2.741-2.417,10.3-.569,6-4,3.167.41.6,1.807,3,3,7.536-1.962,16.685,1.663,26,1,.145-.663-2-2.01,0-3l5,3c1.839-.327,1.639-3.308,5-1-.474-.559-1.234-1.786,0-2,18.249,3.24,37.467-2.089,56,4-2.51-1.289-.917-1.952,1-2-1.246-.307.244-1.1,0-2l8,2c1.414-2.5,8.19.391,9-2h-2c3.267-2.824-5.478-6.376-5-10-3.659,3.21-9-4.594-15,0-1.325-.739.709-1.16,0-2-1.521,1.554-3.594,1.7-7,1h1c-9.567.379-14.252-.981-25-2l1,2c-2.309-.241-2.919-1.552-4-2-2.651,2.717,6.415,0,4,3-3.064-3.645-15.93.141-18-4-3.553-.023,1.552,2.024-2,2l-1-1-1,2c-2.33-.239-3.913-2.051-4-3a6.861,6.861,0,0,0,2,0c-3.021-1.32-7.963.432-9,0h3c-9.7,1.049-21.632-.279-31,2l1,1c-7.154,1.564-6.146-.724-14,0h1a12.258,12.258,0,0,1-6,1c1.983-.99-3.6-1.905-1-3-7.757,1.679-3.876.859-9,4l-1-1c-1.746,1.267-2.077,1.635-6,2,3.217-1.2-2.6-2.409,1-4-8.231-3.066-12.224,3.485-16-1-3.78,3.881,7.117,2.169,5,3,1.773,1.267-3.417,3.389-6,3-2.63-.086-4.385-5.074-11-5,.658.018.343-1.017,1-1-2.475-.989-3.964,1.608-7,0-1.7,2.347-4.509.008-5,3l6-1c-3.44.783-6.333,4.7-12,3a8.165,8.165,0,0,1,3-2c-1.657-.883-3.283.907-5,0,.489-3,7.314-.715,11-3-1.779-1.264-6.852,2.244-5-1-2.662,4.125-6.52-1.15-11,2l1-1a12.255,12.255,0,0,1-4,1l2-3c-3.626,1.985-6.522-1.081-10,0,7.283-.056,1.921,1.69,5,3-8.983,2.4-5.943-4.862-16-4,1.362-.253,5.129,1.17,3,2a12.092,12.092,0,0,1-5-2c-6.664.373.836,1.9-2,3-2.268-2.187-3.079,1.3-6,2v-2c-7.593-1.171-2.164,3.414-9,2l3-2h-4l1-2c-3.877,1.538-5.2,1.581-9,1,.883,1.286-.637,2.942-4,3-2.294-1.084,1.767-1.26-3-1,1.076-1.142,1.926-2.681,4-1,.213-.6.781-1.412,1-2-2.471-1.246-6.274-.017-8,0,.664.068,1.593-.26,2,0l-7,3c-1.088-.684.145-1.462,1-2-1.4.2-1.942.843-4,1,.533-1.482.087-2.3,3-3l-7,1c-.44-.645-2.855-1.455-2-2-3.651-.872-9.161,3.149-14,2-.252.288-.971-.214-2,0-4.548-.336-8.609-2.032-14,0l-3-2c-4.222.6,4.03,3-3,4-4.977.848-1.254-2.26-3-3-2.475,1.34-7.428,4.164-12,2,1.514-.5,2.586.2,4,0m-52,1c1.009-.383,3.262-2.077,4-1-1.149,2.09-2.28,1.6-4,1m-79,4c.75-.6,1.69.31,3,1-.951.15-1.807-.532-3-1m-220,13c.043-.029-.035.038,0,0,2.25.71,1.56.342,0,0m-5-1c-.469.254-.2.746,0,1a1.943,1.943,0,0,1,2-1c-.332-.479-.6-.409-2,0m502-1h-1c2.054-.527,1.569-.527,1,0" transform="translate(658.897 14.547)" fill="#28292c"/>
        </g>
        <g id="Group_63-2" data-name="Group 63" transform="translate(395.196 8.21)">
          <path id="Path_63-2" data-name="Path 63" d="M-1.624-.276c.286.307.933.656,1,1,.4-.307-.163-.67-1-1" transform="translate(1.427 0.655)" fill="#28292c"/>
        </g>
        <g id="Group_64-2" data-name="Group 64" transform="translate(549.836 3.869)">
          <path id="Path_64-2" data-name="Path 64" d="M-.491.707c.053.015-.053-.011,0,0,.087-.109-.026-.891,0-1Z" transform="translate(0.655 0.013)" fill="#28292c"/>
        </g>
        <g id="Group_65-2" data-name="Group 65" transform="translate(233.436 7.148)">
          <path id="Path_65-2" data-name="Path 65" d="M-4.27-.182a4.762,4.762,0,0,1,2,1c.052-.447-.529-.882-2-1" transform="translate(3.834 0.622)" fill="#28292c"/>
        </g>
        <g id="Group_66-2" data-name="Group 66" transform="translate(136.271 24.642)">
          <path id="Path_66-2" data-name="Path 66" d="M-6.444.947h3c-1.448.089-1.269-.711-2-1,.065.426-.064.97-1,1" transform="translate(6.173 0)" fill="#28292c"/>
        </g>
        <g id="Group_67-2" data-name="Group 67" transform="translate(108.927 14.426)">
          <path id="Path_67-2" data-name="Path 67" d="M-.888-.563c-.437.224-.569-.227-1,0v1c1.863-.056,2.927-.64,1-1" transform="translate(1.96 0.726)" fill="#28292c"/>
        </g>
        <g id="Group_68-2" data-name="Group 68" transform="translate(129.288 18.605)">
          <path id="Path_68-2" data-name="Path 68" d="M4.712.519c-.238-1.534-2.9-1.283-5-1,.126,0,.875-.018,1,0-.618,2.147,1.775,1.707,4,1" transform="translate(0 0.466)" fill="#28292c"/>
        </g>
        <g id="Group_69-2" data-name="Group 69" transform="translate(126.826 18.976)">
          <path id="Path_69-2" data-name="Path 69" d="M2.174-.692a9.2,9.2,0,0,1-2,0c-.245.862.848.218,2,0" transform="translate(0 0.305)" fill="#28292c"/>
        </g>
        <g id="Group_70-2" data-name="Group 70" transform="translate(153.813 23.471)">
          <path id="Path_70-2" data-name="Path 70" d="M-2.854-1.1c-.994-.4-.437,1.625-1,1-1.11,1.953,6.444-2.027,1-1" transform="translate(4.042 1.222)" fill="#28292c"/>
        </g>
      </g>
      <g id="Group_72-2" data-name="Group 72" transform="translate(323.403 14.815)">
        <path id="Path_72-2" data-name="Path 72" d="M-4.376-1.477l2,2,3-1Z" transform="translate(3.973 1.251)" fill="#28292c"/>
      </g>
      <g id="Group_75-2" data-name="Group 75" transform="translate(0 0)" clip-path="url(#clip-path-11)">
        <g id="Group_73-2" data-name="Group 73" transform="translate(144.112 15.464)">
          <path id="Path_73-2" data-name="Path 73" d="M3.884-.076h-3c.051.316-.477.859-1,1,2.065.064,4.079-.438,4-1" transform="translate(0.004 0.201)" fill="#28292c"/>
        </g>
        <g id="Group_74-2" data-name="Group 74" transform="translate(141.414 16.099)">
          <path id="Path_74-2" data-name="Path 74" d="M2.586.283c-1.075-.036-2.4-.309-3,0a14.121,14.121,0,0,0,3,0" transform="translate(0 0.207)" fill="#28292c"/>
        </g>
      </g>
      <g id="Group_76-2" data-name="Group 76" transform="translate(334.643 14.085)">
        <path id="Path_76-2" data-name="Path 76" d="M-6.563-.849l2,1h6Z" transform="translate(6.92 0.353)" fill="#28292c"/>
      </g>
      <g id="Group_80-2" data-name="Group 80" transform="translate(0 0)" clip-path="url(#clip-path-11)">
        <g id="Group_77-2" data-name="Group 77" transform="translate(184.249 14.943)">
          <path id="Path_77-2" data-name="Path 77" d="M-7.952,1.646l4-1c.372-.65-.639-1.259-2-1-.875.453-2.561,1.372-2,2" transform="translate(7.702 0)" fill="#28292c"/>
        </g>
        <g id="Group_78-2" data-name="Group 78" transform="translate(173.321 10.257)">
          <path id="Path_78-2" data-name="Path 78" d="M-3.876.381c.989.394,1.443.376,2,1v-2Z" transform="translate(3.555 0.951)" fill="#28292c"/>
        </g>
        <g id="Group_79-2" data-name="Group 79" transform="translate(182.578 8.882)">
          <path id="Path_79-2" data-name="Path 79" d="M-4.029,1.707c.364-.651,5.635-2.147,1-2-.371.647-4.362,1.464-1,2" transform="translate(5.451 0)" fill="#28292c"/>
        </g>
      </g>
      <g id="Group_81-2" data-name="Group 81" transform="translate(237.776 14.034)">
        <path id="Path_81-2" data-name="Path 81" d="M2.224-3.008h-2v3Z" transform="translate(0 2.563)" fill="#28292c"/>
      </g>
      <g id="Group_84-2" data-name="Group 84" transform="translate(0 0)" clip-path="url(#clip-path-11)">
        <g id="Group_82-2" data-name="Group 82" transform="translate(282.552 4.21)">
          <path id="Path_82-2" data-name="Path 82" d="M4.542-1.569c-4.333-.922-1.084,2.151-5,1-1.018.91,3.043,1.214,2,2,2.616-.96,4.2-.467,3-3" transform="translate(0.906 1.948)" fill="#28292c"/>
        </g>
        <g id="Group_83-2" data-name="Group 83" transform="translate(283.535 7.326)">
          <path id="Path_83-2" data-name="Path 83" d="M1.465-.124c-.42.151-.528-.25-1,0,.758-.241.779.161,1,0" transform="translate(0 0.387)" fill="#28292c"/>
        </g>
      </g>
      <g id="Group_85-2" data-name="Group 85" transform="translate(821.92 24.605)">
        <path id="Path_85-2" data-name="Path 85" d="M-1.629-.87h-2l7,1Z" transform="translate(3.709 0.854)" fill="#28292c"/>
      </g>
      <g id="Group_88-2" data-name="Group 88" transform="translate(0 0)" clip-path="url(#clip-path-11)">
        <g id="Group_86-2" data-name="Group 86" transform="translate(838.435 20.993)">
          <path id="Path_86-2" data-name="Path 86" d="M-5.24-2.025l1,3,2-2a5.049,5.049,0,0,1-3-1" transform="translate(4.805 1.621)" fill="#28292c"/>
        </g>
        <g id="Group_87-2" data-name="Group 87" transform="translate(457.425 1.37)">
          <path id="Path_87-2" data-name="Path 87" d="M-3.916-.691h-1c.432.639,1.693.9,3,1Z" transform="translate(4.491 0.91)" fill="#28292c"/>
        </g>
      </g>
      <g id="Group_89-2" data-name="Group 89" transform="translate(493.74 2.481)">
        <path id="Path_89-2" data-name="Path 89" d="M.095-1.325h-1l3,2Z" transform="translate(1.165 1.433)" fill="#28292c"/>
      </g>
      <g id="Group_91-2" data-name="Group 91" transform="translate(0 0)" clip-path="url(#clip-path-11)">
        <g id="Group_90-2" data-name="Group 90" transform="translate(523.035 0.365)">
          <path id="Path_90-2" data-name="Path 90" d="M3.869-.583c-1.294-.092-2.7.094-4,0,2.822-.4,4.35,2.768,4,0" transform="translate(0.096 0.806)" fill="#28292c"/>
        </g>
      </g>
    </g>
    <g id="Group_504" data-name="Group 504" transform="translate(456.382 0)">
      <g id="Group_2-3" data-name="Group 2" transform="translate(0 0)" clip-path="url(#clip-path-21)">
        <g id="Group_1-3" data-name="Group 1" transform="translate(0 23.733)">
          <path id="Path_1-3" data-name="Path 1" d="M.827-1.286c-1.241-.139-.813,1.717-1,2,2.077-.35.948-2.412,1-2" transform="translate(0.555 1.142)" fill="#28292c"/>
        </g>
      </g>
      <g id="Group_3-3" data-name="Group 3" transform="translate(51.8 19.496)">
        <path id="Path_3-3" data-name="Path 3" d="M-4.9.666h-1l8-1Z" transform="translate(5.48 0.427)" fill="#28292c"/>
      </g>
      <g id="Group_14-3" data-name="Group 14" transform="translate(0 0)" clip-path="url(#clip-path-21)">
        <g id="Group_4-3" data-name="Group 4" transform="translate(28.175 19.088)">
          <path id="Path_4-3" data-name="Path 4" d="M12.207.819c-1.812-2.7-6.586-.04-10-1l-1-1-1,3c4.149-.344,9.078-1.753,12-1" transform="translate(0 0.682)" fill="#28292c"/>
        </g>
        <g id="Group_5-3" data-name="Group 5" transform="translate(48.469 25.288)">
          <path id="Path_5-3" data-name="Path 5" d="M1.3.3C.666-.75,3.89-.276-.7.3-.472.414.162.214.3.3a3.057,3.057,0,0,1,1,0" transform="translate(0.616 0)" fill="#28292c"/>
        </g>
        <g id="Group_6-3" data-name="Group 6" transform="translate(48.235 26.002)">
          <path id="Path_6-3" data-name="Path 6" d="M.491-.684c-2.018.076,1.32.883,0,0" transform="translate(0.657 0.271)" fill="#28292c"/>
        </g>
        <g id="Group_7-3" data-name="Group 7" transform="translate(55.562 25.4)">
          <path id="Path_7-3" data-name="Path 7" d="M.148-1.23l-3,1c.555.621,2.879.55,2,1,2.727-.513,2.55-.981,1-2" transform="translate(2.672 1.419)" fill="#28292c"/>
        </g>
        <g id="Group_8-3" data-name="Group 8" transform="translate(59.363 23.431)">
          <path id="Path_8-3" data-name="Path 8" d="M1.02-.228h-1c.241.26.228.748,1,0" transform="translate(0 0.387)" fill="#28292c"/>
        </g>
        <g id="Group_9-3" data-name="Group 9" transform="translate(56.441 23.196)">
          <path id="Path_9-3" data-name="Path 9" d="M-6.082,1.393l3-1c-.385-.436-.085-.613-1,1,.239-.8-.758-.566-2,0" transform="translate(6.023 0)" fill="#28292c"/>
        </g>
        <g id="Group_10-3" data-name="Group 10" transform="translate(50.578 22.363)">
          <path id="Path_10-3" data-name="Path 10" d="M3.8,2.193c-1.491-.588-2.668-1.066,0-2-5.085.371-5.085,2.379,0,2" transform="translate(0 0.033)" fill="#28292c"/>
        </g>
        <g id="Group_11-3" data-name="Group 11" transform="translate(37.896 16.645)">
          <path id="Path_11-3" data-name="Path 11" d="M3.479.736l-2-1-1,1c.861-.45,3.124.846,3,0" transform="translate(0.008 0.208)" fill="#28292c"/>
        </g>
        <g id="Group_12-3" data-name="Group 12" transform="translate(71.723 24.533)">
          <path id="Path_12-3" data-name="Path 12" d="M2.623,2.056c.166-.574-.8-1.266-1-2l-2,1c1.009.394,2.866.149,3,1" transform="translate(0.036 0)" fill="#28292c"/>
        </g>
        <g id="Group_13-3" data-name="Group 13" transform="translate(73.656 23.529)">
          <path id="Path_13-3" data-name="Path 13" d="M-6.331,1.06l3-1c-2.624-.117-3.166.367-3,1" transform="translate(6.057 0)" fill="#28292c"/>
        </g>
      </g>
      <g id="Group_15-3" data-name="Group 15" transform="translate(138.361 20.745)">
        <path id="Path_15-3" data-name="Path 15" d="M10.1-1.525l-12,2,14-2Z" transform="translate(1.918 1.368)" fill="#28292c"/>
      </g>
      <g id="Group_16-3" data-name="Group 16" transform="translate(206.926 26.831)">
        <path id="Path_16-3" data-name="Path 16" d="M1.773-.12l-4,1,7-2Z" transform="translate(2.683 0.878)" fill="#28292c"/>
      </g>
      <g id="Group_24-3" data-name="Group 24" transform="translate(0 0)" clip-path="url(#clip-path-21)">
        <g id="Group_17-3" data-name="Group 17" transform="translate(93.129 26.637)">
          <path id="Path_17-3" data-name="Path 17" d="M-11.475-1.726c-1.232,1.1,1.3,2.322,0,3a17.514,17.514,0,0,0,6-2c-1.651.474-3.723-.1-6-1" transform="translate(11.729 1.678)" fill="#28292c"/>
        </g>
        <g id="Group_18-3" data-name="Group 18" transform="translate(99.127 25.947)">
          <path id="Path_18-3" data-name="Path 18" d="M2.255-1.176c-.825.263-1.07,1.5-2,2,.877-.254,1.13-1.381,2-2" transform="translate(0 0.818)" fill="#28292c"/>
        </g>
        <g id="Group_19-3" data-name="Group 19" transform="translate(81.627 23.831)">
          <path id="Path_19-3" data-name="Path 19" d="M-5.012-1.325a5.532,5.532,0,0,0,3,2l-2-2c-.353-.009-.6.008-1,0" transform="translate(4.767 1.083)" fill="#28292c"/>
        </g>
        <g id="Group_20-3" data-name="Group 20" transform="translate(82.744 23.803)">
          <path id="Path_20-3" data-name="Path 20" d="M-5.591-.308h0c1.254.035,2.628-.018,3,0-.32-.015-1.547.086-3,0" transform="translate(5.23 0.094)" fill="#28292c"/>
        </g>
        <g id="Group_21-3" data-name="Group 21" transform="translate(81.336 23.69)">
          <path id="Path_21-3" data-name="Path 21" d="M-.555-.106c.107,0-.106,0,0,0-.112-.159.113-.2,0,0" transform="translate(0.601 0.005)" fill="#28292c"/>
        </g>
        <g id="Group_22-3" data-name="Group 22" transform="translate(68.915 18.647)">
          <path id="Path_22-3" data-name="Path 22" d="M-6.35,2.942c1.726-.9,4.482-1.622,1-3-1.239,1.105,1.6,1.642-1,3" transform="translate(6.818 0)" fill="#28292c"/>
        </g>
        <g id="Group_23-3" data-name="Group 23" transform="translate(76.551 21.434)">
          <path id="Path_23-3" data-name="Path 23" d="M3.832-.59h-4c.062.427.855.552,0,1Z" transform="translate(0 0.745)" fill="#28292c"/>
        </g>
      </g>
      <g id="Group_25-3" data-name="Group 25" transform="translate(196.055 21.395)">
        <path id="Path_25-3" data-name="Path 25" d="M3.327-.234h0Z" transform="translate(0 0.428)" fill="#28292c"/>
      </g>
      <g id="Group_39-3" data-name="Group 39" transform="translate(0 0)" clip-path="url(#clip-path-21)">
        <g id="Group_26-3" data-name="Group 26" transform="translate(95.134 23.073)">
          <path id="Path_26-3" data-name="Path 26" d="M-8,1.514a8.833,8.833,0,0,1,4-1c-1.785-.318-3.247-1-5-1-.247.509-.913,2.058,1,2" transform="translate(9.253 0.002)" fill="#28292c"/>
        </g>
        <g id="Group_27-3" data-name="Group 27" transform="translate(89.755 23.786)">
          <path id="Path_27-3" data-name="Path 27" d="M-.991-.2c.093-.036.912.036,1,0-.184-.136-1.032-.273-1,0" transform="translate(0.618 0)" fill="#28292c"/>
        </g>
        <g id="Group_28-3" data-name="Group 28" transform="translate(116.952 23.277)">
          <path id="Path_28-3" data-name="Path 28" d="M.431.312c-.092-.089.093.094,0,0-.021.094.026-.094,0,0Z" transform="translate(0 0)" fill="#28292c"/>
        </g>
        <g id="Group_29-3" data-name="Group 29" transform="translate(92.29 22.662)">
          <path id="Path_29-3" data-name="Path 29" d="M2.334-.457c-1.342-.312-2.236.5-3,1,1-.162,1.859-.988,3-1,.111-.229.432-.079,0,0" transform="translate(0.758 0.384)" fill="#28292c"/>
        </g>
        <g id="Group_30-3" data-name="Group 30" transform="translate(103.988 24.303)">
          <path id="Path_30-3" data-name="Path 30" d="M2.394,1.208a13.382,13.382,0,0,0-2-1c.683.512,1.753,1.421,2,1" transform="translate(0 0.078)" fill="#28292c"/>
        </g>
        <g id="Group_31-3" data-name="Group 31" transform="translate(90.311 24.341)">
          <path id="Path_31-3" data-name="Path 31" d="M-.21.071c-.067.026.073-.017,0,0,.439.348.184.25,0,0" transform="translate(0.282 0.177)" fill="#28292c"/>
        </g>
        <g id="Group_32-3" data-name="Group 32" transform="translate(90.06 23.355)">
          <path id="Path_32-3" data-name="Path 32" d="M-3.344,1.234a9.649,9.649,0,0,0,2-1c-.817.127-1.344-.238-2,0,.166.115-.12.841,0,1" transform="translate(3.667 0)" fill="#28292c"/>
        </g>
        <g id="Group_33-3" data-name="Group 33" transform="translate(113.925 13.199)">
          <path id="Path_33-3" data-name="Path 33" d="M1.4-6.266c-.237,1.5-3.956,2.607-7,1-3,1.124-.616,6.246,2,9,.093-.654-.083-1.116,3-2-1.079-.818-6.6-2.646-4-4,4.085-.772,3.014,1.207,5,2-1.688-1.867,4.89-3.256,4-6l-3,1c-.067-.427.995-.611,0-1" transform="translate(7.061 6.656)" fill="#28292c"/>
        </g>
        <g id="Group_34-3" data-name="Group 34" transform="translate(109.869 23.124)">
          <path id="Path_34-3" data-name="Path 34" d="M-10.474-1h-2a14.275,14.275,0,0,1,5,2c2.111-.73,2.854-1.5,3-2h-6Z" transform="translate(11.987 1.464)" fill="#28292c"/>
        </g>
        <g id="Group_35-3" data-name="Group 35" transform="translate(100.88 19.23)">
          <path id="Path_35-3" data-name="Path 35" d="M-8.244,3.707c.991-1.629,3.866-2.237,2-4-3.723.112-2.776,1.293-5,2,6.008-.4-1.341,1.076,3,2-1.181.277-3-.068-4,0,1.082.2,3.017.7,4,1-.055-.036-.955.038-1,0h0c-.259-.2-.292-1.118,0-1,.02-.02.968.006,1,0,.041-.227-.119.191,0,0,1.74.336.546-.192,0,0-.019.079-.994.915-1,1,.006.009-.008,0,0,0l6-1a19.15,19.15,0,0,0-5,0" transform="translate(11.746 0.652)" fill="#28292c"/>
        </g>
        <g id="Group_36-3" data-name="Group 36" transform="translate(73.967 15.143)">
          <path id="Path_36-3" data-name="Path 36" d="M-.648.2c.187.144-.014-.118,0,0,.389-.2.729.042,0,0" transform="translate(1.063 0.25)" fill="#28292c"/>
        </g>
        <g id="Group_37-3" data-name="Group 37" transform="translate(72.537 15.521)">
          <path id="Path_37-3" data-name="Path 37" d="M-2.3-1.54c-.438.227-.578.17-2,0-1.234-.489.065-.464,0-1-.857.432-3.689,1.208-1,2h1c2.423.559,5.423,1.777,5,2C-.01-.006-.691-.1-2.3-1.54" transform="translate(6.148 2.608)" fill="#28292c"/>
        </g>
        <g id="Group_38-3" data-name="Group 38" transform="translate(90.481 17.095)">
          <path id="Path_38-3" data-name="Path 38" d="M-10.433,2.494l5-1-2-1h0c-2.85-.332-2.645,1.349-3,2" transform="translate(10.334)" fill="#28292c"/>
        </g>
      </g>
      <g id="Group_40-3" data-name="Group 40" transform="translate(287.537 24.851)">
        <path id="Path_40-3" data-name="Path 40" d="M-2.753-.4l-2,1,7-2Z" transform="translate(4.599 1.136)" fill="#28292c"/>
      </g>
      <g id="Group_41-3" data-name="Group 41" transform="translate(304.559 25.247)">
        <path id="Path_41-3" data-name="Path 41" d="M3.823-.254h-3l-1,1Z" transform="translate(0 0.596)" fill="#28292c"/>
      </g>
      <g id="Group_71-3" data-name="Group 71" transform="translate(0 0)" clip-path="url(#clip-path-21)">
        <g id="Group_42-3" data-name="Group 42" transform="translate(491.921 5.185)">
          <path id="Path_42-3" data-name="Path 42" d="M-2.574.4h1c-.7.13-.672-.151-1,0" transform="translate(3.036 0)" fill="#28292c"/>
        </g>
        <g id="Group_43-3" data-name="Group 43" transform="translate(480.997 5.507)">
          <path id="Path_43-3" data-name="Path 43" d="M-.107-.405v1c.494-.407.435-.968,0-1" transform="translate(0.492 0.487)" fill="#28292c"/>
        </g>
        <g id="Group_44-3" data-name="Group 44" transform="translate(284.331 24.006)">
          <path id="Path_44-3" data-name="Path 44" d="M-8.818-2.065c2.145,1.4,4.259,3.684,4,2v-1c-1.5.294-3.024-.647-4-1" transform="translate(8.87 1.647)" fill="#28292c"/>
        </g>
        <g id="Group_45-3" data-name="Group 45" transform="translate(391.811 13.714)">
          <path id="Path_45-3" data-name="Path 45" d="M2.572.168c-.2-.159-.789-.832-1-1-.521.56-1.563,1.512-2,2,.624-.336,2.256-.623,3-1" transform="translate(0 0.707)" fill="#28292c"/>
        </g>
        <g id="Group_46-3" data-name="Group 46" transform="translate(395.401 7.424)">
          <path id="Path_46-3" data-name="Path 46" d="M-5.849-.534l3,1a13.869,13.869,0,0,0-3-1" transform="translate(5.831 0.699)" fill="#28292c"/>
        </g>
        <g id="Group_47-3" data-name="Group 47" transform="translate(550.073 2.199)">
          <path id="Path_47-3" data-name="Path 47" d="M-3.233,1.39l1-1c-2.688.009-.787.181-1,1" transform="translate(3.543 0)" fill="#28292c"/>
        </g>
        <g id="Group_48-3" data-name="Group 48" transform="translate(191.073 23.005)">
          <path id="Path_48-3" data-name="Path 48" d="M-9.214-.069a13.692,13.692,0,0,0,4,1c-2.231-.94-3.411-2.364-4-1" transform="translate(9.523 0.653)" fill="#28292c"/>
        </g>
        <g id="Group_49-3" data-name="Group 49" transform="translate(487.686 22.02)">
          <path id="Path_49-3" data-name="Path 49" d="M-2.9.568c.9-.3,2.027-.635,2-1-.928.28-2.193.6-2,1" transform="translate(2.6 0)" fill="#28292c"/>
        </g>
        <g id="Group_50-3" data-name="Group 50" transform="translate(195.692 24.168)">
          <path id="Path_50-3" data-name="Path 50" d="M5.691-.043c-.326-.164-.668.139-1,0a21.953,21.953,0,0,1-5,0c1.648.7,4.187,1.139,6,0" transform="translate(0 0.464)" fill="#28292c"/>
        </g>
        <g id="Group_51-3" data-name="Group 51" transform="translate(761.348 5.212)">
          <path id="Path_51-3" data-name="Path 51" d="M-.964.248c.153.074-.139-.086,0,0,.047-.221.312-.036,0,0" transform="translate(0.998 0.129)" fill="#28292c"/>
        </g>
        <g id="Group_52-3" data-name="Group 52" transform="translate(820.349 21.781)">
          <path id="Path_52-3" data-name="Path 52" d="M2.033-.321a16.7,16.7,0,0,1-2,0,3.6,3.6,0,0,0,2,0" transform="translate(0 0.129)" fill="#28292c"/>
        </g>
        <g id="Group_53-3" data-name="Group 53" transform="translate(149.904 24.891)">
          <path id="Path_53-3" data-name="Path 53" d="M.478-.375c-1.382.108-.219.182,0,0" transform="translate(0 0.073)" fill="#28292c"/>
        </g>
        <g id="Group_54-3" data-name="Group 54" transform="translate(143.852 17.605)">
          <path id="Path_54-3" data-name="Path 54" d="M-1.607.984c.293-.185.965-.621,1-1-.113.4-.754.849-1,1" transform="translate(1.138 0)" fill="#28292c"/>
        </g>
        <g id="Group_55-3" data-name="Group 55" transform="translate(214.621 14.132)">
          <path id="Path_55-3" data-name="Path 55" d="M-.486.453h1C.1.132-.707.2-.486.453" transform="translate(0.247 0.004)" fill="#28292c"/>
        </g>
        <g id="Group_56-3" data-name="Group 56" transform="translate(148.491 24.145)">
          <path id="Path_56-3" data-name="Path 56" d="M-3.752.122c.518.2,1.35-.118,2,0-.286-.127-1.056.2-2,0" transform="translate(3.643 0.322)" fill="#28292c"/>
        </g>
        <g id="Group_57-3" data-name="Group 57" transform="translate(147.504 24.761)">
          <path id="Path_57-3" data-name="Path 57" d="M.878-.27c-.476-.074-.643.044-1,0C-.3,0-.349.016.878-.27" transform="translate(0 0.098)" fill="#28292c"/>
        </g>
        <g id="Group_58-3" data-name="Group 58" transform="translate(150.258 24.633)">
          <path id="Path_58-3" data-name="Path 58" d="M2.124-.1a9.287,9.287,0,0,1-2,0C.4.009.2-.156.124-.1c.4-.026,1.052.03,2,0" transform="translate(0 0.058)" fill="#28292c"/>
        </g>
        <g id="Group_59-3" data-name="Group 59" transform="translate(648.189 9.285)">
          <path id="Path_59-3" data-name="Path 59" d="M-2.085.2c.091.051-.1-.071,0,0,1.393-.681,1.078-.416,0,0" transform="translate(2.278 0.103)" fill="#28292c"/>
        </g>
        <g id="Group_60-3" data-name="Group 60" transform="translate(320.127 6.971)">
          <path id="Path_60-3" data-name="Path 60" d="M.16-.472c-.065.017.059-.02,0,0C.224-.456.1.51.16.528Z" transform="translate(0.095 0.09)" fill="#28292c"/>
        </g>
        <g id="Group_61-3" data-name="Group 61" transform="translate(320.331 5.749)">
          <path id="Path_61-3" data-name="Path 61" d="M5.051-4.181c-2.113,2.041-3.4,2.433-5,2l2,4Z" transform="translate(0 4.021)" fill="#28292c"/>
        </g>
        <g id="Group_62-3" data-name="Group 62" transform="translate(127.434 0)">
          <path id="Path_62-3" data-name="Path 62" d="M-268.949-8.958l-3-2c4.206-2.426,7.271-1.927,4-4-.493,5.136-13.515.87-14,6l-3-1c.658.05,1.35-.051,2,0-4.467-2.461-3.244,3.731-9,3-2.006-.394-3.368-1.391-2-2l-5,1c-1.3-.1-1.294-1.1,0-1l-6,1h0c-.973.806-3.924,1.47-5,2-1.732-.736,1.443-.359,1-1l-4,1c-1.537-1.331,1.393-2.189,4-2-3.525-5.127-3.392,1-11-2h4c-2.3-2.913-4.971-2.183-9-4,.956.949,8.1,4.72,4,6a5.994,5.994,0,0,0-5,0c-.021-1.826-2.3-1.1-5-1v-3c-2.919.7-2.282,1.91-4,3-3.253-.239-4.234-1.421-5-3-5.21-.383,4.167,2.544-2,3-4.334-.925-7.816.552-13,2-3.033-.833,1.088-1.308,0-2l-3,2c-.658-.047-.108-.7,0-1-2.265.748-.438,2.343-4,3-.96,2.665-7.592-4.025-12-1-1.086-.686.332-2.063,0-3-6.048,1.985-5.034,1.327-10,4l-4-1c3.108,1.817-.522,4.234-4,6,1.1.877,1.368,1.635,2,2l-5,1c-.67-.4-.909-.99,0-2-.378.2-.721-.183-1,0-1.985-.893-.423-1.648,1-3,.676.477,1.348.494,2,1,1.371-1.47,2.286-2.584,2-4-.361.279-1.236-.135-2,0,.359-.4,1.165-.758,1-1-.189-.254-1.092.382-2,1l-1-3v2l-8-2c-5.2,2.715-9.752,6.887-18,8,2.046-1.978.889-3.656,1-6,2.25,2.48,6.726-.5,11,0-2.23-.26-2.567-1.609-2-2l-7,2c.172-1.916-2.009-1.207-4-2,1.505,3.787-5.9,1.839-9,3-.193-1.272,1.215-2.306,5-2-4.176-2.85-5.9,4.421-10,2,.924-.032,1.635.647,2,0-2.158,1.131-7.241.107-6-1h1c-6.135-.45-19.085-.216-20,3a15.651,15.651,0,0,1,1-4l-11,10c.964-2.762-2.087-9.44,3-11-1.46-.392-3.921.025-7,1,1,.394,3.362,3.747,2,4-3.737-3.075-3.393-1.377-8-4,1.494.594.36,4.138-2,4,.368-.648-.863-3.549,0-4l-5,4c1.466-.766.314-3.8-1-5,.61.833-5.434-.422-7,0l2,1c-6.634-.642-6.419,6.223-13,6,.8-.878,2.347-5.465-1-6-1.534,2.177-7.178,10.325-13,12l-1-1-4,2a92.719,92.719,0,0,1,15-13c-2.482-.986-1.282-2.114-5-2-1.313-1.167,1.906-1.932,3-2h-8c.385,2.544-7.331,1.883-7,4l10-2c.381,2.538-5.868,7.448-12,7-1.56-1.012,1.128-5.154,1-6-.8.875-5.436,1.619-6,1l2-1c-3.414-.955-4.9,3.426-9,1-1.416-.162-4.755-3.5-5-2,2.309,2.9,2.539,11.821,1,14-.5-.2-7.383-2.568-9-4-2.332-2.274,3.985-5.047,2-7-.085.694-1.464.724-2,1-1.487-.594.231-2.313-3-2-.539,2.579-6.044.6-1,3-3.161.737-3.288-1.112-7-1,1.181,1.666-3.833,6.266-7,7,.187-.656-.656-1.609-1-2-6.479-.232-9.958-1.977-16-2-.557-.624-3.241-.892-2-2a4.8,4.8,0,0,1-3,1c-3.607-2.229,3.75-.323,1-3-.235,1.5-4.346,2.064-7,3,.817,2.314,5.343.934,8,0,.013,3.191-4.685,6.525-11,8-5.018.792-2.129-2.454-3-2-9.427-.557-7.172,5.3-15,3-3.106-2.032-.311-3.534-1-5,4.089-.771,6.229,1.082,9,1l-4-1c1.3-.675,4.513-.589,6,0-2.6-1.826-15.727-1.315-23-3-1.292.681-4.055,2.182-3,3l3-1c2.115,1.64-4.912,2.234-2,3-3.087,1.152-6.654,2.927-11,2l-1-2c.093.677,2.779,1.706,4,1-1.812,1.027-6.015-3.036-8,0l3,1c-3.1,1.166-7.149,3.731-11,3,1.752,2.29,1.263.321,4,3-2.373-3.333,9.811-.5,6-4,2.808,3.109,4.329,1.35,8,4-.113-.763-1.233-1.376,2-1a7.334,7.334,0,0,1,1-1c.1.021-.085.976,0,1-.065-.029.066-.971,0-1,.141-.114.219-.108,0,0-.77-.335-1.746-.574-2-1,1.605-1.757,7.261-1.091,9-2,1.919.363-1.047.184,0,1l3-1c.257,1.7,4.52,3,0,4h4c2.395.952,5.969,1.715,8,1,1.919.368,4.671-2.33,3-1l6-1h1c6.294.214,12.8-2.065,20,1,2.12-.429,4.455-1.482,8-1v2c2.72-.513,8.831,1.531,10,0,2.935,3.954,13.215.3,18,1v-2a42.245,42.245,0,0,0,10-1v-2c3.525-1.392,9.425,1.174,15,1-.379.648-2,.391-3,0,6.661,3.83,13.959-2.789,20,0a5.274,5.274,0,0,1,4,0,6.676,6.676,0,0,0-1,0c.154.021.765,1,1,1,.665.291,1.258-.273,2,0-.63-.412-1.475.157-2,0a31.608,31.608,0,0,0,5-1l1,2c.141-.024-.146.032,0,0,1.694.672.9-1.63,0-3a15.653,15.653,0,0,0,3-1c1.375,2.939,4.122-1.136,6,2,1.164-1.529,9.081-.784,10-4,.059.419-.068.973-1,1,1.924.366,4.274.907,6,0l1,2,4-3c2.553,1.411,3.534,2.218,1,4,6.12-2.741,4.8-1.285,10-4v1c1.861-.056,4.878-1.239,6,0,4.162,2.844,20.318.356,31,3-2.072-4.406,5.577,1.416,6-2,.623,1.042,1.73,2.094,0,3,5.452-1.024,8.236,1.882,12-1,.624,1.048-1.555,1.382-1,2,.437-.224,2.432-1.622,3-1s-1.137,1.546-2,2c5.569-.176,5.6-3.985,6-7,2.823,1.428,4.962,1.978,7,0,.983.986,2.461,1.646-1,2,1.947.144,11.8,1.417,12-1,.61.612,2.487.279,3,0a72.549,72.549,0,0,0,9,0h-1c1.694-2.916,3.542-.65,7-1h0c7.929,2.1,3.177-1.4,11,1v-1c.729-3.9,6.46,1.492,11,0l-1-1c2.479-1.334,6.509,5.512,9,6,.543.339-1.243.75-2,1,6.519,2.3,1.143-2.449,6-3,.9,1.281-1.27,2.762,2,3,1.629,1.037,9.539-3.458,14-1-.983-.987-1.256-2.257,1-3,3.459-.353,8.877,4.113,12,1,.439.27.982-.245,1,0,2.644-.8,8.407-1.313,10-3,2.443,6.264,16.059-2.777,16,3h8c5.2.382,7.173-.613,9-2,1.2.394.1.7,0,1,7.6,1.164,8.632.879,15-2l1,2c1.726-1.09,10.55,3.185,18,1a2,2,0,0,1-1,1c8.381-2.2,19.929,4.825,23-2l6-2c-7.156-.53.943-2.866-2-4,2.814-.4,7.458,2.649,4,3l-1-1c-1.271,3.557,9.192,1.579,9,4,14.08-.174,27.811,1.847,41,2l-2-3h5c1.207.644,1.282,3.115-2,3,1.726,1.567,5.906-1.4,6-2,6.426,1.121-2.971,2.933-1,3h3l-1-1c2.169-1.13,3.055-2.138,7-2,2.5.553,1.017,1.892,2,2-.006.2.819.209,2,0h5l-2-2c2.57-1.077,5.674.474,3-2,3.926,3.814,21.59.817,24,2,3.6-1.591,6.6-1.192,11-1-1.094-.454-1.795-3.3,2-3-1.388,5.067,6.933,2.357,10,6-2.741-2.417,11.3-.569,7-4,3.167.41.6,1.807,3,3,7.536-1.962,15.685,1.663,25,1,.145-.663-1-2.01,1-3l5,3c1.839-.327,1.639-3.308,5-1-.474-.559-1.234-1.786,0-2,18.249,3.24,37.467-2.089,56,4-2.51-1.289-.917-1.952,1-2-1.246-.307.244-1.1,0-2l8,2c1.414-2.5,8.19.391,9-2h-3c3.267-2.824-4.478-6.376-4-10-3.659,3.21-10-4.594-16,0-1.325-.739,1.709-1.16,1-2-1.521,1.554-3.594,1.7-7,1h0c-9.567.379-13.252-.981-24-2l1,2c-2.309-.241-2.919-1.552-4-2-2.651,2.717,6.415,0,4,3-3.064-3.645-15.93.141-18-4-3.553-.023.552,2.024-3,2l-1-1-1,2a3.186,3.186,0,0,1-3-3,6.861,6.861,0,0,0,2,0c-3.021-1.32-8.963.432-10,0h4c-9.7,1.049-21.632-.279-31,2l1,1c-7.154,1.564-6.146-.724-14,0h0a8.563,8.563,0,0,1-5,1c1.983-.99-4.6-1.905-2-3-7.757,1.679-3.876.859-9,4l-1-1c-1.746,1.267-2.077,1.635-6,2,3.217-1.2-1.6-2.409,2-4-8.231-3.066-12.224,3.485-16-1-3.78,3.881,7.117,2.169,5,3,1.773,1.267-3.417,3.389-6,3-2.63-.086-4.385-5.074-11-5,.658.018.343-1.017,1-1-2.475-.989-4.964,1.608-8,0-1.7,2.347-3.509.008-4,3l6-1c-3.44.783-6.333,4.7-12,3a8.165,8.165,0,0,1,3-2c-1.657-.883-3.283.907-5,0,.489-3,7.314-.715,11-3-1.779-1.264-6.852,2.244-5-1-2.662,4.125-6.52-1.15-11,2v-1a6.7,6.7,0,0,1-3,1l2-3c-3.626,1.985-6.522-1.081-10,0,7.283-.056.921,1.69,4,3-8.983,2.4-4.943-4.862-15-4,1.362-.253,5.129,1.17,3,2-1.914-.369-4.825-1.058-6-2-6.664.373,1.836,1.9-1,3-2.268-2.187-4.079,1.3-7,2v-2c-7.593-1.171-1.164,3.414-8,2l2-2h-3l1-2c-3.877,1.538-5.2,1.581-9,1,.883,1.286-.637,2.942-4,3-2.294-1.084.767-1.26-4-1,1.076-1.142,2.926-2.681,5-1,.213-.6.781-1.412,1-2-2.471-1.246-6.274-.017-8,0,.664.068,1.593-.26,2,0l-7,3c-1.088-.684.145-1.462,1-2-1.4.2-2.942.843-5,1,.533-1.482,1.087-2.3,4-3l-7,1c-.44-.645-3.855-1.455-3-2-3.651-.872-8.161,3.149-13,2-.252.288-.971-.214-2,0-4.548-.336-8.609-2.032-14,0l-3-2c-4.222.6,4.03,3-3,4-4.977.848-2.254-2.26-4-3-2.475,1.34-6.428,4.164-11,2,1.514-.5,2.586.2,4,0m-52,1c1.009-.383,3.262-2.077,4-1-1.149,2.09-2.28,1.6-4,1m-79,4c.75-.6,1.69.31,3,1-.951.15-1.807-.532-3-1m-221,13c.043-.029-.035.038,0,0,2.25.71,1.56.342,0,0m-4-1c-.469.254-1.2.746-1,1a4.058,4.058,0,0,1,3-1c-.332-.479-.6-.409-2,0m502-1h-1c2.054-.527,1.569-.527,1,0" transform="translate(658.897 14.547)" fill="#28292c"/>
        </g>
        <g id="Group_63-3" data-name="Group 63" transform="translate(395.196 8.21)">
          <path id="Path_63-3" data-name="Path 63" d="M-1.241-.276c.286.307-.067.656,0,1,.4-.307.837-.67,0-1" transform="translate(1.427 0.655)" fill="#28292c"/>
        </g>
        <g id="Group_64-3" data-name="Group 64" transform="translate(549.836 3.869)">
          <path id="Path_64-3" data-name="Path 64" d="M-1.109.707c.053.015.947-.011,1,0,.087-.109-.026-.891,0-1Z" transform="translate(0.655 0.013)" fill="#28292c"/>
        </g>
        <g id="Group_65-3" data-name="Group 65" transform="translate(233.436 7.148)">
          <path id="Path_65-3" data-name="Path 65" d="M-3.888-.182a4.762,4.762,0,0,1,2,1c.052-.447-.529-.882-2-1" transform="translate(3.834 0.622)" fill="#28292c"/>
        </g>
        <g id="Group_66-3" data-name="Group 66" transform="translate(136.271 24.642)">
          <path id="Path_66-3" data-name="Path 66" d="M-6.062.947h3c-1.448.089-2.269-.711-3-1,.065.426.936.97,0,1" transform="translate(6.173 0)" fill="#28292c"/>
        </g>
        <g id="Group_67-3" data-name="Group 67" transform="translate(108.927 14.426)">
          <path id="Path_67-3" data-name="Path 67" d="M-.505-.563c-.437.224-.569-.227-1,0v1c1.863-.056,2.927-.64,1-1" transform="translate(1.96 0.726)" fill="#28292c"/>
        </g>
        <g id="Group_68-3" data-name="Group 68" transform="translate(129.288 18.605)">
          <path id="Path_68-3" data-name="Path 68" d="M4.095.519c-.238-1.534-1.9-1.283-4-1,.126,0-.125-.018,0,0-.618,2.147,1.775,1.707,4,1" transform="translate(0 0.466)" fill="#28292c"/>
        </g>
        <g id="Group_69-3" data-name="Group 69" transform="translate(126.826 18.976)">
          <path id="Path_69-3" data-name="Path 69" d="M1.556-.692a9.2,9.2,0,0,1-2,0c-.245.862.848.218,2,0" transform="translate(0 0.305)" fill="#28292c"/>
        </g>
        <g id="Group_70-3" data-name="Group 70" transform="translate(153.813 23.471)">
          <path id="Path_70-3" data-name="Path 70" d="M-2.472-1.1c-.994-.4-.437,1.625-1,1-1.11,1.953,6.444-2.027,1-1" transform="translate(4.042 1.222)" fill="#28292c"/>
        </g>
      </g>
      <g id="Group_72-3" data-name="Group 72" transform="translate(323.403 14.815)">
        <path id="Path_72-3" data-name="Path 72" d="M-3.994-1.477l2,2,3-1Z" transform="translate(3.973 1.251)" fill="#28292c"/>
      </g>
      <g id="Group_75-3" data-name="Group 75" transform="translate(0 0)" clip-path="url(#clip-path-21)">
        <g id="Group_73-3" data-name="Group 73" transform="translate(144.112 15.464)">
          <path id="Path_73-3" data-name="Path 73" d="M4.267-.076h-3c.051.316-.477.859-1,1,2.065.064,4.079-.438,4-1" transform="translate(0.004 0.201)" fill="#28292c"/>
        </g>
        <g id="Group_74-3" data-name="Group 74" transform="translate(141.414 16.099)">
          <path id="Path_74-3" data-name="Path 74" d="M2.968.283c-1.075-.036-2.4-.309-3,0a14.121,14.121,0,0,0,3,0" transform="translate(0 0.207)" fill="#28292c"/>
        </g>
      </g>
      <g id="Group_76-3" data-name="Group 76" transform="translate(334.643 14.085)">
        <path id="Path_76-3" data-name="Path 76" d="M-7.18-.849l3,1h5Z" transform="translate(6.92 0.353)" fill="#28292c"/>
      </g>
      <g id="Group_80-3" data-name="Group 80" transform="translate(0 0)" clip-path="url(#clip-path-21)">
        <g id="Group_77-3" data-name="Group 77" transform="translate(184.249 14.943)">
          <path id="Path_77-3" data-name="Path 77" d="M-7.569,1.646l4-1c.372-.65-.639-1.259-2-1-.875.453-2.561,1.372-2,2" transform="translate(7.702 0)" fill="#28292c"/>
        </g>
        <g id="Group_78-3" data-name="Group 78" transform="translate(173.321 10.257)">
          <path id="Path_78-3" data-name="Path 78" d="M-3.494.381c.989.394,1.443.376,2,1v-2Z" transform="translate(3.555 0.951)" fill="#28292c"/>
        </g>
        <g id="Group_79-3" data-name="Group 79" transform="translate(182.578 8.882)">
          <path id="Path_79-3" data-name="Path 79" d="M-3.646,1.707c.364-.651,4.635-2.147,0-2-.371.647-3.362,1.464,0,2" transform="translate(5.451 0)" fill="#28292c"/>
        </g>
      </g>
      <g id="Group_81-3" data-name="Group 81" transform="translate(237.776 14.034)">
        <path id="Path_81-3" data-name="Path 81" d="M2.606-3.008h-3l1,3Z" transform="translate(0 2.563)" fill="#28292c"/>
      </g>
      <g id="Group_84-3" data-name="Group 84" transform="translate(0 0)" clip-path="url(#clip-path-21)">
        <g id="Group_82-3" data-name="Group 82" transform="translate(282.552 4.21)">
          <path id="Path_82-3" data-name="Path 82" d="M3.924-1.569c-4.333-.922-1.084,2.151-5,1-1.018.91,3.043,1.214,2,2,2.616-.96,4.2-.467,3-3" transform="translate(0.906 1.948)" fill="#28292c"/>
        </g>
        <g id="Group_83-3" data-name="Group 83" transform="translate(283.535 7.326)">
          <path id="Path_83-3" data-name="Path 83" d="M.848-.124c-.42.151-.528-.25-1,0,.758-.241.779.161,1,0" transform="translate(0 0.387)" fill="#28292c"/>
        </g>
      </g>
      <g id="Group_85-3" data-name="Group 85" transform="translate(821.92 24.605)">
        <path id="Path_85-3" data-name="Path 85" d="M-1.247-.87h-2l6,1Z" transform="translate(3.709 0.854)" fill="#28292c"/>
      </g>
      <g id="Group_88-3" data-name="Group 88" transform="translate(0 0)" clip-path="url(#clip-path-21)">
        <g id="Group_86-3" data-name="Group 86" transform="translate(838.435 20.993)">
          <path id="Path_86-3" data-name="Path 86" d="M-4.857-2.025l1,3,1-2a2.639,2.639,0,0,1-2-1" transform="translate(4.805 1.621)" fill="#28292c"/>
        </g>
        <g id="Group_87-3" data-name="Group 87" transform="translate(457.425 1.37)">
          <path id="Path_87-3" data-name="Path 87" d="M-4.533-.691h0c.432.639.693.9,2,1Z" transform="translate(4.491 0.91)" fill="#28292c"/>
        </g>
      </g>
      <g id="Group_89-3" data-name="Group 89" transform="translate(493.74 2.481)">
        <path id="Path_89-3" data-name="Path 89" d="M.477-1.325h-2l3,2Z" transform="translate(1.165 1.433)" fill="#28292c"/>
      </g>
      <g id="Group_91-3" data-name="Group 91" transform="translate(0 0)" clip-path="url(#clip-path-21)">
        <g id="Group_90-3" data-name="Group 90" transform="translate(523.035 0.365)">
          <path id="Path_90-3" data-name="Path 90" d="M4.251-.583c-1.294-.092-2.7.094-4,0,2.822-.4,4.35,2.768,4,0" transform="translate(0.096 0.806)" fill="#28292c"/>
        </g>
      </g>
    </g>
  </g>
</svg>
