<svg xmlns="http://www.w3.org/2000/svg" xmlns:xlink="http://www.w3.org/1999/xlink" width="147" height="184" viewBox="0 0 147 184">
  <defs>
    <clipPath id="clip-path">
      <rect id="Rectangle_374" data-name="Rectangle 374" width="147" height="184" transform="translate(0 0.333)" fill="none"/>
    </clipPath>
    <clipPath id="clip-path-2">
      <rect id="Rectangle_373" data-name="Rectangle 373" width="122" height="92" transform="translate(-0.128 -0.423)" fill="none"/>
    </clipPath>
  </defs>
  <g id="logo-white" transform="translate(-887 -4715)">
    <g id="Group_499" data-name="Group 499" transform="translate(887 4714.667)">
      <g id="Group_389" data-name="Group 389" clip-path="url(#clip-path)">
        <path id="Path_711" data-name="Path 711" d="M146,69.333c-.063-.11.047.164,0,0h0c-.032-.107-.031-.166,0,0-.093.585.118.809,0,1-.482-1.219-.751-4.681-1-6,.1-1.457.773.8,1,0l-1-2c.469-.195.726-4.429,1-1v-3a26.245,26.245,0,0,0,0-6c.1-1.455-.366-3.269,0-2v-5h0c.06-4.778-.844-9.54,0-15a47.309,47.309,0,0,1,0-6v-1c-.141-2.064.421-6.113,0-7a15.485,15.485,0,0,0,1-6c-.035-1.44.035-2.582,0-4-.039-2.262-.022-4.236,0-6-.405-.008-.645.008-1,0h-1c-1.061,0-1.937,0-3,0-.528.011-1.461-.01-2,0-.416.014-.574-.014-1,0-1.3.078-2.449.9-4,1h0c-2.675.383-6.768-.047-11,0a4.539,4.539,0,0,1,2,0c-5.055-1.057-10.414.77-15,0a10.337,10.337,0,0,1-3,0h0c-.117,0,.178,0,0,0-.331-.053-.648-.944-1-1a6.194,6.194,0,0,0-2,0c-1.141-.3-2.142-.34-2,0h0c-1.285-.187-.687.623,0,1-.66.082-1.532-.12-2,0-1.044-.81-3.575.863-5,0-.819.39-5.717.308-7,1a15.312,15.312,0,0,0-4,0l-1-1-3,1c-1.937-.389-2.923-.51-1-1-4.644.753-3.051.251-7,1v-1c-1.411.015-4.149,1.341-5,1-3.158-.784-14.894-.27-23-1,1.572,1.216-4.678-.939-5,0-.472-.285-1.313.252,0,0-4.139.284-6.142-.8-9,0-.473-.29,1.422-.829,1-1a5.735,5.735,0,0,1-2,0c-.422-.171.345.127,1,0-4.227.049-4.692,1.169-5,2-2.142-.394-3.453-.545-5,0-.745-.273-1.625-.9,1-1-1.478-.039-8.85.336-9,1a12.352,12.352,0,0,0-3,0c-1.666-.029-2.1.015-3,0-1.206-.014-2.835-.032-5,0H4c-.419.285-1.361-.022-2,0,.039,1.188-.063,2.837,0,5H2c-.579,6.146-.34,2.033-1,8H2c1.075.553-.411,5.555,0,9v-2c.369,1.881-1.865,6.112-2,8-.093.414.068-1.425,0-2-.635,4.947.848,1.311,1,5-.354.68-.935-1.48-1,1-.285,1.237,1.677,7.615,1,11,.272-.748-.2-1.713,0,0,.1,2.624-.856,7.628,0,10-.074.331.067-.014,0,0,.22,2.005.535,6.793,1,8-1.727,1.855.592,12.045-1,12v6H1a18.539,18.539,0,0,0,1,7c-.109.914-.916.075-1,0-.32,5.764.206,6.168,1,11l-1,1c.3,1.31-.6,8.347,0,14-.058-.054.072-.552,0-1,.606,6.361-1.883,15.67,0,18l1,4c.146-5.43.687.234,1-2,.11,2.135-.9,5.624-1,3H2c-.98-.964-.332,7.146-1,7,.049,10.687.04,20.991,0,31v2c-.177.915-.032,1.491,0-1a3.552,3.552,0,0,0,0,2c.166,1.313-.084,3,0,3-.155,3.452.185,2.27,0,1-.187-1.232-.99-3.206-1-2l1,4v-1c.1.739-.089.556,0,1a35.449,35.449,0,0,1,5,0c.731.038.8-.05,1,0s.951-.049,1,0c.1.1-.373.985,0,1,0,.054.1.057,1,0h5l-2-1c1.95-.3,4.029-.319,2-1,2.979,1.05,16.17.674,18,1,2.731-.439,5.661-.053,9,0-.83-.127-.88-1.084,2-1-1.053,1.4,4.673,1,7,2-2.079-.667,8.264-.054,5-1,2.4.113.177-.329,2,0,5.721-.54,12.93,1.181,20,1,.111-.182-1.517-.728,0-1l4,1c1.4-.089,1.449-1.635,4-1-.359-.153-.937.058,0,0,13.849.894,27.935-.678,42,1-1.906-.355-.455-.989,1-1-.947-.086.185.248,0,0h6c1.074-.689,6.386.66,7,0h-2c1.362-.429.281-1.488-1-2h6v-4s.095-2.449,0-4v1c-.107-.746.045-2.077,0-3v-8a3.845,3.845,0,0,1,0,2c1.054-5.057-.769-10.414,0-15a10.436,10.436,0,0,1,0-3h0c0-.117,0,.18,0,0,.052-.331-.054-.646,0-1,.188-.521,1.025-1.2,1-2,.3-1.141.337-2.142,0-2h0c.185-1.285-.623-.688-1,0-.082-.66.121-1.532,0-2,.81-1.044-.863-3.574,0-5-.389-.817.692-5.717,0-7a15.372,15.372,0,0,0,0-4l1-1-1-3c.389-1.937.508-2.923,1-1-.755-4.646-.252-4.049-1-8l1,1c-.015-1.412-1.341-4.149-1-5a29.291,29.291,0,0,0,0-9c-.021-.323.035-.852,0-1-.049-.408.047-.582,0-1v-2c.357,2.01,1.263.93,2-1-.181-.07-.756-.659-1-3-.226.82-.627,4.975-1,3-.213-3.1.78-2.493,1-4-.458,1.135-.426-2.556-1-3v-19c.061.114-.067.235,0,0v-2c.453-1.6-.21,3.211,0,1,.318,2.344,1.255,5.7,1,9h-1a5.259,5.259,0,0,0,1-3c.283,1.374-.837,5.493,0,7v-2c.322,2.354,1.2,5.077,1,8,.632-1.33-.738-.922,0-3-.919,1.8.965-7.892,0-5,.856-2.131.269-3.212,1-6-.21.088-1.1.452-1-2m0-13h0c.2-1.707.093-1.184,0,0m-137,127H8c1.558-.146,1.433-.145,1,0m15-180c.16-.065.852.058,1,0-.315.06-.641-.068-1,0H23a12.017,12.017,0,0,0-2,0l4-1c.508.109.689.721,0,1,.285-.058-.214.043,0,0,.6.1,1-.132,1,0Zm54,0,3-1c-.224.233-.146.639,0,1Zm11-1c-.043-.113-.639.008,0,0-.1.054.052-.064,0,0m34,0v-1h0c-.033.015.033.987,0,1m21,126c-.054-.1.064.05,0,0,.113-.045-.01-.639,0,0m0-8c-.128-.123.174-1.028,0-1v1Zm0-26v-4a12.417,12.417,0,0,1,0,4m0-5c-.01.006.01.008,0,0Z" transform="translate(0 0)" fill="#fff"/>
      </g>
    </g>
    <g id="Group_500" data-name="Group 500" transform="translate(902.128 4793.423)">
      <g id="Group_387" data-name="Group 387" transform="translate(0 0)" clip-path="url(#clip-path-2)">
        <path id="Path_652" data-name="Path 652" d="M2.1,30.03c-.082-.143.142.05,0,0Z" transform="translate(0.771 11.547)"/>
        <path id="Path_653" data-name="Path 653" d="M3.588,30.047c.071-.072-.011.082,0,0h0c.019.143-.061-.093,0,0Z" transform="translate(1.284 11.529)"/>
        <path id="Path_654" data-name="Path 654" d="M5.557,30.047c.061.225.837-.093,1,0-.029-.246-.807.071-1,0" transform="translate(2.315 11.529)"/>
        <path id="Path_655" data-name="Path 655" d="M3.588.414h0c.174.061-.174-.01,0,0Z" transform="translate(1.284 0.163)"/>
        <path id="Path_656" data-name="Path 656" d="M17.928,18.874c.132-.338-.021-.682,0-1-.061-.338.283-.836,0-1v1h0Z" transform="translate(6.944 6.704)"/>
        <path id="Path_657" data-name="Path 657" d="M3.525.543Z" transform="translate(1.348 0.034)"/>
        <path id="Path_658" data-name="Path 658" d="M4.251,1.2Z" transform="translate(1.621 0.374)"/>
        <path id="Path_659" data-name="Path 659" d="M4.169,30.125h1c-.019-.317-.715-.9-1-1Z" transform="translate(1.703 11.452)"/>
        <path id="Path_660" data-name="Path 660" d="M19.654,30.017h0l-1-1h0a4.717,4.717,0,0,1,0,1,5.449,5.449,0,0,0,0,1h3v-4l-2,1c-.265.132.153-.217,0,0,.01.389-.071,1.692,0,2h0v1c-.2-.05.1-.817,0-1m1,0h1v1c-.215-.113-.979-.764-1-1m0-2c.285.01.907.775,1,1h0c-.2-.093-.868.133-1,0h0Z" transform="translate(7.218 10.56)"/>
        <path id="Path_661" data-name="Path 661" d="M1.615,39.543c.275.074.776.876,1,1h1c.256.1-.245-.05,0,0h0a4.623,4.623,0,0,1,1,0c.06-.206.867-.856,1-1v1c.172-.063-.09.133,0,0h1l1-1c.193.206-.114.774,0,1,.122.153.889-.113,1,0h0c.163-.3-.3-.949,0-1,.1.185.979.805,1,1h-1c.172.267.705-.01,1,0v-11c-.011-.388.183-.733,0-1-.224-.082.04.226,0,0h0v-2h1c.042.061-.071-.019,0,0h8c.172.307.939.693,1,1a3.635,3.635,0,0,0,0,1h1c.1.074.949-.111,1,0-.3.226-.755-.082-1,0-.356.1-.7.979-1,1v1c.164-.124-.183.072,0,0h0v11h4a4.7,4.7,0,0,0,1,0h1v-1a1.92,1.92,0,0,0-1-1h0v-2h0v-1a12.808,12.808,0,0,0,1,1c.122.4-.031.7,0,1,.174.1-.174-.01,0,0l1-1h-1v-1h1c.131.072-.061-.082,0,0v1h0c.254-.021.8.051,1,0h0v-1l-1-1c.174-.163.8.074,1,0h0c.164.318-.071.7,0,1v1a6.674,6.674,0,0,0,1,0v-8h0c-.174-.174-.867-.826-1-1h0v2c-.061.124.092-.029,0,0l-1-1c-.142-.329.011-.712,0-1,.061-.183-.092-.876,0-1a6.314,6.314,0,0,1,1,0,2.919,2.919,0,0,0,1,1h0v-1h-1v-1h0c0,.39.887.693,1,1h0v-2a3.013,3.013,0,0,0,0-1h-1v-1c.245.093.817-.175,1,0h0v-23h-9v3a5.689,5.689,0,0,0,0,1v2h0c-.071.061.082-.01,0,0v8h0v2a11.857,11.857,0,0,1,0,2h-10v-4h0c-.082.082.1-.029,0,0,.032-.214-.195-.908,0-1v-13h-1v1h-1v-1c-.051-.072.061.01,0,0h-1c-.04.4.071.672,0,1-.081.389-.887.733-1,1h0v1h1c.082.032-.032-.092,0,0a10,10,0,0,1-1,0c-.245-.193.172-.774,0-1-.245-.236-.7.072-1,0-.346.093-.736-.175-1,0v1h0v-1h-1v2c.264-.04.807.072,1,0,.061-.124-.092.031,0,0,.061.092-.011-.1,0,0-.275.195.143.775,0,1-.193-.031-.889-.876-1-1v1c.029.153-.051-.111,0,0v1h0c-.183.267-.8-.206-1,0-.314.143.061.683,0,1h-1v5h0v-1a4.6,4.6,0,0,0,0-1h1c.01.175-.029.867,0,1h0v3h0c-.011.421.061,1.653,0,2h-1v4h0v3c.021.368-.2-.246,0,0v4c.021.286-.132.786,0,1v-1h1c.265.206.694.937,1,1,.346-.031.776.122,1,0l1-1c.011-.092-.031.061,0,0a7.976,7.976,0,0,1,1,0h1c.133-.071-.133.042,0,0,.386.042.694.887,1,1h0c-.093.215.143-.164,0,0-.325-.143-.675.011-1,0v1c-.253-.246-.785-.857-1-1h0a8.544,8.544,0,0,0-1,0c-.253.226-.757-.122-1,0h-1v1a4.042,4.042,0,0,1,0-1,2.975,2.975,0,0,1-1,0c-.182-.011-.878.031-1,0v11c.01.339-.143.724,0,1,.346-.071.818-.764,1-1Zm26-7h0v1a3.015,3.015,0,0,1,0,1c-.225-.286.01-.672,0-1l-1-1Zm-6-5h0v1h0c.092-.214-.132-.826,0-1m0-6v-1a5.34,5.34,0,0,1,0,1Zm0,7c.245.011.939-.215,1,0-.2-.082-.9.143-1,0m1,5v-1h0a6.49,6.49,0,0,1,0,1m0-5v-1h0c-.071.1.082.95,0,1m1-8c-.122.021-.887-.093-1,0v-5h0l1,3v2c.172.225.9-.235,1,0v2c.071.3-.233.876,0,1h1v5c-.06.235.2.958,0,1l-1-3h0l-1-6c-.082-.267.143.235,0,0m0,1a2.983,2.983,0,0,1,0-1,2.947,2.947,0,0,1,0,1m1-6c.214.082-.011.776,0,1l1,4c-.061.193.132-.153,0,0-.163-.029-.931.122-1,0v-1h0v-1h0Zm0-1c-.172.175-.8.979-1,1,.111-.328-.04-.712,0-1v-1h0v-1h1c-.032.174.05.868,0,1-.163.235.06-.265,0,0Zm0,22h0v-1h0Zm0-1-1-4v-1h0v-1h0v-1c.04-.349-.183.225,0,0,.254.154.949-.267,1,0a9.283,9.283,0,0,0-1,1l1,1,1,3v2a6.674,6.674,0,0,1-1,0m1,1v-1h0c-.029.114.093.918,0,1m1,0c-.122-.226-.928-.805-1-1v-3h0v-1c.061-.256-.09-.794,0-1h0c.1.226-.01-.236,0,0l1,5Zm0-6Zm0-4h0v-1h0Zm0-3c-.122.072.113-.01,0,0v-1h0c.193.085-.151-.114,0,0h0Zm1,2c.082.021-.031-.05,0,0Zm0-3h0c.092.032-.031-.05,0,0Zm1-2h0c-.061.206-.908.858-1,1h0l-2,1h-1l1-1c.122-.144-.143.051,0,0l2-1Zm-2-3c-.082-.144,0,.124,0,0Zm0,1v1h0c.008-.185-.032-.868,0-1Zm0,2Zm1-2h0c.082.021-.032-.061,0,0-.011.175.029-.133,0,0-.072-.021,0,.063,0,0m-1-12h1c.122.153-.032-.195,0,0-.235-.133-.776.061-1,0Zm0,9h-1a6.664,6.664,0,0,1,0-1h1c-.042.288.071.743,0,1m0-2c-.183-.051-.918.143-1,0v-1c.174.061.907-.133,1,0Zm-1-3c-.172-.051.1-.856,0-1,.224.01-.05.817,0,1m-1,4c-.225-.031,0,.246,0,0Zm0-3h0v-1c.275.061-.224-.092,0,0-.051.288.1.743,0,1m-1-9h0c-.061-.021.008.051,0,0Zm-1,2c.04-.285.889-.754,1-1h1l-1,1h0v1h0l1,1v3c-.021.185.092-.165,0,0l-1-1v-1c-.061-.317.092-.744,0-1h-1v-1h0Zm0,3c.1.217.992-.2,1,0v1h-1Zm1,3c-.275-.021-.969.256-1,0,.245.042.939-.235,1,0m-1,2c.183.082-.092.857,0,1v1h0v1c-.122-.031.061.124,0,0v-3Zm0,10,1,3v1c-.022.174.093.868,0,1l-1-1h0v-4c.192.031-.153-.082,0,0m0-10h-1c-.122-.254.031-.754,0-1h0a6.65,6.65,0,0,1,0-1c.111.39.989.651,1,1Zm0-6v2c-.022.288-.867.785-1,1v-1c-.122-.388.032-.692,0-1h0v-1h0a7.987,7.987,0,0,1,0-1c.183.307,0,.692,0,1Zm-1-2h0v-1h0v2h0Zm0,22a5.452,5.452,0,0,1-1-1,4.907,4.907,0,0,1,1,1m-1-7Zm0,7Zm-1-5h0c-.061.133.122.908,0,1Zm-1,3h0v-1h1Zm0-1c-.061-.021.01.051,0,0v-1c.072.042.99-.031,1,0-.01.174-.969.868-1,1m0-2Zm0-3v1h0Zm-3,1a5.164,5.164,0,0,1-1-1,5.819,5.819,0,0,1,1,1m-1,6h0l1-1c-.061.349.285.847,0,1Zm-1,0c-.286-.113.021-.722,0-1,.245.124-.061.735,0,1m-12-15v-1c.132.061-.019.867,0,1Zm2-5h0c-.082-.021.029.061,0,0,.021-.174-.053.132,0,0m0,2Zm0,1v1c-.061-.042.019.072,0,0v-1Zm-1,3h1v-1h0v2h0c-.172-.082.061.153,0,0-.05-.267-.9-.764-1-1-.3,0,.121.225,0,0Zm1,5v-3c.133.175-.051.794,0,1v2Zm0,2h0v2a4.715,4.715,0,0,1,0-1v-2a8.574,8.574,0,0,1,0,1m-1-11Zm0,2v1c-.04.193.071-.154,0,0-.163-.051.071.144,0,0a6.672,6.672,0,0,0,0-1v-1c.163.072-.113.878,0,1m0,3c-.072.154.082-.114,0,0Zm0,2Zm0,1Zm0,1v1c-.081-.061.031.133,0,0v-1c.174.082-.061-.156,0,0m-2,6v-2a7.074,7.074,0,0,1,1,1h0Zm1-10c.151.1-.081-.133,0,0Zm0,8c.1-.174-.132.092,0,0,.143.122.99-.143,1,0Zm1,3c-.142-.061.051.135,0,0,.153.063-.04-.132,0,0m0,4h0c.295.082.878-.225,1,0Zm1-6h0a8.276,8.276,0,0,1,0,1c-.111-.071.04.082,0,0Zm0,5h0v-1c0-.347-.031-.733,0-1,.133.195-.061.805,0,1h0Zm0-4v0Zm1-15h0v-1h0Zm0,3a5.165,5.165,0,0,1,1,1,2.252,2.252,0,0,1-1-1m1,5c-.213-.031.01.246,0,0Zm2,22v-1h0Zm0-5v-1h0v1Zm1-2c-.122-.071.072.082,0,0Zm0-1h0c.2.011-.021-.185,0,0Zm0-12Zm0,8h0c-.154-.071.04.164,0,0Zm0-1h0c.011-.185-.215-.992,0-1h0Zm0,4c-.133-.174.019-.826,0-1h0Zm0,10h0v-1h1v1Zm1,1v-1a6.494,6.494,0,0,1,0,1Zm0-4v0Zm0-1c-.092.174.143-.092,0,0-.2-.04-.828.113-1,0a10.14,10.14,0,0,1,1-1c.183.042-.163.918,0,1m0-4h0l-1-1a2.024,2.024,0,0,1,1,1m0-3a11.318,11.318,0,0,1-1-1,2.836,2.836,0,0,0,1-1c.245.124-.174.815,0,1-.225.193.151.817,0,1m0-2v-1c.133.122-.061.846,0,1Zm1-4c.122.061-.029-.133,0,0Zm0,2c-.133-.164.021-.828,0-1,.122.164-.032.826,0,1m-1,0c.306.113,1,.693,1,1-.253-.092-.921.256-1,0h0v-1Zm0-2h0v1c-.09-.215.021.215,0,0Zm0-1c-.276-.061.032.246,0,0,.276.071-.032-.235,0,0m0-5h0c-.233-.011.069.225,0,0Zm0-2v-1c.133.124-.061.856,0,1Zm0-4v1c-.193-.011-.849.1-1,0v-3a11.512,11.512,0,0,1,1,1h0c.061.236-.09.805,0,1Zm0-4v2h-1v-1c-.122-.246.142-.815,0-1h0v-1c.153.185-.113.794,0,1,.151.2.726-.021,1,0m-1-3h0c-.061.185.011-.164,0,0,.133.153-.133.887,0,1h0c-.121.174.153.908,0,1h0v-1l-1-1c.224-.081.807.114,1,0m-1,4c.183.1-.081-.164,0,0-.253-.021.01.245,0,0m0,6a2.928,2.928,0,0,1,1,1h-1Zm-1-8c-.174-.021-.908.132-1,0,.153.061.887-.092,1,0m0,2v-1h0a8.279,8.279,0,0,1,0,1c-.254.133.245-.061,0,0a2.759,2.759,0,0,1-1-1Zm0,14v1c-.143-.1.05-.836,0-1Zm0-5v-2h0v1h0v1Zm0-7v-1h0Zm-1,1c.174.061-.1-.122,0,0Zm1,2h0c-.081-.193-.961.185-1,0,.283.051.979-.256,1,0m0,10h0v0Zm0,2v-1c.131.111-.021.847,0,1Zm0-7c-.06-.042.01.072,0,0h0a6.489,6.489,0,0,1,1,0Zm1,10c-.132-.246-.979-.754-1-1h1Zm0-1h0Zm0-15h-1v-1h1c-.019.2.051.844,0,1m0-5Zm0,16c.274.092.776-.144,1,0v1h0c-.225-.153-.849.183-1,0Zm-1,8h0Zm-2,7h0Zm0-1h1c-.256-.021-.992.246-1,0m1,3v-1h0v1a4.717,4.717,0,0,1,0,1c-.193-.214.111-.755,0-1m1-6-1,1h-1v1h0v-2c.153-.195.808.113,1,0,.2-.185-.144-.794,0-1,.06.185.981.836,1,1m-1-2c.1.074-.021-.122,0,0h0c.111-.143-.151.053,0,0m-1,1h0Zm-1,6v0c.082.021-.031-.061,0,0Zm0-8c.254.246-.053.712,0,1a4.7,4.7,0,0,1,0,1h0Zm0,5v1c-.143-.185.04-.764,0-1Zm0,5Zm-1-9v1c-.113-.143.04-.836,0-1Zm-1,8c.082.1.969-.122,1,0-.021.082-.949-.042-1,0Z" transform="translate(0.257 0.034)"/>
        <path id="Path_662" data-name="Path 662" d="M46.127,7.813l-1-1,1,1Z" transform="translate(17.745 2.764)"/>
        <path id="Path_663" data-name="Path 663" d="M51.972.573v-1h-1v1Z" transform="translate(19.901 0.004)"/>
        <path id="Path_664" data-name="Path 664" d="M54.094,17.07h0c-.172-.01-.887.021-1,0,.061.214.817-.072,1,0" transform="translate(20.778 6.507)"/>
        <path id="Path_665" data-name="Path 665" d="M48.237,1.167h0c.1.142-.111-.071,0,0,.2-.092-.021.195,0,0" transform="translate(18.635 0.411)"/>
        <path id="Path_666" data-name="Path 666" d="M52.548.525c-.132-.122.153.019,0,0Z" transform="translate(20.324 0.052)"/>
        <path id="Path_667" data-name="Path 667" d="M57.858.573h0l-1-1h0v1h1Z" transform="translate(22.014 0.004)"/>
        <rect id="Rectangle_369" data-name="Rectangle 369" transform="translate(63.872 8.577)"/>
        <path id="Path_668" data-name="Path 668" d="M55.628.573h1c-.153-.2-.755.01-1,0-.428-.1-.643-.992-1-1v1c.122.163-.163-.09,0,0Z" transform="translate(21.244 0.004)"/>
        <path id="Path_669" data-name="Path 669" d="M63.027,42.436c.2.04.846-.061,1,0h2c.327,0,.755.143,1,0v-1l1,1h1c.286.142.746-.072,1,0h1c.3-.053-.233.133,0,0v-1h0v-2l-1,1v-1h1c.306-.061-.233-.889,0-1,.153-.286.969-.746,1-1v-1a5.58,5.58,0,0,1,0-1l-1-1c-.061-.336.081-.764,0-1v-1c-.061-.365-.919-.755-1-1v-1a3.3,3.3,0,0,1,0-1,6.482,6.482,0,0,1,0-1l-1-3v-1c-.163-.264-.947-.735-1-1h0c.346-.021-.082-.694,0-1a6.489,6.489,0,0,0,0-1c.09-.163-.021.164,0,0h0c-.256-.164.071-.776,0-1l-1-2v-1c-.151-.233.2.122,0,0a4.081,4.081,0,0,1,0-1h0a9.184,9.184,0,0,1-1-1c.051-.275.908.225,1,0v-1h-1c.021-.061-.05.011,0,0,.336-.04.765-.858,1-1h-2c-.032-.325.154-.757,0-1,.051-.193-.1-.826,0-1h-2c.082-.192.837.093,1,0,.317-.111.735.031,1,0,.172-.224-.113-.755,0-1a6.359,6.359,0,0,1,1,1c.163.276-.01-.264,0,0-.061.315.111.778,0,1h0l1,1-1-3h-1c-.142-.225.174-.828,0-1-.1-.3.042-.726,0-1-.113-.245-.787.122-1,0h0v-1h0v-1h1v1h0v1a3.3,3.3,0,0,1,0,1h0c.245-.04.807.071,1,0-.042-.356.1-.757,0-1-.04-.327-.9.254-1,0-.143-.233.082-.765,0-1v-2h0v-1l-1-1v-1h0c-.051-.224.09-.837,0-1h-1l-1-1h-1v1l-1-1a3.644,3.644,0,0,0-1,0h-1c-.142.275.04.736,0,1h-1c-.235-.163-.767-.878-1-1h0v1c-.113.1-.857-.039-1,0l1-1h-1c-.254.021.174.878,0,1h-1c-.315-.01-.778.133-1,0l1-1c.061-.1-.01.111,0,0h-1c-.213.225.254-.031,0,0h-1c-.113.151.031.868,0,1h0a2.792,2.792,0,0,0-1,1h-1c-.254-.069.172-.857,0-1l-1,1v4l-1,5c-.021.285.153.787,0,1h-1c.06.235.886.839,1,1h-2l-1,8h0v1c-.153.256.174-.183,0,0v2c.061.325-.082.755,0,1l1,1h-1c-.05.163.092.868,0,1-.082-.071.019.069,0,0a4.14,4.14,0,0,1,0-1c-.072-.367.072-.755,0-1-.132-.213-.837-.817-1-1v2h0v1h0c-.122.325-.968.747-1,1l-1,6v1h0v2h0v-1c-.225.233-.969.735-1,1h0v4h0c.235-.021-.193.051,0,0h0v-1l1,1h1v-2c.233.183-.01-.285,0,0v2h1c.183-.224.9-.755,1-1h0l-1-1c-.1-.327.04-.744,0-1v-2h0a2.563,2.563,0,0,1,1,1c.092.317-.021-.295,0,0v4h1c.183-.222-.1-.755,0-1h0v-1c-.061-.356.082-.744,0-1v-1l-1-1h0c-.153-.235.1-.765,0-1-.122-.315.05-.744,0-1v-1h0v1l1,1v1h1v3c.061.306-.122.767,0,1,.082.275-.163.846,0,1h2a11.513,11.513,0,0,0,1-1h0v-1c-.172-.233-.746.053-1,0h0c.051-.183-.061.142,0,0l1-1h1c.182-.235-.254-.95,0-1l1,1c.317-.122.99-.694,1-1v-5h2v-4h0c.132.133.846-.011,1,0h0v3c.1.285-.224.858,0,1h4v3h1c-.082.131-.908.918-1,1l1,3h1l-1,1h0v2c.325.122.715-.021,1,0Zm-17-19h-1l1-1c-.04.274.072.775,0,1m-3,9h0v0Zm-1,8c-.082-.225.021.214,0,0v-1a4.717,4.717,0,0,1,0,1Zm0-2h0c.1-.172-.113.114,0,0,.122.122-.061-.131,0,0Zm1,0h0a10.293,10.293,0,0,1-1-1h1v-2h0l-1-1h1c.175.031-.143-.072,0,0h0v4Zm3-19c.367.01.939.694,1,1-.163.356-.95.675-1,1h0v-1c.061-.082-.082.032,0,0Zm1,6h-1c.04-.183.931-.857,1-1h0Zm0,1c-.072.069.072-.032,0,0a8.869,8.869,0,0,1-1,0Zm-2,1c.283-.1.787.143,1,0,.061.021-.01-.051,0,0-.021.274.051.778,0,1-.172.214-.776-.113-1,0a4.074,4.074,0,0,1,0-1m2,8h-1v-6h0c.224.1-.174-.111,0,0,.142.214-.071.786,0,1h0c.113.235.939.767,1,1v4Zm-1-6v-1c.224.2.968.735,1,1Zm0-11h1c.05.183-.019.828,0,1a2.225,2.225,0,0,1-1-1m1-1c.042-.092-.072.051,0,0Zm0-2v1h-1l1-1Zm0-1v1h0v-1h0c.151-.2-.245.011,0,0h0Zm3-6Zm-1,29Zm0-14c-.072-.213,0,.213,0,0,.082.019-.031-.05,0,0Zm0,12a6.324,6.324,0,0,1,0-1c.061.04-.008-.031,0,0l1,1Zm0-15c-.133-.143.053.153,0,0v-1a8.487,8.487,0,0,1,1,1c.122.213-.031.786,0,1h0Zm0-2v-1h1v1Zm2,12h-1v5h0v-2h0v-4h0v-1h1Zm0-5v1h-1v-2c.142.285,1,.7,1,1Zm0-2c-.021.235.051-.193,0,0-.071-.214-1,.215-1,0l1-2h0Zm0-3c-.113-.114.032.143,0,0v-1c.143.122-.029-.163,0,0a7.983,7.983,0,0,1,0,1m0-11c-.265.225.029.685,0,1-.346-.051-.775.2-1,0l-1-1h1c.111.144-.1-.069,0,0,.132.1.878.95,1,1v-2h0a3.587,3.587,0,0,1,1,1h-1Zm12,22c.093-.174-.151-.918,0-1h0v1c-.1.153.111-.092,0,0-.122-.113.021.132,0,0m0,0v1h-1c0-.192.928-.826,1-1,.069.019-.029-.05,0,0m0,2Zm1,7Zm0-2c.224.092-.163-.163,0,0-.285-.029.1.224,0,0m0-6h0v-1c.346.021-.01.694,0,1Zm0,2Zm0,8c-.143-.132.042-.847,0-1h1c.143.154-.029.828,0,1-.243-.019-.786.051-1,0m1-4c-.09-.1.019-.857,0-1h0Zm1-1h0c.163.1-.082-.151,0,0v1c-.183-.069.142-.9,0-1m1-3c-.151-.153.031-.828,0-1h0Zm2,7v-1c.132.051-.081.91,0,1Zm1,0c-.143-.061.1.122,0,0h0c.122.143-.021-.143,0,0m0-5h0c-.071.1.1-.042,0,0Zm0,2v-1l1,1h-1c-.163.1.161,0,0,0-.092,0,.051.032,0,0Zm-1,1h0a6.494,6.494,0,0,1,0-1h1Zm0-9c-.151-.133.1-.849,0-1,.235.071-.019.785,0,1m0,0c.195.031-.164-.072,0,0-.153.143.172-.04,0,0a6.32,6.32,0,0,1-1,0c.1-.215.776,0,1,0m-1,9c-.142.151.172-.029,0,0h0c.131-.151-.153.092,0,0,.143.05-.1-.092,0,0m0-4Zm-1-8c.132-.2.776.042,1,0h0v1h-1Zm0,13c-.163.092-.837-.051-1,0-.215-.021,0,.192,0,0,.163-.114.837-.928,1-1,.2.04-.01.786,0,1m-1-15v1c-.09.09.122-.05,0,0Zm0,2v1h0v-1Zm0,5a6.491,6.491,0,0,1,0,1h0Zm0-1a6.492,6.492,0,0,1,0,1,4.708,4.708,0,0,1,0-1Zm0,3h0v2c-.224-.051-.826.092-1,0-.335-.1-.725-.989-1-1-.081-.142.021.142,0,0h1c.346-.05-.01-.694,0-1h1Zm-1-1h-1v-1l1,1c.253.163-.032-.236,0,0-.3-.061.245.082,0,0m0-4Zm0,1c-.285.142.143.776,0,1h-1v-1c.325-.072.817.214,1,0Zm-1-4v1l-1-1c-.113-.193.031.193,0,0,.183.04.868-.1,1,0m-1-4v-1c.1.133.989.849,1,1a4.8,4.8,0,0,1-1,0m0-10h1v1h-2c-.1-.029.05.082,0,0l1-1Zm-1,6,1,1h-1a8.291,8.291,0,0,0,1,1h-1c-.154-.082.061.132,0,0v-1h-1c-.1,0,.082.071,0,0v-1c.071-.174-.1.111,0,0h1v-1h0l1,1Zm0,7h0v-1c.285.031-.113.776,0,1m-1,1v-1c.193.093-.132-.151,0,0v1h0c-.215-.04.029.2,0,0m0-12c-.153-.071.174,0,0,0h-1a10.14,10.14,0,0,1,1-1h0c-.021.224.051.826,0,1Zm0,2v1a4.81,4.81,0,0,1,0-1c.061.021-.01-.05,0,0m0,8v-1h0v1Zm1-17h0v1h0a6.493,6.493,0,0,1,0-1m0-2a8.568,8.568,0,0,1,1,0c.122.113-.132,0,0,0h1c-.011.183-.939.857-1,1h0v-1h-1c.09-.153-.122.061,0,0m0,0h0c-.335-.051-.91.306-1,0Zm-1,7v1l-1-1c.214.132.887-.183,1,0m0,11-1-1c-.275-.192-.979.275-1,0,.245.122.849-.193,1,0a1.557,1.557,0,0,1,1,1m0,2c-.082-.021-.981.05-1,0v-1c.071.163,1,.837,1,1m-1-11h0c-.133.143.163-.072,0,0h-1c.082-.214.794.032,1,0m-1-13c-.071.082.069-.019,0,0-.072-.019,0,.082,0,0Zm0,3Zm-1-1v1c-.142-.122,0-.837,0-1Zm-1-2a6.675,6.675,0,0,1,0,1h-1c-.122-.143.021-.817,0-1Zm-1,2c.192.05-.163-.09,0,0Zm-1-1c.164.215-.051.786,0,1-.264-.031-.765-.928-1-1-.193-.213.09.224,0,0a6.65,6.65,0,0,1,1,0m-1,14a7.991,7.991,0,0,1,0,1h0v-1Zm-1-9h0a2.245,2.245,0,0,1-1-1Zm0-3v1h-1c-.163-.1.093.154,0,0v-1Zm0,7c-.163-.05-.879.09-1,0h0c-.1-.1.042.113,0,0v-1h1v1Zm0,5c-.082-.163.032.164,0,0h0c.071.142,0-.154,0,0Zm1,13h0Zm0-5c.174.04-.111-.1,0,0v1c-.153-.032.1.083,0,0Zm0,6h0c.317.092-.113-.265,0,0Zm0-12h0v-1h1a9.309,9.309,0,0,1-1,1m2,9c-.071-.336-.858.233-1,0,.031-.347.776-.805,1-1,.131.315-.011.705,0,1-.031.285.153-.214,0,0m1-1h0v-1h0c-.04.183.061.857,0,1Zm0-2c-.245-.019.182.051,0,0-.174-.122-.949.163-1,0-.193-.071.193,0,0,0-.174.113.081-.172,0,0,.122.163-.164.908,0,1h0c-.092.154.122-.061,0,0h0c-.163-.032-.878.113-1,0v-1c-.132-.132.081-.847,0-1h0l1-14c.233.019.939-.193,1,0l1,13c.113.113.869-.031,1,0h0v1h1c-.021.235.193.939,0,1-.206-.072-.836-.887-1-1-.183.04.1-.1,0,0l-1,1Zm2,1v1a6.668,6.668,0,0,1,0-1h0c-.032.195.079-.164,0,0m0-1h1a6.673,6.673,0,0,1,0,1c-.183-.019-.857-.908-1-1m2,7c-.295.142-.726-.071-1,0,.01-.224-.245-.939,0-1l4-2,1-1c-.021.265.233.9,0,1h-1c-.172.224.183.828,0,1h-1l-2,1c-.235.163.235.878,0,1m1,0h0Zm0,2-1,1v-2l1,1c.082.264-.021-.233,0,0m0,4h0Zm0-1c-.071-.008.04.061,0,0l-1-1h0v-1h1v1c.061.245-.083-.183,0,0,.1.122-.011.868,0,1Zm0,5c-.174-.042.011.213,0,0Zm0-8h0c.224.061.837-.082,1,0h0c-.225-.071-.867.143-1,0-.1-.132.04.122,0,0m1,3c-.083-.021.021.05,0,0h0c.069.021,0-.05,0,0Zm0,1c.061.032-.01-.05,0,0Z" transform="translate(15.845 0.141)"/>
        <path id="Path_670" data-name="Path 670" d="M63.385,28.487v2c.04.213-.215-.04,0,0,.09-.224-.011.213,0,0v-2c-.183-.154.174.072,0,0,0,.183-.072-.143,0,0" transform="translate(24.487 11.089)"/>
        <path id="Path_671" data-name="Path 671" d="M45.324,9.133h0c.05.061-.061.99,0,1a4.625,4.625,0,0,0,0-1" transform="translate(17.548 3.444)"/>
        <path id="Path_672" data-name="Path 672" d="M54.291.573v-1h-1v1h1c-.051-.172.092.111,0,0" transform="translate(20.581 0.004)"/>
        <path id="Path_673" data-name="Path 673" d="M48.221.483Z" transform="translate(18.651 0.094)"/>
        <path id="Path_674" data-name="Path 674" d="M74.937-.431h-1a12.816,12.816,0,0,0,1,1Z" transform="translate(28.935 0.008)"/>
        <path id="Path_675" data-name="Path 675" d="M77.137.475c-.113-.163-.847.092-1,0,.051.235.786-.021,1,0" transform="translate(29.735 0.103)"/>
        <path id="Path_676" data-name="Path 676" d="M75.526,27.873Z" transform="translate(29.346 10.705)"/>
        <path id="Path_677" data-name="Path 677" d="M72.72,29.278h0c-.021-.113.093.042,0,0Z" transform="translate(28.152 11.299)"/>
        <path id="Path_678" data-name="Path 678" d="M75.621,30.137h0v-1h0Z" transform="translate(29.252 11.44)"/>
        <path id="Path_679" data-name="Path 679" d="M72.468,30.09h1c-.183-.143-.776-.96-1-1Z" transform="translate(28.404 11.487)"/>
        <path id="Path_680" data-name="Path 680" d="M76.339,20.03a3.578,3.578,0,0,0,0-1,3,3,0,0,0,0,1" transform="translate(29.533 7.547)"/>
        <path id="Path_681" data-name="Path 681" d="M70.792,11.569c.061.254-.122.805,0,1a6.482,6.482,0,0,1,0,1h0l1,1c-.233.122-.939-.183-1,0a7.085,7.085,0,0,0,1,1h0c.05-.245-.213.019,0,0h1a13.056,13.056,0,0,0-1,1v-1c-.183.2-1,.755-1,1a6.674,6.674,0,0,0,0,1h0c.254.011.878.817,1,1h-1l1,1h0v1h0l-1,1h1c.154.175-.042-.2,0,0h-1v1c.183.172.817-.05,1,0-.061.082.163.969,0,1h-1c.01.172-.019-.132,0,0,.233.061.858-.163,1,0-.1.2-.878.837-1,1h0v1h1c-.245.1-.949-.233-1,0a13.051,13.051,0,0,0,1,1c.214.083-.151-.143,0,0h-1v1h1c.082.019-.032-.05,0,0v1h0c-.183-.163-.817.1-1,0v9a6.673,6.673,0,0,0,0,1v1l1,2c.113.233-.254-.031,0,0h1v-1c.011-.174-.029.122,0,0h1v1h0c.275-.01.828.183,1,0v-2h0c.082-.193.969-.817,1-1h-1c.1-.151-.122.071,0,0h1c.163.182-.1.817,0,1,.163.164.8-.061,1,0h1v-1h0c.061.021-.01-.05,0,0v1c.081.1-.1-.01,0,0l1-1-1-1c-.265.021.183-.09,0,0h0c-.122-.061-.928.082-1,0h1c.151-.174-.182-.908,0-1l1,1v-1h-1l1-1c.122.092-.133-.051,0,0h0l1-1h0v-2l1-1c-.031-.245.082.2,0,0h-1v-1h-1c.151.05.889-.1,1,0,.122-.072-.019.154,0,0v-5c.061-.214-.122.151,0,0h1v-1h-1a6.654,6.654,0,0,0,0-1v-1h1v-3c-.113.031.082-.081,0,0-.061.245-.878.826-1,1h0v1c.214.113.989-.224,1,0a6.672,6.672,0,0,1-1,0v-2h0l1-1h0c-.008-.131-.939.092-1,0-.082-.142.032.122,0,0l1-1v-2h0c-.183-.093.122-.867,0-1,.082-.081-.032.1,0,0-.113-.082.114.031,0,0l-3-1c-.183.061.153.878,0,1h-1c-.195.113-.817-.04-1,0h-2c.09-.213-.132-.837,0-1,.233.1.785-.053,1,0h0v-1c.133.021-.092.907,0,1h1c.195.183.757,0,1,0,.215-.1-.163.122,0,0h1c.172-.2.99-.755,1-1,.051-.1-.1.011,0,0v1h2c.213-.164-.008-.786,0-1v-3a6.669,6.669,0,0,1,0-1h6c.245-.008-.2.061,0,0v-4l-1,1c-.215.082.2-.031,0,0,.1-.2-.163-.867,0-1h1c.163-.163-.093.174,0,0v-4l-2-1h-1c-.174.193.2.969,0,1-.285.051-.99-.286-1,0a3.652,3.652,0,0,1-1,0h0l-1,1c-.225-.069.082-.805,0-1l-1,1c-.143.163.053-.172,0,0a6.673,6.673,0,0,1-1,0l-1-1h-1c-.264,0,.225.04,0,0l-1,1c-.1-.224.05-.776,0-1-.114-.061.1.008,0,0v1a6.484,6.484,0,0,1-1,0h0c-.224.081-.846-.142-1,0h0l-1-1h0v1c-.245-.051-.837.133-1,0h0v-1l1,1a2.941,2.941,0,0,0-1-1h-1l-1,1c-.2.144.09-.193,0,0a12.341,12.341,0,0,1-1,1h0v-1l2-1h0c.1-.122-.011-.868,0-1h-1l-5,1h0v1h0c.213.081.837-.142,1,0-.122.2-.928.8-1,1h0v-1c-.154-.081.142.029,0,0v5a6.308,6.308,0,0,0,0,1v1c-.01.174.032-.132,0,0h6Zm1,5c.214.01-.051.826,0,1-.163-.042.1-.857,0-1m8,0c-.122-.111.031.151,0,0,.132.122-.021-.143,0,0m-4,21h0c.081.019-.031-.05,0,0Zm1-1Zm1-2Zm0-1c-.082-.029,0,.081,0,0v-1h0Zm0-3h0c-.05.245.092.8,0,1h0v-3h0v1c.114.245.736-.021,1,0h0c-.05.151.132.931,0,1Zm0-6c.1.2-.04.8,0,1v2h0c-.082-.245.031.245,0,0v-3Zm0-2v-1a4.624,4.624,0,0,1,0,1v2c-.05-.214.021-.8,0-1Zm1,10-1-1c.019-.214.908-.837,1-1,.164.093-.061.868,0,1-.082.2.032-.172,0,0v2c-.164-.051.092-.867,0-1m-1-3,1-1h0v1Zm0-2h1c-.285-.071-.99.265-1,0m1-1Zm0-2h0v1h0a4.7,4.7,0,0,1,0-1m1,7c.122.081-.021-.143,0,0h0Zm0-2h0c.082.021-.029-.05,0,0m-1-8h0c.163.072-.133-.113,0,0Zm0-7v1a2.434,2.434,0,0,1-1-1Zm-1,6h0v-1h0Zm0-5c0,.642.04,1.747,0,2-.122-.131.06-.837,0-1v-1Zm-1,4h0Zm0,15h0v1h0Zm0-4c-.192-.061-.969.2-1,0,.224.042,1-.225,1,0m-1-15a4.811,4.811,0,0,1,0,1h0Zm0,11c.133.122-.053-.172,0,0h0c.011-.172-.029.122,0,0m9-19c.2.069.907-.151,1,0a5.538,5.538,0,0,1-1,1c-.206-.081.131-.857,0-1,.09-.193-.172.1,0,0m-1-3,1-4c.082.021-.032.95,0,1h0v1l-1,3c-.071-.032.01.082,0,0Zm-1,1c.183.061-.04.8,0,1h0Zm-1-3c.195.04.858-.113,1,0h-1Zm0-1Zm-2,10c.081.029.971-.081,1,0Zm-1-7v-1c.082.021-.032-.061,0,0Zm1-2-1,1h0v-1Zm-1,9c.072.172-.01-.164,0,0Zm-1-10h0v1h0Zm0,1v2h0v-1h-1Zm0,4h0v-1c.122.183-.031.807,0,1m-1,3h1v2a3.694,3.694,0,0,1,0,1c-.175-.325-.949-.683-1-1a18.8,18.8,0,0,1,0-2m-2,2Zm1-1h0c.05-.192-.1-.858,0-1h1c-.04.182-.928.849-1,1m0-6v1c-.213-.031.195-.918,0-1Zm0,1v0c.224.029-.04-.193,0,0m0-3v1h0c-.122-.317.061-.715,0-1,.285.142-.082-.233,0,0m-1,7,1-2v-1h1v1l-1,1c-.111.224.183.887,0,1-.215.151-.847-.183-1,0Zm-2,7a6.863,6.863,0,0,1,0,1h0v-1Zm0,7a5.587,5.587,0,0,1,0,1c-.061-.031.01.082,0,0Zm-1,8h0c.2.072-.132-.122,0,0l1,1v2a5.821,5.821,0,0,1-1-1v-1c-.061-.224.09.183,0,0Zm0,5v-1c.081-.245.857-.8,1-1a3.652,3.652,0,0,1,0,1v1c.172.183-.092-.183,0,0-.092.092.132-.018,0,0Zm2-1c-.254-.061-.958.235-1,0,.265.061.969-.233,1,0m-1-3v-1h0Zm1-4h0Zm-1,11h0c-.011-.224.1-.849,0-1h0v-1h0v1c.061.245-.09-.2,0,0l1,1c-.183.122-.817-.031-1,0m2-2c-.153-.051.1.1,0,0Zm1-1-1-1-1,1a8.6,8.6,0,0,1,1-1h1Zm-1-12c.132.132-.01.828,0,1-.061.183-.878-.113-1,0-.143-.133.011.163,0,0Zm-1-8h0c-.04.061.042-.019,0,0m1,14v-1h0c.214.1-.011.767,0,1Zm0,4v0Zm0-13v-1c.113.111-.043.857,0,1Zm0,5v1h0c-.153-.236.042.245,0,0h0v-1Zm1,6h-1c-.1-.09.042-.869,0-1h1c.09.072-.019.887,0,1m-1-13c.174.113-.09.817,0,1h0Zm0-1v1a6.129,6.129,0,0,1-1-1Zm-1-3c.142.245-.04.755,0,1h0Zm0,16h0c-.029.2.081-.174,0,0-.1-.195.01.183,0,0Zm0,5h0c.082.019-.031-.051,0,0m-1-27a6.488,6.488,0,0,1,1,0c-.051.256.172-.111,0,0-.133.122-.867.931-1,1Zm1,3Zm0,8c-.336-.029-.817.192-1,0v-1h0c.245.143-.09-.233,0,0Zm-1-2h0v-1c.172.061-.122.878,0,1m0-7c-.153-.039.031.143,0,0,.172.021-.011-.161,0,0m0,1c.132.051-.092.908,0,1h0Zm0,1c.142.132-.042.837,0,1h0Zm-1,0c.356.1-.051-.317,0,0-.335-.082.069.336,0,0m0-1c-.122-.163.061-.826,0-1h0v1Zm1-10c.082.021-.031-.061,0,0v1h-1c-.122-.153.029.142,0,0Zm-1,0h0c-.113-.092.042.132,0,0Zm0,3c.154.153-.032-.183,0,0Zm-1-1h0v-1c.163.132-.021.828,0,1m0-2Zm-1,2h1c-.019.236-.8-.1-1,0-.113-.113.031.154,0,0Zm1,2h-1l1-1a6.494,6.494,0,0,1,0,1m-1-1c.174.019-.011-.163,0,0Zm-2-4c-.183,0,.111-.887,0-1Zm-1,1c.192-.082-.183-.968,0-1h1a5.466,5.466,0,0,1,0,1h-2c-.081-.092,0,.1,0,0Zm3,5h-4l-1-1c.407.04.694-.153,1,0,.1-.286-.04-.765,0-1a6.537,6.537,0,0,1,1,1h2a7.976,7.976,0,0,1,0-1h0v1c.011.092-.069-.019,0,0h4v1c-.347.151-.7-.071-1,0Z" transform="translate(25.08 0.008)"/>
        <path id="Path_682" data-name="Path 682" d="M76.326,17.172c.04.254-.183-.122,0,0,.183-.2-.01.245,0,0v-1h0Z" transform="translate(29.546 6.404)"/>
        <path id="Path_683" data-name="Path 683" d="M70.426-.432h0v0Z" transform="translate(27.446 0.008)"/>
        <path id="Path_684" data-name="Path 684" d="M69.863,15.02c.111-.143-.069-.878,0-1h0Z" transform="translate(27.01 5.558)"/>
        <path id="Path_685" data-name="Path 685" d="M71.921.568l1-1h-1v1Z" transform="translate(27.951 0.008)"/>
        <path id="Path_686" data-name="Path 686" d="M73.468.539h0Z" transform="translate(28.404 0.038)"/>
        <path id="Path_687" data-name="Path 687" d="M47.656.577l-4-1a8.263,8.263,0,0,1-1,0h-12v1c-.285.071-.828-.153-1,0v1c.111.245.807-.1,1,0,.092.029-.031-.082,0,0v1h-1l1,1h0v2l-1-1c.082-.092.929.031,1,0h-1v-2c-.214.04-.826.887-1,1h0v1c-.021.276.214.887,0,1h0v-1a2.492,2.492,0,0,0-1-1c-.286.111.021.725,0,1h0v1h0c-.163.183.183.908,0,1-.154-.233-.958-.776-1-1v-1c-.182.051.151-.1,0,0h0v8c.069.151-.122-.111,0,0,.215.021-.008-.2,0,0v1h1v-2c.111-.233-.122-.818,0-1h0v2c.093.256-.143.837,0,1h0v0c-.133-.224-.857.163-1,0h0a4.8,4.8,0,0,0,0,1c.2-.121-.182-.928,0-1,.1.235-.051.776,0,1l1,1c-.092.143-.9-.093-1,0h0v-1c-.164-.122.172.031,0,0v3h0v1c-.214-.143.132-.837,0-1a3.6,3.6,0,0,0,0,1v23h12l2-9h-5v-3h0v-2h0v-3c.245-.114.744-.992,1-1h5a8.562,8.562,0,0,1,0-1c.193-.151.858-.847,1-1h0a8.251,8.251,0,0,1,0-1h0v2c-.143.235.01-.253,0,0v1h0l1-4h-1v-1a13.313,13.313,0,0,1,1,1v-2c-.022.017.024-.015,0,0-.081-.032.029-.918,0-1h0v-1h0l-1,1h-1v2c-.051.245.215-.021,0,0-.122-.225.029-.767,0-1v-1h0c-.163-.183.183-.878,0-1-.285-.113-.757.04-1,0h-5v-2h-2c.071-.264.765.04,1,0,.225-.122-.163-.858,0-1a7.974,7.974,0,0,1,1,0h0v-1c-.265.061.193-.132,0,0a8.269,8.269,0,0,1-1,0l1-1h0c.153-.183-.042-.808,0-1h0a2.545,2.545,0,0,1,1-1h1a8.249,8.249,0,0,1,1,0h2c.293-.011.837.183,1,0v-2c.242.061.828.868,1,1h-1v1h4v-1h0v-1h0Zm-20,9h0v-1a4.62,4.62,0,0,1,0-1c.253.233-.01.694,0,1h0a8.268,8.268,0,0,1,0,1m-1,7h0c.06.082-.011-.1,0,0Zm11,17h1a9.309,9.309,0,0,1-1,1h0Zm1,2c.082.019-.031-.05,0,0-.092.193-.908.849-1,1-.072-.029.01.081,0,0,.05-.183.9-.878,1-1m-1,1h0c-.2-.245-.939-.7-1-1Zm-2,1Zm0-1h0c-.051.154.1-.113,0,0m0-2v1h0c-.121-.061.029.092,0,0Zm6-16a9.707,9.707,0,0,1,1,1h-1v1c-.122-.2.032-.787,0-1,.082-.235-.143-.849,0-1m0,3c-.215-.051.011.214,0,0,.225.04,0-.224,0,0m-2,2v-1c.224.163.989.776,1,1Zm0-7h0c.3-.245.686-.9,1-1-.01.306.224.807,0,1-.315.2-.7-.1-1,0Zm-3,6v0Zm0-2h-1v-1a6.671,6.671,0,0,1,1,1m-1-3h0v1c-.1-.019.051-.939,0-1Zm0,1v1c-.111-.163.011-.817,0-1Zm0,1c.072.092,0-.1,0,0a11.512,11.512,0,0,1-1,1Zm-1,20h0c.011-.069-.061.04,0,0m-1-25h-1v-1h1Zm0,6Zm0-7h-1v-1a7.725,7.725,0,0,1,1,1m-1-5c.061.029-.008-.053,0,0v1a6.67,6.67,0,0,1,0-1Zm-1,6h1l-1,1h0l1,3v1c-.04.172.183-.01,0,0-.072-.214-.99-.8-1-1v-4Zm-1-9v1h0a5.228,5.228,0,0,1,0-1Zm-1,1a1.883,1.883,0,0,1,1,1v3h0v2h0l1,1c-.05.338-.746-.122-1,0h0a6.491,6.491,0,0,1,0-1h0v-1l-1-4Zm-1-1c.122.192-.071.817,0,1l1,2v1h0a6.475,6.475,0,0,1,0,1,6.494,6.494,0,0,0,0,1c-.051.082.069-.031,0,0h0l-1-5Zm-1,10c.061.04-.021-.082,0,0v1c-.061-.04.011.082,0,0,.021-.183-.092-.878,0-1m0,3c.214.082.878-.154,1,0v1c-.183-.151-.878.151-1,0h0Zm0,1c-.051.214-.9-.172-1,0h1Zm-1,2h0v-1h0c.214-.113.837.04,1,0a6.492,6.492,0,0,1,1,0l1-1h0c.153.092-.042-.174,0,0v1c-.1.151.131-.082,0,0h-2l-1,1h0c.011.174-.021-.131,0,0m4,5h0c-.215-.113.011-.765,0-1l-1-3v-1c.09-.215-.143-.867,0-1,.143.164-.053.817,0,1l1,1h0v4Zm1,3h-1a2.979,2.979,0,0,1-1,0c.061-.356.91-.746,1-1v-2h1l-1,1v1a4.643,4.643,0,0,0,1,1m-3-5h0c-.082-.131,0,.133,0,0Zm0-1v-1h0v1Zm-1-2h1c.061.042-.011-.072,0,0h-2c.143-.1.879.05,1,0m0,2h0c.071.195-.01-.183,0,0-.09-.021.032.051,0,0m0,1v0Zm1,11h-1c-.245-.072.019.235,0,0h0c.2.05.825-.1,1,0Zm0-9h0v1h0Zm0,2c.019-.2-.061.172,0,0,.142.111-.04-.154,0,0v1c-.151-.133.04-.825,0-1m0,8c.183.05.847-.1,1,0-.2-.008-.867.142-1,0m1-4v-1c.142.072-.092.878,0,1Zm0-5c.114.172.96-.172,1,0Zm1,3c.233.183-.04-.275,0,0v1h0l-1-1c.133-.264.826.195,1,0m0,9h0c.071.029.992-.053,1,0Zm1-2c-.214.2.2.857,0,1h-1l1-1h0v-1c-.172-.183-.878-.807-1-1h0v-3c.161.224-.072-.233,0,0v1l1,2c.276.131-.113.787,0,1v1Zm0-6h0c-.243-.021.021.243,0,0m0,3c-.122-.233.029-.776,0-1h0c.061.04-.019-.071,0,0h0Zm0-12h0l-1-1c-.151-.306,0-.735,0-1v-2h-1v-1c-.031-.385.05-.7,0-1l-1-2,1-2c.3.06-.011-.314,0,0a6.471,6.471,0,0,1,0,1v3c.154-.143.846-.91,1-1h0a5.7,5.7,0,0,1,0,1v2a3.645,3.645,0,0,1,0,1l1,1c.072.367-.082.755,0,1,.132.122-.142-.072,0,0h0l1,1v3c-.09.183-.868-.122-1,0a6.47,6.47,0,0,1,0-1Zm1,6v1a6.607,6.607,0,0,1-1-1v-1h0v-1c.143.132.919-.172,1,0v2Zm0,1h1v1c-.335.264-.919-.264-1,0-.053.193.1.849,0,1v-1a8.235,8.235,0,0,1,0-1m0,6v-2a4,4,0,0,1,0-1c.161.306-.019.694,0,1l1,1h0v1a6.445,6.445,0,0,0,0,1c-.264,0-1-.694-1-1m1,1v1c-.151.143.081-.164,0,0v1a9.981,9.981,0,0,1-1,0v-2Zm2-32c-.09-.213.021.172,0,0,.153.111-.082-.122,0,0,.183.06.878-.122,1,0Zm1-1Zm4-1a5.82,5.82,0,0,1-1-1,2.16,2.16,0,0,1,1,1m-3-2Zm0,7h1c.072.09,0-.1,0,0Zm1-4h0c.061.213-.01-.2,0,0Zm1,3Zm0,1h0l1-1c.192.021,0,.837,0,1-.163.163-.817-.031-1,0m2-5Zm0,4c.04-.327-.233-.836,0-1,.093.245-.051.755,0,1Zm1-2c-.01.082.061-.031,0,0h-1c-.1-.021-.992.093-1,0,.161-.193.828.111,1,0l1-1h0Zm3-4Zm0,1h0v1h0v-1Zm0,3v-1h0Z" transform="translate(10.216 0)"/>
        <path id="Path_688" data-name="Path 688" d="M28.657,2.543v-2h0c.142.314-.04.7,0,1v1h1c-.072-.265.082-.807,0-1h0v-1h-3v4l2-1Zm-2-2v1h0v-1Zm0,2v-1l1,1h-1Z" transform="translate(10.215 0.034)"/>
        <path id="Path_689" data-name="Path 689" d="M28.647,12.05c-.111.346.042.705,0,1,.032.367.8-.245,1,0h0c-.01-.338.031.275,0,0-.082-.375-.887-.735-1-1" transform="translate(11.225 4.527)"/>
        <path id="Path_690" data-name="Path 690" d="M-.128,66.277h1l-1-1Z" transform="translate(0 25.3)"/>
        <path id="Path_691" data-name="Path 691" d="M-.207,45.416h1c-.113-.282.113-.493,0-1Z" transform="translate(0.079 17.161)"/>
        <path id="Path_692" data-name="Path 692" d="M4.812,56.538c.011.2.993.787,1,1-.015-.425-.992-1.022-1-1" transform="translate(2.061 22.039)"/>
        <rect id="Rectangle_370" data-name="Rectangle 370" width="1" height="1" transform="translate(16.872 61.577)"/>
        <path id="Path_693" data-name="Path 693" d="M17.508,67.177c-1.073-2.255-1.927-4.8-3-7-1.3-2.875-2-4.252-2-6a32.943,32.943,0,0,0,2-9,5.768,5.768,0,0,1,1,0,36.173,36.173,0,0,1,1-4,17.306,17.306,0,0,0,1-5,11.869,11.869,0,0,0,0-2,5.862,5.862,0,0,0-1,0c-1.974,0-2.984,1.2-4,3a24.179,24.179,0,0,0-2,6,14.331,14.331,0,0,1-2,5,11.738,11.738,0,0,0,0,2h-1a49.133,49.133,0,0,1-1-8c-.113-3.1.17-6.083,0-8h-3c-1.184,0-1.605.211-2,1v15c-.056,2.876-.564,4.493,0,5-.62.846-1,2.674-1,6,0,1.58.83,3.8,1,6a11.85,11.85,0,0,1,0,3h1l-1,1v4a12.39,12.39,0,0,0,3,1c.509,0,.986-.718,2-1,.283-2.312.83-3.929,1-5a11.441,11.441,0,0,0-2,0c.564-.056.718.057,1,0,0-2.965-.021-4.944,0-5-.085-1.51.45-2.6,0-3,.168-.113-.282.056,0,0-.17-1.692.114-3.209,0-4,.735.057,1.605-.113,2,0,.507,1.8.366,2.323,2,3,0,.17.056,1.268,0,2a5.694,5.694,0,0,0,0,1c0,1.58.154,2.323,1,3-.225.395.057.718,0,1l1,1c1.13,3.665,1.872,5.7,3,7a10.877,10.877,0,0,0,4-1,8.136,8.136,0,0,0-1-4,10.063,10.063,0,0,1-1-4m-14-11a5.836,5.836,0,0,1,1,0l-1,1Zm1,3c-.225.281-.55.886-1,1-.057-.4-.943-.887-1-1Zm-1,11c-.281-.563,0,.056,0,0h0Zm0-3c.056-.056-.282,0,0,0,.057.17-.225.718,0,1h0Zm2-1h-2c-.057-.17-.943.057-1,0Zm1-5h-2v-1h2Zm0-4h-2a3.68,3.68,0,0,1,2-1Zm-1-1c0-.225-.113-.831,0-1h1Zm4-1a2.794,2.794,0,0,0,1,0c-.226.45-.323-.168-1,0,.17-.282-.17.056,0,0m-1-4h-1v-1h1c-.057.338.056.832,0,1m0,5a5.91,5.91,0,0,1,1,0v1c-.17-.282-.209.057-1,0,.113-.395-.113-.83,0-1m3,4h-2c.282-.057,1.379.057,2,0Zm0-2c-.959.113-1.493.887-2,1-.225-.395-.943-.831-1-1,1.13,0,2.379-.057,3,0Zm0-5h-2c0-.17-.113.225,0,0,.732-.057,1.605,0,2,0-.114.17,0-.17,0,0m3-11h0c-.395-.225-1,.17-1,0Zm-2,1h0v1c.4,0,1-.169,1,0h-1Zm0,6c.452-.057.718.057,1,0h-1Z" transform="translate(0.364 13.4)"/>
        <path id="Path_694" data-name="Path 694" d="M26.107,41.434h-1c-.026.377-.2.683,0,1Z" transform="translate(9.765 16.143)"/>
        <path id="Path_695" data-name="Path 695" d="M23.793,45.29h0v-1c-.282-.057.056,0,0,0Z" transform="translate(9.079 17.287)"/>
        <path id="Path_696" data-name="Path 696" d="M30.456,36.162c0-.846-.55-.718-1-1a12.2,12.2,0,0,0-3-1c-1.409-.057-3.155,0-4,0a9.6,9.6,0,0,0-5,1c-.17,1.184-1,2.266-1,3,0,2.65-.057,4.493,0,5,0,7.669.548,11.55,1,12-.621.621-1,2.026-1,4a30.808,30.808,0,0,0,0,4,39.421,39.421,0,0,0,1,4c0,.395-.832.929-1,2a11.439,11.439,0,0,0,0,2c0,1.974.7,3.38,2,4-.509.057,1.544,0,6,0,2.763,0,4.154-.155,5-1,.17-.621,1-1.548,1-2,0-1.41-1.252-1.661-3-2l-5-1a9.207,9.207,0,0,1-1-4c0,.113-.056-.954,0-4a2.649,2.649,0,0,0-1,0c.168-.113.605-.943,1-1a9.884,9.884,0,0,1,2-4c1.07.339,2.688.057,5,0,.282-.564,1-.266,1-1a26.246,26.246,0,0,0-1-3,44.282,44.282,0,0,0-5,0l-2-2c.057-.509,0-1.323,0-2,0-.564.057-.929,0-2s0-2.493,0-3a10.667,10.667,0,0,1,0-3h5a7.413,7.413,0,0,0,3-1,26.433,26.433,0,0,0,1-3m-4,19v1h-2v-1c.621-.057,1.605,0,2,0m-8-10h2a11.538,11.538,0,0,0-2,0Zm2,11h-2a3.043,3.043,0,0,1,2-1Zm0,10v1h0c-.057-.225.113-.718,0-1Zm-2-13v-1a5.714,5.714,0,0,1,3,1Zm2-2c.282-.677.548.057,1,0-.507.282-.832-.168-1,0m-1,12h-1a1.868,1.868,0,0,1-1-1h2Zm0-3v-1c.113,0-.282-.057,0,0,0,.395.225.831,0,1m3,11c-.282.057-.493-.168-1,0a4.1,4.1,0,0,0-2-1c.959,0,1.872.661,3,1m-2-16v-1a2.9,2.9,0,0,1,1,0Zm1-5h-1c-.282-.17,0-.832,0-1h1Z" transform="translate(6.416 13.415)"/>
        <rect id="Rectangle_371" data-name="Rectangle 371" width="1" height="1" transform="translate(34.872 71.577)"/>
        <path id="Path_697" data-name="Path 697" d="M37.376,58.956a2.849,2.849,0,0,0,1-1h-1Z" transform="translate(14.496 22.621)"/>
        <path id="Path_698" data-name="Path 698" d="M42.6,36.162c0-.846-.55-.718-1-1a12.2,12.2,0,0,0-3-1c-1.409-.057-2.154,0-3,0a14.024,14.024,0,0,0-6,1,17.508,17.508,0,0,0,0,3c0,2.65-.057,4.493,0,5,0,7.669-.45,11.55,0,12-.62.621-1,2.026-1,4,0,.959.832,2.252,1,4a29.8,29.8,0,0,1,0,4,7.456,7.456,0,0,1,0,2c-.113,1.071-1,1.437-1,2,0,1.974.7,3.38,2,4-.509.057,1.544,0,6,0,2.763,0,5.154-.155,6-1a7.866,7.866,0,0,0,0-2c0-1.41-1.252-1.661-3-2l-4-1a9.207,9.207,0,0,1-1-4c0,.113-.057-.954,0-4a2.647,2.647,0,0,0-1,0c.168-.113-.395-.943,0-1a9.884,9.884,0,0,1,2-4c1.07.339,2.688.057,5,0,.282-.564,1-.266,1-1a26.246,26.246,0,0,0-1-3,44.282,44.282,0,0,0-5,0l-2-2c.057-.509,1-1.323,1-2,0-.564-.943-.929-1-2s0-2.493,0-3a8.949,8.949,0,0,1,1-3h4a14.185,14.185,0,0,0,4-1v-3m-4,19v1h-1v-1a5.692,5.692,0,0,1,1,0m-8-10h2a11.538,11.538,0,0,0-2,0Zm2,11h-1c0-.17-.128-.83,1-1Zm1,10v1h-1c-.057-.225.113-.718,0-1Zm-2-13v-1c1.635.17,2,.832,2,1Zm1-2c.282-.677.548.057,1,0-.507.282-.831-.168-1,0m-1,12h-1a1.868,1.868,0,0,1-1-1h2Zm0-3v-1c.113,0-.282-.057,0,0,0,.395.226.831,0,1m4,11c-.282.057-.493-.168-1,0a4.1,4.1,0,0,0-2-1c.959,0,1.872.661,3,1m-2-16-1-1a2.9,2.9,0,0,1,1,0Zm0-5h0c-.282-.17-1-.832-1-1h1Z" transform="translate(11.268 13.415)"/>
        <path id="Path_699" data-name="Path 699" d="M38.109,59.647h1l-1-1c-.282-.057.056,0,0,0Z" transform="translate(14.763 22.929)"/>
        <path id="Path_700" data-name="Path 700" d="M54.753,35.13a88.373,88.373,0,0,0-12-1c-.395.17-.323.929-1,2,0,9.192-.057,14.477,0,16,.056,1.692-.057,3.493,0,4,.056.282-.169.661,0,1a10.344,10.344,0,0,0,0,2v2c-.339.282.113.605,0,1a5.768,5.768,0,0,1,1,0,5.1,5.1,0,0,0-1,3c-.057,1.409.281,1.887,0,2a39.969,39.969,0,0,1,0,7h1v2a27.551,27.551,0,0,0,4-1c.282-.564-.282-.605,0-1a56.753,56.753,0,0,1,0-7c.056-3.1.113-4.816,0-6a11.246,11.246,0,0,0,4-1,15.875,15.875,0,0,0,3,0,3.1,3.1,0,0,1,2-1,19.865,19.865,0,0,0,3-6c-.057-.45,0-1.266,0-2,0-.564-.057-1.477,0-3,.057-1.578,0-3.154,0-4,0-5.132-1.631-8.041-4-9m-11,30h1c-.395.057-.379-.17-1,0m1-6c-.056-.225.057.057,0,0,.507-.056,1.04,0,2,0-.339.168-.984-.113-2,0m7-10a30.56,30.56,0,0,0,0,4l-1,3h-1c-.395-.057-.491-.338-1,0l-2-1a9.2,9.2,0,0,1,0-2c.226-3.44-.17-7.489,0-12,1.409-.395,2.929-1.056,4-1,.846,1.242,1,2.8,1,5a29.717,29.717,0,0,1,0,4m1,6a5.6,5.6,0,0,1,0-1,1.588,1.588,0,0,1,1,1Zm2-3h-1c.452-.056.662-.225,1,0Z" transform="translate(16.119 13.447)"/>
        <path id="Path_701" data-name="Path 701" d="M61.924,51.769h0v-1c-.282-.057.056,0,0,0Z" transform="translate(23.948 19.808)"/>
        <rect id="Rectangle_372" data-name="Rectangle 372" width="1" height="1" transform="translate(83.872 61.577)"/>
        <path id="Path_702" data-name="Path 702" d="M61.924,45.713h0v1c.338-.168-.17-.662,0-1" transform="translate(23.948 17.864)"/>
        <path id="Path_703" data-name="Path 703" d="M69.954,39.162v-3c0-.846-.55-.718-1-1a12.2,12.2,0,0,0-3-1c-1.409-.057-2.155,0-3,0a14.02,14.02,0,0,0-6,1,17.507,17.507,0,0,0,0,3c0,2.65-.057,4.493,0,5,0,7.669-.452,11.55,0,12-.621.621-1,2.026-1,4,0,.959.83,2.252,1,4a29.8,29.8,0,0,1,0,4,7.456,7.456,0,0,1,0,2c-.113,1.071-1,1.437-1,2,0,1.974.7,3.38,2,4-.509.057,1.544,0,6,0,2.763,0,5.154-.155,6-1a7.867,7.867,0,0,0,0-2c0-1.41-1.252-1.661-3-2l-4-1a9.207,9.207,0,0,1-1-4c0,.113-.056-.954,0-4a2.649,2.649,0,0,0-1,0c.168-.113-.395-.943,0-1a9.884,9.884,0,0,1,2-4c1.07.339,2.688.057,5,0,.282-.564,1-.266,1-1a26.247,26.247,0,0,0-1-3,44.282,44.282,0,0,0-5,0l-2-2c.057-.509,1-1.323,1-2,0-.564-.943-.929-1-2s0-2.493,0-3a8.98,8.98,0,0,1,1-3h4a14.184,14.184,0,0,0,4-1m-4,16v1h-1v-1a5.694,5.694,0,0,1,1,0m-8-10h2a11.538,11.538,0,0,0-2,0Zm2,11h-1c0-.17-.128-.83,1-1Zm1,10v1h-1c-.057-.225.113-.718,0-1Zm-2-13v-1c1.635.17,2,.832,2,1Zm1-2c.282-.677.548.057,1,0-.507.282-.832-.168-1,0m-1,12h-1a1.868,1.868,0,0,1-1-1h2Zm0-3v-1c.113,0-.282-.057,0,0,0,.395.225.831,0,1m4,11c-.282.057-.493-.168-1,0a4.1,4.1,0,0,0-2-1c.959,0,1.872.661,3,1m-2-16-1-1a2.9,2.9,0,0,1,1,0Zm0-5h0c-.282-.17-1-.832-1-1h1Z" transform="translate(21.919 13.415)"/>
        <path id="Path_704" data-name="Path 704" d="M80.2,34.24c-.4,0-.605-.282-1,0h-10c-.734,1.071-1,2.8-1,5,0,.9.832,2.477,1,4a15.708,15.708,0,0,1,0,3h-1a5.488,5.488,0,0,0,0,1l1,1-1,1c-.057,3.383,0,8.234,0,15,.17.621,1,1.155,1,2,0,.564-.887,1.872-1,3-.057,1.071,0,1.493,0,2a7.9,7.9,0,0,0,1,4c.732.056,1.493,0,2,0,1.523,0,2.718-.209,3-1,.113-.281-.113-2.237,0-5h-1c.226-.225.832.057,1,0,.057-3.665-.113-7.14,0-9,.732-.621,1.831-.718,2-1h0a2.978,2.978,0,0,0,0,1,5.7,5.7,0,0,1,1,0h1l2,1h-2a98.244,98.244,0,0,0,2,14l2,1c2.763-.225,3-1.026,3-3v-3c-.789-1.016-1.493-3.124-2-6l-1-6c1.521-.959,2.718-2.026,3-4v-6a5.966,5.966,0,0,0-1,0,5.965,5.965,0,0,1,1,0c0-4.229-.057-6.913,0-9-1.862-3.1-3.422-5-5-5m4,8h-2l-1-1a9.18,9.18,0,0,1,3,1m0,2a7.791,7.791,0,0,0-2,0c.283-.677,1.38-.831,2-1a5.861,5.861,0,0,0,0,1m-1,7-1,1-1-1c.732.282,1.605-.169,2,0m-3-13,1,2h-1a1.141,1.141,0,0,0-1-1c.168-.17-.113.056,0,0l-1-1c.732,0,1.661-.056,2,0m-1-1h-1c-.4-.225,0-.774,0-1,.508.226.718.943,1,1m-5,0a2.851,2.851,0,0,1,1,0,1.847,1.847,0,0,1,0,1c-.168.113.057-.113,0,0-.17-.281-.493-.887-1-1Zm-1,3c-.734.225-.605.832-1,1,.732-.507.605-1.17,1-1m0,10v1c-.789.17-1.605-.168-2,0h0Zm-1-13c-.732.057-.605.887-1,1,.057-.17-.014-1,1-1m-1,11c0,.281.226-.17,0,0v-1c.225,0-.17.943,0,1m-1,14h2v1h-2Zm1,2h-1a2.728,2.728,0,0,1,1,0m-1,1h2c.056.113-.225.719,0,1h0l-2-1m3,3h-1c.395.057.718-.056,1,0m-1,3h-1v-1a16.277,16.277,0,0,1,2,1,2.927,2.927,0,0,0-1,0m1-15c.169-.057-.283-1,0-1,0,.057.943.718,1,1h-1c0-.17-.113.168,0,0m0,2v-1c.056,0-.282-.113,0,0l1,1Zm2-2c-.169-.338-.718-1.323-1-2a5.7,5.7,0,0,1,1,0v2c-.057,0,.113-.056,0,0m1,2h0a1.514,1.514,0,0,1,0-1h-1c.621-.62,1.605-1.718,2-2Zm-1-4c-.9-1.3-1-3.026-1-5a25.912,25.912,0,0,1,0-3,25.921,25.921,0,0,0,0-3,11.849,11.849,0,0,0,0-2,2.151,2.151,0,0,1,1-1l1-1,3,1c.509,4.793,1,7.719,1,8,0,2.651.014,4.7-1,6-.846,0-2.477-.113-4,0m2,3,1-1c.283,0-.17-.057,0,0a4.219,4.219,0,0,0-1,1m2,3c.057-.225-.168-.83,0-1h1c-.282.282-.55.887-1,1m2-2h1l-1,1c-.17,0,.17-.114,0,0,.282-.621.113-.886,0-1m2,12h-1c.846.113,1-.17,1,0m0-4h-2a5.649,5.649,0,0,1,2,0m-2-11h-2a5.821,5.821,0,0,1,0-1c2.762.507,4,.83,4,1Zm3-4a8.216,8.216,0,0,0-2-1h2c.113.17,0-.056,0,0a2.8,2.8,0,0,1,0,1m-1-11,1,1h-1Z" transform="translate(26.675 13.336)"/>
        <path id="Path_705" data-name="Path 705" d="M77.973,34.126v-2h-1v2Z" transform="translate(29.899 12.451)"/>
        <path id="Path_706" data-name="Path 706" d="M76.974,65.656h0l1-2h-1Z" transform="translate(29.899 24.921)"/>
        <path id="Path_707" data-name="Path 707" d="M89.9,41.159c-.036-.49-1-.732-1-1,0-.157.981-.851,1-1-.075-.121-1,.093-1,0,.026,0,.925-.028,1,0-.01-.185,0-.472,0-1,0-.167-.006.167,0,0s-.006-.912,0-1,0,.038,0,0c0-.945-.8-1.389-1-2-.222-.139,0-.889,0-1-3.354-.036-5.38-.065-6,0-.111.083-.722.732-1,1-.01.157.018-.213,0,0s.01.861,0,1,0-.1,0,0h1a4.52,4.52,0,0,0-1,0c0,1.7.083,4.241,0,6,.074.982.825.926,1,1,0,.333-.251.889,0,1a8.506,8.506,0,0,0,1,0,5.043,5.043,0,0,1,1,0,4.394,4.394,0,0,1,1,0,19.764,19.764,0,0,0,2,0c.686-.036.881.213,1,0-.01-.008-.01.038,0,0h0a4.731,4.731,0,0,0,1-2,8.457,8.457,0,0,0,0-1m-1-6c.036,0,.019-.046,0,0a7.2,7.2,0,0,0-1,0,3,3,0,0,1,1,0m-1,0v1a9.2,9.2,0,0,0,0-1Zm-4,0c-.065.01.029-.028,0,0-.017-.028.028.018,0,0,.111,0-.029-.008,0,0m0,0c-.195.083.176-.028,0,0,.056-.111-.315,0,0,0m-1,8h0c.15-.028.9,0,1,0-.176.065-.925-.046-1,0m1,0c-.036-.064.036.038,0,0h0c0,.038-.026-.064,0,0Zm4,0c-1.334.111-2.572-.046-4,0-.082-.157.064-.73,0-1,.018-.879-.019-1.273,0-2s-.01-1.7,0-2,0-.01,0,0c0-.222.006-.787,0-1s0,.157,0,0v-1h0v-1h0a5.762,5.762,0,0,0,1,0c.789-.056,1.573,0,2,0,.268,0-.111-.008,0,0a3.305,3.305,0,0,0,1,1c.214.075-.186.019,0,0-.1.149,0-.046,0,0h0v1c-.157.149-.065.389,0,1-.047,1.473.029,1.972,0,2,.131.056,0,.434,0,2-.186.075.026.861,0,1m0,0h0c.008.028,0-.018,0,0Zm1,0c.01,0-.167-.018,0,0Zm0,0h0c-.085.01.131-.046,0,0m0-3h0c-.085,0,0,.038,0,0Zm0,0h0c-.157.038.064-.046,0,0" transform="translate(31.971 13.418)"/>
        <path id="Path_708" data-name="Path 708" d="M86.287,35.667c-.092,0,.065-.036,0,0h-2c-.139.167-1,.676-1,1,0,.139-.029-.231,0,0,.026.288.99.972,1,1h-1c-.01.019,0-.083,0,0,.018.01-.029-.028,0,0s.982-.008,1,0h-1c-.01.343,0,1.825,0,3,.046.167.036-.389,0,0-.047.361.853.825,1,1,.5.028-.093.093,0,0,.056-.065.99-.573,1-1-.038-.018-.926.028-1,0h1a7.687,7.687,0,0,1,0-1c.1-.036-.082.093,0,0h0c-.018.038,0-.018,0,0,.121,0-.046-.01,0,0,.039.038-.019-.038,0,0h0c.046.464.74,1.111,1,2h0a6.919,6.919,0,0,0,1,0c.072-.074,0,.129,0,0,0-.064.01.065,0,0v-1c-.157-.157-.908.427-1,0v-1c.3-.157.944-.722,1-1v-1c-.026-.01.1,0,0,0,.056-.008-.074,0,0,0,0-.741-.008-.786,0-1-.379-.463-.685-1-1-1m0,1h0c.3.056,0-.018,0,0Zm0,1c-.082,0,.121-.036,0,0,.121-.092-.075-1,0-1,0,.038-.01.982,0,1m0,1Zm0-2h0a9.123,9.123,0,0,0-1,0h1a9.2,9.2,0,0,0-1,0c.167,0,.954-.008,1,0m-1-1h0c-.075-.046,0,.019,0,0Zm-1,0c.074,0,.935-.008,1,0,.029.047-.01.982,0,1-.026.01.018-.018,0,0a9.23,9.23,0,0,0-1,0Zm0,2v1c-.168.028.074-.028,0,0h0Zm0-1h0c.01-.036-.2,0,0,0m0,1c0,.038.047-.028,0,0h0c.056,0-.018-.008,0,0m0,2h0c-.065-.028.039,0,0,0Zm0,0c.024.006-.033,1,0,1s-.036,0,0,0h0v-1c.01,0-.022,0,0,0m0,1Zm0,0h0c-.018-.018.029.019,0,0Zm0,1h0v0c-.092,0,.046-.01,0,0m0-3c0,.01-.019-.056,0,0h0c0-.065-.111,0,0,0m0,1v-1c.026,0-.039-.01,0,0v1Zm1-1c.01,0-.014,0,0,0s-.029,0,0,0-.018,0,0,0h0c-.029,0,.008-.008,0,0-.01-.008.093.149,0,0m0,1h0c-.019-.046-.029.038,0,0v-1c.072-.056-.121.075,0,0Zm0-1c-.176-.185-1-.694-1-1,0-.056.976.232,1,0s0-.944,0-1c0-.129.026.093,0,0,.213-.147-.121.047,0,0a9.053,9.053,0,0,1,1,0,2.941,2.941,0,0,1,0,1c0,.4-.8.805-1,1-.065,0,.407-.018,0,0m0,0h0c-.046.038.056-.074,0,0m1,1c.01-.028-.046.028,0,0h0c-.074.047.085-.008,0,0m0,1h0c.167.019,0-.018,0,0m0,0c-.167.018.019,0,0,0,.038-.038-.147-.018,0,0m0-1c.056-.083.018.019,0,0,.054-.018-.01,0,0,0h0c-.046,0,.026-.008,0,0m0-1h-1c0-.018-.018.056,0,0,.538.065,1-.038,1,0Zm0,0c-.029-.036.121.028,0,0v-1h0c.026.028,0,.992,0,1s.026-.056,0,0m0-2Z" transform="translate(32.585 13.91)"/>
        <path id="Path_709" data-name="Path 709" d="M85.647,35.8h0c.008.047-.029-.129,0,0Z" transform="translate(33.225 13.778)"/>
        <path id="Path_710" data-name="Path 710" d="M85.648,39.934Z" transform="translate(33.224 15.643)"/>
      </g>
    </g>
  </g>
</svg>
