<svg xmlns="http://www.w3.org/2000/svg" width="49" height="49" viewBox="0 0 49 49">
  <g id="instagram-white-icon" transform="translate(-0.12 -0.198)">
    <path id="Path_289" data-name="Path 289" d="M30.808,26.887c-2.125,0-3,1.874-3,4s.875,4,3,4a4,4,0,0,0,0-8" transform="translate(-6.688 -6.689)" fill="#fff"/>
    <path id="Path_290" data-name="Path 290" d="M37.99,22.069c-.209-.539.4-.6,0-1a7.142,7.142,0,0,0-2-1c-.406-.159-.875.051-2,0-1.218-.056-1.918,0-5,0s-2.783-.056-4,0c-1.126.051-1.594-.159-2,0a7.142,7.142,0,0,0-2,1c-.4.4-.791.461-1,1a27.086,27.086,0,0,0,0,3c-.055,1.218,0,.918,0,4s-.055,3.783,0,5c.051,1.126-.159,1.594,0,2,.209.539.6.6,1,1a7.142,7.142,0,0,0,2,1c.406.159.874.949,2,1,1.217.055.917,0,4,0s3.782.055,5,0c1.125-.051,1.594-.841,2-1a7.142,7.142,0,0,0,2-1c.4-.4-.209-.461,0-1,.158-.406.949-.874,1-2,.056-1.217,0-1.917,0-5s.056-2.782,0-4a9.973,9.973,0,0,0-1-3m-9,13a6,6,0,1,1,6-6,6.052,6.052,0,0,1-6,6m7-10a2.667,2.667,0,0,1-2-2c0-.765,1.235-1,2-1s1,.235,1,1-.235,2-1,2" transform="translate(-4.87 -4.871)" fill="#fff"/>
    <path id="Path_291" data-name="Path 291" d="M24.12.2a23.653,23.653,0,0,0-24,24c0,13.532,10.468,25,24,25a25.361,25.361,0,0,0,25-25c0-13.533-11.468-24-25-24m12,29a8.914,8.914,0,0,1-1,3,4.665,4.665,0,0,1-1,2,4.656,4.656,0,0,1-2,1,8.9,8.9,0,0,1-3,1c-1.231.056-1.865,0-5,0s-2.769.056-4,0a8.9,8.9,0,0,1-3-1,4.66,4.66,0,0,1-2-1c-.642-.642-1.7-1.241-2-2-.285-.734.056-1.771,0-3s0-1.865,0-5-.056-2.769,0-4-.285-2.266,0-3c.3-.759,1.358-1.359,2-2s1.241-1.705,2-2c.734-.286,1.771.056,3,0s.865,0,4,0,3.769-.057,5,0,2.266-.286,3,0c.76.295,1.359,1.358,2,2a4.66,4.66,0,0,1,1,2,8.92,8.92,0,0,1,1,3c.056,1.231,0,.864,0,4s.056,3.769,0,5" transform="translate(0 -0.001)" fill="#fff"/>
  </g>
</svg>
