<svg xmlns="http://www.w3.org/2000/svg" xmlns:xlink="http://www.w3.org/1999/xlink" width="137" height="183" viewBox="0 0 137 183">
  <defs>
    <filter id="Rectangle_1332" x="0" y="99" width="137" height="84" filterUnits="userSpaceOnUse">
      <feOffset dy="3" input="SourceAlpha"/>
      <feGaussianBlur stdDeviation="3" result="blur"/>
      <feFlood flood-opacity="0.161"/>
      <feComposite operator="in" in2="blur"/>
    </filter>
    <clipPath id="clip-path">
      <rect id="Rectangle_374" data-name="Rectangle 374" width="130" height="164" transform="translate(0.253 -0.466)" fill="none"/>
    </clipPath>
    <clipPath id="clip-path-2">
      <rect id="Rectangle_373" data-name="Rectangle 373" width="108" height="82" transform="translate(-0.178 -0.384)" fill="none"/>
    </clipPath>
  </defs>
  <g id="logo" transform="translate(-891 -73)">
    <g transform="matrix(1, 0, 0, 1, 891, 73)" filter="url(#Rectangle_1332)">
      <rect id="Rectangle_1332-2" data-name="Rectangle 1332" width="119" height="66" transform="translate(9 105)" fill="#fff"/>
    </g>
    <g id="Group_389" data-name="Group 389" transform="translate(894.747 73.466)" clip-path="url(#clip-path)">
      <path id="Path_711" data-name="Path 711" d="M130.253,61.535c-.056-.1-.958.146-1,0h0c-.028-.1-.027-.147,0,0-.083.519.105.831,0,1-.428-1.082.221-4.829,0-6,.088-1.293-.2.706,0,0v-2c.417-.173.756-3.044,1,0v-3a20.536,20.536,0,0,0,0-5c.09-1.292-.325-3.126,0-2l-1-4h0a100.85,100.85,0,0,1,1-14c-.105-1.429-1.116-2.61-1-5l1-1c-.125-1.832.373-5.212,0-6,.456-.937.032-2.768,0-5-.031-1.278.031-2.741,0-4-.035-2.008-.02-4.434,0-6-.36-.007-.685.007-1,0v1c-.942,0-2.057,0-3,0-.469.01-1.522-.009-2,0-.37.012-.622-.012-1,0-1.152.069-2.623-.085-4,0l1,1c-2.375.34-6.243-1.042-10-1a5.132,5.132,0,0,1,2,0c-4.488-.938-9.929.684-14,0a5.167,5.167,0,0,1-2,0h0c-.1,0-.842,0-1,0-.294-.047-.687.049-1,0-.464-.168-.3-.022-1,0-1.013-.262-2.126-.3-2,0h0c-1.141-.166-.61.665,0,1-.586.073-1.585-.106-2,0-.927-.72-2.735-.233-4-1-.727.346-4.861.386-6,1a17.234,17.234,0,0,0-4,0h0l-3,1c-1.72-.345-2.707-.565-1-1-4.123.669-3.494-.665-7,0h0c-1.252.014-3.245.3-4,0-2.8-.7-13.8.648-21,0,1.4,1.079-2.714-.833-3,0-.419-.253-2.166-.776-1-1-3.674.252-5.463.294-8,1-.42-.257,1.375-.848,1-1a6.451,6.451,0,0,1-2,0c-.375-.152.419.113,1,0-3.752.043-3.727.262-4,1-1.9-.35-2.626.517-4,1-.661-.242-2.33-.912,0-1-1.312-.035-7.866-.59-8,0a6.2,6.2,0,0,0-2,0c-1.479-.026-2.2.014-3,0-1.071-.012-2.077-.028-4,0h1c-.372.253-.433.98-1,1,.035,1.055-1.056,2.08-1,4h0c-.514,5.456.586,1.7,0,7h0c.954.491-.365,4.941,0,8l1-1c.328,1.67-1.88,4.324-2,6-.083.367.061-.489,0-1-.564,4.391.865.725,1,4-.314.6-.942-1.2-1,1-.253,1.1.6,6.994,0,10,.241-.664.818-1.521,1,0,.085,2.329-.76,5.895,0,8-.066.294.059.988,0,1,.2,1.78-.413,5.928,0,7-1.533,1.647,1.413,11.04,0,11v5h0c-.094,3.5-.34,4.77,0,6-.1.811.074.067,0,0-.284,5.117-.7,5.71,0,10h0c.267,1.163-.535,7.982,0,13-.052-.048-.936-.6-1-1,.538,5.648-.672,13.932,1,16v4c.13-4.82.722-.017,1-2,.1,1.9.085,5.329,0,3v-1c-.87-.856-.407,6.13-1,6,.043,9.488-.964,19.114-1,28l1-1v3c-.157.812-.028,1.212,0-1a3.99,3.99,0,0,0,0,2,14.813,14.813,0,0,1,0,2c-.137,3.065-.836,3.128-1,2-.166-1.094.009-3.071,0-2v2c.087.656.921,1.606,1,2,1.218-.176,1.415-1.022,4-1,.649.033.826-.044,1,0a7.624,7.624,0,0,1,1,1c.089.093-.331-.014,0,0,0,.048.2.051,1,0h4l-2-1c1.731-.263,3.8.6,2,0,2.645.932,14.375-.289,16,0,2.424-.389,5.035-.047,8,0-.737-.113-.557-1.074,2-1-.935,1.24,3.934,1.109,6,2-1.846-.592,7.9-.161,5-1,2.134.1-.618.708,1,1,5.079-.48,11.723.161,18,0,.1-.162-1.346-.759,0-1l4,1c1.239-.079.735-.564,3,0-.319-.136-.832-.948,0-1,12.3.794,25.513-.49,38,1-1.693-.315-1.292.01,0,0-.841-.077.164-.78,0-1l6,1c.953-.612,5.455-.414,6-1h-2c1.209-.381.137-.545-1-1h5v-4a12.94,12.94,0,0,0,1-4l-1,1c-.1-.663.04-1.18,0-2v-8c.228.355,1.083,1.415,1,2,.936-4.489-.682-8.929,0-13a11.759,11.759,0,0,1,0-3h0c0-.1,0,.16,0,0,.046-.294-.048-.686,0-1a7.026,7.026,0,0,0,0-2c.262-1.013.3-1.126,0-1h0c.164-1.141.335-1.611,0-1-.073-.586-.892-.585-1-1,.72-.927.233-2.734,1-4-.345-.726.614-5.861,0-7a9.753,9.753,0,0,0,0-3v-4c.345-1.72.564-1.707,1,0-.67-4.124-.336-3.493-1-7h0c-.014-1.254-.3-3.245,0-4,.341-1.374-.556-4.326-1-8-.019-.287.031-.869,0-1-.043-.362.042-.629,0-1v-2c.317,1.784,1.346.714,2-1-.161-.062.216.078,0-2-.2.728-.669,4.753-1,3a12.979,12.979,0,0,1,0-4c-.407,1.008-.491-2.606-1-3v-17c.054.1-.059.209,0,0v-1c.4-1.424.813,2.963,1,1,.282,2.081,1.226,4.071,1,7l-1,1a8.607,8.607,0,0,0,0-3c.251,1.22-.743,4.662,0,6v-2c.286,2.089,1.179,4.4,1,7,.561-1.181.345-.155,1-2-.816,1.6-.143-7.568-1-5,.76-1.892.351-2.525,1-5-.187.078-.093.177,0-2m-1-12h0c.174-1.516.083-1.051,0,0m-122,114v-1c1.383-.13.385.871,0,1m14-161c.142-.058.869.052,1,0-.279.053-.681-.061-1,0h-1a13.561,13.561,0,0,0-2,0h4c.451.1.612-.247,0,0h0c.533.087,1-.117,1,0Zm48,0h2c-.2.206-.13-.32,0,0Zm10-1c-.038-.1-.567.007,0,0-.088.048.046-.057,0,0m30,0h0c-.03.014.03-.011,0,0m19,112c-.048-.09.057.045,0,0,.1-.04-.009-.567,0,0m0-7c-.114-.109-.845-.025-1,0v-1Zm-1-23v-4a13.99,13.99,0,0,1,0,4m0-4c-.009,0,.009.007,0,0v0Z" transform="translate(0 0)" fill="#fff"/>
    </g>
    <g id="Group_388" data-name="Group 388" transform="translate(909.178 146.384)">
      <g id="Group_387" data-name="Group 387" transform="translate(0 0)" clip-path="url(#clip-path-2)">
        <path id="Path_652" data-name="Path 652" d="M2.36,29.692c-.073-.127.126.044,0,0Z" transform="translate(0.462 6.923)" fill="#28292c"/>
        <path id="Path_653" data-name="Path 653" d="M4.053,29.7c.063-.064-.01.073,0,0h-1c.017.127-.054-.083,0,0Z" transform="translate(0.77 6.913)" fill="#28292c"/>
        <path id="Path_654" data-name="Path 654" d="M6.434,29.7c.054.2-.144-.083,0,0-.026-.218.171.063,0,0" transform="translate(1.388 6.913)" fill="#28292c"/>
        <path id="Path_655" data-name="Path 655" d="M4.053.518h-1a7.312,7.312,0,0,0,1,0Z" transform="translate(0.77 0.098)" fill="#28292c"/>
        <path id="Path_656" data-name="Path 656" d="M17.659,18.6c.117-.3.981-.718,1-1-.054-.3-.748.146-1,0h0v1Z" transform="translate(4.164 4.019)" fill="#28292c"/>
        <path id="Path_657" data-name="Path 657" d="M4.014-.4h-1l1,1Z" transform="translate(0.808 0.02)" fill="#28292c"/>
        <path id="Path_658" data-name="Path 658" d="M4.85,1.391h0Z" transform="translate(0.972 0.224)" fill="#28292c"/>
        <path id="Path_659" data-name="Path 659" d="M4.8,29.749h0c-.017-.281.253.091,0,0Z" transform="translate(1.021 6.866)" fill="#28292c"/>
        <path id="Path_660" data-name="Path 660" d="M19.494,30.284h0v-2h-1v1c.083.264-.02-.254,0,0a6.138,6.138,0,0,0,0,1h3v-3h0l-2,1c-.236.117.136-.192,0,0a6.134,6.134,0,0,0,0,1h0v1h0c-.181-.044.091.163,0,0m1-1h1v1c-.191-.1-.981-.79-1-1m0-1c.253.009.917-.2,1,0h0v1c-.181-.083-.883.118-1,0v-1Z" transform="translate(4.328 6.332)" fill="#28292c"/>
        <path id="Path_661" data-name="Path 661" d="M1.668,35.6c.244.065.8-.11,1,0h0c.227.091.783.956,1,1v-1a5.205,5.205,0,0,1,1,0c.053-.183-.118.128,0,0v1c.153-.056-.08-.882,0-1h2c.171.183-.1-.2,0,0,.109.136.9.9,1,1v-1c.144-.265-.263.046,0,0,.09.164.981-.173,1,0h-1c.153.237.739.991,1,1h0v-10c-.01-.344.163-.763,0-1-.2-.073.036.2,0,0h0v-2h1c.037.054-.063-.017,0,0h7c.153.273-.054.727,0,1,.009.364.91.718,1,1h0l1-1c.09.065-.046.9,0,1-.263.2-.783-.073-1,0-.316.091.264-.018,0,0v2c.146-.11-.163-.936,0-1v1h0v9h4a5.291,5.291,0,0,0,1,0h0v-1c-.09-.317-.72.056-1,0l1-1-1-1h0v-1h0c.144.247.847.81,1,1a4.091,4.091,0,0,1,0,1c.154.091-.154-.009,0,0l1-1h-1v-1h1c.116.064-.054-.073,0,0v1h0c.226-.018.82.046,1,0h0v-1l-1-1c.154-.144.82.065,1,0h0c.146.282-.063.737,0,1v1c.19-.028.819-.927,1-1v-7h0c-.154-.154-.882.154-1,0h0v2c-.054.11.081-.026,0,0l-1-2c-.126-.292.01-.745,0-1,.054-.163-.081.11,0,0a7.113,7.113,0,0,1,1,0c.134.264-.27.891,0,1h1v-1h-1v-1h0a3.345,3.345,0,0,0,0,1h1v-2a3.391,3.391,0,0,0,0-1h-1v-1a7.437,7.437,0,0,1,1,1h0V-.4h-8v4a6.414,6.414,0,0,0,0,1v1h0v1c-.063.054.073-.009,0,0v6h0v1h0v1c0,.365-.9.709-1,1l-8,1v-4c-.073.073.091-.026,0,0,.028-.19-.173.081,0,0V-.4h-1v1h0v1h-1V.6c-.046-.064.054-.991,0-1h-1c-.036.354.063.709,0,1-.072.345.1.763,0,1l-1,1h1a7.5,7.5,0,0,1,0,1c-.181.047.16-.017,0,0a10.068,10.068,0,0,1-1-1c-.217-.21-.737.064-1,0-.307.083.234-.155,0,0v1h-1v-1h0v1h0c.234-.036-.171.064,0,0,.054-.11.919.027,1,0,.054.081-.01-.091,0,0a6.545,6.545,0,0,0-1,1c-.171-.027.1.11,0,0h0c.026.136-.046-.1,0,0v1h-1c-.163.237.181.817,0,1-.279.127-.946-.281-1,0h0V.6h0v10a5.185,5.185,0,0,0,0-1h1c.009.155-.026-.118,0,0v1h-1l1,2v1c-.01.374-.946.692-1,1h0v4h0v2c.019.327-.181.782,0,1h0v3c.019.254-.117-.19,0,0h1c.236.183.729.944,1,1,.307-.027.8-.891,1-1h0c.01-.081.973.054,1,0,.343.036-.271-.073,0,0h1c.118-.063-.118.037,0,0,.343.037.729-.1,1,0h0c-.083.191.127.854,0,1-.289-.127-.711.01-1,0h0c-.224-.218-.809.127-1,0h0a9.629,9.629,0,0,0-1,0c-.224.2.216-.109,0,0h-1l-1,1a4.559,4.559,0,0,1,0-1,3.348,3.348,0,0,1-1,0c-.162-.01.109.027,0,0v10c.009.3-.127-.245,0,0,.307-.063.838.21,1,0Zm23-7h0v1a3.393,3.393,0,0,1,0,1c-.2-.254.009-.709,0-1l-1-1Zm-5-4h-1c.081-.19.883.154,1,0m0-6h0c.064.017-.009-.046,0,0Zm0,7c.217.01-.054-.191,0,0-.181-.073.09.127,0,0m0,4v0c-.026.118.072-.091,0,0m1-5h0c-.063.091.073-.044,0,0m0-7c-.109.018.1-.083,0,0l-1-2v-1h1v3h1c.153.2-.09.792,0,1v2c.063.265-.207-.11,0,0h1v5c-.053.208.181.963,0,1v-3h-1l-1-5c-.073-.237.127-.792,0-1m0,2a3.355,3.355,0,0,1,0-1,3.315,3.315,0,0,1,0,1m1-6c.19.073-.01.8,0,1l1,4c-.054.171.117-.136,0,0-.144-.026.062.109,0,0l-1-1h0v-1h0Zm0,0c-.153.155-.82-.019-1,0,.1-.291.964-.745,1-1h0v-1h-1v-1h1v1c-.028.154.044-.117,0,0-.144.208.053.764,0,1Zm0,19h0v-1h0Zm0-1v-4h0v-1h0l-1-1c.036-.31.837-.8,1-1,.226.137-.046.763,0,1-.19.2.081-.181,0,0v1l1,4v1a7.516,7.516,0,0,1-1,0m1,1v-1h0c-.026.1.083.927,0,1m1-1c-.109-.2-.936.173-1,0v-3h0c.054-.227-.08-.817,0-1v-1a4.11,4.11,0,0,1,0,1l1,4Zm0-4v-1h0Zm0-4h0v-1h0Zm0-3c-.109.064.1-.009,0,0h0v-1c.171.075-.134-.1,0,0v1Zm1,2c.073.019-.027-.044,0,0Zm0-2h0v-1c.081.028-.027-.044,0,0Zm0-2v-1h1v1c-.054.183-.919-.126-1,0v1h-2v1h0v-1h0c.109-.128-.127.046,0,0l2-1Zm-1-3c-.073-.128,0,.11,0,0Zm0,1v1h0c.007-.164-.028-.883,0-1Zm0,2v-1h1v1Zm1-2h0c.073.019-.028-.054,0,0-.01.155.026-.118,0,0-.064-.019,0,.056,0,0m-1-11h1c.109.136-.028.827,0,1-.208-.118-.8-.946-1-1Zm0,8h-1c.028-.247.927-.8,1-1h0c-.037.255.063.772,0,1m0-1a5.522,5.522,0,0,1-1-1h0c.154.054.917-.118,1,0Zm-1-3c-.153-.046.09-.872,0-1,.2.009-.044.837,0,1m0,4c-.2-.027-1-.782-1-1h1Zm-1-3h0v-1c.244.054-.2-.081,0,0-.046.255.089.772,0,1m0-9v1h0c-.054-.019-.993.046-1,0Zm-1,3c.036-.253-.1-.782,0-1h0v1h0l1,1h0v3c-.018.164.081-.147,0,0v-1l-1-1c-.054-.281.081-.773,0-1h0v-1Zm0,2a4.049,4.049,0,0,1,0,1h0Zm0,3c-.244-.019.027.227,0,0,.217.037-.054-.208,0,0m-1,2c.163.073.919-.127,1,0v2h0c-.109-.027-.946.11-1,0v-2Zm1,9v3a5.306,5.306,0,0,1,0,1v-1h0v-1l-1-3c.17.027.864.927,1,1m-1-10h0c-.109-.226-.973.218-1,0h1a7.494,7.494,0,0,1,0-1,3.767,3.767,0,0,1,0,1Zm0-5v2c-.02.255.118.809,0,1v-1a4.161,4.161,0,0,1,0-1h-1l1-1h0a9,9,0,0,1,0-1c.163.273,0,.726,0,1Zm0-1v-2h0v2Zm-1,19c-.126-.047.044.12,0,0,.134.047-.036-.12,0,0m0-6Zm0,6Zm-1-4h0c-.054.118.109-.081,0,0Zm-1,2Zm0-1c-.054-.019.009.046,0,0h0c.064.037-.009-.027,0,0-.009.154.027-.117,0,0m0-1Zm0-3Zm-3,0c-.136-.073.036.136,0,0,.134.081-.036-.127,0,0m-1,6h1v-1c-.054.31.253.864,0,1h0l-1,1v-1Zm0,0c-.254-.1-.981-.753-1-1a3.3,3.3,0,0,1,1,1m-11-13v-1c.117.054-.017-.118,0,0Zm2-5h0c-.073-.019.026.054,0,0,.019-.154-.047.117,0,0m-1,2h0Zm0,1v1c-.054-.037.017.064,0,0v-1Zm0,3h0v-1h1v2h0c-.153-.073-.946.136-1,0-.044-.237.091-.79,0-1-.263,0-.893.2-1,0Zm0,4v-2c.118.155.954-.183,1,0v1Zm1,2h0l-1,2a5.308,5.308,0,0,1,0-1v-2c.072.181.963.836,1,1m-1-10Zm0,1v2c-.036.171.063-.137,0,0-.144-.046-.937.128-1,0,.072-.181.973-.836,1-1l-1-1c.144.064.9-.109,1,0m0,3c-.064.137.073.9,0,1h-1v-1Zm0,2Zm-1,1h0Zm1,1v1c-.072-.054-.973.118-1,0v-1c.154.073.946-.138,1,0m-2,6v-2c.227.237.882-.247,1,0v1Zm1-10c.134.091-.072.882,0,1h0Zm0,8c.091-.154-.117-.919,0-1,.127.109-.009.873,0,1Zm1,2c-.126-.054-.954.12-1,0,.136.056.964-.117,1,0m0,4h0c.261.073-.109-.2,0,0Zm0-5h1c-.019.255-.946-.227-1,0-.1-.063.036.073,0,0Zm1,4h-1v-1c0-.308-.027-.763,0-1,.118.173.946.827,1,1v1Zm0-3Zm0-14Zm1,3c.163.081-.073-.154,0,0-.227-.036.01.2,0,0m0,4c-.189-.027.009.218,0,0Zm2,19Zm0-4h0v0Zm1-1c-.109-.063.064.073,0,0v-1h0Zm0-1v-1c.181.01-.019.836,0,1Zm0-11Zm0,7h0c-.137-.063.036.146,0,0Zm0-1h0c.01-.164-.191.007,0,0Zm0,4c-.118-.154.017-.846,0-1h0Zm0,9h0v-1h1Zm1,0h0c.054.1-.009-.1,0,0Zm0-3Zm0-1c-.081.154.127-.081,0,0-.18-.036-.847.1-1,0,.1-.128.864.081,1,0,.163.037-.144-.073,0,0m0-4h-1c.271.054.964-.245,1,0m0-3c-.217-.109-.838.127-1,0,.261-.127.919.247,1,0,.217.11-.154-.164,0,0-.2.171.134-.163,0,0m0-1v-1c.118.109-.054.863,0,1Zm1-3c.109.054-.026-.118,0,0Zm0,1c-.118-.146-.981.153-1,0,.109.146.972-.154,1,0m-1,1c.271.1,1-.273,1,0-.224-.081-.93.227-1,0h0v0Zm0-3h0v2a5.416,5.416,0,0,1,0-1Zm0,0c-.245-.054.028-.782,0-1,.245.063-.028.792,0,1m0-5h0c-.207-.01.062.2,0,0Zm0-2h0c.118.11-.054-.128,0,0Zm0-3v1c-.171-.01-.866-.91-1-1v-2a12.964,12.964,0,0,1,1,1h0c.054.21-.08.827,0,1Zm0-3v1h-1v-1c-.109-.218.126-.836,0-1h0c.136.164-.1-.183,0,0,.134.181.757.981,1,1m-1-4h0a7.513,7.513,0,0,0,0,1c.118.136-.118-.1,0,0v1c-.107.154.136-.081,0,0h0l-1-1c.2-.072.829-.9,1-1m-1,4c.163.091.928-.146,1,0-.224-.019-.991.217-1,0m0,6c.226.1.956-.208,1,0Zm-1-8c-.154-.019.081.117,0,0,.136.054-.1-.081,0,0m0,2h1c.054.028-.019-.046,0,0-.226.118-.783-.054-1,0-.244-.073.064.2,0,0Zm0,13h0c-.127-.09.044.146,0,0Zm0-5v-1h0v1Zm0-6v-1h0Zm-1,1c.154.054.909-.109,1,0Zm1,2h0c-.072-.171.035.164,0,0,.252.046-.019-.227,0,0m0,9Zm0,1h0c.116.1.981-.136,1,0Zm0-5a7.512,7.512,0,0,1,0-1h0a7.308,7.308,0,0,1,1,0h0Zm1,8c-.117-.218.019.218,0,0Zm0-1Zm0-13h0v-1h0c-.017.174.046.862,0,1m0-5Zm0,15c.243.081.8-.128,1,0h0v1c-.2-.136.134-.837,0-1Zm0,7Zm-2,6Zm0-1h0c-.227-.018.007.218,0,0m0,3v-1h0v1c.063.218,0-.218,0,0-.171-.19.1.217,0,0m1-6-1,1h0v1h0v-1h0c.136-.173-.17-.9,0-1,.181-.164.872.183,1,0,.053.164-.017-.146,0,0m0-2c.09.065-.019.891,0,1h-1a8.144,8.144,0,0,1,1-1m-1,1h0v1h0Zm-1,6v0c.073.018-.027-.054,0,0Zm0-7c.226.218-.047.745,0,1a5.3,5.3,0,0,1,0,1h0v-2Zm0,4v1c-.127-.164.036-.79,0-1Zm-1,4h1l-1,1Zm0-7h0c-.1-.127-.964.146-1,0Zm-1,6a7.311,7.311,0,0,1,0,1c-.019.073.046-.037,0,0h0Z" transform="translate(0.154 0.02)" fill="#28292c"/>
        <path id="Path_662" data-name="Path 662" d="M46.182,6.958h-1v1Z" transform="translate(10.64 1.657)" fill="#28292c"/>
        <path id="Path_663" data-name="Path 663" d="M51.89.613v-1h-1v1Z" transform="translate(11.933 0.002)" fill="#28292c"/>
        <path id="Path_664" data-name="Path 664" d="M53.364,16.714h0c-.153-.009.1.019,0,0,.054.19-.163-.064,0,0" transform="translate(12.459 3.902)" fill="#28292c"/>
        <path id="Path_665" data-name="Path 665" d="M48.648,1.37h-1c.089.126-.1-.063,0,0,.18-.081.981.173,1,0" transform="translate(11.174 0.246)" fill="#28292c"/>
        <path id="Path_666" data-name="Path 666" d="M52.635.585c-.117-.109.136.017,0,0Z" transform="translate(12.187 0.031)" fill="#28292c"/>
        <path id="Path_667" data-name="Path 667" d="M57.622.613h0v-1h-1v1h1Z" transform="translate(13.2 0.003)" fill="#28292c"/>
        <rect id="Rectangle_369" data-name="Rectangle 369" transform="translate(56.822 7.616)" fill="#28292c"/>
        <path id="Path_668" data-name="Path 668" d="M55.084.613h1c-.136-.179.217.009,0,0-.38-.09-.683-.993-1-1l-1,1c.109.144.856-.08,1,0Z" transform="translate(12.739 0.003)" fill="#28292c"/>
        <path id="Path_669" data-name="Path 669" d="M60.321,37.531c.181.036.863-.054,1,0h2c.29,0,.783.127,1,0h1c.254.126.774-.064,1,0h1c.27-.047.793.118,1,0v-1h0l-1-1h0v-1h0c.271-.054.793.1,1,0,.136-.254-.027-.774,0-1v-1a6.286,6.286,0,0,1,0-1l-1-1c-.054-.3.072-.79,0-1v-1c-.054-.324.072.217,0,0v-1a3.713,3.713,0,0,1,0-1c-.073-.3-.973-.756-1-1v-3l-1-1c-.144-.234.047.236,0,0v-1h-1c.307-.018.927-.729,1-1-.027-.236.073.208,0,0a5.415,5.415,0,0,0,0-1h0c-.227-.146-.937.2-1,0v-3c-.134-.207.18.109,0,0-.081-.154-.991-.838-1-1h1a10.342,10.342,0,0,1-1-1c.046-.244-.081.2,0,0h0v-1h0c.019-.054-.044.01,0,0,.3-.036-.208.126,0,0v-1h0v0h-1c-.028-.289.137.216,0,0,.046-.171-.091-.846,0-1h-1c.073-.17-.144.083,0,0,.281-.1.764-.973,1-1,.153-.2-.1.217,0,0,.189.136-.1-.18,0,0,.144.245.991.766,1,1-.054.28-.9.8-1,1h1v-2h-1c-.126-.2.154-.847,0-1a6.15,6.15,0,0,1,0-1c-.1-.217-.811.109-1,0h0v-1h0v-1h1v2h0a3.713,3.713,0,0,1,0,1h0c.217-.036.829.063,1,0-.037-.316.09-.784,0-1-.036-.29-.91.226-1,0-.127-.207.073-.792,0-1v-2h0l-1-1v-1h0v-1h0c-.046-.2.08.144,0,0l-1-1h-1l-1,1-1-1c-.317-.09.26.009,0,0h-1c-.126.244-.964.766-1,1v-1c-.208-.144-.793.109-1,0h0v1c-.1.091-.873-.035-1,0l1-1h-1c-.226.019.154-.109,0,0v1h-1c-.28-.009.2-.882,0-1h0c.054-.09-.009.1,0,0h0c-.189.2-.774-.027-1,0h-1c-.1.134.027.883,0,1h0c-.243.09.073-.224,0,0h-1c-.226-.062-.847.127-1,0v1l-1,1,1,1v1l-1,5c-.019.253-.864.811-1,1h0c.053.208-.1-.143,0,0h0v1l-1-1-1,7h1v1a11.415,11.415,0,0,1-1,1v2c.054.289-.073-.217,0,0l1,1h0c-.044.144-.919.883-1,1-.073-.063.017.062,0,0a4.662,4.662,0,0,1,0-1c-.064-.326.064-.783,0-1-.117-.189-.856-.837-1-1v2h0v1h0c-.109.289.028.776,0,1l-1,5v1h0v2h0l-1-1c-.2.207.027.764,0,1h0v1h0l-1,1v1h0c.208-.019.829.046,1,0h1l1-2c.207.163-.009.747,0,1v1h1c.163-.2-.091.217,0,0v-1h0a6.14,6.14,0,0,1,0-1l-1-2h0c.207.027.956-.2,1,0a5.309,5.309,0,0,1,0,1h0v3h1c.163-.2-.091-.783,0-1h0v-1c-.054-.316.073.227,0,0v-1l-1-1h1c-.136-.208-.91-.792-1-1-.109-.28.044-.773,0-1v-1h0v1l1,1v1h1v3c.054.271-.109-.207,0,0,.073.244-.144.863,0,1h2c.144-.062.891.1,1,0h-1l1-1h0c-.153-.207-.774.047-1,0h0c.046-.163-.054-.874,0-1h1v-1c.162-.208.774.044,1,0h0c.281-.109.991.271,1,0l1-5h1v-3c.117.118.863-.01,1,0h0v3c.09.253-.2-.126,0,0h3v2l1,1h0c-.073.116.081.927,0,1v3h1v-1h0v1h-1l1,2c.289.109-.253-.019,0,0Zm-15-16v-1h0c-.036.243.064.8,0,1m-3,8Zm0,7a6.153,6.153,0,0,1,0-1h0c.063.191,0-.191,0,0Zm0-2h-1c.09-.153.9-.9,1-1,.109.109-.054.884,0,1Zm1,0-1-1c-.153-.062.1.091,0,0h0v-2h0v-1h0c.155.027-.127-.064,0,0h0l1,4Zm2-17c.326.009.946-.271,1,0-.144.316-.956.711-1,1h0c.054-.073-.073-.972,0-1Zm1,5h-1c.036-.163.938.127,1,0Zm0,1c-.064.062.064-.028,0,0-.062-.028,0,.062,0,0Zm-2,1c.252-.09.811.127,1,0,.054.019-.009-.046,0,0-.019.243.046.8,0,1-.153.19-.8-.1-1,0a4.587,4.587,0,0,1,0-1m2,7h0l-1-3v-2h0v-1c.2.09-.154.9,0,1,.126.19-.063-.19,0,0l1,1c.1.208-.054-.207,0,0v4Zm0-6h0c.2.18-.028-.236,0,0Zm-1-9h1c.044.163-.017-.153,0,0-.27-.073-.946.243-1,0m1-1c.037-.081-.064.046,0,0Zm0-1h-1l1-1h0Zm0-2v1h0v-1c.134-.181-.217.01,0,0h0Zm2-5h0Zm0,26h0v-1h0Zm0-13c-.064-.189,0,.189,0,0,.073.017-.027-.044,0,0Zm0,11a7.121,7.121,0,0,1,0-1,7.119,7.119,0,0,1,0,1Zm0-13c-.118-.127.047-.864,0-1h0a9.559,9.559,0,0,1,1,1c.109.189-.027-.19,0,0h-1Zm0-2v-1h0v1Zm1,10h0v5h0v-2h0v-4h0v1Zm0-4v1h0v-2c.126.253,0,.737,0,1Zm0-2c-.019.208.046.829,0,1a5.311,5.311,0,0,1,0-1v0Zm0-2c-.1-.1.028-.873,0-1h0c.127.109-.026-.144,0,0a9,9,0,0,1,0,1m1-10c-.236.2-.974.72-1,1-.307-.046.2.181,0,0l-1-1h1c.1.128-.09-.062,0,0,.117.091-.109-.044,0,0h0v-1h1c.227.144-.091.756,0,1Zm10,19c.083-.154-.134.073,0,0h0c-.091.136.1-.081,0,0-.109-.1.019.117,0,0m0,1h0c0-.17-.064.154,0,0,.062.017-.026-.044,0,0m0,2,1-1v1Zm1,6v-1h0Zm0-3c.2.081-.144.856,0,1-.253-.026.09-.8,0-1m0-5h0c.307.019-.009-.271,0,0Zm0,2Zm0,7c-.127-.117.037-.864,0-1h1c.127.137-.026.847,0,1-.216-.017-.81.046-1,0m1-4c-.08-.09.017.127,0,0Zm1,0v-1c.144.091-.073.866,0,1h0c-.163-.062.126.091,0,0m1-3c-.134-.136.027-.847,0-1h0Zm1,6h0c.117.046-.072-.08,0,0Zm2,1a10.2,10.2,0,0,1-1-1h1c.109.127-.018.873,0,1m-1-5h1c-.063.09-.909-.037-1,0Zm0,1h1v1a3.669,3.669,0,0,1-1,0c-.081,0,.046.028,0,0Zm0,1h0c.009-.117-.054.109,0,0Zm0-8c-.134-.118-.91.134-1,0,.208.063.983-.191,1,0m-1,0c.173.027.854.936,1,1-.136.127.153-.036,0,0a7.117,7.117,0,0,1-1,0c.091-.191-.2-1,0-1m0,8c-.126.134.153.974,0,1h-1a12.964,12.964,0,0,1,1-1c.127.044-.09-.081,0,0m-1-3Zm0-7c.117-.18-.2.037,0,0h0Zm0,11c-.144.081-.856-.046-1,0-.191-.019,0,.17,0,0,.144-.1-.144.064,0,0,.181.036.991-.19,1,0m-1-13v1c-.08.08.109-.044,0,0Zm0,2v1h0v-1Zm0,5c.073.173-.027-.153,0,0Zm0-2a7.311,7.311,0,0,1,0,1c-.063-.019,0,.073,0,0Zm0,3h-1v1l1,1c-.2-.046-.846-.919-1-1a4.166,4.166,0,0,0-1,0c-.072-.126.019.126,0,0h1c.307-.044-.009-.729,0-1h1Zm-1-1h0c.224.144-.028-.21,0,0-.264-.054.217.073,0,0m0-4h0v0Zm0,2c-.253.126.127-.2,0,0h-1c.289-.064.837-.81,1-1h0Zm-1-4h0c-.1-.171-.973.171-1,0,.163.036.883-.089,1,0m0-4h0c.09.118-.01-.134,0,0-.091,0,.037.062,0,0m0-8h0l-2,1c-.09-.026.044-.927,0-1h2Zm-2,5,1,1h0c.073.154-.118-.1,0,0h0v1a7.437,7.437,0,0,1-1-1h0a5.31,5.31,0,0,1-1,0v-1c.063-.154.91.1,1,0h0v-1h1v1h-1Zm0,6h0v-1c.253.027-.1.8,0,1m-1,1v-1c.171.083.883-.134,1,0v1h0c-.191-.036-.974.181-1,0m0-11c-.136-.063.154,0,0,0h0c.044-.154-.081.109,0,0h1c-.019.2.046-.154,0,0Zm1,2v1a5.415,5.415,0,0,1,0-1c.054.019-.009-.044,0,0m0,8-1-1v-1h1v2Zm0-16h1v1h-1a7.312,7.312,0,0,1,0-1m1-2c.163.028-.128-.063,0,0,.109.1-.117,0,0,0h1v1c-.01.163.054-.127,0,0h-1l-1-1c.08-.136.891.054,1,0m-1,0h0c-.3-.046-.92.271-1,0Zm-1,7h0c.19.117-.1-.163,0,0m0,9h-1c-.244-.17.019-.756,0-1a6.5,6.5,0,0,1,1,1c.326.027-.027-.3,0,0m0,2c-.073-.019.017.044,0,0v-1a5.311,5.311,0,0,1,0,1m-1-10h1a10.625,10.625,0,0,1-1,1h0c.073-.19-.183-.972,0-1m0-11c-.063.073.062-.017,0,0-.064-.017,0,.073,0,0Zm-1,2h1v1h-1Zm0,0h0c-.126-.109,0,.144,0,0Zm-1-2c.054.126-.01-.127,0,0h-1c-.109-.127.018.163,0,0Zm-1,1c.17.044-.144-.08,0,0Zm-1,0c.146.191-.046-.19,0,0a9.012,9.012,0,0,1-1,0c-.171-.189.08-.8,0-1,.287.027.783.928,1,1m-1,12a9,9,0,0,1,0,1h0v-1Zm-1-8h0c-.236-.044.019.21,0,0Zm0-2h0v1a8.8,8.8,0,0,1-1-1h1Zm0,6c-.144-.044.107.08,0,0h-1c-.091-.091.037-.9,0-1h1v1Zm1,4c-.073-.144-.972.146-1,0h1c.063.126,0-.137,0,0Zm0,12h0v-1h0Zm0-5c.154.036-.1.91,0,1h0c-.136-.028.09.074,0,0Zm0,6v-1c.281.081-.1.764,0,1Zm0-11v-1h1a10.482,10.482,0,0,1-1,1m2,8c-.063-.3-.874.207-1,0,.027-.308.8-.827,1-1a3.161,3.161,0,0,1,0,1c-.027.253.136-.19,0,0m1-1h-1l1-1h0c-.036.163.054.873,0,1Zm0-1c-.217-.017.162-.954,0-1-.154-.109-.954.144-1,0-.171-.063.171,0,0,0-.154.1.072-.153,0,0,.109.144-.146.919,0,1h0c-.081.137.109-.054,0,0h0c-.144-.028-.891.1-1,0v-1c-.117-.117.072.136,0,0v-1l1-12c.207.017.946-.171,1,0l1,12c.1.1-.116-.027,0,0h0v-1l1,1h1c-.019.208-.829.946-1,1-.183-.064.146.1,0,0-.163.036.09-.09,0,0h-1Zm1,0v1a7.509,7.509,0,0,1,0-1h1c-.028.173-.93-.146-1,0m1,0v-1h0a7.514,7.514,0,0,1,0,1c-.163-.017.127.081,0,0m1,5c-.261.126-.757-.063-1,0,.009-.2.783.054,1,0l3-3h1c-.019.236.207.91,0,1h-1c-.153.2.163.847,0,1h-1l-1,1c-.208.144-.792-.109-1,0m1,0v0Zm0,3h0v-1a6.149,6.149,0,0,1,0,1m0,3h0v-1h0Zm0-1c-.063-.007.036.054,0,0v-1h-1v-1h1v1c.054.217-.074-.163,0,0a4.237,4.237,0,0,1,0,1Zm0,4c-.154-.037.01.189,0,0Zm0-7h1c.2.054-.144-.073,0,0h0c-.2-.063.118.127,0,0-.09-.117-.964.109-1,0m1,3c-.074-.018.019.044,0,0h0c.062.019,0-.044,0,0Zm0,1c.054.028-.009-.044,0,0Z" transform="translate(9.501 0.084)" fill="#28292c"/>
        <path id="Path_670" data-name="Path 670" d="M63.139,28.966v1h0c.036.189-.191.964,0,1a4.755,4.755,0,0,0,0-1v-1h0c-.163-.137.154.064,0,0,0,.163-.064-.127,0,0" transform="translate(14.683 6.649)" fill="#28292c"/>
        <path id="Path_671" data-name="Path 671" d="M45.3,8.551h0v1c.044.054-.054-.009,0,0a5.207,5.207,0,0,0,0-1" transform="translate(10.522 2.065)" fill="#28292c"/>
        <path id="Path_672" data-name="Path 672" d="M53.482-.387h0l-1,1h2a10.482,10.482,0,0,0-1-1" transform="translate(12.341 0.003)" fill="#28292c"/>
        <path id="Path_673" data-name="Path 673" d="M48.639.559h0Z" transform="translate(11.184 0.056)" fill="#28292c"/>
        <path id="Path_674" data-name="Path 674" d="M74.472-.389h0c.072.1-.1.938,0,1Z" transform="translate(17.35 0.005)" fill="#28292c"/>
        <path id="Path_675" data-name="Path 675" d="M76.993.554c-.1-.144-.864.081-1,0,.046.208.81-.019,1,0" transform="translate(17.829 0.061)" fill="#28292c"/>
        <path id="Path_676" data-name="Path 676" d="M75.226,27.2h0v0Z" transform="translate(17.596 6.419)" fill="#28292c"/>
        <path id="Path_677" data-name="Path 677" d="M71.942,28.841h0v1l1-1c-.018-.1-.917.037-1,0Z" transform="translate(16.88 6.775)" fill="#28292c"/>
        <path id="Path_678" data-name="Path 678" d="M75.283,29.756v0Z" transform="translate(17.54 6.86)" fill="#28292c"/>
        <path id="Path_679" data-name="Path 679" d="M72.791,29.728h1c-.163-.127-.8.036-1,0Z" transform="translate(17.032 6.888)" fill="#28292c"/>
        <path id="Path_680" data-name="Path 680" d="M76.114,20.09a4.031,4.031,0,0,0,0-1,3.381,3.381,0,0,0,0,1" transform="translate(17.709 4.525)" fill="#28292c"/>
        <path id="Path_681" data-name="Path 681" d="M69.784,10.611c.054.226.891-.173,1,0-.027.234-.927.81-1,1h0v1h1a4.571,4.571,0,0,0-1,1c.09.2.864-.126,1,0h0c.044-.217.811.017,1,0h0c-.146.144-.909.846-1,1v-1c-.163.18,0,.783,0,1-.072.217-.973.793-1,1h1c.226.01-.109.837,0,1h0v1h0v1h0c.137.155-.037.82,0,1h-1l1,1c.163.153-.163-.044,0,0-.054.073.144-.027,0,0h-1c.009.153-.017-.117,0,0,.207.054.874.856,1,1-.09.181.109-.144,0,0v1h0c-.217.09-.954-.207-1,0,.144.144.847.911,1,1,.19.074-.134-.127,0,0h-1l1,1h0c.073.017-.028-.044,0,0h0v1h0c-.163-.144-.837.09-1,0l1,8c-.072.227-.973.793-1,1h1v2c.1.207.774.973,1,1h0v-1h0c.01-.154-.026-.891,0-1h1v2h0c.244-.009.847-.837,1-1v-2c.073-.171-.027.163,0,0h0c.091-.134-.109-.937,0-1l1,1c.144.162-.091-.163,0,0,.144.146-.18-.054,0,0h1v-1h0c.054.018-.009-.044,0,0l1,1c.072.09-.091-.009,0,0v-1h0a5.4,5.4,0,0,0-1,0h0c-.109-.054.064.073,0,0h0a9.448,9.448,0,0,1,1-1h0v-1c.109.081-.118-.046,0,0h1v-1h0l1-1-1-1h1a7.307,7.307,0,0,0,0-1h-1v-1h0c.134.044-.1-.091,0,0,.109-.064-.017.137,0,0v-4c.054-.19.891.134,1,0h0v-1h0c-.01-.227-.946-.829-1-1h1v-1h0v-2h0c-.1.027.073-.072,0,0-.054.217.109-.154,0,0v1h0c.19.1-.01.8,0,1-.09.054.072-.01,0,0l-1-2h0l1-1h0c-.007-.116.054.081,0,0a7.515,7.515,0,0,1,0-1h0v-2h0c-.163-.083.109.118,0,0a7.514,7.514,0,0,0,0-1c-.1-.073.1.027,0,0h-2c-.163.054-.864-.109-1,0h0c-.173.1-.837-.036-1,0h-2c.08-.189-.117-.856,0-1,.207.09-.191.953,0,1h1v-1h0c.118.019-.081-.083,0,0h1c.173.163-.216,1,0,1,.191-.091.856-.891,1-1h1c.153-.181-.009.217,0,0,.046-.09-.091-.99,0-1l1,2,1-1c.189-.146-.007.19,0,0v-3a7.511,7.511,0,0,1,0-1h5a7.115,7.115,0,0,0,1,0v-3h-1a7.312,7.312,0,0,1-1,0c.09-.18.856.118,1,0h0a13.185,13.185,0,0,0,1-1v-3l-2-1h-1c-.154.171-.819.973-1,1-.253.046.009-.254,0,0a4.11,4.11,0,0,1-1,0h0l-1,1c-.2-.062.073-.827,0-1h-1c-.127.144.047.847,0,1a7.514,7.514,0,0,1-1,0l-1-1h0a9.319,9.319,0,0,1-1,0v1c-.09-.2.044-.8,0-1a7.12,7.12,0,0,0-1,0h0c-.027.054.073-.009,0,0h0a8.147,8.147,0,0,0-1,1h0l-1-1h0v1c-.217-.046-.856.118-1,0v-1h1c-.073-.2-.811.026-1,0h-1l-1,1c-.181.128.08-.171,0,0-.127.162.134-.1,0,0v1l-1-1h0l2-1h0a10.473,10.473,0,0,0,1-1h-2l-4,1h0a9.567,9.567,0,0,1,1,1c-.109.181-.936-.181-1,0v0c-.137-.072.126.026,0,0v4a7.106,7.106,0,0,0,0,1v1c-.009.154.028-.117,0,0h5Zm1,4c.19.009-.046.846,0,1-.144-.037.09-.873,0-1m8,0c-.109-.1-.973.134-1,0,.117.109.982-.127,1,0m-4,19h0c.072.017-.027-.044,0,0Zm1-1Zm0-2Zm1-1a7.29,7.29,0,0,1-1,0v-1h1Zm0-3h0c-.044.217-.919.82-1,1h0v-2h1v1c.1.217-.234-.019,0,0h0c-.044.134.117-.062,0,0Zm-1-5c.09.181.964.82,1,1v2h-1c-.073-.217.027.217,0,0v-3Zm0-2h0c.081.18.983-.153,1,0v1l-1,1c-.044-.19.019-.819,0-1Zm1,9v-1c.017-.19-.081.144,0,0,.146.083-.054-.117,0,0a7.514,7.514,0,0,0,0,1v1c-.146-.046.081-.882,0-1m0-3Zm0-1h0c-.253-.063.009.236,0,0m0-1Zm0-2h0v1h0a5.3,5.3,0,0,1,0-1m1,6c.109.072-.019.873,0,1h0Zm0-2v0h0c.073.019-.026-.044,0,0m-1-6v-1c.144.064.882.9,1,1Zm0-7v1c-.271-.063.091-.766,0-1Zm0,6h-1v-1h1Zm0-4c0,.57-.964.776-1,1-.109-.116.053-.856,0-1h1Zm-1,2h0v1h0Zm-1,14h1l-1,1h0Zm0-3c-.17-.054.027.181,0,0,.2.037,0-.2,0,0m0-13c.062.083,0-.09,0,0Zm0,9c.118.109-.047-.153,0,0h0c.01-.153-.026.109,0,0m8-17c.18.062-.083-.134,0,0-.073.181.125.919,0,1-.183-.072.116-.873,0-1,.08-.171-.153.09,0,0m-1-3,1-3c.073.019-.028-.044,0,0h0v1l-1,3c-.063-.028.009.073,0,0Zm-1,2c.163.054-.036-.18,0,0Zm-1-4c.173.036.874-.1,1,0h0v1h-1v-1Zm0,0Zm-1,8a7.3,7.3,0,0,1,0,1h-1Zm-1-6h0c.073.019-.028-.054,0,0Zm0-1Zm-1,7a6.017,6.017,0,0,1,0,1h0Zm-1-8Zm0,1h0v1h0v-1Zm0,3h0c.109.163-.027-.171,0,0m0,3h0v2a4.16,4.16,0,0,1,0,1c-.155-.289.046-.719,0-1,.036-.361-.1-1.74,0-2m-2,2Zm1-1h0c.044-.17-.09-.874,0-1h0c-.036.162.064.866,0,1m0-6v1c-.189-.027.173.073,0,0v-1Zm0,2h0v-1c.2.026-.036.829,0,1m0-3h0v1h0v-1c-.109-.281-.946-.747-1-1a3.635,3.635,0,0,1,1,1m-1,6,1-2v-1h0v2c-.1.2.163-.1,0,0a11.25,11.25,0,0,0-1,1Zm-2,6a7.729,7.729,0,0,1,0,1h0v-1Zm0,7c-.01.162.063-.134,0,0-.054-.027.009.073,0,0Zm-1,7v-1a8.8,8.8,0,0,1,1,1h0v2c-.171-.081-.91.144-1,0v-2c-.054-.2.08.163,0,0Zm0,3h0c.072-.217.873-.819,1-1a4.11,4.11,0,0,1,0,1v1c.153.163-.081-.163,0,0-.081.081.117-.016,0,0h0Zm2,0c-.226-.054-.963.208-1,0,.236.054.973-.207,1,0m-1-3Zm1-3h-1v-1h1Zm-1,10h0v-1c-.01-.2.09.134,0,0h0v-1h0c.054.217-.08.819,0,1h1c-.163.109-.837.973-1,1m2-2c-.136-.046.09.09,0,0Zm0-2h0l-1,1a9.687,9.687,0,0,1,1-1Zm-1-9c.117.117.991-.153,1,0-.054.163-.891-.1-1,0-.127-.118.01.144,0,0Zm0-7v-1h0c-.036.054.037.983,0,1m1,11h0c.19.09-.01-.207,0,0Zm0,5Zm0-13h0c.1.1-.038-.127,0,0Zm0,5v1h0c-.136-.21.037.217,0,0v-1Zm0,5h0c-.09-.08.037.116,0,0h0c.08.064-.017-.1,0,0m0-11c.154.1-.08.837,0,1h0Zm0-1v1a6.9,6.9,0,0,1-1-1Zm-1-3c.126.217-.036.783,0,1h0Zm0,14h0a7.309,7.309,0,0,1,0,1,4.048,4.048,0,0,1,0-1Zm0,5h0c.073.017-.027-.046,0,0m-1-24a7.307,7.307,0,0,1,1,0c-.046.227.153-.1,0,0-.118.109-.882.938-1,1Zm1,2h0v1h-1Zm0,8c-.3-.026-.837-.83-1-1h0v-1c.217.127-.08.793,0,1Zm-1-3h0c.153.054-.109-.109,0,0m0-5c-.136-.035.027.127,0,0,.153.019-.01-.143,0,0m0,1c.117.046-.081-.081,0,0Zm0,1c.126.117-.037-.144,0,0Zm-1-1c.316.09-.046.719,0,1-.3-.073.062-.7,0-1m0-1c-.109-.144.054.154,0,0Zm1-8c.073.019-.027-.054,0,0v1h-1c-.109-.136.026-.874,0-1Zm-1-1v1c-.1-.081.037-.883,0-1Zm0,3c.137.136-.028-.163,0,0v0Zm0-1h-1c.144.117.982-.153,1,0m-1-2v1h0v-1Zm0,2h0c-.017.21.181.91,0,1-.1-.1.027-.863,0-1Zm0,2h0v-1a7.312,7.312,0,0,1,0,1m-1-1c.154.017-.01-.144,0,0Zm-1-4c-.163,0-.9.1-1,0Zm-1,1c.17-.073-.163.028,0,0h1c-.009.137.063-.127,0,0l-2,1c-.072-.081,0,.091,0,0Zm2,5h-4v-1c.361.036.729-.136,1,0,.09-.254-.036.208,0,0,.236.217.866-.244,1,0h1c0-.3-.037.227,0,0h1c.01.081-.062-.017,0,0h3v1c-.308.134-.737-.063-1,0Z" transform="translate(15.038 0.005)" fill="#28292c"/>
        <path id="Path_682" data-name="Path 682" d="M76.106,16.775c.036.226-.163.891,0,1,.163-.181-.009-.783,0-1Z" transform="translate(17.716 3.84)" fill="#28292c"/>
        <path id="Path_683" data-name="Path 683" d="M70.365-.389h0v0Z" transform="translate(16.457 0.005)" fill="#28292c"/>
        <path id="Path_684" data-name="Path 684" d="M69.627,14.283c.1-.127-.062.109,0,0Z" transform="translate(16.195 3.332)" fill="#28292c"/>
        <path id="Path_685" data-name="Path 685" d="M72.063.611v-1h0v1Z" transform="translate(16.76 0.005)" fill="#28292c"/>
        <path id="Path_686" data-name="Path 686" d="M73.791.593h0Z" transform="translate(17.032 0.023)" fill="#28292c"/>
        <path id="Path_687" data-name="Path 687" d="M44.7-.384h-3a9.31,9.31,0,0,1-1,0h-11c-.253.063.153.864,0,1v1c.1.217-.171-.09,0,0,.081.026-.027-.073,0,0v1h0v1h0v1h0c.073-.081-.063.027,0,0v-1l-1-1h0c-.19.036.154-.1,0,0v2c-.019.245.19-.1,0,0h0v-1c-.054-.244-.784.063-1,0-.254.1.019-.244,0,0v1h0c-.144.163.163.919,0,1-.137-.207-.963-.8-1-1v-1c-.162.046.134.91,0,1h0v5h0v1c.062.134-.109.9,0,1,.191.019-.007-.179,0,0h1v-1c.1-.207-.109-.838,0-1h0v2c.083.227-.127-.144,0,0v1h0c-.118-.2-.873-.856-1-1h0a5.407,5.407,0,0,0,0,1c.181-.107-.162.064,0,0,.09.208-.046-.2,0,0v1c-.081.127.09.917,0,1v-2c-.146-.109.153.027,0,0v3h0v1c-.19-.127.117-.856,0-1a4.049,4.049,0,0,0,0,1v20h10l2-8h-4v-2h0v-2h0v-3a3.573,3.573,0,0,1,1,0h4v-1a9.645,9.645,0,0,1,0-1c.171-.134.874.136,1,0v-1a9.3,9.3,0,0,1,0-1h0v2c-.127.208.009.776,0,1h0l1-3h-1v-1c.094.017.942-.044,1,0v-1c-.02.015.021-.014,0,0a7.305,7.305,0,0,1,0-1h0v0h-1v1a2.784,2.784,0,0,1-1,1c-.109-.2.026-.793,0-1v-1h0c-.144-.163.163-.891,0-1-.253-.1-.784.036-1,0h-4v-1h0v-1l-2,1h0a2.784,2.784,0,0,1,1-1c.2-.109-.144.126,0,0a8.987,8.987,0,0,1,1,0v-2c-.236.054.171.883,0,1a9.315,9.315,0,0,1-1,0l1-1h0c.136-.163-.037-.83,0-1v-1c.036-.236.8.063,1,0h0a9.3,9.3,0,0,1,1,0h3c.26-.01-.144.163,0,0v-1h1c.215.054-.153-.117,0,0h0v1h3v-1h0Zm-17,9h-1v-1c0-.38.936-.667,1-1,.224.207-.009.729,0,1h0a9.314,9.314,0,0,1,0,1m-1,6h0c.053.073-.01-.091,0,0Zm10,15h0c-.054.154.109.882,0,1h0Zm0,2c.073.017-.027-.044,0,0-.081.171.081.866,0,1-.064-.026.009.072,0,0,.044-.163-.09-.891,0-1m-1,1h0c-.18-.217.054-.737,0-1Zm-1,1Zm0-1h0c-.046.137.091-.1,0,0m0-2v1h0c-.107-.054.026.081,0,0Zm6-14c.08.019-.028-.053,0,0v1h-1c-.109-.18.028.189,0,0a7.366,7.366,0,0,1,1-1m0,3a2.938,2.938,0,0,1-1-1c.2.036,1,.8,1,1m-2,1v-1c.2.144-.01.8,0,1Zm-1-6h0c.263-.217.721-.91,1-1-.009.271.2.829,0,1-.28.18-.737.91-1,1v-1Zm-2,6Zm0-3-1,1v-1c.117.073.954-.127,1,0m-1-2h0c-.09-.017.046.054,0,0Zm0,1v1c-.1-.144.01-.837,0-1Zm-1,1c.064.081,1-.09,1,0a7.512,7.512,0,0,1-1,0Zm0,17h0c.01-.062-.054.036,0,0m-1-22Zm0,6Zm0-7h-1c.171.081.9-.118,1,0m-1-4c.054.026-.007-.047,0,0v1a7.512,7.512,0,0,1,0-1Zm-1,6h1v4c-.036.153.163-.009,0,0a6.015,6.015,0,0,1,0-1l-1-3Zm0-9v1h-1a5.885,5.885,0,0,1,0-1Zm-1,1c.28.036-.054.729,0,1l1,2v1h0v1h0v1c-.044.3.226.891,0,1h-1a7.31,7.31,0,0,1,0-1h1l-1-1v-5Zm-1-1c.109.17-.063.837,0,1v3h1a7.3,7.3,0,0,1,0,1c-.054.244-.991.764-1,1-.046.073.062-.027,0,0v-6Zm-1,9a9.318,9.318,0,0,1,0,1h0c-.054-.036.01.073,0,0a5.3,5.3,0,0,1,0-1m0,3c.19.073-.109-.137,0,0v1c-.163-.134.109.134,0,0v-1Zm-1,0c-.046.19.091.847,0,1h0Zm0,3h0v-1h0c.19-.1.856-.964,1-1,.181-.073-.163.027,0,0h1l1-1c.136.081-.037.846,0,1h0a10.776,10.776,0,0,1-1,1h-2c.01.154-.019.884,0,1m3,4h0c-.191-.1.01-.792,0-1l-1-2v-2c.08-.191.873.118,1,0,.127.146-.047-.163,0,0v2h0v3Zm1,2v1h0a3.351,3.351,0,0,1-1,0c.054-.316-.08-.774,0-1v-1l1-1h0v2c.109.254-.189-.153,0,0m-2-4h0c-.073-.116,0,.118,0,0Zm-1-1Zm0-2h0c.054.037.99-.064,1,0l-1,1h-1c.127-.09.893-.956,1-1m0,2h0a6.151,6.151,0,0,1,0,1c-.08-.019.028-.954,0-1m0,1v0Zm0,10h0c-.217-.064.017.208,0,0h0c.18.044.845-.091,1,0Zm1-8h0v1h0Zm0,2c.017-.18-.054.153,0,0,.126.1-.036-.137,0,0v1c-.134-.118.036-.845,0-1m0,7c.163.044-.136-.09,0,0-.18-.007.118.126,0,0m0-4h0c.126.064.919-.109,1,0Zm1-4c.1.153-.036-.153,0,0Zm0,2c.207.163.964.756,1,1h-1c.118-.234-.154-.827,0-1m1,9h0v-1c.063.026-.007-.047,0,0Zm1-2c-.19.18-.819.873-1,1h0v-1h0v-1c-.153-.163.109-.829,0-1h-1v-3c.143.2.936.793,1,1h0v2c.245.116.9-.189,1,0v2Zm-1-6h1v1a2.441,2.441,0,0,1-1-1m1,3c-.109-.207-.974.2-1,0l1-1c.054.036-.017-.063,0,0h0Zm-1-10v-1h0c-.134-.271,0-.764,0-1l-1-2h-1v-1c-.027-.342.044-.737,0-1v-4c.263.053.99.721,1,1a7.292,7.292,0,0,1,0,1v2c.137-.127-.137-.92,0-1v1c.08.307-.028-.234,0,0l1,2a4.1,4.1,0,0,1,0,1v1c.064.326-.073.783,0,1,.117.109.874-.064,1,0h0v3c-.08.163.117-.109,0,0-.073-.307.027.236,0,0Zm1,5h0c-.153-.09.08.144,0,0v-2h0c.127.117-.072-.153,0,0v2Zm0,1h1c-.3.234.072.766,0,1-.047.171-.911-.134-1,0h0a9.284,9.284,0,0,1,0-1m0,5v-2a4.5,4.5,0,0,1,0-1c.143.271.983.729,1,1v1h0v1a7.269,7.269,0,0,0,0,1c-.234,0-1-.729-1-1m1,1h0c-.134.127.072.854,0,1v1c-.064-.016.009.046,0,0v-2Zm2-28a5.412,5.412,0,0,1,0-1c.136.1-.073-.109,0,0,.163.053-.109.891,0,1Zm1-1h0v-1h0Zm3-2c-.163-.09.073.144,0,0,.226.026-.009-.207,0,0m-2-1Zm0,6h0c.064.08,0-.09,0,0Zm0-3v-1a7.311,7.311,0,0,1,0,1Zm2,2Zm0,1h0c.17.019,0-.144,0,0-.144.144.163-.027,0,0m1-4Zm0,3c.036-.29-.207.146,0,0,.083.217.954-.217,1,0Zm1-1c-.009.073.054-.027,0,0h-1c-.09-.019.007.083,0,0,.143-.171-.153-.9,0-1l1-1h0Zm3-4Zm0,1h0v1h0v-1Zm0,2Z" transform="translate(6.125 0)" fill="#28292c"/>
        <path id="Path_688" data-name="Path 688" d="M28.7,2.6l-1-2h1c.126.279-.036.737,0,1v1h0c-.064-.236.073-.829,0-1h0V.6h0l-2-1v4l1-1Zm-2-2v1h0V.6Zm0,2h0v-1h0v1Z" transform="translate(6.125 0.02)" fill="#28292c"/>
        <path id="Path_689" data-name="Path 689" d="M29.092,11.9a5.41,5.41,0,0,0,0,1c.028.326-.181-.217,0,0h0c-.009-.3.027.244,0,0-.073-.333.1-.764,0-1" transform="translate(6.731 2.714)" fill="#28292c"/>
        <path id="Path_690" data-name="Path 690" d="M-.178,66.446h1l-1-1Z" transform="translate(0 15.17)" fill="#28292c"/>
        <path id="Path_691" data-name="Path 691" d="M-.225,45.326h1c-.1-.25.1-.55,0-1Z" transform="translate(0.047 10.29)" fill="#28292c"/>
        <path id="Path_692" data-name="Path 692" d="M5.587,56.4c.01.174-.006.811,0,1-.014-.377.007-1.02,0-1" transform="translate(1.236 13.215)" fill="#28292c"/>
        <rect id="Rectangle_370" data-name="Rectangle 370" height="1" transform="translate(15.822 54.616)" fill="#28292c"/>
        <path id="Path_693" data-name="Path 693" d="M15.6,63.581c-.952-2-2.048-4.047-3-6a12.628,12.628,0,0,1-1-6c.951-2.1.7-4.3,1-7a6.517,6.517,0,0,1,1,0c.15-.55,1.3-2.746,2-5,.551-1.652,0-2.848,0-4a3.355,3.355,0,0,0,0-1,6.6,6.6,0,0,0-1,0c-1.753,0-3.1.4-4,2-.55.951-.449,2.547-1,5a16.32,16.32,0,0,1-2,5,3.24,3.24,0,0,0,0,1h-1c-.051-.65.1-2.145,0-6-.1-2.754-.85-5.3-1-7h-2a1.933,1.933,0,0,0-2,1l-1,13c-.049,2.553.5,3.55,1,4-.55.751-1,3.047-1,6,0,1.4.85,3.047,1,5a14.735,14.735,0,0,1,0,3h0v4c.851.35,1.45,0,2,0a5.224,5.224,0,0,0,2,0,32.234,32.234,0,0,1,1-4c-.7-.1-.75-1-1-1,.5-.049.75.051,1,0,0-2.632-.019-3.951,0-4a2.3,2.3,0,0,0-1-2c.149-.1.75-.951,1-1-.15-1.5-.9-2.3-1-3,.653.051,1.65-.1,2,0,.45,1.6.549,2.4,2,3a5.82,5.82,0,0,1,0,1,6.451,6.451,0,0,0,0,1c0,1.4.249,2.4,1,3-.2.35.051.75,0,1h0c1,3.254,2,5.849,3,7a12.332,12.332,0,0,0,4-1,9.163,9.163,0,0,0-1-4,7.732,7.732,0,0,1-1-3m-13-10a6.612,6.612,0,0,1,1,0l-1,1Zm1,3c-.2.249-.6.9-1,1-.051-.352.051-.9,0-1Zm0,10c-.249-.5-1-.951-1-1l2,1Zm-1-3a6.612,6.612,0,0,1,1,0c.051.15-.2-.25,0,0h-1Zm2-1h-2c-.051-.15.051.051,0,0Zm1-5h-1v-1l1,1Zm0-3h-1a1.133,1.133,0,0,1,1-1Zm-1-1c0-.2.9-.85,1-1h0Zm4-1a3.187,3.187,0,0,0,1,0c-.2.4-.4.851-1,1,.15-.25-.15-.951,0-1m-1-3h-1v-1h1c-.051.3.049.851,0,1m0,4a6.677,6.677,0,0,1,1,0v1c-.15-.25-.3.051-1,0,.1-.35-.1-.85,0-1m3,4h-2c.25-.051,1.449-.949,2-1Zm0-2c-.851.1-1.55-.1-2,0-.2-.35-.949.15-1,0,1,0,2.449-.051,3,0Zm0-4h-2a3.35,3.35,0,0,1,0-1c.65-.051,1.65,0,2,0a3.315,3.315,0,0,0,0,1m3-11v1h-1c-.35-.2,0-.85,0-1Zm-3,2h1c.352,0,0,.85,0,1h-1Zm0,5c.4-.051.75.051,1,0h-1Z" transform="translate(0.218 8.035)" fill="#28292c"/>
        <path id="Path_694" data-name="Path 694" d="M25.967,41.936h-1c-.023.334-.181-.281,0,0Z" transform="translate(5.855 9.68)" fill="#28292c"/>
        <path id="Path_695" data-name="Path 695" d="M23.379,45.25h1l-1-1c-.25-.051.049,0,0,0Z" transform="translate(5.444 10.366)" fill="#28292c"/>
        <path id="Path_696" data-name="Path 696" d="M28.975,36.572a2.954,2.954,0,0,0-1-2,18.319,18.319,0,0,1-3,0c-1.251-.051-2.25,0-3,0a10.8,10.8,0,0,0-5,1,8.691,8.691,0,0,0,0,2c0,2.352-.051,4.55,0,5,0,6.809-.4,9.6,0,10-.551.551,0,2.247,0,4a34.858,34.858,0,0,0,0,4,18.457,18.457,0,0,1,0,3,8.511,8.511,0,0,1,0,2,12.982,12.982,0,0,0,0,2c0,1.753-.152,2.45,1,3-.451.051,2.044,0,6,0,2.453,0,3.249-.25,4-1,.15-.551,1-.6,1-1,0-1.252-1.448-2.7-3-3h-4a10.369,10.369,0,0,1-1-4c0,.1-.049-1.3,0-4a3.057,3.057,0,0,0-1,0c.149-.1.65.051,1,0a11.11,11.11,0,0,1,2-4,9.135,9.135,0,0,0,4,1c.25-.5,1-1.349,1-2,0-.551-.75-1.049-1-2a8.892,8.892,0,0,0-4-1l-2-1c.051-.451,0-1.4,0-2,0-.5.051-1.049,0-2s0-1.55,0-2a12.02,12.02,0,0,1,0-3h4a8.367,8.367,0,0,0,3-1c0-.25,1-1.4,1-2m-4,16v1h-1c.551-.051.65-1,1-1m-7-9h2v1a13.036,13.036,0,0,0-2,0Zm2,10h-1c0-.15,0-.85,1-1Zm0,9v1h0c-.051-.2.1-.75,0-1Zm-1-12h0c1.452.15,2-.149,2,0Zm1-1c.25-.6.6-.949,1-1a4.639,4.639,0,0,0-1,1m-1,10h-1c-.45-.152-1,.15-1,0Zm0-2v-1c.1,0-.25-.051,0,0,0,.35.2.85,0,1m3,9c-.25.051-.55.851-1,1a4.689,4.689,0,0,0-2-1,10.01,10.01,0,0,1,3,0m-2-14h0a3.281,3.281,0,0,1,1,0Zm1-4h-1c-.25-.15,0-.851,0-1h1Z" transform="translate(3.847 8.044)" fill="#28292c"/>
        <rect id="Rectangle_371" data-name="Rectangle 371" width="1" height="1" transform="translate(30.822 63.616)" fill="#28292c"/>
        <path id="Path_697" data-name="Path 697" d="M37.13,59.052a3.2,3.2,0,0,0,1-1h-1Z" transform="translate(8.692 13.564)" fill="#28292c"/>
        <path id="Path_698" data-name="Path 698" d="M41.066,36.572a2.954,2.954,0,0,0-1-2,7.251,7.251,0,0,1-2,0c-1.251-.051-2.249,0-3,0a15.79,15.79,0,0,0-6,1,8.691,8.691,0,0,0,0,2c0,2.352-.051,4.55,0,5,0,6.809.6,9.6,1,10a6.792,6.792,0,0,0-1,4,35.147,35.147,0,0,0,0,4,18.456,18.456,0,0,1,0,3,8.511,8.511,0,0,1,0,2,12.983,12.983,0,0,0,0,2,2.958,2.958,0,0,0,2,3c-.451.051,1.044,0,5,0,2.453,0,4.249-.25,5-1,.15-.551,0-.6,0-1,0-1.252-.448-2.7-2-3h-5c-.451-.951.051-2.4,0-4,0,.1-.051-1.3,0-4a3.055,3.055,0,0,0-1,0c.149-.1-.35.051,0,0a11.11,11.11,0,0,1,2-4,15.217,15.217,0,0,0,5,1c.25-.5,0-1.349,0-2a5.254,5.254,0,0,0,0-2,16.238,16.238,0,0,0-5-1l-2-1c.051-.451,1-1.4,1-2,0-.5-.949-1.049-1-2s0-1.55,0-2a10.069,10.069,0,0,1,1-3h3a16.007,16.007,0,0,0,4-1v-2m-4,16,1,1h-2c.553-.051.65-1,1-1m-6-9h1v1a13.036,13.036,0,0,0-2,0Zm1,10h-1c0-.15,0-.85,1-1Zm1,9v1h-1c-.051-.2.1-.75,0-1Zm-2-12h0c1.452.15,2-.149,2,0Zm1-1c.25-.6.6-.949,1-1a4.668,4.668,0,0,0-1,1m-1,10h-1c-.45-.152,0,.15,0,0Zm0-2v-1a6.517,6.517,0,0,1,1,0c0,.35-.8.85-1,1m4,9c-.25.051-.55.851-1,1a4.689,4.689,0,0,0-2-1,10.01,10.01,0,0,1,3,0m-2-14h-1a3.281,3.281,0,0,1,1,0Zm0-4h0c-.25-.15-1-.851-1-1h1Z" transform="translate(6.756 8.044)" fill="#28292c"/>
        <path id="Path_699" data-name="Path 699" d="M37.97,59.867h1l-1-1c-.25-.051.049,0,0,0Z" transform="translate(8.852 13.749)" fill="#28292c"/>
        <path id="Path_700" data-name="Path 700" d="M53.157,34.553c-1-.15-3.892.15-10,0a6.668,6.668,0,0,0-2,2c0,8.161-.051,12.648,0,14,.049,1.5.949,2.55,1,3,.049.25-.15.7,0,1a12.009,12.009,0,0,0,0,2v2c-.3.25-.9.65-1,1a6.517,6.517,0,0,1,1,0c-.35.45.049.648,0,2a2.325,2.325,0,0,1-1,2,19.4,19.4,0,0,1,1,6h0v2a31.027,31.027,0,0,0,4-1c.25-.5-.25-.65,0-1a46.913,46.913,0,0,1,0-6c.049-2.754.1-4.949,0-6,1.8-.25,2.7.3,3,0a18.315,18.315,0,0,0,3,0,3.473,3.473,0,0,1,2-1,22.365,22.365,0,0,0,3-6c-.051-.4-1-.349-1-1,0-.5.949-1.648,1-3,.051-1.4,0-2.249,0-3,0-4.556-1.9-8.149-4-9m-10,28v-1h2c-.35.051-1.449.85-2,1m1-6c-.049-.2.051.051,0,0,.45-.049,1.148,0,2,0-.3.149-1.1-.1-2,0m7-9a19.2,19.2,0,0,0,0,3l-1,3h-1c-.35-.051-.549-.3-1,0l-2-1a10.96,10.96,0,0,1,0-2c.2-3.054-.15-6.995,0-11a13.379,13.379,0,0,1,4,0,9.67,9.67,0,0,1,1,5,18.321,18.321,0,0,1,0,3m0,6c-.051-.3,0-1.45,0-2a1.773,1.773,0,0,1,1,1Zm2-3-1-1c.4-.049.7-.2,1,0h0Z" transform="translate(9.665 8.063)" fill="#28292c"/>
        <path id="Path_701" data-name="Path 701" d="M61.463,51.738h1l-1-1c-.25-.051.049,0,0,0Z" transform="translate(14.36 11.877)" fill="#28292c"/>
        <rect id="Rectangle_372" data-name="Rectangle 372" width="1" height="1" transform="translate(74.822 54.616)" fill="#28292c"/>
        <path id="Path_702" data-name="Path 702" d="M62.463,45.9h-1v1a3.185,3.185,0,0,0,1-1" transform="translate(14.36 10.712)" fill="#28292c"/>
        <path id="Path_703" data-name="Path 703" d="M67.68,38.572c0-.25,1-1.4,1-2a2.954,2.954,0,0,0-1-2,18.319,18.319,0,0,1-3,0c-1.251-.051-2.25,0-3,0a10.8,10.8,0,0,0-5,1,8.691,8.691,0,0,0,0,2c0,2.352-.051,4.55,0,5,0,6.809-.4,9.6,0,10-.551.551,0,2.247,0,4a34.857,34.857,0,0,0,0,4,18.458,18.458,0,0,1,0,3,8.511,8.511,0,0,1,0,2,12.984,12.984,0,0,0,0,2c0,1.753-.152,2.45,1,3-.451.051,2.044,0,6,0,2.453,0,3.249-.25,4-1,.15-.551,1-.6,1-1,0-1.252-1.448-2.7-3-3h-4a10.369,10.369,0,0,1-1-4c0,.1-.049-1.3,0-4a3.057,3.057,0,0,0-1,0c.149-.1.65.051,1,0a11.111,11.111,0,0,1,2-4,9.136,9.136,0,0,0,4,1c.25-.5,1-1.349,1-2,0-.551-.75-1.049-1-2a8.892,8.892,0,0,0-4-1l-2-1c.051-.451,0-1.4,0-2,0-.5.051-1.049,0-2s0-1.55,0-2a12.02,12.02,0,0,1,0-3h4a8.367,8.367,0,0,0,3-1m-3,14v1h-1c.551-.051.65-1,1-1m-7-9h2v1a13.036,13.036,0,0,0-2,0Zm2,10h-1c0-.15,0-.85,1-1Zm0,9v1h0c-.051-.2.1-.75,0-1Zm-1-12h0c1.452.15,2-.149,2,0Zm1-1c.25-.6.6-.949,1-1a4.639,4.639,0,0,0-1,1m-1,10h-1c-.45-.152-1,.15-1,0Zm0-2v-1c.1,0-.25-.051,0,0,0,.35.2.85,0,1m3,9c-.25.051-.55.851-1,1-.149-.25,0-.7-1-1,.851,0,1-.3,2,0m-2-14h0a3.281,3.281,0,0,1,1,0Zm1-4h-1c-.25-.15,0-.851,0-1h1Z" transform="translate(13.143 8.044)" fill="#28292c"/>
        <path id="Path_704" data-name="Path 704" d="M78.828,34.619c-.352,0-.65-.25-1,0h-8a6.507,6.507,0,0,0-1,4,35.382,35.382,0,0,0,0,4,7.1,7.1,0,0,1,0,2v1a6.268,6.268,0,0,0,0,1h0v1c-.051,3,0,6.993,0,13a8.84,8.84,0,0,1,0,2,12.9,12.9,0,0,1,0,2c-.051.951,0,2.55,0,3,0,1.352-.553,2.1,0,3,.65.049,1.55,0,2,0,1.352,0,2.75-.3,3-1,.1-.249-.1-1.547,0-4h-1a9.631,9.631,0,0,1,1-1c.051-3.254-.1-5.348,0-7a4.351,4.351,0,0,0,1-1h1c-.1.2,0-.15,0,0a6.454,6.454,0,0,1,1,0v1h2l-2,1a91.155,91.155,0,0,0,2,12l2,1c2.453-.2,3-1.247,3-3v-2a17.153,17.153,0,0,1-2-6l-1-5a6.13,6.13,0,0,0,3-4v-5a6.728,6.728,0,0,0-1,0,6.726,6.726,0,0,1,1,0c0-3.755-.051-6.147,0-8-1.653-2.753-3.6-4-5-4m3,6h-2a6.574,6.574,0,0,0,2,0m0,2c-.3.051-.349.8-1,1,.252-.6.45-.85,1-1,0,.15-.051-.15,0,0m-1,7h-1v-1c.65.25.65.85,1,1m-2-12,1,2h-1a1.262,1.262,0,0,0-1-1c.149-.15-.1.049,0,0l-1-1c.65,0,1.7-.049,2,0m-1-1h-1c-.352-.2,0-.8,0-1,.451.2.75.949,1,1m-5,0a3.238,3.238,0,0,1,1,0,4.553,4.553,0,0,0,1,1c-.149.1-.949-.1-1,0-.15-.249-.55.1-1,0Zm0,3c-.651.2-.65.851-1,1,.65-.45.65-1.15,1-1m0,9h0a10.626,10.626,0,0,0-2,1v-1Zm-1-12c-.65.051-.65.9-1,1,.051-.15.1-1,1-1m-1,10c0,.249.2-.15,0,0h0c.2,0-.15-.051,0,0m-1,13h0Zm1,1h-1a3.128,3.128,0,0,1,1,0m-1,1h2c.049.1-.2.751,0,1h0l-2-1m2,3h0c.35.051-.25-.049,0,0m0,2h-1c.6.2.7-.149,1,0-.25,0,.35-.1,0,0m1-13c.15-.051-.252,0,0,0,0,.051-.051-.25,0,0h-1c0-.15.9.149,1,0m0,2v-1c.049,0-.25-.1,0,0l1,1Zm1-2c-.15-.3.25-.4,0-1a6.455,6.455,0,0,1,1,0v1a6.756,6.756,0,0,0-1,0m2,2h-1a1.7,1.7,0,0,1,0-1h0a9.231,9.231,0,0,1,1-1Zm-1-4c-.8-1.152-2-2.247-2-4,0-.55.9-1.848,1-3a12.692,12.692,0,0,0,0-2,13.346,13.346,0,0,0,0-2,2.409,2.409,0,0,1,1-1l1-1,3,1a29.636,29.636,0,0,1,0,7c0,2.353-.1,3.849-1,5a29.373,29.373,0,0,0-3,0m2,3v-1c.252,0-.15-.051,0,0-.3.25.2.65,0,1m1,2c.051-.2.851.15,1,0h0c-.25.25-.6-.1-1,0m2-1h0v1c-.15,0,.15-.1,0,0,.25-.551.1-.9,0-1m2,11h-1v-1a1.215,1.215,0,0,1,1,1m-1-4h-1c.15-.15.3-.049,1,0m-1-9-2-1c0-.15-.051.25,0,0,2.452.45,4,.85,4,1Zm2-4c-.15-.2-.45-.8-1-1h1c.1.15,0-.049,0,0a3.189,3.189,0,0,1,0,1m0-10,1,1h-1Z" transform="translate(15.995 7.997)" fill="#28292c"/>
        <path id="Path_705" data-name="Path 705" d="M77.895,33.15v-1h-1v1Z" transform="translate(17.928 7.466)" fill="#28292c"/>
        <path id="Path_706" data-name="Path 706" d="M76.895,64.673h0l1-1h-1Z" transform="translate(17.928 14.943)" fill="#28292c"/>
        <path id="Path_707" data-name="Path 707" d="M88.652,40.57c-.032-.435,0-.762,0-1,0-.139-.017-.868,0-1-.067-.107,0,.083,0,0,.023,0-.067-.025,0,0-.009-.164,0-.531,0-1,0-.148,0,.148,0,0s0-.922,0-1,0,.033,0,0a7.3,7.3,0,0,0,0-2c-.2-.123-1,.1-1,0-2.978-.032-4.45-.058-5,0-.1.074.247-.238,0,0-.009.139.016.811,0,1s.009-.123,0,0,0,.91,0,1h0c-.051.009.131-.074,0,0,0,1.5-.926,2.438-1,4a3.671,3.671,0,0,0,1,2c0,.3-.223-.1,0,0,.123.058.63.975,1,1a5.721,5.721,0,0,1,1,0,5.331,5.331,0,0,1,1,0c.8.033,1.63.025,2,0,.609-.032.894-.811,1-1-.009-.007-.009.033,0,0h0c.148-.18,0-.415,0-1a9.553,9.553,0,0,0,0-1m-1-5c.032,0,.017-.041,0,0-.049.009.171-.049,0,0,.148-.1-.058,0,0,0m0,0h0c0-.016.032.091,0,0Zm-4-1c-.058.009.026-.025,0,0-.015-.025.025.016,0,0,.1,0-.026-.007,0,0m0,1c-.173.074.157-.025,0,0,.049-.1-.28,0,0,0m-1,7h0c.133-.025.909,0,1,0-.157.058-.933-.041-1,0m1,0c-.032-.057.032.033,0,0h0c0,.033-.023-.057,0,0Zm4-1c-1.184.1-2.732.959-4,1-.073-.139.057-.761,0-1,.016-.781-.017-1.355,0-2s-.009-1.732,0-2,0-.009,0,0c0-.2,0-.811,0-1s0,.139,0,0h0v-1h0a6.8,6.8,0,0,0,1,0c.7-.049,1.621,0,2,0,.238,0-.1-.007,0,0,.032.132-.229-.074,0,0a3.989,3.989,0,0,0,1,0c-.09.132,0-.041,0,0v1h0c-.139.132-.058.457,0,1-.042,1.307.026,1.975,0,2,.116.049,0,.61,0,2-.165.067.023-.123,0,0m0,1h0c.007.025,0-.016,0,0Zm0-1Zm0,1h0c-.075.009.116-.041,0,0m0-3h0c-.075,0,0,.033,0,0h0Zm0,0h1c-.139.033-.943-.041-1,0" transform="translate(19.17 8.046)" fill="#28292c"/>
        <path id="Path_708" data-name="Path 708" d="M86.284,35.275c-.081,0-.942.968-1,1h-1c-.123.148-1-.287-1,0,0,.123-.026.8,0,1,.023.255.991-.025,1,0h-1c-.009.017,0-.074,0,0,.016.009-.026-.025,0,0s.984-.007,1,0h-1c-.009.3,0,.956,0,2a4.494,4.494,0,0,1,0,1c-.042.321.869.845,1,1,.444.025-.083.083,0,0a7.717,7.717,0,0,0,0-1c-.033-.016.065.025,0,0h0a8.946,8.946,0,0,1,0-1c.09-.032.927.083,1,0h0c-.016.033,0-.016,0,0,.107,0-.041-.009,0,0,.035.033-.017-.033,0,0h0c.041.412.769,1.211,1,2h0c.254-.016-.084.058,0,0,.064-.065,0,.115,0,0,0-.057.009-.942,0-1h0c-.139-.139.081-.621,0-1h0c.263-.139-.049-.753,0-1v-1c-.023-.009.09,0,0,0,.049-.007-.065,0,0,0,0-.657-.007-.81,0-1-.337-.411.28-1,0-1m0,1h0c.264.049,0-.016,0,0Zm0,1c-.073,0,.107-.032,0,0,.107-.081-.067,0,0,0,0,.033-.009-.016,0,0m0,1Zm-1-2h0c-.009-.057.139.025,0,0h0c-.107-.032.041,0,0,0,.148,0-.041-.007,0,0m0,0h0c-.067-.041,0,.017,0,0Zm-1,0c.065,0,.942-.007,1,0,.026.042-.009-.016,0,0-.023.009.016-.016,0,0-.042-.041-.927.009-1,0Zm0,2h0c-.149.025.065-.025,0,0Zm0-2h0c.009-.032-.181,0,0,0m0,1c0,.033.042-.025,0,0h0c.049,0-.016-.007,0,0m0,2h0c-.058-.025.035,0,0,0Zm0,0c.021,0-.03,0,0,0s-.032,0,0,0h0c.009,0-.02,0,0,0m0,1Zm0,0h0c-.016-.016.026.017,0,0Zm0,0h0c-.081,0,.041-.009,0,0m0-2c0,.009-.017-.049,0,0h0c0-.058-.1,0,0,0m0,1v-1c.023,0-.035-.009,0,0v1Zm0-1c.009,0-.012,0,0,0s.974,0,1,0-.016,0,0,0h0c-.026,0,.007-.007,0,0s-.917.132-1,0m1,1h0c-.017-.041-.026.033,0,0v-1c.064-.049-.107.067,0,0Zm0-1c-.157-.164-1-.729-1-1,0-.049-.021.206,0,0s0,.049,0,0c0-.115.023-.917,0-1,.189-.131.893.042,1,0,.1.033-.264-.065,0,0a3.476,3.476,0,0,1,0,1c0,.354.18.827,0,1-.058,0,.361-.016,0,0m0,0h0c-.041.033.049-.065,0,0m0,1c.009-.025-.041.025,0,0h1a9.657,9.657,0,0,1-1,0m1,1h0c.148.017,0-.016,0,0m0,0c-.148.016.017,0,0,0,.033-.033-.131-.016,0,0m0-1c.049-.074.016.017,0,0,.048-.016-.009,0,0,0h0c-.041,0,.023-.007,0,0m0-1h-1c0-.016-.016.049,0,0,.477.058,1-.033,1,0Zm0,0c-.026-.032.107.025,0,0h0c.023.025,0-.007,0,0s.023-.049,0,0m0-2Z" transform="translate(19.539 8.341)" fill="#28292c"/>
        <path id="Path_709" data-name="Path 709" d="M85.9,35.354h-1c.007.042-.026-.115,0,0Z" transform="translate(19.922 8.261)" fill="#28292c"/>
        <path id="Path_710" data-name="Path 710" d="M84.9,40.236h0Z" transform="translate(19.922 9.38)" fill="#28292c"/>
      </g>
    </g>
  </g>
</svg>
