<svg xmlns="http://www.w3.org/2000/svg" width="50" height="49" viewBox="0 0 50 49">
  <g id="youtube-white-icon" transform="translate(0.498 -0.2)">
    <path id="Path_286" data-name="Path 286" d="M34.415,219.505l-6-3c-.168-.085,0-.188,0,0v6c0,.186-.167,1.08,0,1l6-3c.189-.09.187-.906,0-1" transform="translate(-6.912 -195.306)" fill="#fff"/>
    <path id="Path_287" data-name="Path 287" d="M24.5,188.652c-13.532,0-25,10.468-25,24a25.361,25.361,0,0,0,25,25,25.361,25.361,0,0,0,25-25c0-13.532-11.468-24-25-24m11,28c0,2.637-1.364,4-4,4h-14c-2.636,0-4-1.363-4-4v-7c0-2.636,1.364-5,4-5h14c2.636,0,4,2.364,4,5Z" transform="translate(0 -188.452)" fill="#fff"/>
  </g>
</svg>
