<svg xmlns="http://www.w3.org/2000/svg" width="23.262" height="16.356" viewBox="0 0 23.262 16.356">
  <g id="email-blue" transform="translate(0 -76)">
    <g id="Group_32" data-name="Group 32" transform="translate(1.192 85.143)">
      <g id="Group_31" data-name="Group 31">
        <path id="Path_60" data-name="Path 60" d="M40.107,277.251l-1.948,1.955a2.156,2.156,0,0,1-2.987,0l-1.948-1.955-7,7.02a2.025,2.025,0,0,0,.853.192H46.252a2.022,2.022,0,0,0,.853-.192Z" transform="translate(-26.226 -277.251)" fill="#314462"/>
      </g>
    </g>
    <g id="Group_34" data-name="Group 34" transform="translate(1.192 76)">
      <g id="Group_33" data-name="Group 33" transform="translate(0 0)">
        <path id="Path_61" data-name="Path 61" d="M46.254,76H27.081a2.024,2.024,0,0,0-.853.192l7.477,7.5h0l2.431,2.439a.818.818,0,0,0,1.057,0L39.627,83.7v0h0l7.477-7.5A2.023,2.023,0,0,0,46.254,76Z" transform="translate(-26.228 -76)" fill="#314462"/>
      </g>
    </g>
    <g id="Group_36" data-name="Group 36" transform="translate(0 77.145)">
      <g id="Group_35" data-name="Group 35" transform="translate(0 0)">
        <path id="Path_62" data-name="Path 62" d="M.217,101.212a2.019,2.019,0,0,0-.217.9v12.267a2.019,2.019,0,0,0,.217.9l7.01-7.032Z" transform="translate(0 -101.212)" fill="#314462"/>
      </g>
    </g>
    <g id="Group_38" data-name="Group 38" transform="translate(16.035 77.145)">
      <g id="Group_37" data-name="Group 37" transform="translate(0 0)">
        <path id="Path_63" data-name="Path 63" d="M359.943,101.21l-7.009,7.033,7.009,7.032a2.019,2.019,0,0,0,.217-.9V102.109A2.019,2.019,0,0,0,359.943,101.21Z" transform="translate(-352.933 -101.21)" fill="#314462"/>
      </g>
    </g>
  </g>
</svg>
