<svg xmlns="http://www.w3.org/2000/svg" width="19.791" height="19.795" viewBox="0 0 19.791 19.795">
  <g id="f_instagram_white" transform="translate(-0.449)">
    <path id="Path_49" data-name="Path 49" d="M20.19,5.82a7.233,7.233,0,0,0-.46-2.4,5.071,5.071,0,0,0-2.9-2.9,7.252,7.252,0,0,0-2.4-.46C13.372.012,13.036,0,10.348,0S7.324.012,6.268.058a7.235,7.235,0,0,0-2.4.46A4.83,4.83,0,0,0,2.111,1.663,4.874,4.874,0,0,0,.971,3.415a7.253,7.253,0,0,0-.46,2.4C.46,6.876.449,7.212.449,9.9s.012,3.024.058,4.08a7.233,7.233,0,0,0,.46,2.4,5.07,5.07,0,0,0,2.9,2.9,7.253,7.253,0,0,0,2.4.46c1.056.047,1.392.058,4.08.058s3.024-.011,4.08-.058a7.231,7.231,0,0,0,2.4-.46,5.063,5.063,0,0,0,2.9-2.9,7.257,7.257,0,0,0,.46-2.4c.046-1.056.058-1.392.058-4.08s0-3.024-.05-4.08ZM18.407,13.9a5.426,5.426,0,0,1-.34,1.837,3.284,3.284,0,0,1-1.879,1.879,5.445,5.445,0,0,1-1.837.34c-1.044.047-1.357.058-4,.058s-2.958-.011-4-.058a5.423,5.423,0,0,1-1.837-.34,3.046,3.046,0,0,1-1.137-.739,3.078,3.078,0,0,1-.739-1.137,5.446,5.446,0,0,1-.34-1.837c-.047-1.044-.058-1.357-.058-4s.011-2.958.058-4a5.423,5.423,0,0,1,.34-1.837,3.009,3.009,0,0,1,.743-1.137A3.073,3.073,0,0,1,4.521,2.2a5.449,5.449,0,0,1,1.837-.34c1.044-.046,1.357-.058,4-.058s2.958.012,4,.058a5.426,5.426,0,0,1,1.837.34,3.044,3.044,0,0,1,1.137.739,3.077,3.077,0,0,1,.739,1.137,5.448,5.448,0,0,1,.34,1.837c.046,1.044.058,1.357.058,4s-.012,2.951-.058,3.995Zm0,0" transform="translate(0 0)" fill="#fff"/>
    <path id="Path_50" data-name="Path 50" d="M130.034,124.5a5.085,5.085,0,1,0,5.085,5.085A5.086,5.086,0,0,0,130.034,124.5Zm0,8.384a3.3,3.3,0,1,1,3.3-3.3A3.3,3.3,0,0,1,130.034,132.884Zm0,0" transform="translate(-119.686 -119.686)" fill="#fff"/>
    <path id="Path_51" data-name="Path 51" d="M364.824,89.789a1.187,1.187,0,1,1-1.187-1.187A1.187,1.187,0,0,1,364.824,89.789Zm0,0" transform="translate(-348.003 -85.176)" fill="#fff"/>
  </g>
</svg>
