<svg xmlns="http://www.w3.org/2000/svg" width="213.074" height="123.96" viewBox="0 0 213.074 123.96">
  <g id="f_logo" transform="translate(-9.868)">
    <path id="Path_1" data-name="Path 1" d="M270.129,273.2l-1.416-.007c0-.143.067-14.289.067-16.195a1.377,1.377,0,0,0-.2-.916c-.369-.359-1.941-.318-3.461-.278-3.38.089-15.5,1.972-18.535,2.56a7.327,7.327,0,0,1-5.816-1.287c-.1-.063-.2-.125-.293-.184a6,6,0,0,1-2.259-5.021c.2-1.429.636-5.038.636-5.688,0-.051,0-.114-.007-.186a15.631,15.631,0,0,1-2.865-.508c-2.114-.557-2.592-2.8-2.359-4.545.082-.613-.129-.795-.748-1.231a6.749,6.749,0,0,1-.578-.44,2.61,2.61,0,0,1-.922-2.642,1.923,1.923,0,0,1,1.255-1.092c.116-.457.337-1.365.635-2.737a12.652,12.652,0,0,0,.237-2.234c-.2.1-.392.2-.586.294a13.644,13.644,0,0,1-1.377.64c-1.511.566-3.3-.4-5.041-2.719-1.432-1.909-.247-3.94.322-4.916a9.116,9.116,0,0,1,.632-.894,18.224,18.224,0,0,0,3.253-6.62,49.568,49.568,0,0,0,1.6-6.884l-.024.024a10.385,10.385,0,0,1-2.726,1.46c-2.4.945-3.141.649-3.385.552l-.525-.209.088-.558c.069-.436.439-.747,1.053-1.264a5.42,5.42,0,0,0,1.478-1.587c.229-.611.488-1.184.7-1.644l.018-.039c-.275-.356-.553-.734-.836-1.119-.476-.646-.968-1.315-1.472-1.92-1.556-1.868-.847-4.107-.278-5.907.049-.156.1-.311.145-.464.388-1.261.928-4.241,1.553-7.693.273-1.508.555-3.067.854-4.647,1.091-5.767,4.943-12.468,7.266-15.565a6.164,6.164,0,0,1,5.234-2.705,5.813,5.813,0,0,1,4.65,3.058c1.3,2.236,4.208,4.508,7.016,6.7l.089.07a31.094,31.094,0,0,0,2.578-5.6l1.194-6.914,1.395.241-1.214,7.028-.018.054a32.154,32.154,0,0,1-2.784,6.014l-.034.051c.907.718,1.8,1.445,2.618,2.167a29.629,29.629,0,0,0,9.423,5.86c3.315,1.221,3.673,4.621,3.91,6.87a9.889,9.889,0,0,1-4.02,8.637c-1.9,1.4-3.917,6.854-5.537,11.236-.552,1.493-1.073,2.9-1.583,4.16-1.325,3.268-1.752,9.416-1.889,14.186l.788-.411a49.888,49.888,0,0,0,9.624-6.033c4.511-3.806,10.466-8.981,10.525-9.033l.049-.042.056-.033c.169-.1,1.684-.955,2.8-.213.774.515,1.053,1.592.831,3.2-.059.432-.12.925-.183,1.447-.563,4.617-1.506,12.344-6.639,18.922-.874,1.12-1.57,2.038-2.129,2.776-2.728,3.6-2.792,3.651-6.822,5.5l-.71.327c-5.5,2.538-9.852,4.593-9.9,4.614l-.088.042-.1.016a3.268,3.268,0,0,1-2.8-.775,2.865,2.865,0,0,1-.317-2.853c.328-1.078.811-2.329,1.323-3.654,1.032-2.672,2.2-5.7,2.207-7.7v-.666c0-.792,0-1.837.014-3.044q-.544.3-1.084.613a5.253,5.253,0,0,1-4.5.638c-2.494-.879-3.753-3.715-4.079-4.564-.443-1.151-1.031-3.266-1.655-5.5-.4-1.452-.823-2.954-1.217-4.249-1.156-3.8,2.963-7.917,4.316-9.27a13.35,13.35,0,0,1,2.211-1.662c1.125-.73,2.187-1.42,2.466-2.327a36.135,36.135,0,0,1,1.553-3.631l.257-.554-.987.274c-.9.251-1.941.541-2.994.809a9.446,9.446,0,0,1-2.223,1.639,70.28,70.28,0,0,1-8.668,4.046,1.151,1.151,0,0,1-1.415-.245c-.625-.764.086-2.166.566-2.934.7-1.113,1.543-2.637,1.552-2.653l.144-.26.287-.079a11.558,11.558,0,0,1,3.976-.049,12.935,12.935,0,0,0,3.655-.417c.427-.092.867-.2,1.309-.3a.442.442,0,0,0,.071-.18,1.169,1.169,0,0,0-.589-.283,28.522,28.522,0,0,0-8.459-.691c-3.187.277-4.077.42-4.085.422l-.2.033-.191-.081a1.207,1.207,0,0,1-.71-.947c-.076-.632.342-1.28,1.278-1.982.5-.374,1.167-.993,1.941-1.71,1.8-1.67,4.046-3.749,5.968-4.39,2.517-.839,3.679-.209,4.046.08.507.262,3.592,1.853,4.861,2.361.276.111.617.208.979.311,1.3.372,3.477.994,3.011,3.2a11.473,11.473,0,0,1-.576,1.76c2.189-.983,4.525-2.839,4.609-4.094s-1.868-3.083-3.118-3.935-7.508-5.233-8.261-7.341c-.715-2,1.031-4.753,2.593-7.061l-.166-.13c-2.913-2.279-5.925-4.635-7.367-7.106a4.424,4.424,0,0,0-3.508-2.359,4.781,4.781,0,0,0-4.02,2.141c-2.706,3.607-6.081,10.083-7.007,14.979-.3,1.575-.58,3.132-.852,4.637-.633,3.5-1.18,6.516-1.593,7.857q-.072.234-.149.474c-.537,1.7-1.045,3.3.016,4.574.532.638,1.037,1.324,1.525,1.987q.2.276.4.544a.926.926,0,0,1,.29-.162,1.37,1.37,0,0,1,1.218.316,22.8,22.8,0,0,1,2.559,2.244c.1.162.293.5-.15,3.134a53.281,53.281,0,0,1-1.544,6.438,19.738,19.738,0,0,1-3.484,7.071,8.169,8.169,0,0,0-.534.748c-.648,1.111-1.214,2.285-.413,3.353,1.291,1.721,2.566,2.56,3.411,2.242a12.543,12.543,0,0,0,1.231-.575c.391-.2.8-.407,1.232-.593-.01-.474-.026-.929-.041-1.343-.017-.483-.033-.9-.033-1.236a2.694,2.694,0,0,1,.856-2.309,2.265,2.265,0,0,1,2.073-.207,28.958,28.958,0,0,1,5.348,3.037l.431.3-1.116,3.489-.686-.24a15.073,15.073,0,0,0-3.838-.7,4.912,4.912,0,0,0-1.57.2,15.679,15.679,0,0,1-.281,3.106c-.2.942-.373,1.665-.5,2.18.206-.009.421-.011.649-.006a25.147,25.147,0,0,1,7.082,1.285c.435.134.811.249,1.022.288,1.031.188,1.122.781,1.113,1.028-.024.692-.786,1.126-2.264,1.29-1.521.169-4.276.662-4.6.722a2.66,2.66,0,0,1-2.375-.621,13.623,13.623,0,0,1-1.84-2.332.466.466,0,0,0-.24.206c-.093.24.216.785.535,1.064a5.556,5.556,0,0,0,.461.348,2.477,2.477,0,0,1,1.337,2.575c-.057.426-.261,2.574,1.316,2.989a14.973,14.973,0,0,0,2.379.445c-.107-1.243-.1-1.836.183-2.206a7.272,7.272,0,0,1,2.1-1.318l.694-.326.27.718c.091.241.86,2.392-.073,3.675a2.372,2.372,0,0,1-1.634.848c0,.084.007.16.007.228,0,.811-.483,4.718-.65,5.888a4.624,4.624,0,0,0,1.6,3.615l.307.192a5.933,5.933,0,0,0,4.792,1.094c2.614-.506,15.169-2.49,18.766-2.585,2.424-.063,3.725-.063,4.486.679A2.593,2.593,0,0,1,270.2,257c0,1.909-.066,16.059-.066,16.2ZM257.2,231.631c-.028,1.583-.028,2.921-.027,3.813v.671c-.006,2.264-1.225,5.423-2.3,8.21-.5,1.3-.976,2.528-1.289,3.556-.152.5-.271,1.166.024,1.505a1.857,1.857,0,0,0,1.418.326c.68-.321,4.762-2.244,9.808-4.572l.712-.328a16.366,16.366,0,0,0,6.285-5.073c.562-.741,1.261-1.664,2.141-2.791,4.892-6.268,5.8-13.751,6.35-18.222.064-.528.125-1.026.186-1.469.157-1.139-.007-1.692-.212-1.83-.25-.167-.864.017-1.246.224-.61.53-6.2,5.381-10.487,9a51.022,51.022,0,0,1-9.882,6.206c-.5.262-.994.518-1.479.775Zm-17.12,11.541a9.331,9.331,0,0,0,.056,1.378.959.959,0,0,0,.612-.275,2.264,2.264,0,0,0,.1-1.571A6.451,6.451,0,0,0,240.085,243.172Zm-5.608-6.48a9.91,9.91,0,0,0,1.237,1.522,1.238,1.238,0,0,0,1.084.307l.065-.015c.114-.021,2.589-.47,4.281-.687a23.229,23.229,0,0,0-6.375-1.124c-.1,0-.2,0-.291,0Zm8.35,1.6Zm12.986-36.866c-.24.531-.493,1.076-.743,1.616a36.01,36.01,0,0,0-1.484,3.451c-.43,1.4-1.761,2.263-3.048,3.1a12.32,12.32,0,0,0-1.98,1.476c-1.2,1.2-4.872,4.871-3.962,7.857.4,1.311.82,2.821,1.226,4.282.614,2.205,1.194,4.289,1.612,5.376.559,1.454,1.7,3.2,3.228,3.737a3.909,3.909,0,0,0,3.32-.526c.6-.348,1.21-.686,1.822-1.015.111-5.014.52-11.788,2.016-15.48.5-1.237,1.019-2.637,1.567-4.119,1.86-5.031,3.783-10.232,6.025-11.885a8.433,8.433,0,0,0,3.452-7.349,12.447,12.447,0,0,0-.759-3.571,3.713,3.713,0,0,0-2.232-2.119A31.016,31.016,0,0,1,256,180.124c-.764-.678-1.612-1.367-2.475-2.051-1.212,1.8-2.847,4.388-2.376,5.708.464,1.3,4.985,4.767,7.727,6.648.4.27,3.9,2.724,3.731,5.2-.167,2.5-4.265,5.027-6.794,5.8ZM236.3,228.383q.128,0,.259.005a16.51,16.51,0,0,1,3.551.564l.362-1.131a25.1,25.1,0,0,0-4.509-2.549,1.062,1.062,0,0,0-.825-.017c-.087.065-.289.31-.289,1.176,0,.31.015.715.032,1.184.01.291.022.6.031.925a6.238,6.238,0,0,1,1.388-.158ZM230,207.407c-.135.308-.276.642-.4.981a4.133,4.133,0,0,1-1.059,1.44,10.72,10.72,0,0,0,2.751-1.333l0,0c-.173-.149-.442-.351-.641-.5a5.588,5.588,0,0,1-.651-.585Zm10.951-3.6c-.285.505-.889,1.566-1.425,2.424a5.331,5.331,0,0,0-.483.962,72.772,72.772,0,0,0,7.494-3.469,9.677,9.677,0,0,1-2.407.123,13.076,13.076,0,0,0-3.177-.04Zm1.131-4.73a30.409,30.409,0,0,1,7.02.815c1.209.33,1.548.965,1.618,1.448.689-.184,1.355-.37,1.958-.538.821-.229,1.545-.431,2.121-.574a16.117,16.117,0,0,0,.981-2.654c.156-.739-.24-1.043-2.016-1.551-.38-.108-.772-.221-1.115-.358-1.443-.577-4.912-2.379-5.059-2.455l-.134-.07-.031-.044c-.125-.078-.872-.456-2.711.157-1.632.544-3.751,2.507-5.453,4.085-.8.744-1.5,1.386-2.053,1.8a4.768,4.768,0,0,0-.408.339c.631-.073,1.679-.181,3.348-.326.627-.055,1.278-.079,1.933-.079Z" transform="translate(-215.782 -156.36)" fill="#f39200"/>
    <g id="Group_10" data-name="Group 10" transform="translate(60.03 22.396)">
      <g id="Group_8" data-name="Group 8" transform="translate(19.231)">
        <g id="Group_1" data-name="Group 1" transform="translate(0 0)">
          <path id="Path_2" data-name="Path 2" d="M1829.152,540a.2.2,0,0,1-.219-.219v-2.307a12.234,12.234,0,0,1-5.38,2.295h-.013a6.575,6.575,0,0,0-1.292.229l-.008,0h-.719l-.016-.01a8.012,8.012,0,0,0-1.82-.375h-.007l-.007,0c-2.012-.807-3.263-1.642-3.72-2.482a6.756,6.756,0,0,1-1.7-3.254,11.78,11.78,0,0,1-.309-1.475V513.861a.214.214,0,0,1,.219-.211h.393a.214.214,0,0,1,.211.22v18.376c0,2.8,1.487,4.956,4.42,6.4a8.086,8.086,0,0,0,2.742.533,11.662,11.662,0,0,0,7.008-2.581V513.861a.214.214,0,0,1,.219-.211h.316a.214.214,0,0,1,.211.219V539.78a.2.2,0,0,1-.219.22h-.308Z" transform="translate(-1813.876 -513.584)" fill="#fff"/>
          <path id="Path_3" data-name="Path 3" d="M1828.064,512.281c.1.013.154.065.154.154v25.911a.136.136,0,0,1-.154.154h-.307a.136.136,0,0,1-.154-.154v-2.383h-.077a12.057,12.057,0,0,1-5.382,2.307,6.615,6.615,0,0,0-1.307.23h-.692a8.694,8.694,0,0,0-1.845-.384q-3.018-1.211-3.69-2.46a6.655,6.655,0,0,1-1.691-3.229,12.016,12.016,0,0,1-.307-1.461v-18.53c.013-.1.064-.154.154-.154h.384c.1.013.154.065.154.154v18.376q0,4.267,4.46,6.459a8.121,8.121,0,0,0,2.768.538,11.69,11.69,0,0,0,7.073-2.614V512.435c.013-.1.064-.154.154-.154h.307m.009-.131h-.316a.276.276,0,0,0-.284.269v22.709a11.584,11.584,0,0,1-6.942,2.549,8.018,8.018,0,0,1-2.717-.528c-2.906-1.43-4.38-3.562-4.38-6.337V512.435a.277.277,0,0,0-.268-.284h-.4a.276.276,0,0,0-.284.269v18.546a9.745,9.745,0,0,0,.311,1.491,6.825,6.825,0,0,0,1.712,3.278c.474.863,1.7,1.682,3.749,2.5l.014.006.015,0a7.983,7.983,0,0,1,1.8.366l.032.02h.746l.015,0a6.538,6.538,0,0,1,1.276-.227h.014l.013,0a12.491,12.491,0,0,0,5.3-2.22v2.169a.265.265,0,0,0,.285.285h.308a.264.264,0,0,0,.285-.285V512.435a.277.277,0,0,0-.269-.284h-.008Z" transform="translate(-1812.48 -512.15)" fill="#fff"/>
        </g>
        <g id="Group_2" data-name="Group 2" transform="translate(19.228 0)">
          <path id="Path_4" data-name="Path 4" d="M2268.873,540.009a.2.2,0,0,1-.219-.219v-4.746c-6.729-9.19-11.5-15.648-14.17-19.2V539.79a.2.2,0,0,1-.22.219h-.384a.2.2,0,0,1-.219-.219V513.736h.175l.02.027c9.211,12.4,14.058,18.977,14.8,20.081V513.871a.213.213,0,0,1,.219-.211h.316a.214.214,0,0,1,.211.22V539.79a.2.2,0,0,1-.22.22h-.307Z" transform="translate(-2253.595 -513.593)" fill="#fff"/>
          <path id="Path_5" data-name="Path 5" d="M2267.755,512.272c.1.013.154.065.154.154v25.911a.136.136,0,0,1-.154.154h-.308a.136.136,0,0,1-.154-.154v-4.767q-10.3-14.07-14.3-19.376v24.142a.136.136,0,0,1-.154.154h-.384a.136.136,0,0,1-.154-.154V512.348h.077q13.993,18.838,14.839,20.144h.077V512.425c.012-.1.064-.154.154-.154h.308m.008-.131h-.316a.276.276,0,0,0-.283.269v19.77c-1.052-1.515-5.869-8.049-14.68-19.909l-.039-.053h-.274v26.119a.264.264,0,0,0,.285.285h.384a.265.265,0,0,0,.285-.285v-23.75c2.693,3.582,7.414,9.979,14.038,19.026v4.724a.264.264,0,0,0,.285.285h.307a.265.265,0,0,0,.285-.285V512.425a.277.277,0,0,0-.269-.284h-.009Z" transform="translate(-2252.17 -512.14)" fill="#fff"/>
        </g>
        <g id="Group_3" data-name="Group 3" transform="translate(38.457 0)">
          <path id="Path_6" data-name="Path 6" d="M2705.122,540l-.02-.022a6.633,6.633,0,0,0-2.034-.362h-.006l-.005,0a12.64,12.64,0,0,1-7.032-4.869,12.232,12.232,0,0,1-2.162-5.012,9.7,9.7,0,0,1-.38-2.043.13.13,0,0,1-.084-.133v-1.483l.014-.018a12.127,12.127,0,0,0,.448-2.506v-.01a13.486,13.486,0,0,1,3.63-6.332,11.675,11.675,0,0,1,6.414-3.324l.007,0h.008a1.87,1.87,0,0,0,1.039-.219l.017-.012h1.509l.019.019a7.242,7.242,0,0,0,1.961.366h.005l.005,0c.549.172.661.272.661.37v.527h-.151l-.008,0a13.456,13.456,0,0,0-3.29-.459c-4.019,0-7.336,2.032-9.861,6.041a13.944,13.944,0,0,0-1.606,6.349,12.544,12.544,0,0,0,4.973,10.1,11.087,11.087,0,0,0,6.571,2.215,11.936,11.936,0,0,0,7.085-2.581v-7.741a.214.214,0,0,1,.22-.211h.315a.214.214,0,0,1,.211.22v7.948l-.022.02a11.337,11.337,0,0,1-5.722,2.861h-.011c-.1,0-.66.1-1.679.306h-1.042Z" transform="translate(-2693.334 -513.584)" fill="#fff"/>
          <path id="Path_7" data-name="Path 7" d="M2705.024,512.272a7.967,7.967,0,0,0,2,.384c.41.129.615.231.615.307v.461h-.077a13.467,13.467,0,0,0-3.306-.461q-6.093,0-9.918,6.074a13.95,13.95,0,0,0-1.615,6.382,12.556,12.556,0,0,0,5,10.149,11.105,11.105,0,0,0,6.613,2.23,11.726,11.726,0,0,0,7.15-2.614v-7.766c.013-.1.064-.154.154-.154h.307c.1.013.154.065.154.154v7.919a11.22,11.22,0,0,1-5.689,2.845q-.154,0-1.691.307h-1a7.273,7.273,0,0,0-2.076-.384,12.524,12.524,0,0,1-7-4.844,12.106,12.106,0,0,1-2.153-5,11.389,11.389,0,0,1-.384-2.076.068.068,0,0,1-.077-.077V524.65a13.524,13.524,0,0,0,.461-2.537,13.357,13.357,0,0,1,3.614-6.3,11.552,11.552,0,0,1,6.381-3.306,1.921,1.921,0,0,0,1.076-.23h1.461m.055-.131h-1.557l-.034.024a1.81,1.81,0,0,1-1,.207h-.014l-.014,0a15.646,15.646,0,0,0-3.79,1.319,9.021,9.021,0,0,0-2.657,2.023,10.679,10.679,0,0,0-2.106,2.661,17.518,17.518,0,0,0-1.54,3.7l0,.01v.01a13.181,13.181,0,0,1-.436,2.476l-.027.034v1.506a.2.2,0,0,0,.09.176,9.545,9.545,0,0,0,.377,2.023,12.3,12.3,0,0,0,2.171,5.027,11.641,11.641,0,0,0,2.974,2.974,14.482,14.482,0,0,0,4.093,1.921l.011,0h.011a7.749,7.749,0,0,1,2,.345l.035.041h1.072l.013,0c1.263-.252,1.6-.3,1.666-.3h.011l.011,0a11.4,11.4,0,0,0,5.755-2.877l.043-.039v-7.978a.277.277,0,0,0-.269-.284h-.324a.276.276,0,0,0-.284.269v7.716a11.626,11.626,0,0,1-7.019,2.549,10.813,10.813,0,0,1-6.532-2.2,12.481,12.481,0,0,1-4.946-10.045,13.884,13.884,0,0,1,1.6-6.317c2.512-3.987,5.811-6.008,9.8-6.008a13.392,13.392,0,0,1,3.274.457l.016,0h.224v-.593c0-.137-.113-.247-.707-.433l-.011,0h-.011a8.424,8.424,0,0,1-1.927-.35l-.035-.035h0Z" transform="translate(-2691.9 -512.14)" fill="#fff"/>
        </g>
        <g id="Group_4" data-name="Group 4" transform="translate(61.53 0.23)">
          <path id="Path_8" data-name="Path 8" d="M3244.963,545.058l-.02-.028c-.209-.3-3.933-8.174-11.385-24.075a4.987,4.987,0,0,1-.22-.549c-7.1,15.289-10.994,23.572-11.581,24.619l-.019.034h-.5a.2.2,0,0,1-.22-.22v-.017l.009-.015c.753-1.34,4.839-10.03,12.146-25.829l.017-.038h.314l12.132,26.119h-.675Z" transform="translate(-3220.953 -518.873)" fill="#fff"/>
          <path id="Path_9" data-name="Path 9" d="M3232.021,517.532l12.071,25.988h-.538q-.308-.442-11.379-24.066a2.752,2.752,0,0,1-.231-.615h-.077q-10.725,23.105-11.61,24.681h-.461a.136.136,0,0,1-.154-.154q1.135-2.018,12.148-25.834h.23m.083-.131h-.4l-.036.076c-7.306,15.8-11.391,24.486-12.144,25.825l-.017.03v.034a.265.265,0,0,0,.285.285h.538l.038-.067c.586-1.045,4.46-9.279,11.515-24.476.036.095.089.223.168.4h0c7.453,15.9,11.179,23.782,11.391,24.085l.039.056h.813l-.086-.186-12.072-25.988-.035-.076h0Z" transform="translate(-3219.51 -517.4)" fill="#fff"/>
        </g>
        <g id="Group_5" data-name="Group 5" transform="translate(89.353 0)">
          <path id="Path_10" data-name="Path 10" d="M3872.443,540a.2.2,0,0,1-.22-.219v-2.307a12.23,12.23,0,0,1-5.38,2.295h-.013a6.572,6.572,0,0,0-1.292.229l-.008,0h-.719l-.016-.01a8.019,8.019,0,0,0-1.82-.375h-.007l-.007,0c-2.011-.807-3.262-1.642-3.719-2.482a6.75,6.75,0,0,1-1.7-3.254,11.822,11.822,0,0,1-.309-1.475V513.861a.213.213,0,0,1,.219-.212h.393a.214.214,0,0,1,.211.22v18.376c0,2.8,1.487,4.956,4.419,6.4a8.089,8.089,0,0,0,2.743.533,11.663,11.663,0,0,0,7.007-2.581V513.861a.214.214,0,0,1,.22-.212h.315a.214.214,0,0,1,.211.22V539.78a.2.2,0,0,1-.219.219Z" transform="translate(-3857.166 -513.584)" fill="#fff"/>
          <path id="Path_11" data-name="Path 11" d="M3871.335,512.281c.1.013.154.065.154.154v25.911a.136.136,0,0,1-.154.154h-.308a.136.136,0,0,1-.154-.154v-2.383h-.077a12.058,12.058,0,0,1-5.382,2.307,6.594,6.594,0,0,0-1.307.23h-.692a8.685,8.685,0,0,0-1.845-.384q-3.018-1.211-3.69-2.46a6.651,6.651,0,0,1-1.691-3.229,12.1,12.1,0,0,1-.308-1.461v-18.53c.012-.1.064-.154.154-.154h.384c.1.013.154.065.154.154v18.376q0,4.267,4.46,6.459a8.12,8.12,0,0,0,2.767.538,11.689,11.689,0,0,0,7.074-2.614V512.435c.012-.1.064-.154.154-.154h.308m.008-.131h-.316a.276.276,0,0,0-.284.269v22.708a11.586,11.586,0,0,1-6.942,2.549,8.016,8.016,0,0,1-2.716-.528c-2.907-1.43-4.38-3.562-4.38-6.337V512.435a.277.277,0,0,0-.269-.284h-.4a.277.277,0,0,0-.285.269v18.546a9.77,9.77,0,0,0,.311,1.49,6.819,6.819,0,0,0,1.713,3.278c.473.863,1.7,1.682,3.748,2.5l.014.006.015,0a7.987,7.987,0,0,1,1.795.366l.032.02h.746l.015,0a6.518,6.518,0,0,1,1.276-.227h.014l.013,0a12.5,12.5,0,0,0,5.3-2.22v2.169a.265.265,0,0,0,.285.285h.308a.265.265,0,0,0,.285-.285V512.435a.277.277,0,0,0-.269-.284h-.008Z" transform="translate(-3855.75 -512.15)" fill="#fff"/>
        </g>
        <g id="Group_6" data-name="Group 6" transform="translate(108.581 0.001)">
          <path id="Path_12" data-name="Path 12" d="M4297.169,540a.2.2,0,0,1-.219-.22V513.862a.213.213,0,0,1,.219-.212h13.08a.214.214,0,0,1,.211.219v.384a.2.2,0,0,1-.22.219h-12.467v9.787h6.939a.214.214,0,0,1,.211.22v.307a.2.2,0,0,1-.219.219h-6.931v14.17h14.7a.214.214,0,0,1,.211.219v.384a.2.2,0,0,1-.22.219h-15.3Z" transform="translate(-4296.885 -513.585)" fill="#fff"/>
          <path id="Path_13" data-name="Path 13" d="M4308.806,512.291c.1.013.153.065.153.154v.384a.135.135,0,0,1-.153.154h-12.532V522.9h7c.1.013.154.065.154.154v.307a.137.137,0,0,1-.154.154h-7v14.3h14.762c.1.013.153.065.153.154v.384a.136.136,0,0,1-.153.154h-15.3a.135.135,0,0,1-.153-.154V512.445c.012-.1.063-.154.153-.154h13.071m.009-.131h-13.08a.275.275,0,0,0-.283.269l0,.008v25.919a.265.265,0,0,0,.286.285h15.3a.264.264,0,0,0,.284-.285v-.384a.276.276,0,0,0-.267-.284h-14.647V523.648h6.865a.265.265,0,0,0,.285-.285v-.307a.278.278,0,0,0-.27-.284h-6.881v-9.656h12.4a.265.265,0,0,0,.285-.285v-.384a.277.277,0,0,0-.269-.284h-.008Z" transform="translate(-4295.449 -512.16)" fill="#fff"/>
        </g>
        <g id="Group_7" data-name="Group 7" transform="translate(127.811)">
          <path id="Path_14" data-name="Path 14" d="M4751.769,540l-.019-.031c-.346-.55-2.806-5.778-7.309-15.539l-.037-.081.088-.012a7.8,7.8,0,0,0,2.74-.836,4.921,4.921,0,0,0,2.2-3.943v-.385c0-2.136-1.226-3.667-3.643-4.55a7.094,7.094,0,0,0-1.366-.151h-6.932V539.78a.2.2,0,0,1-.219.22h-.385a.2.2,0,0,1-.22-.22V513.862a.214.214,0,0,1,.22-.212h8.314l1.163.388c2.531,1.034,3.813,2.813,3.813,5.29s-1.255,4.18-3.729,5.288l0,0a3.575,3.575,0,0,1-1,.232c4.46,9.629,6.8,14.64,6.951,14.9l.01.016v.018a.2.2,0,0,1-.22.22h-.421Z" transform="translate(-4736.604 -513.584)" fill="#fff"/>
          <path id="Path_15" data-name="Path 15" d="M4743.778,512.271l1.153.384q3.768,1.538,3.767,5.228c0,2.461-1.229,4.126-3.69,5.228a3.25,3.25,0,0,1-1.076.23q6.765,14.609,7,14.993a.137.137,0,0,1-.154.154h-.385q-.519-.826-7.3-15.531a7.83,7.83,0,0,0,2.767-.846,4.963,4.963,0,0,0,2.229-4v-.384q0-3.267-3.69-4.613a7.139,7.139,0,0,0-1.384-.154h-7v25.372a.136.136,0,0,1-.154.154h-.384a.136.136,0,0,1-.154-.154V512.425c.012-.1.063-.154.154-.154h8.3m.021-.131h-8.325a.276.276,0,0,0-.283.269v25.926a.265.265,0,0,0,.286.285h.383a.265.265,0,0,0,.286-.285V513.095h6.866a7.067,7.067,0,0,1,1.349.149c2.419.885,3.6,2.352,3.6,4.486v.384a4.858,4.858,0,0,1-2.171,3.889,7.754,7.754,0,0,1-2.713.826l-.177.024.075.161c4.568,9.9,6.959,14.986,7.313,15.546l.038.061h.456a.264.264,0,0,0,.285-.285V538.3l-.018-.031c-.105-.174-1.391-2.889-6.909-14.8a3.883,3.883,0,0,0,.921-.228l0,0,0,0a6.72,6.72,0,0,0,2.821-2.178,5.378,5.378,0,0,0,.947-3.17,5.489,5.489,0,0,0-.967-3.229,6.459,6.459,0,0,0-2.882-2.121l0,0h0l-1.152-.384-.021-.007h0Z" transform="translate(-4735.191 -512.14)" fill="#fff"/>
        </g>
      </g>
      <g id="Group_9" data-name="Group 9" transform="translate(0 0)">
        <path id="Path_16" data-name="Path 16" d="M1374.429,540a.2.2,0,0,1-.219-.22V513.861a.214.214,0,0,1,.219-.211h.393a.214.214,0,0,1,.211.219v25.307h14.7a.214.214,0,0,1,.211.219v.384a.2.2,0,0,1-.219.219h-15.3Z" transform="translate(-1374.145 -513.584)" fill="#fff"/>
        <path id="Path_17" data-name="Path 17" d="M1373.389,512.281c.1.013.154.065.154.154v25.372h14.762c.1.013.154.065.154.154v.384a.136.136,0,0,1-.154.154h-15.3a.136.136,0,0,1-.154-.154V512.435c.013-.1.064-.154.154-.154h.384m.008-.131h-.393a.276.276,0,0,0-.284.269v25.927a.265.265,0,0,0,.285.285h15.3a.265.265,0,0,0,.285-.285v-.384a.277.277,0,0,0-.268-.284h-14.648V512.436a.277.277,0,0,0-.268-.284h-.009Z" transform="translate(-1372.72 -512.15)" fill="#fff"/>
      </g>
    </g>
    <g id="Group_17" data-name="Group 17" transform="translate(60.03 56.152)">
      <g id="Group_11" data-name="Group 11" transform="translate(19.229)">
        <path id="Path_18" data-name="Path 18" d="M1829.009,1311.938l-.019-.031c-.346-.55-2.8-5.778-7.308-15.538l-.037-.08.088-.012a7.809,7.809,0,0,0,2.74-.836,4.92,4.92,0,0,0,2.2-3.943v-.384c0-2.136-1.226-3.667-3.643-4.55a7.1,7.1,0,0,0-1.366-.151h-6.931v25.306a.2.2,0,0,1-.219.219h-.385a.2.2,0,0,1-.219-.219V1285.8a.214.214,0,0,1,.219-.211h8.314l1.163.388c2.531,1.033,3.812,2.813,3.812,5.291s-1.254,4.179-3.729,5.288l0,0a3.59,3.59,0,0,1-1,.232c4.46,9.631,6.8,14.643,6.951,14.9l.01.016v.018a.2.2,0,0,1-.219.219h-.421Z" transform="translate(-1813.846 -1285.523)" fill="#fff"/>
        <path id="Path_19" data-name="Path 19" d="M1821.028,1284.193l1.153.384q3.767,1.538,3.768,5.228c0,2.46-1.23,4.126-3.69,5.228a3.254,3.254,0,0,1-1.076.231q6.765,14.608,7,14.992a.136.136,0,0,1-.154.154h-.385q-.518-.826-7.3-15.53a7.82,7.82,0,0,0,2.768-.846,4.964,4.964,0,0,0,2.23-4v-.384q0-3.267-3.691-4.613a7.157,7.157,0,0,0-1.384-.154h-7v25.371a.136.136,0,0,1-.154.154h-.385a.136.136,0,0,1-.154-.154v-25.91c.013-.1.064-.154.154-.154h8.3m.022-.131h-8.325a.276.276,0,0,0-.284.269v25.926a.265.265,0,0,0,.285.285h.384a.265.265,0,0,0,.285-.285v-25.24h6.865a7.049,7.049,0,0,1,1.348.149c2.419.884,3.595,2.352,3.595,4.486v.384a4.856,4.856,0,0,1-2.171,3.888,7.742,7.742,0,0,1-2.713.826l-.175.024.074.161c4.568,9.9,6.959,14.985,7.312,15.545l.038.061h.457a.265.265,0,0,0,.285-.285v-.036l-.019-.031c-.15-.25-2.474-5.231-6.908-14.8a3.874,3.874,0,0,0,.92-.228l0,0,0,0a6.721,6.721,0,0,0,2.822-2.177,5.382,5.382,0,0,0,.947-3.17,5.483,5.483,0,0,0-.967-3.229,6.457,6.457,0,0,0-2.883-2.121l0,0h0l-1.153-.384-.02-.007h0Z" transform="translate(-1812.44 -1284.06)" fill="#fff"/>
      </g>
      <g id="Group_12" data-name="Group 12" transform="translate(38.456 0.232)">
        <path id="Path_20" data-name="Path 20" d="M2277.563,1316.987l-.02-.028c-.209-.3-3.933-8.175-11.384-24.074a4.765,4.765,0,0,1-.22-.549c-7.1,15.288-10.994,23.571-11.581,24.618l-.019.034h-.5a.2.2,0,0,1-.22-.219v-.017l.009-.015c.752-1.34,4.838-10.03,12.145-25.829l.018-.038h.314l12.132,26.118h-.675Z" transform="translate(-2253.554 -1290.804)" fill="#fff"/>
        <path id="Path_21" data-name="Path 21" d="M2264.62,1289.491l12.071,25.987h-.538q-.308-.442-11.379-24.064a2.782,2.782,0,0,1-.23-.615h-.077q-10.725,23.1-11.609,24.679h-.461a.136.136,0,0,1-.154-.154q1.133-2.018,12.147-25.833h.23m.083-.131h-.4l-.035.076c-7.306,15.8-11.391,24.485-12.143,25.824l-.016.03v.034a.264.264,0,0,0,.285.285h.538l.038-.067c.586-1.045,4.46-9.279,11.514-24.475.036.095.09.223.167.4h0c7.453,15.9,11.179,23.781,11.39,24.084l.039.056h.812l-.087-.186-12.071-25.987-.036-.076h0Z" transform="translate(-2252.11 -1289.36)" fill="#fff"/>
      </g>
      <g id="Group_13" data-name="Group 13" transform="translate(66.279 0.001)">
        <path id="Path_22" data-name="Path 22" d="M2905.022,1311.929a.2.2,0,0,1-.22-.22V1309.4a12.235,12.235,0,0,1-5.38,2.295h-.013a6.569,6.569,0,0,0-1.291.229l-.008,0h-.719l-.016-.01a8.02,8.02,0,0,0-1.82-.375h-.007l-.007,0c-2.011-.807-3.263-1.642-3.719-2.482a6.758,6.758,0,0,1-1.7-3.254,11.779,11.779,0,0,1-.309-1.475v-18.537a.214.214,0,0,1,.219-.211h.393a.214.214,0,0,1,.211.22v18.375c0,2.8,1.487,4.956,4.419,6.4a8.089,8.089,0,0,0,2.742.533,11.665,11.665,0,0,0,7.008-2.581v-22.733a.214.214,0,0,1,.219-.211h.316a.215.215,0,0,1,.211.22v25.91a.2.2,0,0,1-.219.22Z" transform="translate(-2889.746 -1285.514)" fill="#fff"/>
        <path id="Path_23" data-name="Path 23" d="M2903.924,1284.211c.1.013.154.065.154.154v25.91a.136.136,0,0,1-.154.154h-.308a.136.136,0,0,1-.154-.154v-2.383h-.076A12.062,12.062,0,0,1,2898,1310.2a6.6,6.6,0,0,0-1.307.23h-.691a8.707,8.707,0,0,0-1.846-.384q-3.018-1.211-3.69-2.46a6.651,6.651,0,0,1-1.691-3.229,12.066,12.066,0,0,1-.308-1.461v-18.529c.012-.1.063-.154.153-.154h.385c.1.013.154.065.154.154v18.375q0,4.267,4.459,6.458a8.125,8.125,0,0,0,2.768.538,11.691,11.691,0,0,0,7.073-2.614v-22.758c.013-.1.064-.154.154-.154h.307m.009-.131h-.316a.277.277,0,0,0-.284.269v22.708a11.584,11.584,0,0,1-6.942,2.549,8.025,8.025,0,0,1-2.716-.528c-2.905-1.43-4.379-3.562-4.379-6.337v-18.375a.277.277,0,0,0-.269-.284h-.4a.275.275,0,0,0-.284.269v18.545a9.718,9.718,0,0,0,.311,1.49,6.825,6.825,0,0,0,1.713,3.278c.474.863,1.7,1.682,3.749,2.5l.014.006.014,0a7.983,7.983,0,0,1,1.8.366l.032.02h.746l.016,0a6.525,6.525,0,0,1,1.276-.227h.013l.013,0a12.5,12.5,0,0,0,5.3-2.22v2.169a.265.265,0,0,0,.285.285h.308a.265.265,0,0,0,.285-.285v-25.91a.277.277,0,0,0-.269-.284h-.009Z" transform="translate(-2888.341 -1284.08)" fill="#fff"/>
      </g>
      <g id="Group_14" data-name="Group 14" transform="translate(85.506 0.002)">
        <path id="Path_24" data-name="Path 24" d="M3329.74,1311.938a.2.2,0,0,1-.219-.219V1285.8a.213.213,0,0,1,.219-.211h13.079a.214.214,0,0,1,.211.219v.384a.2.2,0,0,1-.22.22h-12.466v9.787h6.939a.214.214,0,0,1,.211.22v.307a.2.2,0,0,1-.219.219h-6.931v14.169h14.7a.215.215,0,0,1,.211.22v.384a.2.2,0,0,1-.22.22h-15.3Z" transform="translate(-3329.455 -1285.525)" fill="#fff"/>
        <path id="Path_25" data-name="Path 25" d="M3341.385,1284.231c.1.013.154.064.154.154v.384a.136.136,0,0,1-.154.154h-12.532v9.918h7c.1.013.154.065.154.154v.307a.136.136,0,0,1-.154.154h-7v14.3h14.761c.1.013.154.065.154.154v.384a.136.136,0,0,1-.154.154h-15.3a.136.136,0,0,1-.154-.154v-25.91c.013-.1.064-.154.154-.154h13.07m.008-.131h-13.079a.276.276,0,0,0-.283.269v25.926a.264.264,0,0,0,.285.285h15.3a.264.264,0,0,0,.285-.285v-.385a.277.277,0,0,0-.269-.284h-14.646v-14.038h6.865a.265.265,0,0,0,.286-.285V1295a.277.277,0,0,0-.269-.284h-6.882v-9.656h12.4a.265.265,0,0,0,.285-.285v-.384a.277.277,0,0,0-.269-.284h-.008Z" transform="translate(-3328.03 -1284.1)" fill="#fff"/>
      </g>
      <g id="Group_15" data-name="Group 15" transform="translate(104.735 0.001)">
        <path id="Path_26" data-name="Path 26" d="M3784.432,1311.938a.2.2,0,0,1-.22-.219v-4.745c-6.73-9.19-11.5-15.648-14.169-19.2v23.946a.2.2,0,0,1-.22.219h-.384a.2.2,0,0,1-.22-.219v-26.052h.176l.019.027c9.08,12.224,14.056,18.976,14.8,20.081V1285.8a.214.214,0,0,1,.22-.212h.315a.214.214,0,0,1,.211.219v25.91a.2.2,0,0,1-.22.219h-.307Z" transform="translate(-3769.155 -1285.524)" fill="#fff"/>
        <path id="Path_27" data-name="Path 27" d="M3783.313,1284.221c.1.013.154.064.154.154v25.91a.136.136,0,0,1-.154.154h-.307a.136.136,0,0,1-.154-.154v-4.767q-10.3-14.07-14.3-19.375v24.141a.136.136,0,0,1-.153.154h-.385a.136.136,0,0,1-.154-.154V1284.3h.077q13.992,18.837,14.839,20.144h.077v-20.067c.012-.1.064-.154.154-.154h.307m.008-.131h-.315a.275.275,0,0,0-.284.27v19.769c-1.062-1.527-5.992-8.214-14.679-19.908l-.039-.053h-.274v26.118a.265.265,0,0,0,.285.285h.384a.265.265,0,0,0,.285-.285v-23.749c2.693,3.582,7.413,9.978,14.038,19.025v4.724a.265.265,0,0,0,.285.285h.308a.265.265,0,0,0,.285-.285v-25.91a.277.277,0,0,0-.269-.284h-.008Z" transform="translate(-3767.729 -1284.09)" fill="#fff"/>
      </g>
      <g id="Group_16" data-name="Group 16" transform="translate(0 0.002)">
        <path id="Path_28" data-name="Path 28" d="M1374.429,1311.938a.2.2,0,0,1-.219-.219V1285.8a.213.213,0,0,1,.219-.211h15.308a.214.214,0,0,1,.211.219v.384a.2.2,0,0,1-.219.22h-14.7v9.787h6.939a.214.214,0,0,1,.211.22v.307a.2.2,0,0,1-.22.219h-6.931v14.773a.2.2,0,0,1-.219.22h-.384Z" transform="translate(-1374.145 -1285.525)" fill="#fff"/>
        <path id="Path_29" data-name="Path 29" d="M1388.3,1284.231c.1.013.154.065.154.154v0c0-.089-.052-.141-.154-.154h-15.3c-.09,0-.141.052-.154.154.013-.1.064-.154.154-.154h15.3m-15.454.154v25.91a.136.136,0,0,0,.154.154h.384a.136.136,0,0,0,.154-.154.136.136,0,0,1-.154.154h-.384a.136.136,0,0,1-.154-.154v-25.91m15.607.384a.136.136,0,0,1-.154.154h0a.136.136,0,0,0,.154-.154m-14.916.154v9.918h7c.1.013.154.065.154.154v0c0-.089-.052-.141-.154-.154h-7v-9.918m7.151,10.38a.136.136,0,0,1-.154.154h0a.136.136,0,0,0,.154-.154m-7.151.154v0M1388.3,1284.1h-15.3a.276.276,0,0,0-.284.269l.13.016h-.131v25.91a.265.265,0,0,0,.285.285h.384a.265.265,0,0,0,.285-.285h-.262a.1.1,0,0,1,0,.021l-.021,0h-.384l-.021,0a.116.116,0,0,1,0-.021v-25.9a.1.1,0,0,1,.009-.03h15.3a.091.091,0,0,1,.031.009.051.051,0,0,1,0,.014v.384a.1.1,0,0,1,0,.021l-.021,0h-14.762v.131h-.131v10.049h7.118a.1.1,0,0,1,.031.009.083.083,0,0,1,0,.014v.308a.1.1,0,0,1,0,.021l-.021,0h-7v.131h-.131V1310.3h.262v-14.707h6.865a.265.265,0,0,0,.285-.285V1295a.277.277,0,0,0-.268-.284h-6.882v-9.656h14.63a.265.265,0,0,0,.285-.285v-.384a.277.277,0,0,0-.269-.284l-.016.13v-.131h0Z" transform="translate(-1372.72 -1284.1)" fill="#fff"/>
      </g>
    </g>
    <g id="Group_26" data-name="Group 26" transform="translate(59.769 87.49)">
      <g id="Group_18" data-name="Group 18" transform="translate(0 0.001)">
        <path id="Path_30" data-name="Path 30" d="M1383.472,2028.558a.2.2,0,0,1-.219-.22v-4.745c-6.729-9.19-11.495-15.647-14.169-19.2v23.945a.2.2,0,0,1-.219.219h-.385a.2.2,0,0,1-.219-.219v-26.052h.175l.02.027c9.079,12.223,14.055,18.975,14.8,20.081v-19.972a.214.214,0,0,1,.219-.212h.316a.214.214,0,0,1,.211.219v25.91a.2.2,0,0,1-.219.219h-.308Z" transform="translate(-1368.195 -2002.144)" fill="#fff"/>
        <path id="Path_31" data-name="Path 31" d="M1382.354,2000.841c.1.013.154.064.154.154V2026.9a.136.136,0,0,1-.154.154h-.307a.136.136,0,0,1-.154-.154v-4.766q-10.3-14.07-14.3-19.375V2026.9a.136.136,0,0,1-.154.154h-.385a.136.136,0,0,1-.154-.154v-25.987h.077q13.992,18.838,14.839,20.144h.077V2001c.012-.1.064-.154.154-.154h.307m.008-.131h-.316a.276.276,0,0,0-.284.27v19.768c-1.061-1.527-5.992-8.213-14.679-19.908l-.04-.053h-.274v26.118a.265.265,0,0,0,.285.285h.384a.265.265,0,0,0,.285-.285v-23.749c2.693,3.582,7.413,9.979,14.038,19.025v4.724a.265.265,0,0,0,.285.285h.307a.264.264,0,0,0,.285-.285v-25.91a.277.277,0,0,0-.268-.284h-.009Z" transform="translate(-1366.77 -2000.71)" fill="#fff"/>
      </g>
      <g id="Group_19" data-name="Group 19" transform="translate(19.229 0.002)">
        <path id="Path_32" data-name="Path 32" d="M1808.19,2028.549a.2.2,0,0,1-.219-.219v-25.918a.214.214,0,0,1,.219-.212h13.079a.214.214,0,0,1,.211.219v.384a.2.2,0,0,1-.219.22h-12.466v9.787h6.939a.214.214,0,0,1,.211.219v.308a.2.2,0,0,1-.219.219h-6.931v14.169h14.7a.214.214,0,0,1,.211.219v.385a.2.2,0,0,1-.22.219h-15.3Z" transform="translate(-1807.905 -2002.135)" fill="#fff"/>
        <path id="Path_33" data-name="Path 33" d="M1819.844,2000.851q.154.02.154.154v.385a.136.136,0,0,1-.154.154h-12.531v9.918h7c.1.013.154.065.154.154v.307a.136.136,0,0,1-.154.154h-7v14.3h14.761c.1.013.154.065.154.154v.385a.136.136,0,0,1-.154.154h-15.3a.136.136,0,0,1-.154-.154v-25.91c.012-.1.064-.154.154-.154h13.07m.009-.131h-13.079a.276.276,0,0,0-.284.27v25.926a.265.265,0,0,0,.285.285h15.3a.265.265,0,0,0,.285-.285v-.385a.277.277,0,0,0-.269-.284h-14.647v-14.038h6.865a.265.265,0,0,0,.285-.285v-.307a.277.277,0,0,0-.268-.284h-6.882v-9.656h12.4a.265.265,0,0,0,.285-.285v-.385a.276.276,0,0,0-.268-.283h-.008Z" transform="translate(-1806.49 -2000.72)" fill="#fff"/>
      </g>
      <g id="Group_20" data-name="Group 20" transform="translate(38.457 0.001)">
        <path id="Path_34" data-name="Path 34" d="M2255.434,2028.549a.2.2,0,0,1-.22-.219v-25.306H2247.9a.2.2,0,0,1-.219-.22v-.392a.213.213,0,0,1,.219-.212h15.309a.214.214,0,0,1,.211.219v.384a.2.2,0,0,1-.219.22h-7.238v25.306a.2.2,0,0,1-.219.219Z" transform="translate(-2247.615 -2002.135)" fill="#fff"/>
        <path id="Path_35" data-name="Path 35" d="M2261.774,2000.841c.1.013.154.065.154.154v.384a.136.136,0,0,1-.154.154h-7.3V2026.9a.136.136,0,0,1-.154.154h-.307a.136.136,0,0,1-.154-.154v-25.371h-7.381a.136.136,0,0,1-.155-.154V2001c.013-.1.064-.154.155-.154h15.3m.009-.131h-15.308a.276.276,0,0,0-.284.269v.4a.265.265,0,0,0,.285.285h7.249v25.24a.265.265,0,0,0,.286.285h.307a.264.264,0,0,0,.285-.285v-25.24h7.173a.265.265,0,0,0,.285-.285V2001a.277.277,0,0,0-.269-.284h-.008Z" transform="translate(-2246.189 -2000.71)" fill="#fff"/>
      </g>
      <g id="Group_21" data-name="Group 21" transform="translate(57.686 0.001)">
        <path id="Path_36" data-name="Path 36" d="M2687.609,2028.539a.2.2,0,0,1-.22-.219v-.019l.01-.016c.445-.7,4.593-9.2,12.33-25.271h-9.813a.2.2,0,0,1-.219-.219v-.392a.213.213,0,0,1,.219-.212h10.772a.214.214,0,0,1,.211.219v.015l-12.339,25.291h14.357a.215.215,0,0,1,.211.22v.384a.2.2,0,0,1-.22.219Z" transform="translate(-2687.324 -2002.125)" fill="#fff"/>
        <path id="Path_37" data-name="Path 37" d="M2699.245,2000.841c.1.013.154.065.154.154l-12.378,25.371h14.454c.1.013.154.065.154.154v.384a.136.136,0,0,1-.154.154h-15.3a.136.136,0,0,1-.154-.154q.672-1.056,12.378-25.371h-9.918a.135.135,0,0,1-.153-.154V2001c.012-.1.063-.154.153-.154h10.764m.008-.131h-10.772a.276.276,0,0,0-.284.269v.4a.265.265,0,0,0,.286.285h9.708c-7.706,16.006-11.837,24.475-12.28,25.17l-.021.032v.038a.265.265,0,0,0,.286.285h15.3a.265.265,0,0,0,.285-.285v-.384a.277.277,0,0,0-.269-.284h-14.261l12.286-25.183.013-.027V2001a.277.277,0,0,0-.269-.284h-.008Z" transform="translate(-2685.89 -2000.71)" fill="#fff"/>
      </g>
      <g id="Group_22" data-name="Group 22" transform="translate(76.915)">
        <path id="Path_38" data-name="Path 38" d="M3146.739,2028.549l-.017-.013c-.212-.159-2.6-3.1-7.3-8.982h-.012c-.6.811-3.024,3.828-7.209,8.971l-.02.024h-.339c-.083,0-.161,0-.613-2.476-.293-1.6-.7-4.05-1.221-7.267-1.739-10.088-2.692-15.526-2.833-16.175a.131.131,0,0,1-.089-.135v-.084a.214.214,0,0,1,.22-.212h.384c.122,0,.326,0,.987,4.82.159.616,1.308,7.261,3.513,20.31l7.263-8.869,7.187,8.868c2.79-16.271,4.256-24.71,4.359-25.082l.014-.048h.52a.214.214,0,0,1,.211.219v.015c-.205.871-1.731,9.613-4.535,25.983l-.006.033-.2.1Z" transform="translate(-3127.025 -2002.134)" fill="#fff"/>
        <path id="Path_39" data-name="Path 39" d="M3150.122,2000.813c.1.013.154.064.154.154q-.308,1.308-4.537,25.987l-.154.077h-.23q-.308-.231-7.3-9h-.077q-.846,1.153-7.227,9h-.308q-.212,0-1.769-9.687-2.692-15.607-2.845-16.222a.068.068,0,0,1-.077-.077v-.077c.012-.1.063-.154.153-.154h.385q.27,0,.922,4.766.231.884,3.537,20.451l7.3-8.918,7.227,8.918q4.228-24.66,4.382-25.218h.461m.008-.131h-.569l-.027.1c-.1.378-1.523,8.538-4.336,24.945l-7.044-8.693-.1-.125-.1.125-7.121,8.7c-2.186-12.931-3.327-19.531-3.489-20.17-.217-1.58-.4-2.783-.558-3.574-.077-.4-.148-.705-.21-.907-.074-.241-.147-.391-.284-.391h-.384a.277.277,0,0,0-.285.27v.093a.2.2,0,0,0,.1.181c.162.773,1.112,6.2,2.827,16.141.517,3.217.927,5.662,1.22,7.267.147.806.268,1.419.359,1.822.047.208.086.359.119.465s.077.243.2.243h.37l.04-.049c4.087-5.023,6.5-8.019,7.166-8.913,6.219,7.791,7.124,8.832,7.262,8.935l.035.026h.305l.027-.014.154-.077.06-.03.011-.066c2.8-16.367,4.33-25.108,4.534-25.979l0-.015v-.015a.277.277,0,0,0-.269-.284h-.008Z" transform="translate(-3125.62 -2000.68)" fill="#fff"/>
      </g>
      <g id="Group_23" data-name="Group 23" transform="translate(104.735 0.002)">
        <path id="Path_40" data-name="Path 40" d="M3763.5,2028.549a.2.2,0,0,1-.219-.219v-25.918a.214.214,0,0,1,.219-.212h13.079a.214.214,0,0,1,.211.219v.384a.2.2,0,0,1-.219.22H3764.1v9.787h6.939a.214.214,0,0,1,.211.219v.308a.2.2,0,0,1-.219.219H3764.1v14.169h14.7a.214.214,0,0,1,.211.219v.385a.2.2,0,0,1-.22.219h-15.3Z" transform="translate(-3763.215 -2002.135)" fill="#fff"/>
        <path id="Path_41" data-name="Path 41" d="M3775.145,2000.851c.1.013.154.064.154.154v.385a.136.136,0,0,1-.154.154h-12.532v9.918h7c.1.013.154.065.154.154v.307a.136.136,0,0,1-.154.154h-7v14.3h14.762c.1.013.154.065.154.154v.385a.136.136,0,0,1-.154.154h-15.3a.135.135,0,0,1-.153-.154v-25.91c.012-.1.064-.154.153-.154h13.07m.008-.131h-13.078a.276.276,0,0,0-.284.27v25.926a.264.264,0,0,0,.285.285h15.3a.265.265,0,0,0,.285-.285v-.385a.276.276,0,0,0-.268-.284h-14.647v-14.038h6.866a.265.265,0,0,0,.285-.285v-.307a.278.278,0,0,0-.269-.284h-6.882v-9.656h12.4a.265.265,0,0,0,.285-.285v-.385a.277.277,0,0,0-.269-.283h-.008Z" transform="translate(-3761.79 -2000.72)" fill="#fff"/>
      </g>
      <g id="Group_24" data-name="Group 24" transform="translate(123.964 0)">
        <path id="Path_42" data-name="Path 42" d="M4218.059,2028.549l-.02-.031c-.346-.55-2.8-5.778-7.308-15.538l-.038-.081.088-.012a7.808,7.808,0,0,0,2.741-.836,4.924,4.924,0,0,0,2.2-3.943v-.384c0-2.136-1.226-3.667-3.644-4.55a7.071,7.071,0,0,0-1.365-.151h-6.931v25.306a.2.2,0,0,1-.22.219h-.385a.2.2,0,0,1-.219-.219v-25.917a.214.214,0,0,1,.219-.212h8.314l1.164.388c2.53,1.034,3.811,2.813,3.811,5.291s-1.254,4.18-3.729,5.288l0,0a3.577,3.577,0,0,1-1,.232c4.459,9.628,6.8,14.64,6.952,14.9l.009.016v.019a.2.2,0,0,1-.219.219h-.42Z" transform="translate(-4202.896 -2002.134)" fill="#fff"/>
        <path id="Path_43" data-name="Path 43" d="M4210.087,2000.821l1.154.385q3.766,1.538,3.766,5.228c0,2.46-1.229,4.126-3.689,5.228a3.259,3.259,0,0,1-1.076.23q6.765,14.608,7,14.992a.135.135,0,0,1-.152.154h-.385q-.519-.826-7.3-15.53a7.813,7.813,0,0,0,2.767-.846,4.963,4.963,0,0,0,2.23-4v-.384q0-3.268-3.69-4.613a7.155,7.155,0,0,0-1.384-.154h-7v25.371a.136.136,0,0,1-.153.154h-.384a.136.136,0,0,1-.155-.154v-25.91c.012-.1.064-.154.155-.154h8.3m.022-.131h-8.325a.277.277,0,0,0-.285.269v25.926a.265.265,0,0,0,.285.285h.384a.265.265,0,0,0,.286-.285v-25.24h6.866a7.045,7.045,0,0,1,1.348.149c2.419.885,3.595,2.352,3.595,4.486v.384a4.855,4.855,0,0,1-2.171,3.888,7.745,7.745,0,0,1-2.713.825l-.175.024.074.161c4.568,9.9,6.959,14.985,7.312,15.545l.039.061h.457a.265.265,0,0,0,.286-.285v-.036l-.019-.031c-.1-.174-1.39-2.889-6.908-14.8a3.883,3.883,0,0,0,.92-.228h0l0,0a6.724,6.724,0,0,0,2.821-2.177,5.381,5.381,0,0,0,.947-3.17,5.473,5.473,0,0,0-.968-3.229,6.451,6.451,0,0,0-2.881-2.121l0,0h0l-1.153-.385-.02-.007h0Z" transform="translate(-4201.5 -2000.689)" fill="#fff"/>
      </g>
      <g id="Group_25" data-name="Group 25" transform="translate(143.192 0.002)">
        <path id="Path_44" data-name="Path 44" d="M4657.644,2028.549l-14.13-14.589v14.369a.2.2,0,0,1-.22.219h-.384a.2.2,0,0,1-.219-.219v-25.918a.214.214,0,0,1,.219-.212h.393a.214.214,0,0,1,.211.219v10.172l13.9-10.391h.722a.214.214,0,0,1,.211.219v.036l-.03.019c-.853.548-5.7,4.179-14.392,10.793l14.542,15.157-.247.124h-.582Z" transform="translate(-4642.625 -2002.135)" fill="#fff"/>
        <path id="Path_45" data-name="Path 45" d="M4656.707,2000.851c.1.013.154.065.154.154q-1.289.827-14.455,10.841l14.532,15.146-.154.077h-.538l-14.224-14.685v14.531a.136.136,0,0,1-.154.154h-.385a.135.135,0,0,1-.153-.154v-25.91c.013-.1.064-.154.153-.154h.385c.1.013.154.065.154.154v10.3l13.993-10.456h.691m.008-.131h-.743l-.035.027-13.782,10.3v-10.041a.277.277,0,0,0-.269-.284h-.4a.276.276,0,0,0-.283.269v25.925a.264.264,0,0,0,.284.285h.386a.265.265,0,0,0,.285-.285v-14.207l14,14.452.038.04h.625l.027-.014.154-.077.159-.08-.123-.128-14.43-15.04c8.658-6.585,13.479-10.2,14.328-10.746l.061-.039v-.072a.277.277,0,0,0-.269-.284h-.009Z" transform="translate(-4641.199 -2000.72)" fill="#fff"/>
      </g>
    </g>
    <rect id="Rectangle_2" data-name="Rectangle 2" width="1.416" height="7.391" transform="translate(41.173)" fill="#f39200"/>
    <rect id="Rectangle_3" data-name="Rectangle 3" width="1.416" height="7.277" transform="translate(52.931 116.683)" fill="#f39200"/>
  </g>
</svg>
