<svg xmlns="http://www.w3.org/2000/svg" width="241.915" height="140.739" viewBox="0 0 241.915 140.739">
  <g id="logo" transform="translate(-11.203)">
    <path id="Path_1" data-name="Path 1" d="M276.15,288.047l-1.607-.008c0-.162.076-16.223.076-18.387a1.564,1.564,0,0,0-.224-1.04c-.419-.408-2.2-.361-3.93-.315-3.838.1-17.6,2.239-21.044,2.906a8.318,8.318,0,0,1-6.6-1.461c-.114-.072-.225-.142-.333-.209a6.81,6.81,0,0,1-2.565-5.7c.232-1.622.722-5.72.722-6.458,0-.058,0-.129-.007-.211a17.749,17.749,0,0,1-3.253-.576c-2.4-.632-2.943-3.175-2.678-5.16.093-.7-.146-.9-.849-1.4a7.666,7.666,0,0,1-.656-.5,2.963,2.963,0,0,1-1.047-3,2.183,2.183,0,0,1,1.425-1.239c.132-.519.383-1.55.721-3.108a14.363,14.363,0,0,0,.27-2.536c-.224.109-.445.222-.665.334a15.481,15.481,0,0,1-1.563.726c-1.716.642-3.748-.453-5.723-3.087-1.626-2.167-.281-4.473.366-5.581a10.344,10.344,0,0,1,.717-1.015,20.691,20.691,0,0,0,3.693-7.516,56.277,56.277,0,0,0,1.819-7.815l-.027.027a11.792,11.792,0,0,1-3.1,1.658c-2.723,1.073-3.566.737-3.843.627l-.6-.237.1-.634c.078-.5.5-.849,1.2-1.435a6.153,6.153,0,0,0,1.678-1.8c.26-.694.555-1.344.791-1.867l.02-.044c-.312-.4-.628-.833-.949-1.27-.54-.734-1.1-1.492-1.672-2.18-1.767-2.121-.962-4.663-.316-6.706.056-.177.112-.353.165-.526.44-1.431,1.053-4.815,1.763-8.734.31-1.712.631-3.482.97-5.276,1.239-6.548,5.612-14.156,8.249-17.672a7,7,0,0,1,5.943-3.071,6.6,6.6,0,0,1,5.279,3.472c1.481,2.539,4.778,5.118,7.966,7.612l.1.079a35.3,35.3,0,0,0,2.927-6.354l1.356-7.85,1.584.274-1.378,7.979-.021.061a36.506,36.506,0,0,1-3.161,6.828l-.039.058c1.03.815,2.049,1.641,2.972,2.461a33.64,33.64,0,0,0,10.7,6.653c3.764,1.387,4.17,5.246,4.439,7.8a11.227,11.227,0,0,1-4.564,9.806c-2.158,1.59-4.447,7.782-6.287,12.757-.627,1.7-1.218,3.3-1.8,4.723-1.5,3.71-1.989,10.691-2.145,16.106l.894-.467a56.638,56.638,0,0,0,10.926-6.85c5.121-4.321,11.882-10.2,11.95-10.256l.055-.048.063-.037c.192-.113,1.912-1.084,3.178-.241.878.584,1.2,1.807.943,3.635-.068.49-.136,1.05-.208,1.642-.639,5.241-1.71,14.015-7.538,21.483-.992,1.271-1.782,2.314-2.417,3.151-3.1,4.087-3.17,4.145-7.745,6.249l-.806.371c-6.244,2.882-11.186,5.215-11.236,5.239l-.1.047-.109.018a3.711,3.711,0,0,1-3.179-.88,3.253,3.253,0,0,1-.359-3.24c.372-1.224.921-2.644,1.5-4.148,1.172-3.034,2.5-6.473,2.505-8.746v-.757c0-.9,0-2.085.015-3.456q-.618.341-1.231.7a5.964,5.964,0,0,1-5.111.724c-2.832-1-4.26-4.218-4.631-5.181-.5-1.307-1.171-3.708-1.879-6.25-.459-1.649-.934-3.354-1.381-4.824-1.313-4.313,3.364-8.989,4.9-10.525a15.158,15.158,0,0,1,2.51-1.887c1.277-.829,2.483-1.612,2.8-2.642a41.02,41.02,0,0,1,1.763-4.122l.291-.629c-.349.1-.725.2-1.121.311-1.023.285-2.2.615-3.4.919a10.724,10.724,0,0,1-2.524,1.861A79.793,79.793,0,0,1,241,214.77a1.306,1.306,0,0,1-1.606-.278c-.71-.868.1-2.46.642-3.331.789-1.264,1.752-2.994,1.762-3.012l.164-.3.326-.089a13.12,13.12,0,0,1,4.515-.055,14.686,14.686,0,0,0,4.149-.473c.485-.1.985-.221,1.487-.345a.5.5,0,0,0,.081-.2,1.327,1.327,0,0,0-.669-.321,32.384,32.384,0,0,0-9.6-.785c-3.618.315-4.628.477-4.638.479l-.231.038-.216-.092a1.37,1.37,0,0,1-.806-1.075c-.086-.718.389-1.454,1.451-2.251.566-.424,1.325-1.128,2.2-1.941,2.046-1.9,4.593-4.256,6.776-4.984,2.858-.953,4.177-.238,4.594.091.575.3,4.078,2.1,5.519,2.68.314.126.7.236,1.111.354,1.476.422,3.947,1.129,3.419,3.637a13.029,13.029,0,0,1-.654,2c2.485-1.116,5.138-3.223,5.233-4.648s-2.12-3.5-3.539-4.468-8.525-5.942-9.379-8.334c-.812-2.273,1.171-5.4,2.944-8.017l-.189-.147c-3.307-2.587-6.728-5.262-8.364-8.068a5.023,5.023,0,0,0-3.983-2.678,5.428,5.428,0,0,0-4.564,2.431c-3.072,4.1-6.9,11.448-7.955,17.006-.338,1.788-.658,3.555-.968,5.264-.719,3.969-1.34,7.4-1.808,8.921q-.082.266-.169.539c-.61,1.927-1.186,3.748.018,5.193.6.725,1.177,1.5,1.731,2.256q.231.314.456.618a1.052,1.052,0,0,1,.33-.184,1.556,1.556,0,0,1,1.383.359,25.877,25.877,0,0,1,2.906,2.548c.108.184.333.566-.17,3.558a60.49,60.49,0,0,1-1.753,7.31A22.41,22.41,0,0,1,228.978,232a9.278,9.278,0,0,0-.606.849c-.736,1.262-1.378,2.594-.469,3.807,1.466,1.954,2.913,2.906,3.873,2.546a14.243,14.243,0,0,0,1.4-.653c.443-.226.906-.462,1.4-.674-.011-.538-.03-1.055-.047-1.524-.02-.548-.037-1.022-.037-1.4a3.058,3.058,0,0,1,.972-2.622,2.572,2.572,0,0,1,2.353-.235c1.844.542,5.645,3.152,6.072,3.448l.49.339-1.268,3.961-.779-.273a17.112,17.112,0,0,0-4.358-.79,5.578,5.578,0,0,0-1.783.223,17.8,17.8,0,0,1-.319,3.526c-.232,1.069-.423,1.89-.564,2.475.233-.01.478-.012.736-.006a28.551,28.551,0,0,1,8.04,1.459c.494.152.921.283,1.16.327,1.17.213,1.274.887,1.264,1.167-.027.786-.892,1.279-2.571,1.465-1.726.192-4.854.752-5.228.82a3.02,3.02,0,0,1-2.7-.705,15.467,15.467,0,0,1-2.089-2.648.529.529,0,0,0-.272.234c-.106.272.246.891.607,1.208a6.3,6.3,0,0,0,.523.395,2.813,2.813,0,0,1,1.518,2.924c-.065.484-.3,2.922,1.494,3.394a17,17,0,0,0,2.7.5c-.121-1.411-.108-2.084.208-2.5a8.257,8.257,0,0,1,2.387-1.5l.787-.37.307.815c.1.274.976,2.716-.083,4.172a2.694,2.694,0,0,1-1.855.963c0,.1.008.182.008.259,0,.92-.549,5.356-.738,6.685a5.25,5.25,0,0,0,1.816,4.1l.349.218a6.736,6.736,0,0,0,5.441,1.242c2.968-.574,17.222-2.828,21.307-2.935,2.753-.072,4.229-.071,5.093.771a2.944,2.944,0,0,1,.709,2.192c0,2.167-.074,18.232-.075,18.394Zm-14.674-47.195c-.032,1.8-.031,3.316-.031,4.329v.762c-.006,2.57-1.391,6.157-2.614,9.321-.57,1.476-1.108,2.87-1.464,4.037-.173.568-.308,1.324.027,1.709a2.109,2.109,0,0,0,1.61.37c.773-.364,5.407-2.548,11.135-5.191l.809-.372a18.58,18.58,0,0,0,7.136-5.76c.638-.842,1.431-1.889,2.43-3.169,5.554-7.117,6.59-15.613,7.21-20.689.073-.6.142-1.165.211-1.668.178-1.293-.007-1.921-.241-2.077-.284-.19-.981.019-1.415.254-.693.6-7.037,6.109-11.906,10.217a57.93,57.93,0,0,1-11.22,7.046c-.57.3-1.129.588-1.68.88Zm-19.438,13.1a10.591,10.591,0,0,0,.064,1.565,1.089,1.089,0,0,0,.695-.312,2.57,2.57,0,0,0,.117-1.784A7.324,7.324,0,0,0,242.038,253.955Zm-6.367-7.358a11.251,11.251,0,0,0,1.4,1.728,1.406,1.406,0,0,0,1.23.349l.074-.017c.13-.023,2.94-.533,4.86-.78A26.373,26.373,0,0,0,236,246.6c-.115,0-.226,0-.331,0Zm9.48,1.816ZM259.9,206.557c-.273.6-.56,1.222-.844,1.835a40.868,40.868,0,0,0-1.685,3.918c-.489,1.588-2,2.569-3.461,3.518a13.987,13.987,0,0,0-2.248,1.676c-1.368,1.368-5.531,5.53-4.5,8.921.453,1.488.93,3.2,1.392,4.861.7,2.5,1.355,4.869,1.831,6.1.635,1.65,1.931,3.632,3.665,4.243a4.439,4.439,0,0,0,3.77-.6c.68-.4,1.373-.779,2.069-1.153.126-5.692.59-13.384,2.289-17.575.569-1.4,1.157-2.994,1.779-4.677,2.112-5.712,4.3-11.618,6.841-13.493a9.574,9.574,0,0,0,3.919-8.344,14.133,14.133,0,0,0-.862-4.054,4.215,4.215,0,0,0-2.535-2.406,35.214,35.214,0,0,1-11.208-6.958c-.868-.77-1.831-1.553-2.81-2.329-1.376,2.044-3.232,4.982-2.7,6.48.526,1.474,5.66,5.412,8.773,7.548.451.306,4.423,3.093,4.236,5.9-.189,2.838-4.842,5.707-7.714,6.583Zm-22.153,30.608q.145,0,.294.006a18.742,18.742,0,0,1,4.032.64l.411-1.284a28.493,28.493,0,0,0-5.12-2.894,1.206,1.206,0,0,0-.937-.02c-.1.073-.328.352-.328,1.335,0,.353.017.812.036,1.345.012.331.025.683.036,1.051a7.083,7.083,0,0,1,1.576-.179Zm-7.157-23.816c-.153.35-.313.728-.458,1.114a4.692,4.692,0,0,1-1.2,1.635,12.171,12.171,0,0,0,3.123-1.514l0,0c-.2-.169-.5-.4-.728-.567a6.346,6.346,0,0,1-.739-.664Zm12.433-4.087c-.323.573-1.01,1.778-1.618,2.752a6.049,6.049,0,0,0-.549,1.092,82.621,82.621,0,0,0,8.508-3.938,10.988,10.988,0,0,1-2.733.14,14.846,14.846,0,0,0-3.608-.045Zm1.284-5.37a34.526,34.526,0,0,1,7.971.925c1.373.374,1.758,1.1,1.837,1.644.782-.209,1.538-.42,2.223-.611.932-.26,1.754-.489,2.409-.651a18.294,18.294,0,0,0,1.114-3.013c.177-.839-.273-1.185-2.288-1.761-.431-.123-.876-.251-1.266-.407-1.638-.655-5.577-2.7-5.744-2.788l-.152-.079-.035-.05c-.142-.088-.99-.517-3.078.178-1.853.618-4.258,2.847-6.191,4.638-.912.845-1.7,1.574-2.331,2.049a5.414,5.414,0,0,0-.463.385c.716-.082,1.907-.206,3.8-.37.711-.062,1.451-.089,2.195-.089Z" transform="translate(-214.447 -155.392)" fill="#f39200"/>
    <g id="Group_10" data-name="Group 10" transform="translate(68.155 25.428)">
      <g id="Group_8" data-name="Group 8" transform="translate(21.834)">
        <g id="Group_1" data-name="Group 1" transform="translate(0 0.001)">
          <path id="Path_2" data-name="Path 2" d="M1831.211,543.566a.227.227,0,0,1-.249-.249V540.7a13.89,13.89,0,0,1-6.109,2.605h-.015a7.461,7.461,0,0,0-1.466.26l-.009,0h-.816l-.018-.011a9.1,9.1,0,0,0-2.067-.426l-.008,0-.008,0c-2.284-.916-3.7-1.864-4.223-2.818a7.668,7.668,0,0,1-1.932-3.694,13.348,13.348,0,0,1-.351-1.675V513.89a.243.243,0,0,1,.249-.24h.446a.243.243,0,0,1,.24.249v20.863c0,3.183,1.688,5.627,5.018,7.264a9.184,9.184,0,0,0,3.114.605,13.24,13.24,0,0,0,7.956-2.931V513.89a.243.243,0,0,1,.249-.24h.359a.243.243,0,0,1,.24.249v29.418a.227.227,0,0,1-.249.249h-.349Z" transform="translate(-1813.867 -513.575)" fill="#fff"/>
          <path id="Path_3" data-name="Path 3" d="M1830.173,512.3c.116.015.175.073.175.175v29.418a.154.154,0,0,1-.175.175h-.349a.154.154,0,0,1-.175-.175v-2.706h-.087a13.692,13.692,0,0,1-6.11,2.619,7.507,7.507,0,0,0-1.484.261h-.785a9.887,9.887,0,0,0-2.1-.436q-3.426-1.375-4.19-2.793a7.556,7.556,0,0,1-1.921-3.666,13.675,13.675,0,0,1-.349-1.659V512.474c.014-.116.073-.175.175-.175h.437c.116.015.175.073.175.175v20.863q0,4.845,5.063,7.333a9.223,9.223,0,0,0,3.143.611,13.274,13.274,0,0,0,8.031-2.968V512.474c.014-.116.072-.175.175-.175h.349m.01-.149h-.358a.314.314,0,0,0-.322.305v25.782a13.153,13.153,0,0,1-7.882,2.893,9.1,9.1,0,0,1-3.084-.6c-3.3-1.623-4.972-4.044-4.972-7.2V512.474a.314.314,0,0,0-.3-.322h-.455a.314.314,0,0,0-.323.305v21.056a11.07,11.07,0,0,0,.353,1.693,7.751,7.751,0,0,0,1.944,3.721c.538.979,1.93,1.91,4.256,2.843l.016.006.017,0a9.081,9.081,0,0,1,2.039.415l.036.023h.847l.017,0a7.412,7.412,0,0,1,1.449-.258h.015l.015,0a14.184,14.184,0,0,0,6.018-2.521v2.462a.3.3,0,0,0,.324.324h.349a.3.3,0,0,0,.323-.324V512.474a.314.314,0,0,0-.3-.322h-.01Z" transform="translate(-1812.48 -512.15)" fill="#fff"/>
        </g>
        <g id="Group_2" data-name="Group 2" transform="translate(21.83 0)">
          <path id="Path_4" data-name="Path 4" d="M2270.932,543.576a.226.226,0,0,1-.249-.249v-5.388c-7.64-10.434-13.051-17.766-16.088-21.8v27.188a.227.227,0,0,1-.249.249h-.437a.227.227,0,0,1-.25-.249v-29.58h.2l.022.03c10.458,14.08,15.96,21.546,16.8,22.8V513.9a.242.242,0,0,1,.249-.24h.358a.243.243,0,0,1,.24.249v29.418a.227.227,0,0,1-.25.249h-.349Z" transform="translate(-2253.586 -513.584)" fill="#fff"/>
          <path id="Path_5" data-name="Path 5" d="M2269.865,512.289c.116.015.175.073.175.175v29.418a.155.155,0,0,1-.175.175h-.349a.154.154,0,0,1-.174-.175V536.47q-11.7-15.975-16.237-22v27.41a.154.154,0,0,1-.175.175h-.437a.154.154,0,0,1-.175-.175V512.376h.087q15.887,21.387,16.847,22.871h.088V512.464c.014-.116.073-.175.174-.175h.349m.01-.149h-.359a.313.313,0,0,0-.322.305v22.445c-1.195-1.72-6.664-9.138-16.667-22.6l-.044-.06h-.311v29.654a.3.3,0,0,0,.324.324h.436a.3.3,0,0,0,.324-.324V514.917c3.058,4.067,8.417,11.33,15.938,21.6v5.364a.3.3,0,0,0,.323.324h.349a.3.3,0,0,0,.324-.324V512.464a.315.315,0,0,0-.3-.322h-.01Z" transform="translate(-2252.17 -512.14)" fill="#fff"/>
        </g>
        <g id="Group_3" data-name="Group 3" transform="translate(43.663 0)">
          <path id="Path_6" data-name="Path 6" d="M2706.709,543.566l-.022-.025a7.527,7.527,0,0,0-2.309-.412h-.007l-.006,0a14.351,14.351,0,0,1-7.984-5.528,13.88,13.88,0,0,1-2.454-5.69,11.035,11.035,0,0,1-.431-2.319.148.148,0,0,1-.1-.151v-1.684l.016-.021a13.734,13.734,0,0,0,.509-2.845v-.011a15.312,15.312,0,0,1,4.122-7.189c1.56-1.776,4.01-3.046,7.282-3.774l.008,0h.009a2.124,2.124,0,0,0,1.179-.248l.019-.014h1.713l.022.022a8.212,8.212,0,0,0,2.227.415h.006l.006,0c.624.2.751.309.751.42v.6h-.171l-.009,0a15.271,15.271,0,0,0-3.735-.521c-4.562,0-8.329,2.307-11.2,6.859a15.837,15.837,0,0,0-1.823,7.209,14.241,14.241,0,0,0,5.646,11.465,12.587,12.587,0,0,0,7.46,2.515,13.552,13.552,0,0,0,8.044-2.931v-8.788a.242.242,0,0,1,.25-.24h.358a.243.243,0,0,1,.24.249v9.024l-.025.022a12.869,12.869,0,0,1-6.5,3.248h-.013c-.108,0-.75.117-1.906.348h-1.183Z" transform="translate(-2693.325 -513.575)" fill="#fff"/>
          <path id="Path_7" data-name="Path 7" d="M2706.8,512.289a9.051,9.051,0,0,0,2.27.436c.465.146.7.262.7.349v.524h-.087a15.289,15.289,0,0,0-3.753-.524q-6.918,0-11.261,6.9a15.834,15.834,0,0,0-1.833,7.245,14.255,14.255,0,0,0,5.673,11.523,12.609,12.609,0,0,0,7.508,2.532,13.315,13.315,0,0,0,8.118-2.968v-8.817c.015-.116.073-.175.175-.175h.349c.116.015.174.073.174.175v8.991a12.739,12.739,0,0,1-6.459,3.23q-.175,0-1.92.349h-1.135a8.257,8.257,0,0,0-2.356-.436,14.218,14.218,0,0,1-7.944-5.5,13.74,13.74,0,0,1-2.444-5.674,12.9,12.9,0,0,1-.436-2.357.077.077,0,0,1-.087-.088v-1.659a15.421,15.421,0,0,0,.523-2.881,15.165,15.165,0,0,1,4.1-7.158q2.334-2.662,7.245-3.754a2.182,2.182,0,0,0,1.222-.262h1.658m.062-.149H2705.1l-.039.027a2.056,2.056,0,0,1-1.136.235h-.017l-.016,0a17.766,17.766,0,0,0-4.3,1.5,10.239,10.239,0,0,0-3.016,2.3,12.128,12.128,0,0,0-2.392,3.021,19.9,19.9,0,0,0-1.748,4.2l0,.011v.011a15.074,15.074,0,0,1-.5,2.811l-.03.039V528a.227.227,0,0,0,.1.2,10.8,10.8,0,0,0,.429,2.3,13.966,13.966,0,0,0,2.464,5.707,13.222,13.222,0,0,0,3.376,3.376,16.446,16.446,0,0,0,4.647,2.181l.013,0h.013a8.821,8.821,0,0,1,2.267.392l.04.046h1.217l.015,0c1.434-.286,1.82-.346,1.891-.346h.013l.013,0a12.94,12.94,0,0,0,6.534-3.266l.049-.044v-9.057a.314.314,0,0,0-.3-.322h-.368a.313.313,0,0,0-.322.305v8.761a13.2,13.2,0,0,1-7.969,2.894,12.277,12.277,0,0,1-7.417-2.5,14.17,14.17,0,0,1-5.616-11.4,15.762,15.762,0,0,1,1.813-7.172c2.853-4.526,6.6-6.821,11.132-6.821a15.2,15.2,0,0,1,3.717.519l.019,0h.254v-.673c0-.155-.128-.28-.8-.491l-.012,0h-.013a9.57,9.57,0,0,1-2.187-.4l-.04-.04h0Z" transform="translate(-2691.9 -512.14)" fill="#fff"/>
        </g>
        <g id="Group_4" data-name="Group 4" transform="translate(69.858 0.261)">
          <path id="Path_8" data-name="Path 8" d="M3248.2,548.594l-.022-.032c-.237-.34-4.465-9.281-12.926-27.334a5.6,5.6,0,0,1-.25-.623c-8.058,17.358-12.482,26.763-13.148,27.951l-.021.038h-.567a.227.227,0,0,1-.25-.249v-.019l.01-.017c.855-1.521,5.494-11.388,13.79-29.326l.02-.043h.357l13.774,29.654h-.767Z" transform="translate(-3220.944 -518.863)" fill="#fff"/>
          <path id="Path_9" data-name="Path 9" d="M3233.714,517.55l13.705,29.505h-.611q-.349-.5-12.919-27.323a3.146,3.146,0,0,1-.262-.7h-.087q-12.177,26.233-13.181,28.021h-.524a.154.154,0,0,1-.175-.175q1.288-2.292,13.792-29.33h.262m.094-.149h-.452l-.041.086c-8.294,17.935-12.933,27.8-13.787,29.32l-.019.034v.039a.3.3,0,0,0,.324.324h.611l.043-.076c.666-1.186,5.063-10.534,13.074-27.789.041.108.1.254.19.453v0h0c8.462,18.057,12.692,27,12.933,27.345l.044.064h.922l-.1-.212-13.706-29.505-.04-.086h0Z" transform="translate(-3219.51 -517.4)" fill="#fff"/>
        </g>
        <g id="Group_5" data-name="Group 5" transform="translate(101.447 0.001)">
          <path id="Path_10" data-name="Path 10" d="M3874.5,543.566a.227.227,0,0,1-.249-.249V540.7a13.891,13.891,0,0,1-6.109,2.605h-.015a7.451,7.451,0,0,0-1.466.26l-.009,0h-.816l-.019-.011a9.093,9.093,0,0,0-2.067-.426l-.008,0-.008,0c-2.284-.916-3.7-1.864-4.223-2.818a7.669,7.669,0,0,1-1.933-3.694,13.437,13.437,0,0,1-.351-1.675V513.89a.242.242,0,0,1,.249-.24h.446a.243.243,0,0,1,.24.249v20.863c0,3.183,1.688,5.627,5.018,7.264a9.186,9.186,0,0,0,3.114.605,13.244,13.244,0,0,0,7.957-2.931V513.89a.242.242,0,0,1,.249-.24h.358a.243.243,0,0,1,.24.249v29.418a.227.227,0,0,1-.249.249Z" transform="translate(-3857.157 -513.575)" fill="#fff"/>
          <path id="Path_11" data-name="Path 11" d="M3873.444,512.3c.116.015.175.073.175.175v29.418a.155.155,0,0,1-.175.175h-.349a.154.154,0,0,1-.175-.175v-2.706h-.087a13.69,13.69,0,0,1-6.11,2.619,7.491,7.491,0,0,0-1.483.261h-.786a9.874,9.874,0,0,0-2.095-.436q-3.427-1.375-4.19-2.793a7.554,7.554,0,0,1-1.921-3.666,13.756,13.756,0,0,1-.349-1.659V512.474c.014-.116.072-.175.175-.175h.437c.116.015.175.073.175.175v20.863q0,4.845,5.063,7.333a9.222,9.222,0,0,0,3.142.611,13.272,13.272,0,0,0,8.031-2.968V512.474c.014-.116.073-.175.175-.175h.349m.009-.149h-.358a.314.314,0,0,0-.323.306v25.782a13.156,13.156,0,0,1-7.882,2.893,9.1,9.1,0,0,1-3.084-.6c-3.3-1.623-4.973-4.044-4.973-7.2V512.474a.314.314,0,0,0-.3-.322h-.455a.314.314,0,0,0-.323.306v21.056a11.093,11.093,0,0,0,.353,1.692,7.748,7.748,0,0,0,1.944,3.721c.538.979,1.931,1.91,4.256,2.843l.016.006.017,0a9.09,9.09,0,0,1,2.038.415l.036.023h.847l.017,0a7.4,7.4,0,0,1,1.449-.258h.016l.015,0a14.19,14.19,0,0,0,6.019-2.521v2.462a.3.3,0,0,0,.324.324h.349a.3.3,0,0,0,.324-.324V512.474a.314.314,0,0,0-.3-.322h-.01Z" transform="translate(-3855.75 -512.15)" fill="#fff"/>
        </g>
        <g id="Group_6" data-name="Group 6" transform="translate(123.278 0.001)">
          <path id="Path_12" data-name="Path 12" d="M4297.2,543.566a.227.227,0,0,1-.249-.249V513.89a.243.243,0,0,1,.249-.24h14.85a.243.243,0,0,1,.24.249v.436a.227.227,0,0,1-.25.249h-14.155V525.7h7.879a.243.243,0,0,1,.24.249v.349a.227.227,0,0,1-.249.249h-7.87v16.088h16.7a.243.243,0,0,1,.24.249v.436a.227.227,0,0,1-.25.249H4297.2Z" transform="translate(-4296.875 -513.576)" fill="#fff"/>
          <path id="Path_13" data-name="Path 13" d="M4310.613,512.309c.117.015.175.073.175.175v.436a.154.154,0,0,1-.175.175h-14.228v11.261h7.943c.116.015.175.073.175.175v.349a.155.155,0,0,1-.175.175h-7.943v16.236h16.759c.116.015.175.073.175.175v.437a.155.155,0,0,1-.175.175h-17.372a.153.153,0,0,1-.174-.175V512.484c.013-.116.072-.175.174-.175h14.84m.01-.149h-14.85a.313.313,0,0,0-.322.306V541.9a.3.3,0,0,0,.324.324h17.371a.3.3,0,0,0,.323-.324v-.437a.314.314,0,0,0-.3-.322h-16.63V525.2h7.794a.3.3,0,0,0,.325-.324v-.349a.316.316,0,0,0-.306-.322h-7.813V513.245h14.08a.3.3,0,0,0,.324-.324v-.436a.314.314,0,0,0-.305-.322h-.01Z" transform="translate(-4295.449 -512.16)" fill="#fff"/>
        </g>
        <g id="Group_7" data-name="Group 7" transform="translate(145.111)">
          <path id="Path_14" data-name="Path 14" d="M4753.813,543.566l-.022-.035c-.392-.625-3.185-6.56-8.3-17.642l-.042-.091.1-.014a8.86,8.86,0,0,0,3.112-.949,5.586,5.586,0,0,0,2.5-4.477v-.437c0-2.425-1.392-4.163-4.135-5.165a8.071,8.071,0,0,0-1.551-.172H4737.6v28.732a.226.226,0,0,1-.248.249h-.437a.227.227,0,0,1-.25-.249V513.89a.243.243,0,0,1,.25-.24h9.44l1.32.44c2.874,1.174,4.328,3.194,4.328,6.007s-1.424,4.746-4.233,6l0,0a4.063,4.063,0,0,1-1.133.263c5.063,10.932,7.718,16.622,7.892,16.913l.011.018v.021a.227.227,0,0,1-.25.249h-.478Z" transform="translate(-4736.594 -513.575)" fill="#fff"/>
          <path id="Path_15" data-name="Path 15" d="M4744.94,512.289l1.309.437q4.277,1.746,4.277,5.936c0,2.794-1.4,4.685-4.189,5.936a3.7,3.7,0,0,1-1.222.262q7.68,16.586,7.944,17.022a.155.155,0,0,1-.175.175h-.437q-.589-.938-8.292-17.634a8.894,8.894,0,0,0,3.142-.96,5.635,5.635,0,0,0,2.531-4.539v-.436q0-3.71-4.19-5.237a8.1,8.1,0,0,0-1.57-.175h-7.945v28.807a.154.154,0,0,1-.175.175h-.436a.154.154,0,0,1-.175-.175V512.463c.014-.116.072-.175.175-.175h9.428m.024-.149h-9.452a.313.313,0,0,0-.321.306v29.436a.3.3,0,0,0,.324.324h.435a.3.3,0,0,0,.324-.324V513.224h7.795a8.012,8.012,0,0,1,1.531.169c2.746,1,4.083,2.671,4.083,5.093v.437a5.516,5.516,0,0,1-2.466,4.415,8.8,8.8,0,0,1-3.08.937l-.2.027.085.183c5.187,11.24,7.9,17.014,8.3,17.65l.043.07h.518a.3.3,0,0,0,.324-.324v-.041l-.021-.035c-.119-.2-1.579-3.28-7.844-16.808a4.416,4.416,0,0,0,1.046-.259l0,0,.006,0a7.624,7.624,0,0,0,3.2-2.473,6.1,6.1,0,0,0,1.076-3.6,6.23,6.23,0,0,0-1.1-3.666,7.338,7.338,0,0,0-3.272-2.408l-.006,0,0,0-1.309-.436-.023-.007h0Z" transform="translate(-4735.19 -512.14)" fill="#fff"/>
        </g>
      </g>
      <g id="Group_9" data-name="Group 9" transform="translate(0 0.001)">
        <path id="Path_16" data-name="Path 16" d="M1374.459,543.566a.227.227,0,0,1-.249-.249V513.89a.243.243,0,0,1,.249-.24h.446a.243.243,0,0,1,.24.249v28.733h16.7a.243.243,0,0,1,.24.249v.436a.227.227,0,0,1-.249.249h-17.372Z" transform="translate(-1374.136 -513.575)" fill="#fff"/>
        <path id="Path_17" data-name="Path 17" d="M1373.479,512.3c.117.015.175.074.175.175v28.807h16.76c.116.015.175.073.175.175v.437a.154.154,0,0,1-.175.175h-17.371a.154.154,0,0,1-.175-.175V512.474c.014-.116.073-.175.175-.175h.437m.009-.149h-.446a.314.314,0,0,0-.323.305v29.436a.3.3,0,0,0,.324.324h17.371a.3.3,0,0,0,.323-.324v-.437a.314.314,0,0,0-.3-.322H1373.8V512.474a.314.314,0,0,0-.3-.322h-.01Z" transform="translate(-1372.72 -512.15)" fill="#fff"/>
      </g>
    </g>
    <g id="Group_17" data-name="Group 17" transform="translate(68.155 63.753)">
      <g id="Group_11" data-name="Group 11" transform="translate(21.832)">
        <path id="Path_18" data-name="Path 18" d="M1831.053,1315.5l-.022-.035c-.393-.625-3.184-6.561-8.3-17.641l-.042-.091.1-.014a8.861,8.861,0,0,0,3.112-.949,5.585,5.585,0,0,0,2.5-4.477v-.436c0-2.425-1.392-4.163-4.136-5.166a8.062,8.062,0,0,0-1.551-.172h-7.869v28.731a.227.227,0,0,1-.249.249h-.437a.227.227,0,0,1-.249-.249V1285.83a.242.242,0,0,1,.249-.24h9.44l1.321.44c2.874,1.173,4.328,3.193,4.328,6.007s-1.424,4.745-4.234,6l-.005,0a4.062,4.062,0,0,1-1.132.263c5.064,10.935,7.719,16.625,7.892,16.912l.011.018v.021a.227.227,0,0,1-.249.25h-.478Z" transform="translate(-1813.837 -1285.514)" fill="#fff"/>
        <path id="Path_19" data-name="Path 19" d="M1822.19,1284.211l1.309.436q4.277,1.746,4.277,5.936c0,2.793-1.4,4.685-4.19,5.936a3.7,3.7,0,0,1-1.222.262q7.681,16.585,7.943,17.021a.154.154,0,0,1-.175.175h-.437q-.589-.937-8.292-17.633a8.878,8.878,0,0,0,3.142-.96,5.636,5.636,0,0,0,2.532-4.539v-.436q0-3.71-4.19-5.238a8.128,8.128,0,0,0-1.571-.175h-7.944V1313.8a.154.154,0,0,1-.175.175h-.436a.154.154,0,0,1-.175-.175v-29.417c.014-.116.073-.175.175-.175h9.427m.025-.149h-9.452a.313.313,0,0,0-.322.305V1313.8a.3.3,0,0,0,.324.323h.436a.3.3,0,0,0,.324-.323v-28.657h7.795a8,8,0,0,1,1.53.169c2.746,1,4.081,2.67,4.081,5.094v.436a5.514,5.514,0,0,1-2.465,4.414,8.787,8.787,0,0,1-3.081.938l-.2.027.084.183c5.186,11.24,7.9,17.013,8.3,17.65l.044.069h.519a.3.3,0,0,0,.324-.324v-.041l-.022-.035c-.171-.284-2.809-5.939-7.843-16.808a4.4,4.4,0,0,0,1.045-.259l.005,0,0,0a7.63,7.63,0,0,0,3.2-2.472,6.113,6.113,0,0,0,1.075-3.6,6.225,6.225,0,0,0-1.1-3.666,7.333,7.333,0,0,0-3.273-2.408l0,0h0l-1.309-.436-.023-.007h0Z" transform="translate(-1812.439 -1284.06)" fill="#fff"/>
      </g>
      <g id="Group_12" data-name="Group 12" transform="translate(43.661 0.263)">
        <path id="Path_20" data-name="Path 20" d="M2280.8,1320.522l-.022-.032c-.238-.34-4.465-9.281-12.925-27.333a5.467,5.467,0,0,1-.25-.623c-8.057,17.357-12.482,26.761-13.148,27.95l-.021.038h-.568a.227.227,0,0,1-.25-.249v-.019l.01-.017c.855-1.521,5.493-11.388,13.789-29.325l.02-.043h.357l13.773,29.653h-.767Z" transform="translate(-2253.544 -1290.795)" fill="#fff"/>
        <path id="Path_21" data-name="Path 21" d="M2266.313,1289.509l13.7,29.5h-.611q-.349-.5-12.919-27.322a3.143,3.143,0,0,1-.261-.7h-.087q-12.177,26.231-13.181,28.02h-.524a.154.154,0,0,1-.175-.175q1.287-2.292,13.792-29.329h.261m.095-.149h-.452l-.04.086c-8.295,17.935-12.933,27.8-13.787,29.319l-.019.034v.039a.3.3,0,0,0,.324.324h.611l.043-.076c.665-1.186,5.063-10.534,13.073-27.787.041.108.1.253.19.453h0l0,0c8.462,18.056,12.692,27,12.932,27.344l.044.063h.922l-.1-.212-13.7-29.5-.04-.086h0Z" transform="translate(-2252.11 -1289.36)" fill="#fff"/>
      </g>
      <g id="Group_13" data-name="Group 13" transform="translate(75.25 0.001)">
        <path id="Path_22" data-name="Path 22" d="M2907.081,1315.5a.227.227,0,0,1-.25-.249v-2.619a13.892,13.892,0,0,1-6.108,2.6h-.015a7.457,7.457,0,0,0-1.466.26l-.009,0h-.816l-.019-.011a9.1,9.1,0,0,0-2.066-.426h-.008l-.008,0c-2.283-.916-3.7-1.864-4.222-2.818a7.671,7.671,0,0,1-1.933-3.695,13.391,13.391,0,0,1-.351-1.674V1285.82a.243.243,0,0,1,.25-.24h.446a.243.243,0,0,1,.24.249v20.863c0,3.183,1.688,5.626,5.018,7.264a9.186,9.186,0,0,0,3.113.605,13.246,13.246,0,0,0,7.957-2.931v-25.81a.243.243,0,0,1,.249-.24h.359a.243.243,0,0,1,.24.249v29.417a.227.227,0,0,1-.25.249Z" transform="translate(-2889.737 -1285.505)" fill="#fff"/>
        <path id="Path_23" data-name="Path 23" d="M2906.033,1284.229c.116.015.175.073.175.175v29.417a.154.154,0,0,1-.175.175h-.349a.154.154,0,0,1-.175-.175v-2.706h-.086a13.692,13.692,0,0,1-6.111,2.619,7.492,7.492,0,0,0-1.484.262h-.785a9.87,9.87,0,0,0-2.1-.437q-3.426-1.375-4.189-2.793a7.55,7.55,0,0,1-1.92-3.666,13.731,13.731,0,0,1-.349-1.658V1284.4c.014-.116.072-.175.174-.175h.437c.116.015.175.073.175.175v20.862q0,4.845,5.063,7.332a9.222,9.222,0,0,0,3.143.611,13.274,13.274,0,0,0,8.031-2.968V1284.4c.014-.116.072-.175.174-.175h.349m.01-.149h-.358a.314.314,0,0,0-.322.305v25.781a13.15,13.15,0,0,1-7.881,2.894,9.11,9.11,0,0,1-3.084-.6c-3.3-1.624-4.972-4.045-4.972-7.2V1284.4a.315.315,0,0,0-.305-.322h-.455a.313.313,0,0,0-.322.305v21.055a11.034,11.034,0,0,0,.353,1.692,7.748,7.748,0,0,0,1.944,3.721c.538.979,1.931,1.91,4.256,2.843l.017.007.016,0a9.071,9.071,0,0,1,2.039.415l.036.023h.847l.018,0a7.425,7.425,0,0,1,1.448-.258h.015l.015,0a14.188,14.188,0,0,0,6.019-2.521v2.462a.3.3,0,0,0,.324.323h.349a.3.3,0,0,0,.324-.323V1284.4a.314.314,0,0,0-.3-.322h-.01Z" transform="translate(-2888.34 -1284.08)" fill="#fff"/>
      </g>
      <g id="Group_14" data-name="Group 14" transform="translate(97.08 0.002)">
        <path id="Path_24" data-name="Path 24" d="M3329.769,1315.5a.226.226,0,0,1-.249-.249V1285.83a.242.242,0,0,1,.249-.24h14.849a.243.243,0,0,1,.24.249v.436a.227.227,0,0,1-.25.249h-14.154v11.112h7.878a.243.243,0,0,1,.24.25v.349a.226.226,0,0,1-.249.249h-7.869v16.087h16.694a.244.244,0,0,1,.24.249v.436a.227.227,0,0,1-.25.249h-17.371Z" transform="translate(-3329.446 -1285.516)" fill="#fff"/>
        <path id="Path_25" data-name="Path 25" d="M3343.192,1284.249c.116.015.175.073.175.175v.436a.154.154,0,0,1-.175.175h-14.228v11.26h7.943c.116.015.175.073.175.175v.349a.154.154,0,0,1-.175.175h-7.943v16.236h16.76c.116.015.175.074.175.175v.437a.154.154,0,0,1-.175.175h-17.371a.154.154,0,0,1-.175-.175v-29.417c.015-.116.073-.175.175-.175h14.839m.009-.149h-14.849a.313.313,0,0,0-.322.305v29.435a.3.3,0,0,0,.323.324h17.371a.3.3,0,0,0,.324-.324v-.437a.314.314,0,0,0-.305-.322h-16.629v-15.938h7.794a.3.3,0,0,0,.324-.324v-.349a.315.315,0,0,0-.3-.323h-7.813v-10.963h14.079a.3.3,0,0,0,.324-.324v-.436a.314.314,0,0,0-.3-.322h-.01Z" transform="translate(-3328.03 -1284.1)" fill="#fff"/>
      </g>
      <g id="Group_15" data-name="Group 15" transform="translate(118.911 0.001)">
        <path id="Path_26" data-name="Path 26" d="M3786.491,1315.5a.227.227,0,0,1-.25-.249v-5.387c-7.641-10.434-13.051-17.766-16.087-21.8v27.187a.227.227,0,0,1-.249.249h-.437a.227.227,0,0,1-.25-.249v-29.579h.2l.022.03c10.309,13.878,15.958,21.544,16.8,22.8V1285.83a.243.243,0,0,1,.249-.24h.358a.243.243,0,0,1,.24.249v29.417a.227.227,0,0,1-.249.249h-.349Z" transform="translate(-3769.146 -1285.516)" fill="#fff"/>
        <path id="Path_27" data-name="Path 27" d="M3785.422,1284.239c.116.015.175.073.175.175v29.417a.154.154,0,0,1-.175.175h-.349a.154.154,0,0,1-.174-.175v-5.412q-11.7-15.974-16.236-22v27.409a.154.154,0,0,1-.174.174h-.437a.154.154,0,0,1-.175-.174v-29.5h.087q15.886,21.387,16.848,22.87h.087v-22.783c.014-.116.073-.175.174-.175h.349m.009-.149h-.358a.313.313,0,0,0-.322.306v22.445c-1.206-1.733-6.8-9.326-16.666-22.6l-.044-.06h-.312v29.653a.3.3,0,0,0,.324.323h.437a.3.3,0,0,0,.323-.323v-26.964c3.058,4.066,8.416,11.328,15.938,21.6v5.363a.3.3,0,0,0,.323.324h.35a.3.3,0,0,0,.323-.324v-29.417a.314.314,0,0,0-.305-.322h-.009Z" transform="translate(-3767.729 -1284.09)" fill="#fff"/>
      </g>
      <g id="Group_16" data-name="Group 16" transform="translate(0 0.002)">
        <path id="Path_28" data-name="Path 28" d="M1374.459,1315.5a.227.227,0,0,1-.249-.249V1285.83a.243.243,0,0,1,.249-.24h17.38a.243.243,0,0,1,.24.249v.436a.227.227,0,0,1-.249.249h-16.685v11.112h7.879a.243.243,0,0,1,.24.25v.349a.227.227,0,0,1-.249.249h-7.869v16.773a.227.227,0,0,1-.249.249h-.436Z" transform="translate(-1374.136 -1285.516)" fill="#fff"/>
        <path id="Path_29" data-name="Path 29" d="M1390.414,1284.248c.116.015.175.073.175.175v0c0-.1-.059-.16-.175-.175h-17.371c-.1,0-.16.059-.175.175.014-.116.073-.175.175-.175h17.371m-17.545.175v29.417a.154.154,0,0,0,.175.175h.436a.154.154,0,0,0,.175-.175.154.154,0,0,1-.175.175h-.436a.154.154,0,0,1-.175-.175v-29.417m17.72.437a.154.154,0,0,1-.175.175h0a.154.154,0,0,0,.175-.175m-16.935.175v11.261h7.944c.116.015.175.073.175.175v0c0-.1-.059-.159-.175-.175h-7.944v-11.261m8.119,11.784a.154.154,0,0,1-.175.175h0a.154.154,0,0,0,.175-.175m-8.119.175v0m16.76-12.894h-17.371a.314.314,0,0,0-.323.305l.148.018h-.149v29.417a.3.3,0,0,0,.324.324h.436a.3.3,0,0,0,.323-.324h-.3a.1.1,0,0,1,0,.024l-.024,0h-.436l-.024,0a.143.143,0,0,1,0-.024v-29.406a.113.113,0,0,1,.01-.034H1390.4a.106.106,0,0,1,.035.01.057.057,0,0,1,0,.016v.436a.1.1,0,0,1,0,.024l-.024,0h-16.76v.149h-.149v11.409h8.082a.111.111,0,0,1,.035.01.083.083,0,0,1,0,.016v.349a.1.1,0,0,1,0,.024l-.024,0h-7.943v.149h-.149v16.847h.3v-16.7h7.794a.3.3,0,0,0,.324-.323v-.349a.314.314,0,0,0-.3-.322H1373.8v-10.963h16.611a.3.3,0,0,0,.324-.324v-.437a.314.314,0,0,0-.305-.322l-.019.148v-.149h0Z" transform="translate(-1372.72 -1284.1)" fill="#fff"/>
      </g>
    </g>
    <g id="Group_26" data-name="Group 26" transform="translate(67.859 99.333)">
      <g id="Group_18" data-name="Group 18" transform="translate(0 0.001)">
        <path id="Path_30" data-name="Path 30" d="M1385.53,2032.125a.227.227,0,0,1-.249-.25v-5.387c-7.64-10.434-13.051-17.765-16.087-21.8v27.187a.227.227,0,0,1-.249.249h-.437a.227.227,0,0,1-.249-.249V2002.3h.2l.022.031c10.308,13.877,15.957,21.544,16.8,22.8V2002.45a.243.243,0,0,1,.249-.24h.359a.244.244,0,0,1,.24.249v29.417a.227.227,0,0,1-.249.249h-.349Z" transform="translate(-1368.186 -2002.135)" fill="#fff"/>
        <path id="Path_31" data-name="Path 31" d="M1384.464,2000.859c.116.015.175.073.175.175v29.416a.154.154,0,0,1-.175.175h-.349a.154.154,0,0,1-.175-.175v-5.411q-11.7-15.974-16.236-22v27.409a.155.155,0,0,1-.175.175h-.436a.154.154,0,0,1-.175-.175v-29.5h.088q15.886,21.387,16.847,22.87h.087v-22.782c.014-.117.073-.175.175-.175h.349m.009-.149h-.358a.313.313,0,0,0-.323.306v22.444c-1.2-1.733-6.8-9.325-16.666-22.6l-.045-.06h-.311v29.653a.3.3,0,0,0,.324.323h.436a.3.3,0,0,0,.324-.323v-26.964c3.058,4.067,8.417,11.329,15.938,21.6v5.363a.3.3,0,0,0,.324.323h.349a.3.3,0,0,0,.323-.323v-29.417a.314.314,0,0,0-.3-.322h-.01Z" transform="translate(-1366.77 -2000.71)" fill="#fff"/>
      </g>
      <g id="Group_19" data-name="Group 19" transform="translate(21.832 0.002)">
        <path id="Path_32" data-name="Path 32" d="M1808.219,2032.115a.227.227,0,0,1-.249-.249V2002.44a.243.243,0,0,1,.249-.24h14.849a.243.243,0,0,1,.24.25v.436a.227.227,0,0,1-.249.25H1808.9v11.112h7.878a.243.243,0,0,1,.24.249v.349a.227.227,0,0,1-.249.249H1808.9v16.087H1825.6a.243.243,0,0,1,.24.249v.437a.227.227,0,0,1-.25.249h-17.371Z" transform="translate(-1807.896 -2002.126)" fill="#fff"/>
        <path id="Path_33" data-name="Path 33" d="M1821.652,2000.869c.116.015.175.073.175.175v.437a.154.154,0,0,1-.175.175h-14.228v11.26h7.943c.116.015.175.073.175.175v.349a.154.154,0,0,1-.175.175h-7.943v16.236h16.76c.116.015.175.073.175.175v.436a.154.154,0,0,1-.175.175h-17.371a.154.154,0,0,1-.175-.175v-29.417c.014-.116.073-.175.175-.175h14.839m.01-.149h-14.849a.313.313,0,0,0-.322.306v29.435a.3.3,0,0,0,.324.324h17.371a.3.3,0,0,0,.324-.324v-.436a.314.314,0,0,0-.3-.322h-16.63v-15.938h7.794a.3.3,0,0,0,.324-.324v-.349a.314.314,0,0,0-.3-.322h-7.813V2001.8h14.079a.3.3,0,0,0,.324-.324v-.437a.314.314,0,0,0-.3-.322h-.01Z" transform="translate(-1806.49 -2000.72)" fill="#fff"/>
      </g>
      <g id="Group_20" data-name="Group 20" transform="translate(43.663 0.001)">
        <path id="Path_34" data-name="Path 34" d="M2256.484,2032.115a.227.227,0,0,1-.25-.249v-28.731h-8.305a.227.227,0,0,1-.249-.25v-.445a.242.242,0,0,1,.249-.24h17.381a.243.243,0,0,1,.24.25v.436a.227.227,0,0,1-.249.25h-8.218v28.731a.227.227,0,0,1-.249.249Z" transform="translate(-2247.606 -2002.126)" fill="#fff"/>
        <path id="Path_35" data-name="Path 35" d="M2263.884,2000.859c.116.015.175.073.175.175v.436a.154.154,0,0,1-.175.175h-8.292v28.806a.154.154,0,0,1-.175.175h-.349a.154.154,0,0,1-.175-.175v-28.806h-8.38a.154.154,0,0,1-.175-.175v-.436c.015-.116.073-.175.175-.175h17.371m.01-.149h-17.38a.314.314,0,0,0-.323.306v.454a.3.3,0,0,0,.324.324h8.231v28.657a.3.3,0,0,0,.324.324h.349a.3.3,0,0,0,.323-.324v-28.657h8.144a.3.3,0,0,0,.324-.324v-.436a.315.315,0,0,0-.305-.323h-.009Z" transform="translate(-2246.189 -2000.71)" fill="#fff"/>
      </g>
      <g id="Group_21" data-name="Group 21" transform="translate(65.494 0.001)">
        <path id="Path_36" data-name="Path 36" d="M2687.639,2032.106a.227.227,0,0,1-.25-.249v-.022l.011-.018c.5-.794,5.215-10.447,14-28.692h-11.142a.226.226,0,0,1-.249-.249v-.446a.242.242,0,0,1,.249-.24h12.23a.243.243,0,0,1,.24.249v.017l-14.009,28.714h16.3a.244.244,0,0,1,.24.249v.437a.227.227,0,0,1-.249.249Z" transform="translate(-2687.315 -2002.116)" fill="#fff"/>
        <path id="Path_37" data-name="Path 37" d="M2701.052,2000.859c.116.015.175.073.175.175l-14.054,28.805h16.411c.116.015.174.074.174.175v.436a.154.154,0,0,1-.174.175h-17.371a.154.154,0,0,1-.175-.175q.762-1.2,14.054-28.806h-11.261a.154.154,0,0,1-.174-.175v-.436c.014-.116.072-.175.174-.175h12.221m.009-.149h-12.23a.314.314,0,0,0-.323.306v.454a.3.3,0,0,0,.324.324h11.023c-8.749,18.172-13.439,27.788-13.942,28.577l-.024.037v.043a.3.3,0,0,0,.324.324h17.371a.3.3,0,0,0,.323-.324v-.436a.314.314,0,0,0-.3-.322h-16.191l13.949-28.592.015-.031v-.034a.314.314,0,0,0-.305-.322h-.009Z" transform="translate(-2685.889 -2000.71)" fill="#fff"/>
      </g>
      <g id="Group_22" data-name="Group 22" transform="translate(87.326)">
        <path id="Path_38" data-name="Path 38" d="M3149.4,2032.115l-.02-.015c-.241-.18-2.951-3.516-8.284-10.2h-.014c-.681.921-3.435,4.346-8.186,10.186l-.022.027h-.384c-.094,0-.183,0-.7-2.811-.333-1.822-.8-4.6-1.386-8.25-1.975-11.453-3.057-17.628-3.218-18.365a.148.148,0,0,1-.1-.153v-.1a.242.242,0,0,1,.249-.24h.437c.138,0,.37,0,1.121,5.472.18.7,1.484,8.244,3.988,23.06l8.247-10.07,8.159,10.069c3.167-18.473,4.833-28.054,4.95-28.477l.015-.055h.589a.243.243,0,0,1,.24.25v.008l0,.009c-.233.99-1.966,10.915-5.149,29.5l-.006.037-.224.112Z" transform="translate(-3127.017 -2002.124)" fill="#fff"/>
        <path id="Path_39" data-name="Path 39" d="M3153.438,2000.83c.116.015.175.073.175.175q-.349,1.485-5.15,29.5l-.175.087h-.261q-.35-.262-8.293-10.213h-.087q-.96,1.309-8.2,10.213h-.349q-.241,0-2.008-11-3.056-17.719-3.229-18.418a.077.077,0,0,1-.087-.087v-.087c.014-.116.073-.175.175-.175h.437q.305,0,1.047,5.412.262,1,4.016,23.219l8.292-10.125,8.206,10.125q4.8-28,4.975-28.631h.524m.009-.149h-.646l-.031.109c-.118.429-1.729,9.694-4.923,28.322l-8-9.87-.115-.142-.116.142-8.085,9.872c-2.481-14.681-3.777-22.174-3.961-22.9-.246-1.794-.459-3.16-.633-4.058-.087-.454-.168-.8-.238-1.03-.084-.274-.167-.444-.322-.444h-.437a.314.314,0,0,0-.323.306v.105a.225.225,0,0,0,.109.205c.184.877,1.262,7.036,3.209,18.325.587,3.652,1.053,6.428,1.385,8.25.167.915.3,1.611.408,2.069.053.235.1.407.135.527s.087.276.227.276h.42l.044-.055c4.641-5.7,7.376-9.1,8.137-10.119,7.061,8.846,8.087,10.028,8.244,10.145l.039.03h.347l.031-.016.175-.087.068-.034.013-.074c3.184-18.583,4.916-28.507,5.148-29.5l0-.017V2001a.314.314,0,0,0-.3-.322h-.009Z" transform="translate(-3125.619 -2000.68)" fill="#fff"/>
      </g>
      <g id="Group_23" data-name="Group 23" transform="translate(118.912 0.002)">
        <path id="Path_40" data-name="Path 40" d="M3763.529,2032.115a.227.227,0,0,1-.25-.249V2002.44a.243.243,0,0,1,.25-.24h14.849a.243.243,0,0,1,.24.25v.436a.227.227,0,0,1-.25.25h-14.153v11.112h7.878a.243.243,0,0,1,.24.249v.349a.227.227,0,0,1-.249.249h-7.869v16.087h16.694a.243.243,0,0,1,.24.249v.437a.227.227,0,0,1-.249.249h-17.371Z" transform="translate(-3763.205 -2002.126)" fill="#fff"/>
        <path id="Path_41" data-name="Path 41" d="M3776.952,2000.869c.116.015.175.073.175.175v.437a.155.155,0,0,1-.175.175h-14.229v11.26h7.944c.116.015.175.073.175.175v.349a.154.154,0,0,1-.175.175h-7.944v16.236h16.76c.116.015.175.073.175.175v.436a.155.155,0,0,1-.175.175h-17.372a.153.153,0,0,1-.174-.175v-29.417c.013-.116.072-.175.174-.175h14.84m.009-.149h-14.849a.313.313,0,0,0-.322.306v29.435a.3.3,0,0,0,.324.324h17.371a.3.3,0,0,0,.323-.324v-.436a.314.314,0,0,0-.3-.322h-16.63v-15.938h7.795a.3.3,0,0,0,.324-.324v-.349a.315.315,0,0,0-.305-.322h-7.813V2001.8h14.08a.3.3,0,0,0,.324-.324v-.437a.315.315,0,0,0-.305-.322h-.01Z" transform="translate(-3761.789 -2000.72)" fill="#fff"/>
      </g>
      <g id="Group_24" data-name="Group 24" transform="translate(140.743 0)">
        <path id="Path_42" data-name="Path 42" d="M4220.1,2032.115l-.022-.035c-.392-.625-3.184-6.56-8.3-17.641l-.043-.091.1-.014a8.861,8.861,0,0,0,3.112-.949,5.589,5.589,0,0,0,2.5-4.477v-.436c0-2.425-1.392-4.163-4.137-5.166a8.041,8.041,0,0,0-1.55-.172h-7.869v28.731a.227.227,0,0,1-.25.25h-.437a.227.227,0,0,1-.249-.25V2002.44a.243.243,0,0,1,.249-.24h9.439l1.321.44c2.873,1.174,4.327,3.194,4.327,6.007s-1.424,4.746-4.234,6l0,0a4.057,4.057,0,0,1-1.133.263c5.063,10.932,7.719,16.622,7.893,16.912l.01.018v.021a.227.227,0,0,1-.249.249h-.477Z" transform="translate(-4202.887 -2002.125)" fill="#fff"/>
        <path id="Path_43" data-name="Path 43" d="M4211.249,2000.839l1.311.437q4.274,1.746,4.275,5.936c0,2.793-1.4,4.685-4.188,5.936a3.7,3.7,0,0,1-1.222.261q7.68,16.585,7.942,17.021a.154.154,0,0,1-.174.175h-.437q-.589-.937-8.293-17.633a8.861,8.861,0,0,0,3.142-.96,5.633,5.633,0,0,0,2.533-4.539v-.436q0-3.71-4.19-5.238a8.122,8.122,0,0,0-1.571-.175h-7.944v28.806a.154.154,0,0,1-.174.175h-.437a.155.155,0,0,1-.176-.175v-29.417c.015-.116.073-.175.176-.175h9.427m.025-.149h-9.452a.314.314,0,0,0-.322.306v29.435a.3.3,0,0,0,.322.324h.437a.3.3,0,0,0,.324-.324v-28.657h7.795a7.992,7.992,0,0,1,1.53.17c2.747,1,4.081,2.67,4.081,5.093v.437a5.513,5.513,0,0,1-2.464,4.414,8.792,8.792,0,0,1-3.081.937l-.2.027.084.183c5.187,11.24,7.9,17.013,8.3,17.649l.044.07h.519a.3.3,0,0,0,.325-.324v-.041l-.022-.035c-.118-.2-1.578-3.28-7.843-16.808a4.387,4.387,0,0,0,1.045-.259l0,0,0,0a7.638,7.638,0,0,0,3.2-2.472,6.109,6.109,0,0,0,1.074-3.6,6.215,6.215,0,0,0-1.1-3.666,7.323,7.323,0,0,0-3.271-2.408l0,0h0l-1.31-.437-.022-.007h0Z" transform="translate(-4201.5 -2000.689)" fill="#fff"/>
      </g>
      <g id="Group_25" data-name="Group 25" transform="translate(162.574 0.002)">
        <path id="Path_44" data-name="Path 44" d="M4659.667,2032.115l-16.043-16.563v16.314a.227.227,0,0,1-.249.249h-.437a.227.227,0,0,1-.249-.249V2002.44a.243.243,0,0,1,.249-.24h.446a.243.243,0,0,1,.239.25V2014l15.787-11.8h.82a.244.244,0,0,1,.24.249v.041l-.034.021c-.969.622-6.466,4.745-16.339,12.254l16.51,17.209-.28.14h-.661Z" transform="translate(-4642.615 -2002.126)" fill="#fff"/>
        <path id="Path_45" data-name="Path 45" d="M4658.806,2000.868c.116.015.175.073.175.175q-1.463.939-16.411,12.308l16.5,17.2-.175.088h-.611l-16.149-16.673v16.5a.154.154,0,0,1-.175.175h-.436a.154.154,0,0,1-.175-.175v-29.417c.015-.116.073-.175.175-.175h.436c.116.015.175.073.175.175v11.7l15.888-11.872h.785m.009-.149h-.843l-.041.03-15.648,11.693v-11.4a.314.314,0,0,0-.305-.322h-.456a.313.313,0,0,0-.322.306v29.435a.3.3,0,0,0,.323.323h.437a.3.3,0,0,0,.324-.323v-16.13l15.893,16.408.043.045h.71l.03-.016.176-.087.18-.091-.14-.146-16.383-17.076c9.831-7.477,15.3-11.581,16.268-12.2l.069-.044v-.081a.314.314,0,0,0-.305-.322h-.01Z" transform="translate(-4641.199 -2000.72)" fill="#fff"/>
      </g>
    </g>
    <rect id="Rectangle_2" data-name="Rectangle 2" width="1.608" height="8.391" transform="translate(46.746)" fill="#f39200"/>
    <rect id="Rectangle_3" data-name="Rectangle 3" width="1.608" height="8.262" transform="translate(60.095 132.477)" fill="#f39200"/>
  </g>
</svg>
