<svg xmlns="http://www.w3.org/2000/svg" width="208.665" height="406.278" viewBox="0 0 208.665 406.278">
  <path id="news_image_shap" d="M390.4,569.788l-5.243-.025c0-.528.246-52.924.246-59.983,0-1.8-.24-2.915-.731-3.393-1.367-1.331-7.19-1.177-12.82-1.029-12.521.329-57.408,7.3-68.652,9.482-10.706,2.072-17.227-2.043-21.542-4.765-.372-.235-.734-.463-1.087-.68-5.457-3.358-9.161-13.032-8.367-18.6.756-5.292,2.357-18.659,2.357-21.068,0-.189-.008-.421-.024-.688a57.9,57.9,0,0,1-10.612-1.88c-7.831-2.062-9.6-10.357-8.737-16.834.3-2.269-.476-2.943-2.771-4.558a24.98,24.98,0,0,1-2.141-1.629c-2.166-1.9-4.862-6.064-3.416-9.786a7.121,7.121,0,0,1,4.65-4.043c.429-1.694,1.249-5.057,2.353-10.139a46.862,46.862,0,0,0,.88-8.274c-.731.356-1.451.724-2.169,1.088a50.522,50.522,0,0,1-5.1,2.37c-5.6,2.1-12.227-1.477-18.671-10.07-5.3-7.07-.915-14.592,1.194-18.207a33.763,33.763,0,0,1,2.34-3.312c3.065-4.009,7.694-10.065,12.047-24.519a183.593,183.593,0,0,0,5.935-25.5c-.029.031-.058.06-.088.087-1.62,1.62-6.37,3.939-10.1,5.408-8.883,3.5-11.633,2.405-12.537,2.044l-1.945-.774.326-2.068c.254-1.615,1.626-2.768,3.9-4.681,2.015-1.694,4.775-4.017,5.473-5.876.849-2.263,1.809-4.385,2.582-6.09.023-.049.044-.1.066-.144-1.017-1.317-2.047-2.718-3.1-4.143-1.762-2.394-3.584-4.869-5.454-7.112-5.765-6.918-3.139-15.212-1.03-21.878.183-.578.364-1.152.538-1.717,1.437-4.67,3.435-15.71,5.752-28.494,1.012-5.585,2.057-11.359,3.165-17.213,4.041-21.361,18.308-46.18,26.912-57.651,5.089-6.785,12.153-10.441,19.387-10.02,6.979.4,13.257,4.532,17.223,11.328,4.832,8.283,15.586,16.7,25.988,24.832.11.086.219.172.33.258,4.665-7.077,8.962-19.064,9.548-20.728l4.424-25.609,5.167.893-4.5,26.03-.068.2c-.2.575-4.9,14.158-10.313,22.276-.042.061-.084.125-.126.188,3.361,2.658,6.683,5.353,9.7,8.027,11.49,10.186,22.908,17.287,34.9,21.7,12.279,4.524,13.6,17.114,14.482,25.446,1.228,11.667-4.756,24.523-14.888,31.99-7.041,5.188-14.508,25.387-20.509,41.617-2.044,5.53-3.975,10.753-5.863,15.408-4.908,12.1-6.49,34.877-7,52.542q1.465-.768,2.917-1.523c11.787-6.144,23.974-12.5,35.645-22.346,16.707-14.1,38.763-33.266,38.983-33.457l.18-.157.206-.121c.627-.369,6.238-3.536,10.368-.787,2.865,1.906,3.9,5.9,3.077,11.86-.22,1.6-.444,3.426-.679,5.358-2.086,17.1-5.578,45.72-24.59,70.084-3.236,4.146-5.813,7.548-7.885,10.28-10.1,13.332-10.34,13.521-25.268,20.386l-2.63,1.212c-20.37,9.4-36.492,17.014-36.654,17.09l-.327.154-.356.06c-.7.118-6.939,1.037-10.371-2.87-2.164-2.462-2.557-6.017-1.173-10.569,1.215-3.993,3-8.627,4.9-13.533,3.823-9.9,8.155-21.116,8.173-28.531v-2.468c0-2.935,0-6.8.05-11.273q-2.017,1.113-4.015,2.271c-5.857,3.4-11.468,4.2-16.673,2.362-9.237-3.254-13.9-13.761-15.107-16.9-1.639-4.263-3.819-12.1-6.129-20.389-1.5-5.379-3.047-10.943-4.506-15.737-4.282-14.069,10.974-29.323,15.985-34.336a49.444,49.444,0,0,1,8.188-6.157c4.166-2.705,8.1-5.259,9.135-8.62a133.828,133.828,0,0,1,5.752-13.448c.313-.675.632-1.361.951-2.051-1.14.313-2.365.654-3.656,1.014-3.337.931-7.19,2.005-11.089,3a34.986,34.986,0,0,1-8.233,6.071,260.325,260.325,0,0,1-32.1,14.984c-2.995,1.124-4.568-.086-5.24-.907-2.316-2.831.319-8.024,2.1-10.867,2.575-4.122,5.716-9.769,5.747-9.825l.535-.964,1.063-.292c.483-.133,4.992-1.262,14.728-.18,2.792.309,7.346-.209,13.536-1.544,1.582-.342,3.212-.722,4.849-1.126a1.638,1.638,0,0,0,.264-.666,4.33,4.33,0,0,0-2.182-1.048,105.644,105.644,0,0,0-31.33-2.561c-11.8,1.027-15.1,1.555-15.131,1.561l-.753.123-.706-.3a4.469,4.469,0,0,1-2.63-3.508c-.28-2.342,1.268-4.743,4.733-7.342,1.846-1.385,4.321-3.678,7.188-6.333,6.675-6.186,14.984-13.886,22.1-16.259,9.323-3.108,13.627-.776,14.987.3,1.877.972,13.3,6.863,18,8.743,1.024.41,2.287.771,3.625,1.153,4.816,1.377,12.877,3.682,11.154,11.866a42.5,42.5,0,0,1-2.135,6.518c8.108-3.641,16.761-10.514,17.072-15.162.311-4.67-6.918-11.419-11.547-14.576-4.628-3.175-27.811-19.383-30.6-27.189-2.648-7.417,3.819-17.6,9.6-26.154l-.615-.481c-10.789-8.44-21.947-17.167-27.286-26.319-3.065-5.253-7.8-8.437-13-8.737-5.458-.314-10.873,2.577-14.89,7.932-10.021,13.361-22.524,37.346-25.953,55.479-1.1,5.834-2.148,11.6-3.157,17.174-2.345,12.95-4.372,24.134-5.9,29.1q-.267.867-.551,1.757c-1.989,6.288-3.87,12.226.06,16.941,1.97,2.365,3.84,4.9,5.648,7.36q.753,1.023,1.489,2.017a3.428,3.428,0,0,1,1.076-.6c2.028-.69,3.9.711,4.511,1.171.083.061,8.486,6.625,9.479,8.311.353.6,1.087,1.848-.554,11.607a197.362,197.362,0,0,1-5.718,23.847c-4.629,15.366-9.808,22.142-12.9,26.191a30.274,30.274,0,0,0-1.978,2.77c-2.4,4.116-4.495,8.463-1.529,12.42,4.781,6.375,9.5,9.482,12.635,8.306a46.469,46.469,0,0,0,4.56-2.131c1.446-.737,2.956-1.506,4.564-2.2-.036-1.756-.1-3.442-.152-4.973-.065-1.788-.121-3.333-.121-4.579,0-4.159,1.037-6.958,3.17-8.554,1.926-1.44,4.509-1.7,7.677-.768,6.016,1.769,18.415,10.284,19.809,11.249l1.6,1.1L282.6,412.518l-2.541-.889a55.827,55.827,0,0,0-14.216-2.577,18.2,18.2,0,0,0-5.816.727,58.073,58.073,0,0,1-1.042,11.5c-.758,3.489-1.38,6.166-1.842,8.073.761-.034,1.56-.04,2.4-.021a93.145,93.145,0,0,1,26.23,4.76c1.612.5,3,.923,3.785,1.066,3.818.695,4.156,2.894,4.124,3.808-.089,2.564-2.91,4.172-8.387,4.78-5.632.625-15.836,2.454-17.056,2.674a9.851,9.851,0,0,1-8.8-2.3c-2.354-2.091-5.225-6.221-6.814-8.638a1.725,1.725,0,0,0-.888.764c-.345.888.8,2.907,1.981,3.941a20.546,20.546,0,0,0,1.707,1.288c2.4,1.689,5.688,4,4.951,9.539-.211,1.579-.965,9.534,4.874,11.071a55.481,55.481,0,0,0,8.811,1.647c-.4-4.6-.353-6.8.677-8.172,1.228-1.638,5.407-3.763,7.786-4.884l2.569-1.208,1,2.658c.337.892,3.184,8.861-.271,13.61-1.3,1.787-3.455,2.744-6.053,3.142.016.311.026.595.026.846,0,3-1.79,17.474-2.408,21.81-.535,3.746,2.352,11.191,5.925,13.39.369.228.747.466,1.137.711,4.046,2.553,9.079,5.731,17.749,4.051,9.681-1.874,56.183-9.224,69.509-9.574,8.98-.235,13.8-.232,16.615,2.515,2.052,2,2.314,4.871,2.314,7.15,0,7.07-.243,59.48-.246,60.007ZM342.526,415.824c-.1,5.862-.1,10.818-.1,14.124v2.485c-.021,8.385-4.538,20.085-8.526,30.407-1.86,4.814-3.615,9.362-4.775,13.17-.564,1.851-1,4.32.089,5.575,1.171,1.344,3.977,1.343,5.253,1.208,2.521-1.189,17.639-8.311,36.327-16.936l2.639-1.215a60.613,60.613,0,0,0,23.28-18.79c2.081-2.746,4.67-6.163,7.928-10.339,18.118-23.217,21.5-50.934,23.52-67.494.238-1.955.464-3.8.69-5.441.581-4.218-.024-6.267-.786-6.777-.925-.619-3.2.062-4.615.829-2.26,1.963-22.958,19.931-38.841,33.332-12.116,10.222-24.565,16.712-36.6,22.987-1.859.97-3.683,1.919-5.479,2.87ZM279.114,458.57a34.547,34.547,0,0,0,.207,5.105,3.553,3.553,0,0,0,2.266-1.019c.922-1.267.791-3.714.381-5.82A23.88,23.88,0,0,0,279.114,458.57Zm-20.77-24a36.7,36.7,0,0,0,4.582,5.637,4.585,4.585,0,0,0,4.014,1.137l.241-.057c.423-.076,9.59-1.74,15.855-2.546a86.034,86.034,0,0,0-23.614-4.164c-.376-.008-.737-.011-1.079-.008Zm30.927,5.923Zm48.1-136.549c-.889,1.968-1.826,3.986-2.754,5.985a133.382,133.382,0,0,0-5.5,12.783c-1.594,5.182-6.523,8.38-11.291,11.476a45.644,45.644,0,0,0-7.334,5.467c-4.462,4.462-18.044,18.042-14.676,29.1,1.477,4.854,3.035,10.449,4.54,15.859,2.274,8.168,4.422,15.885,5.972,19.913,2.071,5.384,6.3,11.848,11.957,13.841,3.691,1.3,7.83.645,12.3-1.95,2.219-1.289,4.48-2.54,6.749-3.761.411-18.57,1.926-43.663,7.469-57.337,1.856-4.581,3.774-9.767,5.8-15.258,6.889-18.633,14.012-37.9,22.317-44.019,8.687-6.4,13.824-17.339,12.786-27.219-.458-4.354-1.092-9.326-2.812-13.225a13.75,13.75,0,0,0-8.269-7.849c-12.618-4.649-24.578-12.073-36.565-22.7-2.831-2.511-5.972-5.065-9.167-7.6-4.49,6.667-10.545,16.252-8.8,21.141,1.717,4.807,18.465,17.655,28.619,24.625,1.471,1,14.43,10.089,13.819,19.252-.617,9.26-15.8,18.619-25.166,21.476ZM265.1,403.794q.474,0,.959.019a61.15,61.15,0,0,1,13.152,2.088l1.339-4.189c-4.432-2.971-12.833-8.3-16.7-9.44-1.433-.421-2.549-.445-3.056-.065-.321.24-1.069,1.147-1.069,4.356,0,1.15.055,2.65.118,4.386.039,1.079.083,2.229.117,3.427a23.11,23.11,0,0,1,5.143-.585ZM241.75,326.1c-.5,1.14-1.021,2.376-1.493,3.635a15.306,15.306,0,0,1-3.923,5.335c4.25-1.5,9.017-3.774,10.188-4.939l.013-.011c-.64-.551-1.637-1.3-2.375-1.851a20.707,20.707,0,0,1-2.41-2.167Zm40.559-13.332c-1.054,1.871-3.295,5.8-5.279,8.977a19.743,19.743,0,0,0-1.79,3.563A269.549,269.549,0,0,0,303,312.46a35.842,35.842,0,0,1-8.917.457,48.43,48.43,0,0,0-11.769-.147Zm4.19-17.519a112.633,112.633,0,0,1,26,3.018c4.479,1.221,5.735,3.575,5.991,5.365,2.551-.682,5.018-1.37,7.252-1.994,3.042-.849,5.721-1.6,7.857-2.125a59.686,59.686,0,0,0,3.633-9.828c.577-2.737-.889-3.865-7.465-5.745-1.406-.4-2.859-.818-4.13-1.327-5.345-2.138-18.194-8.811-18.739-9.095l-.5-.258-.113-.162c-.465-.288-3.23-1.688-10.041.581-6.045,2.015-13.892,9.287-20.2,15.131-2.974,2.755-5.541,5.135-7.6,6.683a17.659,17.659,0,0,0-1.511,1.257c2.337-.269,6.22-.671,12.4-1.208,2.321-.2,4.734-.292,7.161-.292Z" transform="translate(-225.65 -163.51)" fill="#f39200" opacity="0.3"/>
</svg>
