<svg id="apple-app-store-icon" xmlns="http://www.w3.org/2000/svg" width="134.9" height="40" viewBox="0 0 134.9 40">
  <g id="Group_242" data-name="Group 242">
    <g id="Group_240" data-name="Group 240">
      <path id="Path_90" data-name="Path 90" d="M8.7,40h-1a14.919,14.919,0,0,1-2.1-.2,6.033,6.033,0,0,1-1.9-.6,4.784,4.784,0,0,1-1.7-1A4.428,4.428,0,0,1,.8,36.7,4.923,4.923,0,0,1,.2,35,13.552,13.552,0,0,1,0,33V7A13.552,13.552,0,0,1,.2,5,4.923,4.923,0,0,1,.8,3.3,7.887,7.887,0,0,1,2,1.8,5.372,5.372,0,0,1,3.6.8,6.033,6.033,0,0,1,5.5.2,14.919,14.919,0,0,1,7.6,0H127.3a14.919,14.919,0,0,1,2.1.2,6.033,6.033,0,0,1,1.9.6,6.221,6.221,0,0,1,2.8,2.5,4.924,4.924,0,0,1,.6,1.7,13.551,13.551,0,0,1,.2,2V33a12.252,12.252,0,0,1-.2,1.9,4.924,4.924,0,0,1-.6,1.7,5.263,5.263,0,0,1-1.2,1.4,9.062,9.062,0,0,1-1.6,1.1,6.033,6.033,0,0,1-1.9.6,14.919,14.919,0,0,1-2.1.2h-2.2Z"/>
    </g>
    <g id="_Group_" data-name=" Group ">
      <g id="_Group_2" data-name=" Group 2">
        <g id="_Group_3" data-name=" Group 3">
          <path id="_Path_" data-name=" Path " d="M30.3,20.3A5.043,5.043,0,0,1,32.8,16a5.454,5.454,0,0,0-4.2-2.3c-1.8-.2-3.5,1.1-4.4,1.1s-2.3-1-3.8-1a5.4,5.4,0,0,0-4.7,2.9c-2.1,3.5-.5,8.6,1.4,11.5,1,1.4,2.1,2.9,3.6,2.9,1.5-.1,2-.9,3.8-.9s2.3.9,3.8.9c1.6,0,2.6-1.4,3.5-2.8a13.687,13.687,0,0,0,1.6-3.2A5.681,5.681,0,0,1,30.3,20.3Z" fill="#fff"/>
          <path id="_Path_2" data-name=" Path 2" d="M27.4,11.9a4.894,4.894,0,0,0,1.2-3.7,5.553,5.553,0,0,0-3.4,1.7A4.57,4.57,0,0,0,24,13.4,4.036,4.036,0,0,0,27.4,11.9Z" fill="#fff"/>
        </g>
      </g>
      <g id="Group_241" data-name="Group 241">
        <path id="Path_91" data-name="Path 91" d="M48.9,27.5h-5L42.7,31H40.6l4.8-13h2.2l4.8,13H50.2Zm-4.5-1.7h4l-2-5.7h-.1Z" fill="#fff"/>
        <path id="Path_92" data-name="Path 92" d="M62.5,26.2c0,2.9-1.6,4.8-4,4.8a3.209,3.209,0,0,1-3-1.7h0V34h-2V21.5h1.9v1.6h0a3.446,3.446,0,0,1,3.1-1.7C60.9,21.4,62.5,23.3,62.5,26.2Zm-2,0c0-1.9-1-3.2-2.5-3.2s-2.5,1.3-2.5,3.2,1,3.2,2.5,3.2S60.5,28.2,60.5,26.2Z" fill="#fff"/>
        <path id="Path_93" data-name="Path 93" d="M73.1,26.2c0,2.9-1.6,4.8-4,4.8a3.209,3.209,0,0,1-3-1.7h0V34h-2V21.5H66v1.6h0a3.446,3.446,0,0,1,3.1-1.7C71.5,21.4,73.1,23.3,73.1,26.2Zm-2,0c0-1.9-1-3.2-2.5-3.2s-2.5,1.3-2.5,3.2,1,3.2,2.5,3.2,2.5-1.2,2.5-3.2Z" fill="#fff"/>
        <path id="Path_94" data-name="Path 94" d="M80.1,27.4c.1,1.3,1.4,2.1,3.1,2.1s2.9-.8,2.9-2c0-1-.7-1.6-2.4-2L82,25.1c-2.4-.6-3.5-1.7-3.5-3.5,0-2.2,2-3.8,4.8-3.8s4.7,1.5,4.8,3.8h-2c-.1-1.3-1.2-2.1-2.8-2.1s-2.7.8-2.7,1.9c0,.9.7,1.5,2.4,1.9l1.5.4c2.7.6,3.8,1.7,3.8,3.6,0,2.4-2,4-5.1,4-2.9,0-4.9-1.5-5-3.8Z" fill="#fff"/>
        <path id="Path_95" data-name="Path 95" d="M92.4,19.3v2.2h1.8V23H92.4v5.2a1.061,1.061,0,0,0,1.2,1.2h.6v1.5a3.749,3.749,0,0,1-1.1.1c-1.9,0-2.7-.7-2.7-2.6V23H89V21.5h1.4V19.3Z" fill="#fff"/>
        <path id="Path_96" data-name="Path 96" d="M95.3,26.2c0-3,1.8-4.9,4.6-4.9s4.6,1.9,4.6,4.9-1.8,4.9-4.6,4.9S95.3,29.2,95.3,26.2Zm7.1,0c0-2-.9-3.2-2.5-3.2s-2.5,1.2-2.5,3.2c0,2.1.9,3.2,2.5,3.2s2.5-1.1,2.5-3.2Z" fill="#fff"/>
        <path id="Path_97" data-name="Path 97" d="M106,21.5h1.9v1.6h0a2.26,2.26,0,0,1,2.3-1.7,1.7,1.7,0,0,1,.7.1v1.8a2.769,2.769,0,0,0-.9-.1,2.077,2.077,0,0,0-2.1,1.9V31h-2Z" fill="#fff"/>
        <path id="Path_98" data-name="Path 98" d="M120,28.2a3.9,3.9,0,0,1-4.1,2.9c-2.8,0-4.5-1.8-4.5-4.8s1.7-4.9,4.4-4.9,4.3,1.8,4.3,4.7v.7h-6.8v.1a2.485,2.485,0,0,0,2.3,2.7h.3a2.134,2.134,0,0,0,2.2-1.3Zm-6.6-2.8h4.8A2.263,2.263,0,0,0,116,23h-.2a2.369,2.369,0,0,0-2.4,2.4Z" fill="#fff"/>
      </g>
    </g>
  </g>
  <g id="_Group_4" data-name=" Group 4">
    <g id="Group_243" data-name="Group 243">
      <path id="Path_99" data-name="Path 99" d="M46.1,14.5H42.2V8.2h1v5.3h2.9Z" fill="#fff"/>
      <path id="Path_100" data-name="Path 100" d="M47.1,13.1c0-.8.6-1.3,1.8-1.4l1.3-.1v-.4c0-.5-.3-.8-1-.8a1,1,0,0,0-1,.5h-.9a1.721,1.721,0,0,1,1.9-1.3c1.2,0,1.8.6,1.8,1.6v3.2h-.9v-.7H50a1.343,1.343,0,0,1-1.4.7A1.456,1.456,0,0,1,47,13.1C47.1,13.2,47.1,13.2,47.1,13.1Zm3-.4v-.4l-1.1.1c-.6,0-.9.3-.9.7a.808.808,0,0,0,.9.7,1.107,1.107,0,0,0,1.1-1.1Z" fill="#fff"/>
      <path id="Path_101" data-name="Path 101" d="M52.3,12.1c0-1.5.8-2.4,2-2.4a1.486,1.486,0,0,1,1.4.8h.1V7.9h.9v6.5h-.9v-.7h-.1a1.763,1.763,0,0,1-1.5.8C53,14.5,52.3,13.6,52.3,12.1Zm.9,0c0,1,.5,1.6,1.3,1.6s1.3-.6,1.3-1.6-.5-1.6-1.3-1.6-1.3.6-1.3,1.6Z" fill="#fff"/>
      <path id="Path_102" data-name="Path 102" d="M62.2,13.2a1.925,1.925,0,0,1-2,1.4A2.135,2.135,0,0,1,58,12.5v-.3a2.088,2.088,0,0,1,1.9-2.4h.3c1.3,0,2.1.9,2.1,2.4v.3H59v.1a1.164,1.164,0,0,0,1.1,1.3h.1a1.007,1.007,0,0,0,1.1-.6Zm-3.3-1.5h2.4a1.12,1.12,0,0,0-1-1.2h-.1a1.181,1.181,0,0,0-1.3,1.2Z" fill="#fff"/>
      <path id="Path_103" data-name="Path 103" d="M63.5,9.7h.9v.7h.1a1.226,1.226,0,0,1,1.4-.8A1.477,1.477,0,0,1,67.5,11v3.3h-.9V11.5c0-.8-.3-1.1-1-1.1a1.028,1.028,0,0,0-1.1,1v3h-.9Z" fill="#fff"/>
      <path id="Path_104" data-name="Path 104" d="M71.4,8.4A.6.6,0,1,1,72,9h0q-.6-.15-.6-.6Zm.1,1.3h.9v4.7h-.9Z" fill="#fff"/>
      <path id="Path_105" data-name="Path 105" d="M73.9,9.7h.9v.8h.1a1.471,1.471,0,0,1,1.9-.7,1.208,1.208,0,0,1,.7.7h.1A1.419,1.419,0,0,1,79,9.7,1.367,1.367,0,0,1,80.5,11v3.5h-.9v-3a.8.8,0,0,0-.9-.9.987.987,0,0,0-1,.9v3.1h-.9V11.5a.876.876,0,0,0-.8-.9h-.1a1,1,0,0,0-1,1h0v2.9H74Z" fill="#fff"/>
    </g>
  </g>
</svg>
