<svg xmlns="http://www.w3.org/2000/svg" xmlns:xlink="http://www.w3.org/1999/xlink" width="49.5" height="32.026" viewBox="0 0 49.5 32.026">
  <defs>
    <clipPath id="clip-path">
      <rect id="Rectangle_856" data-name="Rectangle 856" width="49.5" height="32.026" transform="translate(0 0)" fill="none" stroke="#617384" stroke-width="1"/>
    </clipPath>
  </defs>
  <g id="matching_bring_icon" transform="translate(0 0)" clip-path="url(#clip-path)">
    <path id="Path_792" data-name="Path 792" d="M1,13.974v4.737c0,1.561.331,2.842,1.895,2.842v9.474H8.579V21.553c1.562,0,1.893-1.282,1.895-2.842V13.974Z" fill="none" stroke="#617384" stroke-linejoin="round" stroke-width="2"/>
    <circle id="Ellipse_99" data-name="Ellipse 99" cx="2.842" cy="2.842" r="2.842" transform="translate(2.895 4.5)" fill="none" stroke="#617384" stroke-linejoin="round" stroke-width="2"/>
    <path id="Path_793" data-name="Path 793" d="M39.026,13.974v4.737c0,1.561.331,2.842,1.9,2.842v9.474H46.6V21.553c1.562,0,1.893-1.282,1.9-2.842V13.974Z" fill="none" stroke="#617384" stroke-linejoin="round" stroke-width="2"/>
    <circle id="Ellipse_100" data-name="Ellipse 100" cx="2.842" cy="2.842" r="2.842" transform="translate(40.921 4.502)" fill="none" stroke="#617384" stroke-linejoin="round" stroke-width="2"/>
    <line id="Line_355" data-name="Line 355" x2="9" transform="translate(15 5)" fill="none" stroke="#617384" stroke-linecap="round" stroke-linejoin="round" stroke-width="2"/>
    <line id="Line_356" data-name="Line 356" x2="9" transform="translate(26 10)" fill="none" stroke="#617384" stroke-linecap="round" stroke-linejoin="round" stroke-width="2"/>
    <path id="Path_794" data-name="Path 794" d="M19,9,15,5l4-4" fill="none" stroke="#617384" stroke-linecap="round" stroke-linejoin="round" stroke-width="2"/>
    <path id="Path_795" data-name="Path 795" d="M31,14l4-4L31,6" fill="none" stroke="#617384" stroke-linecap="round" stroke-linejoin="round" stroke-width="2"/>
  </g>
</svg>
