<svg id="Group_1693" data-name="Group 1693" xmlns="http://www.w3.org/2000/svg" xmlns:xlink="http://www.w3.org/1999/xlink" width="195.001" height="321.273" viewBox="0 0 195.001 321.273">
  <defs>
    <clipPath id="clip-path">
      <path id="Path_570" data-name="Path 570" d="M120.431,219.759a13.087,13.087,0,1,0,0,26.173h43.344a13.087,13.087,0,1,0,0-26.173Z" fill="none" stroke="rgba(0,0,0,0)" stroke-width="1"/>
    </clipPath>
    <linearGradient id="linear-gradient" x1="-1.544" y1="3.879" x2="-1.53" y2="3.879" gradientUnits="objectBoundingBox">
      <stop offset="0" stop-color="#fff"/>
      <stop offset="0.84" stop-color="#cddfec"/>
      <stop offset="1" stop-color="#cddfec"/>
    </linearGradient>
    <clipPath id="clip-path-2">
      <path id="Path_571" data-name="Path 571" d="M138.582,245.932v61.6a7.867,7.867,0,0,1-7.868,7.868h-5.922a4.025,4.025,0,0,0-4.025,4.025v1.848h42.7v-1.848a4.025,4.025,0,0,0-4.025-4.025h-5.97a7.868,7.868,0,0,1-7.89-7.868v-61.6Z" fill="none" stroke="rgba(0,0,0,0)" stroke-width="1"/>
    </clipPath>
    <linearGradient id="linear-gradient-2" x1="-2.828" y1="1" x2="-2.805" y2="1" xlink:href="#linear-gradient"/>
    <clipPath id="clip-path-3">
      <rect id="Rectangle_733" data-name="Rectangle 733" width="195.001" height="321.273" fill="none" stroke="rgba(0,0,0,0)" stroke-width="1"/>
    </clipPath>
    <clipPath id="clip-path-4">
      <path id="Path_575" data-name="Path 575" d="M81.932,67.062,77.4,76.931a10.735,10.735,0,0,0,1.4,11.271c6.622,8.12,22.757,21.2,56.07,16.674,70.511-9.6-11.522-38.157-11.522-38.157s-19.187,34.727-41.411.343" fill="none" stroke="rgba(0,0,0,0)" stroke-width="1"/>
    </clipPath>
    <linearGradient id="linear-gradient-3" x1="-0.59" y1="5.964" x2="-0.583" y2="5.964" gradientUnits="objectBoundingBox">
      <stop offset="0" stop-color="#40d3ba"/>
      <stop offset="0.35" stop-color="#34c5ac"/>
      <stop offset="1" stop-color="#15a189"/>
    </linearGradient>
    <clipPath id="clip-path-6">
      <path id="Path_578" data-name="Path 578" d="M114.979,23.186l-.155.643a7.12,7.12,0,0,0,2.884,1.177c1.652.181-.735,6.433-1.652,11.486-.455,2.52-1.281,3.256-1.994,3.367h.643a3.882,3.882,0,0,1,3.283,1.87,23.012,23.012,0,0,0,1.533,2.162c-.132-.335-3.941-9.925,2.051-15.126,6.1-5.292,10.752,15.9,8.911,19.208a3.292,3.292,0,0,1-4.76,1.273,19.684,19.684,0,0,0,4.746,1.947,2.917,2.917,0,0,1,.343.111c.61.162,1.26.308,1.96.434,4.69.827,4.41,6.252,4.41,6.252l13.762.02,2.254-8.1a19.926,19.926,0,0,1,.609-11.949,23.739,23.739,0,0,0,1.26-5.6L130.392,16.284l-11.585-1.4a22.835,22.835,0,0,0-3.828,8.3" fill="none" stroke="rgba(0,0,0,0)" stroke-width="1"/>
    </clipPath>
    <linearGradient id="linear-gradient-4" x1="-2.003" y1="5.934" x2="-1.984" y2="5.934" gradientUnits="objectBoundingBox">
      <stop offset="0" stop-color="#f78e6b"/>
      <stop offset="1" stop-color="#f9aa8f"/>
    </linearGradient>
    <clipPath id="clip-path-8">
      <path id="Path_582" data-name="Path 582" d="M107.376,140.925c.119-.063,29.7-16.8,40.7-1.869s-13.629,39.417-49.7,42.623a85,85,0,0,0-1.75,17.171c0,30.723,30.422,5.6,76.3,5.6,40.958.042,15.239-80.507-.364-121.079-.56-1.645-2.387-6.937-4.9-13.068-.371-1.023-.784-1.988-1.217-2.913l-.456-1.056-9.618-2.268Z" fill="none" stroke="rgba(0,0,0,0)" stroke-width="1"/>
    </clipPath>
    <linearGradient id="linear-gradient-5" x1="-0.356" y1="1.738" x2="-0.351" y2="1.738" xlink:href="#linear-gradient-3"/>
    <clipPath id="clip-path-10">
      <path id="Path_587" data-name="Path 587" d="M131.324,15.716c-.554,4.55-3.235,6.3-5.9,6.916,4.438.616,5.593,6.434,6.174,9.317a1.7,1.7,0,0,0,3.367-.21,7.269,7.269,0,0,1,5.04-6.755c5.88-1.96,7.546,7.742,3.675,13.727-2.542,3.928-.039,3.282,3.305,2.636,1.977-.382,4.248-.764,5.942-.2,1.141.378,4.06-6.376,4.9-14.511-1.288,7.273-8.162,6.342-8.049-4.5.07-6.872-6.893-11.455-12.3-11.456-3.126,0-5.731,1.531-6.159,5.036" fill="none" stroke="rgba(0,0,0,0)" stroke-width="1"/>
    </clipPath>
    <linearGradient id="linear-gradient-6" x1="-3.045" y1="7.931" x2="-3.02" y2="7.931" gradientUnits="objectBoundingBox">
      <stop offset="0" stop-color="#ffd087"/>
      <stop offset="0.76" stop-color="#ffc770"/>
      <stop offset="1" stop-color="#ffc770"/>
    </linearGradient>
  </defs>
  <g id="Group_1674" data-name="Group 1674">
    <g id="Group_1673" data-name="Group 1673" clip-path="url(#clip-path)">
      <rect id="Rectangle_731" data-name="Rectangle 731" width="69.524" height="26.173" transform="translate(107.341 219.759)" stroke="rgba(0,0,0,0)" stroke-width="1" fill="url(#linear-gradient)"/>
    </g>
  </g>
  <g id="Group_1676" data-name="Group 1676">
    <g id="Group_1675" data-name="Group 1675" clip-path="url(#clip-path-2)">
      <rect id="Rectangle_732" data-name="Rectangle 732" width="42.7" height="75.341" transform="translate(120.767 245.932)" stroke="rgba(0,0,0,0)" stroke-width="1" fill="url(#linear-gradient-2)"/>
    </g>
  </g>
  <g id="Group_1678" data-name="Group 1678">
    <g id="Group_1677" data-name="Group 1677" clip-path="url(#clip-path-3)">
      <path id="Path_572" data-name="Path 572" d="M49.192,28.835,2.943,54.371a5.7,5.7,0,0,0-2.2,7.805l24.5,43.071a5.7,5.7,0,0,0,7.868,2.1L78.529,80.355a5.7,5.7,0,0,0,2.044-7.7L56.892,31a5.7,5.7,0,0,0-7.7-2.17" fill="#1a305d" stroke="rgba(0,0,0,0)" stroke-width="1"/>
      <path id="Path_573" data-name="Path 573" d="M76.877,74s-6.839-8.505-3.71-17.353,3.773-.931,3.71,1.225S78,61.545,81.931,67.061s-3.556,9.905-3.556,9.905Z" fill="#f9aa8f" stroke="rgba(0,0,0,0)" stroke-width="1"/>
      <path id="Path_574" data-name="Path 574" d="M123.343,66.719s-19.187,34.727-41.412.343l-4.536,9.87a10.737,10.737,0,0,0,1.4,11.27c6.622,8.12,22.757,21.2,56.07,16.675,70.511-9.6-11.522-38.158-11.522-38.158" fill="#40d3ba" stroke="rgba(0,0,0,0)" stroke-width="1"/>
    </g>
  </g>
  <g id="Group_1680" data-name="Group 1680">
    <g id="Group_1679" data-name="Group 1679" clip-path="url(#clip-path-4)">
      <rect id="Rectangle_734" data-name="Rectangle 734" width="129.14" height="42.686" transform="translate(76.236 66.719)" stroke="rgba(0,0,0,0)" stroke-width="1" fill="url(#linear-gradient-3)"/>
    </g>
  </g>
  <g id="Group_1682" data-name="Group 1682">
    <g id="Group_1681" data-name="Group 1681" clip-path="url(#clip-path-3)">
      <line id="Line_117" data-name="Line 117" x1="15.918" y2="8.792" transform="translate(14.941 52.537)" fill="none" stroke="#345082" stroke-linecap="round" stroke-miterlimit="10" stroke-width="3"/>
      <line id="Line_118" data-name="Line 118" x1="15.918" y2="8.792" transform="translate(18.231 59.312)" fill="none" stroke="#345082" stroke-linecap="round" stroke-miterlimit="10" stroke-width="3"/>
      <line id="Line_119" data-name="Line 119" x1="15.925" y2="8.799" transform="translate(21.521 66.082)" fill="none" stroke="#345082" stroke-linecap="round" stroke-miterlimit="10" stroke-width="3"/>
      <path id="Path_576" data-name="Path 576" d="M37.068,103.811S35.4,96.363,30.194,97.4c-9.7,1.939-17-15.589-14.308,3.437C17.734,113.912,33,114.136,33,114.136Z" fill="#f9aa8f" stroke="rgba(0,0,0,0)" stroke-width="1"/>
      <path id="Path_577" data-name="Path 577" d="M154.192,52.655a19.313,19.313,0,0,1-.4-14.7,24.257,24.257,0,0,0,1.225-10.976c-1.4-12.362-11.676-21.329-22.876-20.034-8.54.987-15.169,7.665-17.206,16.261,0,0-4.053,16.541-1.253,16.667h.98a3.878,3.878,0,0,1,3.283,1.869,21.223,21.223,0,0,0,12.488,9.464,2.89,2.89,0,0,1,1.813,4.2c-1.358,2.282-3.311,3.5-2.9,5.817,3.612,20.454,30.968,11.9,34.125,2.24a26.47,26.47,0,0,1-9.282-10.808" fill="#f9aa8f" stroke="rgba(0,0,0,0)" stroke-width="1"/>
    </g>
  </g>
  <g id="Group_1684" data-name="Group 1684">
    <g id="Group_1683" data-name="Group 1683" clip-path="url(#clip-path-6)">
      <rect id="Rectangle_736" data-name="Rectangle 736" width="53.769" height="52.415" transform="translate(101.276 53.81) rotate(-71.817)" stroke="rgba(0,0,0,0)" stroke-width="1" fill="url(#linear-gradient-4)"/>
    </g>
  </g>
  <g id="Group_1686" data-name="Group 1686">
    <g id="Group_1685" data-name="Group 1685" clip-path="url(#clip-path-3)">
      <path id="Path_579" data-name="Path 579" d="M193.826,176.465S35,156.417,20.849,298.433l9.338-.07s27.818-58.464,89.782-66.731c32.382-4.319,34.006,5.334,73.857-55.167" fill="#5858a5" stroke="rgba(0,0,0,0)" stroke-width="1"/>
      <path id="Path_580" data-name="Path 580" d="M82.414,298.432h9.6c-2.87-8.925-13.188-41.447-17.682-61.467-3.654-16.289,106.8,18.284,119.5-52.325,0-.007-235.956-42.455-111.412,113.792" fill="#6161ad" stroke="rgba(0,0,0,0)" stroke-width="1"/>
      <path id="Path_581" data-name="Path 581" d="M172.567,83.372c-.56-1.645-2.387-6.937-4.9-13.069-.371-1.022-.784-1.988-1.218-2.912-4.683-10.927-11.116-22.974-16.177-21.511-16.044,4.725-22.533,14.287-23.478,15.813-.14.224-.28.441-.427.658-.455.7-.952,1.344-1.449,1.995-4.767,6.3-8.239,15.176-9.1,16.849,0,0,9.695-7.763,4.746,12.362-5.873,23.891-13.545,44.989-18.984,72.016-3.983,19.8-4.9,24.549-4.9,33.285,0,30.723,30.422,5.6,76.3,5.6,40.908.035,15.19-80.514-.413-121.086" fill="#40d3ba" stroke="rgba(0,0,0,0)" stroke-width="1"/>
    </g>
  </g>
  <g id="Group_1688" data-name="Group 1688">
    <g id="Group_1687" data-name="Group 1687" clip-path="url(#clip-path-8)">
      <rect id="Rectangle_738" data-name="Rectangle 738" width="181.316" height="140.907" transform="translate(71.924 225.799) rotate(-81.314)" stroke="rgba(0,0,0,0)" stroke-width="1" fill="url(#linear-gradient-5)"/>
    </g>
  </g>
  <g id="Group_1690" data-name="Group 1690">
    <g id="Group_1689" data-name="Group 1689" clip-path="url(#clip-path-3)">
      <path id="Path_583" data-name="Path 583" d="M116.567,79.725c-11.2,21.357-37.6,61.383-79.506,23.961l-6.72,7.637a6.3,6.3,0,0,0,.182,8.561C45.706,135.62,102.9,183.836,159.379,87.523c15.057-25.683-6.195-25.76-22.148-22.918a29.128,29.128,0,0,0-20.664,15.12" fill="#40d3ba" stroke="rgba(0,0,0,0)" stroke-width="1"/>
      <path id="Path_584" data-name="Path 584" d="M111.037,14.127a3.982,3.982,0,0,0,1.246,5.089c2.6,1.841,6.881,4.144,11.312,3.458,5.978-.931,7.364,6.041,8.015,9.3a1.7,1.7,0,0,0,3.36-.175,7.269,7.269,0,0,1,5.04-6.755c5.88-1.96,7.546,7.742,3.675,13.727-4.046,6.251,4.69.917,9.247,2.436,2.625.875,14.644-36.015-11.088-40.544-19.53-3.5-27.909,7.812-30.807,13.468" fill="#fdc781" stroke="rgba(0,0,0,0)" stroke-width="1"/>
      <path id="Path_585" data-name="Path 585" d="M20.849,298.432l-.7,17.136-9.31,5.705H27.261s.245-17.99,2.912-22.911" fill="#40d3ba" stroke="rgba(0,0,0,0)" stroke-width="1"/>
      <path id="Path_586" data-name="Path 586" d="M82.414,298.432,92.1,315.561l-5.754,5.712h13.72l-8.05-22.841" fill="#40d3ba" stroke="rgba(0,0,0,0)" stroke-width="1"/>
    </g>
  </g>
  <g id="Group_1692" data-name="Group 1692">
    <g id="Group_1691" data-name="Group 1691" clip-path="url(#clip-path-10)">
      <rect id="Rectangle_740" data-name="Rectangle 740" width="39.95" height="39.645" transform="translate(116.97 13.103) rotate(-15.982)" stroke="rgba(0,0,0,0)" stroke-width="1" fill="url(#linear-gradient-6)"/>
    </g>
  </g>
</svg>
