<svg xmlns="http://www.w3.org/2000/svg" xmlns:xlink="http://www.w3.org/1999/xlink" width="20" height="20" viewBox="0 0 20 20">
  <defs>
    <clipPath id="clip-path">
      <path id="Path_672" data-name="Path 672" d="M13.509,13.012a10,10,0,1,0,10-10,10,10,0,0,0-10,10" fill="none"/>
    </clipPath>
  </defs>
  <g id="Bosnisch-flage" transform="translate(0 0.245)">
    <g id="Group_1889" data-name="Group 1889" transform="translate(-13.509 -3.257)">
      <g id="Group_1889-2" data-name="Group 1889" clip-path="url(#clip-path)">
        <rect id="Rectangle_789" data-name="Rectangle 789" width="43.988" height="21.994" transform="translate(0 2.337)" fill="#002395"/>
        <path id="Path_664" data-name="Path 664" d="M11.657,2.337H33.651V24.331Z" fill="#fecb00"/>
        <path id="Path_665" data-name="Path 665" d="M13.2,8.386l1.228.892-.469-1.443,1.228-.893H13.665L13.2,5.5l-.469,1.444H11.209l1.228.892-.469,1.444Z" fill="#fff"/>
        <path id="Path_666" data-name="Path 666" d="M15.946,11.135l1.228.892L16.7,10.584l1.228-.893H16.415l-.469-1.444-.469,1.444H13.958l1.228.893-.469,1.443Z" fill="#fff"/>
        <path id="Path_667" data-name="Path 667" d="M18.695,13.884l1.228.892-.469-1.443,1.228-.893H19.164L18.695,11l-.469,1.444H16.708l1.228.892-.469,1.444Z" fill="#fff"/>
        <path id="Path_668" data-name="Path 668" d="M21.444,16.634l1.228.892L22.2,16.083l1.228-.893H21.913l-.469-1.444-.469,1.444H19.457l1.228.893-.469,1.443Z" fill="#fff"/>
        <path id="Path_669" data-name="Path 669" d="M24.193,19.383l1.228.892-.469-1.443,1.228-.893H24.662L24.193,16.5l-.469,1.443H22.206l1.228.893-.469,1.443Z" fill="#fff"/>
        <path id="Path_670" data-name="Path 670" d="M26.942,22.132l1.228.892L27.7,21.581l1.228-.893H27.411l-.469-1.444-.469,1.444H24.955l1.228.892-.469,1.444Z" fill="#fff"/>
        <path id="Path_671" data-name="Path 671" d="M30.451,24.33l1.228-.892H30.161l-.469-1.444-.469,1.444H27.7l1.228.892-.469,1.444,1.228-.893,1.228.893Z" fill="#fff"/>
      </g>
    </g>
    <g id="Ellipse_13" data-name="Ellipse 13" transform="translate(0 -0.245)" fill="none" stroke="#ecedee" stroke-width="1">
      <circle cx="10" cy="10" r="10" stroke="none"/>
      <circle cx="10" cy="10" r="9.5" fill="none"/>
    </g>
  </g>
</svg>
