<svg width="82" height="34" viewBox="0 0 82 34" fill="none" xmlns="http://www.w3.org/2000/svg">
<path d="M79.4376 10.8267V29.0675C79.4376 30.247 79.6286 31.0474 80.0108 31.4687C80.4154 31.8899 81.0785 32.1006 82 32.1006V32.9852C81.6179 32.9571 81.0335 32.9291 80.2468 32.901C79.4825 32.8448 78.707 32.8167 77.9203 32.8167C77.1561 32.8167 76.3806 32.8448 75.5939 32.901C74.8071 32.9291 74.2227 32.9571 73.8406 32.9852V32.1006C74.7622 32.1006 75.414 31.8899 75.7962 31.4687C76.2008 31.0474 76.4031 30.247 76.4031 29.0675V15.8818C76.4031 14.618 76.2232 13.6913 75.8636 13.1015C75.5039 12.4836 74.8296 12.1747 73.8406 12.1747V11.2901C74.5599 11.3743 75.2567 11.4164 75.931 11.4164C76.5829 11.4164 77.201 11.3743 77.7854 11.2901C78.3923 11.1777 78.943 11.0232 79.4376 10.8267Z" fill="#39393A"/>
<path d="M65.9894 10.7002C67.9674 10.7002 69.5072 11.4585 70.6086 12.975C71.7325 14.4635 72.2944 16.7945 72.2944 19.968H60.3924L60.3587 19.1676H69.0576C69.1026 17.7915 69.0126 16.5277 68.7879 15.3762C68.5631 14.1967 68.2034 13.2559 67.7089 12.5538C67.2369 11.8517 66.6188 11.5006 65.8545 11.5006C64.8205 11.5006 63.8989 12.1465 63.0897 13.4384C62.303 14.7303 61.831 16.7805 61.6736 19.5889L61.7748 19.7574C61.7298 20.1787 61.6961 20.6421 61.6736 21.1476C61.6512 21.6531 61.6399 22.1586 61.6399 22.6641C61.6399 24.5739 61.8872 26.2168 62.3817 27.593C62.8762 28.9691 63.5168 30.0223 64.3035 30.7524C65.1127 31.4546 65.9444 31.8056 66.7986 31.8056C67.8101 31.8056 68.7429 31.4967 69.5971 30.8788C70.4512 30.261 71.1705 29.1657 71.7549 27.593L72.4293 27.93C72.182 28.8568 71.7774 29.7554 71.2155 30.6261C70.6535 31.4967 69.9455 32.2128 69.0913 32.7745C68.2372 33.3081 67.2481 33.5749 66.1242 33.5749C64.5058 33.5749 63.1122 33.1115 61.9434 32.1847C60.797 31.258 59.9091 29.9801 59.2797 28.3512C58.6728 26.6943 58.3694 24.7986 58.3694 22.6641C58.3694 20.1927 58.6841 18.0723 59.3135 16.303C59.9428 14.5056 60.8307 13.1295 61.9771 12.1746C63.1235 11.1917 64.4609 10.7002 65.9894 10.7002Z" fill="#39393A"/>
<path d="M49.7626 10.7002C50.6618 10.7002 51.426 10.8827 52.0554 11.2478C52.6848 11.6129 53.1456 11.95 53.4378 12.2589C54.1795 13.0172 54.6291 12.5116 54.7864 10.7423H55.5619C55.517 11.5287 55.4833 12.4695 55.4608 13.5648C55.4383 14.632 55.4271 16.0784 55.4271 17.9038H54.6516C54.5167 16.8647 54.2807 15.8537 53.9435 14.8707C53.6288 13.8878 53.1568 13.0874 52.5274 12.4695C51.898 11.8236 51.0776 11.5006 50.0661 11.5006C49.2794 11.5006 48.6163 11.7814 48.0768 12.3431C47.5598 12.8767 47.3013 13.6771 47.3013 14.7443C47.3013 15.5869 47.5036 16.3171 47.9082 16.9349C48.3128 17.5247 48.8411 18.0864 49.4929 18.62C50.1448 19.1255 50.8528 19.6872 51.6171 20.3051C52.8983 21.3442 53.9885 22.3973 54.8876 23.4645C55.7867 24.5318 56.2363 25.936 56.2363 27.6772C56.2363 28.9691 55.9665 30.0503 55.4271 30.921C54.8876 31.7916 54.1795 32.4516 53.3029 32.9009C52.4488 33.3503 51.5047 33.5749 50.4707 33.5749C49.9762 33.5749 49.5042 33.5188 49.0546 33.4064C48.6275 33.3222 48.2117 33.1817 47.8071 32.9852C47.5823 32.8447 47.3463 32.6762 47.099 32.4796C46.8742 32.283 46.6495 32.0724 46.4247 31.8477C46.1999 31.6231 45.9976 31.6371 45.8178 31.8899C45.638 32.1145 45.5031 32.5779 45.4132 33.28H44.6377C44.6827 32.3813 44.7164 31.2861 44.7388 29.9942C44.7613 28.7023 44.7726 26.9891 44.7726 24.8547H45.548C45.7054 26.4275 45.9302 27.8036 46.2224 28.9831C46.5146 30.1627 46.9754 31.0895 47.6048 31.7635C48.2342 32.4094 49.1108 32.7324 50.2347 32.7324C50.909 32.7324 51.5721 32.4375 52.224 31.8477C52.8983 31.258 53.2355 30.2188 53.2355 28.7304C53.2355 27.4947 52.8758 26.4836 52.1565 25.6973C51.4372 24.9109 50.5269 24.0824 49.4255 23.2118C48.6163 22.5658 47.852 21.9199 47.1327 21.274C46.4359 20.628 45.8627 19.8978 45.4132 19.0834C44.9861 18.2689 44.7726 17.286 44.7726 16.1345C44.7726 14.8707 44.9973 13.8456 45.4469 13.0593C45.9189 12.2448 46.5371 11.6551 47.3013 11.29C48.0656 10.8968 48.886 10.7002 49.7626 10.7002Z" fill="#39393A"/>
<path d="M40.4578 10.8267V29.0675C40.4578 30.247 40.6489 31.0474 41.031 31.4687C41.4356 31.8899 42.0987 32.1006 43.0203 32.1006V32.9852C42.6382 32.9571 42.0538 32.9291 41.267 32.901C40.5028 32.8448 39.7273 32.8167 38.9406 32.8167C38.1763 32.8167 37.4008 32.8448 36.6141 32.901C35.8274 32.9291 35.243 32.9571 34.8608 32.9852V32.1006C35.7824 32.1006 36.4343 31.8899 36.8164 31.4687C37.221 31.0474 37.4233 30.247 37.4233 29.0675V15.8818C37.4233 14.618 37.2435 13.6913 36.8838 13.1015C36.5242 12.4836 35.8499 12.1747 34.8608 12.1747V11.2901C35.5801 11.3743 36.2769 11.4164 36.9513 11.4164C37.6031 11.4164 38.2213 11.3743 38.8057 11.2901C39.4126 11.1777 39.9633 11.0232 40.4578 10.8267Z" fill="#39393A"/>
<path d="M21.3441 0V15.7553C21.9285 13.8456 22.7377 12.5256 23.7717 11.7954C24.8281 11.0652 25.9295 10.7001 27.0759 10.7001C27.9301 10.7001 28.6381 10.8406 29.2001 11.1214C29.7845 11.4023 30.2678 11.7954 30.6499 12.301C31.077 12.8626 31.3804 13.5648 31.5602 14.4073C31.7401 15.2498 31.83 16.3872 31.83 17.8195V29.0673C31.83 30.2469 32.021 31.0473 32.4032 31.4686C32.8078 31.8898 33.4709 32.1004 34.3925 32.1004V32.9851C34.0103 32.957 33.4259 32.9289 32.6392 32.9009C31.8525 32.8447 31.0882 32.8166 30.3464 32.8166C29.6047 32.8166 28.8741 32.8447 28.1548 32.9009C27.458 32.9289 26.9298 32.957 26.5702 32.9851V32.1004C27.3794 32.1004 27.9525 31.8898 28.2897 31.4686C28.6269 31.0473 28.7955 30.2469 28.7955 29.0673V16.8928C28.7955 16.0221 28.7393 15.2217 28.6269 14.4915C28.5145 13.7613 28.256 13.1716 27.8514 12.7222C27.4693 12.2729 26.8736 12.0482 26.0644 12.0482C24.6933 12.0482 23.5581 12.7644 22.659 14.1967C21.7824 15.6009 21.3441 17.4264 21.3441 19.6731V29.0673C21.3441 30.2469 21.5126 31.0473 21.8498 31.4686C22.187 31.8898 22.7602 32.1004 23.5694 32.1004V32.9851C23.2097 32.957 22.6703 32.9289 21.951 32.9009C21.2541 32.8447 20.5349 32.8166 19.7931 32.8166C19.0513 32.8166 18.2871 32.8447 17.5003 32.9009C16.7136 32.9289 16.1292 32.957 15.7471 32.9851V32.1004C16.6687 32.1004 17.3205 31.8898 17.7026 31.4686C18.1072 31.0473 18.3095 30.2469 18.3095 29.0673V5.05519C18.3095 3.79139 18.1297 2.86461 17.7701 2.27484C17.4104 1.65698 16.7361 1.34805 15.7471 1.34805V0.463393C16.4664 0.547645 17.1632 0.589772 17.8375 0.589772C18.4894 0.589772 19.1075 0.547645 19.6919 0.463393C20.2988 0.351056 20.8495 0.196591 21.3441 0Z" fill="#39393A"/>
<path d="M6.50734 2.6958C7.63123 2.6958 8.48539 2.86431 9.06981 3.20132C9.65424 3.51025 10.1712 3.8613 10.6208 4.25448C10.8905 4.45108 11.1041 4.60554 11.2614 4.71788C11.4412 4.80213 11.6098 4.84426 11.7672 4.84426C12.1268 4.84426 12.3741 4.2264 12.5089 2.99069H13.2844C13.2619 3.46812 13.2282 4.04385 13.1833 4.71788C13.1608 5.36382 13.1383 6.23443 13.1158 7.32972C13.1158 8.39693 13.1158 9.81519 13.1158 11.5845H12.3403C12.2729 10.2365 12.0369 8.94458 11.6323 7.70886C11.2277 6.47315 10.632 5.46211 9.8453 4.67575C9.08105 3.88939 8.06955 3.49621 6.81079 3.49621C5.61946 3.49621 4.63044 3.94556 3.84371 4.84426C3.07947 5.74296 2.69734 6.9225 2.69734 8.38289C2.69734 9.64669 2.95584 10.7139 3.47283 11.5845C3.98982 12.427 4.67539 13.1994 5.52955 13.9015C6.40619 14.5755 7.35026 15.3057 8.36176 16.0921C9.53061 16.9908 10.5646 17.8895 11.4637 18.7882C12.3853 19.6588 13.1046 20.6277 13.6216 21.6949C14.161 22.7621 14.4308 24.054 14.4308 25.5705C14.4308 27.3679 14.1049 28.8564 13.453 30.0359C12.8011 31.2155 11.9357 32.1002 10.8568 32.6899C9.77787 33.2797 8.58654 33.5746 7.28283 33.5746C6.0915 33.5746 5.14743 33.4061 4.45062 33.0691C3.7538 32.732 3.15814 32.381 2.66363 32.0159C2.16911 31.6227 1.78699 31.4261 1.51726 31.4261C1.15761 31.4261 0.910353 32.044 0.775486 33.2797H0C0.0449558 32.6899 0.0674336 32.0019 0.0674336 31.2155C0.0899113 30.401 0.10115 29.3479 0.10115 28.056C0.123628 26.7641 0.134867 25.1352 0.134867 23.1693H0.910353C1.00026 24.8544 1.24752 26.4271 1.65212 27.8875C2.0792 29.3479 2.71982 30.5274 3.57398 31.4261C4.45062 32.2967 5.60823 32.7321 7.04681 32.7321C8.14822 32.7321 9.14849 32.2967 10.0476 31.4261C10.9692 30.5274 11.43 29.0951 11.43 27.1292C11.43 25.4161 10.9467 23.9978 9.98017 22.8744C9.01362 21.7511 7.74362 20.5996 6.17017 19.4201C5.11371 18.6056 4.12469 17.7771 3.20309 16.9346C2.2815 16.0921 1.53973 15.1231 0.977787 14.0279C0.438318 12.9045 0.168584 11.5564 0.168584 9.9837C0.168584 8.32672 0.460796 6.96463 1.04522 5.89742C1.65212 4.80213 2.43885 4.00172 3.4054 3.49621C4.37194 2.9626 5.40592 2.6958 6.50734 2.6958Z" fill="#39393A"/>
<path d="M40.6655 3.56565C40.3443 3.18855 39.964 3 39.5245 3C39.085 3 38.7046 3.18855 38.3835 3.56565C38.0623 3.94275 37.7317 4.43782 37.7317 4.95385C37.7168 5.44337 36.7438 7.05725 37.065 7.43435C37.3862 7.81145 37.7665 8 38.206 8C38.6455 8 39.0258 7.81145 39.347 7.43435C39.5151 7.23696 39.9549 6.68743 40.3598 6.13828C40.9381 5.35376 41.2998 4.31039 40.6655 3.56565Z" fill="#39393A"/>
<path d="M79.6655 3.56565C79.3443 3.18855 78.964 3 78.5245 3C78.085 3 77.7046 3.18855 77.3835 3.56565C77.0623 3.94275 76.7317 4.43782 76.7317 4.95385C76.7168 5.44337 75.7438 7.05725 76.065 7.43435C76.3862 7.81145 76.7665 8 77.206 8C77.6455 8 78.0258 7.81145 78.347 7.43435C78.5151 7.23696 78.9549 6.68743 79.3598 6.13828C79.9381 5.35376 80.2998 4.31039 79.6655 3.56565Z" fill="#39393A"/>
</svg>
