<svg width="1395" height="2293" viewBox="0 0 1395 2293" fill="none" xmlns="http://www.w3.org/2000/svg">
<path d="M163.206 1.92969C168.545 16.6122 193.145 29.7823 204.597 38.053C252.172 72.4126 307.527 86.6044 364.894 95.7499C434.249 106.807 504.502 110.401 573.356 125.1C649.316 141.316 694.911 168.165 732.649 235.728C797.593 351.997 885.857 446.358 1013.61 494.109C1048.58 507.182 1105.31 528.037 1135.52 495.113C1137.56 492.892 1156.71 467.407 1150.07 463.505C1134.42 454.294 1094.98 463.193 1084.1 476.8C1059.71 507.285 1055.91 559.486 1051.24 595.957C1040.72 678.088 1043.49 761.731 1050.48 844.054C1056.56 915.617 1075.25 990.484 1000.06 1030.94C860.616 1105.98 679.141 1110.74 559.057 1221.09C546.612 1232.53 533.834 1245.74 526.947 1261.48C520.54 1276.12 494.256 1276.1 480.79 1280.29C455.521 1288.17 421.546 1290.6 399.512 1302.62C317.294 1347.47 225.667 1391.76 155.178 1453.38C93.2523 1507.52 20.4516 1564.87 6.16985 1650.56C-3.04578 1705.85 2.17937 1772.96 31.5063 1821.64C88.1887 1915.72 214.736 1923.54 312.967 1925.24C330.932 1925.56 368.257 1918.82 382.956 1933.52C410.317 1960.88 429.388 1995.45 460.972 2018.81C531.024 2070.62 621.629 2106.11 709.571 2106.11C723.349 2106.11 734.231 2121.95 743.687 2130.19C758.423 2143.04 774.992 2153.49 790.848 2164.81C849.399 2212.21 993.202 2303.4 1100 2289C1206.8 2274.6 1342.5 2177.13 1397 2130.19" stroke="#3B5763" stroke-width="3" stroke-linecap="round"/>
</svg>
