<svg width="219" height="90" viewBox="0 0 219 90" fill="none" xmlns="http://www.w3.org/2000/svg">
<path d="M212.155 28.916V77.633C212.155 80.7833 212.665 82.921 213.686 84.0461C214.766 85.1712 216.537 85.7337 218.999 85.7337V88.0964C217.978 88.0214 216.417 87.9464 214.316 87.8714C212.275 87.7214 210.204 87.6464 208.103 87.6464C206.061 87.6464 203.99 87.7214 201.889 87.8714C199.788 87.9464 198.227 88.0214 197.206 88.0964V85.7337C199.668 85.7337 201.409 85.1712 202.429 84.0461C203.51 82.921 204.05 80.7833 204.05 77.633V42.4172C204.05 39.0419 203.57 36.5667 202.609 34.9916C201.649 33.3414 199.848 32.5163 197.206 32.5163V30.1536C199.128 30.3786 200.989 30.4912 202.79 30.4912C204.531 30.4912 206.181 30.3786 207.742 30.1536C209.363 29.8536 210.834 29.4411 212.155 28.916Z" fill="white"/>
<path d="M176.239 28.5752C181.522 28.5752 185.634 30.6004 188.576 34.6508C191.577 38.6261 193.078 44.8517 193.078 53.3275H161.291L161.2 51.1898H184.433C184.553 47.5144 184.313 44.1391 183.713 41.0638C183.113 37.9136 182.152 35.4008 180.831 33.5257C179.571 31.6505 177.92 30.7129 175.879 30.7129C173.117 30.7129 170.656 32.4381 168.494 35.8884C166.393 39.3387 165.133 44.8142 164.712 52.3149L164.983 52.7649C164.862 53.89 164.772 55.1276 164.712 56.4778C164.652 57.8279 164.622 59.178 164.622 60.5281C164.622 65.6286 165.283 70.0165 166.603 73.6918C167.924 77.3672 169.635 80.1799 171.736 82.1301C173.897 84.0053 176.119 84.9429 178.4 84.9429C181.101 84.9429 183.593 84.1178 185.874 82.4676C188.155 80.8175 190.076 77.8922 191.637 73.6918L193.438 74.5919C192.778 77.0671 191.697 79.4674 190.196 81.7926C188.696 84.1178 186.805 86.0305 184.523 87.5306C182.242 88.9557 179.601 89.6683 176.599 89.6683C172.277 89.6683 168.555 88.4307 165.433 85.9555C162.371 83.4802 160 80.0674 158.319 75.717C156.698 71.2916 155.888 66.2286 155.888 60.5281C155.888 53.9275 156.728 48.2645 158.409 43.5391C160.09 38.7386 162.461 35.0633 165.523 32.5131C168.585 29.8878 172.156 28.5752 176.239 28.5752Z" fill="white"/>
<path d="M132.904 28.5752C135.305 28.5752 137.346 29.0627 139.027 30.0378C140.708 31.0129 141.939 31.913 142.719 32.7381C144.7 34.7633 145.901 33.4131 146.321 28.6877H148.392C148.272 30.7879 148.182 33.3006 148.122 36.2259C148.062 39.0762 148.032 42.939 148.032 47.8145H145.961C145.601 45.0392 144.971 42.339 144.07 39.7137C143.23 37.0885 141.969 34.9508 140.288 33.3006C138.607 31.5755 136.416 30.7129 133.714 30.7129C131.613 30.7129 129.842 31.463 128.401 32.9631C127.021 34.3882 126.33 36.5259 126.33 39.3762C126.33 41.6264 126.871 43.5766 127.951 45.2267C129.032 46.8019 130.443 48.302 132.183 49.7271C133.924 51.0773 135.815 52.5774 137.857 54.2275C141.278 57.0028 144.19 59.8156 146.591 62.6658C148.993 65.5161 150.193 69.2664 150.193 73.9169C150.193 77.3672 149.473 80.2549 148.032 82.5802C146.591 84.9054 144.7 86.668 142.359 87.8681C140.078 89.0682 137.556 89.6683 134.795 89.6683C133.474 89.6683 132.213 89.5183 131.013 89.2183C129.872 88.9932 128.762 88.6182 127.681 88.0932C127.081 87.7181 126.45 87.2681 125.79 86.743C125.19 86.218 124.589 85.6554 123.989 85.0554C123.389 84.4553 122.848 84.4928 122.368 85.1679C121.888 85.7679 121.528 87.0056 121.287 88.8807H119.216C119.336 86.4805 119.426 83.5552 119.486 80.1049C119.546 76.6546 119.577 72.0792 119.577 66.3787H121.648C122.068 70.579 122.668 74.2544 123.449 77.4047C124.229 80.555 125.46 83.0302 127.141 84.8303C128.822 86.5555 131.163 87.4181 134.165 87.4181C135.966 87.4181 137.737 86.6305 139.477 85.0554C141.278 83.4802 142.179 80.705 142.179 76.7296C142.179 73.4293 141.218 70.7291 139.297 68.6289C137.376 66.5287 134.945 64.316 132.003 61.9908C129.842 60.2656 127.801 58.5404 125.88 56.8153C124.019 55.0901 122.488 53.1399 121.287 50.9647C120.147 48.7895 119.577 46.1643 119.577 43.089C119.577 39.7137 120.177 36.976 121.378 34.8758C122.638 32.7006 124.289 31.1254 126.33 30.1503C128.371 29.1002 130.563 28.5752 132.904 28.5752Z" fill="white"/>
<path d="M108.054 28.916V77.633C108.054 80.7833 108.565 82.921 109.585 84.0461C110.666 85.1712 112.437 85.7337 114.898 85.7337V88.0964C113.877 88.0214 112.317 87.9464 110.215 87.8714C108.174 87.7214 106.103 87.6464 104.002 87.6464C101.961 87.6464 99.8898 87.7214 97.7886 87.8714C95.6874 87.9464 94.1266 88.0214 93.106 88.0964V85.7337C95.5674 85.7337 97.3083 85.1712 98.3289 84.0461C99.4095 82.921 99.9498 80.7833 99.9498 77.633V42.4172C99.9498 39.0419 99.4695 36.5667 98.509 34.9916C97.5485 33.3414 95.7475 32.5163 93.106 32.5163V30.1536C95.0271 30.3786 96.8881 30.4912 98.6891 30.4912C100.43 30.4912 102.081 30.3786 103.642 30.1536C105.263 29.8536 106.734 29.4411 108.054 28.916Z" fill="white"/>
<path d="M57.0064 0V42.0789C58.5672 36.9784 60.7284 33.4531 63.4899 31.5029C66.3115 29.5527 69.2531 28.5776 72.3148 28.5776C74.5961 28.5776 76.4871 28.9527 77.9879 29.7027C79.5488 30.4528 80.8395 31.5029 81.8601 32.853C83.0007 34.3532 83.8112 36.2283 84.2914 38.4785C84.7717 40.7287 85.0118 43.7665 85.0118 47.5919V77.6321C85.0118 80.7824 85.5221 82.9201 86.5427 84.0452C87.6233 85.1703 89.3942 85.7329 91.8556 85.7329V88.0956C90.835 88.0206 89.2742 87.9456 87.173 87.8706C85.0719 87.7205 83.0307 87.6455 81.0496 87.6455C79.0685 87.6455 77.1175 87.7205 75.1964 87.8706C73.3354 87.9456 71.9246 88.0206 70.9641 88.0956V85.7329C73.1253 85.7329 74.6561 85.1703 75.5566 84.0452C76.4571 82.9201 76.9073 80.7824 76.9073 77.6321V45.1166C76.9073 42.7914 76.7573 40.6537 76.4571 38.7035C76.1569 36.7534 75.4665 35.1782 74.3859 33.9781C73.3654 32.778 71.7745 32.178 69.6133 32.178C65.9513 32.178 62.9196 34.0906 60.5183 37.916C58.177 41.6663 57.0064 46.5418 57.0064 52.5423V77.6321C57.0064 80.7824 57.4566 82.9201 58.3571 84.0452C59.2576 85.1703 60.7884 85.7329 62.9496 85.7329V88.0956C61.9891 88.0206 60.5483 87.9456 58.6273 87.8706C56.7662 87.7205 54.8452 87.6455 52.8641 87.6455C50.883 87.6455 48.8419 87.7205 46.7407 87.8706C44.6395 87.9456 43.0787 88.0206 42.0581 88.0956V85.7329C44.5195 85.7329 46.2604 85.1703 47.281 84.0452C48.3616 82.9201 48.9019 80.7824 48.9019 77.6321V13.5012C48.9019 10.1259 48.4216 7.6507 47.4611 6.07556C46.5006 4.42541 44.6996 3.60033 42.0581 3.60033V1.23762C43.9792 1.46263 45.8402 1.57514 47.6412 1.57514C49.3821 1.57514 51.0331 1.46263 52.5939 1.23762C54.2148 0.937588 55.6856 0.52505 57.0064 0Z" fill="white"/>
<path d="M17.3796 7.2002C20.3813 7.2002 22.6625 7.65024 24.2234 8.55032C25.7842 9.3754 27.165 10.313 28.3657 11.3631C29.0861 11.8881 29.6564 12.3007 30.0766 12.6007C30.5569 12.8257 31.0071 12.9382 31.4274 12.9382C32.3879 12.9382 33.0482 11.2881 33.4084 7.98777H35.4796C35.4196 9.26289 35.3295 10.8005 35.2094 12.6007C35.1494 14.3259 35.0894 16.6511 35.0293 19.5763C35.0293 22.4266 35.0293 26.2144 35.0293 30.9399H32.9582C32.7781 27.3395 32.1477 23.8892 31.0672 20.5889C29.9866 17.2886 28.3957 14.5884 26.2945 12.4882C24.2534 10.388 21.5519 9.33789 18.19 9.33789C15.0083 9.33789 12.3668 10.538 10.2657 12.9382C8.22454 15.3384 7.20398 18.4887 7.20398 22.3891C7.20398 25.7644 7.89436 28.6147 9.27512 30.9399C10.6559 33.1901 12.4869 35.2528 14.7682 37.1279C17.1094 38.9281 19.6308 40.8783 22.3323 42.9785C25.4541 45.3787 28.2156 47.7789 30.6169 50.1791C33.0783 52.5044 34.9993 55.0921 36.3801 57.9423C37.8209 60.7926 38.5413 64.2429 38.5413 68.2933C38.5413 73.0937 37.6708 77.0691 35.9298 80.2194C34.1889 83.3697 31.8776 85.7324 28.996 87.3076C26.1144 88.8827 22.9327 89.6703 19.4507 89.6703C16.269 89.6703 13.7476 89.2202 11.8866 88.3201C10.0255 87.4201 8.43466 86.4825 7.11393 85.5074C5.7932 84.4573 4.77263 83.9322 4.05224 83.9322C3.09171 83.9322 2.43134 85.5824 2.07114 88.8827H0C0.120067 87.3075 0.180099 85.4699 0.180099 83.3697C0.240132 81.1945 0.270149 78.3817 0.270149 74.9314C0.330182 71.4811 0.360199 67.1307 0.360199 61.8802H2.43134C2.67148 66.3806 3.33184 70.581 4.41244 74.4814C5.55307 78.3817 7.26401 81.532 9.54527 83.9322C11.8866 86.2575 14.9783 87.4201 18.8204 87.4201C21.762 87.4201 24.4335 86.2575 26.8348 83.9322C29.2962 81.532 30.5269 77.7067 30.5269 72.4562C30.5269 67.8808 29.2361 64.0929 26.6547 61.0926C24.0733 58.0924 20.6814 55.0171 16.4791 51.8668C13.6575 49.6916 11.0161 47.4789 8.55472 45.2287C6.09336 42.9785 4.11227 40.3907 2.61144 37.4655C1.17065 34.4652 0.450249 30.8649 0.450249 26.6645C0.450249 22.2391 1.23068 18.6012 2.79154 15.751C4.41244 12.8257 6.5136 10.688 9.09502 9.33789C11.6764 7.91276 14.438 7.2002 17.3796 7.2002Z" fill="white"/>
<path d="M108.608 9.52342C107.75 8.51627 106.734 8.0127 105.56 8.0127C104.386 8.0127 103.371 8.51627 102.513 9.52342C101.655 10.5306 100.772 11.8528 100.772 13.231C100.732 14.5384 98.1338 18.8487 98.9915 19.8558C99.8493 20.863 100.865 21.3665 102.039 21.3665C103.213 21.3665 104.228 20.863 105.086 19.8558C105.535 19.3286 106.71 17.861 107.791 16.3943C109.336 14.2991 110.302 11.5124 108.608 9.52342Z" fill="white"/>
<path d="M212.774 9.52342C211.916 8.51627 210.9 8.0127 209.727 8.0127C208.553 8.0127 207.537 8.51627 206.679 9.52342C205.821 10.5306 204.938 11.8528 204.938 13.231C204.899 14.5384 202.3 18.8487 203.158 19.8558C204.016 20.863 205.031 21.3665 206.205 21.3665C207.379 21.3665 208.395 20.863 209.253 19.8558C209.702 19.3286 210.876 17.861 211.957 16.3943C213.502 14.2991 214.468 11.5124 212.774 9.52342Z" fill="white"/>
</svg>
