<svg xmlns="http://www.w3.org/2000/svg" xmlns:xlink="http://www.w3.org/1999/xlink" width="19.629" height="13.343" viewBox="0 0 19.629 13.343">
  <defs>
    <clipPath id="clip-path">
      <rect id="Rectangle_263" data-name="Rectangle 263" width="19.629" height="13.343" fill="#005ca9"/>
    </clipPath>
  </defs>
  <g id="our-chect-icon" clip-path="url(#clip-path)">
    <path id="Path_523" data-name="Path 523" d="M10.567,7.164A2.859,2.859,0,1,1,7.707,4.3h0a2.859,2.859,0,0,1,2.859,2.859" transform="translate(-2.599 -2.308)" fill="#005ca9"/>
    <path id="Path_524" data-name="Path 524" d="M0,22.951a5.031,5.031,0,0,1,10.061,0" transform="translate(0 -9.607)" fill="#005ca9"/>
    <path id="Path_525" data-name="Path 525" d="M25.632,0c-2.782,0-5.038,1.652-5.038,3.689a3.328,3.328,0,0,0,1.617,2.7c0,.094,0,.192,0,.295,0,.652-.616,1.212-1.5,1.471a3.956,3.956,0,0,0,1.107.155,2.84,2.84,0,0,0,2.454-1.074,6.759,6.759,0,0,0,1.361.14c2.782,0,5.038-1.652,5.038-3.689S28.414,0,25.632,0" transform="translate(-11.041 0)" fill="#005ca9"/>
  </g>
</svg>
