<svg xmlns="http://www.w3.org/2000/svg" xmlns:xlink="http://www.w3.org/1999/xlink" width="24.361" height="28.061" viewBox="0 0 24.361 28.061">
  <defs>
    <clipPath id="clip-path">
      <rect id="Rectangle_608" data-name="Rectangle 608" width="24.361" height="28.061" fill="none"/>
    </clipPath>
  </defs>
  <g id="salzburg-fleg" clip-path="url(#clip-path)">
    <path id="Path_1142" data-name="Path 1142" d="M1.247,1.01H13V28.285c-6.54,0-11.753-5.406-11.753-11.269Z" transform="translate(-0.753 -0.61)" fill="#f9af00"/>
    <path id="Path_1143" data-name="Path 1143" d="M43.1,42.431c0,5.02-5.116,10.874-11.375,10.874V42.431Z" transform="translate(-19.16 -25.629)" fill="#b90017"/>
    <rect id="Rectangle_606" data-name="Rectangle 606" width="11.375" height="8.168" transform="translate(12.56 8.631)" fill="#fff"/>
    <rect id="Rectangle_607" data-name="Rectangle 607" width="11.375" height="8.221" transform="translate(12.56 0.4)" fill="#b90017"/>
    <path id="Path_1144" data-name="Path 1144" d="M23.216,47.27c.207-.285-.178-.424-.377-.5-.055-.345.609-.7.126-.88-.229-.106-.287-.383-.251-.754a.949.949,0,0,0,0,.754c.015.11.108.143.251.126.011.221-.212.207-.251.377-.055.156-.123.487,0,.628-.01.136.223.029.314.063-.031.179-.2.222-.377.251v.88c.084-.063.234-.059.251-.188v-.44a.886.886,0,0,0,.314-.314" transform="translate(-13.672 -27.262)" fill="#f9af00"/>
    <path id="Path_1145" data-name="Path 1145" d="M16.447,30.257c.636-.271.453-1.4.188-1.948-.061,0-.049.077-.063.126-.1-.01-.1.388,0,.377v.565a.888.888,0,0,1-.377.44c-.089.015-.106.1-.188.126a1.278,1.278,0,0,0,.377.377c.038,0,.074-.009.063-.063" transform="translate(-9.669 -17.099)" fill="#f9af00"/>
    <path id="Path_1146" data-name="Path 1146" d="M11.156,19.58a.886.886,0,0,0,.314.314c.012.051.063.063.063.126a2.887,2.887,0,0,0,.314-.565c.272,0,.682.465.817.188v-.314a.41.41,0,0,0,.063-.314c.138-.139.209.11.377.126a.318.318,0,0,0,.188-.188c.124-.044.167-.167.188-.314.037-.111.335-.529.063-.377a1.277,1.277,0,0,0-.377.377.3.3,0,0,0-.063.188c-.168-.041-.239-.18-.377-.251a1.2,1.2,0,0,0-.377.817c-.2.03-.166-.169-.314-.188-.053.011-.059-.025-.063-.063-.125.063-.268.108-.314.251-.166-.019-.049.244-.251.188-.22-.587-.689.108-1.006.188-.108-.145-.24-.594-.44-.44.188.042-.06.134,0,.251a1.747,1.747,0,0,1,.314.628c.382-.121.555-.451.88-.628" transform="translate(-6.011 -11.01)" fill="#f9af00"/>
    <path id="Path_1147" data-name="Path 1147" d="M25.893,52.3a.148.148,0,0,0,.251.126.884.884,0,0,0,.314-.314c.043-.146.209-.168.251-.314a1.692,1.692,0,0,0-.754.188c-.123-.03-.2.288-.063.314" transform="translate(-15.595 -31.287)" fill="#f9af00"/>
    <path id="Path_1148" data-name="Path 1148" d="M16.378,25.086c-.125-.283-.364-1.088-.628-.817-.17-.045.045.3-.126.251-.076-.426-.306-.7-.377-1.131a1.4,1.4,0,0,0-.377.628c-.809-.075-1.022.445-1.257.943-.223-.05-.23-.315-.44-.377-.2.029-.222.24-.44.251a.66.66,0,0,0-.314-.754c-.148.395.3.764-.063,1.131.354.247.635-.118.817-.251a2.722,2.722,0,0,1,.126.628c.687-.217.657-1.475,1.571-1.257a.442.442,0,0,0,.251-.377,1.439,1.439,0,0,1,.377.817.171.171,0,0,0,.188-.126c-.029-.134.09-.12.188-.126a1.892,1.892,0,0,0,.314.628,1.277,1.277,0,0,0,.377.377c.125,0,.08.171.251.126,0-.08.08-.087.063-.188h-.063c-.162-.11-.271-.273-.44-.377" transform="translate(-7.463 -14.128)" fill="#f9af00"/>
    <path id="Path_1149" data-name="Path 1149" d="M19.555,10.909c-.014-.049-.053-.073-.126-.063a2.442,2.442,0,0,0-.566,1.508,1.755,1.755,0,0,0,.691-1.445" transform="translate(-11.394 -6.55)" fill="#f9af00"/>
    <path id="Path_1150" data-name="Path 1150" d="M8.159,31.688c-.269.046-.133.333.063.126.431-.1.389-.758.565-1.131.137-.29.537-.467.377-.629-.762.118-.6,1.159-1.005,1.634" transform="translate(-4.838 -18.153)" fill="#f9af00"/>
    <path id="Path_1151" data-name="Path 1151" d="M6.441,23.829c-.11.036-.369-.076-.377.063H5.876c-.183,0-.254.845-.126.565A2.773,2.773,0,0,0,6,24.143c.387-.095.952-.012,1.005-.44-.25-.02-.316.145-.565.126" transform="translate(-3.434 -14.317)" fill="#f9af00"/>
    <path id="Path_1152" data-name="Path 1152" d="M22.637,5.861c-.087.08-.038.3-.126.377.187,0,.213-.163.377-.188a.941.941,0,0,0-.251-.754,7.072,7.072,0,0,0-.44.754c.2-.012.17-.249.44-.188" transform="translate(-13.408 -3.199)" fill="#f9af00"/>
    <path id="Path_1153" data-name="Path 1153" d="M7.913,10.215a2.558,2.558,0,0,0,.754,1.7,3.072,3.072,0,0,0-.754-1.7" transform="translate(-4.78 -6.17)" fill="#f9af00"/>
    <path id="Path_1154" data-name="Path 1154" d="M11.808,42.008h-.188a2.3,2.3,0,0,0-.377.691c-.12-.027-.158-.135-.314-.126.042.461.366.639.817.691.052-.177-.088-.163-.063-.314v-.314c.216-.245.6-.324.691-.691h-.188c-.11.036-.369-.076-.377.063" transform="translate(-6.601 -25.33)" fill="#f9af00"/>
    <path id="Path_1155" data-name="Path 1155" d="M16.166,41.538c.623.057.805-.326,1.005-.691a1.5,1.5,0,0,0-1.005.691" transform="translate(-9.765 -24.673)" fill="#f9af00"/>
    <path id="Path_1156" data-name="Path 1156" d="M21.142,19.068c.011-.182-.212-.346-.251-.126h-.44c.057.242.32.4.5.188.154.16.068.561.251.691a1.215,1.215,0,0,0,.754-.126c.157-.044-.116-.167-.063-.314-.279.35-.725.1-.754-.314" transform="translate(-12.353 -11.377)" fill="#f9af00"/>
    <path id="Path_1157" data-name="Path 1157" d="M25.708,43.685a3.039,3.039,0,0,0,.188-.817c.139,0,.074-.649-.063-.377-.372.106-.429.961-.126,1.194" transform="translate(-15.41 -25.625)" fill="#f9af00"/>
    <path id="Path_1158" data-name="Path 1158" d="M18.7,36.909c.114.472.188.985.628,1.131H19.4c.015-.09.1-.106.126-.188a2.028,2.028,0,0,0-.691-1.131c-.015.089-.1.106-.126.188" transform="translate(-11.298 -22.181)" fill="#f9af00"/>
    <path id="Path_1159" data-name="Path 1159" d="M15.431,5.07c0,.061.077.049.126.063-.028.1.343.1.314,0,.113.008.133-.077.251-.063.011.2-.148.3.126.314s.162-.221.063-.314c-.011-.053.025-.059.063-.063.141.069.11.308.251.377-.324.308-.682-.061-1.069-.063h-.063c.041.231.232.313.377.44a.171.171,0,0,0-.126-.188c.264-.054.786.147,1.131-.063a1.615,1.615,0,0,0-.44-.565c.01-.1-.387-.1-.377,0-.148.02-.236.1-.44.063a.3.3,0,0,1-.063-.188.3.3,0,0,0-.188.063c-.005.089-.01.178.063.188" transform="translate(-9.281 -2.911)" fill="#f9af00"/>
    <path id="Path_1160" data-name="Path 1160" d="M11.771,49.918c-.273.119.319.212.314.063a1.342,1.342,0,0,0,.251-.88,1.26,1.26,0,0,0-.565.817" transform="translate(-7.067 -29.658)" fill="#f9af00"/>
    <path id="Path_1161" data-name="Path 1161" d="M11.373,53.54c-.02.085-.089.12-.063.251-.086.08-.1.308.063.314.014-.049.053-.073.126-.063V53.6c-.014-.049-.052-.073-.126-.063" transform="translate(-6.794 -32.338)" fill="#f9af00"/>
    <path id="Path_1162" data-name="Path 1162" d="M22.692,7.927c-.049.139-.22.157-.314.251-.11.057-.218.117-.188.314.084.082.234.083.251-.063.051-.012.063-.063.126-.063a1.281,1.281,0,0,0,.377-.377V7.8c-.014-.049,0-.124-.063-.126a1.085,1.085,0,0,0-.188.251" transform="translate(-13.4 -4.637)" fill="#f9af00"/>
    <path id="Path_1163" data-name="Path 1163" d="M6.475,3.708a.47.47,0,0,1,.44.5c-.148,0-.185.108-.377.063a1.354,1.354,0,0,1-.063-.565" transform="translate(-3.907 -2.24)" fill="#b90017"/>
    <path id="Path_1164" data-name="Path 1164" d="M3.079,5.106a.889.889,0,0,1-.314.314c-.274-.041-.3-.327-.565-.377.213-.3.665-.135.88.063" transform="translate(-1.328 -2.947)" fill="#b90017"/>
    <path id="Path_1165" data-name="Path 1165" d="M10.862,7.984c.246-.058.046.331.188.377.33.759,2.246-.067,2.388.88-.7-.692-2.807.461-2.828-1.068a1.066,1.066,0,0,0,.251-.188" transform="translate(-6.409 -4.819)" fill="#b90017"/>
    <path id="Path_1166" data-name="Path 1166" d="M3.175,9.845c-.215.3-.674.144-.817-.126a.571.571,0,0,1,.817.126" transform="translate(-1.424 -5.8)" fill="#b90017"/>
    <path id="Path_1167" data-name="Path 1167" d="M4.636,12.694c-.073.31-.588.191-.691,0,.261-.139.491-.237.691,0" transform="translate(-2.383 -7.581)" fill="#b90017"/>
    <path id="Path_1168" data-name="Path 1168" d="M3.3,35.226a4.837,4.837,0,0,0-.628.188c-.069-.438.655-.87.628-.188" transform="translate(-1.609 -21.063)" fill="#b90017"/>
    <path id="Path_1169" data-name="Path 1169" d="M10.006,37.2c.247.046.3.287.314.565-.13.112-.349-.068-.5-.126a.9.9,0,0,1,.188-.44" transform="translate(-5.93 -22.468)" fill="#b90017"/>
    <path id="Path_1170" data-name="Path 1170" d="M4.158,38.933a.483.483,0,0,1,.5.251c-.142.261-.284.392-.188.754-.4-.032-.451-.632-.314-1.005" transform="translate(-2.47 -23.513)" fill="#b90017"/>
    <path id="Path_1171" data-name="Path 1171" d="M7.37,39.26c.083.064.232.062.314.126-.064.271-.182.489-.566.44a1.226,1.226,0,0,0,.251-.565" transform="translate(-4.3 -23.714)" fill="#b90017"/>
    <path id="Path_1172" data-name="Path 1172" d="M6.7,51.339c-.2.074-.442.1-.5.314-.369-.508.574-1.154.5-.314" transform="translate(-3.689 -30.765)" fill="#b90017"/>
    <path id="Path_1173" data-name="Path 1173" d="M7.4,54.647c.337-.044.4.189.5.377a1.807,1.807,0,0,1-.5.628c-.219-.236-.109-.739,0-1.005" transform="translate(-4.395 -33.005)" fill="#b90017"/>
    <path id="Path_1174" data-name="Path 1174" d="M12.608,55.343c.043-.274-.113-.348-.251-.44a.325.325,0,0,1,.377-.251c.148.153.235.71-.126.691" transform="translate(-7.464 -33.009)" fill="#b90017"/>
    <path id="Path_1175" data-name="Path 1175" d="M10.261,56.4c.167,0,.359-.024.44.063.028.426-.254.542-.565.628.107-.166.006-.539.126-.691" transform="translate(-6.122 -34.064)" fill="#b90017"/>
    <path id="Path_1176" data-name="Path 1176" d="M17.4,61.286c.02.148.1.236.063.44-.065.144-.449-.03-.5.126-.255-.2-.025-.7.44-.565" transform="translate(-10.179 -37.004)" fill="#b90017"/>
    <path id="Path_1177" data-name="Path 1177" d="M24.6,63.863c.005.278.012.557-.251.565.07-.343-.192-.352-.251-.565.181-.091.371-.175.5,0" transform="translate(-14.558 -38.513)" fill="#b90017"/>
    <path id="Path_1178" data-name="Path 1178" d="M19.069,63.861c.407.149.048.5.188.754-.259.217-.334-.56-.188-.754" transform="translate(-11.474 -38.574)" fill="#b90017"/>
    <path id="Path_1179" data-name="Path 1179" d="M22.1,65.356a.477.477,0,0,1-.377.5c.053-.224.063-.738.377-.5" transform="translate(-13.12 -39.44)" fill="#b90017"/>
    <path id="Path_1180" data-name="Path 1180" d="M12.907,17.653c.365-1.433-1-3.332-.314-3.834.145-.019.07.182.188.188.06-.625-.126-1.005-.628-1.068-.265.029-.289.3-.5.377-.078-.3-.461-.78-.063-1.006.287-.077.247.173.5.126a.841.841,0,0,0-.314-.817c.126-.107.51-.091.566.063.115.136-.012.515.126.628.517-.259.588-1.141.314-1.7-.986-.692-2.092.7-2.2,1.445-.3,2.046,1.908,3.152,1.634,4.965-.125,0-.08.171-.251.126-1.035-.809-1.11-2.577-1.76-3.771-.172.046-.127-.125-.251-.126a1.278,1.278,0,0,1-.377-.377,1.886,1.886,0,0,1-.314-.629c-.1.006-.218-.008-.188.126a.172.172,0,0,1-.188.126,1.445,1.445,0,0,0-.377-.817.443.443,0,0,1-.251.377c-.914-.218-.884,1.04-1.571,1.257a2.729,2.729,0,0,0-.126-.629c-.183.133-.463.5-.817.251.364-.367-.086-.737.063-1.131a.661.661,0,0,1,.314.754c.219-.012.239-.222.44-.251.21.063.218.327.44.377.236-.5.448-1.018,1.257-.942a1.4,1.4,0,0,1,.377-.628c.071.431.3.705.377,1.131.171.045-.045-.3.126-.251.265-.271.5.534.629.817.168.1.278.266.44.377h.188c0-.209-.367-.8-.126-1.257-.124-.19-.4-.226-.5-.44.482-.189.678-.662.691-1.32A1.216,1.216,0,0,1,9.7,10.3c-.184-.131-.1-.531-.251-.691-.183.212-.446.054-.5-.188h.44c.039-.221.263-.056.251.126.029.415.475.665.754.314-.046-.171.125-.126.126-.251-.292-.085-.443-.311-.377-.754.081.087.273.062.44.063a6.467,6.467,0,0,0,.44-.88c-.421-.107-.346.282-.691.251-.214-.309.175-.472.188-.754-.218-.055-.429-.116-.44-.377a1.424,1.424,0,0,0,.754.126.882.882,0,0,0,.126-.628c-.918.308-.607-1.019-.565-1.446a1.279,1.279,0,0,1-.377.377c-.063,0-.074.051-.126.063-.017.146-.168.145-.251.063-.03-.2.078-.257.188-.314.095-.094.265-.112.314-.251A1.066,1.066,0,0,1,10.33,4.9a2.563,2.563,0,0,0-.063-1.76c-.366.346-.4,1.028-.754,1.383.032-.45.291-.673.377-1.069-.739.339-2-.688-2.765.063v.251a.3.3,0,0,0,.063.188c.2.036.293-.043.44-.063-.01-.1.388-.1.377,0a1.621,1.621,0,0,1,.44.566c-.345.21-.867.009-1.131.063a.171.171,0,0,1,.126.188c-.145-.127-.336-.209-.377-.44h.063c.386,0,.745.371,1.068.063-.141-.069-.11-.308-.251-.377-.038,0-.074.01-.063.063.1.093.218.325-.063.314S7.7,4.22,7.691,4.016c-.119-.014-.139.071-.251.063.029.1-.343.1-.314,0C7.076,4.064,7,4.077,7,4.016c-.073-.011-.068-.1-.063-.188-.49.013-.805.2-.817.691.161.048.289-.246.377-.063a.627.627,0,0,0-.188.377c.289.884.635.242,1.068.691a.315.315,0,0,1,.314-.251c.169.083.226.277.377.377.056-.2.065-.438.314-.44.129.018.126.168.188.251a1.1,1.1,0,0,1-.628.566c-.388-.767-2.72.084-2.326-1.257-.449.062-.7.227-.754.377-.6,1.7,2.754.542,3.08,1.508a.294.294,0,0,0-.188.063,1.2,1.2,0,0,0-.88-.314.71.71,0,0,0,.188.754h.628a.3.3,0,0,0,.063.188c-.275.616-1.093.541-1.7.88a9.719,9.719,0,0,1-1.068.691A2.02,2.02,0,0,1,5.679,8.1c-.272-.4-.37-.925-.754-1.508S3.709,5.511,3.731,5.021s.591-.405.691-.942c-.451-.324-.539-1.012-1.32-1.006a1.335,1.335,0,0,1,0,1.257c.055.155.278.141.251.377-.083,0-.057.11-.126.126-.431.053-.434-.51-.314-.817-.389-.345-1.228-.664-1.508,0a.987.987,0,0,1,.628.44c-.143.428.628.451.628.943-.4-.125-.666.225-1.068,0a.731.731,0,0,0,1.194.691c.007.258.01.513-.126.629-.119.124-.3.03-.44,0a.592.592,0,0,0,.88.565c.1-.175.074-.471.251-.565C4.672,7.18,2.332,8.3,3.48,8.98c.009-.2-.062-.481.188-.44.429.245-.156,1.19.44,1.32-.049-.3.131-.371.377-.377,0,.083.11.057.126.126a.65.65,0,1,1-1.257-.314.919.919,0,0,0-.377,1.194c.455.688,1.436.133,1.823-.314.2-.154.331.295.44.44.316-.08.786-.776,1.006-.188.2.055.086-.207.251-.188.046-.143.189-.188.314-.251,0,.038.01.074.063.063.148.019.117.219.314.189a1.2,1.2,0,0,1,.377-.817c.138.072.209.21.377.251A.3.3,0,0,1,8,9.483a1.267,1.267,0,0,1,.377-.377c.272-.152-.026.266-.063.377-.021.147-.065.271-.188.314a.319.319,0,0,1-.188.188c-.168-.015-.239-.265-.377-.126a.411.411,0,0,1-.063.314v.314c-.135.277-.545-.19-.817-.188a2.923,2.923,0,0,1-.314.566c0-.063-.051-.075-.063-.126a.884.884,0,0,1-.314-.314c-.325.178-.5.508-.88.628a1.747,1.747,0,0,0-.314-.628c-.359.793-1.739.565-2.2,1.257-.3.745.57,1.769,1.131,1.068-.158-.114-.43-.114-.44-.377.04-.38.586-.586.943-.44-.32.223-.453.943-.063,1.194a1.037,1.037,0,0,0,.817-.188c.035-.287-.237-.266-.188-.565-.025-.259.447-.345.628-.188.121.216-.054.592-.063.88-1.214.4-.912,2.314-2.074,2.765-.319-.205-.278-.77-.943-.628-.179.449-.729.528-.628,1.257.17.107.74-.588.943-.063.255.1.289-.333.44-.126-.03.431-.385.537-.691.691-.312.745.008,1.741.754,1.571-.229-.327-.22-.835.188-.943,0-.5.058-.948.5-1.005-.066.251-.342.59-.063.817a2.52,2.52,0,0,1-.5.691c.772.241,1.07-.292,1.257-.817.008-.2-.421-.287-.188-.5.285-.034.147.356.251.5a.772.772,0,0,1,.691.377,1.131,1.131,0,0,0-.628-1.508c.524-.126.543-.756.942-1.006-.063.168-.145.562.126.566-.03-.261,0-.461.251-.44-.413.608.533,1.45.691.88-.339.272-.539-.58-.251-.754.181.25.791.276.817-.126-.18.012-.343.008-.314-.188-.027-.237.133-.286.251-.377.083-.022.1-.11.188-.126a.892.892,0,0,0,.377-.44v-.566c-.1.01-.1-.387,0-.377.014-.049,0-.124.063-.126.265.546.447,1.677-.188,1.948.011.053-.025.059-.063.063v.063c.384.454,1.072.6,1.32,1.194-.212.04-.459-.207-.566-.063.049.014.073.053.063.126a2.03,2.03,0,0,1,.691,1.131c.187.015.5-.162.565-.063a7.409,7.409,0,0,0-1.005,3.017c-.128.789,1.233,1.953.188,2.2-.2.03-.047-.288-.188-.314-.232.181-.1.666,0,.88.786.364.837-.485.88-1.068a5.316,5.316,0,0,0,.251,1.257c.351.078.4-.14.44-.377-.152-.026-.137.115-.314.063.052-.178-.089-.163-.063-.314v-.88c.181-.029.346-.072.377-.251-.091-.034-.325.073-.314-.063-.123-.141-.055-.473,0-.628.039-.171.263-.156.251-.377-.143.018-.236-.015-.251-.126a.95.95,0,0,1,0-.754c-.036.371.022.648.251.754.483.179-.181.535-.126.88.2.078.584.218.377.5a.885.885,0,0,1-.314.314v.44c.1.239.447.223.566.44A4.057,4.057,0,0,0,9.7,25.132c-.4.166-.61.521-.943.754-.461-.269-.91.048-1.32.189a1.632,1.632,0,0,0,0,.942c.434-.252.864-.213,1.257-.565,0,.063.051.075.063.126-.021.272-.348.239-.5.377-.092.544-.089,1.224.566,1.194-.011-.178-.115-.262-.126-.44a1.291,1.291,0,0,0,.377-.188c-.017-.415-.008-.8.44-.754-.475.469-.012,1.176-.44,1.571.818.37.914-.5,1.131-.942a.517.517,0,0,1,.251.565c.411.055.525-.187.691-.377.086-.736-.712-.921-.565-1.508a.91.91,0,0,0,.628.565,2.68,2.68,0,0,1,.188-1.32c.151.191-.027.654.063.754.077-.054.174-.4.251-.251-.03.143-.125.321,0,.44.488.285.91-.336.691-.754-.045.126-.359.2-.377,0-.086-.78.872-.131.817-.88,0-.114-.316.12-.314-.126a2.4,2.4,0,0,0,0-1.7c.073-.158.25-.21.251-.44a.561.561,0,0,1-.377-.44c-1.823-.405-.437-2.7-.629-4.085a.6.6,0,0,0,1.131-.188m-2.828-13.7a.942.942,0,0,1,.251.754c-.164.025-.19.187-.377.188.087-.08.038-.3.126-.377-.27-.06-.243.176-.44.188a7.078,7.078,0,0,1,.44-.754M5.051,5.21A1.063,1.063,0,0,0,5.3,5.021c.246-.058.046.331.188.377.33.759,2.246-.068,2.388.88-.7-.692-2.807.461-2.828-1.069M2.286,4.33c-.274-.04-.3-.327-.566-.377.213-.3.665-.135.88.063a.884.884,0,0,1-.314.314m-.5,1.446A.571.571,0,0,1,2.6,5.9c-.215.3-.674.144-.817-.126m.628,1.194c.261-.139.491-.237.691,0-.073.31-.588.192-.691,0M3.48,3.89a1.36,1.36,0,0,1-.063-.565.47.47,0,0,1,.44.5c-.148,0-.185.108-.377.063m.5,2.011a3.072,3.072,0,0,1,.754,1.7,2.558,2.558,0,0,1-.754-1.7m4.336,1.76a2.442,2.442,0,0,1,.566-1.508c.073-.01.112.014.126.063a1.755,1.755,0,0,1-.691,1.445m-4.9,4.022A2.809,2.809,0,0,1,3.166,12c-.128.279-.057-.562.126-.566H3.48c.008-.139.266-.027.377-.063.25.02.316-.145.566-.126-.053.428-.618.346-1.006.44m-.88,4.336a4.854,4.854,0,0,0-.628.188c-.069-.437.655-.87.628-.188m.314,2.263c-.4-.032-.451-.632-.314-1.005a.482.482,0,0,1,.5.251c-.142.261-.284.393-.188.754m2.074-1.7c.247.046.3.287.314.565-.13.112-.35-.069-.5-.126a.892.892,0,0,1,.189-.44M3.668,17.967A1.222,1.222,0,0,0,3.92,17.4c.083.064.232.062.314.126-.064.271-.182.489-.566.44M4.8,14.386c-.177.373-.135,1.035-.565,1.131-.2.207-.332-.08-.063-.126.405-.474.243-1.517,1.005-1.634.16.162-.24.338-.377.628M8.13,26.578c-.065.144-.449-.03-.5.126-.255-.2-.025-.7.44-.566.02.148.1.236.063.44m.5,1.32c-.259.217-.335-.559-.188-.754.406.149.048.5.188.754m.817.377c.053-.225.064-.738.377-.5a.477.477,0,0,1-.377.5m.691-.943c-.131-.1-.315-.146-.314-.377a.408.408,0,0,1,.314-.063c.086.2.013.21,0,.44m.754-.126c.006.278.012.557-.251.566.07-.343-.193-.352-.251-.566.181-.091.371-.175.5,0m.377-8.484c.137-.272.2.373.063.377a3.039,3.039,0,0,1-.188.817c-.3-.234-.247-1.089.126-1.194m.691,3.645c-.043.146-.209.168-.251.314A.886.886,0,0,1,11.4,23a.149.149,0,0,1-.251-.126c-.139-.026-.06-.344.063-.314a1.692,1.692,0,0,1,.754-.189M10.833,5.712c.209-.021.279-.182.565-.126-.242-.367-.457-1.674.377-1.76-.236.765.277.975.377,1.571.289-.106.184-.662.126-.943a2.843,2.843,0,0,1,0,3.017c.08,1.212-.436,1.826-.565,2.828a1.659,1.659,0,0,0-.943.88c-.282-1.683,1.747-3.06.44-4.462-.019-.25.145-.316.126-.566-.064-.233-.628-.155-.565.126-.2-.162.063-.394.063-.566M8.256,16.585c-.268.172-.423.457-.691.628.01.136-.223.029-.314.063a2.123,2.123,0,0,0-1.76.5c-1.03-.067-1.141.787-1.634,1.257-.014-.049-.052-.073-.126-.063a.476.476,0,0,1,.126-.44c-.555.02-.361.769-.188,1.068-.607.251-.468,1.451.251,1.257a.7.7,0,0,1-.188-.628c.24-.013.6-.235.817-.063-.081.255-.324.346-.377.629.2.027.723-.322.691.063.213-.059.223-.322.565-.251.079.257.377.293.566.44-.665.257-.721,1.123-1.446,1.32-.243-.134-.144-.61-.5-.628-.716-.088-1.268,1.013-.566,1.383-.022-.253,0-.46.188-.5a1.172,1.172,0,0,1,.754.44,1.363,1.363,0,0,0-.566.063c-.251.47-.427,1.418.126,1.7.081-.569.693-.605.565-1.382.119.014.139-.071.251-.063.129.017.126.168.188.251-.038.234-.289.256-.314.5.225.236.081.66-.063.88.862.112,1.016-.619.943-1.257.264.078.353.274.251.566.853-.037.529-.984.314-1.383.125,0,.08-.171.251-.126a1.375,1.375,0,0,0,.188.5c.072-.3.033-.721.377-.754-.757,1.383,1.488,2.673,1.383,1.005-.088.063-.662.261-.565-.314.075-.323.71-.086.565-.628-.108.054-.521.08-.5-.314a.951.951,0,0,0,.126-1.32c.223-.11.111-.236.251-.628-.3.018-.445.183-.817.126a.846.846,0,0,1-.314-.628c-.045-1.178,2.221-.713,1.823-2.137-.441-.147-.514-.659-.629-1.131m-4.4,5.845c-.2.074-.442.1-.5.314-.37-.507.573-1.154.5-.314m0,2.074c-.219-.236-.109-.739,0-1.006.337-.044.4.189.5.377a1.814,1.814,0,0,1-.5.628m1.006.377c.107-.166.006-.539.126-.691.167,0,.359-.024.44.063.028.426-.254.542-.565.628m.691-1.32c-.073-.01-.112.014-.126.063-.16-.006-.148-.234-.063-.314-.027-.131.043-.166.063-.251.073-.01.112.014.126.063Zm.44.628c.043-.273-.113-.348-.251-.44a.325.325,0,0,1,.377-.251c.148.153.235.71-.126.691m-.126-2.011c0,.149-.587.056-.314-.063a1.257,1.257,0,0,1,.565-.817,1.339,1.339,0,0,1-.251.88m.063-3.017v.314c-.026.151.115.137.063.314-.451-.052-.775-.23-.817-.691.156-.01.195.1.314.126a2.306,2.306,0,0,1,.377-.691h.188c.008-.139.267-.027.377-.063h.188c-.093.367-.475.447-.691.691m1.32-.44a1.5,1.5,0,0,1,1.005-.691c-.2.365-.383.749-1.005.691" transform="translate(-0.849 -1.856)" fill="#040405"/>
    <path id="Path_1181" data-name="Path 1181" d="M12.907,17.653c.365-1.433-1-3.332-.314-3.834.145-.019.07.182.188.188.06-.625-.126-1.005-.628-1.068-.265.029-.289.3-.5.377-.078-.3-.461-.78-.063-1.006.287-.077.247.173.5.126a.841.841,0,0,0-.314-.817c.126-.107.51-.091.566.063.115.136-.012.515.126.628.517-.259.588-1.141.314-1.7-.986-.692-2.092.7-2.2,1.445-.3,2.046,1.908,3.152,1.634,4.965-.125,0-.08.171-.251.126-1.035-.809-1.11-2.577-1.76-3.771-.172.046-.127-.125-.251-.126a1.278,1.278,0,0,1-.377-.377,1.886,1.886,0,0,1-.314-.629c-.1.006-.218-.008-.188.126a.172.172,0,0,1-.188.126,1.445,1.445,0,0,0-.377-.817.443.443,0,0,1-.251.377c-.914-.218-.884,1.04-1.571,1.257a2.729,2.729,0,0,0-.126-.629c-.183.133-.463.5-.817.251.364-.367-.086-.737.063-1.131a.661.661,0,0,1,.314.754c.219-.012.239-.222.44-.251.21.063.218.327.44.377.236-.5.448-1.018,1.257-.942a1.4,1.4,0,0,1,.377-.628c.071.431.3.705.377,1.131.171.045-.045-.3.126-.251.265-.271.5.534.629.817.168.1.278.266.44.377h.188c0-.209-.367-.8-.126-1.257-.124-.19-.4-.226-.5-.44.482-.189.678-.662.691-1.32A1.216,1.216,0,0,1,9.7,10.3c-.184-.131-.1-.531-.251-.691-.183.212-.446.054-.5-.188h.44c.039-.221.263-.056.251.126.029.415.475.665.754.314-.046-.171.125-.126.126-.251-.292-.085-.443-.311-.377-.754.081.087.273.062.44.063a6.467,6.467,0,0,0,.44-.88c-.421-.107-.346.282-.691.251-.214-.309.175-.472.188-.754-.218-.055-.429-.116-.44-.377a1.424,1.424,0,0,0,.754.126.882.882,0,0,0,.126-.628c-.918.308-.607-1.019-.565-1.446a1.279,1.279,0,0,1-.377.377c-.063,0-.074.051-.126.063-.017.146-.168.145-.251.063-.03-.2.078-.257.188-.314.095-.094.265-.112.314-.251A1.066,1.066,0,0,1,10.33,4.9a2.563,2.563,0,0,0-.063-1.76c-.366.346-.4,1.028-.754,1.383.032-.45.291-.673.377-1.069-.739.339-2-.688-2.765.063v.251a.3.3,0,0,0,.063.188c.2.036.293-.043.44-.063-.01-.1.388-.1.377,0a1.621,1.621,0,0,1,.44.566c-.345.21-.867.009-1.131.063a.171.171,0,0,1,.126.188c-.145-.127-.336-.209-.377-.44h.063c.386,0,.745.371,1.068.063-.141-.069-.11-.308-.251-.377-.038,0-.074.01-.063.063.1.093.218.325-.063.314S7.7,4.22,7.691,4.016c-.119-.014-.139.071-.251.063.029.1-.343.1-.314,0C7.076,4.064,7,4.077,7,4.016c-.073-.011-.068-.1-.063-.188-.49.013-.805.2-.817.691.161.048.289-.246.377-.063a.627.627,0,0,0-.188.377c.289.884.635.242,1.068.691a.315.315,0,0,1,.314-.251c.169.083.226.277.377.377.056-.2.065-.438.314-.44.129.018.126.168.188.251a1.1,1.1,0,0,1-.628.566c-.388-.767-2.72.084-2.326-1.257-.449.062-.7.227-.754.377-.6,1.7,2.754.542,3.08,1.508a.294.294,0,0,0-.188.063,1.2,1.2,0,0,0-.88-.314.71.71,0,0,0,.188.754h.628a.3.3,0,0,0,.063.188c-.275.616-1.093.541-1.7.88a9.719,9.719,0,0,1-1.068.691A2.02,2.02,0,0,1,5.679,8.1c-.272-.4-.37-.925-.754-1.508S3.709,5.511,3.731,5.021s.591-.405.691-.942c-.451-.324-.539-1.012-1.32-1.006a1.335,1.335,0,0,1,0,1.257c.055.155.278.141.251.377-.083,0-.057.11-.126.126-.431.053-.434-.51-.314-.817-.389-.345-1.228-.664-1.508,0a.987.987,0,0,1,.628.44c-.143.428.628.451.628.943-.4-.125-.666.225-1.068,0a.731.731,0,0,0,1.194.691c.007.258.01.513-.126.629-.119.124-.3.03-.44,0a.592.592,0,0,0,.88.565c.1-.175.074-.471.251-.565C4.672,7.18,2.332,8.3,3.48,8.98c.009-.2-.062-.481.188-.44.429.245-.156,1.19.44,1.32-.049-.3.131-.371.377-.377,0,.083.11.057.126.126a.65.65,0,1,1-1.257-.314.919.919,0,0,0-.377,1.194c.455.688,1.436.133,1.823-.314.2-.154.331.295.44.44.316-.08.786-.776,1.006-.188.2.055.086-.207.251-.188.046-.143.189-.188.314-.251,0,.038.01.074.063.063.148.019.117.219.314.189a1.2,1.2,0,0,1,.377-.817c.138.072.209.21.377.251A.3.3,0,0,1,8,9.483a1.267,1.267,0,0,1,.377-.377c.272-.152-.026.266-.063.377-.021.147-.065.271-.188.314a.319.319,0,0,1-.188.188c-.168-.015-.239-.265-.377-.126a.411.411,0,0,1-.063.314v.314c-.135.277-.545-.19-.817-.188a2.923,2.923,0,0,1-.314.566c0-.063-.051-.075-.063-.126a.884.884,0,0,1-.314-.314c-.325.178-.5.508-.88.628a1.747,1.747,0,0,0-.314-.628c-.359.793-1.739.565-2.2,1.257-.3.745.57,1.769,1.131,1.068-.158-.114-.43-.114-.44-.377.04-.38.586-.586.943-.44-.32.223-.453.943-.063,1.194a1.037,1.037,0,0,0,.817-.188c.035-.287-.237-.266-.188-.565-.025-.259.447-.345.628-.188.121.216-.054.592-.063.88-1.214.4-.912,2.314-2.074,2.765-.319-.205-.278-.77-.943-.628-.179.449-.729.528-.628,1.257.17.107.74-.588.943-.063.255.1.289-.333.44-.126-.03.431-.385.537-.691.691-.312.745.008,1.741.754,1.571-.229-.327-.22-.835.188-.943,0-.5.058-.948.5-1.005-.066.251-.342.59-.063.817a2.52,2.52,0,0,1-.5.691c.772.241,1.07-.292,1.257-.817.008-.2-.421-.287-.188-.5.285-.034.147.356.251.5a.772.772,0,0,1,.691.377,1.131,1.131,0,0,0-.628-1.508c.524-.126.543-.756.942-1.006-.063.168-.145.562.126.566-.03-.261,0-.461.251-.44-.413.608.533,1.45.691.88-.339.272-.539-.58-.251-.754.181.25.791.276.817-.126-.18.012-.343.008-.314-.188-.027-.237.133-.286.251-.377.083-.022.1-.11.188-.126a.892.892,0,0,0,.377-.44v-.566c-.1.01-.1-.387,0-.377.014-.049,0-.124.063-.126.265.546.447,1.677-.188,1.948.011.053-.025.059-.063.063v.063c.384.454,1.072.6,1.32,1.194-.212.04-.459-.207-.566-.063.049.014.073.053.063.126a2.03,2.03,0,0,1,.691,1.131c.187.015.5-.162.565-.063a7.409,7.409,0,0,0-1.005,3.017c-.128.789,1.233,1.953.188,2.2-.2.03-.047-.288-.188-.314-.232.181-.1.666,0,.88.786.364.837-.485.88-1.068a5.316,5.316,0,0,0,.251,1.257c.351.078.4-.14.44-.377-.152-.026-.137.115-.314.063.052-.178-.089-.163-.063-.314v-.88c.181-.029.346-.072.377-.251-.091-.034-.325.073-.314-.063-.123-.141-.055-.473,0-.628.039-.171.263-.156.251-.377-.143.018-.236-.015-.251-.126a.95.95,0,0,1,0-.754c-.036.371.022.648.251.754.483.179-.181.535-.126.88.2.078.584.218.377.5a.885.885,0,0,1-.314.314v.44c.1.239.447.223.566.44A4.057,4.057,0,0,0,9.7,25.132c-.4.166-.61.521-.943.754-.461-.269-.91.048-1.32.189a1.632,1.632,0,0,0,0,.942c.434-.252.864-.213,1.257-.565,0,.063.051.075.063.126-.021.272-.348.239-.5.377-.092.544-.089,1.224.566,1.194-.011-.178-.115-.262-.126-.44a1.291,1.291,0,0,0,.377-.188c-.017-.415-.008-.8.44-.754-.475.469-.012,1.176-.44,1.571.818.37.914-.5,1.131-.942a.517.517,0,0,1,.251.565c.411.055.525-.187.691-.377.086-.736-.712-.921-.565-1.508a.91.91,0,0,0,.628.565,2.68,2.68,0,0,1,.188-1.32c.151.191-.027.654.063.754.077-.054.174-.4.251-.251-.03.143-.125.321,0,.44.488.285.91-.336.691-.754-.045.126-.359.2-.377,0-.086-.78.872-.131.817-.88,0-.114-.316.12-.314-.126a2.4,2.4,0,0,0,0-1.7c.073-.158.25-.21.251-.44a.561.561,0,0,1-.377-.44c-1.823-.405-.437-2.7-.629-4.085A.6.6,0,0,0,12.907,17.653Zm-2.828-13.7a.942.942,0,0,1,.251.754c-.164.025-.19.187-.377.188.087-.08.038-.3.126-.377-.27-.06-.243.176-.44.188A7.078,7.078,0,0,1,10.079,3.953ZM5.051,5.21A1.063,1.063,0,0,0,5.3,5.021c.246-.058.046.331.188.377.33.759,2.246-.068,2.388.88C7.177,5.587,5.072,6.739,5.051,5.21ZM2.286,4.33c-.274-.04-.3-.327-.566-.377.213-.3.665-.135.88.063A.884.884,0,0,1,2.286,4.33Zm-.5,1.446A.571.571,0,0,1,2.6,5.9C2.385,6.205,1.926,6.045,1.783,5.775Zm.628,1.194c.261-.139.491-.237.691,0C3.03,7.279,2.514,7.161,2.411,6.969ZM3.48,3.89a1.36,1.36,0,0,1-.063-.565.47.47,0,0,1,.44.5C3.709,3.826,3.672,3.935,3.48,3.89Zm.5,2.011a3.072,3.072,0,0,1,.754,1.7A2.558,2.558,0,0,1,3.983,5.9Zm4.336,1.76a2.442,2.442,0,0,1,.566-1.508c.073-.01.112.014.126.063A1.755,1.755,0,0,1,8.319,7.661Zm-4.9,4.022A2.809,2.809,0,0,1,3.166,12c-.128.279-.057-.562.126-.566H3.48c.008-.139.266-.027.377-.063.25.02.316-.145.566-.126C4.369,11.671,3.8,11.589,3.417,11.683Zm-.88,4.336a4.854,4.854,0,0,0-.628.188C1.839,15.771,2.564,15.338,2.537,16.019Zm.314,2.263c-.4-.032-.451-.632-.314-1.005a.482.482,0,0,1,.5.251C2.9,17.789,2.755,17.92,2.851,18.282Zm2.074-1.7c.247.046.3.287.314.565-.13.112-.35-.069-.5-.126A.892.892,0,0,1,4.925,16.585ZM3.668,17.967A1.222,1.222,0,0,0,3.92,17.4c.083.064.232.062.314.126C4.17,17.8,4.052,18.016,3.668,17.967ZM4.8,14.386c-.177.373-.135,1.035-.565,1.131-.2.207-.332-.08-.063-.126.405-.474.243-1.517,1.005-1.634C5.337,13.919,4.937,14.1,4.8,14.386ZM8.13,26.578c-.065.144-.449-.03-.5.126-.255-.2-.025-.7.44-.566C8.088,26.285,8.167,26.374,8.13,26.578Zm.5,1.32c-.259.217-.335-.559-.188-.754C8.851,27.293,8.492,27.64,8.633,27.9Zm.817.377c.053-.225.064-.738.377-.5A.477.477,0,0,1,9.45,28.275Zm.691-.943c-.131-.1-.315-.146-.314-.377a.408.408,0,0,1,.314-.063C10.228,27.091,10.155,27.1,10.142,27.332Zm.754-.126c.006.278.012.557-.251.566.07-.343-.193-.352-.251-.566C10.574,27.114,10.764,27.031,10.9,27.206Zm.377-8.484c.137-.272.2.373.063.377a3.039,3.039,0,0,1-.188.817C10.843,19.682,10.9,18.827,11.273,18.722Zm.691,3.645c-.043.146-.209.168-.251.314A.886.886,0,0,1,11.4,23a.149.149,0,0,1-.251-.126c-.139-.026-.06-.344.063-.314A1.692,1.692,0,0,1,11.964,22.367ZM10.833,5.712c.209-.021.279-.182.565-.126-.242-.367-.457-1.674.377-1.76-.236.765.277.975.377,1.571.289-.106.184-.662.126-.943a2.843,2.843,0,0,1,0,3.017c.08,1.212-.436,1.826-.565,2.828a1.659,1.659,0,0,0-.943.88c-.282-1.683,1.747-3.06.44-4.462-.019-.25.145-.316.126-.566-.064-.233-.628-.155-.565.126C10.571,6.116,10.833,5.884,10.833,5.712ZM8.256,16.585c-.268.172-.423.457-.691.628.01.136-.223.029-.314.063a2.123,2.123,0,0,0-1.76.5c-1.03-.067-1.141.787-1.634,1.257-.014-.049-.052-.073-.126-.063a.476.476,0,0,1,.126-.44c-.555.02-.361.769-.188,1.068-.607.251-.468,1.451.251,1.257a.7.7,0,0,1-.188-.628c.24-.013.6-.235.817-.063-.081.255-.324.346-.377.629.2.027.723-.322.691.063.213-.059.223-.322.565-.251.079.257.377.293.566.44-.665.257-.721,1.123-1.446,1.32-.243-.134-.144-.61-.5-.628-.716-.088-1.268,1.013-.566,1.383-.022-.253,0-.46.188-.5a1.172,1.172,0,0,1,.754.44,1.363,1.363,0,0,0-.566.063c-.251.47-.427,1.418.126,1.7.081-.569.693-.605.565-1.382.119.014.139-.071.251-.063.129.017.126.168.188.251-.038.234-.289.256-.314.5.225.236.081.66-.063.88.862.112,1.016-.619.943-1.257.264.078.353.274.251.566.853-.037.529-.984.314-1.383.125,0,.08-.171.251-.126a1.375,1.375,0,0,0,.188.5c.072-.3.033-.721.377-.754-.757,1.383,1.488,2.673,1.383,1.005-.088.063-.662.261-.565-.314.075-.323.71-.086.565-.628-.108.054-.521.08-.5-.314a.951.951,0,0,0,.126-1.32c.223-.11.111-.236.251-.628-.3.018-.445.183-.817.126a.846.846,0,0,1-.314-.628c-.045-1.178,2.221-.713,1.823-2.137C8.444,17.57,8.37,17.058,8.256,16.585Zm-4.4,5.845c-.2.074-.442.1-.5.314C2.984,22.237,3.928,21.59,3.857,22.43Zm0,2.074c-.219-.236-.109-.739,0-1.006.337-.044.4.189.5.377A1.814,1.814,0,0,1,3.857,24.5Zm1.006.377c.107-.166.006-.539.126-.691.167,0,.359-.024.44.063C5.456,24.678,5.174,24.794,4.862,24.881Zm.691-1.32c-.073-.01-.112.014-.126.063-.16-.006-.148-.234-.063-.314-.027-.131.043-.166.063-.251.073-.01.112.014.126.063Zm.44.628c.043-.273-.113-.348-.251-.44a.325.325,0,0,1,.377-.251C6.267,23.651,6.355,24.208,5.994,24.189Zm-.126-2.011c0,.149-.587.056-.314-.063a1.257,1.257,0,0,1,.565-.817A1.339,1.339,0,0,1,5.868,22.178Zm.063-3.017v.314c-.026.151.115.137.063.314-.451-.052-.775-.23-.817-.691.156-.01.195.1.314.126a2.306,2.306,0,0,1,.377-.691h.188c.008-.139.267-.027.377-.063h.188C6.529,18.838,6.147,18.917,5.931,19.162Zm1.32-.44a1.5,1.5,0,0,1,1.005-.691C8.056,18.4,7.873,18.779,7.251,18.722Z" transform="translate(-0.849 -1.856)" fill="none" stroke="#f9af00" stroke-miterlimit="10" stroke-width="0.1"/>
  </g>
</svg>
