<svg xmlns="http://www.w3.org/2000/svg" xmlns:xlink="http://www.w3.org/1999/xlink" width="21.426" height="27.548" viewBox="0 0 21.426 27.548">
  <defs>
    <clipPath id="clip-path">
      <rect id="Rectangle_542" data-name="Rectangle 542" width="21.426" height="27.548" fill="none"/>
    </clipPath>
    <clipPath id="clip-path-2">
      <path id="Path_918" data-name="Path 918" d="M31.383,8.778c.112.005.168.044.281.044.013-.16.169-.233.153-.393H31.79c-.222,0-.437.161-.407.349" transform="translate(-31.38 -8.429)" fill="none"/>
    </clipPath>
    <radialGradient id="radial-gradient" cx="0.513" cy="0.5" r="0.57" gradientTransform="translate(-4.544 8.958) scale(0.821 0.855)" gradientUnits="objectBoundingBox">
      <stop offset="0" stop-color="#f08766"/>
      <stop offset="0.151" stop-color="#eb6e4d"/>
      <stop offset="0.5" stop-color="#df3827"/>
      <stop offset="0.724" stop-color="#cc1f1e"/>
      <stop offset="1" stop-color="#bb0019"/>
    </radialGradient>
    <clipPath id="clip-path-3">
      <path id="Path_919" data-name="Path 919" d="M35.058,9.46c.056.1.181.077.306.109.223-.167.073-.5-.179-.631-.117.175-.235.338-.127.522" transform="translate(-35.015 -8.938)" fill="none"/>
    </clipPath>
    <radialGradient id="radial-gradient-2" cx="0.462" r="0.487" gradientTransform="translate(-0.195 5.542) scale(0.991 0.855)" xlink:href="#radial-gradient"/>
    <clipPath id="clip-path-5">
      <path id="Path_922" data-name="Path 922" d="M14.412,10.08a1.927,1.927,0,0,1,1.35.283c.367.3.921.309.969.742-.418,0-.6-.283-1.019-.283-.44,0-.9-.117-1.1.218a2.521,2.521,0,0,1,1.172,0,3.394,3.394,0,0,0,1.351.413c.044-.284-.181-.447-.433-.632-.312-.232-.383-.463-.688-.7a2.383,2.383,0,0,0-.943-.328.669.669,0,0,0-.179-.023c-.24,0-.493.112-.483.307" transform="translate(-14.411 -9.773)" fill="none"/>
    </clipPath>
    <radialGradient id="radial-gradient-3" cx="0.495" r="0.708" gradientTransform="translate(-0.795 2.054) scale(0.605 0.855)" xlink:href="#radial-gradient"/>
    <clipPath id="clip-path-7">
      <path id="Path_925" data-name="Path 925" d="M11.453,11.74c-.135,0,.045.243.179.262,0-.118-.04-.262-.177-.262h0" transform="translate(-11.405 -11.74)" fill="none"/>
    </clipPath>
    <radialGradient id="radial-gradient-4" cx="0.639" r="0.515" gradientTransform="translate(-2.266 12.731) scale(0.836 0.855)" xlink:href="#radial-gradient"/>
    <clipPath id="clip-path-9">
      <path id="Path_927" data-name="Path 927" d="M24.243,13.09a1.86,1.86,0,0,0,.459.021.322.322,0,0,0-.33-.306c-.035.112-.121.167-.129.285" transform="translate(-24.243 -12.805)" fill="none"/>
    </clipPath>
    <radialGradient id="radial-gradient-5" cx="0.5" cy="0.48" r="0.641" gradientTransform="translate(-6.101 10.167) scale(0.703 0.855)" xlink:href="#radial-gradient"/>
    <clipPath id="clip-path-10">
      <path id="Path_928" data-name="Path 928" d="M18.122,13.483c-.124.057-.08.205-.2.262-.277.129-.5-.031-.817-.045-.675-.029-1.372-.261-1.707.241.736,0,1.15.048,1.886.066a1.018,1.018,0,0,0,.816-.241c.191-.195.636-.43.381-.566a.693.693,0,0,1-.356.284" transform="translate(-15.395 -13.199)" fill="none"/>
    </clipPath>
    <radialGradient id="radial-gradient-6" cx="0.473" cy="0.497" r="1.435" gradientTransform="translate(-1.356 4.01) scale(0.243 0.855)" xlink:href="#radial-gradient"/>
    <clipPath id="clip-path-12">
      <path id="Path_930" data-name="Path 930" d="M7.14,14.124h.2a.374.374,0,0,0,0-.2.2.2,0,0,0-.2.2" transform="translate(-7.14 -13.928)" fill="none"/>
    </clipPath>
    <radialGradient id="radial-gradient-7" cx="0.492" cy="0.502" r="0.568" gradientTransform="translate(-1.559 16.388) scale(0.874 0.855)" xlink:href="#radial-gradient"/>
    <clipPath id="clip-path-14">
      <path id="Path_932" data-name="Path 932" d="M16.969,16.642c.007.048.015.08.026.129.248,0,.505-.054.562-.261-.237.023-.358.095-.588.132" transform="translate(-16.969 -16.51)" fill="none"/>
    </clipPath>
    <radialGradient id="radial-gradient-8" cx="0.5" cy="0.501" r="0.896" gradientTransform="translate(-6.234 11.757) scale(0.444 0.855)" xlink:href="#radial-gradient"/>
    <clipPath id="clip-path-15">
      <path id="Path_933" data-name="Path 933" d="M9.74,17.246h.076a.4.4,0,0,0-.332-.568c-.053.232.189.337.255.568" transform="translate(-9.477 -16.678)" fill="none"/>
    </clipPath>
    <radialGradient id="radial-gradient-9" cx="0.462" r="0.477" gradientTransform="translate(0.772 5.395) scale(1.109 0.855)" xlink:href="#radial-gradient"/>
    <clipPath id="clip-path-16">
      <path id="Path_934" data-name="Path 934" d="M9.052,18.216c.02-.121.013-.274-.127-.3-.071.106-.019.311.127.3" transform="translate(-8.894 -17.912)" fill="none"/>
    </clipPath>
    <radialGradient id="radial-gradient-10" cx="0.564" cy="0.49" r="0.446" gradientTransform="translate(6.81 9.609) scale(1.433 0.855)" xlink:href="#radial-gradient"/>
    <clipPath id="clip-path-18">
      <path id="Path_936" data-name="Path 936" d="M12.58,20.52c.078,0,.162.014.2-.044s-.049-.133-.128-.153a.35.35,0,0,0-.076.2" transform="translate(-12.58 -20.323)" fill="none"/>
    </clipPath>
    <radialGradient id="radial-gradient-11" cx="0.434" cy="0.472" r="0.529" gradientTransform="translate(-2.883 13.504) scale(0.854 0.855)" xlink:href="#radial-gradient"/>
    <clipPath id="clip-path-20">
      <path id="Path_946" data-name="Path 946" d="M9.883,34.907a.61.61,0,0,0-.407-.5.414.414,0,0,0,.407.5" transform="translate(-9.461 -34.406)" fill="none"/>
    </clipPath>
    <radialGradient id="radial-gradient-12" cx="0.558" cy="0.502" r="0.509" gradientTransform="translate(0.39 4.108) scale(1.051 0.855)" xlink:href="#radial-gradient"/>
    <clipPath id="clip-path-22">
      <path id="Path_948" data-name="Path 948" d="M12.317,35.62h.152v-.175a.085.085,0,0,0,.051-.021.616.616,0,0,0-.127-.065.427.427,0,0,0-.077.261" transform="translate(-12.317 -35.359)" fill="none"/>
    </clipPath>
    <radialGradient id="radial-gradient-13" cx="0.5" cy="0.504" r="0.497" gradientTransform="translate(6.64 7.68) scale(1.282 0.855)" xlink:href="#radial-gradient"/>
    <clipPath id="clip-path-24">
      <path id="Path_955" data-name="Path 955" d="M15.132,52.886a.841.841,0,0,1,.179.044.584.584,0,0,0,.126-.305c-.06-.011-.092-.03-.152-.044-.083.106-.167.176-.153.3" transform="translate(-15.13 -52.582)" fill="none"/>
    </clipPath>
    <radialGradient id="radial-gradient-14" cx="0.519" cy="0.503" r="0.518" gradientTransform="translate(1.729 2.963) scale(1.094 0.855)" xlink:href="#radial-gradient"/>
    <clipPath id="clip-path-25">
      <path id="Path_956" data-name="Path 956" d="M22.391,54.221a.328.328,0,0,0,.152-.349c-.169,0-.18.206-.152.349" transform="translate(-22.379 -53.872)" fill="none"/>
    </clipPath>
    <radialGradient id="radial-gradient-15" cx="0.496" cy="0.504" r="0.448" gradientTransform="translate(30.624 2.751) scale(1.717 0.855)" xlink:href="#radial-gradient"/>
    <clipPath id="clip-path-27">
      <path id="Path_958" data-name="Path 958" d="M16.5,55.022h.077a.183.183,0,0,0-.052-.2.381.381,0,0,0-.025.2" transform="translate(-16.501 -54.826)" fill="none"/>
    </clipPath>
    <radialGradient id="radial-gradient-16" cx="0.468" cy="0.506" r="0.445" gradientTransform="translate(47.104 4.626) scale(1.8 0.855)" xlink:href="#radial-gradient"/>
    <clipPath id="clip-path-29">
      <path id="Path_960" data-name="Path 960" d="M18.893,57a.293.293,0,0,0-.026-.328.269.269,0,0,0,.026.328" transform="translate(-18.823 -56.677)" fill="none"/>
    </clipPath>
    <radialGradient id="radial-gradient-17" cx="0.488" cy="0.504" r="0.429" gradientTransform="translate(52.337 2.446) scale(2.113 0.855)" xlink:href="#radial-gradient"/>
    <clipPath id="clip-path-31">
      <path id="Path_962" data-name="Path 962" d="M34.263,59.272h.077a.325.325,0,0,0,.077-.2.121.121,0,0,1-.077-.044.279.279,0,0,0-.077.239" transform="translate(-34.258 -59.033)" fill="none"/>
    </clipPath>
    <radialGradient id="radial-gradient-18" cx="0.541" cy="0.504" r="0.476" gradientTransform="translate(30.167 2.792) scale(1.391 0.855)" xlink:href="#radial-gradient"/>
    <clipPath id="clip-path-32">
      <path id="Path_963" data-name="Path 963" d="M27.456,59.341h.1a.321.321,0,0,0,0-.2.2.2,0,0,0-.1.2" transform="translate(-27.456 -59.145)" fill="none"/>
    </clipPath>
    <radialGradient id="radial-gradient-19" cx="0.49" cy="0.507" r="0.465" gradientTransform="translate(44.901 3.38) scale(1.537 0.855)" xlink:href="#radial-gradient"/>
    <clipPath id="clip-path-33">
      <path id="Path_964" data-name="Path 964" d="M30.931,60.506c.194.041.311-.044.509-.065-.007-.1-.119-.147-.229-.174-.118.078-.262.112-.28.239" transform="translate(-30.931 -60.267)" fill="none"/>
    </clipPath>
    <radialGradient id="radial-gradient-20" cx="0.5" cy="0.451" r="0.742" gradientTransform="translate(-10.616 2.137) scale(0.55 0.855)" xlink:href="#radial-gradient"/>
    <clipPath id="clip-path-34">
      <path id="Path_965" data-name="Path 965" d="M29.006,61.908c.047-.084.031-.225-.076-.239a.172.172,0,0,0,.076.239" transform="translate(-28.907 -61.669)" fill="none"/>
    </clipPath>
    <radialGradient id="radial-gradient-21" cx="0.514" cy="0.505" r="0.453" gradientTransform="translate(26.219 2.17) scale(1.4 0.855)" xlink:href="#radial-gradient"/>
  </defs>
  <g id="steiermark-fleg" transform="translate(0)">
    <g id="Group_986" data-name="Group 986" transform="translate(0 0)">
      <g id="Group_985" data-name="Group 985" transform="translate(0 0)" clip-path="url(#clip-path)">
        <path id="Path_916" data-name="Path 916" d="M0,0H21.426V16.835A10.713,10.713,0,1,1,0,16.835Z" transform="translate(0 0)" fill="#1b5522"/>
        <path id="Path_917" data-name="Path 917" d="M22.49,19.624c-.241.232-.849.239-.942-.065-.035-.114-.112-.235,0-.305.217-.14.456-.047.663-.195a.766.766,0,0,0,.33-.918c-.108-.31-.589.044-.969.044a1.708,1.708,0,0,1-.484,0c-.243-.062-.238-.279-.331-.48-.064-.141-.175-.381,0-.392.216-.012.344-.012.561-.043a1.016,1.016,0,0,0,.764-.437.734.734,0,0,0-.307-1.069c-.222.192-.205.406-.432.588a1.058,1.058,0,0,1-.866.11c-.208-.024-.364.036-.536-.065-.193-.114-.159-.3-.253-.48s-.231-.264-.231-.459c.8,0,1.344.249,2.038-.087a1.346,1.346,0,0,0,.689-.719.552.552,0,0,0-.255-.764.425.425,0,0,0-.51.044c-.1.123.006.276-.128.372a1.665,1.665,0,0,1-.968.2,1.843,1.843,0,0,1-.764-.088c-.168-.052-.312.023-.458-.066a.425.425,0,0,1-.078-.652c.459.15.777.04,1.249.153a1.737,1.737,0,0,0,1.528-.262,1.136,1.136,0,0,0,.458-1.135c-.024-.424-.636-.62-1.12-.522,0,.171.2.212.281.37a.417.417,0,0,1-.128.566c-.355.244-.726.06-1.172-.021a5.543,5.543,0,0,1-.739-.108c-.178-.055-.365.04-.484-.088-.133-.147,0-.305.077-.48a5.456,5.456,0,0,0,.178-.588,1.587,1.587,0,0,1,.688-.938c.338-.238.742.1,1.045.372a1.343,1.343,0,0,0,1.5.195c.274-.133.5-.327.433-.588a2.944,2.944,0,0,1-.791.021c.017-.222.4-.214.435-.436.035-.2-.306-.2-.535-.24A7.8,7.8,0,0,0,20.58,9.68a1.8,1.8,0,0,0-1.274.436,4.332,4.332,0,0,0-.458.522c-.163.174-.119.491-.383.48,0-.393.025-.61,0-1-.01-.18-.2-.409,0-.458a2.1,2.1,0,0,1,.586-.088c.153,0,.3.044.382-.065.042-.06-.038-.111-.076-.175a1.079,1.079,0,0,0-.433-.37,4.929,4.929,0,0,0-.636-.2c-.193-.083-.065-.282-.1-.458-.07-.32-.662-.722-.84-.437-.112.182-.017.332-.1.522-.076.168-.405.14-.535,0-.187-.2.278-.323.459-.522.089-.1-.094-.21-.229-.262a1.212,1.212,0,0,0-1.147.284.6.6,0,0,1-.484.153c-.233-.055-.416-.227-.612-.109a5.49,5.49,0,0,1-.968.588,3.265,3.265,0,0,1-1.171.241.59.59,0,0,0-.51.218c-.1.146-.335-.045-.485-.153a2.531,2.531,0,0,0-2.19-.5c-.376.079-.636.769-.255.828.153.024.23-.087.383-.108.3-.045.69-.145.79.108-.37.147-.71.107-.942.393-.2.248-.2.75.153.762,0,.289-.124.655.2.721.163.033.182-.181.331-.241a1.073,1.073,0,0,1,.459-.043v.065c-.255.135-.271.342-.484.524-.087.073-.185-.068-.281-.131a1.644,1.644,0,0,1-.357-.239c-.369-.4-.306-.775-.306-1.286A.831.831,0,0,0,8,8.982c-.253.1.114.438-.077.609s-.445-.114-.739-.108a.864.864,0,0,0-.841.981c.017.115.017.217.128.284.14.085.252-.21.408-.153.092.033.049.143.127.2s.164-.008.255.022.038.131,0,.2c-.262.421-.4.981.077,1.221.142.072.251-.087.381-.175a2.273,2.273,0,0,1,.739-.261c.082-.023.118-.1.2-.088a1.168,1.168,0,0,0-.1.567c.013.225-.344.36-.2.546.256.335.9.159,1.2-.153.152.158.049.321.1.524.045.163.185.218.306.349.153.163.192.289.331.457.1.117.293.168.256.306-.239,0-.552-.049-.587.152-.041.237.1.411.331.546.124.07.243.1.305.218s-.1.169-.177.262a1.633,1.633,0,0,1-.459.436c-.462.259-.748.381-1.2.654-.28.169-.51.348-.841.261-.194-.052-.2-.232-.382-.305a.8.8,0,0,0-.662.109c-.262.117-.194.365-.281.61a.731.731,0,0,0,.026.59c.08.19.372-.054.611-.044.14.006.076.194.025.306-.134.291-.262.539-.077.806.105.15.462.3.51.131.063-.22.318-.305.586-.305,0,.121-.051.2,0,.305s.216.073.332.024a.924.924,0,0,0,.484-.461c.1-.191.219-.32.153-.522-.074-.218-.259-.532,0-.588.111.182.089.32.2.5.1.163.394.077.561-.044.114-.083.056-.2.1-.327a.655.655,0,0,1,.637-.459c.035.319.254.725.611.632.15-.038.045-.215.025-.348a.347.347,0,0,1,.231-.393,3.4,3.4,0,0,0,1.427,1.243c.285.147.446.234.737.37.164.077.332.042.434.175.035.046-.051.082-.077.131-.07.129.056.227.051.37-.568,0-.886-.065-1.454-.065-.536,0-.782.272-1.273.458-.438.165-.5.5-.739.849a1.562,1.562,0,0,1-1.172.852c0,.367.487.523.917.523.044.4-.226.377.179,1,.211.326.661.152,1.1.217.411.063.39.559.255.894-.15.363-.108.864-.561.873-.22,0-.363.081-.56,0-.109-.045-.093-.15-.179-.218-.108-.088-.236-.039-.383-.065-.242-.047-.395.086-.585.217-.154.106-.313.126-.382.284-.153.341.57.442.56.807a.539.539,0,0,0,.306.589c.153.062.248-.1.407-.153.147.24.073.428.2.676a.621.621,0,0,0,.739.328c.154-.055.029-.23.052-.372a1.529,1.529,0,0,1,.127-.327c.1-.266.123-.47.382-.632a.584.584,0,0,0,.688.087c.189-.1.175-.267.281-.437.22-.356.009-.959.484-.959,0,.169-.086.27-.051.436.028.133.277-.03.383-.131a1.2,1.2,0,0,0,.305-.37c.076-.161.02-.344.2-.413s-.01-.269,0-.438.23-.206.23-.369a1.07,1.07,0,0,0-.357-.873,1.191,1.191,0,0,0-.893-.436c-.12,0-.279-.052-.255-.153.058-.224.369-.173.587-.305s.27-.286.509-.37c.533-.191.9.018,1.478.043,0,.173-.157.238-.279.372-.288.308-.536.5-.562.894-.035.564-.294.889-.152,1.44.127.506-.144.865.127,1.33.108.187.653.277.636.066a4.946,4.946,0,0,1,.077-.678c.125.107.065.243.153.372s.325.248.433.129-.1-.334.052-.436a.413.413,0,0,1,.484.044c.226.193.128.422.128.7a1.481,1.481,0,0,1-.357.938c-.191.273-.341.544-.714.544-.356,0-.624-.15-.917.022a1.426,1.426,0,0,0-.662.567c-.079.155-.093.344.075.437s.3,0,.485,0c0,.393-.138.683.128,1,.229.278.648-.117.942-.35.179.138.271.279.51.306a.3.3,0,0,0,.306-.263c.085-.367.063-.585.126-.958.2.117.262.395.485.327.239-.074.306-.239.408-.437a.588.588,0,0,0,.051-.589c-.093-.18.223-.253.356-.415a2.1,2.1,0,0,0,.433-.741c.07-.2.054-.408.279-.5.119-.046.237-.016.307-.109s-.112-.283.024-.327a1.207,1.207,0,0,1,.434,0c0-.34-.062-.622.229-.851.089-.068.016-.237-.1-.261-.252-.055-.4.108-.662.108.1-.3.477-.348.841-.348a.472.472,0,0,0-.281-.546c-.245-.1-.411.153-.687.153a1.33,1.33,0,0,1-.587-.153c-.139-.06-.244.065-.382.132s-.239.042-.356.109c-.24-.186-.122-.526.126-.7.077-.052.113-.16.2-.131.149.049.1.24.254.284.106.03.16-.091.2-.175.076-.144.021-.281.153-.392.1-.086.279.162.356.064.2-.264.068-.613.409-.741a1.347,1.347,0,0,0,1.5.522,1.038,1.038,0,0,0,.739-.718c.059-.153.09-.244.154-.393.07-.164-.045-.349.127-.437.133-.067.249.011.408,0,.465-.032.717-.763.331-.981m-2.828-2.18c.147-.039.185.15.255.26.156.244.4.418.279.676-.054.117-.205.132-.356.132-.487-.058-.646-.946-.179-1.069m-1.045-1.9c.256.035.232.292.306.5s.229.318.229.545a.976.976,0,0,0-.585.348c-.135.134-.4-.068-.459-.24a.778.778,0,0,1,.1-.785c.123-.168.29-.2.407-.37m-.687-1.069c0-.213.118-.325.255-.5.079.139.229.261.128.393a.415.415,0,0,1-.383.109m.407-3.053c.038.141-.035.227-.077.37a.076.076,0,0,0-.05-.023.622.622,0,0,1,.127-.348m-3.465.239a1.406,1.406,0,0,1-.407.217c-.169.048-.3-.108-.459-.042s-.125.209-.179.348-.229.134-.382.2a4.427,4.427,0,0,0-.738.37c-.179.106-.317-.134-.51-.218a6.374,6.374,0,0,1-.611-.284c-.184-.1-.351-.054-.534-.153a3.1,3.1,0,0,0-.664-.327c.032-.2.344-.152.561-.24a1.87,1.87,0,0,0,.61-.393c.119-.1.148-.218.306-.261.338-.1.682-.033.842-.305.353.227.824.434,1.12.152a4.156,4.156,0,0,1,.561-.5c.059-.041.028-.131.1-.152a1.019,1.019,0,0,1,.458,0,.692.692,0,0,1,.561.348c.13.2.454.292.355.5-.194.4-.579.489-.993.743M20.605,21.3a.339.339,0,0,1-.433.087.978.978,0,0,1-.51-.653,3.873,3.873,0,0,0-.407-1.222c-.517-.769-1.16-.982-1.963-1.548a3.321,3.321,0,0,1-.968-.85c-.179-.256-.351-.369-.51-.633-.091-.152-.006-.327-.178-.413.029-.034.051-.052.077-.087a.071.071,0,0,1,.051.042c.114-.048.245-.01.305-.108.111-.181-.114-.305-.177-.5-.1-.292.049-.481.076-.786h.076a.677.677,0,0,0,.256.48c.063.068.111.188.2.153.337-.137.093-.493.153-.807a1.551,1.551,0,0,1,.254-.741c.193-.257.414-.374.459-.676.2.008.306.108.509.108.128-.457-.025-.786.281-1.178h.077c0,.2-.065.305-.077.5-.016.248.121.478-.1.633a2.3,2.3,0,0,0-.765.742,1.332,1.332,0,0,0-.152,1.067c.079.411-.1.652-.1,1.069a1.613,1.613,0,0,0,.382,1.045c.235.336.764.371.764.763a1.428,1.428,0,0,0,1.5,1.331c.126.457.1.959.635,1.067.239.05-.048.352.052.546.06.119.021.218.1.327.059.084.176.153.126.24m-.1-1.81c-.027-.081.084-.121.128-.2a.857.857,0,0,1,.128.284c-.109,0-.224,0-.256-.087" transform="translate(-3.868 -4.614)" fill="#151315"/>
      </g>
    </g>
    <g id="Group_988" data-name="Group 988" transform="translate(12.199 3.277)">
      <g id="Group_987" data-name="Group 987" clip-path="url(#clip-path-2)">
        <rect id="Rectangle_543" data-name="Rectangle 543" width="0.48" height="0.394" transform="translate(-0.027 0)" fill="url(#radial-gradient)"/>
      </g>
    </g>
    <g id="Group_990" data-name="Group 990" transform="translate(13.612 3.474)">
      <g id="Group_989" data-name="Group 989" clip-path="url(#clip-path-3)">
        <rect id="Rectangle_544" data-name="Rectangle 544" width="0.637" height="0.631" transform="translate(-0.065 0)" fill="url(#radial-gradient-2)"/>
      </g>
    </g>
    <g id="Group_992" data-name="Group 992" transform="translate(0 0)">
      <g id="Group_991" data-name="Group 991" transform="translate(0 0)" clip-path="url(#clip-path)">
        <path id="Path_920" data-name="Path 920" d="M24.463,10a5.489,5.489,0,0,0-.79.218c-.312.086-.514-.089-.841-.089.041.393.7.309,1.147.219s.851-.385,1.171-.11c-.12.072-.244-.005-.382.044a1.865,1.865,0,0,1-.739.131c0,.305.309.417.357.719a4.709,4.709,0,0,1,.077.851c-.26-.165-.141-.423-.2-.7-.042-.177-.15-.261-.2-.436h-.129c.087.387.133.613.2,1,.038.209.111.354,0,.545a2.363,2.363,0,0,0-.178-.786h-.1c0,.545.226.878.026,1.4-.1.261.026.47-.154.7,0-.468.351-.838,0-1.2h-.054a2.315,2.315,0,0,1-.382,1.418,2.838,2.838,0,0,0-.79,1.744h-.077c-.056-1.048.816-1.548.816-2.6h-.1c-.082.743-.571,1.057-.841,1.766-.142.388-.386.554-.534.938-.131.338.077.559.077.916-.475,0-.48-.618-.332-1a6.032,6.032,0,0,1,.509-.959c-.127.009-.129.132-.2.218a3,3,0,0,0-.331.437,7.474,7.474,0,0,0-.306.785c-.264.561-.077,1.167-.714,1.439a3.516,3.516,0,0,1,.28-.633c.147-.31.023-.549.2-.85a1.078,1.078,0,0,0,.2-.632c-.151.04-.091.209-.178.327a1.839,1.839,0,0,0-.306.83c-.108.479-.161.864-.636,1.133a1.446,1.446,0,0,1,.153-.589c.134-.346.049-.542.268-.855a1.823,1.823,0,0,0,.318-.693c-.217.028-.22.232-.331.393a2.8,2.8,0,0,0-.382.872c-.094.282-.024.481-.179.742-.128.21-.267.3-.408.5h-.075c0-.377.219-.564.28-.938a2.207,2.207,0,0,1,.221-.931,1.15,1.15,0,0,0,.212-.573c-.146.018-.159.149-.229.261-.233.357-.165.63-.357,1-.249.486-.07.941-.535,1.287a5.5,5.5,0,0,0-.076-1.025c0-.23-.1-.387.025-.588.089-.151.165-.316.025-.437a2.1,2.1,0,0,1-.331.741.109.109,0,0,0-.051-.087,1.135,1.135,0,0,0,.178-.655H18.68a2.18,2.18,0,0,1-.306.633c-.085.169-.082.3-.228.436-.224.2-.408.283-.613.5.035-.337.269-.483.484-.763a8.354,8.354,0,0,0,.427-.777c.115-.179.262-.327.262-.531-.246.031-.272.248-.382.436-.192.316-.192.556-.459.828a4.63,4.63,0,0,0-.51.481c-.2.281-.051.517-.051.849-.308-.131-.251-.447-.2-.741a1.954,1.954,0,0,1,.229-.676,4.175,4.175,0,0,0,.586-1.4h-.152c0,.312-.54.76-.739.5.3-.01.384-.3.686-.327v-.109c-.32.013-.451.2-.763.261-.252.051-.65-.15-.536-.348a1.083,1.083,0,0,0,.917-.11,2.026,2.026,0,0,1,.382-.262c.126-.048.271-.075.282-.2-.141,0-.323-.01-.331-.131.629-.1.821-.569,1.3-.872a3.145,3.145,0,0,1,.714-.37,2.393,2.393,0,0,1,.916-.021.111.111,0,0,1,.052-.088c-.08-.14-.245-.128-.407-.2a.291.291,0,0,0,.051-.13c.64,0,.91-.36,1.478-.611.293-.128.359-.321.561-.545s.559-.232.559-.5c-.212,0-.34.18-.534.108a1.379,1.379,0,0,1-.561-.327,1.285,1.285,0,0,0-1.07-.5c-.2.016-.269.149-.382.283-.182.207-.339.292-.509.5-.1.126-.3-.017-.46-.088-.079-.036-.191-.033-.2-.108-.021-.129.122-.176.2-.284.245.1.651.018.663-.218a.449.449,0,0,0-.408-.524c-.133,0-.175.111-.305.132s-.239-.063-.357,0c-.146.079-.118.252-.281.305-.123.04-.216-.127-.2-.241a.958.958,0,0,0,.178-.043.356.356,0,0,0-.255-.328c.111-.31.56-.24.943-.24s.522-.284.892-.284c.188,0,.348-.085.484.023.168.131.057.315.178.48.185.25.542.066.892.066-.032-.314-.334-.428-.661-.568a1.079,1.079,0,0,1-.384-.217c-.1-.1.128-.191.256-.261a7.826,7.826,0,0,0,1.68.479c.351.026.5.238.841.284.366.048.634-.044.943.132" transform="translate(-10.02 -5.566)" fill="#ededec"/>
        <path id="Path_921" data-name="Path 921" d="M17.246,18.287a.037.037,0,0,1-.014,0c-.329-.14-.275-.472-.227-.765l0-.016a2,2,0,0,1,.232-.686c.061-.12.121-.227.176-.329a2.992,2.992,0,0,0,.4-1.013H17.74a.757.757,0,0,1-.612.579.233.233,0,0,1-.191-.092.037.037,0,0,1,0-.038.037.037,0,0,1,.031-.021.533.533,0,0,0,.33-.153.677.677,0,0,1,.321-.169v-.038a.959.959,0,0,0-.369.125,1.3,1.3,0,0,1-.351.133.463.463,0,0,1-.092.009.6.6,0,0,1-.48-.225.177.177,0,0,1,0-.185.036.036,0,0,1,.041-.017,1.427,1.427,0,0,0,.359.051.965.965,0,0,0,.53-.157,1.318,1.318,0,0,0,.144-.11.8.8,0,0,1,.244-.156l.065-.023c.093-.032.156-.057.182-.1-.124,0-.31-.02-.319-.164a.037.037,0,0,1,.031-.038,1.482,1.482,0,0,0,.841-.5,2.746,2.746,0,0,1,.443-.37l.026-.017a3.1,3.1,0,0,1,.695-.358,1.031,1.031,0,0,1,.356-.06c.086,0,.17.009.259.017s.182.018.285.02a.138.138,0,0,1,.031-.059.375.375,0,0,0-.215-.106,1.107,1.107,0,0,1-.157-.05.036.036,0,0,1-.02-.022.036.036,0,0,1,0-.03l.01-.018a.212.212,0,0,0,.036-.1A.036.036,0,0,1,20.227,13a1.7,1.7,0,0,0,.968-.337,4.014,4.014,0,0,1,.495-.271.924.924,0,0,0,.4-.348c.045-.06.093-.122.152-.188a.969.969,0,0,1,.283-.195c.129-.068.243-.128.264-.243a.641.641,0,0,0-.187.061.534.534,0,0,1-.215.061.3.3,0,0,1-.1-.019,1.42,1.42,0,0,1-.574-.335,1.254,1.254,0,0,0-1.041-.491.42.42,0,0,0-.307.209l-.05.061a2.547,2.547,0,0,1-.247.24,2.069,2.069,0,0,0-.261.261.168.168,0,0,1-.137.063.665.665,0,0,1-.271-.094c-.033-.016-.065-.033-.1-.046a.474.474,0,0,0-.074-.024c-.065-.017-.138-.037-.152-.112-.017-.106.053-.166.121-.224a.587.587,0,0,0,.09-.088.036.036,0,0,1,.043-.011.573.573,0,0,0,.219.04c.185,0,.386-.08.393-.227a.515.515,0,0,0-.121-.379.33.33,0,0,0-.251-.107.232.232,0,0,0-.141.058.361.361,0,0,1-.158.073.5.5,0,0,1-.17-.012.261.261,0,0,0-.175.008.282.282,0,0,0-.113.136.3.3,0,0,1-.173.172.164.164,0,0,1-.177-.055.307.307,0,0,1-.073-.225.036.036,0,0,1,.035-.032.3.3,0,0,0,.1-.021l.046-.014a.326.326,0,0,0-.231-.266.036.036,0,0,1-.02-.046c.085-.238.344-.271.611-.271.061,0,.122,0,.184,0s.122,0,.181,0a.84.84,0,0,0,.428-.138.921.921,0,0,1,.464-.146,1.1,1.1,0,0,0,.166-.017,1,1,0,0,1,.148-.016.3.3,0,0,1,.192.063.343.343,0,0,1,.123.277.387.387,0,0,0,.062.21.3.3,0,0,0,.267.116,1.723,1.723,0,0,0,.266-.03,2.307,2.307,0,0,1,.286-.034c-.048-.25-.3-.357-.589-.48l-.087-.037a.975.975,0,0,1-.351-.206.1.1,0,0,1-.034-.089c.012-.081.128-.142.241-.2l.057-.03a.036.036,0,0,1,.027,0,6.1,6.1,0,0,1,.643.217,3.287,3.287,0,0,0,1.031.261,1.131,1.131,0,0,1,.453.146,1.145,1.145,0,0,0,.391.138c.359.047.634-.047.956.136a.037.037,0,0,1,.018.038.036.036,0,0,1-.03.03,3,3,0,0,0-.525.136c-.079.026-.162.054-.26.082a.7.7,0,0,1-.184.025,1.188,1.188,0,0,1-.315-.054,1.452,1.452,0,0,0-.308-.057c.038.148.2.22.484.22a3.184,3.184,0,0,0,.612-.075,2.874,2.874,0,0,0,.367-.109,1.6,1.6,0,0,1,.5-.117.5.5,0,0,1,.339.123.037.037,0,0,1,.012.031.035.035,0,0,1-.017.028.285.285,0,0,1-.152.038c-.023,0-.045,0-.068,0a.453.453,0,0,0-.168.012,1.87,1.87,0,0,1-.713.134.6.6,0,0,0,.165.319.747.747,0,0,1,.19.357,4.745,4.745,0,0,1,.077.857.037.037,0,0,1-.019.032.038.038,0,0,1-.037,0,.477.477,0,0,1-.2-.47,1.213,1.213,0,0,0-.022-.251.723.723,0,0,0-.1-.22,1.006,1.006,0,0,1-.094-.188h-.057c.077.345.122.568.2.96.007.042.017.082.025.12a.544.544,0,0,1-.03.451.036.036,0,0,1-.041.017.037.037,0,0,1-.027-.035,1.719,1.719,0,0,0-.119-.6c-.016-.047-.032-.1-.049-.15h-.04a3.041,3.041,0,0,0,.058.488,1.5,1.5,0,0,1-.034.884.816.816,0,0,0-.044.3.6.6,0,0,1-.115.408.036.036,0,0,1-.041.012.037.037,0,0,1-.024-.035,1.7,1.7,0,0,1,.086-.473c.073-.255.135-.475-.061-.69h0a2.3,2.3,0,0,1-.387,1.4l-.157.22a2.38,2.38,0,0,0-.626,1.5.037.037,0,0,1-.037.037h-.077a.037.037,0,0,1-.037-.035,2.423,2.423,0,0,1,.406-1.345,2.573,2.573,0,0,0,.409-1.216h-.033a2.293,2.293,0,0,1-.444,1.02,3.61,3.61,0,0,0-.4.722,2,2,0,0,1-.274.486,2.035,2.035,0,0,0-.26.452.747.747,0,0,0,.014.516,1.426,1.426,0,0,1,.065.388.037.037,0,0,1-.037.037.4.4,0,0,1-.349-.174,1.043,1.043,0,0,1-.017-.879,4,4,0,0,1,.334-.665l-.021.025a2.54,2.54,0,0,0-.272.367,1.774,1.774,0,0,0-.175.426,2.432,2.432,0,0,1-.129.355,2.311,2.311,0,0,0-.161.566,1,1,0,0,1-.572.891.036.036,0,0,1-.038-.006.037.037,0,0,1-.011-.037,2.1,2.1,0,0,1,.187-.447c.03-.059.062-.121.1-.192a1,1,0,0,0,.084-.39.95.95,0,0,1,.122-.463,1.064,1.064,0,0,0,.2-.554.218.218,0,0,0-.048.121.4.4,0,0,1-.063.168,1.535,1.535,0,0,0-.272.69c-.008.04-.017.082-.027.126l-.023.1a1.344,1.344,0,0,1-.631,1.053.036.036,0,0,1-.037,0,.036.036,0,0,1-.018-.031,1.241,1.241,0,0,1,.122-.516l.034-.086a1.611,1.611,0,0,0,.087-.358,1.062,1.062,0,0,1,.184-.506,1.8,1.8,0,0,0,.3-.623c-.089.032-.125.111-.168.207A.961.961,0,0,1,20.41,16a2.349,2.349,0,0,0-.333.728l-.044.135a1.387,1.387,0,0,0-.058.311.965.965,0,0,1-.124.438,1.641,1.641,0,0,1-.222.281,2.023,2.023,0,0,0-.187.224.036.036,0,0,1-.03.016h-.076A.036.036,0,0,1,19.3,18.1a1.216,1.216,0,0,1,.142-.533,1.581,1.581,0,0,0,.139-.41c.016-.1.024-.184.033-.266a1.519,1.519,0,0,1,.192-.677l.035-.063a1.044,1.044,0,0,0,.17-.445c-.056.023-.08.073-.111.14a.836.836,0,0,1-.049.094,1.45,1.45,0,0,0-.2.525,1.817,1.817,0,0,1-.157.475,1.787,1.787,0,0,0-.156.538,1.032,1.032,0,0,1-.391.762.037.037,0,0,1-.041,0,.037.037,0,0,1-.017-.037,1.553,1.553,0,0,0-.026-.572,2.358,2.358,0,0,1-.05-.447,1.3,1.3,0,0,0-.019-.2.551.551,0,0,1,.049-.409c.083-.141.125-.251.077-.337a1.883,1.883,0,0,1-.258.573l-.062.105a.037.037,0,0,1-.038.018.036.036,0,0,1-.03-.03c-.007-.036-.015-.052-.032-.061a.037.037,0,0,1-.014-.051,1.1,1.1,0,0,0,.173-.6h-.01a1.245,1.245,0,0,1-.185.408c-.038.063-.079.128-.118.2a1.248,1.248,0,0,0-.063.155.631.631,0,0,1-.173.292,2.992,2.992,0,0,1-.275.217,2.135,2.135,0,0,0-.336.283.037.037,0,0,1-.063-.029.972.972,0,0,1,.318-.578c.057-.063.116-.128.174-.2a1.7,1.7,0,0,0,.236-.413,2.3,2.3,0,0,1,.19-.362c.026-.04.054-.08.082-.119a.784.784,0,0,0,.172-.347c-.133.034-.181.139-.24.268-.021.046-.044.094-.071.142a2.219,2.219,0,0,0-.161.335,1.372,1.372,0,0,1-.3.5,2.266,2.266,0,0,1-.224.2,1.428,1.428,0,0,0-.282.278.619.619,0,0,0-.075.532,1.817,1.817,0,0,1,.03.3.037.037,0,0,1-.016.03.039.039,0,0,1-.02.006m.46-2.885h.152a.036.036,0,0,1,.028.013.035.035,0,0,1,.008.029,3,3,0,0,1-.414,1.079c-.056.1-.114.208-.175.327a1.926,1.926,0,0,0-.225.664l0,.016c-.044.273-.086.531.132.659a2.169,2.169,0,0,0-.028-.224.693.693,0,0,1,.087-.586,1.47,1.47,0,0,1,.3-.292,2.251,2.251,0,0,0,.218-.193,1.3,1.3,0,0,0,.288-.476,2.3,2.3,0,0,1,.166-.345,1.5,1.5,0,0,0,.067-.134c.066-.143.134-.292.341-.318a.037.037,0,0,1,.029.009.036.036,0,0,1,.012.028.75.75,0,0,1-.188.434c-.027.038-.054.076-.08.116a2.189,2.189,0,0,0-.184.352,1.783,1.783,0,0,1-.245.429c-.059.077-.12.143-.178.208a1.05,1.05,0,0,0-.278.424,2.578,2.578,0,0,1,.262-.208,3.036,3.036,0,0,0,.269-.212.568.568,0,0,0,.154-.262,1.352,1.352,0,0,1,.066-.163c.041-.08.082-.146.121-.21a1.143,1.143,0,0,0,.182-.413.036.036,0,0,1,.036-.03H18.7a.037.037,0,0,1,.037.037,1.157,1.157,0,0,1-.167.645l.01.012.024-.04a1.732,1.732,0,0,0,.264-.624.037.037,0,0,1,.024-.028.035.035,0,0,1,.036.007c.176.152.051.367-.017.483a.478.478,0,0,0-.04.36,1.365,1.365,0,0,1,.02.209,2.313,2.313,0,0,0,.048.433,1.729,1.729,0,0,1,.038.5,1.009,1.009,0,0,0,.293-.659,1.851,1.851,0,0,1,.162-.559,1.753,1.753,0,0,0,.151-.457,1.523,1.523,0,0,1,.208-.548.812.812,0,0,0,.044-.086c.041-.087.083-.176.211-.192a.038.038,0,0,1,.029.009.037.037,0,0,1,.012.028,1.034,1.034,0,0,1-.181.528l-.035.063a1.435,1.435,0,0,0-.183.649c-.008.079-.018.169-.033.27a1.649,1.649,0,0,1-.144.429,1.2,1.2,0,0,0-.135.467h.019a2.18,2.18,0,0,1,.182-.216,1.578,1.578,0,0,0,.213-.269.9.9,0,0,0,.114-.408,1.431,1.431,0,0,1,.062-.327c.016-.047.03-.092.044-.134a2.4,2.4,0,0,1,.343-.747.92.92,0,0,0,.077-.146c.053-.118.108-.24.279-.262a.039.039,0,0,1,.032.012.038.038,0,0,1,.009.033,1.858,1.858,0,0,1-.324.706.989.989,0,0,0-.172.475,1.66,1.66,0,0,1-.092.372l-.034.087a1.273,1.273,0,0,0-.115.423,1.3,1.3,0,0,0,.54-.972l.023-.1c.009-.043.018-.085.026-.125a1.6,1.6,0,0,1,.285-.719.34.34,0,0,0,.05-.139c.017-.08.035-.171.148-.2a.038.038,0,0,1,.031.006.036.036,0,0,1,.014.029,1.119,1.119,0,0,1-.208.651.874.874,0,0,0-.111.43,1.077,1.077,0,0,1-.091.416c-.034.073-.066.135-.1.194a2.192,2.192,0,0,0-.157.355c.336-.177.392-.468.456-.8a2.349,2.349,0,0,1,.166-.584,2.363,2.363,0,0,0,.126-.346,1.84,1.84,0,0,1,.182-.442,2.535,2.535,0,0,1,.28-.376l.055-.065a.412.412,0,0,0,.052-.085c.033-.065.071-.138.177-.145a.036.036,0,0,1,.033.017.037.037,0,0,1,0,.038c-.049.086-.1.162-.139.234a4.261,4.261,0,0,0-.368.72.98.98,0,0,0,.009.811.321.321,0,0,0,.252.141,1.479,1.479,0,0,0-.062-.33.819.819,0,0,1-.011-.561,2.074,2.074,0,0,1,.269-.468,1.936,1.936,0,0,0,.266-.47,3.652,3.652,0,0,1,.4-.737,2.207,2.207,0,0,0,.436-1.02.036.036,0,0,1,.036-.033h.1a.036.036,0,0,1,.037.037A2.587,2.587,0,0,1,22.8,14.3a2.366,2.366,0,0,0-.4,1.272h.006a2.5,2.5,0,0,1,.64-1.509c.051-.071.1-.143.157-.22a2.288,2.288,0,0,0,.375-1.4.04.04,0,0,1,.037-.038h.054a.037.037,0,0,1,.026.011.549.549,0,0,1,.154.283,1.715,1.715,0,0,0-.034-.615,2.954,2.954,0,0,1-.059-.538.037.037,0,0,1,.037-.037h.1a.037.037,0,0,1,.035.026c.019.063.038.12.056.175a2.256,2.256,0,0,1,.109.411.922.922,0,0,0-.032-.2c-.009-.039-.018-.079-.026-.123-.075-.408-.121-.632-.2-1a.035.035,0,0,1,.007-.031.036.036,0,0,1,.028-.014H24a.036.036,0,0,1,.035.026.859.859,0,0,0,.1.2.807.807,0,0,1,.108.241,1.255,1.255,0,0,1,.024.267.453.453,0,0,0,.107.366,4.732,4.732,0,0,0-.075-.772.681.681,0,0,0-.175-.323.622.622,0,0,1-.183-.4.036.036,0,0,1,.037-.037,1.83,1.83,0,0,0,.726-.129.5.5,0,0,1,.2-.017.469.469,0,0,0,.123,0,.431.431,0,0,0-.241-.068,1.551,1.551,0,0,0-.472.113,3.11,3.11,0,0,1-.377.112,3.266,3.266,0,0,1-.627.076c-.351,0-.541-.11-.564-.327a.036.036,0,0,1,.009-.028.035.035,0,0,1,.027-.012,1.377,1.377,0,0,1,.371.061,1.147,1.147,0,0,0,.3.051.627.627,0,0,0,.164-.022c.1-.028.179-.055.257-.081a3.392,3.392,0,0,1,.424-.119,3.52,3.52,0,0,0-.83-.079,1.223,1.223,0,0,1-.414-.145,1.058,1.058,0,0,0-.425-.138A3.347,3.347,0,0,1,21.567,9.3a6.065,6.065,0,0,0-.621-.211l-.045.024c-.073.038-.2.1-.2.147,0,0,0,.011.013.025a.93.93,0,0,0,.328.192l.088.037c.312.133.606.258.639.58a.037.037,0,0,1-.009.028.037.037,0,0,1-.027.012,1.969,1.969,0,0,0-.317.034,1.829,1.829,0,0,1-.278.031.373.373,0,0,1-.327-.146.457.457,0,0,1-.075-.246.278.278,0,0,0-.1-.226.223.223,0,0,0-.147-.047.932.932,0,0,0-.137.014,1.161,1.161,0,0,1-.178.017.845.845,0,0,0-.429.138.915.915,0,0,1-.463.146c-.06,0-.121,0-.183,0s-.122,0-.182,0c-.262,0-.453.034-.529.192a.376.376,0,0,1,.243.346.036.036,0,0,1-.03.036.52.52,0,0,0-.067.019.437.437,0,0,1-.082.022.244.244,0,0,0,.056.138.1.1,0,0,0,.1.034.227.227,0,0,0,.131-.136.354.354,0,0,1,.143-.166.342.342,0,0,1,.224-.015.439.439,0,0,0,.146.011.293.293,0,0,0,.126-.061.3.3,0,0,1,.183-.071.406.406,0,0,1,.3.13.584.584,0,0,1,.14.433c-.013.263-.436.35-.688.259a.815.815,0,0,1-.083.079c-.068.058-.107.094-.1.155,0,.027.04.038.1.053a.559.559,0,0,1,.085.028c.032.014.065.031.1.048.127.064.258.124.318.05a2.154,2.154,0,0,1,.27-.27,2.453,2.453,0,0,0,.24-.233l.048-.059a.49.49,0,0,1,.358-.236,1.325,1.325,0,0,1,1.1.512,1.348,1.348,0,0,0,.548.318.344.344,0,0,0,.264-.04.617.617,0,0,1,.257-.07.036.036,0,0,1,.037.037c0,.186-.155.268-.306.347a.913.913,0,0,0-.262.178c-.058.064-.1.125-.148.183a1,1,0,0,1-.425.371,3.993,3.993,0,0,0-.486.266,1.8,1.8,0,0,1-.975.348.277.277,0,0,1-.03.074c.037.013.073.023.109.032a.392.392,0,0,1,.277.166.034.034,0,0,1,0,.028.037.037,0,0,1-.017.022c-.019.011-.028.027-.033.062a.036.036,0,0,1-.036.031,3.067,3.067,0,0,1-.321-.02c-.087-.009-.169-.017-.252-.017a.949.949,0,0,0-.331.056,2.951,2.951,0,0,0-.68.35l-.026.017a2.7,2.7,0,0,0-.432.361,1.563,1.563,0,0,1-.839.509c.038.057.168.065.284.065a.037.037,0,0,1,.037.04c-.011.125-.134.167-.243.2l-.063.022a.728.728,0,0,0-.223.143,1.3,1.3,0,0,1-.152.115,1.036,1.036,0,0,1-.569.169,1.439,1.439,0,0,1-.348-.046.106.106,0,0,0,.014.088.529.529,0,0,0,.417.189.409.409,0,0,0,.078-.007,1.24,1.24,0,0,0,.332-.127.992.992,0,0,1,.437-.135.041.041,0,0,1,.016,0,.215.215,0,0,0,0-.031.037.037,0,0,1,.037-.037m-.651.564a.172.172,0,0,0,.073.015.67.67,0,0,0,.461-.319.671.671,0,0,0-.248.145.683.683,0,0,1-.286.159" transform="translate(-9.962 -5.509)" fill="#151315"/>
      </g>
    </g>
    <g id="Group_994" data-name="Group 994" transform="translate(5.603 3.799)">
      <g id="Group_993" data-name="Group 993" clip-path="url(#clip-path-5)">
        <rect id="Rectangle_546" data-name="Rectangle 546" width="2.781" height="1.681" transform="translate(-0.009 0)" fill="url(#radial-gradient-3)"/>
      </g>
    </g>
    <g id="Group_996" data-name="Group 996" transform="translate(0 0)">
      <g id="Group_995" data-name="Group 995" transform="translate(0 0)" clip-path="url(#clip-path)">
        <path id="Path_923" data-name="Path 923" d="M28.308,11.238h.077a.39.39,0,0,0,.026.065.14.14,0,0,1-.1-.065" transform="translate(-17.304 -6.87)" fill="#ededec"/>
        <path id="Path_924" data-name="Path 924" d="M28.308,11.238h.077a.39.39,0,0,0,.026.065A.14.14,0,0,1,28.308,11.238Z" transform="translate(-17.304 -6.87)" fill="none" stroke="#fff" stroke-miterlimit="2.613" stroke-width="0.846"/>
      </g>
    </g>
    <g id="Group_998" data-name="Group 998" transform="translate(4.434 4.564)">
      <g id="Group_997" data-name="Group 997" clip-path="url(#clip-path-7)">
        <rect id="Rectangle_548" data-name="Rectangle 548" width="0.314" height="0.262" transform="translate(-0.087 0)" fill="url(#radial-gradient-4)"/>
      </g>
    </g>
    <g id="Group_1000" data-name="Group 1000" transform="translate(0 0)">
      <g id="Group_999" data-name="Group 999" transform="translate(0 0)" clip-path="url(#clip-path)">
        <path id="Path_926" data-name="Path 926" d="M10.024,12.8a.4.4,0,0,1,0,.089c-.012.124-.194.2-.127.3.038.065.149.06.178.132.095.219-.068.4.051.609a2.224,2.224,0,0,0,.816.807c.316.218.4.48.789.589a5.121,5.121,0,0,1,1.555.653c.152.1.306.224.23.371a1.136,1.136,0,0,1-1.045.546c-.029.16.056.255.1.414C12,17.413,11.68,17,11.323,16.6a.93.93,0,0,1-.306-.5c-.054-.339-.059-.786-.457-.786a.619.619,0,0,1-.077.328A.511.511,0,0,1,10.1,15.2c-.031-.2.109-.344,0-.525a.251.251,0,0,0-.305-.108c-.143.06-.258.237-.382.153-.1-.068-.1-.15-.179-.239-.124-.153-.082-.3-.051-.481.03-.152-.251-.152-.432-.152-.415,0-.434-.475-.434-.829.147-.026.227.134.256.263.149-.019.165-.159.2-.284.331.024.414.292.561.545.225-.06.093-.318.076-.524a.934.934,0,0,0,.535-.218Z" transform="translate(-5.084 -7.827)" fill="#ededec"/>
      </g>
    </g>
    <g id="Group_1002" data-name="Group 1002" transform="translate(9.424 4.978)">
      <g id="Group_1001" data-name="Group 1001" clip-path="url(#clip-path-9)">
        <rect id="Rectangle_550" data-name="Rectangle 550" width="0.459" height="0.323" transform="translate(0 0)" fill="url(#radial-gradient-5)"/>
      </g>
    </g>
    <g id="Group_1004" data-name="Group 1004" transform="translate(5.985 5.131)">
      <g id="Group_1003" data-name="Group 1003" clip-path="url(#clip-path-10)">
        <rect id="Rectangle_551" data-name="Rectangle 551" width="3.338" height="0.812" transform="translate(0 0)" fill="url(#radial-gradient-6)"/>
      </g>
    </g>
    <g id="Group_1006" data-name="Group 1006" transform="translate(0 0)">
      <g id="Group_1005" data-name="Group 1005" transform="translate(0 0)" clip-path="url(#clip-path)">
        <path id="Path_929" data-name="Path 929" d="M40.948,13.843c-.126.15-.352.08-.56.023a2.778,2.778,0,0,0-.866-.065,1.425,1.425,0,0,0-1.147.5,2.388,2.388,0,0,0-.535.742c-.229.537-.089.94-.459,1.417-.175-.136-.1-.328-.026-.522a3.043,3.043,0,0,0,.178-.763c.081-.5.373-.736.74-1.134a1.476,1.476,0,0,1,.763-.524,1.387,1.387,0,0,1,.943,0c.369.14.586.22.967.328" transform="translate(-22.785 -8.211)" fill="#ededec"/>
      </g>
    </g>
    <g id="Group_1008" data-name="Group 1008" transform="translate(2.776 5.414)">
      <g id="Group_1007" data-name="Group 1007" clip-path="url(#clip-path-12)">
        <rect id="Rectangle_553" data-name="Rectangle 553" width="0.225" height="0.196" transform="translate(-0.002 0)" fill="url(#radial-gradient-7)"/>
      </g>
    </g>
    <g id="Group_1010" data-name="Group 1010" transform="translate(0 0)">
      <g id="Group_1009" data-name="Group 1009" transform="translate(0 0)" clip-path="url(#clip-path)">
        <path id="Path_931" data-name="Path 931" d="M42.79,14.875c.376,0,.678-.052.944.175s.532.491.866.348c-.1.323-.671.293-.992.11s-.424-.463-.817-.545Z" transform="translate(-26.156 -9.089)" fill="#ededec"/>
      </g>
    </g>
    <g id="Group_1012" data-name="Group 1012" transform="translate(6.597 6.418)">
      <g id="Group_1011" data-name="Group 1011" clip-path="url(#clip-path-14)">
        <rect id="Rectangle_555" data-name="Rectangle 555" width="0.588" height="0.261" transform="translate(0 0)" fill="url(#radial-gradient-8)"/>
      </g>
    </g>
    <g id="Group_1014" data-name="Group 1014" transform="translate(3.685 6.483)">
      <g id="Group_1013" data-name="Group 1013" clip-path="url(#clip-path-15)">
        <rect id="Rectangle_556" data-name="Rectangle 556" width="0.512" height="0.568" transform="translate(-0.046 0)" fill="url(#radial-gradient-9)"/>
      </g>
    </g>
    <g id="Group_1016" data-name="Group 1016" transform="translate(3.458 6.963)">
      <g id="Group_1015" data-name="Group 1015" clip-path="url(#clip-path-16)">
        <rect id="Rectangle_557" data-name="Rectangle 557" width="0.217" height="0.311" transform="translate(-0.039 0)" fill="url(#radial-gradient-10)"/>
      </g>
    </g>
    <g id="Group_1018" data-name="Group 1018" transform="translate(0 0)">
      <g id="Group_1017" data-name="Group 1017" transform="translate(0 0)" clip-path="url(#clip-path)">
        <path id="Path_935" data-name="Path 935" d="M39.025,19.372c.233.008.265.234.356.414.157.306-.012.6-.3.828-.488.377-1,.241-1.656.241-.687,0-1.237-.38-1.759,0a1.743,1.743,0,0,0-.586.5c-.15.248-.077.453-.23.7-.248-.154-.089-.42-.025-.676a2.074,2.074,0,0,1,.357-.653c.14-.218.375-.237.636-.349a1.3,1.3,0,0,1,.739-.2,10.62,10.62,0,0,0,1.656.262.816.816,0,0,0,.79-.372c.126-.247,0-.424.025-.7" transform="translate(-21.218 -11.842)" fill="#ededec"/>
      </g>
    </g>
    <g id="Group_1020" data-name="Group 1020" transform="translate(4.891 7.9)">
      <g id="Group_1019" data-name="Group 1019" clip-path="url(#clip-path-18)">
        <rect id="Rectangle_559" data-name="Rectangle 559" width="0.248" height="0.211" transform="translate(0 0)" fill="url(#radial-gradient-11)"/>
      </g>
    </g>
    <g id="Group_1022" data-name="Group 1022" transform="translate(0 0)">
      <g id="Group_1021" data-name="Group 1021" transform="translate(0 0)" clip-path="url(#clip-path)">
        <path id="Path_937" data-name="Path 937" d="M37.622,23.521H37.7a2.064,2.064,0,0,1,.154.611.18.18,0,0,0-.126.065.535.535,0,0,1-.1-.677" transform="translate(-22.949 -14.378)" fill="#ededec"/>
        <path id="Path_938" data-name="Path 938" d="M35.335,27.548c-.277-.033-.355-.241-.51-.437a1.285,1.285,0,0,1-.356-.894,1,1,0,0,1,.3-.894A2.41,2.41,0,0,1,35.412,25c.665-.32,1.2.021,1.961.021.4,0,.692.127,1.02-.065.153-.087.28-.137.356-.284.063-.122.052-.272.2-.3.288,0,.236.37.18.61-.064.271-.334.33-.586.5-.554.379-1.1,0-1.81,0-.649,0-1.229.072-1.528.566a1.239,1.239,0,0,0,.127,1.506" transform="translate(-21.07 -14.893)" fill="#ededec"/>
        <path id="Path_939" data-name="Path 939" d="M12.568,27.281c-.214.368-.3.589-.51.959-.14.254-.005.5-.229.7-.133.122-.312.043-.509.043a.565.565,0,0,1-.611.436.39.39,0,0,0-.026-.151c-.162.067-.332-.045-.459.065-.155.133-.088.3-.2.457-.071.1-.2.082-.33.132-.186.069-.414.261-.511.108-.105-.171.179-.283.179-.479-.337,0-.608.16-.865-.023-.22-.155-.179-.365-.179-.611.206-.016.227.252.434.262A.627.627,0,0,0,8.772,29c.3.095.523.218.816.109.515-.193.695-.483,1.2-.7a1.874,1.874,0,0,0,.814-.435c.294-.341.475-.7.969-.7" transform="translate(-5.08 -16.676)" fill="#ededec"/>
        <path id="Path_940" data-name="Path 940" d="M38.9,27.73c.185.049.166.224.255.37.163.269.356.414.356.72-.29,0-.321-.283-.458-.5s-.305-.394-.153-.59" transform="translate(-23.742 -16.951)" fill="#ededec"/>
        <path id="Path_941" data-name="Path 941" d="M25.017,28.4c.287.075.23.356.358.588a4.617,4.617,0,0,0,.356.654,4.314,4.314,0,0,0,.79.765c.118.1.109.236.255.3a5.964,5.964,0,0,1,1.249.873c.42.328.8.457.992.915.091.215.156.336.256.546.146.313.026.558.229.85a.919.919,0,0,0,.511.436.832.832,0,0,0,.839-.2c.161-.144-.168-.285-.228-.479a.629.629,0,0,1,.179-.72,1.6,1.6,0,0,1,1.5-.174c0,.348-.56.348-.968.348a.439.439,0,0,0-.458.284c-.051.18.111.278.152.458h.128c0-.2-.209-.344-.076-.5a.212.212,0,0,1,.255-.043c.073.038.013.122,0,.2-.07.372-.054.665-.383.915a1.2,1.2,0,0,1-.407.262c-.558.183-1.3-.145-1.325-.654-.395,0-.386.417-.559.72a.916.916,0,0,1-.1-.284h-.178a.882.882,0,0,1-.331.72c-.035-.126-.063-.2-.1-.327-.167.023-.2.15-.307.261-.146.158-.3.205-.432.372-.173.212-.051.416-.179.653-.047.091-.13.139-.126.241a3.618,3.618,0,0,0,1.121-.2c.26-.075.426.079.687.151.235.065.369-.1.611-.151v.086c-.232.008-.289.2-.509.262-.172.049-.281-.05-.459-.066a11.025,11.025,0,0,0-1.146.13.461.461,0,0,0,0,.176c.22,0,.363.079.561,0,.182-.073.329-.182.509-.11.093.036.087.134.178.176-.08.184-.261.25-.484.3-.086.02-.182.114-.126.175a.262.262,0,0,0,.306.023A3.525,3.525,0,0,1,29.272,37c-.1.176-.307.172-.511.261a1.97,1.97,0,0,1-.915.239c-.023.2.372.211.585.131a1.125,1.125,0,0,1,.688-.152c-.012.14-.21.133-.357.2a1.64,1.64,0,0,1-.763.152c.035.218.378.152.637.152-.118.277-.472.285-.816.285,0,.188.315.153.535.153,0,.348-.417.482-.814.567a.934.934,0,0,0,.024.175,1.35,1.35,0,0,1,.331.021c-.05.275-.414.326-.739.326v.22c-.145.03-.28.051-.331.174-.028.071.1.167.177.131.132-.059.323-.16.384-.043.031.062-.073.114-.154.131a1.607,1.607,0,0,0-.355.153c-.148.061-.269-.187-.409-.109-.175.094-.178.256-.178.436-.347,0-.52.175-.867.175.023.206.358.458.128.522a.394.394,0,0,1-.484-.327c-.01-.188.1-.286.178-.459.069-.147-.049-.28.05-.413.061-.084.2-.066.306-.023a.754.754,0,0,0-.1.284c.274-.012.364-.215.536-.393.312-.32.481-.513.765-.851.235-.283.126-.543.126-.895,0-.2-.155-.392.026-.522.114-.083.279-.11.279-.241a1.145,1.145,0,0,1-.483-.065c-.236-.082-.447.117-.664,0-.242-.131-.253-.344-.253-.588a.215.215,0,0,0-.179.3,1.187,1.187,0,0,1,.179.61c-.168-.131-.029-.335-.179-.479a.79.79,0,0,1-.279-.436h-.154a3.407,3.407,0,0,1,0,.96c-.035.149-.076.426-.228.348-.176-.09-.154-.259-.154-.436,0-.767.1-1.2.1-1.963,0-.4.233-.613.511-.938a4.174,4.174,0,0,1,.484-.588,2.3,2.3,0,0,0,.534-.611c.112-.18.033-.321,0-.522a.88.88,0,0,0-.2-.546,3.929,3.929,0,0,0-1.631-.938,5.55,5.55,0,0,0-.56-.3A3.186,3.186,0,0,1,22.9,30.8c-.129-.1-.348-.139-.307-.284.073-.256.427-.2.663-.37a3.539,3.539,0,0,1,.637-.328A1.843,1.843,0,0,0,25.017,28.4" transform="translate(-13.809 -17.363)" fill="#ededec"/>
        <path id="Path_942" data-name="Path 942" d="M40.718,29.525c.243.033.231.327.154.522a.6.6,0,0,1-.459.415c-.568.131-.971-.087-1.5.131-.117.047-.216-.005-.332.045a.9.9,0,0,0-.534.741.633.633,0,0,0,.306.741c.14.077.3.024.408.131a1.181,1.181,0,0,1-1.3-.567.925.925,0,0,1,.459-1.265,2.994,2.994,0,0,1,1.477-.349c.575-.013,1.325-.055,1.325-.545" transform="translate(-22.835 -18.048)" fill="#ededec"/>
        <path id="Path_943" data-name="Path 943" d="M20.859,31.26a1.131,1.131,0,0,1-.561-.611c-.056-.175.172-.257.332-.37.089-.065.089-.173.2-.2.461-.054.466.638.28,1-.051.1-.185.265-.255.176" transform="translate(-12.402 -18.387)" fill="#ededec"/>
        <path id="Path_944" data-name="Path 944" d="M41.546,32.789a.382.382,0,0,0,.077-.065c.229.031.29.211.383.392s.359.344.2.5c-.089.093-.232-.074-.306-.175a3.507,3.507,0,0,1-.358-.654" transform="translate(-25.396 -20.003)" fill="#ededec"/>
        <path id="Path_945" data-name="Path 945" d="M12.1,34.349a.271.271,0,0,1,.026.088c-.212.052-.312.175-.535.175-.01-.2.276-.262.509-.262" transform="translate(-7.088 -20.997)" fill="#ededec"/>
      </g>
    </g>
    <g id="Group_1024" data-name="Group 1024" transform="translate(3.678 13.375)">
      <g id="Group_1023" data-name="Group 1023" clip-path="url(#clip-path-20)">
        <rect id="Rectangle_561" data-name="Rectangle 561" width="0.477" height="0.501" transform="translate(-0.056 0)" fill="url(#radial-gradient-12)"/>
      </g>
    </g>
    <g id="Group_1026" data-name="Group 1026" transform="translate(0 0)">
      <g id="Group_1025" data-name="Group 1025" transform="translate(0 0)" clip-path="url(#clip-path)">
        <path id="Path_947" data-name="Path 947" d="M43.665,35.244c0,.259-.031.507-.3.611a2.555,2.555,0,0,1-1.02.023.759.759,0,0,0-.662.37c-.146.212.1.482.383.545v.065a.664.664,0,0,1-.79-.436c-.051-.316.127-.515.357-.763.356-.385.86-.239,1.425-.305a4.9,4.9,0,0,1,.611-.11" transform="translate(-25.222 -21.544)" fill="#ededec"/>
      </g>
    </g>
    <g id="Group_1028" data-name="Group 1028" transform="translate(4.788 13.745)">
      <g id="Group_1027" data-name="Group 1027" clip-path="url(#clip-path-22)">
        <rect id="Rectangle_563" data-name="Rectangle 563" width="0.204" height="0.261" transform="translate(0 0)" fill="url(#radial-gradient-13)"/>
      </g>
    </g>
    <g id="Group_1030" data-name="Group 1030" transform="translate(0 0)">
      <g id="Group_1029" data-name="Group 1029" transform="translate(0 0)" clip-path="url(#clip-path)">
        <path id="Path_949" data-name="Path 949" d="M43.9,37.492a.361.361,0,0,1,.255.566c-.258-.082-.275-.33-.255-.566" transform="translate(-26.83 -22.918)" fill="#ededec"/>
        <path id="Path_950" data-name="Path 950" d="M28.111,38.167a.707.707,0,0,1,.687.522c.112,0,.249-.014.255-.109.15.063.157.2.306.262.214.09.411.274.306.456-.171.295-.791.006-.917-.3a.514.514,0,0,0,.3.066c-.019-.186-.214-.242-.382-.35a1.487,1.487,0,0,1-.56-.544" transform="translate(-17.183 -23.33)" fill="#ededec"/>
        <path id="Path_951" data-name="Path 951" d="M20.256,39.016c.164,0,.224.147.255.284a.243.243,0,0,0,.2-.153,2.769,2.769,0,0,1,.738.414c.143.082.284.033.433.109-.112.085-.137.2-.281.24-.745.212-1.445-.439-2.012.022a3.366,3.366,0,0,1-.815.5c-.146.065-.28-.014-.433.043-.235.087-.4.248-.636.152-.089-.035-.127-.1-.229-.108a.348.348,0,0,0,.382.306c.264-.017.4-.131.662-.131,0,.178-.026.351.152.436.277.131.508,0,.816.065v.089h-.535c0,.266.472.128.739.261a.569.569,0,0,1,.357.653c-.24-.13-.249-.358-.51-.457-.185-.069-.682-.005-.51.087.192.1.407-.008.56.131.24.214.386.473.23.741-.08-.341-.281-.677-.688-.677.007.132.143.178.255.262.166.129.176.273.229.458.093.308.128.6-.153.807,0-.166.029-.319-.126-.415-.091-.054-.208.006-.282-.066-.1-.094-.1-.261-.254-.261a2.44,2.44,0,0,0,0,.306.068.068,0,0,1-.025-.045h-.128v.263a.721.721,0,0,0-.1-.109h-.077a1,1,0,0,0,.1.524c.049.092-.021.207.077.261-.122.21-.414.123-.687.154.085-.178.4-.206.355-.394-.454,0-.672.35-.814.72-.039.1.035.229-.077.261a.317.317,0,0,1-.306-.108c-.132-.124.138-.287.052-.438-.253.108-.326.26-.561.394-.182-.211-.005-.54.279-.634.131-.04.237.034.358-.021.209-.1.248-.248.382-.414.227-.282.166-.515.229-.851a.88.88,0,0,0-.077-.763c-.238-.348-.758-.07-1.172-.26a.588.588,0,0,1-.358-.48c-.12-.646.537-.96.537-1.614h-.129c-.1.458-.55.943-1.069.785V40.28a1.2,1.2,0,0,0,.993-.96,1.411,1.411,0,0,1,1.121-.872c.182-.046.255-.139.433-.2.417-.136.7.044,1.147.044a2.7,2.7,0,0,1,.79.152c.255.068.178.338.178.567" transform="translate(-9.532 -23.352)" fill="#ededec"/>
        <path id="Path_952" data-name="Path 952" d="M24.88,49.645c-.213-.067-.182-.266-.331-.414-.108-.106-.271-.12-.306-.262.38-.093.637.339.637.676" transform="translate(-14.819 -29.926)" fill="#151315"/>
        <path id="Path_953" data-name="Path 953" d="M16.161,51.909a.456.456,0,0,1,.1.675h-.1c.029-.264-.135-.438,0-.675" transform="translate(-9.846 -31.731)" fill="#ededec"/>
        <path id="Path_954" data-name="Path 954" d="M17.235,52.413c.182.065.428.181.332.327-.073.114-.2.134-.332.2a.93.93,0,0,1,0-.524" transform="translate(-10.512 -32.039)" fill="#ededec"/>
      </g>
    </g>
    <g id="Group_1032" data-name="Group 1032" transform="translate(5.882 20.44)">
      <g id="Group_1031" data-name="Group 1031" clip-path="url(#clip-path-24)">
        <rect id="Rectangle_565" data-name="Rectangle 565" width="0.319" height="0.349" transform="translate(-0.012 0)" fill="url(#radial-gradient-14)"/>
      </g>
    </g>
    <g id="Group_1034" data-name="Group 1034" transform="translate(8.7 20.942)">
      <g id="Group_1033" data-name="Group 1033" clip-path="url(#clip-path-25)">
        <rect id="Rectangle_566" data-name="Rectangle 566" width="0.203" height="0.349" transform="translate(-0.016 0)" fill="url(#radial-gradient-15)"/>
      </g>
    </g>
    <g id="Group_1036" data-name="Group 1036" transform="translate(0 0)">
      <g id="Group_1035" data-name="Group 1035" transform="translate(0 0)" clip-path="url(#clip-path)">
        <path id="Path_957" data-name="Path 957" d="M16.983,54.477c-.187.006-.242-.147-.408-.218.128-.119.36.062.408.218" transform="translate(-10.132 -33.143)" fill="#ededec"/>
      </g>
    </g>
    <g id="Group_1038" data-name="Group 1038" transform="translate(6.415 21.312)">
      <g id="Group_1037" data-name="Group 1037" clip-path="url(#clip-path-27)">
        <rect id="Rectangle_568" data-name="Rectangle 568" width="0.109" height="0.196" transform="translate(-0.006 0)" fill="url(#radial-gradient-16)"/>
      </g>
    </g>
    <g id="Group_1040" data-name="Group 1040" transform="translate(0 0)">
      <g id="Group_1039" data-name="Group 1039" transform="translate(0 0)" clip-path="url(#clip-path)">
        <path id="Path_959" data-name="Path 959" d="M18.455,55.263c.226-.063.609.283.407.392-.079.043-.143-.052-.229-.087-.168-.068-.3,0-.484-.023a.369.369,0,0,1,.305-.283" transform="translate(-11.095 -33.776)" fill="#ededec"/>
      </g>
    </g>
    <g id="Group_1042" data-name="Group 1042" transform="translate(7.318 22.032)">
      <g id="Group_1041" data-name="Group 1041" clip-path="url(#clip-path-29)">
        <rect id="Rectangle_570" data-name="Rectangle 570" width="0.155" height="0.328" transform="translate(-0.022 0)" fill="url(#radial-gradient-17)"/>
      </g>
    </g>
    <g id="Group_1044" data-name="Group 1044" transform="translate(0 0)">
      <g id="Group_1043" data-name="Group 1043" transform="translate(0 0)" clip-path="url(#clip-path)">
        <path id="Path_961" data-name="Path 961" d="M28.327,58.183c.2-.053.323.255.229.414-.051.084-.118.117-.178.2-.2-.157-.316-.543-.05-.61" transform="translate(-17.22 -35.562)" fill="#ededec"/>
      </g>
    </g>
    <g id="Group_1046" data-name="Group 1046" transform="translate(13.318 22.948)">
      <g id="Group_1045" data-name="Group 1045" clip-path="url(#clip-path-31)">
        <rect id="Rectangle_572" data-name="Rectangle 572" width="0.172" height="0.239" transform="translate(-0.014 0)" fill="url(#radial-gradient-18)"/>
      </g>
    </g>
    <g id="Group_1048" data-name="Group 1048" transform="translate(10.673 22.991)">
      <g id="Group_1047" data-name="Group 1047" clip-path="url(#clip-path-32)">
        <rect id="Rectangle_573" data-name="Rectangle 573" width="0.128" height="0.196" transform="translate(-0.004 0)" fill="url(#radial-gradient-19)"/>
      </g>
    </g>
    <g id="Group_1050" data-name="Group 1050" transform="translate(12.024 23.427)">
      <g id="Group_1049" data-name="Group 1049" clip-path="url(#clip-path-33)">
        <rect id="Rectangle_574" data-name="Rectangle 574" width="0.509" height="0.28" transform="translate(0 0)" fill="url(#radial-gradient-20)"/>
      </g>
    </g>
    <g id="Group_1052" data-name="Group 1052" transform="translate(11.238 23.972)">
      <g id="Group_1051" data-name="Group 1051" clip-path="url(#clip-path-34)">
        <rect id="Rectangle_575" data-name="Rectangle 575" width="0.171" height="0.239" transform="translate(-0.026 0)" fill="url(#radial-gradient-21)"/>
      </g>
    </g>
  </g>
</svg>
