<svg xmlns="http://www.w3.org/2000/svg" xmlns:xlink="http://www.w3.org/1999/xlink" width="26.405" height="31.97" viewBox="0 0 26.405 31.97">
  <defs>
    <filter id="Union_4" x="0" y="0" width="26.405" height="31.97" filterUnits="userSpaceOnUse">
      <feOffset dy="1" input="SourceAlpha"/>
      <feGaussianBlur stdDeviation="1" result="blur"/>
      <feFlood flood-opacity="0.161"/>
      <feComposite operator="in" in2="blur"/>
      <feComposite in="SourceGraphic"/>
    </filter>
    <clipPath id="clip-path">
      <rect id="Rectangle_540" data-name="Rectangle 540" width="20.96" height="27.217" fill="none"/>
    </clipPath>
  </defs>
  <g id="tirol-fleg" transform="translate(3 1.484)">
    <g transform="matrix(1, 0, 0, 1, -3, -1.48)" filter="url(#Union_4)">
      <path id="Union_4-2" data-name="Union 4" d="M.014,16.232H0V0H20.405V16.232h-.014a10.2,10.2,0,0,1-20.376,0Z" transform="translate(3 2)" fill="#fff"/>
    </g>
    <g id="Group_984" data-name="Group 984" transform="translate(0 0)">
      <g id="Group_983" data-name="Group 983" transform="translate(0 0)" clip-path="url(#clip-path)">
        <path id="Path_855" data-name="Path 855" d="M0,0H20.959V16.736A10.48,10.48,0,0,1,0,16.736Z" transform="translate(0 0)" fill="#fff"/>
        <path id="Path_856" data-name="Path 856" d="M24.976,14.479l-.072.031c-.013,0-.161,0-.207,0a.667.667,0,0,1-.154-.009l-.025,0-.247-.048a2.291,2.291,0,0,0-.429-.044,1.828,1.828,0,0,0-.386.037l-.076.017-.15.039-.009-.031-.005-.015c-.012-.042-.026-.083-.041-.123a.316.316,0,0,0-.02-.044l-.073-.136-.009-.13a.256.256,0,0,0,0-.026.085.085,0,0,0,0-.016.556.556,0,0,0-.03-.066.681.681,0,0,0-.047-.071l-.288-.406a.5.5,0,0,1-.064-.069.168.168,0,0,1-.026-.048.05.05,0,0,1,0-.031.047.047,0,0,1,.015-.025.1.1,0,0,1,.028-.016.1.1,0,0,1,.034,0l.049,0a.408.408,0,0,1,.054.015l.07.024.076.029.1.041.111.048c.048.021.095.043.141.067.022.011.043.023.064.036l.037.027.16.131.018.016.038.03L24.025,13l.464.811c.012-.014.023-.027.036-.039l.018-.02c.032-.033.066-.066.1-.1a.98.98,0,0,1,.1-.077c.037-.026.075-.052.114-.076.055-.036.11-.07.167-.1.039-.023.078-.045.118-.065a1.07,1.07,0,0,1,.1-.048.251.251,0,0,1,.09-.021.08.08,0,0,1,.048.013.067.067,0,0,1,.025.027.046.046,0,0,1,0,.027.178.178,0,0,1-.031.066,1.427,1.427,0,0,1-.137.153.266.266,0,0,0-.039.05c-.04.067-.077.135-.113.2-.02.039-.039.079-.057.12s-.031.073-.045.11a.961.961,0,0,0-.04.148.818.818,0,0,0-.012.149c0,.014,0,.026,0,.039s.037.085.039.111" transform="translate(-13.626 -7.833)" fill="#1a1818"/>
        <path id="Path_857" data-name="Path 857" d="M28.006,40.886c.1.246.2.462.217.515a3.034,3.034,0,0,0,.2.476,7.856,7.856,0,0,0,.416.715l.039.059.029.048a.206.206,0,0,1,.023.05.026.026,0,0,1,0,.019.039.039,0,0,1-.02.02.107.107,0,0,1-.049.006.2.2,0,0,1-.046-.01.515.515,0,0,1-.06-.027L28.5,42.62c-.016-.009-.031-.019-.046-.029-.052-.036-.1-.073-.154-.11l.73,1.845h.059l1.115-.845a.515.515,0,0,1,.158-.079.354.354,0,0,1,.147-.009l.017,0,.044.012.036-.023.029-.017a.607.607,0,0,1,.229-.078.472.472,0,0,1,.216.023.285.285,0,0,1,.135.1.253.253,0,0,1,.05.149.241.241,0,0,1-.056.159.19.19,0,0,1-.13.068h-.037a.421.421,0,0,0-.012-.063.043.043,0,0,0-.009-.02.114.114,0,0,0-.072-.045.33.33,0,0,0-.146.005l-.024.007-.03.009.011.039,0,.02a.286.286,0,0,1-.009.138.3.3,0,0,1-.071.12.347.347,0,0,1-.152.09.27.27,0,0,1-.157,0,.105.105,0,0,1-.022-.009l-.044-.021-.556.308,1.037,0a.337.337,0,0,1,.063.007.194.194,0,0,1,.05.02.179.179,0,0,1,.03.018c.014.01.029.022.042.033l.045-.01.036-.008a.484.484,0,0,1,.221.012.369.369,0,0,1,.166.1.409.409,0,0,1,.111.306.242.242,0,0,1-.145.205l-.023.007-.062.009a.466.466,0,0,0-.008-.078.277.277,0,0,0-.016-.058.252.252,0,0,0-.114-.133.174.174,0,0,0-.145-.009l-.022.012-.042.032-.016.025-.013.019a.381.381,0,0,1-.248.154.353.353,0,0,1-.272-.068l-.021-.018-.032-.031-1.037-.046.5.921a1.085,1.085,0,0,1,.055.12.432.432,0,0,1,.026.086l0,.012,0,.039c.012.024.025.049.036.074s.017.04.024.06a.467.467,0,0,1,.019.242.3.3,0,0,1-.094.169.293.293,0,0,1-.194.075.374.374,0,0,1-.224-.073.356.356,0,0,1-.029-.023l-.036-.032c.023-.009.044-.019.065-.03a.536.536,0,0,0,.046-.029.188.188,0,0,0,.055-.062.174.174,0,0,0,.022-.079V46.3l-.035.008-.027.005a.466.466,0,0,1-.244-.021.349.349,0,0,1-.166-.13A.3.3,0,0,1,29.095,46a.366.366,0,0,1,.043-.18l.014-.024.019-.032-.368-.915-.656-.029-.018.029-.014.02a.374.374,0,0,1-.321.147.36.36,0,0,1-.292-.188.154.154,0,0,1-.012-.026.387.387,0,0,1-.016-.039l-.029-.015-.014-.006a.226.226,0,0,0-.105-.018.208.208,0,0,0-.095.032.5.5,0,0,0-.066.051.784.784,0,0,0-.076.082l-.019-.021-.011-.014a.316.316,0,0,1-.064-.2.246.246,0,0,1,.069-.17.348.348,0,0,1,.183-.1.54.54,0,0,1,.26.011l.025.008.033.011.058-.025a.1.1,0,0,1,.023-.008.267.267,0,0,1,.046-.008,1.03,1.03,0,0,1,.1-.008l.588-.026-.691-1.458c-.009.023-.018.048-.027.071a.128.128,0,0,0-.007.027l-.023.124a.112.112,0,0,1-.015.04.161.161,0,0,1-.029.037.176.176,0,0,1-.03.021.037.037,0,0,1-.017.006.067.067,0,0,1-.034-.006.068.068,0,0,1-.029-.023.343.343,0,0,1-.046-.08.662.662,0,0,1-.035-.127,2.113,2.113,0,0,0-.117-.41,5.572,5.572,0,0,0-.3-.631l-.326-.594-.02-.037-.018-.035-.02-.114s-.112.91-.147,1.207c-.027.228.031.6.023.828a2.931,2.931,0,0,0,.077.758,3.168,3.168,0,0,0,.278.743,2.725,2.725,0,0,0,.25.393,3.437,3.437,0,0,0,.344.389l.051.049.1.095-.079.03-.04.014a.842.842,0,0,1-.329.031.98.98,0,0,1-.34-.1l-.048-.026-.063-.035c-.005.023-.008.045-.012.067a.116.116,0,0,0,0,.023.232.232,0,0,0,.019.083,1,1,0,0,0,.08.151,1.619,1.619,0,0,0,.285.331,1.207,1.207,0,0,0,.321.2,1.585,1.585,0,0,0,.366.106,2.187,2.187,0,0,0,.444.025l.106-.006.136-.01c-.025.056-.052.111-.081.166a.482.482,0,0,1-.041.062.772.772,0,0,1-.361.257,1.224,1.224,0,0,1-.555.056,1.159,1.159,0,0,1-.255-.064,1.186,1.186,0,0,1-.236-.118c-.019-.012-.037-.024-.054-.038-.036-.025-.071-.052-.106-.079H26.7c0,.028.01.055.015.083,0,.009,0,.018.007.027a.837.837,0,0,0,.041.109c.033.071.069.139.107.207s.067.115.1.171.062.1.095.145a.565.565,0,0,1,.037.062.256.256,0,0,1,.019.048.132.132,0,0,1,0,.066.089.089,0,0,1-.023.045.188.188,0,0,1-.11.05.3.3,0,0,1-.154-.027,1,1,0,0,1-.135-.077,1.684,1.684,0,0,1-.17-.134l-.021-.018-.042-.036-.023.092-.011.046c-.016.07-.032.141-.049.21-.006.023-.012.045-.017.068a.827.827,0,0,1-.072.17.816.816,0,0,1-.112.157c-.012.014-.092.1-.092.1V40.886Zm.848,0c.071.155.147.309.227.461a3.105,3.105,0,0,0,.182.3l.008.013.055.072-.16-.213-.079-.107q-.125-.172-.243-.35-.059-.089-.115-.18Zm2.358,0c.076.145.154.291.232.435.314.541.608,1.094.906,1.643a.132.132,0,0,1,.01.048.1.1,0,0,1-.009.041l-.008.017-.018.025-.078.025-.019,0a.562.562,0,0,1-.206-.011A1.525,1.525,0,0,1,31.706,43a4.24,4.24,0,0,1-.569-.344,2.738,2.738,0,0,1-.407-.357,5.476,5.476,0,0,1-.54-.674c-.162-.239-.371-.661-.511-.912Zm1.094,0,.077.072c.086.08.175.16.264.236s.19.16.288.236l.056.044.114.088-.12-.052L32.96,41.5a2.688,2.688,0,0,1-.381-.236c-.159-.117-.312-.243-.457-.375Zm2.4,0,.129.148c-.03.01-.059.019-.089.028a.294.294,0,0,1-.035.008.643.643,0,0,1-.138.008,1.149,1.149,0,0,1-.18-.025,3.942,3.942,0,0,1-.513-.154l-.033-.013h.859" transform="translate(-15.728 -24.536)" fill="#1a1818"/>
        <path id="Path_858" data-name="Path 858" d="M26.093,21.748l0-9.672.135.009.666.059a.831.831,0,0,0,.224-.01.86.86,0,0,0,.217-.069.489.489,0,0,1,.078-.031.3.3,0,0,1,.052-.013.082.082,0,0,1,.035,0,.043.043,0,0,1,.021.017.072.072,0,0,1,.011.028.056.056,0,0,1,0,.027.324.324,0,0,1-.05.082.853.853,0,0,1-.114.113l-.041.037c-.026.024-.051.049-.075.074a.334.334,0,0,0,.077.011.121.121,0,0,0,.041,0l.082-.022a.029.029,0,0,1,.014,0,.036.036,0,0,1,.02.012.04.04,0,0,1,.008.022.1.1,0,0,1-.019.06.292.292,0,0,1-.077.073.518.518,0,0,1-.064.035.436.436,0,0,1-.053.021c-.029.008-.057.016-.086.022-.047.01-.095.018-.142.025l.033.1.016.049c.065.19.135.378.213.564s.157.361.244.538c.028.055.057.109.089.162a.873.873,0,0,0,.07.1l.015.018.048.051a.986.986,0,0,1-.1.082,1.519,1.519,0,0,1-.142.1s.087.9.089,1.01c0,.054,0,.108,0,.161,0,.1,0,.2,0,.3,0,.045,0,.089,0,.135l0,.033-.013.11.084-.025.041-.014a.806.806,0,0,0,.125-.061,1.167,1.167,0,0,0,.141-.1l.073-.062c.031-.027.062-.054.092-.082q-.046-.127-.087-.255c-.013-.043-.025-.087-.034-.13a1.527,1.527,0,0,1,0-.6,1.854,1.854,0,0,1,.239-.618c.023-.037.046-.073.07-.11l.093-.138.029.053.007.013a1.517,1.517,0,0,1,.155.662,1.772,1.772,0,0,1-.15.719l-.023.052-.031.067.055-.008.1-.1c.008-.007.014-.014.02-.021a3.439,3.439,0,0,0,.3-.4,4.545,4.545,0,0,0,.275-.491,4.112,4.112,0,0,0,.218-.561,1.039,1.039,0,0,0,.043-.3l-.008-.048-.122-.094-.059-.049a2.007,2.007,0,0,1-.509-.675,2.133,2.133,0,0,1-.2-.85c0-.035,0-.068,0-.1s0-.088,0-.132l.123.053.039.019a1.421,1.421,0,0,1,.478.425,1.8,1.8,0,0,1,.291.655c.008.039.017.076.023.115s.018.1.026.148L29.554,13l0-.019a2.653,2.653,0,0,0-.052-.833,4.685,4.685,0,0,0-.369-1.047l-.034-.068-.044-.089-.16-.014-.124-.012a2.935,2.935,0,0,1-.823-.205,1.282,1.282,0,0,1-.46-.322.2.2,0,0,1-.021-.027c-.029-.043-.056-.088-.083-.132.043-.014.088-.025.132-.037.017,0,.035-.008.054-.012a1.348,1.348,0,0,1,.514,0,1.661,1.661,0,0,1,.53.207l.074.045.093.061-.058-.082-.02-.026a1.883,1.883,0,0,0-.16-.178c-.076-.075-.156-.147-.239-.216l-.037-.031-.049-.04L28.1,9.913l-.09-.014a2.145,2.145,0,0,1-.75-.266A1.888,1.888,0,0,1,26.7,9.14c-.012-.016-.024-.033-.036-.05-.023-.033-.046-.068-.069-.1l.12-.023.03,0a1.454,1.454,0,0,1,.8.165,2.024,2.024,0,0,1,.717.638l.035.052.045.068.065.057.033.028c.054.047.106.1.156.146.077.077.152.155.225.235l.043.048.087.1-.027-.082-.021-.064a2.663,2.663,0,0,1-.11-.56,2.1,2.1,0,0,1,.017-.513l.006-.04.014-.079.067.032.016.01a1.132,1.132,0,0,1,.506.66,1.4,1.4,0,0,1-.055.925c-.011.026-.023.052-.034.077s-.031.065-.048.1l.033.068.016.033a4.674,4.674,0,0,1,.2.488,4.937,4.937,0,0,1,.141.51l.01.053.021.1c.012-.013.024-.025.037-.036a.149.149,0,0,1,.025-.019.231.231,0,0,1,.208-.021.246.246,0,0,1,.145.162.258.258,0,0,1-.032.206.23.23,0,0,1-.169.1.294.294,0,0,1-.059,0,.56.56,0,0,1-.086-.017l0,.07v.035c0,.093,0,.186-.011.279s-.022.194-.039.289l-.014.073-.031.144.048-.093.037-.072a2.512,2.512,0,0,1,.377-.524,1.906,1.906,0,0,1,.439-.347l.048-.026.133-.064c.007.033.012.066.018.1a.161.161,0,0,1,0,.019,1.221,1.221,0,0,1-.236.764,1.945,1.945,0,0,1-.79.629l-.08.033-.105.041-.027.087-.014.045q-.03.1-.063.193t-.065.186a4.094,4.094,0,0,1-.262.58,2.489,2.489,0,0,1-.271.4l-.029.032c-.034.037-.07.073-.105.109l.075-.021.058-.015a2.064,2.064,0,0,1,.586-.064,1.388,1.388,0,0,1,.471.1.258.258,0,0,1,.032.014l.106.053-.083.08-.02.017a1.729,1.729,0,0,1-.677.339,2.335,2.335,0,0,1-.881.048l-.108-.016-.141-.023-.077.05-.039.024c-.028.017-.056.033-.085.047-.077.039-.156.078-.234.115l-.036.018-.072.034-.008.088,0,.043c-.016.179-.035.357-.054.535-.008.068-.017.135-.029.2l0,.019-.022.1.211-.007.106,0c.236,0,.472-.016.707-.03.151-.01.3-.024.453-.043a2.227,2.227,0,0,0,.725-.219,1.355,1.355,0,0,0,.667-.749,2.015,2.015,0,0,0,.114-.511l.1-1.145a1.313,1.313,0,0,1,.064-.3,1.07,1.07,0,0,1,.124-.25,1.46,1.46,0,0,1,.267-.3,1.259,1.259,0,0,1,.316-.2c.115-.05.408-.141.528-.18.192-.033.843-.267,1.035-.3l.45-.083c.215-.041.429-.09.64-.148a2.332,2.332,0,0,0,.332-.117c.035-.016.071-.029.108-.042a.742.742,0,0,1,.085-.023.13.13,0,0,1,.039,0,.024.024,0,0,1,.016.008.029.029,0,0,1,.007.015.226.226,0,0,1,0,.04.71.71,0,0,1-.036.155.523.523,0,0,1-.063.126,1.584,1.584,0,0,1-.489.472,3.868,3.868,0,0,1-.422.226,5.453,5.453,0,0,1-.514.205l-.064.021-.129.042c.036.02.071.041.1.062a.453.453,0,0,1,.053.041.336.336,0,0,1,.044.047.926.926,0,0,1,.054.079l.016.029.021.036.132-.006.027,0,.3-.037.114-.013.238-.018-.082.048-.028.014a1.051,1.051,0,0,1-.127.049c-.078.025-.158.046-.238.065l-.248.058-.011.331.087-.019.044-.009c.129-.027.258-.052.389-.072s.257-.038.387-.052l.908-.1a.529.529,0,0,1,.123,0,.21.21,0,0,1,.071.021.071.071,0,0,1,.026.023.047.047,0,0,1,.009.026.088.088,0,0,1-.01.044.359.359,0,0,1-.046.074,3.693,3.693,0,0,1-.356.375,3.017,3.017,0,0,1-.375.294,3.358,3.358,0,0,1-.506.277,2.918,2.918,0,0,1-.513.168c-.035.008-.071.016-.106.022-.07.014-.141.025-.212.037l-.116.118a.19.19,0,0,0,.005.033.128.128,0,0,0,.025.044.818.818,0,0,0,.075.073.691.691,0,0,1,.065.067q.058.067.109.139l.113.012.057.005c.073.006.147.01.221.013s.149,0,.225,0,.13,0,.194-.008.156-.01.234-.017.173-.017.259-.029c.058-.008.116-.017.173-.027l.035-.008L35,16.291h.062a.022.022,0,0,1,0,.02.094.094,0,0,1-.023.035.128.128,0,0,1-.04.026.544.544,0,0,1-.086.027l-.377.083c-.052.012-.1.021-.158.029-.12.016-.24.03-.36.042s-.215.018-.322.023a1.546,1.546,0,0,1-.161,0,.891.891,0,0,0-.092,0,.2.2,0,0,0-.046.008.143.143,0,0,0-.039.018.091.091,0,0,0-.023.023.183.183,0,0,0-.011.018c-.038.075-.075.15-.111.225a.483.483,0,0,1-.031.054c-.023.033-.047.067-.072.1.1.037.193.073.29.108l.145.051c.052.018.1.034.157.048q.337.1.675.188.235.064.466.131.274.08.545.165.123.038.243.082c.06.023.12.047.18.073a.226.226,0,0,1,.05.031.1.1,0,0,1,.026.031.083.083,0,0,1,.01.027.052.052,0,0,1,0,.022.157.157,0,0,1-.042.061.362.362,0,0,1-.1.06,2.671,2.671,0,0,1-.43.134,3.051,3.051,0,0,1-.477.065c-.2.011-.391.014-.587.006a2.128,2.128,0,0,1-.34-.039l-.948-.185a.509.509,0,0,0-.157-.007.087.087,0,0,0-.057.029l-.068.077-.017.017c-.016.013-.033.024-.05.036l.04.047.021.023a3.18,3.18,0,0,0,.281.277,4.428,4.428,0,0,0,.37.289q.33.229.677.435c.242.142.488.277.74.4l.13.064-.124-.023-.015,0a4.026,4.026,0,0,1-.648-.265,5.757,5.757,0,0,1-.721-.439q-.374-.266-.746-.535c-.016-.012-.031-.024-.046-.037l-.048-.056.009.063,0,.031a.688.688,0,0,1-.014.2.849.849,0,0,1-.079.212l-.016.029-.022.039.118.172.019.027c.078.106.159.208.243.31q.485.588.979,1.17l.779.92.05.058.168.183-.83-.029c-.168-.066-.435-.185-.594-.269a6.256,6.256,0,0,1-.592-.359,6.764,6.764,0,0,1-.572-.441c-.1-.09-.207-.184-.3-.282-.082-.08-.16-.165-.233-.252l-.062-.074c-.04-.049-.08-.1-.12-.15l-.027.007q-.008.045-.017.091c-.005.021-.01.042-.016.062a.48.48,0,0,1-.04.1.413.413,0,0,1-.055.078l-.043.043c-.02.019-.04.038-.06.055l.089.142.045.071a5.6,5.6,0,0,0,.441.591c.164.19.395.432.577.605l-.112.015c-.014-.012-.159-.1-.173-.111q-.244-.225-.472-.466a4.294,4.294,0,0,1-.286-.333c-.035-.046-.07-.092-.1-.139-.068-.095-.134-.189-.2-.285-.023.014-.045.027-.068.039a.294.294,0,0,1-.035.018.351.351,0,0,1-.061.02.737.737,0,0,1-.077.016l-.059.007-.079.008.126.271L30.83,21c.073.153.149.3.226.455.05.1.13.253.182.35h-1.43c-.043-.077-.157-.212-.2-.29l-.345-.667-.056-.1-.038.032-.031.023a.594.594,0,0,1-.246.108.555.555,0,0,1-.257-.012l-.031-.01-.059-.024.014.089,0,.018a2.349,2.349,0,0,0,.079.274c.053.148.112.294.176.438.009.022.019.176.03.2l-.126-.132c-.032-.052-.064-.1-.095-.157a3.667,3.667,0,0,1-.182-.348,2.4,2.4,0,0,1-.108-.288l-.013-.044-.024-.09-.039.02-.03.015a1.065,1.065,0,0,1-.23.082.725.725,0,0,1-.2.016l-.024,0-.068-.011a6.086,6.086,0,0,0,.345.925L26.107,22" transform="translate(-15.725 -5.398)" fill="#1a1818"/>
        <path id="Path_859" data-name="Path 859" d="M6.741,41.019l-.1.059-.062.035.118-.095Zm2.854,0q-.222.242-.455.473a6.149,6.149,0,0,1-.594.518,5.381,5.381,0,0,1-.607.4,2.835,2.835,0,0,1-.34.166,2.984,2.984,0,0,1-.367.121.868.868,0,0,1-.186.027.252.252,0,0,1-.1-.017L6.917,42.7q-.033-.023-.064-.048l.131-.16.9-1.087.3-.386Zm1.511-.088c-.027.037-.114.161-.142.2a4.445,4.445,0,0,1-.444.48,2.076,2.076,0,0,1-.358.267.468.468,0,0,1-.058.031c-.065.031-.13.06-.2.089l.126-.088.033-.025a3.334,3.334,0,0,0,.407-.381,3.975,3.975,0,0,0,.369-.476l0-.006Zm3.226.088v7.416c-.052-.048-.155-.158-.2-.209a.662.662,0,0,1-.066-.079.774.774,0,0,1-.089-.162,1.936,1.936,0,0,1-.088-.272l-.012-.054c-.006-.023-.011-.047-.017-.069l-.051,0-.011,0a.321.321,0,0,0-.048.021c-.067.039-.134.079-.2.12a.46.46,0,0,1-.17.064.351.351,0,0,1-.161-.013.132.132,0,0,1-.053-.03.05.05,0,0,1-.017-.032.04.04,0,0,1,0-.023.146.146,0,0,1,.017-.032.5.5,0,0,1,.035-.042c.022-.023.044-.047.068-.07A1,1,0,0,0,13.4,47.4a1.571,1.571,0,0,0,.123-.226c.015-.033.029-.066.043-.1l.052-.13-.055-.014-.062.032-.048.024a1.992,1.992,0,0,1-.456.163,1.819,1.819,0,0,1-.461.046,1.338,1.338,0,0,1-.578-.149.575.575,0,0,1-.267-.288.146.146,0,0,1-.008-.027c-.007-.039-.013-.077-.017-.115l.1.031a.243.243,0,0,0,.029.008,1.409,1.409,0,0,0,.453.025,1.618,1.618,0,0,0,.466-.124,2.207,2.207,0,0,0,.538-.335,1.16,1.16,0,0,0,.287-.36s0-.006,0-.008l.023-.063-.087.015-.068.012a1.263,1.263,0,0,1-.377,0,.423.423,0,0,1-.2-.083.11.11,0,0,1-.014-.013l-.052-.065.089-.048.014-.008a2.136,2.136,0,0,0,.622-.631,2.644,2.644,0,0,0,.366-.919c.036-.183.145-.862.166-1.048a4.012,4.012,0,0,0-.27-1.447.617.617,0,0,0-.041-.074.4.4,0,0,0-.03-.046c-.021-.031-.043-.06-.064-.09l-.107.184-.023.038-.279.493q-.109.193-.217.387c-.017.03-.033.061-.048.092l-.238.472-.011.02-.078.126-.048-.006c-.012-.017-.025-.035-.036-.054a.137.137,0,0,1-.014-.029.135.135,0,0,1,0-.018c0-.017,0-.034,0-.05a1.341,1.341,0,0,0-.012-.139c-.013-.089-.029-.178-.046-.267l-1.069,1.763,1.223-.012a.3.3,0,0,1,.09.014.216.216,0,0,1,.068.036l.014.012.023.025.073,0,.058,0a.766.766,0,0,1,.2.041.339.339,0,0,1,.114.07.231.231,0,0,1,.057.088.492.492,0,0,1,.027.152.313.313,0,0,1-.016.105.3.3,0,0,1-.155.178.178.178,0,0,1-.1.017l-.02,0-.046-.017.029-.029a.182.182,0,0,0,.019-.023.152.152,0,0,0,.03-.074.143.143,0,0,0-.012-.077.17.17,0,0,0-.056-.069.159.159,0,0,0-.081-.031l-.024,0h-.033l-.019.038-.008.019-.048.116a.164.164,0,0,1-.057.062.525.525,0,0,1-.121.058.313.313,0,0,1-.123.015.264.264,0,0,1-.11-.032A.255.255,0,0,1,12.3,45a.27.27,0,0,1-.048-.067l-.01-.02-.012-.027-1.2-.012-.441.838.016.044.012.034a.411.411,0,0,1,.015.169.274.274,0,0,1-.162.217.329.329,0,0,1-.155.029l-.027,0-.036,0a.287.287,0,0,0-.015.032.144.144,0,0,0-.01.026.2.2,0,0,0-.008.1.154.154,0,0,0,.041.078.181.181,0,0,0,.065.042.227.227,0,0,0,.087.015l.031,0,.04,0c-.01.018-.02.036-.032.054a.1.1,0,0,1-.017.02.181.181,0,0,1-.081.045.326.326,0,0,1-.126.008.394.394,0,0,1-.118-.035.4.4,0,0,1-.1-.067.472.472,0,0,1-.089-.1.271.271,0,0,1-.037-.1.28.28,0,0,1,0-.091.365.365,0,0,1,.029-.1c.006-.015.013-.029.019-.043l.028-.054c-.014-.025-.026-.05-.038-.076a.251.251,0,0,1-.012-.041.211.211,0,0,1,0-.086.206.206,0,0,1,.039-.078.448.448,0,0,1,.037-.045c.037-.043.077-.086.116-.129s.053-.058.078-.089a.247.247,0,0,0,.022-.034l.284-.552-1,.009-.023.03-.013.014a.288.288,0,0,1-.1.067.324.324,0,0,1-.12.025.531.531,0,0,1-.264-.068.236.236,0,0,1-.113-.144.092.092,0,0,1,0-.015c0-.018,0-.037,0-.056a.478.478,0,0,0-.04-.034A.14.14,0,0,0,8.8,44.7a.211.211,0,0,0-.219.023.2.2,0,0,0-.054.252.363.363,0,0,0,.045.068.741.741,0,0,1-.11-.021.162.162,0,0,1-.043-.019.243.243,0,0,1-.106-.165.357.357,0,0,1,.041-.235.473.473,0,0,1,.163-.172.586.586,0,0,1,.249-.088l.039,0,.051,0c.021-.013.042-.025.064-.036a.255.255,0,0,1,.033-.013.272.272,0,0,1,.07-.013.315.315,0,0,1,.075,0l.221.039,1.051.039L9.491,43.9c-.018.01-.037.018-.056.025l-.045.017a.305.305,0,0,1-.132.012.2.2,0,0,1-.1-.041.282.282,0,0,1-.1-.166.337.337,0,0,1,.026-.214.6.6,0,0,1,.03-.054.68.68,0,0,1,.046-.066.4.4,0,0,0-.046-.048.19.19,0,0,0-.031-.026.194.194,0,0,0-.111-.033.2.2,0,0,0-.11.035c-.012.01-.025.019-.037.029a.556.556,0,0,0-.043.044c-.008-.024-.013-.05-.018-.075a.127.127,0,0,1,0-.03.24.24,0,0,1,.084-.17.385.385,0,0,1,.22-.09.365.365,0,0,1,.157.023.379.379,0,0,1,.134.084l.029.029.035.039.058.008.015,0a.352.352,0,0,1,.058.024c.053.028.1.056.154.087l1.147.7.909-1.757-.055.033-.027.017c-.068.043-.137.085-.206.126l-.04.022a.453.453,0,0,1-.07.029.677.677,0,0,1-.083.02.323.323,0,0,1-.048,0,.027.027,0,0,1-.014,0,.059.059,0,0,1-.029-.036.1.1,0,0,1,0-.061.334.334,0,0,1,.052-.1.764.764,0,0,1,.119-.127.337.337,0,0,0,.065-.077q.256-.417.5-.841l.161-.279h2.253" transform="translate(-3.963 -24.669)" fill="#1a1818"/>
        <path id="Path_860" data-name="Path 860" d="M9.411,30.485l.078.015,0-.015h2.087v4.238l-2.312.088.376-.642.008-.014.058-.124-.052.021-.04.014a1.1,1.1,0,0,1-.238.059.8.8,0,0,1-.2,0,.663.663,0,0,1-.191-.054.877.877,0,0,1-.19-.12l-.022-.019-.028-.024c-.029.069-.059.136-.09.2q-.023.05-.048.1a3.125,3.125,0,0,1-.176.309c-.044.07-.09.136-.139.2H8.1c.084-.129.164-.26.238-.395a1.936,1.936,0,0,0,.114-.245l.01-.028.035-.122-.047.021-.013.005a.566.566,0,0,1-.191.029.684.684,0,0,1-.206-.037,1.039,1.039,0,0,1-.192-.091.371.371,0,0,1-.095-.085l-.009-.014c-.01-.019-.02-.039-.028-.058l-.15.185-.075.092q-.275.336-.565.657c-.026.029-.125.116-.151.145l-1.429.041.6-.764c.11-.141.217-.284.323-.428.058-.079.114-.16.168-.242l.048-.075-.042-.034-.055,0-.042,0a.786.786,0,0,1-.149-.027.706.706,0,0,1-.128-.053c-.023-.012-.046-.024-.07-.035a.251.251,0,0,0-.034-.013.1.1,0,0,0-.026,0,.072.072,0,0,0-.022,0,.241.241,0,0,0-.045.023.229.229,0,0,0-.044.034c-.04.039-.079.078-.118.117l-.259.267c-.144.151-.3.294-.452.43a5.959,5.959,0,0,1-.473.368c-.091.064-.182.124-.276.182s-.172.105-.259.156H3.943l.11-.089q.262-.208.52-.424c.042-.034.081-.07.12-.108l.626-.625q.162-.162.312-.335a1.2,1.2,0,0,0,.117-.158l.035-.072c0-.017.007-.033.009-.051a.189.189,0,0,0,0-.022.244.244,0,0,0-.017-.1.459.459,0,0,0-.065-.114.376.376,0,0,0-.079-.074.277.277,0,0,0-.088-.043.255.255,0,0,0-.033-.008l-.058-.011-.079.052-.014.01c-.032.024-.064.049-.093.076-.146.126-.29.253-.433.379-.092.082-.187.16-.285.234s-.21.151-.319.221a4.318,4.318,0,0,1-.6.319,3.987,3.987,0,0,1-.615.207,2.227,2.227,0,0,1-.4.061,1.9,1.9,0,0,1-.378-.015c-.02,0-.039-.006-.058-.01l-.06-.016a.25.25,0,0,1-.059-.027.087.087,0,0,1-.031-.028.079.079,0,0,1-.016-.041.075.075,0,0,1,.008-.042.211.211,0,0,1,.024-.035.288.288,0,0,1,.044-.041c.93-.793,1.866-1.522,2.8-2.3a.787.787,0,0,0-.041-.147.131.131,0,0,0-.035-.052.127.127,0,0,0-.043-.027.894.894,0,0,0-.124-.034L4.57,31.3l-.02.014a2.166,2.166,0,0,1-.365.206,3.516,3.516,0,0,1-.5.176,4.4,4.4,0,0,1-.609.116,2.691,2.691,0,0,1-.487.012l-.063-.005L2.4,31.8c.12-.023.746-.116.865-.143.093-.02.185-.042.276-.065a2.943,2.943,0,0,0,.483-.167,2.074,2.074,0,0,0,.374-.213l.039-.028.078-.06-.043-.073-.021-.037c-.024-.045-.047-.092-.068-.139a1.225,1.225,0,0,1-.045-.123c-.006-.019-.012-.039-.017-.058-.01-.039-.019-.079-.028-.118l-.12.036-.037.01a2.865,2.865,0,0,1-.366.066c-.159.017-.319.027-.48.029a3.939,3.939,0,0,1-.433-.019,3.213,3.213,0,0,1-.379-.06,1.367,1.367,0,0,1-.4-.158Z" transform="translate(-1.212 -18.373)" fill="#1a1818"/>
        <path id="Path_861" data-name="Path 861" d="M2.006,17.518c-.008,0-.4-.139-.411-.143a.925.925,0,0,1-.269-.257.362.362,0,0,1-.041-.075.655.655,0,0,1-.031-.1L1.246,16.9l-.01-.059.092-.012L2,16.7q.72-.139,1.435-.3a2.092,2.092,0,0,0,.3-.089l.1-.049-.039-.042L3.774,16.2a1.234,1.234,0,0,1-.085-.108c-.027-.038-.053-.077-.076-.117L3.6,15.948,3.574,15.9l-.313-.073c-.081-.019-.161-.039-.242-.06a2.743,2.743,0,0,1-.458-.164,1.722,1.722,0,0,1-.326-.2.469.469,0,0,1-.057-.051.709.709,0,0,1-.063-.071l-.031-.041-.04-.054.128.082a.425.425,0,0,0,.037.021,2.6,2.6,0,0,0,.451.2,4.616,4.616,0,0,0,.625.157l.086.012.073.008a.341.341,0,0,0,.064,0,.141.141,0,0,0,.04-.014.112.112,0,0,0,.023-.015A.171.171,0,0,0,3.6,15.61l.008-.011.061-.084a.819.819,0,0,1,.114-.126.55.55,0,0,1,.12-.082l.018-.009.035-.016L3.8,15.211l-.079-.037c-.151-.071-.3-.149-.443-.232s-.263-.159-.388-.248a2.674,2.674,0,0,1-.358-.3,2.43,2.43,0,0,1-.286-.345,1.442,1.442,0,0,1-.1-.165,1.391,1.391,0,0,1-.078-.179.449.449,0,0,1-.021-.087.272.272,0,0,1,0-.072.112.112,0,0,1,.013-.041.055.055,0,0,1,.021-.022.1.1,0,0,1,.039-.012.257.257,0,0,1,.065,0c.043.008.084.017.127.028s.11.029.164.046l.819.244c.14.042.282.08.426.114.088.022.177.039.266.052l.012,0,.071.008,0-.132c-.021-.024-.043-.048-.065-.072L4,13.755,3.6,13.479a.13.13,0,0,1-.022-.019c-.031-.033-.062-.067-.092-.1l.069.041.034.02a1.693,1.693,0,0,0,.156.08,1.619,1.619,0,0,0,.151.063.547.547,0,0,0,.131.029.124.124,0,0,0,.062-.011c.047-.038.085-.071.124-.1a.338.338,0,0,1,.08-.052,1.354,1.354,0,0,1,.179-.065l-.1-.039-.026-.011a2.157,2.157,0,0,1-.32-.178,3.844,3.844,0,0,1-.389-.3c-.1-.09-.2-.185-.3-.283a2.737,2.737,0,0,1-.214-.251.871.871,0,0,1-.1-.171.91.91,0,0,1-.067-.194.164.164,0,0,1-.005-.042.019.019,0,0,1,.005-.014.023.023,0,0,1,.015-.008.139.139,0,0,1,.041,0l.035.011.042.017q.443.215.887.427c.054.026.11.052.166.076.123.055.148.065.273.116,0,0,1.576.607,1.661.642l.136.053a2.113,2.113,0,0,1,.311.148.467.467,0,0,1,.127.106.4.4,0,0,1,.079.146.6.6,0,0,1,.021.2c-.005.07-.014.14-.025.209-.021.125-.046.249-.074.372a2.838,2.838,0,0,0-.068.6,1.645,1.645,0,0,0,.063.462,1.58,1.58,0,0,0,.135.33,3.21,3.21,0,0,0,.277.422,3.452,3.452,0,0,0,.377.408,3.172,3.172,0,0,0,.429.333,3.032,3.032,0,0,0,.487.258,2.922,2.922,0,0,0,.505.161l.055.011.033.007Zm7.021-.13.015-.048c.048,0,.1-.005.142-.01a.409.409,0,0,0,.053-.011.437.437,0,0,0,.126-.06,2.113,2.113,0,0,0,.236-.187,1.667,1.667,0,0,0,.257-.3,1.351,1.351,0,0,0,.159-.32.105.105,0,0,0,.007-.021c.005-.014.009-.028.014-.042l-.227.078.115-.263-.077-.031-.013-.006a2.49,2.49,0,0,1-.253-.14c-.137-.086-.271-.177-.4-.273l-.1-.071-.039.015-.007,0a1.475,1.475,0,0,1-.371.078,1.568,1.568,0,0,1-.393-.017,1.988,1.988,0,0,1-.627-.217,1.225,1.225,0,0,1-.393-.34.17.17,0,0,1-.01-.015c-.017-.027-.032-.054-.048-.08l.1-.044.02-.008a1.424,1.424,0,0,1,.522-.056,2.6,2.6,0,0,1,.692.155l.033.012.043.017-.047-.061-.023-.03a4.041,4.041,0,0,1-.294-.443,4.357,4.357,0,0,1-.239-.483l-.013-.032c-.008-.021-.017-.043-.026-.064l-.037.042a.149.149,0,0,1-.02.018.234.234,0,0,1-.112.052.36.36,0,0,1-.15,0,.3.3,0,0,1-.113-.055.287.287,0,0,1-.11-.244.277.277,0,0,1,.048-.142.257.257,0,0,1,.1-.087.214.214,0,0,1,.113-.027.323.323,0,0,1,.039,0l.06.014-.022-.065-.017-.05a1.768,1.768,0,0,1-.058-.211,1.105,1.105,0,0,1-.023-.162c0-.008,0-.016,0-.024v-.072l-.071-.048-.054-.038A1.745,1.745,0,0,1,7,12.354a1.48,1.48,0,0,1-.162-.741c0-.016,0-.033,0-.048,0-.033.006-.064.01-.1.042.013.084.027.125.043A.257.257,0,0,1,7,11.524a1.018,1.018,0,0,1,.335.288,1.861,1.861,0,0,1,.277.526l.037.116c.015.05.03.1.044.149,0-.062,0-.124,0-.187l0-.094a2.914,2.914,0,0,1,.083-.562,2.869,2.869,0,0,1,.2-.538l.068-.141c.031-.06.062-.119.094-.179-.007-.027-.014-.055-.019-.082s-.01-.043-.015-.064a2.539,2.539,0,0,1-.041-.91,1.792,1.792,0,0,1,.258-.717c.008-.013.017-.025.026-.037.031-.041.062-.082.094-.122.033.038.066.076.1.115a.143.143,0,0,1,.02.032.873.873,0,0,1,.1.371,2.316,2.316,0,0,1-.065.623l-.02.08c-.008.035-.017.069-.025.1l.078-.1.041-.048q.089-.105.186-.2c.091-.093.184-.184.28-.272l.035-.033.07-.064.085-.107c.014-.018.029-.036.044-.052a1.953,1.953,0,0,1,1.389-.663H10.9c-.014.044-.029.089-.045.134,0,.011-.01.021-.014.033a1.227,1.227,0,0,1-.471.487,1.928,1.928,0,0,1-.815.25l-.109.007-.141,0-.061.053-.031.027c-.062.056-.123.114-.179.176s-.126.141-.184.215l-.04.051-.077.1.073-.056.058-.043a1.681,1.681,0,0,1,.46-.236,1.206,1.206,0,0,1,.434-.06l.02,0,.077.009c-.007.023-.015.046-.023.069,0,.005,0,.011-.006.016a1.334,1.334,0,0,1-.479.586,1.6,1.6,0,0,1-.783.274c-.034,0-.068.005-.1.006s-.089,0-.132,0l-.067.073-.008.011a1.95,1.95,0,0,0-.312.647,3.466,3.466,0,0,0-.123.953c0,.033,0,.065,0,.1s0,.083,0,.126c.016-.066.032-.132.05-.2.007-.024.014-.048.022-.072a1.974,1.974,0,0,1,.32-.568,2.741,2.741,0,0,1,.562-.522l.048-.033.064-.043c.006.034.013.068.017.1a.4.4,0,0,1,.008.052,1.458,1.458,0,0,1-.213.934,1.493,1.493,0,0,1-.757.609l-.036.013-.074.023c0,.028,0,.057,0,.085,0,.011,0,.023,0,.034a.907.907,0,0,0,.025.149,1.2,1.2,0,0,0,.052.157c.064.158.135.314.211.466s.169.321.262.478.2.316.3.468a2.53,2.53,0,0,0,.213.265l.006.007.05.048c-.015-.029-.029-.059-.044-.089l-.032-.07a1.24,1.24,0,0,1-.1-.451,1.164,1.164,0,0,1,.068-.439c.011-.027.021-.053.031-.079s.033-.077.05-.115l.06.033.013.008a1.046,1.046,0,0,1,.415.591,1.363,1.363,0,0,1-.039.822c-.008.021-.016.041-.025.061s-.021.053-.033.079l.028.024,0,0a2.144,2.144,0,0,0,.213.146c.124.076.25.147.378.214l.108.056.03-.043a3.517,3.517,0,0,0,.317-.542,1.557,1.557,0,0,0,.122-.389l0-.025c0-.039,0-.079.005-.12a.522.522,0,0,1-.083.036.578.578,0,0,1-.088.011l.046-.216c.019-.048.039-.1.057-.146s.029-.076.042-.114a1.646,1.646,0,0,0,.084-.433,1.444,1.444,0,0,0-.036-.409l-.007-.028-.015-.056a.889.889,0,0,0-.114.025.358.358,0,0,0-.07.027,1.108,1.108,0,0,1-.181.069.058.058,0,0,1-.046-.006.047.047,0,0,1-.022-.025.062.062,0,0,1,0-.037.134.134,0,0,1,.051-.064.347.347,0,0,1,.13-.048c.033-.006.068-.014.1-.022a.15.15,0,0,0,.035-.014l.04-.036-.137.02-.029.006-.493.141a.691.691,0,0,1-.3.017.569.569,0,0,1-.255-.11.709.709,0,0,1-.16-.165,1,1,0,0,1-.121-.239.831.831,0,0,1-.026-.1.522.522,0,0,1-.01-.089.2.2,0,0,1,0-.035.082.082,0,0,1,.01-.027.076.076,0,0,1,.024-.027A.06.06,0,0,1,9,12.8a.093.093,0,0,1,.048.014.094.094,0,0,1,.034.04.11.11,0,0,1,.011.024c0,.013.008.025.011.038a.607.607,0,0,0,.05.126.193.193,0,0,0,.05.06.287.287,0,0,0,.11.058,1,1,0,0,0,.222.036c.087,0,.175,0,.261,0s.171-.01.257-.02.175-.019.262-.026a.982.982,0,0,1,.108,0l.025,0,.087.012-.706-.347-.174.288-.035-.021a.475.475,0,0,1-.11-.117,1.078,1.078,0,0,1-.108-.207,1.121,1.121,0,0,1-.058-.184.886.886,0,0,1-.022-.159.388.388,0,0,1,.021-.147.236.236,0,0,1,.06-.1.353.353,0,0,1,.1-.064.435.435,0,0,1,.126-.034l.42-.032.581-.078a2.071,2.071,0,0,1,.267-.019c.074,0,.149,0,.228,0l1.2,6.268-2.76.629" transform="translate(-0.745 -5.277)" fill="#1a1818"/>
        <path id="Path_862" data-name="Path 862" d="M22.162,18.6c0,.079.008.159.01.239,0,.039,0,.079,0,.119a1.834,1.834,0,0,1-.031.273,4.039,4.039,0,0,1-.095.4.247.247,0,0,1-.008.031c0,.013-.008.026-.012.039l.046-.045.009-.01a.839.839,0,0,0,.128-.22,1.706,1.706,0,0,0,.095-.341c0-.018.006-.037.009-.054s.008-.046.011-.07c.01.045.019.09.028.135a.337.337,0,0,1,0,.049.733.733,0,0,1-.033.224,1.666,1.666,0,0,1-.138.313l-.044.075-.058.1c0,.048-.005.1-.008.145,0,.012,0,.023,0,.035a2.222,2.222,0,0,1-.134.495,4.031,4.031,0,0,1-.313.624l-.05.081-.066.1.146.046-.029.094-.015.047a1.817,1.817,0,0,1-.348.591,1.875,1.875,0,0,1-.549.429l-.03.015-.061.029c0,.031,0,.061-.006.092v.012a3.583,3.583,0,0,0,.033.484q.053.385.138.765c.039.178.083.355.128.532.022.083.046.166.073.248.035.107.075.213.12.317.094.22.193.437.3.653s.2.43.3.647c.076.173.149.347.218.523a5.44,5.44,0,0,1,.226.72,5.007,5.007,0,0,1,.118.719,4.316,4.316,0,0,1,.017.487,4.747,4.747,0,0,1-.036.51,4.077,4.077,0,0,1-.107.559,3.615,3.615,0,0,1-.173.509,2.521,2.521,0,0,1-.307.534,2.128,2.128,0,0,1-.4.406l-.017.014-.037.027c.037.011.073.02.111.029a.432.432,0,0,0,.055.009.571.571,0,0,0,.176-.008.867.867,0,0,0,.209-.07c.062-.029.124-.057.186-.082a.851.851,0,0,1,.1-.032.085.085,0,0,1,.032,0,.045.045,0,0,1,.023.008.091.091,0,0,1,.028.027.046.046,0,0,1,.007.028.125.125,0,0,1-.017.06,1.4,1.4,0,0,1-.12.168l-.322.386a2.05,2.05,0,0,1-.189.2,2.125,2.125,0,0,1-.221.172,1.97,1.97,0,0,1-.525.25,1.268,1.268,0,0,1-.465.049l-.037-.005-.127-.025c.044.032.089.062.135.091a.646.646,0,0,0,.06.034,1.03,1.03,0,0,0,.431.108,1.366,1.366,0,0,0,.5-.081,1.9,1.9,0,0,0,.2-.085,1.481,1.481,0,0,0,.157-.092l.3-.2a.2.2,0,0,1,.049-.024.083.083,0,0,1,.033,0,.055.055,0,0,1,.022.008.029.029,0,0,1,.012.014.105.105,0,0,1,.014.052.316.316,0,0,1-.012.092c-.006.026-.014.051-.021.077s-.012.041-.019.062c-.027.088-.059.175-.095.259a2.007,2.007,0,0,1-.108.212c-.016.028-.033.054-.05.081-.035.053-.07.1-.106.156l.074-.008.03-.007a.3.3,0,0,0,.072-.038.679.679,0,0,0,.1-.086c.037-.039.076-.077.115-.114.023-.022.046-.043.07-.063a.169.169,0,0,1,.045-.025.086.086,0,0,1,.037,0,.058.058,0,0,1,.032.015.047.047,0,0,1,.017.026.118.118,0,0,1,.005.035.285.285,0,0,1,0,.055.645.645,0,0,0,0,.188,1.48,1.48,0,0,0,.062.275,1.443,1.443,0,0,0,.075.182.7.7,0,0,0,.073.113l.018.018c.017.017.034.034.052.051.012-.017.023-.035.034-.052s.018-.028.026-.042a1.214,1.214,0,0,0,.09-.18.369.369,0,0,0,.025-.113l.024-.346.02-.125a.315.315,0,0,1,.009-.05.121.121,0,0,1,.011-.033.082.082,0,0,1,.018-.026.047.047,0,0,1,.023-.009.107.107,0,0,1,.051.008.105.105,0,0,1,.04.031l.215.29a.326.326,0,0,0,.057.06.315.315,0,0,0,.068.043l.021.009.027.011c-.013-.023-.027-.047-.042-.07l-.02-.035c-.03-.053-.058-.107-.084-.162A.818.818,0,0,1,23.061,33l-.211-.6a.613.613,0,0,1-.035-.183.153.153,0,0,1,.024-.093.064.064,0,0,1,.033-.028.052.052,0,0,1,.038,0,.085.085,0,0,1,.031.023.343.343,0,0,1,.044.058.967.967,0,0,0,.255.285,1.028,1.028,0,0,0,.357.172,1.549,1.549,0,0,0,.433.05.868.868,0,0,0,.32-.07.428.428,0,0,0,.052-.027c.045-.028.089-.056.133-.085-.073,0-.145,0-.217,0-.057,0-.113-.007-.169-.013A1.6,1.6,0,0,1,23.4,32.2a1.224,1.224,0,0,1-.428-.552A2,2,0,0,1,22.9,31.4a2.851,2.851,0,0,1-.053-.313.454.454,0,0,1,0-.066A.032.032,0,0,1,22.85,31a.044.044,0,0,1,.025-.014.079.079,0,0,1,.037.006.347.347,0,0,1,.079.051,1.184,1.184,0,0,1,.13.127.606.606,0,0,0,.2.147.66.66,0,0,0,.251.058h.06l.078,0-.111-.117-.054-.06a3.3,3.3,0,0,1-.277-.353,1.793,1.793,0,0,1-.161-.288,3.184,3.184,0,0,1-.2-.589,7.075,7.075,0,0,1-.15-.905c-.019-.2-.031-.4-.034-.6s0-.374.014-.559q.011-.161.032-.322c.021-.176.046-.351.074-.527l.026-.166a.427.427,0,0,0-.009-.054.034.034,0,0,0-.005-.014l-.064-.1a.067.067,0,0,1-.009-.032.1.1,0,0,1,.008-.038.242.242,0,0,1,.022-.033.026.026,0,0,1,.012-.008.032.032,0,0,1,.021,0,.1.1,0,0,1,.028.019.362.362,0,0,1,.046.058.479.479,0,0,1,.045.086q.02.046.044.092.235.43.474.859.138.247.252.5a4.641,4.641,0,0,1,.176.458c0,.01.007.019.009.028s.013.039.019.058l.211-1.017.946.672c-.012-.019-.023-.039-.036-.058l-.017-.029c-.082-.138-.159-.278-.23-.422-.116-.235-.225-.474-.329-.713-.084-.2-.165-.392-.242-.59q-.1-.257-.19-.518c-.013-.036-.023-.071-.033-.107-.006-.02-.011-.04-.015-.06a1.4,1.4,0,0,1-.023-.158c-.008-.084-.014-.17-.015-.255q-.008-.27-.017-.54c0-.082-.008-.164-.014-.246-.007-.1-.016-.21-.027-.315s-.028-.238-.044-.356l-.078-.576a.465.465,0,0,1-.005-.07.4.4,0,0,1,0-.065.116.116,0,0,1,.01-.034.042.042,0,0,1,.013-.017.031.031,0,0,1,.021-.007.053.053,0,0,1,.028.006.134.134,0,0,1,.021.014.037.037,0,0,1,.01.014.175.175,0,0,1,.015.051.7.7,0,0,1,.008.1.854.854,0,0,0,.01.128.765.765,0,0,0,.029.121l.024.07c.011.03.023.059.034.089l.114-.012.058-.006a5.953,5.953,0,0,0,.962-.188,5.53,5.53,0,0,0,.884-.335A3.908,3.908,0,0,0,26.6,23a3.6,3.6,0,0,0,.492-.423c.035-.036.07-.073.1-.111.067-.075.133-.151.2-.228l-.044-.021-.029-.014a.614.614,0,0,1-.289-.348.573.573,0,0,1,.033-.437.609.609,0,0,1,.273-.27.65.65,0,0,1,.393-.058l.063.012.08.021c0-.021,0-.042,0-.062a.193.193,0,0,1,0-.031.516.516,0,0,1,.135-.294.609.609,0,0,1,.305-.176.591.591,0,0,1,.684.347.564.564,0,0,1,.037.308.439.439,0,0,1-.125.244.409.409,0,0,1-.047.039c-.034.023-.07.046-.105.067a1.548,1.548,0,0,1,.12.114.66.66,0,0,1,.066.082.524.524,0,0,1,.09.338.589.589,0,0,1-.142.342.669.669,0,0,1-.428.229.639.639,0,0,1-.46-.12c-.016-.011-.031-.023-.046-.035s-.041-.036-.061-.054l-.069.108-.02.029a2.821,2.821,0,0,1-.3.347,4.682,4.682,0,0,1-.436.385,6.349,6.349,0,0,1-.61.419,4.7,4.7,0,0,1-.558.29,5.1,5.1,0,0,1-.6.214q-.4.116-.817.192l-.176.033-.229.039a.313.313,0,0,1-.006.054.061.061,0,0,1-.008.023.084.084,0,0,1-.012.014.317.317,0,0,1-.037.028c0,.026.007.052.009.078v.01l.008.344c0,.006,0,.013,0,.02.009.142.017.284.027.426,0,.029,0,.06.005.089,0,.06.006.118.008.177.02.005.04.01.06.013l.023,0a.393.393,0,0,0,.118-.01.678.678,0,0,0,.151-.055l.155-.076.018-.008a.356.356,0,0,1,.122-.031.169.169,0,0,1,.084.015l.132.061a.352.352,0,0,0,.146.032.581.581,0,0,0,.192-.035.487.487,0,0,0,.116-.059.562.562,0,0,0,.1-.087c.017-.021.036-.041.055-.061l.012-.009a.107.107,0,0,1,.059-.009.635.635,0,0,1,.136.033,1.583,1.583,0,0,0,.161.047.3.3,0,0,0,.081.008.426.426,0,0,0,.2-.054.857.857,0,0,0,.225-.184c.014-.016.027-.032.039-.048s.033-.042.049-.064l.045.027.036.021a.973.973,0,0,0,.384.122.737.737,0,0,0,.345-.051.49.49,0,0,0,.187-.135.523.523,0,0,0,.108-.215c0-.015.007-.03.009-.045s.007-.039.009-.059l.08-.039a.4.4,0,0,0,.039-.021.7.7,0,0,0,.189-.166.756.756,0,0,0,.126-.23c0-.014.009-.029.014-.044s.012-.039.017-.058c.041-.01.081-.02.122-.032a.39.39,0,0,0,.051-.019.741.741,0,0,0,.343-.3.9.9,0,0,0,.127-.479c0-.036,0-.071-.007-.106s-.01-.091-.017-.135c.048-.033.1-.066.144-.1s.065-.05.1-.075a1.113,1.113,0,0,0,.238-.273,1.243,1.243,0,0,0,.15-.352,1,1,0,0,0,.029-.209.708.708,0,0,0-.019-.178c-.009-.038-.017-.075-.022-.114a.132.132,0,0,1,0-.031.128.128,0,0,1,.006-.019c.018-.038.036-.076.055-.114a.465.465,0,0,0,.032-.077.594.594,0,0,0,.023-.09,1.334,1.334,0,0,0,.017-.2.243.243,0,0,0-.013-.084.082.082,0,0,1,0-.008c-.053-.085-.1-.169-.157-.253a.293.293,0,0,1-.025-.046.19.19,0,0,1-.011-.036.209.209,0,0,1,0-.039.11.11,0,0,1,.008-.03.406.406,0,0,1,.024-.047c.021-.034.042-.066.064-.1a.672.672,0,0,0,.077-.151.535.535,0,0,0,.03-.147.686.686,0,0,0-.012-.176.9.9,0,0,0-.06-.19l-.015-.033-.02-.043c.009-.026.017-.052.027-.079l.02-.06a1.382,1.382,0,0,0,.057-.262.8.8,0,0,0-.006-.209.379.379,0,0,0-.058-.15.4.4,0,0,0-.117-.118.505.505,0,0,0-.182-.074.518.518,0,0,0-.2,0,.713.713,0,0,0-.116.035.5.5,0,0,0-.1.05,1.277,1.277,0,0,0-.182.142,1.162,1.162,0,0,0-.141.164l-.259.369a.148.148,0,0,1-.022.025.115.115,0,0,1-.026.017.073.073,0,0,1-.043.007A.036.036,0,0,1,28,19.876a.061.061,0,0,1-.013-.033A.085.085,0,0,1,28,19.8l.1-.112.28-.389a.726.726,0,0,1,.188-.181,1.473,1.473,0,0,1,.334-.162l1.074-.363a1.332,1.332,0,0,0,.354-.18,1.406,1.406,0,0,0,.292-.277.685.685,0,0,0,.1-.162.04.04,0,0,0-.008-.045.038.038,0,0,0-.023-.013.339.339,0,0,0-.08,0,.611.611,0,0,0-.066.009c-.027.005-.052.012-.079.019l-.545.145-1.116.251c-.179.043-.355.095-.529.154a4.4,4.4,0,0,0-.442.18,1.6,1.6,0,0,0-.313.2,1,1,0,0,0-.2.217,1.072,1.072,0,0,0-.133.263,1.085,1.085,0,0,0-.055.291c0,.055-.005.11-.006.165,0,.137,0,.274,0,.412a3.44,3.44,0,0,1-.039.526,2.961,2.961,0,0,1-.113.473,1.723,1.723,0,0,1-.161.35,1.447,1.447,0,0,1-.22.276,1.786,1.786,0,0,1-.307.24,1.638,1.638,0,0,1-.339.161,3.739,3.739,0,0,1-.422.114,4.328,4.328,0,0,1-.484.07q-.147.014-.294.02c-.125.006-.249.009-.374.011a2.205,2.205,0,0,0-.47.056.593.593,0,0,0-.219.1.179.179,0,0,0-.021.021c-.026.032-.051.064-.075.1,0-.025,0-.051,0-.076a.161.161,0,0,1,0-.027.211.211,0,0,1,.022-.054,1.155,1.155,0,0,1,.073-.114c.012-.015.023-.031.033-.047s.042-.061.062-.092c.014-.09.027-.182.039-.273.006-.045.012-.09.017-.136.02-.168.033-.338.041-.508q.015-.325.013-.651c0-.18-.008-.361-.016-.542s-.02-.34-.035-.51c0-.05-.009-.1-.014-.15-.01-.1-.02-.2-.031-.3l.082-.091c-.013-.037-.024-.074-.037-.111l-.006-.018-.312-.877a3.742,3.742,0,0,0-.168-.4.606.606,0,0,0-.1-.146.245.245,0,0,0-.08-.058.313.313,0,0,0-.11-.025.61.61,0,0,0-.168.016.126.126,0,0,0-.067.041.081.081,0,0,0-.015.025c-.02.057-.039.114-.055.171a.4.4,0,0,1-.058.121.239.239,0,0,1-.079.072.261.261,0,0,1-.141.036.185.185,0,0,1-.114-.045.372.372,0,0,1-.087-.114.992.992,0,0,1-.075-.223l.019-.016.015-.012a.28.28,0,0,1,.182-.051.157.157,0,0,1,.122.076.069.069,0,0,1,.011.043.078.078,0,0,1-.017.04l-.048.056a.025.025,0,0,0-.005.027.047.047,0,0,0,.026.027.059.059,0,0,0,.023,0,.07.07,0,0,0,.025,0,.136.136,0,0,0,.058-.044.154.154,0,0,0,.034-.069.241.241,0,0,0-.005-.122.164.164,0,0,0-.058-.08.224.224,0,0,0-.093-.039.453.453,0,0,0-.145,0L22.1,17.5l-.24-.269a.162.162,0,0,0-.046-.035.046.046,0,0,0-.032,0,.038.038,0,0,0-.028.026.062.062,0,0,0,0,.047l.429.791a.759.759,0,0,0,.078.117.3.3,0,0,0,.066.061l.288.2a.22.22,0,0,1,.062.068.2.2,0,0,1,.029.083c0,.01,0,.019,0,.029s0,.027,0,.04c-.033,0-.065.007-.1.008a.049.049,0,0,1-.019,0l-.3-.052a.137.137,0,0,0-.028,0l-.1,0" transform="translate(-12.12 -10.362)" fill="#dc091d"/>
        <path id="Path_863" data-name="Path 863" d="M10.054,19.486l-.064-.031-.033-.016c-.026-.014-.052-.027-.077-.041L9.6,19.242l-.181-.1-.145-.075c-.074-.037-.15-.073-.226-.108s-.126-.055-.191-.081l-.423-.169c-.07-.028-.139-.057-.207-.088s-.145-.067-.216-.1a2.1,2.1,0,0,1-.194-.109.96.96,0,0,1-.119-.089l0,0-.024-.023.126.052.054.022.3.123c.046.019.093.038.14.055l.278.106.395.148.089.034.211.085.281.118q.133.056.26.124a.636.636,0,0,1,.108.072.571.571,0,0,1,.066.065.809.809,0,0,1,.067.093.342.342,0,0,1,.028.057.029.029,0,0,1,0,.018Z" transform="translate(-4.625 -11.025)" fill="none" stroke="#1a1818" stroke-miterlimit="3.864" stroke-width="1.728"/>
        <path id="Path_864" data-name="Path 864" d="M31.846,26.023l.052-.038.026-.018a1.456,1.456,0,0,1,.537-.222,1.736,1.736,0,0,1,.64,0l.03.005.039.008c-.019.02-.039.041-.06.061a.1.1,0,0,1-.014.013,1.072,1.072,0,0,1-.457.217,1.648,1.648,0,0,1-.627.01l-.073-.014-.094-.019" transform="translate(-19.194 -15.498)" fill="#227339"/>
        <path id="Path_865" data-name="Path 865" d="M16.806,24.952l.075-.017.022,0a1.437,1.437,0,0,1,.333-.017,2.021,2.021,0,0,1,.393.066,2.24,2.24,0,0,1,.344.126,1.484,1.484,0,0,1,.257.153l.037.029.071.058-.06.016-.03.008a1.459,1.459,0,0,1-.283.041,1.564,1.564,0,0,1-.293-.013,1.687,1.687,0,0,1-.437-.126,1.192,1.192,0,0,1-.323-.211l-.029-.028-.076-.082" transform="translate(-10.129 -15.013)" fill="#227339"/>
        <path id="Path_866" data-name="Path 866" d="M31.435,23.6l-.023-.074c0-.019-.011-.039-.016-.058a1.422,1.422,0,0,1-.035-.554,1.333,1.333,0,0,1,.177-.509l.023-.038.049-.074c.008.022.017.043.024.065l0,.009a1.256,1.256,0,0,1,.029.471,2.254,2.254,0,0,1-.168.613l-.028.064c-.012.027-.024.055-.037.083" transform="translate(-18.894 -13.435)" fill="#227339"/>
        <path id="Path_867" data-name="Path 867" d="M20.981,23.647c-.013-.017-.024-.034-.036-.052s-.018-.027-.027-.041a1.249,1.249,0,0,1-.171-.426,1.054,1.054,0,0,1,0-.425.356.356,0,0,1,.01-.042c.007-.029.015-.056.023-.083.028.032.055.065.081.1.013.017.026.034.037.052a.867.867,0,0,1,.132.347,1.17,1.17,0,0,1-.017.427L21,23.566c-.007.027-.014.054-.022.081" transform="translate(-12.492 -13.608)" fill="#227339"/>
        <path id="Path_868" data-name="Path 868" d="M35.182,19.166c.017-.038.035-.075.054-.113.008-.019.018-.038.027-.057a2.481,2.481,0,0,1,.337-.5,2.378,2.378,0,0,1,.437-.4l.028-.019.057-.038c0,.036,0,.071-.008.107a.219.219,0,0,1,0,.024,1.126,1.126,0,0,1-.248.5,1.814,1.814,0,0,1-.556.435l-.053.027-.07.033" transform="translate(-21.204 -10.874)" fill="#227339"/>
        <path id="Path_869" data-name="Path 869" d="M33.333,17.861l-.059-.042-.01-.007a1.526,1.526,0,0,1-.4-.514,2.234,2.234,0,0,1-.211-.764c0-.014,0-.027,0-.042s0-.036,0-.053l.058.048.044.037a1.952,1.952,0,0,1,.445.552,1.314,1.314,0,0,1,.155.563c0,.019,0,.038,0,.057,0,.054-.008.109-.014.164" transform="translate(-19.675 -9.908)" fill="#227339"/>
        <path id="Path_870" data-name="Path 870" d="M16.37,17.349l-.066-.057-.049-.045a1.749,1.749,0,0,1-.355-.454,1.527,1.527,0,0,1-.169-.511c0-.016,0-.032-.006-.048q-.005-.048-.01-.1l.1.075.022.019a1.476,1.476,0,0,1,.276.375,2.777,2.777,0,0,1,.224.594c0,.021.01.042.015.064l.02.082" transform="translate(-9.472 -9.727)" fill="#227339"/>
        <path id="Path_871" data-name="Path 871" d="M18.161,17.324c0-.023.007-.046.01-.07,0,0,0-.009,0-.013a1.6,1.6,0,0,1,.212-.513,2.133,2.133,0,0,1,.426-.486l.048-.041.064-.052v.077c0,.012,0,.026,0,.039a1.174,1.174,0,0,1-.059.317,1.2,1.2,0,0,1-.349.526,1.18,1.18,0,0,1-.255.171l-.033.016-.066.029" transform="translate(-10.946 -9.733)" fill="#227339"/>
        <path id="Path_872" data-name="Path 872" d="M35.481,17.462a.172.172,0,0,1-.049,0,.132.132,0,0,1-.041-.014.108.108,0,0,1-.027-.023.148.148,0,0,1-.021-.039.1.1,0,0,1-.007-.028.106.106,0,0,1,0-.027.111.111,0,0,1,.009-.034.093.093,0,0,1,.017-.029.1.1,0,0,1,.026-.02.157.157,0,0,1,.036-.015.165.165,0,0,1,.046,0,.214.214,0,0,1,.044.01.15.15,0,0,1,.039.024.1.1,0,0,1,.024.031.1.1,0,0,1,.011.044.1.1,0,0,1-.01.045.159.159,0,0,1-.025.037.14.14,0,0,1-.037.026l-.025.012-.009,0" transform="translate(-21.296 -10.385)" fill="#227339"/>
        <path id="Path_873" data-name="Path 873" d="M19.535,12.685c.021-.025.042-.051.064-.076l.019-.021a1.65,1.65,0,0,1,.379-.3,2.148,2.148,0,0,1,.5-.211l.1-.028.135-.033-.055.067-.044.051a1.815,1.815,0,0,1-.458.381,1.275,1.275,0,0,1-.47.163l-.044,0-.13,0" transform="translate(-11.774 -7.241)" fill="#227339"/>
        <path id="Path_874" data-name="Path 874" d="M33.459,11.458c-.013-.031-.024-.062-.036-.093s-.019-.046-.028-.071a3.451,3.451,0,0,1-.176-.639,1.925,1.925,0,0,1-.021-.494s0-.008,0-.011c0-.024.007-.048.012-.073l.058.045.015.014a.971.971,0,0,1,.29.536,1.241,1.241,0,0,1-.073.687c-.006.014-.012.029-.018.043l-.024.056" transform="translate(-20.004 -6.074)" fill="#227339"/>
        <path id="Path_875" data-name="Path 875" d="M31.209,12.763l-.127.008-.094,0a1.241,1.241,0,0,1-.46-.089,1.313,1.313,0,0,1-.407-.256L30.1,12.4l-.051-.05c.06-.005.12-.008.18-.01a.748.748,0,0,1,.089,0,1.159,1.159,0,0,1,.4.093,1.814,1.814,0,0,1,.431.268l.03.026.038.033" transform="translate(-18.108 -7.439)" fill="#227339"/>
        <path id="Path_876" data-name="Path 876" d="M18.823,11.314c-.005-.039-.009-.079-.014-.118s-.007-.061-.009-.091a2.268,2.268,0,0,1,.024-.6,1.454,1.454,0,0,1,.159-.454l.009-.015c.015-.023.03-.046.046-.069q.02.052.037.1c0,.01.006.02.009.031a1.257,1.257,0,0,1,.021.49,1.742,1.742,0,0,1-.185.55l-.041.076-.056.1" transform="translate(-11.325 -6.005)" fill="#227339"/>
        <path id="Path_877" data-name="Path 877" d="M29.132,9.927l-.064-.012-.05-.01a1.82,1.82,0,0,1-.472-.166,1.545,1.545,0,0,1-.371-.271l-.036-.036-.069-.075c.036,0,.073,0,.109,0a.307.307,0,0,1,.039,0,1.06,1.06,0,0,1,.447.137,1.385,1.385,0,0,1,.4.351l.028.037.036.048" transform="translate(-16.918 -5.637)" fill="#227339"/>
        <path id="Path_878" data-name="Path 878" d="M22.006,9.759l.067-.085a.306.306,0,0,1,.021-.024,1.5,1.5,0,0,1,.426-.326,1.973,1.973,0,0,1,.581-.192l.06-.01.079-.012c-.017.031-.034.06-.053.09a.2.2,0,0,1-.014.022,1.194,1.194,0,0,1-.41.344,1.777,1.777,0,0,1-.625.182l-.058,0-.074.006" transform="translate(-13.263 -5.491)" fill="#227339"/>
        <path id="Path_879" data-name="Path 879" d="M17.128,21.516a.174.174,0,0,1,0-.035.31.31,0,0,1,.01-.036.2.2,0,0,1,.017-.032.158.158,0,0,1,.023-.028.151.151,0,0,1,.028-.024.194.194,0,0,1,.031-.017.186.186,0,0,1,.035-.011.18.18,0,0,1,.036,0,.174.174,0,0,1,.036,0,.229.229,0,0,1,.035.01l.033.017a.194.194,0,0,1,.027.023.13.13,0,0,1,.023.028.119.119,0,0,1,.017.032.17.17,0,0,1,.011.035.18.18,0,0,1,0,.036.176.176,0,0,1,0,.036.213.213,0,0,1-.01.035c-.005.011-.01.022-.017.033a.153.153,0,0,1-.023.027.155.155,0,0,1-.028.023.223.223,0,0,1-.032.017.143.143,0,0,1-.035.011.155.155,0,0,1-.036,0,.181.181,0,0,1-.036,0l-.035-.01a.186.186,0,0,1-.032-.017.148.148,0,0,1-.029-.023.167.167,0,0,1-.024-.028.13.13,0,0,1-.017-.031.164.164,0,0,1-.011-.036.15.15,0,0,1,0-.035" transform="translate(-10.323 -12.855)" fill="#227339"/>
        <path id="Path_880" data-name="Path 880" d="M23.193,18.208l-.48-.882-.044.023-.012,0a.393.393,0,0,1-.089.02c-.061.008-.123.012-.185.013-.034,0-.07,0-.1,0s-.088,0-.132.008a.612.612,0,0,0-.07.008.3.3,0,0,0-.039.011.127.127,0,0,0-.04.025.128.128,0,0,0-.029.039.246.246,0,0,0-.021.065.224.224,0,0,0,0,.067.86.86,0,0,0,.016.1.933.933,0,0,0,.029.107l.06.176c0,.007,0,.012.007.019.007.023.014.045.022.068l.163-.286.868.417Z" transform="translate(-13.225 -10.442)" fill="#ffd300"/>
        <path id="Path_881" data-name="Path 881" d="M12.351,24.132l-.2-.029c-.051-.007-.1-.017-.153-.026-.107-.019-.213-.044-.318-.073a1.719,1.719,0,0,1-.218-.075l-.551-.228-.527-.288a1.9,1.9,0,0,1-.212-.135c-.106-.077-.209-.159-.308-.245-.072-.063-.142-.127-.21-.194s-.145-.147-.214-.224-.148-.168-.217-.255c-.051-.064-.1-.131-.145-.2-.014-.021-.029-.043-.042-.064-.027-.043-.054-.086-.08-.13a1.09,1.09,0,0,0,.14-.014.391.391,0,0,0,.078-.019.349.349,0,0,0,.09-.049.561.561,0,0,0,.094-.093.631.631,0,0,0,.079-.133.608.608,0,0,0,.043-.148.675.675,0,0,0,.006-.179.517.517,0,0,0-.039-.151.561.561,0,0,0-.089-.142.611.611,0,0,0-.135-.114.882.882,0,0,0-.191-.088.36.36,0,0,0-.138-.017.375.375,0,0,0-.069.011,1.356,1.356,0,0,0-.139.043c.015-.036.028-.073.04-.11a.243.243,0,0,0,.011-.055.319.319,0,0,0-.012-.126.505.505,0,0,0-.07-.142.524.524,0,0,0-.111-.114.465.465,0,0,0-.134-.07.584.584,0,0,0-.174-.028.683.683,0,0,0-.188.024.659.659,0,0,0-.131.051.793.793,0,0,0-.117.075.684.684,0,0,0-.114.119.471.471,0,0,0-.064.118.556.556,0,0,0-.029.151.606.606,0,0,0,.013.163.758.758,0,0,0,.041.129.181.181,0,0,0,.07.087.868.868,0,0,0,.083.048c-.034.014-.067.03-.1.046a.481.481,0,0,0-.052.03.41.41,0,0,0-.1.1.579.579,0,0,0-.077.157.582.582,0,0,0,.008.369.563.563,0,0,0,.065.128.713.713,0,0,0,.1.12.7.7,0,0,0,.135.1.627.627,0,0,0,.145.06.618.618,0,0,0,.123.02.679.679,0,0,0,.13,0,.737.737,0,0,0,.132-.029.317.317,0,0,0,.079-.038.258.258,0,0,0,.03-.025c.021-.02.043-.042.062-.064l.043.087.012.022a2.723,2.723,0,0,0,.177.275,3.219,3.219,0,0,0,.23.278l.406.443a1.809,1.809,0,0,0,.142.139c.11.095.222.189.337.279.074.058.149.113.226.166s.144.095.218.138l.549.323c.055.032.112.062.169.09.1.048.2.094.3.137.085.037.172.071.259.1s.182.064.274.093.188.054.282.077c.066.016.133.029.2.039l.075.009.15.014c.01.023.019.045.029.068l.014.035c.006.017.012.033.017.05s.012.044.018.067l.014.055c.006.022.012.044.02.064a.351.351,0,0,0,.016.033l.05.082a.123.123,0,0,1,.008.02c.01.033.019.064.027.1a.443.443,0,0,1,.012.082.273.273,0,0,1,0,.065.316.316,0,0,1-.015.056.561.561,0,0,1-.033.074.876.876,0,0,1-.063.1.706.706,0,0,1-.067.083.59.59,0,0,1-.089.078.328.328,0,0,1-.076.041c-.023.009-.048.017-.072.023-.1.027-.2.053-.3.077l-.055.012-.021,0a.157.157,0,0,1-.049,0,.659.659,0,0,1-.088-.027.788.788,0,0,1-.155-.08.769.769,0,0,1-.13-.11l-.019-.022-.038-.043-.07.021-.036.01a1.3,1.3,0,0,1-.158.027,1.543,1.543,0,0,1-.177.008,1.715,1.715,0,0,1-.271-.027.785.785,0,0,1-.172-.052.384.384,0,0,1-.111-.076.547.547,0,0,1-.1-.13c0-.006-.006-.012-.009-.018s-.008-.016-.012-.023q-.063-.008-.125-.013a.161.161,0,0,0-.034,0l-.269.03a.394.394,0,0,1-.166-.017.311.311,0,0,1-.125-.077l-.168-.171a.078.078,0,0,0-.035-.022A1.164,1.164,0,0,0,9.3,25.3c-.067-.01-.133-.021-.2-.033-.035-.008-.07-.016-.105-.026A.781.781,0,0,1,8.9,25.2a.843.843,0,0,1-.1-.052.957.957,0,0,1-.136-.1.662.662,0,0,1-.094-.1.262.262,0,0,1-.044-.1.221.221,0,0,1,0-.1.11.11,0,0,1,.006-.018c0-.013.01-.025.014-.037l-.063-.015-.032-.009a.583.583,0,0,1-.074-.029A.878.878,0,0,1,8.3,24.6a.714.714,0,0,1-.108-.081.731.731,0,0,1-.087-.1.527.527,0,0,1-.067-.123.322.322,0,0,1-.019-.108c0-.012,0-.024,0-.036.006-.055.013-.111.019-.166l0-.017c0-.011,0-.023,0-.033l-.038-.02-.019-.01c-.052-.027-.1-.055-.151-.087a.449.449,0,0,1-.069-.053.35.35,0,0,1-.087-.131.483.483,0,0,1-.03-.186c0-.009,0-.018,0-.027l0-.036L7.6,23.373l-.039-.012a.748.748,0,0,1-.316-.215.71.71,0,0,1-.161-.34.464.464,0,0,1-.006-.108A.353.353,0,0,1,7.1,22.6l.01-.025.024-.051-.044-.022-.033-.018a.519.519,0,0,1-.186-.175.451.451,0,0,1-.073-.224.5.5,0,0,1,.079-.294.489.489,0,0,1,.234-.191l.038-.013.051-.016-.049-.044L7.113,21.5A.992.992,0,0,1,7,21.377a.722.722,0,0,1-.074-.12.432.432,0,0,1-.04-.143.46.46,0,0,1,.012-.156.478.478,0,0,1,.062-.143.384.384,0,0,1,.1-.1.6.6,0,0,1,.07-.043c.038-.019.076-.037.116-.053-.014-.015-.028-.031-.04-.046s-.02-.023-.03-.036a.668.668,0,0,1-.085-.135.689.689,0,0,1-.052-.153.681.681,0,0,1-.013-.2.631.631,0,0,1,.047-.188.618.618,0,0,1,.094-.157.7.7,0,0,1,.139-.132l.02-.014.027-.018c-.008-.023-.014-.047-.021-.07s-.011-.036-.016-.054A.785.785,0,0,1,7.3,19.29a.542.542,0,0,1,0-.108.516.516,0,0,1,.129-.291.471.471,0,0,1,.108-.093.536.536,0,0,1,.132-.062.691.691,0,0,1,.1-.021.109.109,0,0,1,.043,0,.546.546,0,0,1,.182.063,3.261,3.261,0,0,1,.389.256,3.513,3.513,0,0,1,.293.25.37.37,0,0,1,.077.1.793.793,0,0,0,.093.137.228.228,0,0,0,.068.055.052.052,0,0,0,.032.006.035.035,0,0,0,.023-.014.058.058,0,0,0,.013-.033.084.084,0,0,0-.007-.043.274.274,0,0,0-.027-.051.944.944,0,0,0-.064-.079l-.223-.247a1.428,1.428,0,0,0-.217-.2,2.306,2.306,0,0,0-.319-.193l-.757-.381a1.489,1.489,0,0,1-.155-.089c-.1-.067-.2-.137-.3-.21s-.163-.129-.24-.2a1.411,1.411,0,0,1-.138-.146c-.018-.023-.036-.045-.052-.069-.033-.047-.066-.094-.1-.143l.1.046.048.023c.06.027.121.054.182.079.142.058.284.114.427.169l.836.319,1.125.412.207.079.189.076a1.034,1.034,0,0,1,.12.058.2.2,0,0,1,.043.034.354.354,0,0,1,.083.149.515.515,0,0,1,.01.2c-.01.058-.02.114-.034.171q-.055.234-.116.467a2.29,2.29,0,0,0-.066.4,1.307,1.307,0,0,0,.014.313,1.575,1.575,0,0,0,.085.314,2.961,2.961,0,0,0,.188.4,3.9,3.9,0,0,0,.283.433,2.467,2.467,0,0,0,.277.315,2.7,2.7,0,0,0,.278.234q.2.147.416.273a4.609,4.609,0,0,0,.486.247,2.858,2.858,0,0,0,.4.139l.048.012.151.03.062.416-.078.006-.061,0a1.285,1.285,0,0,1-.191-.008.721.721,0,0,1-.141-.029l-.3-.094a.646.646,0,0,1-.11-.045c-.082-.042-.163-.088-.242-.135-.053-.034-.107-.068-.159-.1s-.115-.082-.172-.126l-.066-.051-.186-.147-.109-.085c.017.033.036.066.055.1l.024.038a.9.9,0,0,0,.081.1c.048.05.1.1.152.143s.114.1.172.14.1.076.155.112a2.4,2.4,0,0,0,.211.129,1.182,1.182,0,0,0,.157.07,1.146,1.146,0,0,0,.161.073,2.035,2.035,0,0,0,.234.072,1.225,1.225,0,0,0,.2.033.81.81,0,0,0,.164,0l.023,0,.045-.008Z" transform="translate(-3.843 -10.541)" fill="#dc091d"/>
        <path id="Path_882" data-name="Path 882" d="M38.906,21.6a.239.239,0,0,1-.034-.008.013.013,0,0,1-.008-.005.04.04,0,0,1-.013-.026.4.4,0,0,1,0-.084l.033-.194a1.09,1.09,0,0,1,.039-.154,1,1,0,0,1,.062-.144.712.712,0,0,1,.058-.092.628.628,0,0,1,.064-.074.658.658,0,0,1,.052-.044q.043-.033.087-.062c.043-.028.087-.055.131-.081s.077-.041.116-.059.075-.035.114-.049a.825.825,0,0,1,.079-.029l.654-.207.4-.129.062-.015.125-.027.035.027-.023.031,0,0a.325.325,0,0,1-.091.055,1.968,1.968,0,0,1-.246.086.42.42,0,0,0-.048.016c-.1.036-.194.073-.291.11-.026.01-.052.02-.078.028q-.147.052-.3.1c-.076.025-.151.054-.225.083s-.123.053-.183.083a1.047,1.047,0,0,0-.207.134.541.541,0,0,0-.113.133.913.913,0,0,0-.052.1c-.022.048-.043.1-.062.146-.029.077-.056.155-.082.232a.1.1,0,0,0,0,.032.329.329,0,0,1,0,.043.03.03,0,0,1,0,.012.035.035,0,0,1-.011.011.219.219,0,0,1-.037.017" transform="translate(-23.415 -12.125)" fill="#1a1818"/>
        <path id="Path_883" data-name="Path 883" d="M14.385,29.13l-.085-.35c-.1-.015-.2-.03-.305-.048-.05-.008-.1-.018-.15-.029-.076-.017-.151-.038-.226-.06q-.136-.041-.268-.091c-.088-.033-.174-.068-.259-.1s-.193-.087-.288-.133-.207-.105-.309-.161-.182-.1-.271-.159-.173-.111-.257-.17-.157-.115-.233-.176-.167-.139-.247-.213-.145-.139-.214-.213-.107-.12-.158-.182-.116-.146-.172-.22c-.043-.059-.084-.119-.124-.179-.029-.043-.056-.089-.081-.134-.014-.024-.026-.048-.039-.074-.025-.049-.049-.1-.074-.149.025,0,.049,0,.074,0h.057a.541.541,0,0,0,.151-.027.516.516,0,0,0,.133-.066.385.385,0,0,0,.1-.1.41.41,0,0,0,.071-.287.369.369,0,0,0-.048-.142.469.469,0,0,0-.1-.118.5.5,0,0,0-.141-.085.592.592,0,0,0-.172-.041.474.474,0,0,0-.157.012.834.834,0,0,0-.091.028c-.045.016-.089.034-.133.053a1.167,1.167,0,0,0,.066-.112.534.534,0,0,0,.033-.081.327.327,0,0,0-.067-.315.392.392,0,0,0-.1-.082.448.448,0,0,0-.13-.048.48.48,0,0,0-.149-.006.474.474,0,0,0-.141.039.428.428,0,0,0-.1.064.384.384,0,0,0-.07.086.337.337,0,0,0-.042.116.388.388,0,0,0,0,.13.424.424,0,0,0,.062.157.272.272,0,0,0,.1.093.388.388,0,0,0,.091.037,1.156,1.156,0,0,0,.168.035c-.044.01-.088.021-.132.033a.923.923,0,0,0-.1.033.523.523,0,0,0-.156.092.5.5,0,0,0-.111.136.457.457,0,0,0-.054.172.419.419,0,0,0,.017.174.439.439,0,0,0,.081.149.431.431,0,0,0,.13.1.471.471,0,0,0,.144.046.52.52,0,0,0,.159,0,.586.586,0,0,0,.147-.042.482.482,0,0,0,.12-.074l.033-.031.062-.068c.051.095.1.19.155.284.026.047.053.094.08.141a4.671,4.671,0,0,0,.278.412,3.648,3.648,0,0,0,.285.337,3.791,3.791,0,0,0,.294.277c.127.108.259.211.4.308q.171.12.349.231c.111.07.226.135.342.2.092.048.185.1.279.139.117.054.234.106.353.156s.238.1.36.138c.079.027.159.051.239.07.06.015.119.027.179.037.121.021.242.039.364.054" transform="translate(-5.748 -14.987)" fill="#ffd300"/>
        <path id="Path_884" data-name="Path 884" d="M30.053,29.72l-.043-.269.106-.007.054-.005a4.075,4.075,0,0,0,.491-.075,6.145,6.145,0,0,0,.6-.161,6.327,6.327,0,0,0,.6-.227,5.913,5.913,0,0,0,.554-.278,4.188,4.188,0,0,0,.665-.47,3.141,3.141,0,0,0,.482-.518l.048-.067.094-.137-.073-.01-.056-.008a.573.573,0,0,1-.147-.048.5.5,0,0,1-.122-.084.407.407,0,0,1-.086-.113.462.462,0,0,1-.041-.136.42.42,0,0,1,.013-.157.365.365,0,0,1,.068-.134.462.462,0,0,1,.114-.1.514.514,0,0,1,.152-.063.6.6,0,0,1,.176-.017.468.468,0,0,1,.154.035.8.8,0,0,1,.086.04c.043.023.085.047.125.073a1.214,1.214,0,0,1-.049-.12.586.586,0,0,1-.022-.085.331.331,0,0,1,.112-.3.373.373,0,0,1,.111-.067.46.46,0,0,1,.135-.029.481.481,0,0,1,.149.016.451.451,0,0,1,.134.06.394.394,0,0,1,.089.077.379.379,0,0,1,.056.095.337.337,0,0,1,.025.121.361.361,0,0,1-.02.13.431.431,0,0,1-.083.146.293.293,0,0,1-.11.078.449.449,0,0,1-.1.024,1.223,1.223,0,0,1-.17.01c.042.016.084.033.126.052s.063.029.093.046a.55.55,0,0,1,.141.114.514.514,0,0,1,.091.151.455.455,0,0,1,.029.178.426.426,0,0,1-.286.387.485.485,0,0,1-.15.025.556.556,0,0,1-.157-.021.6.6,0,0,1-.14-.063.532.532,0,0,1-.108-.09l-.028-.036c-.017-.025-.035-.05-.052-.076-.064.087-.128.173-.193.259-.033.044-.066.085-.1.127a4.765,4.765,0,0,1-.329.364,3.96,3.96,0,0,1-.334.3,4.246,4.246,0,0,1-.716.458,5.189,5.189,0,0,1-.879.347c-.18.053-.364.1-.548.14s-.4.08-.595.11l-.045.006-.09.013" transform="translate(-18.087 -15.776)" fill="#ffd300"/>
        <path id="Path_885" data-name="Path 885" d="M37.295,41.213l-.045-.005-.012,0a.935.935,0,0,1-.114-.026c-.057-.016-.114-.034-.169-.054-.088-.032-.174-.066-.259-.1a1.165,1.165,0,0,1-.123-.06,2.393,2.393,0,0,1-.479-.35,3.114,3.114,0,0,1-.438-.509c-.109-.159-.216-.32-.317-.484q-.167-.268-.324-.543-.134-.237-.261-.478-.06-.113-.111-.23c-.008-.018-.016-.036-.023-.054l-.07-.187.06,0h.029c.031,0,.062,0,.093,0a.147.147,0,0,0,.029-.005l.135-.04a.053.053,0,0,1,.043.007.239.239,0,0,1,.068.068,1.067,1.067,0,0,1,.064.108c.031.062.06.126.087.189l.289.528.263.481.074.131.143.24c.039.062.077.124.116.185s.067.1.1.151c.022.03.044.06.068.088a.839.839,0,0,0,.065.07.442.442,0,0,0,.05.041.43.43,0,0,0,.054.034l.024.012.031.015-.12-.2c-.02-.033-.04-.065-.06-.1-.042-.07-.082-.139-.122-.209s-.076-.135-.113-.2l-.207-.38c-.019-.036-.039-.072-.059-.108l-.238-.421q-.093-.164-.184-.331c-.026-.046-.05-.093-.073-.139l-.122-.242c0-.008-.008-.014-.011-.022L35.088,38a.989.989,0,0,0,.086-.051.188.188,0,0,0,.035-.031.183.183,0,0,0,.027-.038.958.958,0,0,0,.043-.089l.085.057c.014.009.029.017.044.025a.393.393,0,0,0,.046.02c.032.012.064.023.1.034l.049.112.025.056c.085.189.173.376.265.561q.175.352.362.7c.083.153.165.305.251.456q.235.418.472.834c.064.11.128.221.194.329.034.055.068.11.1.163.005.006.009.014.014.021l.028.041Z" transform="translate(-20.823 -22.777)" fill="#dc091d"/>
        <path id="Path_886" data-name="Path 886" d="M43.064,37.239l-.1-.009-.03,0a1.606,1.606,0,0,1-.27-.066,2.749,2.749,0,0,1-.334-.136,5.9,5.9,0,0,1-.611-.343,6.072,6.072,0,0,1-.578-.421c-.153-.126-.3-.259-.443-.4s-.292-.3-.428-.456l-.035-.041-.07-.083c.019-.024.039-.048.056-.074a.442.442,0,0,0,.026-.037l.013-.023c.021-.043.042-.086.062-.13L40.332,35l.023-.046.068.08.035.04c.093.108.189.213.286.317s.2.205.3.306c.13.128.265.253.4.375s.283.246.429.364q.157.127.32.245.117.085.243.16l.014.009.068.039-.2-.212q-.306-.316-.611-.633-.187-.193-.371-.388c-.136-.143-.268-.289-.4-.438-.083-.1-.164-.2-.241-.3l-.033-.045c-.023-.03-.044-.061-.066-.091l.055-.029a.232.232,0,0,0,.029-.02.1.1,0,0,0,.015-.014c.009-.009.017-.019.025-.029s.021-.027.032-.041l.041-.053.1.133q.183.242.367.482.058.076.116.15c.156.2.315.392.478.584q.194.226.4.442l.669.7.016.017.124.138" transform="translate(-24.208 -20.849)" fill="#dc091d"/>
        <path id="Path_887" data-name="Path 887" d="M43.48,29.969c-.014.029-.03.058-.046.088s-.02.033-.031.05a.333.333,0,0,1-.043.052.656.656,0,0,1-.062.058.276.276,0,0,0-.035.033.076.076,0,0,0-.014.021.058.058,0,0,0,0,.032.038.038,0,0,0,.011.023.111.111,0,0,0,.042.028.4.4,0,0,0,.086.021c.032,0,.063.008.094.014.071.013.142.028.212.044.161.037.322.066.484.089s.3.035.451.042c.131.006.263.007.4,0q.222-.008.443-.03a1.806,1.806,0,0,0,.276-.049,1.565,1.565,0,0,0,.249-.086.227.227,0,0,0,.061-.038.03.03,0,0,0,.012-.023.037.037,0,0,0-.007-.022.1.1,0,0,0-.031-.026.281.281,0,0,0-.053-.022.508.508,0,0,0-.083-.022.507.507,0,0,1-.051-.014c-.081-.027-.161-.056-.242-.085-.038-.014-.077-.027-.116-.038-.1-.03-.205-.06-.308-.087s-.207-.056-.309-.085c-.12-.034-.239-.069-.358-.106l-.546-.167c-.07-.021-.139-.043-.207-.066-.029-.009-.058-.019-.087-.031l-.055-.023L43.5,29.5c0,.016-.006.031-.008.047s0,.024-.006.036a.473.473,0,0,0,0,.118.222.222,0,0,0,.067.132.258.258,0,0,0,.062.041,1.1,1.1,0,0,0,.175.061c.121.032.243.058.366.079l.6.1.058.009.222.028L45,30.18a.051.051,0,0,1-.012.009.157.157,0,0,1-.043.019.25.25,0,0,1-.06.008,3.057,3.057,0,0,1-.361-.021c-.158-.019-.315-.046-.472-.079-.111-.024-.222-.049-.333-.076-.045-.011-.091-.023-.135-.036l-.037-.011-.073-.023" transform="translate(-26.063 -17.779)" fill="#dc091d"/>
        <path id="Path_888" data-name="Path 888" d="M43.965,24.448l-.069-.006c.021-.054.04-.108.058-.164a.772.772,0,0,0,.022-.1c0-.006,0-.013,0-.02s0-.042,0-.064l.119-.056.033-.014.129-.048c.139-.047.279-.093.419-.138.091-.029.18-.056.271-.082.032-.009.065-.017.1-.024a.417.417,0,0,0,.111-.04.2.2,0,0,0,.061-.051.075.075,0,0,0,.015-.039.027.027,0,0,0-.009-.023.032.032,0,0,0-.021-.009.263.263,0,0,0-.068.01l-.079.021-.107.029-.339.094-.033.009-.42.125a.482.482,0,0,1-.092.019.163.163,0,0,1-.054,0,.1.1,0,0,1-.039-.017.207.207,0,0,1-.044-.043.2.2,0,0,1-.022-.039.079.079,0,0,1-.006-.03.044.044,0,0,1,0-.014c0-.009,0-.018.005-.027L44,23.655l.022-.009a1.78,1.78,0,0,1,.214-.067c.093-.023.187-.041.282-.055q.589-.088,1.18-.173a.321.321,0,0,1,.048,0,.12.12,0,0,1,.06.012.044.044,0,0,1,.023.028.051.051,0,0,1,0,.019.108.108,0,0,1-.008.023.7.7,0,0,1-.132.171,1.366,1.366,0,0,1-.24.181l-.636.374a1.12,1.12,0,0,1-.183.087c-.151.055-.3.1-.458.149l-.09.025-.117.032" transform="translate(-26.456 -14.071)" fill="#dc091d"/>
        <path id="Path_889" data-name="Path 889" d="M7.816,40.676l.1-.105.048-.053c.073-.08.144-.162.213-.245q.254-.3.506-.611.317-.391.632-.785c.046-.057.091-.115.133-.175l.6-.815.095-.129.243.178-.067.111-.015.024c-.086.135-.177.268-.272.4-.105.146-.215.287-.328.427q-.293.359-.6.7c-.112.124-.228.245-.35.36l-.017.016-.113.1c.035-.011.07-.023.1-.035a.521.521,0,0,0,.05-.02.843.843,0,0,0,.12-.07.941.941,0,0,0,.127-.1c.126-.12.248-.244.366-.373q.24-.263.466-.539c.13-.157.256-.317.381-.478.071-.093.139-.186.2-.282l.017-.027.075-.119.394.072-.064.1-.032.05a5.87,5.87,0,0,1-.464.614q-.33.383-.7.731-.19.179-.389.346c-.121.1-.246.2-.373.294a2.906,2.906,0,0,1-.457.276,1.758,1.758,0,0,1-.387.135c-.021,0-.043.008-.064.011-.059.008-.119.016-.178.022" transform="translate(-4.711 -22.757)" fill="#dc091d"/>
        <path id="Path_890" data-name="Path 890" d="M2.605,35.573l.106-.077.052-.038.079-.062c.206-.167.41-.336.614-.5L4.5,34.028l.652-.568.033-.026.067-.052.05.019c.013,0,.027.01.039.015a.511.511,0,0,1,.122.071.268.268,0,0,1,.067.079.053.053,0,0,1,.006.014c.006.014.01.028.015.042l-.025.048-.008.014a.714.714,0,0,1-.058.074c-.039.044-.081.085-.124.125q-.187.172-.384.334c-.092.075-.187.147-.285.214l-.092.062-.731.472-.047.03-.093.06.063-.016.031-.009a.93.93,0,0,0,.108-.039c.052-.021.1-.045.15-.07q.154-.079.3-.168c.1-.062.209-.127.311-.2.137-.091.27-.189.4-.293a3.669,3.669,0,0,0,.3-.267.692.692,0,0,1,.095-.079.182.182,0,0,1,.056-.026l.017,0c.018,0,.035,0,.053,0l.033.055.016.027c.008.014.015.029.021.043.014.029.029.059.043.088l-.065.068-.032.033q-.159.166-.331.321c-.1.09-.205.177-.313.26-.139.106-.282.2-.431.3s-.312.183-.474.264a3.812,3.812,0,0,1-.515.209,2.558,2.558,0,0,1-.443.1.8.8,0,0,1-.176,0,.857.857,0,0,1-.178-.035l-.06-.021-.078-.03" transform="translate(-1.57 -20.119)" fill="#dc091d"/>
        <path id="Path_891" data-name="Path 891" d="M5.29,22.4c-.1-.031-.191-.064-.285-.1-.046-.017-.093-.036-.138-.057a2.09,2.09,0,0,1-.348-.2,2.063,2.063,0,0,1-.305-.268c-.075-.079-.147-.163-.217-.248s-.139-.179-.2-.273c-.017-.026-.033-.052-.048-.079A.685.685,0,0,1,3.71,21.1a.171.171,0,0,1-.012-.046.02.02,0,0,1,0-.016.025.025,0,0,1,.016-.008.131.131,0,0,1,.039,0,.774.774,0,0,1,.123.032,1.3,1.3,0,0,1,.155.063,2.226,2.226,0,0,0,.246.1c.164.054.329.1.5.145l.424.111q.135.036.268.075a.408.408,0,0,1,.059.023.114.114,0,0,1,.025.019.106.106,0,0,1,.013.017.379.379,0,0,1,.022.044l-.04.04-.019.021a.84.84,0,0,0-.075.1.947.947,0,0,0-.067.121,1.086,1.086,0,0,0-.061.166,1.018,1.018,0,0,0-.029.166c0,.015,0,.029,0,.044s0,.058,0,.088" transform="translate(-2.228 -12.673)" fill="#dc091d"/>
        <path id="Path_892" data-name="Path 892" d="M1.507,28.708l.191-.032.844-.152,1.1-.2.11-.021c0,.016.006.032.008.047s0,.024.006.036a.4.4,0,0,1,0,.119.321.321,0,0,1-.033.1.123.123,0,0,1-.021.032.1.1,0,0,1-.02.017.174.174,0,0,1-.035.014.568.568,0,0,1-.073.012l-.691.071c-.083.008-.166.015-.249.021-.152.01-.305.017-.459.024L2,28.81a.476.476,0,0,0,.035.034.066.066,0,0,0,.016.011.159.159,0,0,0,.045.018.492.492,0,0,0,.078.009c.1,0,.2,0,.3,0,.139,0,.278,0,.417-.008.157-.006.315-.013.472-.023.086,0,.172-.012.257-.021l.03,0,.121-.017.012.038.01.029A.605.605,0,0,0,3.861,29a.44.44,0,0,0,.07.085l.02.017c.014.011.027.023.041.033l-.1.029-.048.013a3.059,3.059,0,0,1-.42.087,3.8,3.8,0,0,1-.466.037,2.985,2.985,0,0,1-.43-.022,2.623,2.623,0,0,1-.4-.079,1.323,1.323,0,0,1-.344-.151.712.712,0,0,1-.2-.188.38.38,0,0,1-.024-.038c-.019-.038-.039-.075-.056-.114" transform="translate(-0.908 -17.06)" fill="#dc091d"/>
        <path id="Path_893" data-name="Path 893" d="M4.935,21.909l.092.041.019.01.272.139.308.142.244.125.009,0a.262.262,0,0,1,.055.029.191.191,0,0,1,.035.032.078.078,0,0,1,.015.034.026.026,0,0,1-.008.021.023.023,0,0,1-.009.006l-.018,0a.273.273,0,0,1-.054-.008.266.266,0,0,1-.057-.019c-.05-.023-.1-.047-.147-.072s-.108-.06-.161-.091-.11-.068-.164-.1c-.073-.047-.145-.095-.215-.143l-.073-.049-.143-.1" transform="translate(-2.974 -13.205)" fill="#1a1818"/>
        <path id="Path_894" data-name="Path 894" d="M20.188,41.209l-.014-.014-.108-1.222-.941.624.058-.107.01-.017.229-.384.22-.395c.01-.018.021-.038.032-.056l.22-.375.275-.468.267-.425.1-.157.043.045.01.011c.029.039.058.077.083.118s.064.1.093.156c.055.1.109.2.163.307a.585.585,0,0,1,.029.06.159.159,0,0,1,.012.043.082.082,0,0,1,0,.031.13.13,0,0,1-.025.041.149.149,0,0,1-.044.035l-.1.037-.031-.085a.041.041,0,0,0-.033-.027.062.062,0,0,0-.048.016.094.094,0,0,0-.024.045.21.21,0,0,0,0,.08.861.861,0,0,1,.017.151.024.024,0,0,1-.011.021l-.076.049-.019.125a.088.088,0,0,1-.013.029.382.382,0,0,1-.041.053.313.313,0,0,1-.023-.044.077.077,0,0,1,0-.017l-.008-.069a.039.039,0,0,0-.01-.023.123.123,0,0,0-.032-.026.067.067,0,0,0-.031-.008.043.043,0,0,0-.024.008.057.057,0,0,0-.019.022.065.065,0,0,0-.008.027.348.348,0,0,0,0,.058c0,.029.009.059.014.087a.643.643,0,0,1,.017.145.337.337,0,0,1-.014.1l-.067.228a.028.028,0,0,0,0,.012c0,.024.005.048.008.072l.03-.024,0,0,.2-.313.164-.257c.056-.088.114-.175.175-.259a.62.62,0,0,1,.07-.081l.013-.012.063-.044c.013.02.027.04.04.061l.03.048a.511.511,0,0,1,.034.074.369.369,0,0,1,.016.071.239.239,0,0,1,0,.048.21.21,0,0,1-.009.042.432.432,0,0,1-.019.05c-.008.016-.017.032-.026.048l-.17.278c-.016.026-.031.052-.046.078q-.1.175-.2.351c-.076.135-.151.27-.226.4-.009.016-.018.033-.027.049l-.071.135c-.037.074-.075.148-.11.222Z" transform="translate(-11.527 -23.032)" fill="#dc091d"/>
        <path id="Path_895" data-name="Path 895" d="M31.609,47.988l-.422-1.073-.884-.038c0,.014-.008.029-.013.042a.158.158,0,0,1-.062.08.294.294,0,0,1-.1.041.271.271,0,0,1-.107,0A.182.182,0,0,1,29.944,47a.169.169,0,0,1-.054-.07.238.238,0,0,1-.017-.1.245.245,0,0,1,.026-.1.155.155,0,0,1,.054-.059.226.226,0,0,1,.065-.027.616.616,0,0,1,.118-.016l.7-.027-.828-1.768.115-.527.284.215.837,2.076.18,0,.995-.749a.656.656,0,0,1,.094-.06.787.787,0,0,1,.1-.045.434.434,0,0,1,.127-.022.172.172,0,0,1,.081.018.133.133,0,0,1,.051.047.351.351,0,0,1,.039.1.19.19,0,0,1,0,.089.182.182,0,0,1-.043.076.189.189,0,0,1-.089.054.17.17,0,0,1-.1,0l-.022-.009-.032-.015-.983.548,1.12,0c.045,0,.089,0,.135,0a.386.386,0,0,1,.067.009.24.24,0,0,1,.141.089.217.217,0,0,1,.045.152.188.188,0,0,1-.03.086.183.183,0,0,1-.066.06.257.257,0,0,1-.084.028.31.31,0,0,1-.1,0,.344.344,0,0,1-.076-.021.252.252,0,0,1-.055-.031L32.724,47l-.031-.03-1.269-.054.563,1.067a.4.4,0,0,1,.046.181.21.21,0,0,1-.041.129.166.166,0,0,1-.1.062.328.328,0,0,1-.164,0,.251.251,0,0,1-.133-.085.181.181,0,0,1-.041-.13.226.226,0,0,1,.011-.058.62.62,0,0,1,.04-.095" transform="translate(-18.005 -26.708)" fill="#ffd300"/>
        <path id="Path_896" data-name="Path 896" d="M14.013,47.466a.665.665,0,0,1-.093.006.415.415,0,0,1-.062-.007.153.153,0,0,1-.053-.023.18.18,0,0,1-.046-.044.187.187,0,0,1-.026-.052.154.154,0,0,1-.008-.055.27.27,0,0,1,.011-.068.163.163,0,0,1,.024-.049l.02-.024c.037-.042.073-.082.111-.123s.048-.055.071-.084a.347.347,0,0,0,.032-.05l.4-.763-1.34.008a.278.278,0,0,1-.015.039.087.087,0,0,1-.009.018.179.179,0,0,1-.092.075.227.227,0,0,1-.278-.315.139.139,0,0,1,.051-.058.232.232,0,0,1,.066-.028.525.525,0,0,1,.111-.01l1.4.033h.061l.027,0,.019-.005a.336.336,0,0,0,.044-.015.245.245,0,0,0-.008-.031.054.054,0,0,0-.005-.01.037.037,0,0,0-.012-.011c-.018-.013-.037-.023-.055-.034l-1.188-.658a.33.33,0,0,1-.033.029.123.123,0,0,1-.025.017.172.172,0,0,1-.134.018.15.15,0,0,1-.095-.083.214.214,0,0,1,.017-.211.236.236,0,0,1,.195-.105.288.288,0,0,1,.089.013.539.539,0,0,1,.11.051l1.259.78,1.093-2.111.414-.281.037.488-1.266,2.112.024.022.017.012a.144.144,0,0,0,.043.02.245.245,0,0,0,.054.007l1.244-.012a.2.2,0,0,1,.077.015.162.162,0,0,1,.058.04.175.175,0,0,1,.038.07.251.251,0,0,1,.005.093.21.21,0,0,1-.044.1.2.2,0,0,1-.087.062.22.22,0,0,1-.106.011.128.128,0,0,1-.073-.039.08.08,0,0,1-.011-.014c-.008-.012-.013-.024-.02-.037s-.024-.023-.038-.035a.059.059,0,0,0-.016-.01.114.114,0,0,0-.035-.01.784.784,0,0,0-.091-.006L14.6,46.123l-.518.984c.011.011.02.023.03.034l.013.018a.209.209,0,0,1,.03.093.22.22,0,0,1-.016.1.275.275,0,0,1-.045.071.155.155,0,0,1-.054.037l-.006,0-.022.005" transform="translate(-7.616 -26.062)" fill="#ffd300"/>
        <path id="Path_897" data-name="Path 897" d="M15.331,54.325a.385.385,0,0,1-.045-.013L15.26,54.3a.171.171,0,0,1-.054-.043.177.177,0,0,1-.034-.064.245.245,0,0,1-.01-.07.227.227,0,0,1,.009-.068.294.294,0,0,1,.013-.04c.006-.018.012-.035.018-.051l.133.062a.569.569,0,0,0-.046.058.241.241,0,0,0-.021.04.133.133,0,0,0-.009.048.148.148,0,0,0,.01.048.265.265,0,0,0,.025.047l.038.055" transform="translate(-9.138 -32.526)" fill="#ffd300"/>
        <path id="Path_898" data-name="Path 898" d="M22.659,50.323a.743.743,0,0,0-.07-.1.133.133,0,0,0-.037-.031.164.164,0,0,0-.06-.02.847.847,0,0,0-.145,0l-.023-.135h.061a.374.374,0,0,1,.108.019.31.31,0,0,1,.093.047.241.241,0,0,1,.071.077.156.156,0,0,1,.018.081.074.074,0,0,1,0,.023.336.336,0,0,1-.014.046" transform="translate(-13.455 -30.153)" fill="#ffd300"/>
        <path id="Path_899" data-name="Path 899" d="M11.252,50.106a.76.76,0,0,1,.007-.091.273.273,0,0,1,.012-.05.288.288,0,0,1,.138-.161.341.341,0,0,1,.229-.031l.024.006.031.009-.034.132-.053-.013-.041-.007a.283.283,0,0,0-.129.014.232.232,0,0,0-.1.064.448.448,0,0,0-.039.048c-.017.026-.032.052-.046.079" transform="translate(-6.782 -29.994)" fill="#ffd300"/>
        <path id="Path_900" data-name="Path 900" d="M12.683,46.7l-.043-.049a.25.25,0,0,0-.03-.028.243.243,0,0,0-.105-.051.251.251,0,0,0-.116,0l-.043.014c-.018.007-.037.015-.055.023q.016-.024.033-.045a.173.173,0,0,1,.017-.02.206.206,0,0,1,.087-.048.331.331,0,0,1,.128-.008.3.3,0,0,1,.188.1l.01.013a.218.218,0,0,1,.02.025Z" transform="translate(-7.407 -28.018)" fill="#ffd300"/>
        <path id="Path_901" data-name="Path 901" d="M35.059,54.5l.023-.008.018-.008a.193.193,0,0,0,.04-.023.119.119,0,0,0,.028-.027.111.111,0,0,0,.011-.016c.006-.01.012-.019.017-.03,0,.008.008.016.012.024l.008.018a.312.312,0,0,1-.022.269.243.243,0,0,1-.207.119l-.023,0-.046-.01a.266.266,0,0,0,.032-.017l.013-.008a.223.223,0,0,0,.074-.088.287.287,0,0,0,.028-.126.253.253,0,0,0,0-.03c0-.014,0-.026,0-.039" transform="translate(-21.045 -32.78)" fill="#ffd300"/>
        <path id="Path_902" data-name="Path 902" d="M38.393,50.276c.017-.007.033-.012.051-.017a.3.3,0,0,1,.04-.009.349.349,0,0,1,.29.081.286.286,0,0,1,.094.255.207.207,0,0,1-.009.039c-.008.021-.016.044-.026.066-.005-.026-.011-.052-.018-.077s-.013-.035-.02-.052a.27.27,0,0,0-.135-.132.258.258,0,0,0-.186-.012.187.187,0,0,0-.029.01.341.341,0,0,0-.036.015Z" transform="translate(-23.14 -30.283)" fill="#ffd300"/>
        <path id="Path_903" data-name="Path 903" d="M28.976,50.328l-.026-.01-.014-.005a.308.308,0,0,0-.149-.006.3.3,0,0,0-.134.068l-.024.022-.029.03q0-.015-.008-.03l0-.016A.155.155,0,0,1,28.6,50.3a.207.207,0,0,1,.051-.074.287.287,0,0,1,.314-.053.189.189,0,0,1,.02.01l.026.013Z" transform="translate(-17.231 -30.228)" fill="#ffd300"/>
        <path id="Path_904" data-name="Path 904" d="M37.638,47.657c-.007-.014-.014-.027-.021-.041a.167.167,0,0,0-.011-.02.147.147,0,0,0-.014-.021.5.5,0,0,0-.031-.039l.026-.013.02-.01a.668.668,0,0,1,.177-.056.372.372,0,0,1,.147.006.222.222,0,0,1,.123.076.113.113,0,0,1,.023.1.062.062,0,0,1-.01.023.451.451,0,0,1-.037.05A.393.393,0,0,0,38,47.677a.054.054,0,0,0-.011-.01.243.243,0,0,0-.132-.053.4.4,0,0,0-.178.026l-.019.008-.023.009" transform="translate(-22.638 -28.599)" fill="#ffd300"/>
        <path id="Path_905" data-name="Path 905" d="M26.469,17.273c-.017.017-.035.033-.054.049a.238.238,0,0,1-.029.02l-.027.012c-.032.011-.064.021-.1.03a.876.876,0,0,1-.123.026.349.349,0,0,1-.079,0l-.021,0-.249-.037c-.035-.006-.07-.009-.106-.012a.532.532,0,0,0-.071,0l-.179.013a.639.639,0,0,1-.188-.014.587.587,0,0,1-.082-.024.2.2,0,0,1-.045-.024A.086.086,0,0,1,25.1,17.3a.362.362,0,0,1-.038-.04c.032-.008.064-.017.1-.023l.038,0a.348.348,0,0,1,.064,0c.055,0,.11.012.165.021.036.006.072.01.108.014.057.006.113.011.169.015.111.008.222.013.333.014.076,0,.152,0,.228-.006l.067,0,.135-.013" transform="translate(-15.107 -10.384)" fill="#dc091d"/>
        <path id="Path_906" data-name="Path 906" d="M21.385,20.135l.138.029.07.012a1.592,1.592,0,0,0,.288.014,2.716,2.716,0,0,0,.385-.045l.077-.015.1-.02-.072.036-.055.028a1.608,1.608,0,0,1-.348.125.936.936,0,0,1-.282.023.334.334,0,0,1-.13-.034.411.411,0,0,1-.114-.086c-.008-.009-.017-.018-.024-.028s-.021-.026-.03-.039" transform="translate(-12.889 -12.12)" fill="#dc091d"/>
        <path id="Path_907" data-name="Path 907" d="M23.006,32.819l-.115.291-.168-.291h-.189l-.044.109.017.075.069-.013.063-.146.207.363-.191.465.35.622-.077.214.063.079.073-.192.395.654-.028.142.014.1.043-.041.039-.108.289.513-.065.234.245.407.062.013.014-.027-.231-.388.031-.122.123.212.073-.009-.017-.066-.14-.242.132-.431.155.249.037-.1-.159-.268.119-.447.1.169.054.008,0-.091-.116-.2.217-.869-.031-.095-.042.007-.085.308-.28-.494.1-.429.226.361.048-.008v-.062l-.24-.4.013-.052h-.146l.024.035-.1.416-.257-.451h-.153l-.113.336-.2-.336h-.09l.248.45-.161.449-.262-.5.152-.394Zm1.663,0,0,.305c0,.058,0,.115,0,.173,0,.074,0,.149,0,.223,0,.095.006.191.011.286,0,.034.006.067.01.1s.01.073.012.109,0,.049,0,.073a.109.109,0,0,1-.006.032.037.037,0,0,1-.01.016.03.03,0,0,1-.012.006.129.129,0,0,1-.027.008l-.03,0a.041.041,0,0,1-.014-.006.04.04,0,0,1-.016-.014.037.037,0,0,1-.009-.016.139.139,0,0,1-.008-.038c-.005-.063-.008-.126-.009-.191l-.013-.56,0-.379c0-.042,0-.084,0-.126Zm.432,0v.027c0,.075,0,.15-.008.224,0,.03,0,.06,0,.089q0,.187.012.374c.006.158.015.316.027.473a1.125,1.125,0,0,0,.018.127c.01.05.018.1.024.152a.65.65,0,0,1,0,.1.112.112,0,0,1-.007.039.106.106,0,0,1-.02.031l-.012.01-.009,0a.06.06,0,0,1-.021,0l-.021-.008a.09.09,0,0,1-.021-.019.067.067,0,0,1-.014-.022.3.3,0,0,1-.012-.044.293.293,0,0,1,0-.052l-.008-.258c0-.064,0-.129-.008-.192-.006-.1-.012-.2-.019-.3-.008-.119-.015-.238-.021-.356,0-.08-.008-.162-.01-.243q0-.046,0-.092c0-.021,0-.042,0-.063ZM23.79,33.826l-.313-.569.129-.4.294.538Zm-.744.344-.28-.5.135-.36.277.5Zm.58.246-.347-.582.151-.462.325.581Zm.53.02-.3-.5.108-.41.292.492Zm-.665.507-.385-.65.139-.371.346.589s-.1.429-.1.432m.51.075-.308-.494.124-.467.3.511Zm1.195-.146a.16.16,0,0,1-.029,0l-.014-.005a.057.057,0,0,1-.018-.016.056.056,0,0,1-.007-.02l0-.073-.021-.065a.155.155,0,0,1-.008-.046.135.135,0,0,1,.007-.04.059.059,0,0,1,.012-.019.046.046,0,0,1,.017-.011.054.054,0,0,1,.027,0,.03.03,0,0,1,.019.011.062.062,0,0,1,.009.013.208.208,0,0,1,.007.026c.006.033.011.065.015.1s.009.067.011.1a.083.083,0,0,1,0,.02.046.046,0,0,1-.008.018l-.017.015m-1.35.68-.292-.513.1-.4.309.487Zm1.384.8-.043-.023-.126-.3-.264-.148-.014-.048.061.01.189.106-.152-.358-.232-.136v-.042l.062.01.156.1-.087-.215.056-.017.416,1.022-.02.042" transform="translate(-13.555 -19.78)" fill="#1a1818"/>
        <path id="Path_908" data-name="Path 908" d="M22.5,30.341c-.027.021-.144.143-.173.163-.047.033-.095.064-.142.095-.024.015-.048.029-.074.042s-.042.02-.064.029a.322.322,0,0,1-.039.012.316.316,0,0,1-.044.009.1.1,0,0,1-.035,0,.027.027,0,0,1-.014-.006.038.038,0,0,1-.009-.023.061.061,0,0,1,.009-.032.235.235,0,0,1,.064-.07.615.615,0,0,1,.129-.071.762.762,0,0,0,.093-.044Zm.709.1c-.023.027-.046.056-.07.083a.075.075,0,0,1-.015.014.055.055,0,0,1-.023.012.554.554,0,0,1-.067.023.261.261,0,0,1-.043,0,.027.027,0,0,1-.012-.005.045.045,0,0,1-.017-.029.154.154,0,0,1,0-.06c0-.013.007-.026.011-.039Zm.943,0c-.017.027-.035.056-.054.083a1.374,1.374,0,0,1-.089.124l-.033.04-.069.079-.042-.007c0-.035-.007-.071-.009-.106a.325.325,0,0,1,0-.039c0-.01,0-.021,0-.032.01-.048.019-.094.029-.142Zm-1.971.883.037-.088-.176-.305-.01-.086.08.033.145.255.2-.526.035-.062.055.006.014.055-.043.117.228.37.145-.378.058,0,.012.073-.166.426.064.111h-.091l-.013-.024-.01.024h-.1l.048-.122-.222-.376-.157.418.046.08Zm.989,0,.018-.054-.135-.225-.01-.095.07.011.114.193.131-.406.346.5.066-.236.07-.015.021.078-.061.244h-.147l-.261-.385-.1.324.034.061Zm1.03,0c0-.041,0-.082,0-.122s.005-.088.01-.132a.075.075,0,0,1,.005-.019.084.084,0,0,1,.01-.019.086.086,0,0,1,.023-.023.025.025,0,0,1,.017,0,.023.023,0,0,1,.017.008.08.08,0,0,1,.017.027.13.13,0,0,1,.006.02.161.161,0,0,1,0,.019q0,.036,0,.073c0,.028,0,.055,0,.084v.088Zm.42,0c0-.008,0-.017,0-.025a.282.282,0,0,1,0-.036c0-.011.005-.023.008-.033a.119.119,0,0,1,.017-.033.055.055,0,0,1,.017-.016.043.043,0,0,1,.029,0,.042.042,0,0,1,.026.017.1.1,0,0,1,.013.021.048.048,0,0,1,.005.02c0,.029,0,.058.006.088Zm.478-.119a.211.211,0,0,1-.043-.007.022.022,0,0,1-.013-.007.036.036,0,0,1-.009-.023.1.1,0,0,1,.008-.046.27.27,0,0,1,.033-.06.422.422,0,0,1,.055-.058c.02-.017.041-.034.063-.05s.04-.029.061-.041a.864.864,0,0,1,.087-.05c.032-.016.065-.03.1-.043l.072-.024.114-.033c.073-.019.146-.037.22-.052.042-.008.084-.015.126-.021l.255-.029a1.2,1.2,0,0,0,.123-.021c.06-.013.121-.028.181-.044l.086-.027c.02-.007.039-.015.059-.023a1.019,1.019,0,0,1,.125-.044.148.148,0,0,1,.054,0,.227.227,0,0,1,.041.013.274.274,0,0,1-.008.031.126.126,0,0,1-.033.043.337.337,0,0,1-.061.037c-.025.012-.05.023-.076.033s-.054.021-.082.03-.072.023-.109.033-.083.022-.125.031l-.075.016-.145.028c-.141.026-.282.052-.423.08l-.025.006-.172.065a.679.679,0,0,0-.064.025L25.446,31c-.023.011-.046.023-.069.036l-.062.041c-.048.035-.1.069-.147.1l-.045.025-.021.008" transform="translate(-13.205 -18.287)" fill="#1a1818"/>
        <path id="Path_909" data-name="Path 909" d="M23.819,27.948c0,.013.024.187.021.2-.017.062-.035.125-.053.187l-.043.143c-.013.037-.024.076-.037.114l-.014.039-.027.079.007.013c.029-.044.058-.089.087-.133.015-.023.028-.045.043-.068.027-.046.054-.093.079-.142s.044-.091.064-.138.033-.079.047-.12c0,0,.091-.183.092-.187l.078.176c-.012.031-.024.061-.037.091q-.034.079-.07.157c-.023.049-.048.1-.073.149-.035.07-.073.138-.114.2a1.372,1.372,0,0,1-.09.13l-.112.141s-.078.065-.081.068l-.161-.058c.009-.033.02-.064.032-.1.03-.076.062-.152.1-.226a.948.948,0,0,0,.04-.1q.049-.147.091-.3c.014-.048.027-.1.038-.145l.005-.019Zm.7,0,0,.429-.012.235,0,.055,0,.11.037-.05.017-.026a.834.834,0,0,0,.071-.134.936.936,0,0,0,.048-.151l.071-.308h.19l-.02.1c-.013.061-.028.122-.045.182s-.034.111-.054.165-.044.114-.07.17-.059.125-.093.185c-.015.029-.032.056-.048.084l-.263.1c0-.023.009-.148.014-.17.012-.057.021-.113.027-.171.008-.074.014-.149.016-.223,0-.118.007-.238.008-.357a.2.2,0,0,0,0-.038c0-.009,0-.018,0-.027ZM22.65,28.992l.04-.024a1.633,1.633,0,0,0,.18-.134c.044-.037.088-.076.132-.115s.086-.08.128-.121.1-.106.153-.163a.876.876,0,0,0,.077-.1.616.616,0,0,1,.078-.1.349.349,0,0,1,.072-.058.1.1,0,0,1,.042-.015.023.023,0,0,1,.02.008.028.028,0,0,1,.008.021.107.107,0,0,1-.008.041.5.5,0,0,1-.056.1,1.936,1.936,0,0,1-.142.176l-.2.224a.9.9,0,0,1-.083.082q-.083.073-.171.141l-.054.041H22.65" transform="translate(-13.651 -16.836)" fill="#1a1818"/>
        <path id="Path_910" data-name="Path 910" d="M25.7,26.154l-.023.049a.647.647,0,0,1-.052.1.175.175,0,0,1-.036.04l-.027.014-.035-.007a.04.04,0,0,1-.014-.024.16.16,0,0,1,0-.058l.007-.035.017-.077Zm.594,0-.062.113-.079.142-.023.017L26.1,26.42a.028.028,0,0,1-.009-.02.291.291,0,0,1,.008-.069.9.9,0,0,0,.019-.092.588.588,0,0,0,.007-.074v-.01Zm-.927.883c.007-.034.015-.07.021-.105s.016-.089.025-.134q.007-.034.014-.067a.143.143,0,0,1,.016-.039.051.051,0,0,1,.018-.017.057.057,0,0,1,.042,0,.044.044,0,0,1,.027.024.084.084,0,0,1,.006.033.259.259,0,0,1-.01.06l-.035.219a.27.27,0,0,1-.006.03Zm.253.337c.019-.054.052-.445.069-.5l.064-.206.025-.079a.281.281,0,0,1,.016-.036.14.14,0,0,1,.018-.026.092.092,0,0,1,.048-.028.065.065,0,0,1,.048.007.06.06,0,0,1,.025.021.052.052,0,0,1,.01.026.152.152,0,0,1,0,.048.47.47,0,0,1-.021.076l-.062.2c-.011.033-.023.067-.035.1s-.014.039-.022.058Zm.415-.337a.659.659,0,0,1-.005-.139.255.255,0,0,1,.027-.1.079.079,0,0,1,.035-.035.037.037,0,0,1,.034,0,.049.049,0,0,1,.021.022.135.135,0,0,1,.014.048L26.153,27v.037Zm.344,0,.011-.046q.03-.131.057-.263a.238.238,0,0,0,.005-.05c0-.024,0-.048,0-.073a.375.375,0,0,1,.006-.043.135.135,0,0,1,.031-.06.081.081,0,0,1,.044-.023.111.111,0,0,1,.064.012.08.08,0,0,1,.037.043.258.258,0,0,1,.017.111.847.847,0,0,1-.037.193.527.527,0,0,0-.015.056c-.012.048-.022.1-.033.144l-.19.322" transform="translate(-15.288 -15.763)" fill="#1a1818"/>
        <path id="Path_911" data-name="Path 911" d="M25.792,21.809l0-.07a.9.9,0,0,0,.017-.093c.007-.056.012-.113.016-.169.008-.134.018-.267.029-.4,0-.026,0-.051.008-.077a1.313,1.313,0,0,0,.012-.136.22.22,0,0,0-.007-.058c-.008-.035-.016-.071-.021-.107a.153.153,0,0,1,0-.044.05.05,0,0,1,.014-.029.04.04,0,0,1,.028-.012.077.077,0,0,1,.027,0,.032.032,0,0,1,.015.01.166.166,0,0,1,.037.082.647.647,0,0,1,0,.18c0,.033-.008.068-.01.1,0,.074-.007.149-.008.224l0,.065,0,.135c.017-.023.033-.045.048-.069a.389.389,0,0,0,.02-.036.241.241,0,0,0,.013-.032c.012-.04.024-.08.034-.12L26.1,21c.01-.037.018-.074.027-.11s.009-.051.014-.076c.008-.057.016-.113.026-.169a.66.66,0,0,1,.014-.067.111.111,0,0,1,.017-.039.071.071,0,0,1,.023-.023.053.053,0,0,1,.029-.008.075.075,0,0,1,.033.008.115.115,0,0,1,.028.02.051.051,0,0,1,.014.021.17.17,0,0,1,.009.058.808.808,0,0,1-.014.128l-.046.236c-.008.036-.016.072-.024.108s-.019.071-.029.107-.032.1-.049.145a.56.56,0,0,1-.032.07l-.15.277-.031.06v0Zm.605.059.007-.639c.006-.139.007-.278,0-.417a.446.446,0,0,0-.02-.115.145.145,0,0,1-.008-.039.056.056,0,0,1,0-.023.042.042,0,0,1,.017-.027.044.044,0,0,1,.03-.008.079.079,0,0,1,.03.012.07.07,0,0,1,.019.022.231.231,0,0,1,.015.047.349.349,0,0,1,.007.064c0,.083,0,.165,0,.248,0,.159.007.319.011.478l.02-.028a.272.272,0,0,0,.023-.07c.02-.124.037-.248.049-.373l.039-.367c0-.015,0-.03.006-.045s0-.021.008-.031a.1.1,0,0,1,.021-.04.091.091,0,0,1,.033-.023.061.061,0,0,1,.055.007.1.1,0,0,1,.024.021.059.059,0,0,1,.011.019.257.257,0,0,1,.014.089,1.473,1.473,0,0,1-.017.209l-.065.415a1.7,1.7,0,0,1-.054.231.85.85,0,0,1-.067.157l-.06.11ZM27,21.022l-.048-.041-.021-.124-.008-.062,0-.021-.029-.3c-.008-.085-.018-.17-.032-.256-.01-.064-.022-.126-.037-.189s-.033-.126-.054-.188c-.027-.08-.057-.161-.089-.239-.02-.05-.041-.1-.064-.149-.03-.07-.062-.138-.095-.207-.024-.053-.048-.105-.072-.159s-.037-.086-.054-.13a.213.213,0,0,1-.015-.063.047.047,0,0,1,.007-.027.043.043,0,0,1,.023-.016.036.036,0,0,1,.026,0,.107.107,0,0,1,.042.034.3.3,0,0,1,.042.083c.018.054.039.108.062.161.041.094.084.187.129.28s.08.167.116.253a1.466,1.466,0,0,1,.056.15,1.639,1.639,0,0,1,.046.175c.021.1.039.2.052.3s.026.187.038.282.021.166.03.249l.015.138L27,21.022" transform="translate(-15.545 -11.36)" fill="#1a1818"/>
        <path id="Path_912" data-name="Path 912" d="M25.677,15.963a.36.36,0,0,0-.075,0l-.079-.01-.186-.032a2.824,2.824,0,0,0-.437-.044,2.463,2.463,0,0,0-.412.025l-.045.007-.088.015c-.006-.016-.01-.033-.014-.049s-.006-.026-.008-.039a.255.255,0,0,1,0-.049.094.094,0,0,1,.011-.033.207.207,0,0,1,.046-.057.154.154,0,0,1,.056-.03,1.127,1.127,0,0,1,.27-.045,2.653,2.653,0,0,1,.417.014q.218.024.435.051c.044.005.09.012.134.019a.263.263,0,0,1,.068.019.227.227,0,0,1,.051.031.148.148,0,0,1,.026.03.1.1,0,0,1,.014.033.21.21,0,0,1,.005.047c0,.022-.019.145-.188.1" transform="translate(-14.664 -9.412)" fill="#ffd300"/>
        <path id="Path_913" data-name="Path 913" d="M23.868,14.755a2.462,2.462,0,0,0-.343-.447,1.116,1.116,0,0,1,.543.389c-.051.052-.173.137-.2.058" transform="translate(-14.179 -8.623)" fill="#ffd300"/>
        <path id="Path_914" data-name="Path 914" d="M25.238,14.349l.375-.662.379.663a1.816,1.816,0,0,0-.753,0" transform="translate(-15.211 -8.249)" fill="#ffd300"/>
        <path id="Path_915" data-name="Path 915" d="M27.85,14.755a2.424,2.424,0,0,1,.342-.447,1.109,1.109,0,0,0-.542.389c.05.052.172.137.2.058" transform="translate(-16.665 -8.623)" fill="#ffd300"/>
      </g>
    </g>
  </g>
</svg>
