<svg xmlns="http://www.w3.org/2000/svg" xmlns:xlink="http://www.w3.org/1999/xlink" width="26.405" height="31.97" viewBox="0 0 26.405 31.97">
  <defs>
    <filter id="Union_4" x="0" y="0" width="26.405" height="31.97" filterUnits="userSpaceOnUse">
      <feOffset dy="1" input="SourceAlpha"/>
      <feGaussianBlur stdDeviation="1" result="blur"/>
      <feFlood flood-opacity="0.161"/>
      <feComposite operator="in" in2="blur"/>
      <feComposite in="SourceGraphic"/>
    </filter>
    <clipPath id="clip-path">
      <rect id="Rectangle_602" data-name="Rectangle 602" width="19.643" height="27.217" transform="translate(0 0)" fill="none"/>
    </clipPath>
  </defs>
  <g id="vorarlberg-fleg" transform="translate(3 2)">
    <g transform="matrix(1, 0, 0, 1, -3, -2)" filter="url(#Union_4)">
      <path id="Union_4-2" data-name="Union 4" d="M.014,16.232H0V0H20.405V16.232h-.014a10.2,10.2,0,0,1-20.376,0Z" transform="translate(3 2)" fill="#fff"/>
    </g>
    <g id="Group_1053" data-name="Group 1053" transform="translate(0.381 0)">
      <g id="Group_1053-2" data-name="Group 1053" transform="translate(0 0)" clip-path="url(#clip-path)">
        <path id="Path_966" data-name="Path 966" d="M.384.382H19.733V18.635a9.754,9.754,0,0,1-9.625,8.67C5.026,27.349.721,23.435.473,18.82Z" transform="translate(-0.237 -0.235)" fill="#fff"/>
        <path id="Path_967" data-name="Path 967" d="M6.815,4.421a1.374,1.374,0,1,0,.026,0H6.815m-.022.545H6.82a.825.825,0,1,1-.028,0" transform="translate(-3.375 -2.723)" fill="#db0616"/>
        <path id="Path_968" data-name="Path 968" d="M6.723,7.111A1.441,1.441,0,0,1,6.7,4.23h.027a1.44,1.44,0,0,1,0,2.881M6.706,4.377H6.7a1.3,1.3,0,1,0,.025,0Zm0,2.21a.906.906,0,0,1-.03-1.812H6.7a.906.906,0,1,1,0,1.812M6.684,4.921H6.677a.777.777,0,1,0,.025,0Z" transform="translate(-3.258 -2.605)" fill="#040405"/>
        <path id="Path_969" data-name="Path 969" d="M8.963,11.579H21.656V26.091H18.863V19.41H16.695V29.556H13.926V19.41H11.769v6.672H8.963Z" transform="translate(-5.521 -7.132)" fill="#db0616"/>
        <path id="Path_970" data-name="Path 970" d="M16.65,29.511H13.736V19.365H11.725v6.672H8.772V11.387H21.611V26.046H18.673V19.365H16.65Zm-2.768-.147H16.5V19.218h2.316V25.9h2.645V11.534H8.919V25.89h2.659V19.218h2.3Z" transform="translate(-5.403 -7.014)" fill="#040405"/>
        <path id="Path_971" data-name="Path 971" d="M23.338,4.421a1.374,1.374,0,1,0,.026,0h-.026m-.022.545h.028a.825.825,0,1,1-.028,0" transform="translate(-13.553 -2.723)" fill="#db0616"/>
        <path id="Path_972" data-name="Path 972" d="M23.246,7.111a1.441,1.441,0,0,1-.027-2.881h.027a1.44,1.44,0,0,1,0,2.881m-.017-2.734h-.007a1.3,1.3,0,1,0,.024,0Zm0,2.21a.906.906,0,0,1-.03-1.812h.03a.906.906,0,1,1,0,1.812m-.019-1.666H23.2a.777.777,0,1,0,.025,0Z" transform="translate(-13.435 -2.605)" fill="#040405"/>
        <path id="Path_973" data-name="Path 973" d="M39.86,4.421a1.374,1.374,0,1,0,.026,0H39.86m-.022.545h.028a.825.825,0,1,1-.028,0" transform="translate(-23.729 -2.723)" fill="#db0616"/>
        <path id="Path_974" data-name="Path 974" d="M39.768,7.111a1.441,1.441,0,0,1-.027-2.881h.027a1.44,1.44,0,0,1,0,2.881m-.017-2.734h-.007a1.3,1.3,0,1,0,.025,0Zm0,2.21a.906.906,0,0,1-.03-1.812h.03a.906.906,0,1,1,0,1.812m-.018-1.666h-.007a.777.777,0,1,0,.025,0Z" transform="translate(-23.611 -2.605)" fill="#040405"/>
        <rect id="Rectangle_576" data-name="Rectangle 576" width="12.662" height="0.382" transform="translate(3.444 7.801)" fill="#040405"/>
        <rect id="Rectangle_577" data-name="Rectangle 577" width="12.662" height="0.382" transform="translate(3.444 8.8)" fill="#040405"/>
        <rect id="Rectangle_578" data-name="Rectangle 578" width="2.726" height="0.382" transform="translate(3.502 13.853)" fill="#040405"/>
        <rect id="Rectangle_579" data-name="Rectangle 579" width="2.726" height="0.382" transform="translate(3.502 14.841)" fill="#040405"/>
        <rect id="Rectangle_580" data-name="Rectangle 580" width="2.726" height="0.382" transform="translate(13.373 13.853)" fill="#040405"/>
        <rect id="Rectangle_581" data-name="Rectangle 581" width="2.726" height="0.382" transform="translate(13.373 14.841)" fill="#040405"/>
        <rect id="Rectangle_582" data-name="Rectangle 582" width="2.726" height="0.382" transform="translate(8.452 16.43)" fill="#040405"/>
        <rect id="Rectangle_583" data-name="Rectangle 583" width="2.726" height="0.382" transform="translate(8.452 17.419)" fill="#040405"/>
        <rect id="Rectangle_584" data-name="Rectangle 584" width="2.726" height="0.382" transform="translate(3.458 17.899)" fill="#040405"/>
        <rect id="Rectangle_585" data-name="Rectangle 585" width="2.726" height="0.382" transform="translate(13.405 17.899)" fill="#040405"/>
        <rect id="Rectangle_586" data-name="Rectangle 586" width="2.726" height="0.382" transform="translate(8.452 21.37)" fill="#040405"/>
        <rect id="Rectangle_587" data-name="Rectangle 587" width="0.426" height="1.571" transform="translate(3.371 19.004)" fill="#040405"/>
        <path id="Path_975" data-name="Path 975" d="M9.238,51.07l-.088-.005a.334.334,0,0,0-.02-.1c-.008-.03-.018-.063-.025-.1a.585.585,0,0,1,.038-.311.366.366,0,0,0,.02-.232.805.805,0,0,1-.035-.257.549.549,0,0,1,.02-.107.348.348,0,0,0,.017-.128l0-.043a2.544,2.544,0,0,1-.021-.275l.088,0a2.627,2.627,0,0,0,.02.262l0,.043a.418.418,0,0,1-.019.159.49.49,0,0,0-.017.091.7.7,0,0,0,.033.228.453.453,0,0,1-.022.283.506.506,0,0,0-.035.265c.007.036.016.068.024.1a.394.394,0,0,1,.023.132" transform="translate(-5.603 -30.494)" fill="#fff"/>
        <rect id="Rectangle_588" data-name="Rectangle 588" width="0.426" height="1.571" transform="translate(4.017 19.004)" fill="#040405"/>
        <path id="Path_976" data-name="Path 976" d="M10.921,51.07l-.088-.005a.334.334,0,0,0-.02-.1c-.008-.03-.018-.063-.025-.1a.585.585,0,0,1,.038-.311.366.366,0,0,0,.02-.232.805.805,0,0,1-.035-.257.549.549,0,0,1,.02-.107.348.348,0,0,0,.017-.128l0-.043a2.545,2.545,0,0,1-.021-.275l.088,0a2.625,2.625,0,0,0,.02.262l0,.043a.418.418,0,0,1-.019.159.49.49,0,0,0-.017.091.7.7,0,0,0,.033.228.453.453,0,0,1-.022.283.506.506,0,0,0-.035.265c.007.036.016.068.024.1a.394.394,0,0,1,.023.132" transform="translate(-6.64 -30.494)" fill="#fff"/>
        <rect id="Rectangle_589" data-name="Rectangle 589" width="0.426" height="1.571" transform="translate(4.632 19.004)" fill="#040405"/>
        <path id="Path_977" data-name="Path 977" d="M12.523,51.07l-.088-.005a.334.334,0,0,0-.02-.1c-.008-.03-.018-.063-.025-.1a.594.594,0,0,1,.038-.311.366.366,0,0,0,.02-.232.816.816,0,0,1-.036-.257.579.579,0,0,1,.02-.107.348.348,0,0,0,.017-.128l0-.043a2.557,2.557,0,0,1-.021-.275l.088,0a2.632,2.632,0,0,0,.02.263l0,.043a.418.418,0,0,1-.019.159.532.532,0,0,0-.018.091.709.709,0,0,0,.033.228.453.453,0,0,1-.022.283.506.506,0,0,0-.035.265c.007.036.016.068.024.1a.394.394,0,0,1,.023.132" transform="translate(-7.627 -30.494)" fill="#fff"/>
        <rect id="Rectangle_590" data-name="Rectangle 590" width="0.426" height="1.571" transform="translate(5.261 19.004)" fill="#040405"/>
        <path id="Path_978" data-name="Path 978" d="M14.161,51.07l-.088-.005a.334.334,0,0,0-.02-.1c-.008-.03-.018-.063-.025-.1a.594.594,0,0,1,.038-.311.366.366,0,0,0,.02-.232.805.805,0,0,1-.035-.257.549.549,0,0,1,.02-.107.348.348,0,0,0,.017-.128l0-.043a2.557,2.557,0,0,1-.021-.275l.088,0c0,.053.011.174.02.263l0,.043a.418.418,0,0,1-.019.159.532.532,0,0,0-.018.091.719.719,0,0,0,.033.228.453.453,0,0,1-.022.283.51.51,0,0,0-.035.265c.007.036.016.068.024.1a.394.394,0,0,1,.023.132" transform="translate(-8.636 -30.494)" fill="#fff"/>
        <rect id="Rectangle_591" data-name="Rectangle 591" width="0.426" height="1.571" transform="translate(5.897 19.004)" fill="#040405"/>
        <path id="Path_979" data-name="Path 979" d="M15.817,51.07l-.088-.005a.334.334,0,0,0-.02-.1c-.008-.03-.018-.063-.025-.1a.585.585,0,0,1,.038-.311.366.366,0,0,0,.02-.232.805.805,0,0,1-.035-.257.549.549,0,0,1,.02-.107.348.348,0,0,0,.017-.128l0-.043a2.544,2.544,0,0,1-.021-.275l.088,0a2.626,2.626,0,0,0,.02.262l0,.043a.418.418,0,0,1-.019.159.49.49,0,0,0-.017.091.7.7,0,0,0,.033.228.453.453,0,0,1-.022.283.506.506,0,0,0-.035.265c.007.036.016.068.024.1a.394.394,0,0,1,.023.132" transform="translate(-9.655 -30.494)" fill="#fff"/>
        <rect id="Rectangle_592" data-name="Rectangle 592" width="0.419" height="1.571" transform="translate(8.335 22.472)" fill="#040405"/>
        <path id="Path_980" data-name="Path 980" d="M22.158,60.1,22.07,60.1a.359.359,0,0,0-.019-.1c-.008-.03-.017-.063-.025-.1a.6.6,0,0,1,.038-.31.372.372,0,0,0,.02-.232.816.816,0,0,1-.035-.257.585.585,0,0,1,.02-.107.348.348,0,0,0,.017-.128l0-.043a2.545,2.545,0,0,1-.021-.275l.088,0a2.493,2.493,0,0,0,.02.262l0,.043a.432.432,0,0,1-.019.159.5.5,0,0,0-.018.091.716.716,0,0,0,.033.228.461.461,0,0,1-.022.283.515.515,0,0,0-.034.265c.007.036.016.068.023.1a.4.4,0,0,1,.022.132" transform="translate(-13.562 -36.056)" fill="#fff"/>
        <rect id="Rectangle_593" data-name="Rectangle 593" width="0.419" height="1.571" transform="translate(8.972 22.472)" fill="#040405"/>
        <path id="Path_981" data-name="Path 981" d="M23.816,60.1l-.088-.005a.346.346,0,0,0-.019-.1c-.008-.03-.017-.063-.025-.1a.6.6,0,0,1,.037-.31.372.372,0,0,0,.02-.232.827.827,0,0,1-.035-.257.586.586,0,0,1,.02-.107.348.348,0,0,0,.017-.128l0-.043a2.558,2.558,0,0,1-.021-.275l.088,0a2.494,2.494,0,0,0,.02.262l0,.043a.432.432,0,0,1-.019.159.5.5,0,0,0-.018.091.727.727,0,0,0,.033.228.461.461,0,0,1-.022.283.515.515,0,0,0-.034.265c.007.036.016.068.023.1a.4.4,0,0,1,.022.132" transform="translate(-14.583 -36.056)" fill="#fff"/>
        <rect id="Rectangle_594" data-name="Rectangle 594" width="0.419" height="1.571" transform="translate(9.578 22.472)" fill="#040405"/>
        <path id="Path_982" data-name="Path 982" d="M25.394,60.1l-.088-.005a.346.346,0,0,0-.019-.1c-.008-.03-.017-.063-.025-.1a.6.6,0,0,1,.037-.31.372.372,0,0,0,.02-.232.828.828,0,0,1-.035-.257.585.585,0,0,1,.02-.107.348.348,0,0,0,.017-.128l0-.043a2.557,2.557,0,0,1-.021-.275l.088,0a2.493,2.493,0,0,0,.02.262l0,.043a.432.432,0,0,1-.019.159.5.5,0,0,0-.018.091.728.728,0,0,0,.033.228.461.461,0,0,1-.022.283.515.515,0,0,0-.034.265c.007.036.016.068.023.1a.4.4,0,0,1,.022.132" transform="translate(-15.555 -36.056)" fill="#fff"/>
        <rect id="Rectangle_595" data-name="Rectangle 595" width="0.419" height="1.571" transform="translate(10.198 22.472)" fill="#040405"/>
        <path id="Path_983" data-name="Path 983" d="M27.007,60.1l-.088-.005a.356.356,0,0,0-.019-.1c-.008-.03-.017-.063-.025-.1a.6.6,0,0,1,.038-.31.372.372,0,0,0,.02-.232.816.816,0,0,1-.035-.257.586.586,0,0,1,.02-.107.348.348,0,0,0,.017-.128l0-.043a2.626,2.626,0,0,1-.02-.275l.088,0a2.488,2.488,0,0,0,.02.262l0,.043a.425.425,0,0,1-.018.159.5.5,0,0,0-.018.091.716.716,0,0,0,.033.228.461.461,0,0,1-.022.283.515.515,0,0,0-.034.265c.007.036.016.068.023.1a.4.4,0,0,1,.022.132" transform="translate(-16.548 -36.056)" fill="#fff"/>
        <rect id="Rectangle_596" data-name="Rectangle 596" width="0.419" height="1.571" transform="translate(10.824 22.472)" fill="#040405"/>
        <path id="Path_984" data-name="Path 984" d="M28.639,60.1l-.088-.005a.346.346,0,0,0-.019-.1c-.008-.03-.017-.063-.025-.1a.6.6,0,0,1,.037-.31.372.372,0,0,0,.02-.232.816.816,0,0,1-.035-.257.586.586,0,0,1,.02-.107.348.348,0,0,0,.017-.128l0-.043a2.545,2.545,0,0,1-.021-.275l.088,0a2.493,2.493,0,0,0,.02.262l0,.043a.425.425,0,0,1-.018.159.5.5,0,0,0-.018.091.718.718,0,0,0,.033.228.461.461,0,0,1-.022.283.515.515,0,0,0-.034.265c.007.036.016.068.023.1a.4.4,0,0,1,.022.132" transform="translate(-17.554 -36.056)" fill="#fff"/>
        <rect id="Rectangle_597" data-name="Rectangle 597" width="0.424" height="1.571" transform="translate(13.271 19.007)" fill="#040405"/>
        <path id="Path_985" data-name="Path 985" d="M35.014,51.079l-.088-.005a.344.344,0,0,0-.019-.1c-.008-.03-.018-.063-.026-.1a.6.6,0,0,1,.038-.311.366.366,0,0,0,.02-.232.805.805,0,0,1-.035-.257.587.587,0,0,1,.02-.107.348.348,0,0,0,.017-.128l0-.043a2.542,2.542,0,0,1-.021-.275l.088,0a2.616,2.616,0,0,0,.02.262l0,.043a.427.427,0,0,1-.019.159.49.49,0,0,0-.017.091.718.718,0,0,0,.033.228.456.456,0,0,1-.022.283.507.507,0,0,0-.035.265c.007.036.016.068.024.1a.4.4,0,0,1,.022.132" transform="translate(-21.48 -30.499)" fill="#fff"/>
        <rect id="Rectangle_598" data-name="Rectangle 598" width="0.424" height="1.571" transform="translate(13.914 19.007)" fill="#040405"/>
        <path id="Path_986" data-name="Path 986" d="M36.689,51.079l-.088-.005a.357.357,0,0,0-.019-.1c-.008-.03-.018-.063-.026-.1a.6.6,0,0,1,.038-.31.365.365,0,0,0,.021-.232.794.794,0,0,1-.035-.257.586.586,0,0,1,.02-.107.365.365,0,0,0,.017-.128l0-.043a2.539,2.539,0,0,1-.021-.275l.088,0a2.507,2.507,0,0,0,.02.262l0,.043a.419.419,0,0,1-.019.159.467.467,0,0,0-.017.091.717.717,0,0,0,.033.228.456.456,0,0,1-.022.283.511.511,0,0,0-.035.265c.007.036.016.068.024.1a.4.4,0,0,1,.022.132" transform="translate(-22.512 -30.499)" fill="#fff"/>
        <rect id="Rectangle_599" data-name="Rectangle 599" width="0.424" height="1.571" transform="translate(14.527 19.007)" fill="#040405"/>
        <path id="Path_987" data-name="Path 987" d="M38.283,51.079l-.088-.005a.344.344,0,0,0-.019-.1c-.008-.03-.018-.063-.026-.1a.6.6,0,0,1,.038-.311.366.366,0,0,0,.02-.232.805.805,0,0,1-.035-.257.58.58,0,0,1,.02-.107.348.348,0,0,0,.017-.128l0-.043a2.539,2.539,0,0,1-.021-.275l.088,0a2.614,2.614,0,0,0,.02.262l0,.043a.424.424,0,0,1-.019.159.5.5,0,0,0-.017.091.718.718,0,0,0,.033.228.456.456,0,0,1-.022.283.511.511,0,0,0-.035.265c.007.036.016.068.024.1a.4.4,0,0,1,.022.132" transform="translate(-23.494 -30.499)" fill="#fff"/>
        <rect id="Rectangle_600" data-name="Rectangle 600" width="0.424" height="1.571" transform="translate(15.152 19.007)" fill="#040405"/>
        <path id="Path_988" data-name="Path 988" d="M39.912,51.079l-.088-.005a.344.344,0,0,0-.019-.1c-.008-.03-.018-.063-.026-.1a.6.6,0,0,1,.038-.311.366.366,0,0,0,.02-.232.805.805,0,0,1-.035-.257.585.585,0,0,1,.02-.107.348.348,0,0,0,.017-.128l0-.043a2.547,2.547,0,0,1-.021-.275l.088,0a2.621,2.621,0,0,0,.02.262l0,.043a.427.427,0,0,1-.019.159.491.491,0,0,0-.017.091.718.718,0,0,0,.033.228.456.456,0,0,1-.022.283.507.507,0,0,0-.035.265c.007.036.016.068.024.1a.4.4,0,0,1,.022.132" transform="translate(-24.497 -30.499)" fill="#fff"/>
        <rect id="Rectangle_601" data-name="Rectangle 601" width="0.424" height="1.571" transform="translate(15.785 19.007)" fill="#040405"/>
        <path id="Path_989" data-name="Path 989" d="M41.56,51.079l-.088-.005a.344.344,0,0,0-.019-.1c-.008-.03-.018-.063-.026-.1a.6.6,0,0,1,.038-.311.366.366,0,0,0,.02-.232.805.805,0,0,1-.035-.257.587.587,0,0,1,.02-.107.348.348,0,0,0,.017-.128l0-.043a2.543,2.543,0,0,1-.021-.275l.088,0a2.621,2.621,0,0,0,.02.262l0,.043a.427.427,0,0,1-.019.159.491.491,0,0,0-.017.091.718.718,0,0,0,.033.228.456.456,0,0,1-.022.283.507.507,0,0,0-.035.265c.007.036.016.068.024.1a.4.4,0,0,1,.022.132" transform="translate(-25.512 -30.499)" fill="#fff"/>
      </g>
    </g>
  </g>
</svg>
